<svg viewBox="0 0 860 195" xmlns="http://www.w3.org/2000/svg" role="img" font-family="'Inter','Segoe UI',sans-serif">
  <title>whpg-dr setup flow: phase 1 active — Set up primary cluster</title>
  <desc>Three-phase setup flow with phase 1 highlighted. Phase 1: Set up primary cluster (active). Phase 2: Set up DR cluster. Phase 3: Perform DR.</desc>

  <defs>
    <marker id="arr" markerWidth="7" markerHeight="7" refX="5" refY="3.5" orient="auto">
      <path d="M0,0 L0,7 L7,3.5 z" fill="#429D9E"/>
    </marker>
  </defs>

  <rect width="860" height="195" rx="8" fill="#ffffff"/>

  <!-- Phase 1 (active) -->
  <rect x="10" y="10" width="252" height="175" rx="8" fill="#FFF3E8" stroke="#F89E5D" stroke-width="2"/>
  <rect x="10" y="10" width="252" height="44" rx="8" fill="#F89E5D"/>
  <rect x="10" y="38" width="252" height="16" fill="#F89E5D"/>
  <text x="136" y="37" text-anchor="middle" font-size="13" font-weight="700" fill="#ffffff">1. Set up primary cluster</text>
  <text x="28" y="74"  font-size="12" fill="#7A4A1E">Set up storage repository</text>
  <text x="28" y="98"  font-size="12" fill="#7A4A1E">Install and configure whpg-dr</text>
  <text x="28" y="122" font-size="12" fill="#7A4A1E">Perform backup</text>
  <text x="28" y="146" font-size="12" fill="#7A4A1E">Schedule / run restore points</text>

  <!-- Arrow 1→2 -->
  <line x1="264" y1="98" x2="299" y2="98" stroke="#429D9E" stroke-width="1.5" marker-end="url(#arr)"/>

  <!-- Phase 2 (muted) -->
  <rect x="305" y="10" width="252" height="175" rx="8" fill="#F4F7F8" stroke="#C8D8DC" stroke-width="1.5"/>
  <rect x="305" y="10" width="252" height="44" rx="8" fill="#9BBFC6"/>
  <rect x="305" y="38" width="252" height="16" fill="#9BBFC6"/>
  <text x="431" y="37" text-anchor="middle" font-size="13" font-weight="700" fill="#ffffff">2. Set up DR cluster</text>
  <text x="323" y="80"  font-size="12" fill="#999">Provision DR hosts</text>
  <text x="323" y="108" font-size="12" fill="#999">Install WarehousePG and whpg-dr</text>
  <text x="323" y="136" font-size="12" fill="#999">Configure restore</text>

  <!-- Arrow 2→3 -->
  <line x1="559" y1="98" x2="594" y2="98" stroke="#429D9E" stroke-width="1.5" marker-end="url(#arr)"/>

  <!-- Phase 3 (muted) -->
  <rect x="600" y="10" width="252" height="175" rx="8" fill="#F4F7F8" stroke="#C8D8DC" stroke-width="1.5"/>
  <rect x="600" y="10" width="252" height="44" rx="8" fill="#9BBFC6"/>
  <rect x="600" y="38" width="252" height="16" fill="#9BBFC6"/>
  <text x="726" y="37" text-anchor="middle" font-size="13" font-weight="700" fill="#ffffff">3. Perform DR</text>
  <text x="618" y="80"  font-size="12" fill="#999">Restore (Cold DR / Warm DR / PITR)</text>
  <text x="618" y="108" font-size="12" fill="#999">Promote the DR cluster</text>
  <text x="618" y="136" font-size="12" fill="#999">Add mirrors and standby (optional)</text>
</svg>
