<svg xmlns="http://www.w3.org/2000/svg" xmlns:xlink="http://www.w3.org/1999/xlink" xmlns:lucid="lucid" width="1278" height="1078"><g transform="translate(-882 481)" lucid:page-tab-id="0_0"><path d="M1370 45.25a6 6 0 0 1 6-6h348a6 6 0 0 1 6 6v408a6 6 0 0 1-6 6h-348a6 6 0 0 1-6-6zM1760 45.25a6 6 0 0 1 6-6h348a6 6 0 0 1 6 6v408a6 6 0 0 1-6 6h-348a6 6 0 0 1-6-6zM980 45.25a6 6 0 0 1 6-6h348a6 6 0 0 1 6 6v408a6 6 0 0 1-6 6H986a6 6 0 0 1-6-6z" stroke="#000" stroke-width="2" fill="#fff"/><path d="M980-54.75a6 6 0 0 1 6-6h1128a6 6 0 0 1 6 6v28a6 6 0 0 1-6 6H986a6 6 0 0 1-6-6z" stroke="#fff" stroke-width="2" fill="#05835f"/><use xlink:href="#a" transform="matrix(1,0,0,1,985,-55.749999999999886) translate(519.7802734375 22.3046875)"/><path d="M1550-18.75v22a6 6 0 0 1-6 6h-288a6 6 0 0 0-6 6v44.5" stroke="#ea704d" stroke-width="2" fill="none"/><path d="M1550.97-18.72h-1.94v-1.03h1.94z" stroke="#ea704d" stroke-width=".05" fill="#ea704d"/><path d="M1250 75l-4.63-14.25h9.27z" stroke="#ea704d" stroke-width="2" fill="#ea704d"/><path d="M1045.62-101.64l1.07.25 1 .43.93.58.83.72.72.83.57.93.42 1 .25 1.08.1 1.05v14.55h-1.96V-94.7l-.07-.84-.2-.76-.3-.73-.4-.67-.52-.6-.6-.5-.67-.42-.72-.3-.76-.2-.83-.06h-78.46l-.83.07-.75.17-.73.3-.67.42-.6.5-.5.6-.43.67-.3.73-.18.76-.06.83v597.9l.06.84.18.76.3.73.42.67.5.6.6.5.68.43.73.3.76.18.84.07h108.32l.83-.06.75-.17.73-.3.67-.42.6-.5.5-.6.42-.67.3-.73.2-.76.06-.83v-69.18h1.94v69.27l-.08 1.04-.26 1.07-.42 1.02-.57.93-.72.83-.83.7-.93.6-1 .4-1.08.26-1.06.1H965.96l-1.05-.1-1.06-.25-1-.43-.94-.58-.83-.72-.72-.83-.57-.93-.42-1-.25-1.08-.08-1.05V-94.8l.1-1.04.24-1.07.42-1.02.58-.93.7-.83.84-.7.93-.6 1-.4 1.08-.26 1.06-.08h78.6zm35.76 514.83h-1.96v-8.45h1.95z" stroke="#136b80" stroke-width=".05" fill="#136b80"/><path d="M1081.38 404.78h-1.96v-1.03h1.95z" fill="#136b80"/><path stroke="#136b80" stroke-width=".05" fill="#136b80"/><path d="M1050.53-65l-4.63-14.25h9.26z" fill="#136b80"/><path d="M1050.53-61.83l-5.98-18.4h11.96zm-3.3-16.45l3.3 10.14 3.3-10.14z" stroke="#136b80" stroke-width=".05" fill="#136b80"/><use xlink:href="#b" transform="matrix(1,0,0,1,1055.2220484089141,413.18462327042033) translate(0 16.493055555555557)"/><path d="M1066.3-121.64l1.05.25 1 .43.95.58.83.72.7.83.58.93.43 1 .26 1.08.07 1.05v34.55h-1.95v-34.46l-.06-.84-.2-.76-.3-.73-.4-.67-.5-.6-.6-.5-.68-.42-.73-.3-.77-.2-.82-.06H946.04l-.83.07-.75.17-.73.3-.67.42-.6.5-.5.6-.43.67-.3.73-.18.76-.06.83v637.9l.06.84.18.76.3.73.42.67.5.6.6.5.68.43.73.3.76.18.84.07h507.92l.83-.06.75-.17.73-.3.67-.42.6-.5.5-.6.42-.67.3-.73.2-.76.06-.83V433h1.94v90.3l-.08 1.04-.26 1.07-.42 1.02-.58.93-.7.83-.84.72-.93.57-1 .42-1.08.24-1.06.1H945.96l-1.05-.1-1.06-.25-1-.43-.94-.58-.83-.72-.72-.83-.57-.93-.42-1-.25-1.08-.08-1.05v-638.1l.1-1.04.24-1.07.42-1.02.58-.93.7-.83.84-.7.93-.6 1-.4 1.08-.26 1.06-.08h119.27zm394.67 533.8h-1.94v-7.4h1.94z" stroke="#136b80" stroke-width=".05" fill="#136b80"/><path d="M1460.97 404.78h-1.94v-1.03h1.94z" fill="#136b80"/><path stroke="#136b80" stroke-width=".05" fill="#136b80"/><path d="M1071.2-65l-4.64-14.25h9.27z" fill="#136b80"/><path d="M1071.2-61.83l-5.98-18.4h11.95zm-3.3-16.45l3.3 10.14 3.3-10.14z" stroke="#136b80" stroke-width=".05" fill="#136b80"/><use xlink:href="#b" transform="matrix(1,0,0,1,1434.822048611111,412.1617809300031) translate(0 16.493055555555557)"/><path d="M1085.08-141.64l1.06.25 1 .43.94.57.84.72.7.83.58.93.42 1 .26 1.08.08 1.05v54.55H1089v-54.46l-.06-.84-.18-.76-.3-.73-.4-.67-.53-.6-.6-.5-.67-.42-.72-.3-.77-.2-.83-.06h-157.9l-.83.07-.75.17-.73.3-.67.42-.6.5-.5.6-.43.67-.3.73-.18.76-.06.83v677.9l.06.84.18.76.3.73.42.67.5.6.6.5.68.43.73.3.76.18.84.07h907.92l.83-.06.75-.17.73-.3.67-.42.6-.5.5-.6.42-.67.3-.73.2-.76.06-.83V429.48h1.94V543.3l-.08 1.04-.26 1.07-.42 1.02-.58.93-.7.83-.84.72-.93.57-1 .42-1.08.24-1.06.1H925.96l-1.05-.1-1.06-.25-1-.43-.94-.58-.83-.72-.72-.83-.57-.93-.42-1-.25-1.08-.08-1.05v-678.1l.1-1.04.24-1.07.42-1.02.58-.93.7-.83.84-.72.93-.57 1-.42 1.08-.24 1.06-.1 158.06.02zm755.9 550.28h-1.95v-3.9h1.94z" stroke="#136b80" stroke-width=".05" fill="#136b80"/><path d="M1840.97 404.78h-1.94v-1.03h1.94z" fill="#136b80"/><path stroke="#136b80" stroke-width=".05" fill="#136b80"/><path d="M1089.98-65l-4.63-14.25h9.27z" fill="#136b80"/><path d="M1089.98-61.83l-5.97-18.4h11.96zm-3.3-16.45l3.3 10.14 3.3-10.14z" stroke="#136b80" stroke-width=".05" fill="#136b80"/><use xlink:href="#b" transform="matrix(1,0,0,1,1814.822048611111,408.63472558868744) translate(0 16.493055555555557)"/><path d="M1023 356.2a10.35 10.35 0 0 1 0-10.4l24-41.36a10.4 10.4 0 0 1 9-5.2h48a10.4 10.4 0 0 1 9 5.2l24 41.37a10.35 10.35 0 0 1 0 10.4l-24 41.36a10.4 10.4 0 0 1-9 5.2h-48a10.4 10.4 0 0 1-9-5.2z" stroke="#fff" stroke-width="2" fill="#e7c668"/><use xlink:href="#c" transform="matrix(1,0,0,1,1025,304.25) translate(34.1700390625 39.1171875)"/><use xlink:href="#d" transform="matrix(1,0,0,1,1025,304.25) translate(28.183710937500003 67.2421875)"/><path d="M1080.97 297.25h-1.94v-37.58h1.94zm0-58.42h-1.94v-20.08h1.94z" stroke="#136b80" stroke-width=".05" fill="#136b80"/><path d="M1080.97 298.25h-1.94v-1.03h1.94z" fill="#136b80"/><path stroke="#136b80" stroke-width=".05" fill="#136b80"/><path d="M1084.63 217.75h-9.27l4.64-14.26z" fill="#136b80"/><path d="M1085.98 218.73h-11.96l5.98-18.4zm-9.27-1.95h6.6l-3.3-10.14z" stroke="#136b80" stroke-width=".05" fill="#136b80"/><use xlink:href="#e" transform="matrix(1,0,0,1,1036.3932291666667,238.83363827023405) translate(0 16.493055555555557)"/><path d="M1140 187.25c0 6.63-26.86 12-60 12s-60-5.37-60-12v-96c0-6.63 26.86-12 60-12s60 5.37 60 12z" stroke="#fff" stroke-width="2" fill="#136b80"/><path d="M1140 91.25c0 6.63-26.86 12-60 12s-60-5.37-60-12" stroke="#fff" stroke-width="2" fill="none"/><use xlink:href="#f" transform="matrix(1,0,0,1,1025,108.25) translate(34.1650390625 34.6796875)"/><use xlink:href="#g" transform="matrix(1,0,0,1,1025,108.25) translate(16.9091796875 62.8046875)"/><path d="M1180 85.25a6 6 0 0 1 6-6h128a6 6 0 0 1 6 6v108a6 6 0 0 1-6 6h-128a6 6 0 0 1-6-6z" stroke="#fff" stroke-width="2" fill="#ea704d"/><use xlink:href="#h" transform="matrix(1,0,0,1,1185,84.25) translate(22.0458984375 46.0546875)"/><use xlink:href="#i" transform="matrix(1,0,0,1,1185,84.25) translate(68.6962890625 46.0546875)"/><use xlink:href="#j" transform="matrix(1,0,0,1,1185,84.25) translate(13.84765625 74.1796875)"/><path d="M1550-225.24v145" stroke="#ea704d" stroke-width="2" fill="none"/><path d="M1550.45-226l.52.24v.54h-1.94v-1.58z" stroke="#ea704d" stroke-width=".05" fill="#ea704d"/><path d="M1550-65l-4.63-14.25h9.27z" stroke="#ea704d" stroke-width="2" fill="#ea704d"/><path d="M1178 139.25h-18.5" stroke="#136b80" stroke-width="2" fill="none"/><path d="M1179 140.22h-1.03v-1.94h1.03z" stroke="#136b80" stroke-width=".05" fill="#136b80"/><path d="M1144.24 139.25l14.26-4.63v9.26z" stroke="#136b80" stroke-width="2" fill="#136b80"/><path d="M1403 356.2a10.35 10.35 0 0 1 0-10.4l24-41.36a10.4 10.4 0 0 1 9-5.2h48a10.4 10.4 0 0 1 9 5.2l24 41.37a10.35 10.35 0 0 1 0 10.4l-24 41.36a10.4 10.4 0 0 1-9 5.2h-48a10.4 10.4 0 0 1-9-5.2z" stroke="#fff" stroke-width="2" fill="#e7c668"/><use xlink:href="#c" transform="matrix(1,0,0,1,1405,304.25) translate(34.1700390625 39.1171875)"/><use xlink:href="#d" transform="matrix(1,0,0,1,1405,304.25) translate(28.183710937500003 67.2421875)"/><path d="M1460.97 297.25h-1.94v-37.58h1.94zm0-58.42h-1.94v-20.08h1.94z" stroke="#136b80" stroke-width=".05" fill="#136b80"/><path d="M1460.97 298.25h-1.94v-1.03h1.94z" fill="#136b80"/><path stroke="#136b80" stroke-width=".05" fill="#136b80"/><path d="M1464.63 217.75h-9.27l4.64-14.26z" fill="#136b80"/><path d="M1465.98 218.73h-11.96l5.98-18.4zm-9.27-1.95h6.6l-3.3-10.14z" stroke="#136b80" stroke-width=".05" fill="#136b80"/><use xlink:href="#e" transform="matrix(1,0,0,1,1416.3932291666667,238.83363827023405) translate(0 16.493055555555557)"/><path d="M1520 187.25c0 6.63-26.86 12-60 12s-60-5.37-60-12v-96c0-6.63 26.86-12 60-12s60 5.37 60 12z" stroke="#fff" stroke-width="2" fill="#707070"/><path d="M1520 91.25c0 6.63-26.86 12-60 12s-60-5.37-60-12" stroke="#fff" stroke-width="2" fill="none"/><use xlink:href="#f" transform="matrix(1,0,0,1,1405,108.25) translate(34.1650390625 34.6796875)"/><use xlink:href="#g" transform="matrix(1,0,0,1,1405,108.25) translate(16.9091796875 62.8046875)"/><path d="M1560 85.25a6 6 0 0 1 6-6h128a6 6 0 0 1 6 6v108a6 6 0 0 1-6 6h-128a6 6 0 0 1-6-6z" stroke="#fff" stroke-width="2" fill="#ea704d"/><use xlink:href="#h" transform="matrix(1,0,0,1,1565,84.25) translate(22.0458984375 46.0546875)"/><use xlink:href="#i" transform="matrix(1,0,0,1,1565,84.25) translate(68.6962890625 46.0546875)"/><use xlink:href="#j" transform="matrix(1,0,0,1,1565,84.25) translate(13.84765625 74.1796875)"/><path d="M1558 139.25h-18.5" stroke="#136b80" stroke-width="2" fill="none"/><path d="M1559 140.22h-1.03v-1.94h1.03z" stroke="#136b80" stroke-width=".05" fill="#136b80"/><path d="M1524.24 139.25l14.26-4.63v9.26z" stroke="#136b80" stroke-width="2" fill="#136b80"/><path d="M1783 356.2a10.35 10.35 0 0 1 0-10.4l24-41.36a10.4 10.4 0 0 1 9-5.2h48a10.4 10.4 0 0 1 9 5.2l24 41.37a10.35 10.35 0 0 1 0 10.4l-24 41.36a10.4 10.4 0 0 1-9 5.2h-48a10.4 10.4 0 0 1-9-5.2z" stroke="#fff" stroke-width="2" fill="#e7c668"/><use xlink:href="#c" transform="matrix(1,0,0,1,1785,304.25) translate(34.1700390625 39.1171875)"/><use xlink:href="#d" transform="matrix(1,0,0,1,1785,304.25) translate(28.183710937500003 67.2421875)"/><path d="M1840.97 297.25h-1.94v-37.58h1.94zm0-58.42h-1.94v-20.08h1.94z" stroke="#136b80" stroke-width=".05" fill="#136b80"/><path d="M1840.97 298.25h-1.94v-1.03h1.94z" fill="#136b80"/><path stroke="#136b80" stroke-width=".05" fill="#136b80"/><path d="M1844.63 217.75h-9.27l4.64-14.26z" fill="#136b80"/><path d="M1845.98 218.73h-11.96l5.98-18.4zm-9.27-1.95h6.6l-3.3-10.14z" stroke="#136b80" stroke-width=".05" fill="#136b80"/><use xlink:href="#e" transform="matrix(1,0,0,1,1796.3932291666667,238.83363827023405) translate(0 16.493055555555557)"/><path d="M1900 187.25c0 6.63-26.86 12-60 12s-60-5.37-60-12v-96c0-6.63 26.86-12 60-12s60 5.37 60 12z" stroke="#fff" stroke-width="2" fill="#707070"/><path d="M1900 91.25c0 6.63-26.86 12-60 12s-60-5.37-60-12" stroke="#fff" stroke-width="2" fill="none"/><use xlink:href="#f" transform="matrix(1,0,0,1,1785,108.25) translate(34.1650390625 34.6796875)"/><use xlink:href="#g" transform="matrix(1,0,0,1,1785,108.25) translate(16.9091796875 62.8046875)"/><path d="M1940 85.25a6 6 0 0 1 6-6h128a6 6 0 0 1 6 6v108a6 6 0 0 1-6 6h-128a6 6 0 0 1-6-6z" stroke="#fff" stroke-width="2" fill="#ea704d"/><use xlink:href="#h" transform="matrix(1,0,0,1,1945,84.25) translate(22.0458984375 46.0546875)"/><use xlink:href="#i" transform="matrix(1,0,0,1,1945,84.25) translate(68.6962890625 46.0546875)"/><use xlink:href="#j" transform="matrix(1,0,0,1,1945,84.25) translate(13.84765625 74.1796875)"/><path d="M1938 139.25h-18.5" stroke="#136b80" stroke-width="2" fill="none"/><path d="M1939 140.22h-1.03v-1.94h1.03z" stroke="#136b80" stroke-width=".05" fill="#136b80"/><path d="M1904.24 139.25l14.26-4.63v9.26z" stroke="#136b80" stroke-width="2" fill="#136b80"/><path d="M1220 421.25a2 2 0 0 1 2-2h116a2 2 0 0 1 2 2v36a2 2 0 0 1-2 2h-116a2 2 0 0 1-2-2z" stroke="#000" stroke-opacity="0" stroke-width="2" fill-opacity="0"/><use xlink:href="#k" transform="matrix(1,0,0,1,1225,424.25) translate(16.4501953125 22.3046875)"/><use xlink:href="#l" transform="matrix(1,0,0,1,1225,424.25) translate(80.0927734375 22.3046875)"/><path d="M1610 421.25a2 2 0 0 1 2-2h116a2 2 0 0 1 2 2v36a2 2 0 0 1-2 2h-116a2 2 0 0 1-2-2z" stroke="#000" stroke-opacity="0" stroke-width="2" fill-opacity="0"/><use xlink:href="#k" transform="matrix(1,0,0,1,1615,424.25) translate(16.796875 22.3046875)"/><use xlink:href="#m" transform="matrix(1,0,0,1,1615,424.25) translate(80.439453125 22.3046875)"/><path d="M2000 421.25a2 2 0 0 1 2-2h116a2 2 0 0 1 2 2v36a2 2 0 0 1-2 2h-116a2 2 0 0 1-2-2z" stroke="#000" stroke-opacity="0" stroke-width="2" fill-opacity="0"/><use xlink:href="#k" transform="matrix(1,0,0,1,2005,424.25) translate(16.6357421875 22.3046875)"/><use xlink:href="#n" transform="matrix(1,0,0,1,2005,424.25) translate(80.2783203125 22.3046875)"/><path d="M1494-259.25c-13.26 0-24-10.75-24-24 0-10.6 6.5-19.55 16.58-22.82-.58-31.18 39.42-37.18 55.42-25.18 8-18 48-12 48 6 24-6 48 18 32 48 16 24 0 54-32 42-8 15.6-40 15.6-48 0-16 12-48 6-48-24z" stroke="#fff" stroke-width="2" fill="#ea704d"/><use xlink:href="#o" transform="matrix(1,0,0,1,1475,-338.25) translate(15.140625 63.2421875)"/><use xlink:href="#p" transform="matrix(1,0,0,1,1475,-338.25) translate(71.771484375 63.2421875)"/><path d="M1223-264.8a10.35 10.35 0 0 1 0-10.4l24-41.36a10.4 10.4 0 0 1 9-5.2h48a10.4 10.4 0 0 1 9 5.2l24 41.37a10.35 10.35 0 0 1 0 10.4l-24 41.36a10.4 10.4 0 0 1-9 5.2h-48a10.4 10.4 0 0 1-9-5.2z" stroke="#fff" stroke-width="2" fill="#e7c668"/><path d="M1215-269.8a10.35 10.35 0 0 1 0-10.4l24-41.36a10.4 10.4 0 0 1 9-5.2h48a10.4 10.4 0 0 1 9 5.2l24 41.37a10.35 10.35 0 0 1 0 10.4l-24 41.36a10.4 10.4 0 0 1-9 5.2h-48a10.4 10.4 0 0 1-9-5.2z" stroke="#fff" stroke-width="2" fill="#e7c668"/><use xlink:href="#c" transform="matrix(1,0,0,1,1217,-321.75) translate(34.1700390625 39.1171875)"/><use xlink:href="#d" transform="matrix(1,0,0,1,1217,-321.75) translate(28.183710937500003 67.2421875)"/><path d="M1205-274.8a10.35 10.35 0 0 1 0-10.4l24-41.36a10.4 10.4 0 0 1 9-5.2h48a10.4 10.4 0 0 1 9 5.2l24 41.37a10.35 10.35 0 0 1 0 10.4l-24 41.36a10.4 10.4 0 0 1-9 5.2h-48a10.4 10.4 0 0 1-9-5.2z" stroke="#fff" stroke-width="2" fill="#e7c668"/><use xlink:href="#c" transform="matrix(1,0,0,1,1207,-326.75) translate(34.1700390625 39.1171875)"/><use xlink:href="#q" transform="matrix(1,0,0,1,1207,-326.75) translate(23.042109374999995 67.2421875)"/><path d="M1268.85-216.25v70.75a6 6 0 0 1-6 6h-147.38a6 6 0 0 0-6 6v53.25" stroke="#136b80" stroke-width="2" fill="none"/><path d="M1269.83-216.22h-1.95v-1.03h1.95z" stroke="#136b80" stroke-width=".05" fill="#136b80"/><path d="M1109.47-65l-4.63-14.25h9.27z" stroke="#136b80" stroke-width="2" fill="#136b80"/><path d="M922-178.75h1196" fill="none"/><path d="M924-178.75c0 1.1-.9 2-2 2s-2-.9-2-2 .9-2 2-2 2 .9 2 2zm7.97 0c0 1.1-.9 2-2 2s-2-.9-2-2 .9-2 2-2 2 .9 2 2zm7.98 0c0 1.1-.9 2-2 2s-2-.9-2-2 .9-2 2-2 2 .9 2 2zm7.97 0c0 1.1-.9 2-2 2s-2-.9-2-2 .9-2 2-2 2 .9 2 2zm7.97 0c0 1.1-.9 2-2 2s-2-.9-2-2 .9-2 2-2 2 .9 2 2zm7.97 0c0 1.1-.9 2-2 2s-2-.9-2-2 .9-2 2-2 2 .9 2 2zm7.97 0c0 1.1-.9 2-2 2s-2-.9-2-2 .9-2 2-2 2 .9 2 2zm7.97 0c0 1.1-.88 2-2 2-1.1 0-2-.9-2-2s.9-2 2-2c1.12 0 2 .9 2 2zm8 0c0 1.1-.9 2-2 2-1.12 0-2-.9-2-2s.88-2 2-2c1.1 0 2 .9 2 2zm7.96 0c0 1.1-.9 2-2 2s-2-.9-2-2 .9-2 2-2 2 .9 2 2zm7.97 0c0 1.1-.9 2-2 2s-2-.9-2-2 .9-2 2-2 2 .9 2 2zm7.98 0c0 1.1-.9 2-2 2s-2-.9-2-2 .9-2 2-2 2 .9 2 2zm7.98 0c0 1.1-.9 2-2 2s-2-.9-2-2 .9-2 2-2 2 .9 2 2zm7.97 0c0 1.1-.9 2-2 2s-2-.9-2-2 .9-2 2-2 2 .9 2 2zm7.98 0c0 1.1-.9 2-2 2s-2-.9-2-2 .9-2 2-2 2 .9 2 2zm7.97 0c0 1.1-.9 2-2 2s-2-.9-2-2 .9-2 2-2 2 .9 2 2zm7.97 0c0 1.1-.9 2-2 2s-2-.9-2-2 .9-2 2-2 2 .9 2 2zm7.98 0c0 1.1-.9 2-2 2s-2-.9-2-2 .9-2 2-2 2 .9 2 2zm7.97 0c0 1.1-.9 2-2 2s-2-.9-2-2 .9-2 2-2 2 .9 2 2zm7.97 0c0 1.1-.9 2-2 2s-2-.9-2-2 .9-2 2-2 2 .9 2 2zm7.97 0c0 1.1-.9 2-2 2s-2-.9-2-2 .9-2 2-2 2 .9 2 2zm7.97 0c0 1.1-.9 2-2 2s-2-.9-2-2 .9-2 2-2 2 .9 2 2zm7.97 0c0 1.1-.88 2-2 2-1.1 0-2-.9-2-2s.9-2 2-2c1.12 0 2 .9 2 2zm8 0c0 1.1-.9 2-2 2-1.12 0-2-.9-2-2s.88-2 2-2c1.1 0 2 .9 2 2zm7.96 0c0 1.1-.9 2-2 2s-2-.9-2-2 .9-2 2-2 2 .9 2 2zm7.97 0c0 1.1-.9 2-2 2s-2-.9-2-2 .9-2 2-2 2 .9 2 2zm7.98 0c0 1.1-.9 2-2 2s-2-.9-2-2 .9-2 2-2 2 .9 2 2zm7.98 0c0 1.1-.9 2-2 2s-2-.9-2-2 .9-2 2-2 2 .9 2 2zm7.97 0c0 1.1-.9 2-2 2s-2-.9-2-2 .9-2 2-2 2 .9 2 2zm7.98 0c0 1.1-.9 2-2 2s-2-.9-2-2 .9-2 2-2 2 .9 2 2zm7.97 0c0 1.1-.9 2-2 2s-2-.9-2-2 .9-2 2-2 2 .9 2 2zm7.97 0c0 1.1-.9 2-2 2s-2-.9-2-2 .9-2 2-2 2 .9 2 2zm7.98 0c0 1.1-.9 2-2 2s-2-.9-2-2 .9-2 2-2 2 .9 2 2zm7.97 0c0 1.1-.9 2-2 2s-2-.9-2-2 .9-2 2-2 2 .9 2 2zm7.97 0c0 1.1-.9 2-2 2s-2-.9-2-2 .9-2 2-2 2 .9 2 2zm7.97 0c0 1.1-.9 2-2 2s-2-.9-2-2 .9-2 2-2 2 .9 2 2zm7.97 0c0 1.1-.9 2-2 2s-2-.9-2-2 .9-2 2-2 2 .9 2 2zm7.97 0c0 1.1-.88 2-2 2-1.1 0-2-.9-2-2s.9-2 2-2c1.12 0 2 .9 2 2zm8 0c0 1.1-.9 2-2 2-1.12 0-2-.9-2-2s.88-2 2-2c1.1 0 2 .9 2 2zm7.96 0c0 1.1-.9 2-2 2s-2-.9-2-2 .9-2 2-2 2 .9 2 2zm7.97 0c0 1.1-.9 2-2 2s-2-.9-2-2 .9-2 2-2 2 .9 2 2zm7.98 0c0 1.1-.9 2-2 2s-2-.9-2-2 .9-2 2-2 2 .9 2 2zm7.98 0c0 1.1-.9 2-2 2s-2-.9-2-2 .9-2 2-2 2 .9 2 2zm7.97 0c0 1.1-.9 2-2 2s-2-.9-2-2 .9-2 2-2 2 .9 2 2zm7.98 0c0 1.1-.9 2-2 2s-2-.9-2-2 .9-2 2-2 2 .9 2 2zm7.97 0c0 1.1-.9 2-2 2s-2-.9-2-2 .9-2 2-2 2 .9 2 2zm7.97 0c0 1.1-.9 2-2 2s-2-.9-2-2 .9-2 2-2 2 .9 2 2zm7.98 0c0 1.1-.9 2-2 2s-2-.9-2-2 .9-2 2-2 2 .9 2 2zm7.97 0c0 1.1-.9 2-2 2s-2-.9-2-2 .9-2 2-2 2 .9 2 2zm7.97 0c0 1.1-.9 2-2 2s-2-.9-2-2 .9-2 2-2 2 .9 2 2zm7.97 0c0 1.1-.9 2-2 2s-2-.9-2-2 .9-2 2-2 2 .9 2 2zm7.97 0c0 1.1-.9 2-2 2s-2-.9-2-2 .9-2 2-2 2 .9 2 2zm7.97 0c0 1.1-.88 2-2 2-1.1 0-2-.9-2-2s.9-2 2-2c1.12 0 2 .9 2 2zm8 0c0 1.1-.9 2-2 2-1.12 0-2-.9-2-2s.88-2 2-2c1.1 0 2 .9 2 2zm7.96 0c0 1.1-.9 2-2 2s-2-.9-2-2 .9-2 2-2 2 .9 2 2zm7.97 0c0 1.1-.9 2-2 2s-2-.9-2-2 .9-2 2-2 2 .9 2 2zm7.98 0c0 1.1-.9 2-2 2s-2-.9-2-2 .9-2 2-2 2 .9 2 2zm7.98 0c0 1.1-.9 2-2 2s-2-.9-2-2 .9-2 2-2 2 .9 2 2zm7.97 0c0 1.1-.9 2-2 2s-2-.9-2-2 .9-2 2-2 2 .9 2 2zm7.98 0c0 1.1-.9 2-2 2s-2-.9-2-2 .9-2 2-2 2 .9 2 2zm7.97 0c0 1.1-.9 2-2 2s-2-.9-2-2 .9-2 2-2 2 .9 2 2zm7.97 0c0 1.1-.9 2-2 2s-2-.9-2-2 .9-2 2-2 2 .9 2 2zm7.98 0c0 1.1-.9 2-2 2s-2-.9-2-2 .9-2 2-2 2 .9 2 2zm7.97 0c0 1.1-.9 2-2 2s-2-.9-2-2 .9-2 2-2 2 .9 2 2zm7.97 0c0 1.1-.9 2-2 2s-2-.9-2-2 .9-2 2-2 2 .9 2 2zm7.97 0c0 1.1-.9 2-2 2s-2-.9-2-2 .9-2 2-2 2 .9 2 2zm7.97 0c0 1.1-.9 2-2 2s-2-.9-2-2 .9-2 2-2 2 .9 2 2zm7.97 0c0 1.1-.88 2-2 2-1.1 0-2-.9-2-2s.9-2 2-2c1.12 0 2 .9 2 2zm8 0c0 1.1-.9 2-2 2-1.12 0-2-.9-2-2s.88-2 2-2c1.1 0 2 .9 2 2zm7.96 0c0 1.1-.9 2-2 2s-2-.9-2-2 .9-2 2-2 2 .9 2 2zm7.97 0c0 1.1-.9 2-2 2s-2-.9-2-2 .9-2 2-2 2 .9 2 2zm7.98 0c0 1.1-.9 2-2 2s-2-.9-2-2 .9-2 2-2 2 .9 2 2zm7.98 0c0 1.1-.9 2-2 2s-2-.9-2-2 .9-2 2-2 2 .9 2 2zm7.97 0c0 1.1-.9 2-2 2s-2-.9-2-2 .9-2 2-2 2 .9 2 2zm7.98 0c0 1.1-.9 2-2 2s-2-.9-2-2 .9-2 2-2 2 .9 2 2zm7.97 0c0 1.1-.9 2-2 2s-2-.9-2-2 .9-2 2-2 2 .9 2 2zm7.97 0c0 1.1-.9 2-2 2s-2-.9-2-2 .9-2 2-2 2 .9 2 2zm7.98 0c0 1.1-.9 2-2 2s-2-.9-2-2 .9-2 2-2 2 .9 2 2zm7.97 0c0 1.1-.9 2-2 2s-2-.9-2-2 .9-2 2-2 2 .9 2 2zm7.97 0c0 1.1-.9 2-2 2s-2-.9-2-2 .9-2 2-2 2 .9 2 2zm7.97 0c0 1.1-.9 2-2 2s-2-.9-2-2 .9-2 2-2 2 .9 2 2zm7.97 0c0 1.1-.9 2-2 2s-2-.9-2-2 .9-2 2-2 2 .9 2 2zm7.97 0c0 1.1-.88 2-2 2-1.1 0-2-.9-2-2s.9-2 2-2c1.12 0 2 .9 2 2zm8 0c0 1.1-.9 2-2 2-1.12 0-2-.9-2-2s.88-2 2-2c1.1 0 2 .9 2 2zm7.96 0c0 1.1-.9 2-2 2s-2-.9-2-2 .9-2 2-2 2 .9 2 2zm7.97 0c0 1.1-.9 2-2 2s-2-.9-2-2 .9-2 2-2 2 .9 2 2zm7.98 0c0 1.1-.9 2-2 2s-2-.9-2-2 .9-2 2-2 2 .9 2 2zm7.98 0c0 1.1-.9 2-2 2s-2-.9-2-2 .9-2 2-2 2 .9 2 2zm7.97 0c0 1.1-.9 2-2 2s-2-.9-2-2 .9-2 2-2 2 .9 2 2zm7.98 0c0 1.1-.9 2-2 2s-2-.9-2-2 .9-2 2-2 2 .9 2 2zm7.97 0c0 1.1-.9 2-2 2s-2-.9-2-2 .9-2 2-2 2 .9 2 2zm7.97 0c0 1.1-.9 2-2 2s-2-.9-2-2 .9-2 2-2 2 .9 2 2zm7.98 0c0 1.1-.9 2-2 2s-2-.9-2-2 .9-2 2-2 2 .9 2 2zm7.97 0c0 1.1-.9 2-2 2s-2-.9-2-2 .9-2 2-2 2 .9 2 2zm7.97 0c0 1.1-.9 2-2 2s-2-.9-2-2 .9-2 2-2 2 .9 2 2zm7.97 0c0 1.1-.9 2-2 2s-2-.9-2-2 .9-2 2-2 2 .9 2 2zm7.97 0c0 1.1-.9 2-2 2s-2-.9-2-2 .9-2 2-2 2 .9 2 2zm7.97 0c0 1.1-.88 2-2 2-1.1 0-2-.9-2-2s.9-2 2-2c1.12 0 2 .9 2 2zm8 0c0 1.1-.9 2-2 2-1.12 0-2-.9-2-2s.88-2 2-2c1.1 0 2 .9 2 2zm7.96 0c0 1.1-.9 2-2 2s-2-.9-2-2 .9-2 2-2 2 .9 2 2zm7.97 0c0 1.1-.9 2-2 2s-2-.9-2-2 .9-2 2-2 2 .9 2 2zm7.98 0c0 1.1-.9 2-2 2s-2-.9-2-2 .9-2 2-2 2 .9 2 2zm7.98 0c0 1.1-.9 2-2 2s-2-.9-2-2 .9-2 2-2 2 .9 2 2zm7.97 0c0 1.1-.9 2-2 2s-2-.9-2-2 .9-2 2-2 2 .9 2 2zm7.98 0c0 1.1-.9 2-2 2s-2-.9-2-2 .9-2 2-2 2 .9 2 2zm7.97 0c0 1.1-.9 2-2 2s-2-.9-2-2 .9-2 2-2 2 .9 2 2zm7.97 0c0 1.1-.9 2-2 2s-2-.9-2-2 .9-2 2-2 2 .9 2 2zm7.98 0c0 1.1-.9 2-2 2s-2-.9-2-2 .9-2 2-2 2 .9 2 2zm7.97 0c0 1.1-.9 2-2 2s-2-.9-2-2 .9-2 2-2 2 .9 2 2zm7.97 0c0 1.1-.9 2-2 2s-2-.9-2-2 .9-2 2-2 2 .9 2 2zm7.97 0c0 1.1-.9 2-2 2s-2-.9-2-2 .9-2 2-2 2 .9 2 2zm7.97 0c0 1.1-.9 2-2 2s-2-.9-2-2 .9-2 2-2 2 .9 2 2zm7.97 0c0 1.1-.88 2-2 2-1.1 0-2-.9-2-2s.9-2 2-2c1.12 0 2 .9 2 2zm8 0c0 1.1-.9 2-2 2-1.12 0-2-.9-2-2s.88-2 2-2c1.1 0 2 .9 2 2zm7.96 0c0 1.1-.9 2-2 2s-2-.9-2-2 .9-2 2-2 2 .9 2 2zm7.97 0c0 1.1-.9 2-2 2s-2-.9-2-2 .9-2 2-2 2 .9 2 2zm7.98 0c0 1.1-.9 2-2 2s-2-.9-2-2 .9-2 2-2 2 .9 2 2zm7.98 0c0 1.1-.9 2-2 2s-2-.9-2-2 .9-2 2-2 2 .9 2 2zm7.97 0c0 1.1-.9 2-2 2s-2-.9-2-2 .9-2 2-2 2 .9 2 2zm7.98 0c0 1.1-.9 2-2 2s-2-.9-2-2 .9-2 2-2 2 .9 2 2zm7.97 0c0 1.1-.9 2-2 2s-2-.9-2-2 .9-2 2-2 2 .9 2 2zm7.97 0c0 1.1-.9 2-2 2s-2-.9-2-2 .9-2 2-2 2 .9 2 2zm7.98 0c0 1.1-.9 2-2 2s-2-.9-2-2 .9-2 2-2 2 .9 2 2zm7.97 0c0 1.1-.9 2-2 2s-2-.9-2-2 .9-2 2-2 2 .9 2 2zm7.97 0c0 1.1-.9 2-2 2s-2-.9-2-2 .9-2 2-2 2 .9 2 2zm7.97 0c0 1.1-.9 2-2 2s-2-.9-2-2 .9-2 2-2 2 .9 2 2zm7.97 0c0 1.1-.9 2-2 2s-2-.9-2-2 .9-2 2-2 2 .9 2 2zm7.97 0c0 1.1-.88 2-2 2-1.1 0-2-.9-2-2s.9-2 2-2c1.12 0 2 .9 2 2zm8 0c0 1.1-.9 2-2 2-1.12 0-2-.9-2-2s.88-2 2-2c1.1 0 2 .9 2 2zm7.96 0c0 1.1-.9 2-2 2s-2-.9-2-2 .9-2 2-2 2 .9 2 2zm7.97 0c0 1.1-.9 2-2 2s-2-.9-2-2 .9-2 2-2 2 .9 2 2zm7.98 0c0 1.1-.9 2-2 2s-2-.9-2-2 .9-2 2-2 2 .9 2 2zm7.98 0c0 1.1-.9 2-2 2s-2-.9-2-2 .9-2 2-2 2 .9 2 2zm7.97 0c0 1.1-.9 2-2 2s-2-.9-2-2 .9-2 2-2 2 .9 2 2zm7.98 0c0 1.1-.9 2-2 2s-2-.9-2-2 .9-2 2-2 2 .9 2 2zm7.97 0c0 1.1-.9 2-2 2s-2-.9-2-2 .9-2 2-2 2 .9 2 2zm7.97 0c0 1.1-.9 2-2 2s-2-.9-2-2 .9-2 2-2 2 .9 2 2zm7.98 0c0 1.1-.9 2-2 2s-2-.9-2-2 .9-2 2-2 2 .9 2 2zm7.97 0c0 1.1-.9 2-2 2s-2-.9-2-2 .9-2 2-2 2 .9 2 2zm7.97 0c0 1.1-.9 2-2 2s-2-.9-2-2 .9-2 2-2 2 .9 2 2zm7.97 0c0 1.1-.9 2-2 2s-2-.9-2-2 .9-2 2-2 2 .9 2 2zm7.97 0c0 1.1-.9 2-2 2s-2-.9-2-2 .9-2 2-2 2 .9 2 2zm7.97 0c0 1.1-.88 2-2 2-1.1 0-2-.9-2-2s.9-2 2-2c1.12 0 2 .9 2 2zm8 0c0 1.1-.9 2-2 2-1.12 0-2-.9-2-2s.88-2 2-2c1.1 0 2 .9 2 2zm7.96 0c0 1.1-.9 2-2 2s-2-.9-2-2 .9-2 2-2 2 .9 2 2zm7.97 0c0 1.1-.9 2-2 2s-2-.9-2-2 .9-2 2-2 2 .9 2 2zm7.98 0c0 1.1-.9 2-2 2s-2-.9-2-2 .9-2 2-2 2 .9 2 2zm7.98 0c0 1.1-.9 2-2 2s-2-.9-2-2 .9-2 2-2 2 .9 2 2zm7.97 0c0 1.1-.9 2-2 2s-2-.9-2-2 .9-2 2-2 2 .9 2 2zm7.98 0c0 1.1-.9 2-2 2s-2-.9-2-2 .9-2 2-2 2 .9 2 2z" fill="#439e9f"/><path d="M1880-174.75a6 6 0 0 1 6-6h228a6 6 0 0 1 6 6v48a6 6 0 0 1-6 6h-228a6 6 0 0 1-6-6z" fill="none"/><use xlink:href="#r" transform="matrix(1,0,0,1,1880,-180.75) translate(128.623046875 36.8359375)"/><use xlink:href="#s" transform="matrix(1,0,0,1,1880,-180.75) translate(175.2734375 36.8359375)"/><path d="M1880-234.75a6 6 0 0 1 6-6h228a6 6 0 0 1 6 6v48a6 6 0 0 1-6 6h-228a6 6 0 0 1-6-6z" fill="none"/><use xlink:href="#t" transform="matrix(1,0,0,1,1880,-240.75) translate(74.51171875 36.8359375)"/><use xlink:href="#u" transform="matrix(1,0,0,1,1880,-240.75) translate(167.24609375 36.8359375)"/><path d="M1080.5-15.75v62.8" stroke="#136b80" stroke-width="8" fill="none"/><path d="M1084.5-15.65h-7.96v-4.1h7.95z" stroke="#136b80" stroke-width=".05" fill="#136b80"/><path d="M1080.5 65.33l-4.62-14.27h9.27z" stroke="#136b80" stroke-width="8" fill="#136b80"/><g filter="url(#v)"><path d="M1772.47-431.5a6 6 0 0 1 6-6H2114a6 6 0 0 1 6 6v164.13a6 6 0 0 1-6 6h-335.53a6 6 0 0 1-6-6z" stroke="#333" stroke-width="2" fill="#fff"/></g><path d="M1801-407.5h40.5M1801.03-407.5H1800" stroke="#ea704d" stroke-width="2" fill="none"/><path d="M1856.76-407.5l-14.26 4.63v-9.26z" stroke="#ea704d" stroke-width="2" fill="#ea704d"/><path d="M1801-352.5h40.5M1801.03-352.5H1800" stroke="#136b80" stroke-width="2" fill="none"/><path d="M1856.76-352.5l-14.26 4.63v-9.26z" stroke="#136b80" stroke-width="2" fill="#136b80"/><path d="M1921.52-431.5a6 6 0 0 1 6-6H2094a6 6 0 0 1 6 6v48a6 6 0 0 1-6 6h-166.48a6 6 0 0 1-6-6z" fill="none"/><g><use xlink:href="#w" transform="matrix(1,0,0,1,1921.515482007135,-437.5) translate(32.58506944444446 36.076388888888886)"/><use xlink:href="#x" transform="matrix(1,0,0,1,1921.515482007135,-437.5) translate(81.97743055555557 36.076388888888886)"/></g><path d="M1900-376.5a6 6 0 0 1 6-6h188a6 6 0 0 1 6 6v48a6 6 0 0 1-6 6h-188a6 6 0 0 1-6-6z" fill="none"/><g><use xlink:href="#y" transform="matrix(1,0,0,1,1900,-382.5) translate(27.951388888888886 36.076388888888886)"/><use xlink:href="#x" transform="matrix(1,0,0,1,1900,-382.5) translate(102.97743055555556 36.076388888888886)"/></g><path d="M1804-297.5h24.8M1804.1-297.5h-4.1" stroke="#136b80" stroke-width="8" fill="none"/><path d="M1847.06-297.5l-14.27 4.63v-9.26z" stroke="#136b80" stroke-width="8" fill="#136b80"/><path d="M1880-321.5a6 6 0 0 1 6-6h208a6 6 0 0 1 6 6v48a6 6 0 0 1-6 6h-208a6 6 0 0 1-6-6z" fill="none"/><g><use xlink:href="#z" transform="matrix(1,0,0,1,1880,-327.5) translate(24.32465277777777 36.076388888888886)"/><use xlink:href="#A" transform="matrix(1,0,0,1,1880,-327.5) translate(48.951388888888886 36.076388888888886)"/><use xlink:href="#x" transform="matrix(1,0,0,1,1880,-327.5) translate(123.97743055555556 36.076388888888886)"/></g><defs><path fill="#fff" d="M1245-974c0 302-233 466-552 461H430V0H130v-1456h568c323 5 547 167 547 482zm-303 2c1-143-93-241-237-241H430v457h268c151 1 244-71 244-216" id="B"/><path fill="#fff" d="M719-811c-143-24-279 1-319 103V0H111v-1082h273l8 129c74-124 180-175 331-136" id="C"/><path fill="#fff" d="M579 20C257 20 58-214 66-551c8-331 182-551 511-551 324 0 514 231 514 572 0 319-198 550-512 550zm-2-888c-169 0-222 141-222 338 0 181 61 317 224 317 170 0 223-137 223-338 0-178-64-317-225-317" id="D"/><path fill="#fff" d="M523-759l182-323h309L706-552 1027 0H717L524-340 332 0H21l321-552-307-530h310" id="E"/><path fill="#fff" d="M515-409l200-673h310L590 168c-66 202-236 321-472 250V199c127 7 198-15 230-107l34-89L3-1082h311" id="F"/><path fill="#fff" d="M202 125H-13l536-1581h215" id="G"/><path fill="#fff" d="M668-361l330-1095h334L825 0H512L7-1456h333" id="H"/><path fill="#fff" d="M449 0H149v-1456h300V0" id="I"/><g id="a"><use transform="matrix(0.009765625,0,0,0.009765625,0,0)" xlink:href="#B"/><use transform="matrix(0.009765625,0,0,0.009765625,12.900390625,0)" xlink:href="#C"/><use transform="matrix(0.009765625,0,0,0.009765625,19.84375,0)" xlink:href="#D"/><use transform="matrix(0.009765625,0,0,0.009765625,30.947265625,0)" xlink:href="#E"/><use transform="matrix(0.009765625,0,0,0.009765625,41.123046875,0)" xlink:href="#F"/><use transform="matrix(0.009765625,0,0,0.009765625,51.162109375,0)" xlink:href="#G"/><use transform="matrix(0.009765625,0,0,0.009765625,58.6328125,0)" xlink:href="#H"/><use transform="matrix(0.009765625,0,0,0.009765625,71.708984375,0)" xlink:href="#I"/><use transform="matrix(0.009765625,0,0,0.009765625,77.5390625,0)" xlink:href="#B"/></g><path fill="#333" d="M529-185c94 0 168-33 168-114 0-35-18-63-53-83s-91-39-168-55C219-491 90-600 90-765c0-208 203-337 432-337 246 0 451 124 453 349H686c-2-91-62-143-165-143-86 0-151 41-153 117 0 32 16 57 46 77 63 43 257 69 335 100 151 60 229 153 229 291C978-13 554 93 282-28 162-81 60-190 56-344h274c5 106 86 159 199 159" id="J"/><path fill="#333" d="M1031-175C952-60 797 20 609 20 287 20 60-206 72-543c12-330 180-559 505-559 309 0 482 214 477 537v118H365c15 134 115 234 263 234 111 0 198-40 261-121zM770-644c5-139-62-226-194-224-130 1-191 97-208 224h402" id="K"/><path fill="#333" d="M719-811c-143-24-279 1-319 103V0H111v-1082h273l8 129c74-124 180-175 331-136" id="L"/><path fill="#333" d="M516-353l201-729h302L654 0H378L13-1082h302" id="M"/><g id="b"><use transform="matrix(0.008680555555555556,0,0,0.008680555555555556,0,0)" xlink:href="#J"/><use transform="matrix(0.008680555555555556,0,0,0.008680555555555556,9.140625,0)" xlink:href="#K"/><use transform="matrix(0.008680555555555556,0,0,0.008680555555555556,18.75,0)" xlink:href="#L"/><use transform="matrix(0.008680555555555556,0,0,0.008680555555555556,25.390625,0)" xlink:href="#M"/><use transform="matrix(0.008680555555555556,0,0,0.008680555555555556,34.26215277777778,0)" xlink:href="#K"/><use transform="matrix(0.008680555555555556,0,0,0.008680555555555556,43.87152777777778,0)" xlink:href="#L"/></g><path d="M1245-974c0 302-233 466-552 461H430V0H130v-1456h568c323 5 547 167 547 482zm-303 2c1-143-93-241-237-241H430v457h268c151 1 244-71 244-216" id="N"/><path d="M1006-631H430v390h676V0H130v-1456h974v243H430v347h576v235" id="O"/><path d="M522-1456L896-400l372-1056h394V0h-301c-7-379 15-728 30-1085L998 0H792L400-1084c15 357 37 705 30 1084H130v-1456h392" id="P"/><g id="c"><use transform="matrix(0.009765625,0,0,0.009765625,0,0)" xlink:href="#N"/><use transform="matrix(0.009765625,0,0,0.009765625,12.900390625,0)" xlink:href="#O"/><use transform="matrix(0.009765625,0,0,0.009765625,24.150390625,0)" xlink:href="#P"/></g><path d="M952-300H426L326 0H7l542-1456h278L1372 0h-319zM507-543h364l-183-545" id="Q"/><path d="M505 20C221 18 69-239 69-549c0-302 153-553 438-553 119 0 211 41 277 122l12-102h262V-36c-8 305-208 458-520 462-160 1-335-76-403-170L263 80c72 81 159 121 262 121 172 1 260-107 243-294C701-18 614 20 505 20zm76-887c-165 0-223 147-223 339 0 172 66 314 221 314 88 0 151-33 189-99v-455c-39-66-101-99-187-99" id="R"/><path d="M1031-175C952-60 797 20 609 20 287 20 60-206 72-543c12-330 180-559 505-559 309 0 482 214 477 537v118H365c15 134 115 234 263 234 111 0 198-40 261-121zM770-644c5-139-62-226-194-224-130 1-191 97-208 224h402" id="S"/><path d="M750-692c-1-124-48-174-173-175-81 0-142 35-183 104V0H105v-1082h272l9 125c77-97 181-145 311-145 244 0 342 151 342 403V0H750v-692" id="T"/><path d="M457-330c2 83 25 111 111 112 32 0 60-2 85-7V-6c-57 17-115 26-175 26-203 0-310-102-310-307v-583H10v-212h158v-266h289v266h185v212H457v540" id="U"/><g id="d"><use transform="matrix(0.009765625,0,0,0.009765625,0,0)" xlink:href="#Q"/><use transform="matrix(0.009765625,0,0,0.009765625,13.45703125,0)" xlink:href="#R"/><use transform="matrix(0.009765625,0,0,0.009765625,24.873046875,0)" xlink:href="#S"/><use transform="matrix(0.009765625,0,0,0.009765625,35.68359375,0)" xlink:href="#T"/><use transform="matrix(0.009765625,0,0,0.009765625,46.884765625,0)" xlink:href="#U"/></g><path fill="#333" d="M741-689c-2-124-40-177-163-178-82 0-141 34-178 102V0H111v-1082h271l9 121c77-94 180-141 311-141 139 0 235 55 287 165 76-110 184-165 325-165 249 0 348 151 348 411V0h-290v-690c-2-123-39-176-163-177-87 0-147 41-180 124l1 743H741v-689" id="V"/><path fill="#333" d="M579 20C257 20 58-214 66-551c8-331 182-551 511-551 324 0 514 231 514 572 0 319-198 550-512 550zm-2-888c-169 0-222 141-222 338 0 181 61 317 224 317 170 0 223-137 223-338 0-178-64-317-225-317" id="W"/><path fill="#333" d="M750-692c-1-124-48-174-173-175-81 0-142 35-183 104V0H105v-1082h272l9 125c77-97 181-145 311-145 244 0 342 151 342 403V0H750v-692" id="X"/><path fill="#333" d="M416 0H126v-1082h290V0zM271-1212c-92 0-162-61-162-150s68-149 162-149c93 0 162 60 162 149s-70 150-162 150" id="Y"/><path fill="#333" d="M457-330c2 83 25 111 111 112 32 0 60-2 85-7V-6c-57 17-115 26-175 26-203 0-310-102-310-307v-583H10v-212h158v-266h289v266h185v212H457v540" id="Z"/><path fill="#333" d="M505 20C221 18 69-239 69-549c0-302 153-553 438-553 119 0 211 41 277 122l12-102h262V-36c-8 305-208 458-520 462-160 1-335-76-403-170L263 80c72 81 159 121 262 121 172 1 260-107 243-294C701-18 614 20 505 20zm76-887c-165 0-223 147-223 339 0 172 66 314 221 314 88 0 151-33 189-99v-455c-39-66-101-99-187-99" id="aa"/><g id="e"><use transform="matrix(0.008680555555555556,0,0,0.008680555555555556,0,0)" xlink:href="#V"/><use transform="matrix(0.008680555555555556,0,0,0.008680555555555556,15.390625,0)" xlink:href="#W"/><use transform="matrix(0.008680555555555556,0,0,0.008680555555555556,25.442708333333336,0)" xlink:href="#X"/><use transform="matrix(0.008680555555555556,0,0,0.008680555555555556,35.39930555555556,0)" xlink:href="#Y"/><use transform="matrix(0.008680555555555556,0,0,0.008680555555555556,40.11284722222222,0)" xlink:href="#Z"/><use transform="matrix(0.008680555555555556,0,0,0.008680555555555556,45.859375,0)" xlink:href="#W"/><use transform="matrix(0.008680555555555556,0,0,0.008680555555555556,55.911458333333336,0)" xlink:href="#L"/><use transform="matrix(0.008680555555555556,0,0,0.008680555555555556,62.395833333333336,0)" xlink:href="#Y"/><use transform="matrix(0.008680555555555556,0,0,0.008680555555555556,67.109375,0)" xlink:href="#X"/><use transform="matrix(0.008680555555555556,0,0,0.008680555555555556,77.06597222222223,0)" xlink:href="#aa"/></g><path fill="#fff" d="M1006-631H430v390h676V0H130v-1456h974v243H430v347h576v235" id="ab"/><path fill="#fff" d="M522-1456L896-400l372-1056h394V0h-301c-7-379 15-728 30-1085L998 0H792L400-1084c15 357 37 705 30 1084H130v-1456h392" id="ac"/><g id="f"><use transform="matrix(0.009765625,0,0,0.009765625,0,0)" xlink:href="#B"/><use transform="matrix(0.009765625,0,0,0.009765625,12.900390625,0)" xlink:href="#ab"/><use transform="matrix(0.009765625,0,0,0.009765625,24.150390625,0)" xlink:href="#ac"/></g><path fill="#fff" d="M663-1102c295 0 423 246 423 571 0 313-131 551-421 551-117 0-211-45-281-135L371 0H111v-1536h289v551c67-78 154-117 263-117zm-71 889c164 0 209-139 205-339-3-189-44-315-207-315-92 0-155 38-190 113v427c35 76 99 114 192 114" id="ad"/><path fill="#fff" d="M552-1102c254-4 435 134 435 383v469c1 103 15 180 43 233V0H738c-13-26-23-58-29-97C639-19 548 20 436 20 238 20 64-113 68-304c5-258 212-357 496-357h133c11-137-29-227-160-227-90 0-156 45-156 131H92c15-231 213-342 460-345zM357-325c0 76 61 124 142 124 88 0 168-45 198-105v-186H589c-152 2-232 51-232 167" id="ae"/><path fill="#fff" d="M355-556c-2 203 30 338 206 343 102 3 181-63 182-161h271C1001-128 821 17 566 20 242 24 66-212 66-554c0-320 184-548 498-548 262 0 451 167 450 423H743c-1-108-75-193-184-189-162 6-202 123-204 312" id="af"/><path fill="#fff" d="M504-434L400-330V0H111v-1536h289v851c106-137 222-264 333-397h347L689-631 1114 0H782" id="ag"/><path fill="#fff" d="M1031-175C952-60 797 20 609 20 287 20 60-206 72-543c12-330 180-559 505-559 309 0 482 214 477 537v118H365c15 134 115 234 263 234 111 0 198-40 261-121zM770-644c5-139-62-226-194-224-130 1-191 97-208 224h402" id="ah"/><path fill="#fff" d="M750-692c-1-124-48-174-173-175-81 0-142 35-183 104V0H105v-1082h272l9 125c77-97 181-145 311-145 244 0 342 151 342 403V0H750v-692" id="ai"/><path fill="#fff" d="M488 20C204 20 66-234 66-549c0-305 140-551 424-553 105 0 192 39 261 118v-552h290V0H780l-14-115C694-25 601 20 488 20zM355-528c0 176 51 314 207 314 89 0 152-38 189-113v-427c-36-75-98-113-187-113-139 0-209 113-209 339" id="aj"/><g id="g"><use transform="matrix(0.009765625,0,0,0.009765625,0,0)" xlink:href="#ad"/><use transform="matrix(0.009765625,0,0,0.009765625,11.259765625,0)" xlink:href="#ae"/><use transform="matrix(0.009765625,0,0,0.009765625,21.982421875,0)" xlink:href="#af"/><use transform="matrix(0.009765625,0,0,0.009765625,32.412109375,0)" xlink:href="#ag"/><use transform="matrix(0.009765625,0,0,0.009765625,42.900390625,0)" xlink:href="#ah"/><use transform="matrix(0.009765625,0,0,0.009765625,53.7109375,0)" xlink:href="#ai"/><use transform="matrix(0.009765625,0,0,0.009765625,64.912109375,0)" xlink:href="#aj"/></g><g id="h"><use transform="matrix(0.009765625,0,0,0.009765625,0,0)" xlink:href="#B"/><use transform="matrix(0.009765625,0,0,0.009765625,12.900390625,0)" xlink:href="#ab"/><use transform="matrix(0.009765625,0,0,0.009765625,24.150390625,0)" xlink:href="#ac"/></g><path fill="#fff" d="M1264-420l196-1036h299L1436 0h-302L897-974 660 0H358L35-1456h299L531-422l240-1034h254" id="ak"/><g id="i"><use transform="matrix(0.009765625,0,0,0.009765625,0,0)" xlink:href="#ak"/><use transform="matrix(0.009765625,0,0,0.009765625,17.1875,0)" xlink:href="#ah"/><use transform="matrix(0.009765625,0,0,0.009765625,27.998046875,0)" xlink:href="#ad"/></g><path fill="#fff" d="M952-300H426L326 0H7l542-1456h278L1372 0h-319zM507-543h364l-183-545" id="al"/><path fill="#fff" d="M663-1102c295 0 422 250 422 571 0 300-141 549-420 551-109 0-198-38-265-114v510H111v-1498h268l10 106c70-84 161-126 274-126zm133 550c0-175-53-315-209-315-91 0-153 35-187 104v443c35 71 98 107 189 107 138 0 207-113 207-339" id="am"/><path fill="#fff" d="M416 0H126v-1536h290V0" id="an"/><path fill="#fff" d="M416 0H126v-1082h290V0zM271-1212c-92 0-162-61-162-150s68-149 162-149c93 0 162 60 162 149s-70 150-162 150" id="ao"/><path fill="#fff" d="M457-330c2 83 25 111 111 112 32 0 60-2 85-7V-6c-57 17-115 26-175 26-203 0-310-102-310-307v-583H10v-212h158v-266h289v266h185v212H457v540" id="ap"/><g id="j"><use transform="matrix(0.009765625,0,0,0.009765625,0,0)" xlink:href="#al"/><use transform="matrix(0.009765625,0,0,0.009765625,13.45703125,0)" xlink:href="#am"/><use transform="matrix(0.009765625,0,0,0.009765625,24.716796875,0)" xlink:href="#am"/><use transform="matrix(0.009765625,0,0,0.009765625,35.9765625,0)" xlink:href="#an"/><use transform="matrix(0.009765625,0,0,0.009765625,41.279296875,0)" xlink:href="#ao"/><use transform="matrix(0.009765625,0,0,0.009765625,46.58203125,0)" xlink:href="#af"/><use transform="matrix(0.009765625,0,0,0.009765625,57.01171875,0)" xlink:href="#ae"/><use transform="matrix(0.009765625,0,0,0.009765625,67.734375,0)" xlink:href="#ap"/><use transform="matrix(0.009765625,0,0,0.009765625,74.4921875,0)" xlink:href="#ao"/><use transform="matrix(0.009765625,0,0,0.009765625,79.794921875,0)" xlink:href="#D"/><use transform="matrix(0.009765625,0,0,0.009765625,91.103515625,0)" xlink:href="#ai"/></g><path fill="#28495a" d="M658-217c127 0 227-49 227-165 0-57-21-98-60-130-79-64-370-142-463-196-162-95-248-210-248-361 0-280 246-403 537-407 213-3 383 84 467 216 45 69 68 147 68 234H886c0-139-96-211-240-211-129 0-232 55-232 169 0 47 24 87 72 119s117 62 210 90c171 51 295 115 373 191s117 171 117 284c-2 272-237 411-528 404C331 13 78-135 69-458h301c0 161 96 241 288 241" id="aq"/><path fill="#28495a" d="M1031-175C952-60 797 20 609 20 287 20 60-206 72-543c12-330 180-559 505-559 309 0 482 214 477 537v118H365c15 134 115 234 263 234 111 0 198-40 261-121zM770-644c5-139-62-226-194-224-130 1-191 97-208 224h402" id="ar"/><path fill="#28495a" d="M719-811c-143-24-279 1-319 103V0H111v-1082h273l8 129c74-124 180-175 331-136" id="as"/><path fill="#28495a" d="M516-353l201-729h302L654 0H378L13-1082h302" id="at"/><g id="k"><use transform="matrix(0.009765625,0,0,0.009765625,0,0)" xlink:href="#aq"/><use transform="matrix(0.009765625,0,0,0.009765625,12.294921875,0)" xlink:href="#ar"/><use transform="matrix(0.009765625,0,0,0.009765625,23.10546875,0)" xlink:href="#as"/><use transform="matrix(0.009765625,0,0,0.009765625,30.576171875,0)" xlink:href="#at"/><use transform="matrix(0.009765625,0,0,0.009765625,40.556640625,0)" xlink:href="#ar"/><use transform="matrix(0.009765625,0,0,0.009765625,51.3671875,0)" xlink:href="#as"/></g><path fill="#28495a" d="M952-300H426L326 0H7l542-1456h278L1372 0h-319zM507-543h364l-183-545" id="au"/><use transform="matrix(0.009765625,0,0,0.009765625,0,0)" xlink:href="#au" id="l"/><path fill="#28495a" d="M1212-428C1211-131 1004 0 696 0H130v-1456h510c318-1 539 108 539 399 0 155-89 264-208 308 141 33 242 151 241 321zM687-241c132 2 225-65 225-190 0-133-69-203-207-203H430v393h257zm192-786c0-145-86-186-239-186H430v367h222c151-3 227-63 227-181" id="av"/><use transform="matrix(0.009765625,0,0,0.009765625,0,0)" xlink:href="#av" id="m"/><path fill="#28495a" d="M687-225c189-1 272-84 286-260h300c-19 311-251 505-586 505C296 20 86-277 86-686c0-466 174-782 605-790 340-6 557 198 584 514H975c-15-183-92-268-284-268-100 0-173 38-225 108-63 84-76 264-76 443 0 157 24 272 72 345s122 109 225 109" id="aw"/><use transform="matrix(0.009765625,0,0,0.009765625,0,0)" xlink:href="#aw" id="n"/><path fill="#fff" d="M1315 0h-300v-624H430V0H130v-1456h300v590h585v-590h300V0" id="ax"/><path fill="#fff" d="M1226-1213H780V0H480v-1213H40v-243h1186v243" id="ay"/><g id="o"><use transform="matrix(0.009765625,0,0,0.009765625,0,0)" xlink:href="#ax"/><use transform="matrix(0.009765625,0,0,0.009765625,13.84765625,0)" xlink:href="#ay"/><use transform="matrix(0.009765625,0,0,0.009765625,26.376953125,0)" xlink:href="#ay"/><use transform="matrix(0.009765625,0,0,0.009765625,38.75,0)" xlink:href="#B"/></g><path fill="#fff" d="M529-185c94 0 168-33 168-114 0-35-18-63-53-83s-91-39-168-55C219-491 90-600 90-765c0-208 203-337 432-337 246 0 451 124 453 349H686c-2-91-62-143-165-143-86 0-151 41-153 117 0 32 16 57 46 77 63 43 257 69 335 100 151 60 229 153 229 291C978-13 554 93 282-28 162-81 60-190 56-344h274c5 106 86 159 199 159" id="az"/><g id="p"><use transform="matrix(0.009765625,0,0,0.009765625,0,0)" xlink:href="#af"/><use transform="matrix(0.009765625,0,0,0.009765625,10.4296875,0)" xlink:href="#an"/><use transform="matrix(0.009765625,0,0,0.009765625,15.732421875,0)" xlink:href="#ao"/><use transform="matrix(0.009765625,0,0,0.009765625,21.03515625,0)" xlink:href="#ah"/><use transform="matrix(0.009765625,0,0,0.009765625,31.845703125,0)" xlink:href="#ai"/><use transform="matrix(0.009765625,0,0,0.009765625,43.046875,0)" xlink:href="#ap"/><use transform="matrix(0.009765625,0,0,0.009765625,49.8046875,0)" xlink:href="#az"/></g><path d="M529-185c94 0 168-33 168-114 0-35-18-63-53-83s-91-39-168-55C219-491 90-600 90-765c0-208 203-337 432-337 246 0 451 124 453 349H686c-2-91-62-143-165-143-86 0-151 41-153 117 0 32 16 57 46 77 63 43 257 69 335 100 151 60 229 153 229 291C978-13 554 93 282-28 162-81 60-190 56-344h274c5 106 86 159 199 159" id="aA"/><g id="q"><use transform="matrix(0.009765625,0,0,0.009765625,0,0)" xlink:href="#Q"/><use transform="matrix(0.009765625,0,0,0.009765625,13.45703125,0)" xlink:href="#R"/><use transform="matrix(0.009765625,0,0,0.009765625,24.873046875,0)" xlink:href="#S"/><use transform="matrix(0.009765625,0,0,0.009765625,35.68359375,0)" xlink:href="#T"/><use transform="matrix(0.009765625,0,0,0.009765625,46.884765625,0)" xlink:href="#U"/><use transform="matrix(0.009765625,0,0,0.009765625,53.642578125,0)" xlink:href="#aA"/></g><path fill="#439e9f" d="M1245-974c0 302-233 466-552 461H430V0H130v-1456h568c323 5 547 167 547 482zm-303 2c1-143-93-241-237-241H430v457h268c151 1 244-71 244-216" id="aB"/><path fill="#439e9f" d="M1006-631H430v390h676V0H130v-1456h974v243H430v347h576v235" id="aC"/><path fill="#439e9f" d="M522-1456L896-400l372-1056h394V0h-301c-7-379 15-728 30-1085L998 0H792L400-1084c15 357 37 705 30 1084H130v-1456h392" id="aD"/><g id="r"><use transform="matrix(0.009765625,0,0,0.009765625,0,0)" xlink:href="#aB"/><use transform="matrix(0.009765625,0,0,0.009765625,12.900390625,0)" xlink:href="#aC"/><use transform="matrix(0.009765625,0,0,0.009765625,24.150390625,0)" xlink:href="#aD"/></g><path fill="#439e9f" d="M687-225c189-1 272-84 286-260h300c-19 311-251 505-586 505C296 20 86-277 86-686c0-466 174-782 605-790 340-6 557 198 584 514H975c-15-183-92-268-284-268-100 0-173 38-225 108-63 84-76 264-76 443 0 157 24 272 72 345s122 109 225 109" id="aE"/><path fill="#439e9f" d="M416 0H126v-1536h290V0" id="aF"/><path fill="#439e9f" d="M463 20c-241-1-359-147-359-393v-709h289v699c0 113 51 169 154 169 98 0 165-34 202-102v-766h290V0H767l-8-110C688-23 589 20 463 20" id="aG"/><path fill="#439e9f" d="M529-185c94 0 168-33 168-114 0-35-18-63-53-83s-91-39-168-55C219-491 90-600 90-765c0-208 203-337 432-337 246 0 451 124 453 349H686c-2-91-62-143-165-143-86 0-151 41-153 117 0 32 16 57 46 77 63 43 257 69 335 100 151 60 229 153 229 291C978-13 554 93 282-28 162-81 60-190 56-344h274c5 106 86 159 199 159" id="aH"/><path fill="#439e9f" d="M457-330c2 83 25 111 111 112 32 0 60-2 85-7V-6c-57 17-115 26-175 26-203 0-310-102-310-307v-583H10v-212h158v-266h289v266h185v212H457v540" id="aI"/><path fill="#439e9f" d="M1031-175C952-60 797 20 609 20 287 20 60-206 72-543c12-330 180-559 505-559 309 0 482 214 477 537v118H365c15 134 115 234 263 234 111 0 198-40 261-121zM770-644c5-139-62-226-194-224-130 1-191 97-208 224h402" id="aJ"/><path fill="#439e9f" d="M719-811c-143-24-279 1-319 103V0H111v-1082h273l8 129c74-124 180-175 331-136" id="aK"/><g id="s"><use transform="matrix(0.009765625,0,0,0.009765625,0,0)" xlink:href="#aE"/><use transform="matrix(0.009765625,0,0,0.009765625,13.0859375,0)" xlink:href="#aF"/><use transform="matrix(0.009765625,0,0,0.009765625,18.388671875,0)" xlink:href="#aG"/><use transform="matrix(0.009765625,0,0,0.009765625,29.580078125,0)" xlink:href="#aH"/><use transform="matrix(0.009765625,0,0,0.009765625,39.86328125,0)" xlink:href="#aI"/><use transform="matrix(0.009765625,0,0,0.009765625,46.62109375,0)" xlink:href="#aJ"/><use transform="matrix(0.009765625,0,0,0.009765625,57.431640625,0)" xlink:href="#aK"/></g><path fill="#439e9f" d="M579 20C257 20 58-214 66-551c8-331 182-551 511-551 324 0 514 231 514 572 0 319-198 550-512 550zm-2-888c-169 0-222 141-222 338 0 181 61 317 224 317 170 0 223-137 223-338 0-178-64-317-225-317" id="aL"/><path fill="#439e9f" d="M741-689c-2-124-40-177-163-178-82 0-141 34-178 102V0H111v-1082h271l9 121c77-94 180-141 311-141 139 0 235 55 287 165 76-110 184-165 325-165 249 0 348 151 348 411V0h-290v-690c-2-123-39-176-163-177-87 0-147 41-180 124l1 743H741v-689" id="aM"/><g id="t"><use transform="matrix(0.009765625,0,0,0.009765625,0,0)" xlink:href="#aE"/><use transform="matrix(0.009765625,0,0,0.009765625,13.0859375,0)" xlink:href="#aG"/><use transform="matrix(0.009765625,0,0,0.009765625,24.27734375,0)" xlink:href="#aH"/><use transform="matrix(0.009765625,0,0,0.009765625,34.560546875,0)" xlink:href="#aI"/><use transform="matrix(0.009765625,0,0,0.009765625,41.025390625,0)" xlink:href="#aL"/><use transform="matrix(0.009765625,0,0,0.009765625,52.333984375,0)" xlink:href="#aM"/><use transform="matrix(0.009765625,0,0,0.009765625,69.6484375,0)" xlink:href="#aJ"/><use transform="matrix(0.009765625,0,0,0.009765625,80.458984375,0)" xlink:href="#aK"/></g><path fill="#439e9f" d="M750-692c-1-124-48-174-173-175-81 0-142 35-183 104V0H105v-1082h272l9 125c77-97 181-145 311-145 244 0 342 151 342 403V0H750v-692" id="aN"/><path fill="#439e9f" d="M1052-393l142-689h279L1197 0H955L750-681 545 0H304L28-1082h279l141 688 198-688h209" id="aO"/><path fill="#439e9f" d="M504-434L400-330V0H111v-1536h289v851c106-137 222-264 333-397h347L689-631 1114 0H782" id="aP"/><g id="u"><use transform="matrix(0.009765625,0,0,0.009765625,0,0)" xlink:href="#aN"/><use transform="matrix(0.009765625,0,0,0.009765625,11.201171875,0)" xlink:href="#aJ"/><use transform="matrix(0.009765625,0,0,0.009765625,22.01171875,0)" xlink:href="#aI"/><use transform="matrix(0.009765625,0,0,0.009765625,28.76953125,0)" xlink:href="#aO"/><use transform="matrix(0.009765625,0,0,0.009765625,43.466796875,0)" xlink:href="#aL"/><use transform="matrix(0.009765625,0,0,0.009765625,54.775390625,0)" xlink:href="#aK"/><use transform="matrix(0.009765625,0,0,0.009765625,62.0703125,0)" xlink:href="#aP"/></g><filter id="v" filterUnits="objectBoundingBox" x="-.03" y="-.02" width="1.06" height="1.11"><feOffset result="offOut" in="SourceAlpha" dy="6"/><feGaussianBlur result="blurOut" in="offOut" stdDeviation="5"/><feColorMatrix result="colorOut" in="blurOut" values="0 0 0 0 0 0 0 0 0 0 0 0 0 0 0 0 0 0 0.5019607843137255 0"/><feBlend in="SourceGraphic" in2="colorOut"/></filter><path d="M1288 0h-193v-673H361V0H169v-1456h192v626h734v-626h193V0" id="aQ"/><path d="M1175-1298H707V0H516v-1298H49v-158h1126v158" id="aR"/><path d="M1216-1011c-1 297-202 441-512 441H361V0H169v-1456h537c297-6 510 164 510 445zm-192 2c1-178-126-288-307-289H361v571h345c196 1 318-92 318-282" id="aS"/><g id="w"><use transform="matrix(0.008680555555555556,0,0,0.008680555555555556,0,0)" xlink:href="#aQ"/><use transform="matrix(0.008680555555555556,0,0,0.008680555555555556,12.421875000000002,0)" xlink:href="#aR"/><use transform="matrix(0.008680555555555556,0,0,0.008680555555555556,23.16840277777778,0)" xlink:href="#aR"/><use transform="matrix(0.008680555555555556,0,0,0.008680555555555556,33.77604166666667,0)" xlink:href="#aS"/></g><path d="M277-555c0 244 77 420 297 424 127 2 249-93 255-210h175C980-127 805 20 574 20 258 20 81-222 92-562c11-319 164-533 481-540 237-5 426 165 431 392H829c-7-133-115-242-256-240-209 4-296 166-296 395" id="aT"/><path d="M584 20C278 26 81-227 91-551c10-320 175-545 491-551 308-5 503 247 494 573-9 322-175 543-492 549zm-2-970c-208 0-305 185-305 421 0 216 106 398 307 398 211 0 307-186 307-420 0-214-109-399-309-399" id="aU"/><path d="M589-945c-131 0-219 81-264 174V0H140v-1082h175l6 136c83-104 191-156 324-156 229 0 346 129 346 387V0H806v-716c-2-153-65-229-217-229" id="aV"/><path d="M599-131c141 0 220-65 285-146l113 88C906-50 770 20 589 20 281 21 93-214 93-545c0-223 93-397 233-485 74-48 154-72 240-72 300 2 449 218 445 537v77H278c0 197 129 357 321 357zm227-509c-3-180-88-310-260-310-170 0-264 140-282 310h542" id="aW"/><path d="M456 20C285 20 205-92 206-268v-671H9v-143h197v-262h185v262h202v143H391v671c-9 125 92 149 207 118V0c-49 13-96 20-142 20" id="aX"/><path d="M341 0H156v-1082h185V0zm-91-1264c-68 0-108-42-109-105 0-62 41-107 109-107s110 44 110 107-42 105-110 105" id="aY"/><path d="M538-131c121 0 232-49 232-156 0-50-20-88-56-117-73-60-334-92-420-143-92-55-162-110-162-238 0-190 192-317 400-317 223 0 414 129 413 338H759c0-108-110-186-227-186-119 0-215 53-215 159 0 45 18 78 53 101 76 52 331 90 416 139 98 57 169 115 169 251C955-92 760 20 538 20c-176 0-314-68-386-174-38-55-57-115-57-179h185c6 129 116 202 258 202" id="aZ"/><g id="x"><use transform="matrix(0.008680555555555556,0,0,0.008680555555555556,0,0)" xlink:href="#aT"/><use transform="matrix(0.008680555555555556,0,0,0.008680555555555556,9.305555555555555,0)" xlink:href="#aU"/><use transform="matrix(0.008680555555555556,0,0,0.008680555555555556,19.444444444444443,0)" xlink:href="#aV"/><use transform="matrix(0.008680555555555556,0,0,0.008680555555555556,29.253472222222218,0)" xlink:href="#aV"/><use transform="matrix(0.008680555555555556,0,0,0.008680555555555556,39.0625,0)" xlink:href="#aW"/><use transform="matrix(0.008680555555555556,0,0,0.008680555555555556,48.48090277777778,0)" xlink:href="#aT"/><use transform="matrix(0.008680555555555556,0,0,0.008680555555555556,57.786458333333336,0)" xlink:href="#aX"/><use transform="matrix(0.008680555555555556,0,0,0.008680555555555556,63.59375,0)" xlink:href="#aY"/><use transform="matrix(0.008680555555555556,0,0,0.008680555555555556,67.90798611111111,0)" xlink:href="#aU"/><use transform="matrix(0.008680555555555556,0,0,0.008680555555555556,78.046875,0)" xlink:href="#aV"/><use transform="matrix(0.008680555555555556,0,0,0.008680555555555556,87.85590277777777,0)" xlink:href="#aZ"/></g><path d="M521 20C240 20 96-239 96-550c0-303 147-552 427-552 132 0 235 47 309 140l9-120h169V-26c4 277-183 454-459 452-165-1-334-81-400-187l96-111c79 98 176 147 291 147 180 1 288-109 286-290v-93C750-23 649 20 521 20zm48-965c-209 0-287 178-287 416 0 217 86 392 285 392 117 0 202-53 257-159v-494c-57-103-142-155-255-155" id="ba"/><path d="M663-916c-163-27-288 18-338 148V0H140v-1082h180l3 125c61-97 147-145 258-145 36 0 63 5 82 14v172" id="bb"/><g id="y"><use transform="matrix(0.008680555555555556,0,0,0.008680555555555556,0,0)" xlink:href="#aS"/><use transform="matrix(0.008680555555555556,0,0,0.008680555555555556,11.102430555555557,0)" xlink:href="#aU"/><use transform="matrix(0.008680555555555556,0,0,0.008680555555555556,21.241319444444446,0)" xlink:href="#aZ"/><use transform="matrix(0.008680555555555556,0,0,0.008680555555555556,30.40798611111111,0)" xlink:href="#aX"/><use transform="matrix(0.008680555555555556,0,0,0.008680555555555556,36.21527777777778,0)" xlink:href="#ba"/><use transform="matrix(0.008680555555555556,0,0,0.008680555555555556,46.189236111111114,0)" xlink:href="#bb"/><use transform="matrix(0.008680555555555556,0,0,0.008680555555555556,52.03993055555556,0)" xlink:href="#aW"/><use transform="matrix(0.008680555555555556,0,0,0.008680555555555556,61.458333333333336,0)" xlink:href="#aZ"/></g><path d="M973-380H363L226 0H28l556-1456h168L1309 0h-197zM421-538h495l-248-681" id="bc"/><path d="M341 0H156v-1536h185V0" id="bd"/><g id="z"><use transform="matrix(0.008680555555555556,0,0,0.008680555555555556,0,0)" xlink:href="#bc"/><use transform="matrix(0.008680555555555556,0,0,0.008680555555555556,11.597222222222223,0)" xlink:href="#bd"/><use transform="matrix(0.008680555555555556,0,0,0.008680555555555556,15.911458333333336,0)" xlink:href="#bd"/></g><g id="A"><use transform="matrix(0.008680555555555556,0,0,0.008680555555555556,0,0)" xlink:href="#aS"/><use transform="matrix(0.008680555555555556,0,0,0.008680555555555556,11.102430555555557,0)" xlink:href="#aU"/><use transform="matrix(0.008680555555555556,0,0,0.008680555555555556,21.241319444444446,0)" xlink:href="#aZ"/><use transform="matrix(0.008680555555555556,0,0,0.008680555555555556,30.40798611111111,0)" xlink:href="#aX"/><use transform="matrix(0.008680555555555556,0,0,0.008680555555555556,36.21527777777778,0)" xlink:href="#ba"/><use transform="matrix(0.008680555555555556,0,0,0.008680555555555556,46.189236111111114,0)" xlink:href="#bb"/><use transform="matrix(0.008680555555555556,0,0,0.008680555555555556,52.03993055555556,0)" xlink:href="#aW"/><use transform="matrix(0.008680555555555556,0,0,0.008680555555555556,61.458333333333336,0)" xlink:href="#aZ"/></g></defs></g></svg>