<svg xmlns="http://www.w3.org/2000/svg" xmlns:xlink="http://www.w3.org/1999/xlink" xmlns:lucid="lucid" width="1298" height="1400"><g transform="translate(-2716 -1049)" lucid:page-tab-id="0_0"><path d="M3612.47 1105.25a6 6 0 0 1 6-6H3954a6 6 0 0 1 6 6v103a6 6 0 0 1-6 6h-335.53a6 6 0 0 1-6-6z" stroke="#333" stroke-width="2" fill="#fff" filter="url(#a)"/><path d="M3641 1129.25h40.5M3641.03 1129.25H3640" stroke="#ea704d" stroke-width="2" fill="none"/><path d="M3696.76 1129.25l-14.26 4.63v-9.27z" stroke="#ea704d" stroke-width="2" fill="#ea704d"/><path d="M3641 1184.25h40.5M3641.03 1184.25H3640" stroke="#136b80" stroke-width="2" fill="none"/><path d="M3696.76 1184.25l-14.26 4.63v-9.27z" stroke="#136b80" stroke-width="2" fill="#136b80"/><path d="M3761.5 1105.25a6 6 0 0 1 6-6H3934a6 6 0 0 1 6 6v48a6 6 0 0 1-6 6h-166.5a6 6 0 0 1-6-6z" fill="none"/><use xlink:href="#b" transform="matrix(1,0,0,1,3761.515482007135,1099.25) translate(32.58506944444446 36.076388888888886)"/><use xlink:href="#c" transform="matrix(1,0,0,1,3761.515482007135,1099.25) translate(81.97743055555557 36.076388888888886)"/><path d="M3740 1160.25a6 6 0 0 1 6-6h188a6 6 0 0 1 6 6v48a6 6 0 0 1-6 6h-188a6 6 0 0 1-6-6z" fill="none"/><use xlink:href="#d" transform="matrix(1,0,0,1,3740,1154.25) translate(27.951388888888886 36.076388888888886)"/><use xlink:href="#c" transform="matrix(1,0,0,1,3740,1154.25) translate(102.97743055555556 36.076388888888886)"/><path d="M2840 1368.5a6 6 0 0 1 6-6h320.3a6 6 0 0 1 6 6v248a6 6 0 0 1-6 6H2846a6 6 0 0 1-6-6zM3210 1886a6 6 0 0 1 6-6h348a6 6 0 0 1 6 6v408a6 6 0 0 1-6 6h-348a6 6 0 0 1-6-6zM3600 1886a6 6 0 0 1 6-6h348a6 6 0 0 1 6 6v408a6 6 0 0 1-6 6h-348a6 6 0 0 1-6-6zM2820 1886a6 6 0 0 1 6-6h348a6 6 0 0 1 6 6v408a6 6 0 0 1-6 6h-348a6 6 0 0 1-6-6z" stroke="#000" stroke-width="2" fill="#fff"/><path d="M2862.97 1739.1l1.06.26 1.02.42.93.58.83.7.72.84.57.93.4 1 .27 1.08.08 1.06v160.55h-1.95v-160.46l-.06-.83-.2-.75-.3-.73-.4-.67-.5-.6-.6-.5-.68-.42-.73-.3-.77-.2-.82-.06h-55.8l-.83.07-.75.18-.73.3-.67.42-.6.5-.5.6-.42.68-.3.73-.2.76-.06.84v597.92l.07.83.18.75.3.73.42.67.5.6.6.5.68.42.73.3.76.2.84.06h108.32l.83-.07.75-.18.73-.3.67-.42.6-.5.5-.6.43-.68.3-.73.18-.76.07-.84v-66.66h1.95v66.74l-.1 1.05-.24 1.06-.42 1-.57.94-.72.83-.83.72-.93.57-1 .42-1.08.25-1.06.07h-108.48l-1.05-.08-1.06-.26-1-.42-.94-.57-.83-.72-.72-.83-.57-.93-.42-1-.25-1.08-.07-1.06v-598.08l.08-1.05.26-1.06.42-1 .57-.94.72-.83.83-.7.93-.6 1-.4 1.08-.26 1.06-.07h55.96zm58.4 517.37h-1.94v-10.97h1.95z" stroke="#136b80" stroke-width=".05" fill="#136b80"/><path d="M2921.38 2245.53h-1.95v-1.03h1.95z" fill="#136b80"/><path stroke="#136b80" stroke-width=".05" fill="#136b80"/><path d="M2867.88 1921.77l-4.64-14.26h9.27z" fill="#136b80"/><path d="M2867.88 1924.93l-5.98-18.4h11.95zm-3.3-16.45l3.3 10.14 3.3-10.14z" stroke="#136b80" stroke-width=".05" fill="#136b80"/><use xlink:href="#e" transform="matrix(1,0,0,1,2895.2220484089144,2256.471063038557) translate(0 16.493055555555557)"/><path d="M2878.86 1719.1l1.07.26 1 .42.94.58.83.7.7.84.6.93.4 1 .26 1.08.08 1.06v177h-1.95v-176.92l-.07-.83-.2-.75-.3-.73-.4-.67-.5-.6-.6-.5-.68-.42-.73-.3-.77-.2-.82-.06h-91.7l-.82.07-.75.18-.73.3-.67.42-.6.5-.5.6-.42.68-.3.73-.2.76-.06.84v637.92l.07.83.18.75.3.73.42.67.5.6.6.5.68.42.73.3.76.2.84.06h507.92l.83-.07.75-.18.73-.3.67-.42.6-.5.5-.6.42-.68.3-.73.2-.76.06-.84v-88.76h1.94v88.84l-.08 1.05-.26 1.06-.42 1-.57.94-.72.83-.83.72-.93.57-1 .42-1.08.25-1.06.07h-508.08l-1.05-.08-1.06-.26-1-.42-.94-.57-.83-.72-.72-.83-.57-.93-.42-1-.25-1.08-.07-1.06v-638.08l.08-1.05.26-1.06.42-1 .57-.94.72-.83.83-.7.93-.6 1-.4 1.08-.26 1.06-.07h91.85zm422.1 535.27h-1.93v-8.87h1.94z" stroke="#136b80" stroke-width=".05" fill="#136b80"/><path d="M3300.97 2245.53h-1.94v-1.03h1.94z" fill="#136b80"/><path stroke="#136b80" stroke-width=".05" fill="#136b80"/><path d="M2883.77 1918.22l-4.64-14.27h9.27z" fill="#136b80"/><path d="M2883.77 1921.37l-5.98-18.4h11.94zm-3.3-16.44l3.3 10.13 3.3-10.13z" stroke="#136b80" stroke-width=".05" fill="#136b80"/><use xlink:href="#e" transform="matrix(1,0,0,1,3274.8220486111113,2254.3694947713707) translate(0 16.493055555555557)"/><path d="M2894.98 1699.1l1.07.26 1 .42.94.58.83.7.7.84.58.93.43 1 .25 1.08.1 1.06v195.22h-1.96v-195.14l-.07-.83-.18-.75-.3-.73-.4-.67-.53-.6-.6-.5-.67-.42-.72-.3-.77-.2-.83-.06h-127.8l-.84.07-.75.18-.73.3-.67.42-.6.5-.5.6-.42.68-.3.73-.2.76-.06.84v677.92l.07.83.18.75.3.73.42.67.5.6.6.5.68.42.73.3.76.2.84.06h907.92l.83-.07.75-.18.73-.3.67-.42.6-.5.5-.6.42-.68.3-.73.2-.76.06-.84v-112.9h1.94v112.98l-.08 1.05-.26 1.06-.42 1-.57.94-.72.83-.83.72-.93.57-1 .42-1.08.25-1.06.07h-908.08l-1.05-.08-1.06-.26-1-.42-.94-.57-.83-.72-.72-.83-.57-.93-.42-1-.25-1.08-.07-1.06v-678.08l.08-1.05.26-1.06.42-1 .57-.94.72-.83.83-.7.93-.6 1-.4 1.08-.26 1.06-.07h127.97zm786 551.13h-1.95v-4.73h1.94z" stroke="#136b80" stroke-width=".05" fill="#136b80"/><path d="M3680.97 2245.53h-1.94v-1.03h1.94z" fill="#136b80"/><path stroke="#136b80" stroke-width=".05" fill="#136b80"/><path d="M2899.9 1916.45l-4.64-14.27h9.27z" fill="#136b80"/><path d="M2899.9 1919.6l-6-18.4h11.97zm-3.3-16.44l3.3 10.14 3.3-10.14z" stroke="#136b80" stroke-width=".05" fill="#136b80"/><use xlink:href="#e" transform="matrix(1,0,0,1,3654.8220486111113,2250.228974286468) translate(0 16.493055555555557)"/><path d="M2863 2196.94a10.35 10.35 0 0 1 0-10.38l24-41.37a10.4 10.4 0 0 1 9-5.2h48a10.4 10.4 0 0 1 9 5.2l24 41.36a10.35 10.35 0 0 1 0 10.38l-24 41.37a10.4 10.4 0 0 1-9 5.2h-48a10.4 10.4 0 0 1-9-5.2z" stroke="#fff" stroke-width="2" fill="#e7c668"/><use xlink:href="#f" transform="matrix(1,0,0,1,2865,2145) translate(34.1700390625 39.1171875)"/><use xlink:href="#g" transform="matrix(1,0,0,1,2865,2145) translate(28.183710937500003 67.2421875)"/><path d="M2920.97 2138h-1.94v-37.58h1.94zm0-58.42h-1.94v-20.08h1.94z" stroke="#136b80" stroke-width=".05" fill="#136b80"/><path d="M2920.97 2139h-1.94v-1.03h1.94z" fill="#136b80"/><path stroke="#136b80" stroke-width=".05" fill="#136b80"/><path d="M2924.64 2058.5h-9.28l4.64-14.26z" fill="#136b80"/><path d="M2925.98 2059.48h-11.96l5.98-18.4zm-9.27-1.95h6.6l-3.3-10.14z" stroke="#136b80" stroke-width=".05" fill="#136b80"/><use xlink:href="#h" transform="matrix(1,0,0,1,2876.3932291666665,2079.583638270234) translate(0 16.493055555555557)"/><path d="M2980 2028c0 6.63-26.86 12-60 12s-60-5.37-60-12v-96c0-6.63 26.86-12 60-12s60 5.37 60 12z" stroke="#fff" stroke-width="2" fill="#136b80"/><path d="M2980 1932c0 6.63-26.86 12-60 12s-60-5.37-60-12" stroke="#fff" stroke-width="2" fill="none"/><use xlink:href="#i" transform="matrix(1,0,0,1,2865,1949) translate(34.1650390625 34.6796875)"/><use xlink:href="#j" transform="matrix(1,0,0,1,2865,1949) translate(16.9091796875 62.8046875)"/><path d="M3243 2196.94a10.35 10.35 0 0 1 0-10.38l24-41.37a10.4 10.4 0 0 1 9-5.2h48a10.4 10.4 0 0 1 9 5.2l24 41.36a10.35 10.35 0 0 1 0 10.38l-24 41.37a10.4 10.4 0 0 1-9 5.2h-48a10.4 10.4 0 0 1-9-5.2z" stroke="#fff" stroke-width="2" fill="#e7c668"/><use xlink:href="#f" transform="matrix(1,0,0,1,3245,2145) translate(34.1700390625 39.1171875)"/><use xlink:href="#g" transform="matrix(1,0,0,1,3245,2145) translate(28.183710937500003 67.2421875)"/><path d="M3300.97 2138h-1.94v-37.58h1.94zm0-58.42h-1.94v-20.08h1.94z" stroke="#136b80" stroke-width=".05" fill="#136b80"/><path d="M3300.97 2139h-1.94v-1.03h1.94z" fill="#136b80"/><path stroke="#136b80" stroke-width=".05" fill="#136b80"/><path d="M3304.64 2058.5h-9.28l4.64-14.26z" fill="#136b80"/><path d="M3305.98 2059.48h-11.96l5.98-18.4zm-9.27-1.95h6.6l-3.3-10.14z" stroke="#136b80" stroke-width=".05" fill="#136b80"/><use xlink:href="#h" transform="matrix(1,0,0,1,3256.3932291666665,2079.583638270234) translate(0 16.493055555555557)"/><path d="M3360 2028c0 6.63-26.86 12-60 12s-60-5.37-60-12v-96c0-6.63 26.86-12 60-12s60 5.37 60 12z" stroke="#fff" stroke-width="2" fill="#707070"/><path d="M3360 1932c0 6.63-26.86 12-60 12s-60-5.37-60-12" stroke="#fff" stroke-width="2" fill="none"/><use xlink:href="#i" transform="matrix(1,0,0,1,3245,1949) translate(34.1650390625 34.6796875)"/><use xlink:href="#j" transform="matrix(1,0,0,1,3245,1949) translate(16.9091796875 62.8046875)"/><path d="M3067.28 1676.54l-.08 1.05-.26 1.06-.42 1-.57.94-.7.83-.84.7-.93.6-1 .4-1.07.26-1.06.07h-108.08l-.83.07-.76.18-.73.3-.67.42-.6.5-.5.6-.43.68-.3.73-.18.76-.07.84v213.25h-1.96v-213.34l.1-1.05.24-1.06.42-1 .57-.94.7-.83.85-.7.93-.6 1-.4 1.08-.26 1.05-.07h108.1l.8-.07.78-.18.72-.3.68-.42.6-.5.5-.6.42-.68.3-.73.18-.76.07-.84V1544.5h1.95z" stroke="#136b80" stroke-width=".05" fill="#136b80"/><path d="M3067.28 1544.53h-1.95v-1.03h1.95z" fill="#136b80"/><path stroke="#136b80" stroke-width=".05" fill="#136b80"/><path d="M2946.22 1917.06l-4.64-14.27h9.27z" fill="#136b80"/><path d="M2946.22 1920.2l-5.98-18.38h11.96zm-3.3-16.43l3.3 10.13 3.3-10.13zM3109.83 1256.54l-.08 1.05-.26 1.06-.43 1-.57.94-.7.83-.84.7-.94.6-1 .4-1.07.26-1.06.07h-286.86l-.83.07-.75.18-.73.3-.67.42-.6.5-.5.6-.42.68-.3.73-.2.76-.06.84v405.42l.07.83.18.75.3.73.42.67.5.6.6.5.68.42.73.3.76.2.84.06h91.74l1.06.08 1.06.26 1 .42.95.58.83.7.7.84.58.93.42 1 .26 1.08.08 1.06v214.75h-1.95v-214.66l-.06-.83-.18-.75-.3-.73-.4-.67-.52-.6-.6-.5-.67-.42-.73-.3-.77-.2-.82-.06h-91.74l-1.05-.08-1.06-.26-1-.42-.94-.58-.83-.7-.72-.84-.57-.93-.42-1-.25-1.08-.07-1.06v-405.58l.08-1.05.26-1.06.42-1 .57-.94.72-.83.83-.7.93-.6 1-.4 1.08-.26 1.06-.07h286.86l.82-.07.77-.18.73-.3.68-.42.6-.5.52-.6.4-.68.3-.73.2-.76.06-.84V1247h1.95z" stroke="#136b80" stroke-width=".05" fill="#136b80"/><path d="M3109.83 1247.03h-1.95V1246h1.95z" fill="#136b80"/><path stroke="#136b80" stroke-width=".05" fill="#136b80"/><path d="M2913.75 1915.98l-4.64-14.27h9.28z" fill="#136b80"/><path d="M2913.75 1919.13l-5.98-18.4h11.95zm-3.3-16.44l3.3 10.12 3.3-10.13z" stroke="#136b80" stroke-width=".05" fill="#136b80"/><path d="M3623 2196.94a10.35 10.35 0 0 1 0-10.38l24-41.37a10.4 10.4 0 0 1 9-5.2h48a10.4 10.4 0 0 1 9 5.2l24 41.36a10.35 10.35 0 0 1 0 10.38l-24 41.37a10.4 10.4 0 0 1-9 5.2h-48a10.4 10.4 0 0 1-9-5.2z" stroke="#fff" stroke-width="2" fill="#e7c668"/><use xlink:href="#f" transform="matrix(1,0,0,1,3625,2145) translate(34.1700390625 39.1171875)"/><use xlink:href="#g" transform="matrix(1,0,0,1,3625,2145) translate(28.183710937500003 67.2421875)"/><path d="M3680.97 2138h-1.94v-37.58h1.94zm0-58.42h-1.94v-20.08h1.94z" stroke="#136b80" stroke-width=".05" fill="#136b80"/><path d="M3680.97 2139h-1.94v-1.03h1.94z" fill="#136b80"/><path stroke="#136b80" stroke-width=".05" fill="#136b80"/><path d="M3684.64 2058.5h-9.28l4.64-14.26z" fill="#136b80"/><path d="M3685.98 2059.48h-11.96l5.98-18.4zm-9.27-1.95h6.6l-3.3-10.14z" stroke="#136b80" stroke-width=".05" fill="#136b80"/><use xlink:href="#h" transform="matrix(1,0,0,1,3636.3932291666665,2079.583638270234) translate(0 16.493055555555557)"/><path d="M3740 2028c0 6.63-26.86 12-60 12s-60-5.37-60-12v-96c0-6.63 26.86-12 60-12s60 5.37 60 12z" stroke="#fff" stroke-width="2" fill="#707070"/><path d="M3740 1932c0 6.63-26.86 12-60 12s-60-5.37-60-12" stroke="#fff" stroke-width="2" fill="none"/><use xlink:href="#i" transform="matrix(1,0,0,1,3625,1949) translate(34.1650390625 34.6796875)"/><use xlink:href="#j" transform="matrix(1,0,0,1,3625,1949) translate(16.9091796875 62.8046875)"/><path d="M3060 2262a2 2 0 0 1 2-2h116a2 2 0 0 1 2 2v36a2 2 0 0 1-2 2h-116a2 2 0 0 1-2-2z" stroke="#000" stroke-opacity="0" stroke-width="2" fill-opacity="0"/><use xlink:href="#k" transform="matrix(1,0,0,1,3065,2265) translate(16.4501953125 22.3046875)"/><use xlink:href="#l" transform="matrix(1,0,0,1,3065,2265) translate(80.0927734375 22.3046875)"/><path d="M3450 2262a2 2 0 0 1 2-2h116a2 2 0 0 1 2 2v36a2 2 0 0 1-2 2h-116a2 2 0 0 1-2-2z" stroke="#000" stroke-opacity="0" stroke-width="2" fill-opacity="0"/><use xlink:href="#k" transform="matrix(1,0,0,1,3455,2265) translate(16.796875 22.3046875)"/><use xlink:href="#m" transform="matrix(1,0,0,1,3455,2265) translate(80.439453125 22.3046875)"/><path d="M3840 2262a2 2 0 0 1 2-2h116a2 2 0 0 1 2 2v36a2 2 0 0 1-2 2h-116a2 2 0 0 1-2-2z" stroke="#000" stroke-opacity="0" stroke-width="2" fill-opacity="0"/><use xlink:href="#k" transform="matrix(1,0,0,1,3845,2265) translate(16.6357421875 22.3046875)"/><use xlink:href="#n" transform="matrix(1,0,0,1,3845,2265) translate(80.2783203125 22.3046875)"/><path d="M3333.1 1204c-13.25 0-24-10.74-24-24 0-10.6 6.5-19.55 16.6-22.83-.6-31.17 39.4-37.17 55.4-25.17 8-18 48-12 48 6 24-6 48 18 32 48 16 24 0 54-32 42-8 15.6-40 15.6-48 0-16 12-48 6-48-24z" stroke="#fff" stroke-width="2" fill="#ea704d"/><use xlink:href="#o" transform="matrix(1,0,0,1,3314.1064377408675,1125) translate(8.65625 61.86631944444444)"/><use xlink:href="#p" transform="matrix(1,0,0,1,3314.1064377408675,1125) translate(71.57942708333334 61.86631944444444)"/><path d="M3063 1198.44a10.35 10.35 0 0 1 0-10.38l24-41.37a10.4 10.4 0 0 1 9-5.2h48a10.4 10.4 0 0 1 9 5.2l24 41.36a10.35 10.35 0 0 1 0 10.38l-24 41.37a10.4 10.4 0 0 1-9 5.2h-48a10.4 10.4 0 0 1-9-5.2z" stroke="#fff" stroke-width="2" fill="#e7c668"/><path d="M3055 1193.44a10.35 10.35 0 0 1 0-10.38l24-41.37a10.4 10.4 0 0 1 9-5.2h48a10.4 10.4 0 0 1 9 5.2l24 41.36a10.35 10.35 0 0 1 0 10.38l-24 41.37a10.4 10.4 0 0 1-9 5.2h-48a10.4 10.4 0 0 1-9-5.2z" stroke="#fff" stroke-width="2" fill="#e7c668"/><use xlink:href="#f" transform="matrix(1,0,0,1,3057,1141.5) translate(34.1700390625 39.1171875)"/><use xlink:href="#g" transform="matrix(1,0,0,1,3057,1141.5) translate(28.183710937500003 67.2421875)"/><path d="M3045 1188.44a10.35 10.35 0 0 1 0-10.38l24-41.37a10.4 10.4 0 0 1 9-5.2h48a10.4 10.4 0 0 1 9 5.2l24 41.36a10.35 10.35 0 0 1 0 10.38l-24 41.37a10.4 10.4 0 0 1-9 5.2h-48a10.4 10.4 0 0 1-9-5.2z" stroke="#fff" stroke-width="2" fill="#e7c668"/><use xlink:href="#f" transform="matrix(1,0,0,1,3047,1136.5) translate(34.1700390625 39.1171875)"/><use xlink:href="#q" transform="matrix(1,0,0,1,3047,1136.5) translate(23.042109374999995 67.2421875)"/><path d="M2996.3 1428.5a6 6 0 0 1 6-6h128a6 6 0 0 1 6 6v108a6 6 0 0 1-6 6h-128a6 6 0 0 1-6-6z" stroke="#fff" stroke-width="2" fill="#ea704d"/><use xlink:href="#r" transform="matrix(1,0,0,1,3001.303933028954,1427.4999187944318) translate(22.0458984375 46.0546875)"/><use xlink:href="#s" transform="matrix(1,0,0,1,3001.303933028954,1427.4999187944318) translate(68.6962890625 46.0546875)"/><use xlink:href="#t" transform="matrix(1,0,0,1,3001.303933028954,1427.4999187944318) translate(13.84765625 74.1796875)"/><path d="M3052.3 1584.5a2 2 0 0 1 2-2h116a2 2 0 0 1 2 2v36a2 2 0 0 1-2 2h-116a2 2 0 0 1-2-2z" stroke="#000" stroke-opacity="0" stroke-width="2" fill-opacity="0"/><use xlink:href="#k" transform="matrix(1,0,0,1,3057.303933028954,1587.4999187944318) translate(16.826171875 22.3046875)"/><use xlink:href="#u" transform="matrix(1,0,0,1,3057.303933028954,1587.4999187944318) translate(80.46875 22.3046875)"/><path d="M3380.53 1230.65V1314a6 6 0 0 1-6 6H3072.3a6 6 0 0 0-6 6v77" stroke="#ea704d" stroke-width="2" fill="none"/><path d="M3381.2 1230.12l.3.43v.12h-1.94v-.42l1.25-.77z" stroke="#ea704d" stroke-width=".05" fill="#ea704d"/><path d="M3066.3 1418.26l-4.63-14.26h9.27z" stroke="#ea704d" stroke-width="2" fill="#ea704d"/><path d="M2863 1487.7a10.35 10.35 0 0 1 0-10.4l24-41.36a10.4 10.4 0 0 1 9-5.2h48a10.4 10.4 0 0 1 9 5.2l24 41.37a10.35 10.35 0 0 1 0 10.4l-24 41.36a10.4 10.4 0 0 1-9 5.2h-48a10.4 10.4 0 0 1-9-5.2z" stroke="#fff" stroke-width="2" fill="#e7c668"/><use xlink:href="#f" transform="matrix(1,0,0,1,2865,1435.7499187944318) translate(34.1700390625 39.1171875)"/><use xlink:href="#g" transform="matrix(1,0,0,1,2865,1435.7499187944318) translate(28.183710937500003 67.2421875)"/><path d="M2930.57 1578.36l.22.9.06.9v320.73h-1.95v-320.67l-.05-.66-.14-.6-.23-.58-.32-.54-.22-.25h2.33zm-9.6-22.26h-1.94v-19.85h1.94z" stroke="#136b80" stroke-width=".05" fill="#136b80"/><path d="M2920.97 1536.28h-1.94v-1.03h1.94z" fill="#136b80"/><path stroke="#136b80" stroke-width=".05" fill="#136b80"/><path d="M2929.88 1916.16l-4.64-14.27h9.28z" fill="#136b80"/><path d="M2929.88 1919.3l-5.98-18.38h11.96zm-3.3-16.43l3.3 10.13 3.3-10.13z" stroke="#136b80" stroke-width=".05" fill="#136b80"/><use xlink:href="#v" transform="matrix(1,0,0,1,2891.8836805555557,1556.0999930030553) translate(0 17.22222222222222)"/><path d="M3216.24 1368.5a6 6 0 0 1 6-6h320.3a6 6 0 0 1 6 6v248a6 6 0 0 1-6 6h-320.3a6 6 0 0 1-6-6z" stroke="#000" stroke-width="2" fill="#fff"/><path d="M3443.52 1744.04l-.1 1.05-.24 1.06-.42 1-.57.94-.72.83-.84.7-.93.6-1 .4-1.07.26-1.05.07h-452.56l-.83.07-.77.18-.73.3-.67.42-.6.5-.5.6-.42.68-.3.73-.18.76-.07.84v153.14H2977v-153.22l.1-1.05.24-1.06.42-1 .57-.94.72-.83.83-.7.93-.6 1.02-.4 1.07-.26 1.04-.07h452.56l.83-.07.76-.18.72-.3.67-.42.6-.5.5-.6.4-.68.32-.73.18-.76.07-.84V1544.5h1.95z" stroke="#136b80" stroke-width=".05" fill="#136b80"/><path d="M3443.52 1544.53h-1.95v-1.03h1.95z" fill="#136b80"/><path stroke="#136b80" stroke-width=".05" fill="#136b80"/><path d="M2977.98 1924.44l-4.64-14.26h9.27z" fill="#136b80"/><path d="M2977.98 1927.6l-5.98-18.4h11.96zm-3.3-16.45l3.3 10.14 3.3-10.15z" stroke="#136b80" stroke-width=".05" fill="#136b80"/><path d="M3372.54 1428.5a6 6 0 0 1 6-6h128a6 6 0 0 1 6 6v108a6 6 0 0 1-6 6h-128a6 6 0 0 1-6-6z" stroke="#fff" stroke-width="2" fill="#ea704d"/><use xlink:href="#r" transform="matrix(1,0,0,1,3377.5405971007053,1427.4998400979719) translate(22.0458984375 46.0546875)"/><use xlink:href="#s" transform="matrix(1,0,0,1,3377.5405971007053,1427.4998400979719) translate(68.6962890625 46.0546875)"/><use xlink:href="#t" transform="matrix(1,0,0,1,3377.5405971007053,1427.4998400979719) translate(13.84765625 74.1796875)"/><path d="M3428.54 1584.5a2 2 0 0 1 2-2h116a2 2 0 0 1 2 2v36a2 2 0 0 1-2 2h-116a2 2 0 0 1-2-2z" stroke="#000" stroke-opacity="0" stroke-width="2" fill-opacity="0"/><use xlink:href="#k" transform="matrix(1,0,0,1,3433.5405971007053,1587.499840097972) translate(16.9970703125 22.3046875)"/><use xlink:href="#w" transform="matrix(1,0,0,1,3433.5405971007053,1587.499840097972) translate(80.6396484375 22.3046875)"/><path d="M3400.58 1241.4v72.6a6 6 0 0 0 6 6h29.96a6 6 0 0 1 6 6v77" stroke="#ea704d" stroke-width="2" fill="none"/><path d="M3401.56 1240.5v.92h-1.95v-1.13z" stroke="#ea704d" stroke-width=".05" fill="#ea704d"/><path d="M3442.54 1418.26l-4.63-14.26h9.28z" stroke="#ea704d" stroke-width="2" fill="#ea704d"/><path d="M3239.25 1487.7a10.35 10.35 0 0 1 0-10.4l23.98-41.36a10.4 10.4 0 0 1 9-5.2h48a10.4 10.4 0 0 1 9.02 5.2l23.98 41.37a10.35 10.35 0 0 1 0 10.4l-23.98 41.36a10.4 10.4 0 0 1-9 5.2h-48a10.4 10.4 0 0 1-9.02-5.2z" stroke="#fff" stroke-width="2" fill="#e7c668"/><use xlink:href="#f" transform="matrix(1,0,0,1,3241.2366640717514,1435.7498400979719) translate(34.1700390625 39.1171875)"/><use xlink:href="#g" transform="matrix(1,0,0,1,3241.2366640717514,1435.7498400979719) translate(28.183710937500003 67.2421875)"/><path d="M3297.2 1722.98l-.07 1.06-.26 1.06-.42 1-.57.95-.7.83-.84.7-.93.58-1 .42-1.07.26-1.05.08h-321.55l-.83.06-.76.2-.73.3-.66.4-.6.5-.5.6-.43.68-.3.73-.17.76-.07.82v169.16h-1.95V1734.9l.1-1.05.25-1.06.42-1.02.57-.94.7-.83.85-.7.92-.57 1-.42 1.08-.25 1.05-.08h321.55l.82-.07.77-.18.72-.3.67-.4.6-.53.5-.6.4-.68.3-.72.2-.77.06-.82v-143.35h1.95zm0-164.94h-1.94v-21.8h1.95z" stroke="#136b80" stroke-width=".05" fill="#136b80"/><path d="M3297.2 1536.28h-1.94v-1.03h1.95z" fill="#136b80"/><path stroke="#136b80" stroke-width=".05" fill="#136b80"/><path d="M2962.7 1919.4l-4.65-14.26h9.27z" fill="#136b80"/><path d="M2962.7 1922.56l-6-18.4h11.97zm-3.3-16.45l3.3 10.15 3.28-10.14z" stroke="#136b80" stroke-width=".05" fill="#136b80"/><use xlink:href="#v" transform="matrix(1,0,0,1,3268.120344627307,1558.0391500683288) translate(0 17.22222222222222)"/><path d="M3592.47 1368.5a6 6 0 0 1 6-6h320.3a6 6 0 0 1 6 6v248a6 6 0 0 1-6 6h-320.3a6 6 0 0 1-6-6z" stroke="#000" stroke-width="2" fill="#fff"/><path d="M3819.75 1784.04l-.08 1.05-.26 1.06-.4 1-.58.94-.7.83-.84.7-.93.6-1.02.4-1.06.26-1.05.07h-766.78l-.83.07-.75.18-.73.3-.67.42-.6.5-.5.6-.42.68-.3.73-.2.76-.06.84v161.12l-.08 1.05-.26 1.07-.42 1-.57.95-.72.83-.83.7-.93.58-1 .42-1.08.26-1.06.1h-34.54v-1.96h34.46l.83-.06.75-.2.73-.3.67-.4.6-.5.5-.6.42-.68.3-.73.2-.77.06-.82v-161.12l.08-1.05.26-1.06.42-1 .57-.94.72-.83.83-.7.93-.6 1-.4 1.08-.26 1.06-.07h766.78l.82-.07.77-.18.73-.3.67-.42.6-.5.5-.6.42-.68.3-.73.2-.76.05-.84V1544.5h1.95z" stroke="#136b80" stroke-width=".05" fill="#136b80"/><path d="M3819.75 1544.53h-1.95v-1.03h1.95z" fill="#136b80"/><path stroke="#136b80" stroke-width=".05" fill="#136b80"/><path d="M2998.5 1967.75l-14.26-4.63 14.26-4.64z" fill="#136b80"/><path d="M2999.48 1969.1l-18.4-5.98 18.4-5.98zm-12.1-5.98l10.15 3.3v-6.6z" stroke="#136b80" stroke-width=".05" fill="#136b80"/><path d="M3748.78 1428.5a6 6 0 0 1 6-6h128a6 6 0 0 1 6 6v108a6 6 0 0 1-6 6h-128a6 6 0 0 1-6-6z" stroke="#fff" stroke-width="2" fill="#ea704d"/><g><use xlink:href="#r" transform="matrix(1,0,0,1,3753.7772611724567,1427.499840097972) translate(22.0458984375 46.0546875)"/><use xlink:href="#s" transform="matrix(1,0,0,1,3753.7772611724567,1427.499840097972) translate(68.6962890625 46.0546875)"/><use xlink:href="#t" transform="matrix(1,0,0,1,3753.7772611724567,1427.499840097972) translate(13.84765625 74.1796875)"/></g><path d="M3804.78 1584.5a2 2 0 0 1 2-2h116a2 2 0 0 1 2 2v36a2 2 0 0 1-2 2h-116a2 2 0 0 1-2-2z" stroke="#000" stroke-opacity="0" stroke-width="2" fill-opacity="0"/><g><use xlink:href="#k" transform="matrix(1,0,0,1,3809.7772611724567,1587.499840097972) translate(17.119140625 22.3046875)"/><use xlink:href="#x" transform="matrix(1,0,0,1,3809.7772611724567,1587.499840097972) translate(80.76171875 22.3046875)"/></g><path d="M3420.84 1238.16V1294a6 6 0 0 0 6 6h385.94a6 6 0 0 1 6 6v97" stroke="#ea704d" stroke-width="2" fill="none"/><path d="M3421.82 1238.2h-1.95v-.6l.94-.42 1.02-.58z" stroke="#ea704d" stroke-width=".05" fill="#ea704d"/><path d="M3818.78 1418.26l-4.64-14.26h9.27z" stroke="#ea704d" stroke-width="2" fill="#ea704d"/><path d="M3615.48 1487.7a10.35 10.35 0 0 1 0-10.4l23.98-41.36a10.4 10.4 0 0 1 9-5.2h48a10.4 10.4 0 0 1 9.02 5.2l23.98 41.37a10.35 10.35 0 0 1 0 10.4l-23.98 41.36a10.4 10.4 0 0 1-9 5.2h-48a10.4 10.4 0 0 1-9.02-5.2z" stroke="#fff" stroke-width="2" fill="#e7c668"/><g><use xlink:href="#f" transform="matrix(1,0,0,1,3617.473328143503,1435.749840097972) translate(34.1700390625 39.1171875)"/><use xlink:href="#g" transform="matrix(1,0,0,1,3617.473328143503,1435.749840097972) translate(28.183710937500003 67.2421875)"/></g><path d="M3673.45 1764.04l-.1 1.05-.24 1.06-.4 1-.58.94-.7.83-.85.7-.93.6-1 .4-1.07.26-1.06.07h-639.46l-.83.07-.75.18-.73.3-.67.42-.6.5-.5.6-.42.68-.3.73-.2.76-.06.84v162.8l-.08 1.04-.26 1.06-.42 1-.57.95-.72.82-.83.7-.93.6-1 .4-1.08.26-1.06.08h-15.54v-1.95h15.46l.83-.05.75-.2.73-.3.67-.4.6-.5.5-.6.42-.68.3-.73.2-.77.06-.82v-162.8l.08-1.04.26-1.06.42-1 .57-.94.72-.83.83-.7.93-.6 1-.4 1.08-.26 1.06-.07h639.47l.83-.07.76-.18.73-.3.68-.42.6-.5.5-.6.42-.68.3-.73.18-.76.07-.84V1578.4h1.95zm0-207.14h-1.95v-20.65h1.95z" stroke="#136b80" stroke-width=".05" fill="#136b80"/><path d="M3673.45 1536.28h-1.95v-1.03h1.95z" fill="#136b80"/><path stroke="#136b80" stroke-width=".05" fill="#136b80"/><path d="M2998.5 1949.42l-14.26-4.63 14.26-4.65z" fill="#136b80"/><path d="M2999.48 1950.76l-18.4-5.97 18.4-6zm-12.1-5.97l10.15 3.28v-6.6z" stroke="#136b80" stroke-width=".05" fill="#136b80"/><g><use xlink:href="#v" transform="matrix(1,0,0,1,3644.3570086990585,1556.895144715709) translate(0 17.22222222222222)"/></g><path d="M2762 1284.5h1196" fill="none"/><path d="M2764 1284.5c0 1.1-.9 2-2 2s-2-.9-2-2 .9-2 2-2 2 .9 2 2zm7.97 0c0 1.1-.9 2-2 2s-2-.9-2-2 .9-2 2-2 2 .9 2 2zm7.98 0c0 1.1-.9 2-2 2s-2-.9-2-2 .9-2 2-2 2 .9 2 2zm7.97 0c0 1.1-.9 2-2 2s-2-.9-2-2 .9-2 2-2 2 .9 2 2zm7.97 0c0 1.1-.9 2-2 2s-2-.9-2-2 .9-2 2-2 2 .9 2 2zm7.97 0c0 1.1-.9 2-2 2s-2-.9-2-2 .9-2 2-2 2 .9 2 2zm7.97 0c0 1.1-.9 2-2 2s-2-.9-2-2 .9-2 2-2 2 .9 2 2zm7.97 0c0 1.1-.88 2-2 2-1.1 0-2-.9-2-2s.9-2 2-2c1.12 0 2 .9 2 2zm8 0c0 1.1-.9 2-2 2-1.12 0-2-.9-2-2s.88-2 2-2c1.1 0 2 .9 2 2zm7.96 0c0 1.1-.9 2-2 2s-2-.9-2-2 .9-2 2-2 2 .9 2 2zm7.97 0c0 1.1-.9 2-2 2s-2-.9-2-2 .9-2 2-2 2 .9 2 2zm7.98 0c0 1.1-.9 2-2 2s-2-.9-2-2 .9-2 2-2 2 .9 2 2zm7.98 0c0 1.1-.9 2-2 2s-2-.9-2-2 .9-2 2-2 2 .9 2 2zm7.97 0c0 1.1-.9 2-2 2s-2-.9-2-2 .9-2 2-2 2 .9 2 2zm7.98 0c0 1.1-.9 2-2 2s-2-.9-2-2 .9-2 2-2 2 .9 2 2zm7.97 0c0 1.1-.9 2-2 2s-2-.9-2-2 .9-2 2-2 2 .9 2 2zm7.97 0c0 1.1-.9 2-2 2s-2-.9-2-2 .9-2 2-2 2 .9 2 2zm7.98 0c0 1.1-.9 2-2 2s-2-.9-2-2 .9-2 2-2 2 .9 2 2zm7.97 0c0 1.1-.9 2-2 2s-2-.9-2-2 .9-2 2-2 2 .9 2 2zm7.97 0c0 1.1-.9 2-2 2s-2-.9-2-2 .9-2 2-2 2 .9 2 2zm7.97 0c0 1.1-.9 2-2 2s-2-.9-2-2 .9-2 2-2 2 .9 2 2zm7.97 0c0 1.1-.9 2-2 2s-2-.9-2-2 .9-2 2-2 2 .9 2 2zm7.97 0c0 1.1-.88 2-2 2-1.1 0-2-.9-2-2s.9-2 2-2c1.12 0 2 .9 2 2zm8 0c0 1.1-.9 2-2 2-1.12 0-2-.9-2-2s.88-2 2-2c1.1 0 2 .9 2 2zm7.96 0c0 1.1-.9 2-2 2s-2-.9-2-2 .9-2 2-2 2 .9 2 2zm7.97 0c0 1.1-.9 2-2 2s-2-.9-2-2 .9-2 2-2 2 .9 2 2zm7.98 0c0 1.1-.9 2-2 2s-2-.9-2-2 .9-2 2-2 2 .9 2 2zm7.98 0c0 1.1-.9 2-2 2s-2-.9-2-2 .9-2 2-2 2 .9 2 2zm7.97 0c0 1.1-.9 2-2 2s-2-.9-2-2 .9-2 2-2 2 .9 2 2zm7.98 0c0 1.1-.9 2-2 2s-2-.9-2-2 .9-2 2-2 2 .9 2 2zm7.97 0c0 1.1-.9 2-2 2s-2-.9-2-2 .9-2 2-2 2 .9 2 2zm7.97 0c0 1.1-.9 2-2 2s-2-.9-2-2 .9-2 2-2 2 .9 2 2zm7.98 0c0 1.1-.9 2-2 2s-2-.9-2-2 .9-2 2-2 2 .9 2 2zm7.97 0c0 1.1-.9 2-2 2s-2-.9-2-2 .9-2 2-2 2 .9 2 2zm7.97 0c0 1.1-.9 2-2 2s-2-.9-2-2 .9-2 2-2 2 .9 2 2zm7.97 0c0 1.1-.9 2-2 2s-2-.9-2-2 .9-2 2-2 2 .9 2 2zm7.97 0c0 1.1-.9 2-2 2s-2-.9-2-2 .9-2 2-2 2 .9 2 2zm7.97 0c0 1.1-.88 2-2 2-1.1 0-2-.9-2-2s.9-2 2-2c1.12 0 2 .9 2 2zm8 0c0 1.1-.9 2-2 2-1.12 0-2-.9-2-2s.88-2 2-2c1.1 0 2 .9 2 2zm7.96 0c0 1.1-.9 2-2 2s-2-.9-2-2 .9-2 2-2 2 .9 2 2zm7.97 0c0 1.1-.9 2-2 2s-2-.9-2-2 .9-2 2-2 2 .9 2 2zm7.98 0c0 1.1-.9 2-2 2s-2-.9-2-2 .9-2 2-2 2 .9 2 2zm7.98 0c0 1.1-.9 2-2 2s-2-.9-2-2 .9-2 2-2 2 .9 2 2zm7.97 0c0 1.1-.9 2-2 2s-2-.9-2-2 .9-2 2-2 2 .9 2 2zm7.98 0c0 1.1-.9 2-2 2s-2-.9-2-2 .9-2 2-2 2 .9 2 2zm7.97 0c0 1.1-.9 2-2 2s-2-.9-2-2 .9-2 2-2 2 .9 2 2zm7.97 0c0 1.1-.9 2-2 2s-2-.9-2-2 .9-2 2-2 2 .9 2 2zm7.98 0c0 1.1-.9 2-2 2s-2-.9-2-2 .9-2 2-2 2 .9 2 2zm7.97 0c0 1.1-.9 2-2 2s-2-.9-2-2 .9-2 2-2 2 .9 2 2zm7.97 0c0 1.1-.9 2-2 2s-2-.9-2-2 .9-2 2-2 2 .9 2 2zm7.97 0c0 1.1-.9 2-2 2s-2-.9-2-2 .9-2 2-2 2 .9 2 2zm7.97 0c0 1.1-.9 2-2 2s-2-.9-2-2 .9-2 2-2 2 .9 2 2zm7.97 0c0 1.1-.88 2-2 2-1.1 0-2-.9-2-2s.9-2 2-2c1.12 0 2 .9 2 2zm8 0c0 1.1-.9 2-2 2-1.12 0-2-.9-2-2s.88-2 2-2c1.1 0 2 .9 2 2zm7.96 0c0 1.1-.9 2-2 2s-2-.9-2-2 .9-2 2-2 2 .9 2 2zm7.97 0c0 1.1-.9 2-2 2s-2-.9-2-2 .9-2 2-2 2 .9 2 2zm7.98 0c0 1.1-.9 2-2 2s-2-.9-2-2 .9-2 2-2 2 .9 2 2zm7.98 0c0 1.1-.9 2-2 2s-2-.9-2-2 .9-2 2-2 2 .9 2 2zm7.97 0c0 1.1-.9 2-2 2s-2-.9-2-2 .9-2 2-2 2 .9 2 2zm7.98 0c0 1.1-.9 2-2 2s-2-.9-2-2 .9-2 2-2 2 .9 2 2zm7.97 0c0 1.1-.9 2-2 2s-2-.9-2-2 .9-2 2-2 2 .9 2 2zm7.97 0c0 1.1-.9 2-2 2s-2-.9-2-2 .9-2 2-2 2 .9 2 2zm7.98 0c0 1.1-.9 2-2 2s-2-.9-2-2 .9-2 2-2 2 .9 2 2zm7.97 0c0 1.1-.9 2-2 2s-2-.9-2-2 .9-2 2-2 2 .9 2 2zm7.97 0c0 1.1-.9 2-2 2s-2-.9-2-2 .9-2 2-2 2 .9 2 2zm7.97 0c0 1.1-.9 2-2 2s-2-.9-2-2 .9-2 2-2 2 .9 2 2zm7.97 0c0 1.1-.9 2-2 2s-2-.9-2-2 .9-2 2-2 2 .9 2 2zm7.97 0c0 1.1-.88 2-2 2-1.1 0-2-.9-2-2s.9-2 2-2c1.12 0 2 .9 2 2zm8 0c0 1.1-.9 2-2 2-1.12 0-2-.9-2-2s.88-2 2-2c1.1 0 2 .9 2 2zm7.96 0c0 1.1-.9 2-2 2s-2-.9-2-2 .9-2 2-2 2 .9 2 2zm7.97 0c0 1.1-.9 2-2 2s-2-.9-2-2 .9-2 2-2 2 .9 2 2zm7.98 0c0 1.1-.9 2-2 2s-2-.9-2-2 .9-2 2-2 2 .9 2 2zm7.98 0c0 1.1-.9 2-2 2s-2-.9-2-2 .9-2 2-2 2 .9 2 2zm7.97 0c0 1.1-.9 2-2 2s-2-.9-2-2 .9-2 2-2 2 .9 2 2zm7.98 0c0 1.1-.9 2-2 2s-2-.9-2-2 .9-2 2-2 2 .9 2 2zm7.97 0c0 1.1-.9 2-2 2s-2-.9-2-2 .9-2 2-2 2 .9 2 2zm7.97 0c0 1.1-.9 2-2 2s-2-.9-2-2 .9-2 2-2 2 .9 2 2zm7.98 0c0 1.1-.9 2-2 2s-2-.9-2-2 .9-2 2-2 2 .9 2 2zm7.97 0c0 1.1-.9 2-2 2s-2-.9-2-2 .9-2 2-2 2 .9 2 2zm7.97 0c0 1.1-.9 2-2 2s-2-.9-2-2 .9-2 2-2 2 .9 2 2zm7.97 0c0 1.1-.9 2-2 2s-2-.9-2-2 .9-2 2-2 2 .9 2 2zm7.97 0c0 1.1-.9 2-2 2s-2-.9-2-2 .9-2 2-2 2 .9 2 2zm7.97 0c0 1.1-.88 2-2 2-1.1 0-2-.9-2-2s.9-2 2-2c1.12 0 2 .9 2 2zm8 0c0 1.1-.9 2-2 2-1.12 0-2-.9-2-2s.88-2 2-2c1.1 0 2 .9 2 2zm7.96 0c0 1.1-.9 2-2 2s-2-.9-2-2 .9-2 2-2 2 .9 2 2zm7.97 0c0 1.1-.9 2-2 2s-2-.9-2-2 .9-2 2-2 2 .9 2 2zm7.98 0c0 1.1-.9 2-2 2s-2-.9-2-2 .9-2 2-2 2 .9 2 2zm7.98 0c0 1.1-.9 2-2 2s-2-.9-2-2 .9-2 2-2 2 .9 2 2zm7.97 0c0 1.1-.9 2-2 2s-2-.9-2-2 .9-2 2-2 2 .9 2 2zm7.98 0c0 1.1-.9 2-2 2s-2-.9-2-2 .9-2 2-2 2 .9 2 2zm7.97 0c0 1.1-.9 2-2 2s-2-.9-2-2 .9-2 2-2 2 .9 2 2zm7.97 0c0 1.1-.9 2-2 2s-2-.9-2-2 .9-2 2-2 2 .9 2 2zm7.98 0c0 1.1-.9 2-2 2s-2-.9-2-2 .9-2 2-2 2 .9 2 2zm7.97 0c0 1.1-.9 2-2 2s-2-.9-2-2 .9-2 2-2 2 .9 2 2zm7.97 0c0 1.1-.9 2-2 2s-2-.9-2-2 .9-2 2-2 2 .9 2 2zm7.97 0c0 1.1-.9 2-2 2s-2-.9-2-2 .9-2 2-2 2 .9 2 2zm7.97 0c0 1.1-.9 2-2 2s-2-.9-2-2 .9-2 2-2 2 .9 2 2zm7.97 0c0 1.1-.88 2-2 2-1.1 0-2-.9-2-2s.9-2 2-2c1.12 0 2 .9 2 2zm8 0c0 1.1-.9 2-2 2-1.12 0-2-.9-2-2s.88-2 2-2c1.1 0 2 .9 2 2zm7.96 0c0 1.1-.9 2-2 2s-2-.9-2-2 .9-2 2-2 2 .9 2 2zm7.97 0c0 1.1-.9 2-2 2s-2-.9-2-2 .9-2 2-2 2 .9 2 2zm7.98 0c0 1.1-.9 2-2 2s-2-.9-2-2 .9-2 2-2 2 .9 2 2zm7.98 0c0 1.1-.9 2-2 2s-2-.9-2-2 .9-2 2-2 2 .9 2 2zm7.97 0c0 1.1-.9 2-2 2s-2-.9-2-2 .9-2 2-2 2 .9 2 2zm7.98 0c0 1.1-.9 2-2 2s-2-.9-2-2 .9-2 2-2 2 .9 2 2zm7.97 0c0 1.1-.9 2-2 2s-2-.9-2-2 .9-2 2-2 2 .9 2 2zm7.97 0c0 1.1-.9 2-2 2s-2-.9-2-2 .9-2 2-2 2 .9 2 2zm7.98 0c0 1.1-.9 2-2 2s-2-.9-2-2 .9-2 2-2 2 .9 2 2zm7.97 0c0 1.1-.9 2-2 2s-2-.9-2-2 .9-2 2-2 2 .9 2 2zm7.97 0c0 1.1-.9 2-2 2s-2-.9-2-2 .9-2 2-2 2 .9 2 2zm7.97 0c0 1.1-.9 2-2 2s-2-.9-2-2 .9-2 2-2 2 .9 2 2zm7.97 0c0 1.1-.9 2-2 2s-2-.9-2-2 .9-2 2-2 2 .9 2 2zm7.97 0c0 1.1-.88 2-2 2-1.1 0-2-.9-2-2s.9-2 2-2c1.12 0 2 .9 2 2zm8 0c0 1.1-.9 2-2 2-1.12 0-2-.9-2-2s.88-2 2-2c1.1 0 2 .9 2 2zm7.96 0c0 1.1-.9 2-2 2s-2-.9-2-2 .9-2 2-2 2 .9 2 2zm7.97 0c0 1.1-.9 2-2 2s-2-.9-2-2 .9-2 2-2 2 .9 2 2zm7.98 0c0 1.1-.9 2-2 2s-2-.9-2-2 .9-2 2-2 2 .9 2 2zm7.98 0c0 1.1-.9 2-2 2s-2-.9-2-2 .9-2 2-2 2 .9 2 2zm7.97 0c0 1.1-.9 2-2 2s-2-.9-2-2 .9-2 2-2 2 .9 2 2zm7.98 0c0 1.1-.9 2-2 2s-2-.9-2-2 .9-2 2-2 2 .9 2 2zm7.97 0c0 1.1-.9 2-2 2s-2-.9-2-2 .9-2 2-2 2 .9 2 2zm7.97 0c0 1.1-.9 2-2 2s-2-.9-2-2 .9-2 2-2 2 .9 2 2zm7.98 0c0 1.1-.9 2-2 2s-2-.9-2-2 .9-2 2-2 2 .9 2 2zm7.97 0c0 1.1-.9 2-2 2s-2-.9-2-2 .9-2 2-2 2 .9 2 2zm7.97 0c0 1.1-.9 2-2 2s-2-.9-2-2 .9-2 2-2 2 .9 2 2zm7.97 0c0 1.1-.9 2-2 2s-2-.9-2-2 .9-2 2-2 2 .9 2 2zm7.97 0c0 1.1-.9 2-2 2s-2-.9-2-2 .9-2 2-2 2 .9 2 2zm7.97 0c0 1.1-.88 2-2 2-1.1 0-2-.9-2-2s.9-2 2-2c1.12 0 2 .9 2 2zm8 0c0 1.1-.9 2-2 2-1.12 0-2-.9-2-2s.88-2 2-2c1.1 0 2 .9 2 2zm7.96 0c0 1.1-.9 2-2 2s-2-.9-2-2 .9-2 2-2 2 .9 2 2zm7.97 0c0 1.1-.9 2-2 2s-2-.9-2-2 .9-2 2-2 2 .9 2 2zm7.98 0c0 1.1-.9 2-2 2s-2-.9-2-2 .9-2 2-2 2 .9 2 2zm7.98 0c0 1.1-.9 2-2 2s-2-.9-2-2 .9-2 2-2 2 .9 2 2zm7.97 0c0 1.1-.9 2-2 2s-2-.9-2-2 .9-2 2-2 2 .9 2 2zm7.98 0c0 1.1-.9 2-2 2s-2-.9-2-2 .9-2 2-2 2 .9 2 2zm7.97 0c0 1.1-.9 2-2 2s-2-.9-2-2 .9-2 2-2 2 .9 2 2zm7.97 0c0 1.1-.9 2-2 2s-2-.9-2-2 .9-2 2-2 2 .9 2 2zm7.98 0c0 1.1-.9 2-2 2s-2-.9-2-2 .9-2 2-2 2 .9 2 2zm7.97 0c0 1.1-.9 2-2 2s-2-.9-2-2 .9-2 2-2 2 .9 2 2zm7.97 0c0 1.1-.9 2-2 2s-2-.9-2-2 .9-2 2-2 2 .9 2 2zm7.97 0c0 1.1-.9 2-2 2s-2-.9-2-2 .9-2 2-2 2 .9 2 2zm7.97 0c0 1.1-.9 2-2 2s-2-.9-2-2 .9-2 2-2 2 .9 2 2zm7.97 0c0 1.1-.88 2-2 2-1.1 0-2-.9-2-2s.9-2 2-2c1.12 0 2 .9 2 2zm8 0c0 1.1-.9 2-2 2-1.12 0-2-.9-2-2s.88-2 2-2c1.1 0 2 .9 2 2zm7.96 0c0 1.1-.9 2-2 2s-2-.9-2-2 .9-2 2-2 2 .9 2 2zm7.97 0c0 1.1-.9 2-2 2s-2-.9-2-2 .9-2 2-2 2 .9 2 2zm7.98 0c0 1.1-.9 2-2 2s-2-.9-2-2 .9-2 2-2 2 .9 2 2zm7.98 0c0 1.1-.9 2-2 2s-2-.9-2-2 .9-2 2-2 2 .9 2 2zm7.97 0c0 1.1-.9 2-2 2s-2-.9-2-2 .9-2 2-2 2 .9 2 2zm7.98 0c0 1.1-.9 2-2 2s-2-.9-2-2 .9-2 2-2 2 .9 2 2z" fill="#439e9f"/><path d="M3720 1288.5a6 6 0 0 1 6-6h228a6 6 0 0 1 6 6v48a6 6 0 0 1-6 6h-228a6 6 0 0 1-6-6z" fill="none"/><g><use xlink:href="#y" transform="matrix(1,0,0,1,3720,1282.5) translate(128.623046875 36.8359375)"/><use xlink:href="#z" transform="matrix(1,0,0,1,3720,1282.5) translate(175.2734375 36.8359375)"/></g><path d="M3720 1228.5a6 6 0 0 1 6-6h228a6 6 0 0 1 6 6v48a6 6 0 0 1-6 6h-228a6 6 0 0 1-6-6z" fill="none"/><g><use xlink:href="#A" transform="matrix(1,0,0,1,3720,1222.5) translate(74.51171875 36.8359375)"/><use xlink:href="#B" transform="matrix(1,0,0,1,3720,1222.5) translate(167.24609375 36.8359375)"/></g><defs><filter id="a" filterUnits="objectBoundingBox" x="-.03" y="-.03" width="1.06" height="1.17"><feOffset result="offOut" in="SourceAlpha" dy="6"/><feGaussianBlur result="blurOut" in="offOut" stdDeviation="5"/><feColorMatrix result="colorOut" in="blurOut" values="0 0 0 0 0 0 0 0 0 0 0 0 0 0 0 0 0 0 0.5019607843137255 0"/><feBlend in="SourceGraphic" in2="colorOut"/></filter><path d="M1288 0h-193v-673H361V0H169v-1456h192v626h734v-626h193V0" id="C"/><path d="M1175-1298H707V0H516v-1298H49v-158h1126v158" id="D"/><path d="M1216-1011c-1 297-202 441-512 441H361V0H169v-1456h537c297-6 510 164 510 445zm-192 2c1-178-126-288-307-289H361v571h345c196 1 318-92 318-282" id="E"/><g id="b"><use transform="matrix(0.008680555555555556,0,0,0.008680555555555556,0,0)" xlink:href="#C"/><use transform="matrix(0.008680555555555556,0,0,0.008680555555555556,12.421875000000002,0)" xlink:href="#D"/><use transform="matrix(0.008680555555555556,0,0,0.008680555555555556,23.16840277777778,0)" xlink:href="#D"/><use transform="matrix(0.008680555555555556,0,0,0.008680555555555556,33.77604166666667,0)" xlink:href="#E"/></g><path d="M277-555c0 244 77 420 297 424 127 2 249-93 255-210h175C980-127 805 20 574 20 258 20 81-222 92-562c11-319 164-533 481-540 237-5 426 165 431 392H829c-7-133-115-242-256-240-209 4-296 166-296 395" id="F"/><path d="M584 20C278 26 81-227 91-551c10-320 175-545 491-551 308-5 503 247 494 573-9 322-175 543-492 549zm-2-970c-208 0-305 185-305 421 0 216 106 398 307 398 211 0 307-186 307-420 0-214-109-399-309-399" id="G"/><path d="M589-945c-131 0-219 81-264 174V0H140v-1082h175l6 136c83-104 191-156 324-156 229 0 346 129 346 387V0H806v-716c-2-153-65-229-217-229" id="H"/><path d="M599-131c141 0 220-65 285-146l113 88C906-50 770 20 589 20 281 21 93-214 93-545c0-223 93-397 233-485 74-48 154-72 240-72 300 2 449 218 445 537v77H278c0 197 129 357 321 357zm227-509c-3-180-88-310-260-310-170 0-264 140-282 310h542" id="I"/><path d="M456 20C285 20 205-92 206-268v-671H9v-143h197v-262h185v262h202v143H391v671c-9 125 92 149 207 118V0c-49 13-96 20-142 20" id="J"/><path d="M341 0H156v-1082h185V0zm-91-1264c-68 0-108-42-109-105 0-62 41-107 109-107s110 44 110 107-42 105-110 105" id="K"/><path d="M538-131c121 0 232-49 232-156 0-50-20-88-56-117-73-60-334-92-420-143-92-55-162-110-162-238 0-190 192-317 400-317 223 0 414 129 413 338H759c0-108-110-186-227-186-119 0-215 53-215 159 0 45 18 78 53 101 76 52 331 90 416 139 98 57 169 115 169 251C955-92 760 20 538 20c-176 0-314-68-386-174-38-55-57-115-57-179h185c6 129 116 202 258 202" id="L"/><g id="c"><use transform="matrix(0.008680555555555556,0,0,0.008680555555555556,0,0)" xlink:href="#F"/><use transform="matrix(0.008680555555555556,0,0,0.008680555555555556,9.305555555555555,0)" xlink:href="#G"/><use transform="matrix(0.008680555555555556,0,0,0.008680555555555556,19.444444444444443,0)" xlink:href="#H"/><use transform="matrix(0.008680555555555556,0,0,0.008680555555555556,29.253472222222218,0)" xlink:href="#H"/><use transform="matrix(0.008680555555555556,0,0,0.008680555555555556,39.0625,0)" xlink:href="#I"/><use transform="matrix(0.008680555555555556,0,0,0.008680555555555556,48.48090277777778,0)" xlink:href="#F"/><use transform="matrix(0.008680555555555556,0,0,0.008680555555555556,57.786458333333336,0)" xlink:href="#J"/><use transform="matrix(0.008680555555555556,0,0,0.008680555555555556,63.59375,0)" xlink:href="#K"/><use transform="matrix(0.008680555555555556,0,0,0.008680555555555556,67.90798611111111,0)" xlink:href="#G"/><use transform="matrix(0.008680555555555556,0,0,0.008680555555555556,78.046875,0)" xlink:href="#H"/><use transform="matrix(0.008680555555555556,0,0,0.008680555555555556,87.85590277777777,0)" xlink:href="#L"/></g><path d="M521 20C240 20 96-239 96-550c0-303 147-552 427-552 132 0 235 47 309 140l9-120h169V-26c4 277-183 454-459 452-165-1-334-81-400-187l96-111c79 98 176 147 291 147 180 1 288-109 286-290v-93C750-23 649 20 521 20zm48-965c-209 0-287 178-287 416 0 217 86 392 285 392 117 0 202-53 257-159v-494c-57-103-142-155-255-155" id="M"/><path d="M663-916c-163-27-288 18-338 148V0H140v-1082h180l3 125c61-97 147-145 258-145 36 0 63 5 82 14v172" id="N"/><g id="d"><use transform="matrix(0.008680555555555556,0,0,0.008680555555555556,0,0)" xlink:href="#E"/><use transform="matrix(0.008680555555555556,0,0,0.008680555555555556,11.102430555555557,0)" xlink:href="#G"/><use transform="matrix(0.008680555555555556,0,0,0.008680555555555556,21.241319444444446,0)" xlink:href="#L"/><use transform="matrix(0.008680555555555556,0,0,0.008680555555555556,30.40798611111111,0)" xlink:href="#J"/><use transform="matrix(0.008680555555555556,0,0,0.008680555555555556,36.21527777777778,0)" xlink:href="#M"/><use transform="matrix(0.008680555555555556,0,0,0.008680555555555556,46.189236111111114,0)" xlink:href="#N"/><use transform="matrix(0.008680555555555556,0,0,0.008680555555555556,52.03993055555556,0)" xlink:href="#I"/><use transform="matrix(0.008680555555555556,0,0,0.008680555555555556,61.458333333333336,0)" xlink:href="#L"/></g><path fill="#333" d="M529-185c94 0 168-33 168-114 0-35-18-63-53-83s-91-39-168-55C219-491 90-600 90-765c0-208 203-337 432-337 246 0 451 124 453 349H686c-2-91-62-143-165-143-86 0-151 41-153 117 0 32 16 57 46 77 63 43 257 69 335 100 151 60 229 153 229 291C978-13 554 93 282-28 162-81 60-190 56-344h274c5 106 86 159 199 159" id="O"/><path fill="#333" d="M1031-175C952-60 797 20 609 20 287 20 60-206 72-543c12-330 180-559 505-559 309 0 482 214 477 537v118H365c15 134 115 234 263 234 111 0 198-40 261-121zM770-644c5-139-62-226-194-224-130 1-191 97-208 224h402" id="P"/><path fill="#333" d="M719-811c-143-24-279 1-319 103V0H111v-1082h273l8 129c74-124 180-175 331-136" id="Q"/><path fill="#333" d="M516-353l201-729h302L654 0H378L13-1082h302" id="R"/><g id="e"><use transform="matrix(0.008680555555555556,0,0,0.008680555555555556,0,0)" xlink:href="#O"/><use transform="matrix(0.008680555555555556,0,0,0.008680555555555556,9.140625,0)" xlink:href="#P"/><use transform="matrix(0.008680555555555556,0,0,0.008680555555555556,18.75,0)" xlink:href="#Q"/><use transform="matrix(0.008680555555555556,0,0,0.008680555555555556,25.390625,0)" xlink:href="#R"/><use transform="matrix(0.008680555555555556,0,0,0.008680555555555556,34.26215277777778,0)" xlink:href="#P"/><use transform="matrix(0.008680555555555556,0,0,0.008680555555555556,43.87152777777778,0)" xlink:href="#Q"/></g><path d="M1245-974c0 302-233 466-552 461H430V0H130v-1456h568c323 5 547 167 547 482zm-303 2c1-143-93-241-237-241H430v457h268c151 1 244-71 244-216" id="S"/><path d="M1006-631H430v390h676V0H130v-1456h974v243H430v347h576v235" id="T"/><path d="M522-1456L896-400l372-1056h394V0h-301c-7-379 15-728 30-1085L998 0H792L400-1084c15 357 37 705 30 1084H130v-1456h392" id="U"/><g id="f"><use transform="matrix(0.009765625,0,0,0.009765625,0,0)" xlink:href="#S"/><use transform="matrix(0.009765625,0,0,0.009765625,12.900390625,0)" xlink:href="#T"/><use transform="matrix(0.009765625,0,0,0.009765625,24.150390625,0)" xlink:href="#U"/></g><path d="M952-300H426L326 0H7l542-1456h278L1372 0h-319zM507-543h364l-183-545" id="V"/><path d="M505 20C221 18 69-239 69-549c0-302 153-553 438-553 119 0 211 41 277 122l12-102h262V-36c-8 305-208 458-520 462-160 1-335-76-403-170L263 80c72 81 159 121 262 121 172 1 260-107 243-294C701-18 614 20 505 20zm76-887c-165 0-223 147-223 339 0 172 66 314 221 314 88 0 151-33 189-99v-455c-39-66-101-99-187-99" id="W"/><path d="M1031-175C952-60 797 20 609 20 287 20 60-206 72-543c12-330 180-559 505-559 309 0 482 214 477 537v118H365c15 134 115 234 263 234 111 0 198-40 261-121zM770-644c5-139-62-226-194-224-130 1-191 97-208 224h402" id="X"/><path d="M750-692c-1-124-48-174-173-175-81 0-142 35-183 104V0H105v-1082h272l9 125c77-97 181-145 311-145 244 0 342 151 342 403V0H750v-692" id="Y"/><path d="M457-330c2 83 25 111 111 112 32 0 60-2 85-7V-6c-57 17-115 26-175 26-203 0-310-102-310-307v-583H10v-212h158v-266h289v266h185v212H457v540" id="Z"/><g id="g"><use transform="matrix(0.009765625,0,0,0.009765625,0,0)" xlink:href="#V"/><use transform="matrix(0.009765625,0,0,0.009765625,13.45703125,0)" xlink:href="#W"/><use transform="matrix(0.009765625,0,0,0.009765625,24.873046875,0)" xlink:href="#X"/><use transform="matrix(0.009765625,0,0,0.009765625,35.68359375,0)" xlink:href="#Y"/><use transform="matrix(0.009765625,0,0,0.009765625,46.884765625,0)" xlink:href="#Z"/></g><path fill="#333" d="M741-689c-2-124-40-177-163-178-82 0-141 34-178 102V0H111v-1082h271l9 121c77-94 180-141 311-141 139 0 235 55 287 165 76-110 184-165 325-165 249 0 348 151 348 411V0h-290v-690c-2-123-39-176-163-177-87 0-147 41-180 124l1 743H741v-689" id="aa"/><path fill="#333" d="M579 20C257 20 58-214 66-551c8-331 182-551 511-551 324 0 514 231 514 572 0 319-198 550-512 550zm-2-888c-169 0-222 141-222 338 0 181 61 317 224 317 170 0 223-137 223-338 0-178-64-317-225-317" id="ab"/><path fill="#333" d="M750-692c-1-124-48-174-173-175-81 0-142 35-183 104V0H105v-1082h272l9 125c77-97 181-145 311-145 244 0 342 151 342 403V0H750v-692" id="ac"/><path fill="#333" d="M416 0H126v-1082h290V0zM271-1212c-92 0-162-61-162-150s68-149 162-149c93 0 162 60 162 149s-70 150-162 150" id="ad"/><path fill="#333" d="M457-330c2 83 25 111 111 112 32 0 60-2 85-7V-6c-57 17-115 26-175 26-203 0-310-102-310-307v-583H10v-212h158v-266h289v266h185v212H457v540" id="ae"/><path fill="#333" d="M505 20C221 18 69-239 69-549c0-302 153-553 438-553 119 0 211 41 277 122l12-102h262V-36c-8 305-208 458-520 462-160 1-335-76-403-170L263 80c72 81 159 121 262 121 172 1 260-107 243-294C701-18 614 20 505 20zm76-887c-165 0-223 147-223 339 0 172 66 314 221 314 88 0 151-33 189-99v-455c-39-66-101-99-187-99" id="af"/><g id="h"><use transform="matrix(0.008680555555555556,0,0,0.008680555555555556,0,0)" xlink:href="#aa"/><use transform="matrix(0.008680555555555556,0,0,0.008680555555555556,15.390625,0)" xlink:href="#ab"/><use transform="matrix(0.008680555555555556,0,0,0.008680555555555556,25.442708333333336,0)" xlink:href="#ac"/><use transform="matrix(0.008680555555555556,0,0,0.008680555555555556,35.39930555555556,0)" xlink:href="#ad"/><use transform="matrix(0.008680555555555556,0,0,0.008680555555555556,40.11284722222222,0)" xlink:href="#ae"/><use transform="matrix(0.008680555555555556,0,0,0.008680555555555556,45.859375,0)" xlink:href="#ab"/><use transform="matrix(0.008680555555555556,0,0,0.008680555555555556,55.911458333333336,0)" xlink:href="#Q"/><use transform="matrix(0.008680555555555556,0,0,0.008680555555555556,62.395833333333336,0)" xlink:href="#ad"/><use transform="matrix(0.008680555555555556,0,0,0.008680555555555556,67.109375,0)" xlink:href="#ac"/><use transform="matrix(0.008680555555555556,0,0,0.008680555555555556,77.06597222222223,0)" xlink:href="#af"/></g><path fill="#fff" d="M1245-974c0 302-233 466-552 461H430V0H130v-1456h568c323 5 547 167 547 482zm-303 2c1-143-93-241-237-241H430v457h268c151 1 244-71 244-216" id="ag"/><path fill="#fff" d="M1006-631H430v390h676V0H130v-1456h974v243H430v347h576v235" id="ah"/><path fill="#fff" d="M522-1456L896-400l372-1056h394V0h-301c-7-379 15-728 30-1085L998 0H792L400-1084c15 357 37 705 30 1084H130v-1456h392" id="ai"/><g id="i"><use transform="matrix(0.009765625,0,0,0.009765625,0,0)" xlink:href="#ag"/><use transform="matrix(0.009765625,0,0,0.009765625,12.900390625,0)" xlink:href="#ah"/><use transform="matrix(0.009765625,0,0,0.009765625,24.150390625,0)" xlink:href="#ai"/></g><path fill="#fff" d="M663-1102c295 0 423 246 423 571 0 313-131 551-421 551-117 0-211-45-281-135L371 0H111v-1536h289v551c67-78 154-117 263-117zm-71 889c164 0 209-139 205-339-3-189-44-315-207-315-92 0-155 38-190 113v427c35 76 99 114 192 114" id="aj"/><path fill="#fff" d="M552-1102c254-4 435 134 435 383v469c1 103 15 180 43 233V0H738c-13-26-23-58-29-97C639-19 548 20 436 20 238 20 64-113 68-304c5-258 212-357 496-357h133c11-137-29-227-160-227-90 0-156 45-156 131H92c15-231 213-342 460-345zM357-325c0 76 61 124 142 124 88 0 168-45 198-105v-186H589c-152 2-232 51-232 167" id="ak"/><path fill="#fff" d="M355-556c-2 203 30 338 206 343 102 3 181-63 182-161h271C1001-128 821 17 566 20 242 24 66-212 66-554c0-320 184-548 498-548 262 0 451 167 450 423H743c-1-108-75-193-184-189-162 6-202 123-204 312" id="al"/><path fill="#fff" d="M504-434L400-330V0H111v-1536h289v851c106-137 222-264 333-397h347L689-631 1114 0H782" id="am"/><path fill="#fff" d="M1031-175C952-60 797 20 609 20 287 20 60-206 72-543c12-330 180-559 505-559 309 0 482 214 477 537v118H365c15 134 115 234 263 234 111 0 198-40 261-121zM770-644c5-139-62-226-194-224-130 1-191 97-208 224h402" id="an"/><path fill="#fff" d="M750-692c-1-124-48-174-173-175-81 0-142 35-183 104V0H105v-1082h272l9 125c77-97 181-145 311-145 244 0 342 151 342 403V0H750v-692" id="ao"/><path fill="#fff" d="M488 20C204 20 66-234 66-549c0-305 140-551 424-553 105 0 192 39 261 118v-552h290V0H780l-14-115C694-25 601 20 488 20zM355-528c0 176 51 314 207 314 89 0 152-38 189-113v-427c-36-75-98-113-187-113-139 0-209 113-209 339" id="ap"/><g id="j"><use transform="matrix(0.009765625,0,0,0.009765625,0,0)" xlink:href="#aj"/><use transform="matrix(0.009765625,0,0,0.009765625,11.259765625,0)" xlink:href="#ak"/><use transform="matrix(0.009765625,0,0,0.009765625,21.982421875,0)" xlink:href="#al"/><use transform="matrix(0.009765625,0,0,0.009765625,32.412109375,0)" xlink:href="#am"/><use transform="matrix(0.009765625,0,0,0.009765625,42.900390625,0)" xlink:href="#an"/><use transform="matrix(0.009765625,0,0,0.009765625,53.7109375,0)" xlink:href="#ao"/><use transform="matrix(0.009765625,0,0,0.009765625,64.912109375,0)" xlink:href="#ap"/></g><path fill="#28495a" d="M658-217c127 0 227-49 227-165 0-57-21-98-60-130-79-64-370-142-463-196-162-95-248-210-248-361 0-280 246-403 537-407 213-3 383 84 467 216 45 69 68 147 68 234H886c0-139-96-211-240-211-129 0-232 55-232 169 0 47 24 87 72 119s117 62 210 90c171 51 295 115 373 191s117 171 117 284c-2 272-237 411-528 404C331 13 78-135 69-458h301c0 161 96 241 288 241" id="aq"/><path fill="#28495a" d="M1031-175C952-60 797 20 609 20 287 20 60-206 72-543c12-330 180-559 505-559 309 0 482 214 477 537v118H365c15 134 115 234 263 234 111 0 198-40 261-121zM770-644c5-139-62-226-194-224-130 1-191 97-208 224h402" id="ar"/><path fill="#28495a" d="M719-811c-143-24-279 1-319 103V0H111v-1082h273l8 129c74-124 180-175 331-136" id="as"/><path fill="#28495a" d="M516-353l201-729h302L654 0H378L13-1082h302" id="at"/><g id="k"><use transform="matrix(0.009765625,0,0,0.009765625,0,0)" xlink:href="#aq"/><use transform="matrix(0.009765625,0,0,0.009765625,12.294921875,0)" xlink:href="#ar"/><use transform="matrix(0.009765625,0,0,0.009765625,23.10546875,0)" xlink:href="#as"/><use transform="matrix(0.009765625,0,0,0.009765625,30.576171875,0)" xlink:href="#at"/><use transform="matrix(0.009765625,0,0,0.009765625,40.556640625,0)" xlink:href="#ar"/><use transform="matrix(0.009765625,0,0,0.009765625,51.3671875,0)" xlink:href="#as"/></g><path fill="#28495a" d="M952-300H426L326 0H7l542-1456h278L1372 0h-319zM507-543h364l-183-545" id="au"/><use transform="matrix(0.009765625,0,0,0.009765625,0,0)" xlink:href="#au" id="l"/><path fill="#28495a" d="M1212-428C1211-131 1004 0 696 0H130v-1456h510c318-1 539 108 539 399 0 155-89 264-208 308 141 33 242 151 241 321zM687-241c132 2 225-65 225-190 0-133-69-203-207-203H430v393h257zm192-786c0-145-86-186-239-186H430v367h222c151-3 227-63 227-181" id="av"/><use transform="matrix(0.009765625,0,0,0.009765625,0,0)" xlink:href="#av" id="m"/><path fill="#28495a" d="M687-225c189-1 272-84 286-260h300c-19 311-251 505-586 505C296 20 86-277 86-686c0-466 174-782 605-790 340-6 557 198 584 514H975c-15-183-92-268-284-268-100 0-173 38-225 108-63 84-76 264-76 443 0 157 24 272 72 345s122 109 225 109" id="aw"/><use transform="matrix(0.009765625,0,0,0.009765625,0,0)" xlink:href="#aw" id="n"/><path fill="#fff" d="M1315 0h-300v-624H430V0H130v-1456h300v590h585v-590h300V0" id="ax"/><path fill="#fff" d="M1226-1213H780V0H480v-1213H40v-243h1186v243" id="ay"/><g id="o"><use transform="matrix(0.010850694444444444,0,0,0.010850694444444444,0,0)" xlink:href="#ax"/><use transform="matrix(0.010850694444444444,0,0,0.010850694444444444,15.386284722222221,0)" xlink:href="#ay"/><use transform="matrix(0.010850694444444444,0,0,0.010850694444444444,29.307725694444443,0)" xlink:href="#ay"/><use transform="matrix(0.010850694444444444,0,0,0.010850694444444444,43.05555555555556,0)" xlink:href="#ag"/></g><path fill="#fff" d="M416 0H126v-1536h290V0" id="az"/><path fill="#fff" d="M416 0H126v-1082h290V0zM271-1212c-92 0-162-61-162-150s68-149 162-149c93 0 162 60 162 149s-70 150-162 150" id="aA"/><path fill="#fff" d="M457-330c2 83 25 111 111 112 32 0 60-2 85-7V-6c-57 17-115 26-175 26-203 0-310-102-310-307v-583H10v-212h158v-266h289v266h185v212H457v540" id="aB"/><path fill="#fff" d="M529-185c94 0 168-33 168-114 0-35-18-63-53-83s-91-39-168-55C219-491 90-600 90-765c0-208 203-337 432-337 246 0 451 124 453 349H686c-2-91-62-143-165-143-86 0-151 41-153 117 0 32 16 57 46 77 63 43 257 69 335 100 151 60 229 153 229 291C978-13 554 93 282-28 162-81 60-190 56-344h274c5 106 86 159 199 159" id="aC"/><g id="p"><use transform="matrix(0.010850694444444444,0,0,0.010850694444444444,0,0)" xlink:href="#al"/><use transform="matrix(0.010850694444444444,0,0,0.010850694444444444,11.588541666666666,0)" xlink:href="#az"/><use transform="matrix(0.010850694444444444,0,0,0.010850694444444444,17.48046875,0)" xlink:href="#aA"/><use transform="matrix(0.010850694444444444,0,0,0.010850694444444444,23.372395833333332,0)" xlink:href="#an"/><use transform="matrix(0.010850694444444444,0,0,0.010850694444444444,35.38411458333333,0)" xlink:href="#ao"/><use transform="matrix(0.010850694444444444,0,0,0.010850694444444444,47.82986111111111,0)" xlink:href="#aB"/><use transform="matrix(0.010850694444444444,0,0,0.010850694444444444,55.338541666666664,0)" xlink:href="#aC"/></g><path d="M529-185c94 0 168-33 168-114 0-35-18-63-53-83s-91-39-168-55C219-491 90-600 90-765c0-208 203-337 432-337 246 0 451 124 453 349H686c-2-91-62-143-165-143-86 0-151 41-153 117 0 32 16 57 46 77 63 43 257 69 335 100 151 60 229 153 229 291C978-13 554 93 282-28 162-81 60-190 56-344h274c5 106 86 159 199 159" id="aD"/><g id="q"><use transform="matrix(0.009765625,0,0,0.009765625,0,0)" xlink:href="#V"/><use transform="matrix(0.009765625,0,0,0.009765625,13.45703125,0)" xlink:href="#W"/><use transform="matrix(0.009765625,0,0,0.009765625,24.873046875,0)" xlink:href="#X"/><use transform="matrix(0.009765625,0,0,0.009765625,35.68359375,0)" xlink:href="#Y"/><use transform="matrix(0.009765625,0,0,0.009765625,46.884765625,0)" xlink:href="#Z"/><use transform="matrix(0.009765625,0,0,0.009765625,53.642578125,0)" xlink:href="#aD"/></g><g id="r"><use transform="matrix(0.009765625,0,0,0.009765625,0,0)" xlink:href="#ag"/><use transform="matrix(0.009765625,0,0,0.009765625,12.900390625,0)" xlink:href="#ah"/><use transform="matrix(0.009765625,0,0,0.009765625,24.150390625,0)" xlink:href="#ai"/></g><path fill="#fff" d="M1264-420l196-1036h299L1436 0h-302L897-974 660 0H358L35-1456h299L531-422l240-1034h254" id="aE"/><g id="s"><use transform="matrix(0.009765625,0,0,0.009765625,0,0)" xlink:href="#aE"/><use transform="matrix(0.009765625,0,0,0.009765625,17.1875,0)" xlink:href="#an"/><use transform="matrix(0.009765625,0,0,0.009765625,27.998046875,0)" xlink:href="#aj"/></g><path fill="#fff" d="M952-300H426L326 0H7l542-1456h278L1372 0h-319zM507-543h364l-183-545" id="aF"/><path fill="#fff" d="M663-1102c295 0 422 250 422 571 0 300-141 549-420 551-109 0-198-38-265-114v510H111v-1498h268l10 106c70-84 161-126 274-126zm133 550c0-175-53-315-209-315-91 0-153 35-187 104v443c35 71 98 107 189 107 138 0 207-113 207-339" id="aG"/><path fill="#fff" d="M579 20C257 20 58-214 66-551c8-331 182-551 511-551 324 0 514 231 514 572 0 319-198 550-512 550zm-2-888c-169 0-222 141-222 338 0 181 61 317 224 317 170 0 223-137 223-338 0-178-64-317-225-317" id="aH"/><g id="t"><use transform="matrix(0.009765625,0,0,0.009765625,0,0)" xlink:href="#aF"/><use transform="matrix(0.009765625,0,0,0.009765625,13.45703125,0)" xlink:href="#aG"/><use transform="matrix(0.009765625,0,0,0.009765625,24.716796875,0)" xlink:href="#aG"/><use transform="matrix(0.009765625,0,0,0.009765625,35.9765625,0)" xlink:href="#az"/><use transform="matrix(0.009765625,0,0,0.009765625,41.279296875,0)" xlink:href="#aA"/><use transform="matrix(0.009765625,0,0,0.009765625,46.58203125,0)" xlink:href="#al"/><use transform="matrix(0.009765625,0,0,0.009765625,57.01171875,0)" xlink:href="#ak"/><use transform="matrix(0.009765625,0,0,0.009765625,67.734375,0)" xlink:href="#aB"/><use transform="matrix(0.009765625,0,0,0.009765625,74.4921875,0)" xlink:href="#aA"/><use transform="matrix(0.009765625,0,0,0.009765625,79.794921875,0)" xlink:href="#aH"/><use transform="matrix(0.009765625,0,0,0.009765625,91.103515625,0)" xlink:href="#ao"/></g><path fill="#28495a" d="M651-954l273-502h345L845-734 1280 0H931L651-510 371 0H22l435-734-424-722h345" id="aI"/><use transform="matrix(0.009765625,0,0,0.009765625,0,0)" xlink:href="#aI" id="u"/><path fill="#333" d="M572 22C302 22 117-98 78-306l279-48c29 105 101 156 224 156 114 0 185-48 185-115 0-118-228-130-337-155-215-49-322-150-322-317 0-215 187-347 470-347 265 0 424 116 466 298l-266 47c-24-76-87-130-196-130-98 0-174 46-174 113 0 56 38 95 144 117l201 40c216 44 320 143 320 302 0 220-207 367-500 367" id="aJ"/><path fill="#333" d="M633 22C291 22 81-200 81-553c0-345 210-579 537-579 292 0 525 185 525 567v84H378c7 183 109 277 260 277 105 0 184-46 216-132l272 51C1071-99 893 22 633 22zM380-669h474c-15-146-94-237-233-237-143 0-229 99-241 237" id="aK"/><path fill="#333" d="M128 0v-1118h290v195h12c54-169 184-238 367-200v268c-27-8-86-15-130-15-138 0-239 95-239 234V0H128" id="aL"/><path fill="#333" d="M443 0L31-1118h319c90 293 199 572 268 885 66-313 175-593 264-885h315L784 0H443" id="aM"/><g id="v"><use transform="matrix(0.008680555555555556,0,0,0.008680555555555556,0,0)" xlink:href="#aJ"/><use transform="matrix(0.008680555555555556,0,0,0.008680555555555556,9.956597222222223,0)" xlink:href="#aK"/><use transform="matrix(0.008680555555555556,0,0,0.008680555555555556,20.546875,0)" xlink:href="#aL"/><use transform="matrix(0.008680555555555556,0,0,0.008680555555555556,28.06423611111111,0)" xlink:href="#aM"/><use transform="matrix(0.008680555555555556,0,0,0.008680555555555556,38.40277777777778,0)" xlink:href="#aK"/><use transform="matrix(0.008680555555555556,0,0,0.008680555555555556,48.99305555555556,0)" xlink:href="#aL"/></g><path fill="#28495a" d="M632-800l303-656h328L785-528V0H480v-528L2-1456h329" id="aN"/><use transform="matrix(0.009765625,0,0,0.009765625,0,0)" xlink:href="#aN" id="w"/><path fill="#28495a" d="M448-241h734V0H73v-176l720-1037H74v-243h1092v172" id="aO"/><use transform="matrix(0.009765625,0,0,0.009765625,0,0)" xlink:href="#aO" id="x"/><path fill="#439e9f" d="M1245-974c0 302-233 466-552 461H430V0H130v-1456h568c323 5 547 167 547 482zm-303 2c1-143-93-241-237-241H430v457h268c151 1 244-71 244-216" id="aP"/><path fill="#439e9f" d="M1006-631H430v390h676V0H130v-1456h974v243H430v347h576v235" id="aQ"/><path fill="#439e9f" d="M522-1456L896-400l372-1056h394V0h-301c-7-379 15-728 30-1085L998 0H792L400-1084c15 357 37 705 30 1084H130v-1456h392" id="aR"/><g id="y"><use transform="matrix(0.009765625,0,0,0.009765625,0,0)" xlink:href="#aP"/><use transform="matrix(0.009765625,0,0,0.009765625,12.900390625,0)" xlink:href="#aQ"/><use transform="matrix(0.009765625,0,0,0.009765625,24.150390625,0)" xlink:href="#aR"/></g><path fill="#439e9f" d="M687-225c189-1 272-84 286-260h300c-19 311-251 505-586 505C296 20 86-277 86-686c0-466 174-782 605-790 340-6 557 198 584 514H975c-15-183-92-268-284-268-100 0-173 38-225 108-63 84-76 264-76 443 0 157 24 272 72 345s122 109 225 109" id="aS"/><path fill="#439e9f" d="M416 0H126v-1536h290V0" id="aT"/><path fill="#439e9f" d="M463 20c-241-1-359-147-359-393v-709h289v699c0 113 51 169 154 169 98 0 165-34 202-102v-766h290V0H767l-8-110C688-23 589 20 463 20" id="aU"/><path fill="#439e9f" d="M529-185c94 0 168-33 168-114 0-35-18-63-53-83s-91-39-168-55C219-491 90-600 90-765c0-208 203-337 432-337 246 0 451 124 453 349H686c-2-91-62-143-165-143-86 0-151 41-153 117 0 32 16 57 46 77 63 43 257 69 335 100 151 60 229 153 229 291C978-13 554 93 282-28 162-81 60-190 56-344h274c5 106 86 159 199 159" id="aV"/><path fill="#439e9f" d="M457-330c2 83 25 111 111 112 32 0 60-2 85-7V-6c-57 17-115 26-175 26-203 0-310-102-310-307v-583H10v-212h158v-266h289v266h185v212H457v540" id="aW"/><path fill="#439e9f" d="M1031-175C952-60 797 20 609 20 287 20 60-206 72-543c12-330 180-559 505-559 309 0 482 214 477 537v118H365c15 134 115 234 263 234 111 0 198-40 261-121zM770-644c5-139-62-226-194-224-130 1-191 97-208 224h402" id="aX"/><path fill="#439e9f" d="M719-811c-143-24-279 1-319 103V0H111v-1082h273l8 129c74-124 180-175 331-136" id="aY"/><g id="z"><use transform="matrix(0.009765625,0,0,0.009765625,0,0)" xlink:href="#aS"/><use transform="matrix(0.009765625,0,0,0.009765625,13.0859375,0)" xlink:href="#aT"/><use transform="matrix(0.009765625,0,0,0.009765625,18.388671875,0)" xlink:href="#aU"/><use transform="matrix(0.009765625,0,0,0.009765625,29.580078125,0)" xlink:href="#aV"/><use transform="matrix(0.009765625,0,0,0.009765625,39.86328125,0)" xlink:href="#aW"/><use transform="matrix(0.009765625,0,0,0.009765625,46.62109375,0)" xlink:href="#aX"/><use transform="matrix(0.009765625,0,0,0.009765625,57.431640625,0)" xlink:href="#aY"/></g><path fill="#439e9f" d="M579 20C257 20 58-214 66-551c8-331 182-551 511-551 324 0 514 231 514 572 0 319-198 550-512 550zm-2-888c-169 0-222 141-222 338 0 181 61 317 224 317 170 0 223-137 223-338 0-178-64-317-225-317" id="aZ"/><path fill="#439e9f" d="M741-689c-2-124-40-177-163-178-82 0-141 34-178 102V0H111v-1082h271l9 121c77-94 180-141 311-141 139 0 235 55 287 165 76-110 184-165 325-165 249 0 348 151 348 411V0h-290v-690c-2-123-39-176-163-177-87 0-147 41-180 124l1 743H741v-689" id="ba"/><g id="A"><use transform="matrix(0.009765625,0,0,0.009765625,0,0)" xlink:href="#aS"/><use transform="matrix(0.009765625,0,0,0.009765625,13.0859375,0)" xlink:href="#aU"/><use transform="matrix(0.009765625,0,0,0.009765625,24.27734375,0)" xlink:href="#aV"/><use transform="matrix(0.009765625,0,0,0.009765625,34.560546875,0)" xlink:href="#aW"/><use transform="matrix(0.009765625,0,0,0.009765625,41.025390625,0)" xlink:href="#aZ"/><use transform="matrix(0.009765625,0,0,0.009765625,52.333984375,0)" xlink:href="#ba"/><use transform="matrix(0.009765625,0,0,0.009765625,69.6484375,0)" xlink:href="#aX"/><use transform="matrix(0.009765625,0,0,0.009765625,80.458984375,0)" xlink:href="#aY"/></g><path fill="#439e9f" d="M750-692c-1-124-48-174-173-175-81 0-142 35-183 104V0H105v-1082h272l9 125c77-97 181-145 311-145 244 0 342 151 342 403V0H750v-692" id="bb"/><path fill="#439e9f" d="M1052-393l142-689h279L1197 0H955L750-681 545 0H304L28-1082h279l141 688 198-688h209" id="bc"/><path fill="#439e9f" d="M504-434L400-330V0H111v-1536h289v851c106-137 222-264 333-397h347L689-631 1114 0H782" id="bd"/><g id="B"><use transform="matrix(0.009765625,0,0,0.009765625,0,0)" xlink:href="#bb"/><use transform="matrix(0.009765625,0,0,0.009765625,11.201171875,0)" xlink:href="#aX"/><use transform="matrix(0.009765625,0,0,0.009765625,22.01171875,0)" xlink:href="#aW"/><use transform="matrix(0.009765625,0,0,0.009765625,28.76953125,0)" xlink:href="#bc"/><use transform="matrix(0.009765625,0,0,0.009765625,43.466796875,0)" xlink:href="#aZ"/><use transform="matrix(0.009765625,0,0,0.009765625,54.775390625,0)" xlink:href="#aY"/><use transform="matrix(0.009765625,0,0,0.009765625,62.0703125,0)" xlink:href="#bd"/></g></defs></g></svg>