<svg xmlns="http://www.w3.org/2000/svg" xmlns:xlink="http://www.w3.org/1999/xlink" xmlns:lucid="lucid" width="1278" height="1462"><g transform="translate(-2683 805)" lucid:page-tab-id="0_0"><path d="M2800-411.5a6 6 0 0 1 6-6h320.3a6 6 0 0 1 6 6v248a6 6 0 0 1-6 6H2806a6 6 0 0 1-6-6zM3170 106a6 6 0 0 1 6-6h348a6 6 0 0 1 6 6v408a6 6 0 0 1-6 6h-348a6 6 0 0 1-6-6zM3560 106a6 6 0 0 1 6-6h348a6 6 0 0 1 6 6v408a6 6 0 0 1-6 6h-348a6 6 0 0 1-6-6zM2780 106a6 6 0 0 1 6-6h348a6 6 0 0 1 6 6v408a6 6 0 0 1-6 6h-348a6 6 0 0 1-6-6z" stroke="#000" stroke-width="2" fill="#fff"/><path d="M2780 6a6 6 0 0 1 6-6h1128a6 6 0 0 1 6 6v28a6 6 0 0 1-6 6H2786a6 6 0 0 1-6-6z" stroke="#fff" stroke-width="2" fill="#05835f"/><use xlink:href="#a" transform="matrix(1,0,0,1,2785,5) translate(519.7802734375 22.3046875)"/><path d="M2854.54-40.98l1.05.1 1.06.24 1 .42.94.57.83.72.72.83.57.93.42 1 .25 1.08.07 1.06v15.54h-1.94v-15.46l-.07-.83-.18-.75-.3-.73-.42-.67-.5-.6-.6-.5-.68-.43-.73-.3-.76-.18-.84-.06h-88.42l-.83.06-.75.18-.73.3-.67.42-.6.5-.5.6-.42.68-.3.73-.2.76-.06.84v597.92l.07.83.18.75.3.73.42.67.5.6.6.5.68.43.73.3.76.18.84.06h108.32l.83-.06.75-.18.73-.3.67-.42.6-.5.5-.6.43-.68.3-.73.18-.76.07-.84V495h1.95v69.04l-.1 1.05-.24 1.06-.42 1-.57.94-.72.83-.83.72-.93.57-1 .42-1.08.25-1.06.08h-108.48l-1.05-.1-1.06-.24-1-.42-.94-.58-.83-.7-.72-.84-.57-.93-.42-1-.25-1.08-.07-1.06V-34.04l.08-1.05.26-1.06.42-1 .57-.94.72-.83.83-.72.93-.57 1-.42 1.08-.25 1.06-.08zm26.84 515.14h-1.95v-8.66h1.95z" stroke="#136b80" stroke-width=".05" fill="#136b80"/><path d="M2881.38 465.53h-1.95v-1.03h1.95z" fill="#136b80"/><path stroke="#136b80" stroke-width=".05" fill="#136b80"/><path d="M2860.5-3.24l-4.64-14.26h9.28z" fill="#136b80"/><path d="M2860.5-.08l-5.98-18.4h11.96zm-3.3-16.45l3.3 10.14 3.3-10.13z" stroke="#136b80" stroke-width=".05" fill="#136b80"/><use xlink:href="#b" transform="matrix(1,0,0,1,2855.2220484089144,474.16018566723096) translate(0 16.493055555555557)"/><path d="M2875.1-60.9l1.06.26 1 .42.94.57.83.72.72.83.57.93.42 1 .25 1.08.07 1.06v35.54h-1.94v-35.46l-.07-.83-.18-.75-.3-.73-.42-.67-.5-.6-.6-.5-.68-.43-.73-.3-.76-.18-.84-.06h-127.92l-.83.06-.75.18-.73.3-.67.42-.6.5-.5.6-.42.68-.3.73-.2.76-.06.84v637.92l.07.83.18.75.3.73.42.67.5.6.6.5.68.43.73.3.76.18.84.06h507.92l.83-.06.75-.18.73-.3.67-.42.6-.5.5-.6.42-.68.3-.73.2-.76.06-.84v-90.1h1.94v90.18l-.08 1.05-.26 1.06-.42 1-.57.94-.72.83-.83.72-.93.57-1 .42-1.08.25-1.06.08h-508.08l-1.05-.1-1.06-.24-1-.42-.94-.58-.83-.7-.72-.84-.57-.93-.42-1-.25-1.08-.07-1.06V-54.04l.08-1.05.26-1.06.42-1 .57-.94.72-.83.83-.72.93-.57 1-.42 1.08-.25 1.06-.08h128.08zm385.88 533.94h-1.95v-7.54h1.94z" stroke="#136b80" stroke-width=".05" fill="#136b80"/><path d="M3260.97 465.53h-1.94v-1.03h1.94z" fill="#136b80"/><path stroke="#136b80" stroke-width=".05" fill="#136b80"/><path d="M2880-3.24l-4.64-14.26h9.28z" fill="#136b80"/><path d="M2880-.08l-5.98-18.4h11.96zm-3.3-16.45L2880-6.4l3.3-10.13z" stroke="#136b80" stroke-width=".05" fill="#136b80"/><use xlink:href="#b" transform="matrix(1,0,0,1,3234.8220486111113,473.03602728146774) translate(0 16.493055555555557)"/><path d="M2895.1-80.9l1.06.26 1 .42.94.58.83.7.72.84.57.93.42 1 .25 1.08.07 1.06v55.54h-1.94v-55.46l-.07-.83-.18-.75-.3-.73-.42-.67-.5-.6-.6-.5-.68-.42-.73-.3-.76-.2-.84-.06h-167.92l-.83.07-.75.18-.73.3-.67.42-.6.5-.5.6-.42.68-.3.73-.2.76-.06.84v677.92l.07.83.18.75.3.73.42.67.5.6.6.5.68.43.73.3.76.18.84.06h907.92l.83-.06.75-.18.73-.3.67-.42.6-.5.5-.6.42-.68.3-.73.2-.76.06-.84V490.3h1.94v113.74l-.08 1.05-.26 1.06-.42 1-.57.94-.72.83-.83.72-.93.57-1 .42-1.08.25-1.06.08h-908.08l-1.05-.1-1.06-.24-1-.42-.94-.58-.83-.7-.72-.84-.57-.93-.42-1-.25-1.08-.07-1.06V-74.04l.08-1.05.26-1.06.42-1 .57-.94.72-.83.83-.7.93-.6 1-.4 1.08-.26 1.06-.07h168.08zm745.88 550.37h-1.95v-3.97h1.94z" stroke="#136b80" stroke-width=".05" fill="#136b80"/><path d="M3640.97 465.53h-1.94v-1.03h1.94z" fill="#136b80"/><path stroke="#136b80" stroke-width=".05" fill="#136b80"/><path d="M2900-3.24l-4.64-14.26h9.28z" fill="#136b80"/><path d="M2900-.08l-5.98-18.4h11.96zm-3.3-16.45L2900-6.4l3.3-10.13z" stroke="#136b80" stroke-width=".05" fill="#136b80"/><use xlink:href="#b" transform="matrix(1,0,0,1,3614.8220486111113,469.4688226616434) translate(0 16.493055555555557)"/><path d="M2823 416.94a10.35 10.35 0 0 1 0-10.38l24-41.37a10.4 10.4 0 0 1 9-5.2h48a10.4 10.4 0 0 1 9 5.2l24 41.36a10.35 10.35 0 0 1 0 10.38l-24 41.37a10.4 10.4 0 0 1-9 5.2h-48a10.4 10.4 0 0 1-9-5.2z" stroke="#fff" stroke-width="2" fill="#e7c668"/><use xlink:href="#c" transform="matrix(1,0,0,1,2825,365) translate(34.1700390625 39.1171875)"/><use xlink:href="#d" transform="matrix(1,0,0,1,2825,365) translate(28.183710937500003 67.2421875)"/><path d="M2880.97 358h-1.94v-37.58h1.94zm0-58.42h-1.94V279.5h1.94z" stroke="#136b80" stroke-width=".05" fill="#136b80"/><path d="M2880.97 359h-1.94v-1.03h1.94z" fill="#136b80"/><path stroke="#136b80" stroke-width=".05" fill="#136b80"/><path d="M2884.64 278.5h-9.28l4.64-14.26z" fill="#136b80"/><path d="M2885.98 279.48h-11.96l5.98-18.4zm-9.27-1.95h6.6l-3.3-10.14z" stroke="#136b80" stroke-width=".05" fill="#136b80"/><use xlink:href="#e" transform="matrix(1,0,0,1,2836.3932291666665,299.583638270234) translate(0 16.493055555555557)"/><path d="M2940 248c0 6.63-26.86 12-60 12s-60-5.37-60-12v-96c0-6.63 26.86-12 60-12s60 5.37 60 12z" stroke="#fff" stroke-width="2" fill="#136b80"/><path d="M2940 152c0 6.63-26.86 12-60 12s-60-5.37-60-12" stroke="#fff" stroke-width="2" fill="none"/><use xlink:href="#f" transform="matrix(1,0,0,1,2825,169) translate(34.1650390625 34.6796875)"/><use xlink:href="#g" transform="matrix(1,0,0,1,2825,169) translate(16.9091796875 62.8046875)"/><path d="M3203 416.94a10.35 10.35 0 0 1 0-10.38l24-41.37a10.4 10.4 0 0 1 9-5.2h48a10.4 10.4 0 0 1 9 5.2l24 41.36a10.35 10.35 0 0 1 0 10.38l-24 41.37a10.4 10.4 0 0 1-9 5.2h-48a10.4 10.4 0 0 1-9-5.2z" stroke="#fff" stroke-width="2" fill="#e7c668"/><use xlink:href="#c" transform="matrix(1,0,0,1,3205,365) translate(34.1700390625 39.1171875)"/><use xlink:href="#d" transform="matrix(1,0,0,1,3205,365) translate(28.183710937500003 67.2421875)"/><path d="M3260.97 358h-1.94v-37.58h1.94zm0-58.42h-1.94V279.5h1.94z" stroke="#136b80" stroke-width=".05" fill="#136b80"/><path d="M3260.97 359h-1.94v-1.03h1.94z" fill="#136b80"/><path stroke="#136b80" stroke-width=".05" fill="#136b80"/><path d="M3264.64 278.5h-9.28l4.64-14.26z" fill="#136b80"/><path d="M3265.98 279.48h-11.96l5.98-18.4zm-9.27-1.95h6.6l-3.3-10.14z" stroke="#136b80" stroke-width=".05" fill="#136b80"/><use xlink:href="#e" transform="matrix(1,0,0,1,3216.3932291666665,299.583638270234) translate(0 16.493055555555557)"/><path d="M3320 248c0 6.63-26.86 12-60 12s-60-5.37-60-12v-96c0-6.63 26.86-12 60-12s60 5.37 60 12z" stroke="#fff" stroke-width="2" fill="#707070"/><path d="M3320 152c0 6.63-26.86 12-60 12s-60-5.37-60-12" stroke="#fff" stroke-width="2" fill="none"/><use xlink:href="#f" transform="matrix(1,0,0,1,3205,169) translate(34.1650390625 34.6796875)"/><use xlink:href="#g" transform="matrix(1,0,0,1,3205,169) translate(16.9091796875 62.8046875)"/><path d="M3026.3-235.5v217" stroke="#136b80" stroke-width="2" fill="none"/><path d="M3027.28-235.47h-1.95v-1.03h1.95z" stroke="#136b80" stroke-width=".05" fill="#136b80"/><path d="M3026.3-3.24l-4.63-14.26h9.27z" stroke="#136b80" stroke-width="2" fill="#136b80"/><path d="M3069.83-523.46l-.08 1.05-.26 1.06-.43 1-.57.94-.7.83-.84.72-.94.57-1 .42-1.07.25-1.06.08h-286.86l-.83.06-.75.18-.73.3-.67.42-.6.5-.5.6-.42.68-.3.73-.2.76-.06.84v405.42l.07.83.18.75.3.73.42.67.5.6.6.5.68.42.73.3.76.2.84.06h137l1.05.08 1.06.26 1 .42.94.58.83.7.72.84.57.93.42 1 .25 1.08.07 1.06v75.54h-1.94v-75.46l-.07-.83-.18-.75-.3-.73-.42-.67-.5-.6-.6-.5-.68-.42-.73-.3-.76-.2-.84-.06h-137l-1.05-.08-1.06-.26-1-.42-.94-.58-.83-.7-.72-.84-.57-.93-.42-1-.25-1.08-.07-1.06v-405.58l.08-1.05.26-1.06.42-1 .57-.94.72-.83.83-.72.93-.57 1-.42 1.08-.25 1.06-.08h286.86l.82-.06.77-.18.73-.3.68-.42.6-.5.52-.6.4-.68.3-.73.2-.76.06-.84V-533h1.95z" stroke="#136b80" stroke-width=".05" fill="#136b80"/><path d="M3069.83-532.97h-1.95V-534h1.95z" fill="#136b80"/><path stroke="#136b80" stroke-width=".05" fill="#136b80"/><path d="M2919-3.24l-4.64-14.26h9.28z" fill="#136b80"/><path d="M2919-.08l-5.98-18.4h11.96zm-3.3-16.45L2919-6.4l3.3-10.13z" stroke="#136b80" stroke-width=".05" fill="#136b80"/><path d="M3583 416.94a10.35 10.35 0 0 1 0-10.38l24-41.37a10.4 10.4 0 0 1 9-5.2h48a10.4 10.4 0 0 1 9 5.2l24 41.36a10.35 10.35 0 0 1 0 10.38l-24 41.37a10.4 10.4 0 0 1-9 5.2h-48a10.4 10.4 0 0 1-9-5.2z" stroke="#fff" stroke-width="2" fill="#e7c668"/><use xlink:href="#c" transform="matrix(1,0,0,1,3585,365) translate(34.1700390625 39.1171875)"/><use xlink:href="#d" transform="matrix(1,0,0,1,3585,365) translate(28.183710937500003 67.2421875)"/><path d="M3640.97 358h-1.94v-37.58h1.94zm0-58.42h-1.94V279.5h1.94z" stroke="#136b80" stroke-width=".05" fill="#136b80"/><path d="M3640.97 359h-1.94v-1.03h1.94z" fill="#136b80"/><path stroke="#136b80" stroke-width=".05" fill="#136b80"/><path d="M3644.64 278.5h-9.28l4.64-14.26z" fill="#136b80"/><path d="M3645.98 279.48h-11.96l5.98-18.4zm-9.27-1.95h6.6l-3.3-10.14z" stroke="#136b80" stroke-width=".05" fill="#136b80"/><use xlink:href="#e" transform="matrix(1,0,0,1,3596.3932291666665,299.583638270234) translate(0 16.493055555555557)"/><path d="M3700 248c0 6.63-26.86 12-60 12s-60-5.37-60-12v-96c0-6.63 26.86-12 60-12s60 5.37 60 12z" stroke="#fff" stroke-width="2" fill="#707070"/><path d="M3700 152c0 6.63-26.86 12-60 12s-60-5.37-60-12" stroke="#fff" stroke-width="2" fill="none"/><use xlink:href="#f" transform="matrix(1,0,0,1,3585,169) translate(34.1650390625 34.6796875)"/><use xlink:href="#g" transform="matrix(1,0,0,1,3585,169) translate(16.9091796875 62.8046875)"/><path d="M3020 482a2 2 0 0 1 2-2h116a2 2 0 0 1 2 2v36a2 2 0 0 1-2 2h-116a2 2 0 0 1-2-2z" stroke="#000" stroke-opacity="0" stroke-width="2" fill-opacity="0"/><use xlink:href="#h" transform="matrix(1,0,0,1,3025,485) translate(16.4501953125 22.3046875)"/><use xlink:href="#i" transform="matrix(1,0,0,1,3025,485) translate(80.0927734375 22.3046875)"/><path d="M3410 482a2 2 0 0 1 2-2h116a2 2 0 0 1 2 2v36a2 2 0 0 1-2 2h-116a2 2 0 0 1-2-2z" stroke="#000" stroke-opacity="0" stroke-width="2" fill-opacity="0"/><use xlink:href="#h" transform="matrix(1,0,0,1,3415,485) translate(16.796875 22.3046875)"/><use xlink:href="#j" transform="matrix(1,0,0,1,3415,485) translate(80.439453125 22.3046875)"/><path d="M3800 482a2 2 0 0 1 2-2h116a2 2 0 0 1 2 2v36a2 2 0 0 1-2 2h-116a2 2 0 0 1-2-2z" stroke="#000" stroke-opacity="0" stroke-width="2" fill-opacity="0"/><use xlink:href="#h" transform="matrix(1,0,0,1,3805,485) translate(16.6357421875 22.3046875)"/><use xlink:href="#k" transform="matrix(1,0,0,1,3805,485) translate(80.2783203125 22.3046875)"/><path d="M3293.1-576c-13.25 0-24-10.75-24-24 0-10.6 6.5-19.55 16.6-22.83-.6-31.17 39.4-37.17 55.4-25.17 8-18 48-12 48 6 24-6 48 18 32 48 16 24 0 54-32 42-8 15.6-40 15.6-48 0-16 12-48 6-48-24z" stroke="#fff" stroke-width="2" fill="#ea704d"/><use xlink:href="#l" transform="matrix(1,0,0,1,3274.1064377408675,-655) translate(8.65625 61.86631944444444)"/><use xlink:href="#m" transform="matrix(1,0,0,1,3274.1064377408675,-655) translate(71.57942708333334 61.86631944444444)"/><path d="M3023-581.56a10.35 10.35 0 0 1 0-10.38l24-41.37a10.4 10.4 0 0 1 9-5.2h48a10.4 10.4 0 0 1 9 5.2l24 41.36a10.35 10.35 0 0 1 0 10.38l-24 41.37a10.4 10.4 0 0 1-9 5.2h-48a10.4 10.4 0 0 1-9-5.2z" stroke="#fff" stroke-width="2" fill="#e7c668"/><path d="M3015-586.56a10.35 10.35 0 0 1 0-10.38l24-41.37a10.4 10.4 0 0 1 9-5.2h48a10.4 10.4 0 0 1 9 5.2l24 41.36a10.35 10.35 0 0 1 0 10.38l-24 41.37a10.4 10.4 0 0 1-9 5.2h-48a10.4 10.4 0 0 1-9-5.2z" stroke="#fff" stroke-width="2" fill="#e7c668"/><use xlink:href="#c" transform="matrix(1,0,0,1,3017,-638.5) translate(34.1700390625 39.1171875)"/><use xlink:href="#d" transform="matrix(1,0,0,1,3017,-638.5) translate(28.183710937500003 67.2421875)"/><path d="M3005-591.56a10.35 10.35 0 0 1 0-10.38l24-41.37a10.4 10.4 0 0 1 9-5.2h48a10.4 10.4 0 0 1 9 5.2l24 41.36a10.35 10.35 0 0 1 0 10.38l-24 41.37a10.4 10.4 0 0 1-9 5.2h-48a10.4 10.4 0 0 1-9-5.2z" stroke="#fff" stroke-width="2" fill="#e7c668"/><use xlink:href="#c" transform="matrix(1,0,0,1,3007,-643.5) translate(34.1700390625 39.1171875)"/><use xlink:href="#n" transform="matrix(1,0,0,1,3007,-643.5) translate(23.042109374999995 67.2421875)"/><path d="M2956.3-351.5a6 6 0 0 1 6-6h128a6 6 0 0 1 6 6v108a6 6 0 0 1-6 6h-128a6 6 0 0 1-6-6z" stroke="#fff" stroke-width="2" fill="#ea704d"/><use xlink:href="#o" transform="matrix(1,0,0,1,2961.303933028954,-352.5000812055682) translate(22.0458984375 46.0546875)"/><use xlink:href="#p" transform="matrix(1,0,0,1,2961.303933028954,-352.5000812055682) translate(68.6962890625 46.0546875)"/><use xlink:href="#q" transform="matrix(1,0,0,1,2961.303933028954,-352.5000812055682) translate(13.84765625 74.1796875)"/><path d="M3012.3-195.5a2 2 0 0 1 2-2h116a2 2 0 0 1 2 2v36a2 2 0 0 1-2 2h-116a2 2 0 0 1-2-2z" stroke="#000" stroke-opacity="0" stroke-width="2" fill-opacity="0"/><use xlink:href="#h" transform="matrix(1,0,0,1,3017.303933028954,-192.50008120556828) translate(16.826171875 22.3046875)"/><use xlink:href="#r" transform="matrix(1,0,0,1,3017.303933028954,-192.50008120556828) translate(80.46875 22.3046875)"/><path d="M3340.53-549.35V-466a6 6 0 0 1-6 6H3032.3a6 6 0 0 0-6 6v77" stroke="#ea704d" stroke-width="2" fill="none"/><path d="M3341.2-549.88l.3.43v.12h-1.94v-.42l1.25-.77z" stroke="#ea704d" stroke-width=".05" fill="#ea704d"/><path d="M3026.3-361.74l-4.63-14.26h9.27z" stroke="#ea704d" stroke-width="2" fill="#ea704d"/><path d="M2823-292.3a10.35 10.35 0 0 1 0-10.4l24-41.36a10.4 10.4 0 0 1 9-5.2h48a10.4 10.4 0 0 1 9 5.2l24 41.37a10.35 10.35 0 0 1 0 10.4l-24 41.36a10.4 10.4 0 0 1-9 5.2h-48a10.4 10.4 0 0 1-9-5.2z" stroke="#fff" stroke-width="2" fill="#e7c668"/><use xlink:href="#c" transform="matrix(1,0,0,1,2825,-344.2500812055682) translate(34.1700390625 39.1171875)"/><use xlink:href="#d" transform="matrix(1,0,0,1,2825,-344.2500812055682) translate(28.183710937500003 67.2421875)"/><path d="M2880.97-128.4l.07.8.18.78.3.72.42.68.5.6.6.5.68.42.73.3.76.18.84.07h108l1.05.08 1.06.26 1 .4.94.58.83.7.72.84.57.94.42 1 .25 1.07.07 1.06v97.9h-1.94v-97.84l-.07-.82-.18-.77-.3-.72-.42-.68-.5-.6-.6-.5-.68-.42-.73-.3-.76-.18-.84-.07h-108l-1.05-.08-1.06-.26-1-.42-.94-.57-.83-.7-.72-.84-.57-.94-.42-1.02-.25-1.06-.07-1.06v-76.4h1.94zm0-97.85h-1.94v-17.5h1.94z" stroke="#136b80" stroke-width=".05" fill="#136b80"/><path d="M2880.97-243.72h-1.94v-1.03h1.94z" fill="#136b80"/><path stroke="#136b80" stroke-width=".05" fill="#136b80"/><path d="M3000-3.24l-4.64-14.26h9.28z" fill="#136b80"/><path d="M3000-.08l-5.98-18.4h11.96zm-3.3-16.45L3000-6.4l3.3-10.13z" stroke="#136b80" stroke-width=".05" fill="#136b80"/><use xlink:href="#s" transform="matrix(1,0,0,1,2851.8836805555557,-226.2481170341526) translate(0 17.22222222222222)"/><path d="M3176.24-411.5a6 6 0 0 1 6-6h320.3a6 6 0 0 1 6 6v248a6 6 0 0 1-6 6h-320.3a6 6 0 0 1-6-6z" stroke="#000" stroke-width="2" fill="#fff"/><path d="M3402.54-235.5v217" stroke="#136b80" stroke-width="2" fill="none"/><path d="M3403.52-235.47h-1.95v-1.03h1.95z" stroke="#136b80" stroke-width=".05" fill="#136b80"/><path d="M3402.54-3.24l-4.63-14.26h9.28z" stroke="#136b80" stroke-width="2" fill="#136b80"/><path d="M3332.54-351.5a6 6 0 0 1 6-6h128a6 6 0 0 1 6 6v108a6 6 0 0 1-6 6h-128a6 6 0 0 1-6-6z" stroke="#fff" stroke-width="2" fill="#ea704d"/><use xlink:href="#o" transform="matrix(1,0,0,1,3337.5405971007053,-352.5001599020281) translate(22.0458984375 46.0546875)"/><use xlink:href="#p" transform="matrix(1,0,0,1,3337.5405971007053,-352.5001599020281) translate(68.6962890625 46.0546875)"/><use xlink:href="#q" transform="matrix(1,0,0,1,3337.5405971007053,-352.5001599020281) translate(13.84765625 74.1796875)"/><path d="M3388.54-195.5a2 2 0 0 1 2-2h116a2 2 0 0 1 2 2v36a2 2 0 0 1-2 2h-116a2 2 0 0 1-2-2z" stroke="#000" stroke-opacity="0" stroke-width="2" fill-opacity="0"/><use xlink:href="#h" transform="matrix(1,0,0,1,3393.5405971007053,-192.50015990202797) translate(16.9970703125 22.3046875)"/><use xlink:href="#t" transform="matrix(1,0,0,1,3393.5405971007053,-192.50015990202797) translate(80.6396484375 22.3046875)"/><path d="M3360.58-538.6v72.6a6 6 0 0 0 6 6h29.96a6 6 0 0 1 6 6v77" stroke="#ea704d" stroke-width="2" fill="none"/><path d="M3361.56-539.5v.92h-1.95v-1.13z" stroke="#ea704d" stroke-width=".05" fill="#ea704d"/><path d="M3402.54-361.74L3397.9-376h9.28z" stroke="#ea704d" stroke-width="2" fill="#ea704d"/><path d="M3199.25-292.3a10.35 10.35 0 0 1 0-10.4l23.98-41.36a10.4 10.4 0 0 1 9-5.2h48a10.4 10.4 0 0 1 9.02 5.2l23.98 41.37a10.35 10.35 0 0 1 0 10.4l-23.98 41.36a10.4 10.4 0 0 1-9 5.2h-48a10.4 10.4 0 0 1-9.02-5.2z" stroke="#fff" stroke-width="2" fill="#e7c668"/><use xlink:href="#c" transform="matrix(1,0,0,1,3201.2366640717514,-344.2501599020281) translate(34.1700390625 39.1171875)"/><use xlink:href="#d" transform="matrix(1,0,0,1,3201.2366640717514,-344.2501599020281) translate(28.183710937500003 67.2421875)"/><path d="M3257.2-18.5h-1.94v-185.75h1.95zm0-207.25h-1.94v-18h1.95z" stroke="#136b80" stroke-width=".05" fill="#136b80"/><path d="M3257.2-243.72h-1.94v-1.03h1.95z" fill="#136b80"/><path stroke="#136b80" stroke-width=".05" fill="#136b80"/><path d="M3256.24-3.24l-4.64-14.26h9.27z" fill="#136b80"/><path d="M3256.24-.08l-5.98-18.4h11.95zm-3.3-16.45l3.3 10.14 3.3-10.13z" stroke="#136b80" stroke-width=".05" fill="#136b80"/><use xlink:href="#s" transform="matrix(1,0,0,1,3228.120344627307,-225.75520833333357) translate(0 17.22222222222222)"/><path d="M3552.47-411.5a6 6 0 0 1 6-6h320.3a6 6 0 0 1 6 6v248a6 6 0 0 1-6 6h-320.3a6 6 0 0 1-6-6z" stroke="#000" stroke-width="2" fill="#fff"/><path d="M3778.78-235.5v217" stroke="#136b80" stroke-width="2" fill="none"/><path d="M3779.75-235.47h-1.95v-1.03h1.95z" stroke="#136b80" stroke-width=".05" fill="#136b80"/><path d="M3778.78-3.24l-4.64-14.26h9.27z" stroke="#136b80" stroke-width="2" fill="#136b80"/><path d="M3708.78-351.5a6 6 0 0 1 6-6h128a6 6 0 0 1 6 6v108a6 6 0 0 1-6 6h-128a6 6 0 0 1-6-6z" stroke="#fff" stroke-width="2" fill="#ea704d"/><use xlink:href="#o" transform="matrix(1,0,0,1,3713.7772611724567,-352.500159902028) translate(22.0458984375 46.0546875)"/><use xlink:href="#p" transform="matrix(1,0,0,1,3713.7772611724567,-352.500159902028) translate(68.6962890625 46.0546875)"/><use xlink:href="#q" transform="matrix(1,0,0,1,3713.7772611724567,-352.500159902028) translate(13.84765625 74.1796875)"/><path d="M3764.78-195.5a2 2 0 0 1 2-2h116a2 2 0 0 1 2 2v36a2 2 0 0 1-2 2h-116a2 2 0 0 1-2-2z" stroke="#000" stroke-opacity="0" stroke-width="2" fill-opacity="0"/><use xlink:href="#h" transform="matrix(1,0,0,1,3769.7772611724567,-192.50015990202792) translate(17.119140625 22.3046875)"/><use xlink:href="#u" transform="matrix(1,0,0,1,3769.7772611724567,-192.50015990202792) translate(80.76171875 22.3046875)"/><path d="M3380.84-541.84v38.76a.24.24 0 0 1-.24.24.24.24 0 0 0-.24.25v16.6a6 6 0 0 0 6 6h386.42a6 6 0 0 1 6 6v97" stroke="#ea704d" stroke-width="2" fill="none"/><path d="M3381.82-541.8h-1.95v-.6l.94-.42 1.02-.58z" stroke="#ea704d" stroke-width=".05" fill="#ea704d"/><path d="M3778.78-361.74l-4.64-14.26h9.27z" stroke="#ea704d" stroke-width="2" fill="#ea704d"/><path d="M3575.48-292.3a10.35 10.35 0 0 1 0-10.4l23.98-41.36a10.4 10.4 0 0 1 9-5.2h48a10.4 10.4 0 0 1 9.02 5.2l23.98 41.37a10.35 10.35 0 0 1 0 10.4l-23.98 41.36a10.4 10.4 0 0 1-9 5.2h-48a10.4 10.4 0 0 1-9.02-5.2z" stroke="#fff" stroke-width="2" fill="#e7c668"/><use xlink:href="#c" transform="matrix(1,0,0,1,3577.473328143503,-344.250159902028) translate(34.1700390625 39.1171875)"/><use xlink:href="#d" transform="matrix(1,0,0,1,3577.473328143503,-344.250159902028) translate(28.183710937500003 67.2421875)"/><path d="M3633.45-18.5h-1.95v-186.75h1.95zm0-208.25h-1.95v-17h1.95z" stroke="#136b80" stroke-width=".05" fill="#136b80"/><path d="M3633.45-243.72h-1.95v-1.03h1.95z" fill="#136b80"/><path stroke="#136b80" stroke-width=".05" fill="#136b80"/><path d="M3632.47-3.24l-4.63-14.26h9.27z" fill="#136b80"/><path d="M3632.47-.08l-5.97-18.4h11.95zm-3.3-16.45l3.3 10.14 3.3-10.13z" stroke="#136b80" stroke-width=".05" fill="#136b80"/><use xlink:href="#s" transform="matrix(1,0,0,1,3604.3570086990585,-226.75520833333357) translate(0 17.22222222222222)"/><path d="M3350 45v19a6 6 0 0 1-6 6h-458a6 6 0 0 0-6 6v31.8" stroke="#136b80" stroke-width="8" fill="none"/><path d="M3353.97 45.1h-7.94V41h7.94z" stroke="#136b80" stroke-width=".05" fill="#136b80"/><path d="M2880 126.06l-4.64-14.27h9.28z" stroke="#136b80" stroke-width="8" fill="#136b80"/><path d="M2722-495.5h1196" fill="none"/><path d="M2724-495.5c0 1.1-.9 2-2 2s-2-.9-2-2 .9-2 2-2 2 .9 2 2zm7.97 0c0 1.1-.9 2-2 2s-2-.9-2-2 .9-2 2-2 2 .9 2 2zm7.98 0c0 1.1-.9 2-2 2s-2-.9-2-2 .9-2 2-2 2 .9 2 2zm7.97 0c0 1.1-.9 2-2 2s-2-.9-2-2 .9-2 2-2 2 .9 2 2zm7.97 0c0 1.1-.9 2-2 2s-2-.9-2-2 .9-2 2-2 2 .9 2 2zm7.97 0c0 1.1-.9 2-2 2s-2-.9-2-2 .9-2 2-2 2 .9 2 2zm7.97 0c0 1.1-.9 2-2 2s-2-.9-2-2 .9-2 2-2 2 .9 2 2zm7.97 0c0 1.1-.88 2-2 2-1.1 0-2-.9-2-2s.9-2 2-2c1.12 0 2 .9 2 2zm8 0c0 1.1-.9 2-2 2-1.12 0-2-.9-2-2s.88-2 2-2c1.1 0 2 .9 2 2zm7.96 0c0 1.1-.9 2-2 2s-2-.9-2-2 .9-2 2-2 2 .9 2 2zm7.97 0c0 1.1-.9 2-2 2s-2-.9-2-2 .9-2 2-2 2 .9 2 2zm7.98 0c0 1.1-.9 2-2 2s-2-.9-2-2 .9-2 2-2 2 .9 2 2zm7.98 0c0 1.1-.9 2-2 2s-2-.9-2-2 .9-2 2-2 2 .9 2 2zm7.97 0c0 1.1-.9 2-2 2s-2-.9-2-2 .9-2 2-2 2 .9 2 2zm7.98 0c0 1.1-.9 2-2 2s-2-.9-2-2 .9-2 2-2 2 .9 2 2zm7.97 0c0 1.1-.9 2-2 2s-2-.9-2-2 .9-2 2-2 2 .9 2 2zm7.97 0c0 1.1-.9 2-2 2s-2-.9-2-2 .9-2 2-2 2 .9 2 2zm7.98 0c0 1.1-.9 2-2 2s-2-.9-2-2 .9-2 2-2 2 .9 2 2zm7.97 0c0 1.1-.9 2-2 2s-2-.9-2-2 .9-2 2-2 2 .9 2 2zm7.97 0c0 1.1-.9 2-2 2s-2-.9-2-2 .9-2 2-2 2 .9 2 2zm7.97 0c0 1.1-.9 2-2 2s-2-.9-2-2 .9-2 2-2 2 .9 2 2zm7.97 0c0 1.1-.9 2-2 2s-2-.9-2-2 .9-2 2-2 2 .9 2 2zm7.97 0c0 1.1-.88 2-2 2-1.1 0-2-.9-2-2s.9-2 2-2c1.12 0 2 .9 2 2zm8 0c0 1.1-.9 2-2 2-1.12 0-2-.9-2-2s.88-2 2-2c1.1 0 2 .9 2 2zm7.96 0c0 1.1-.9 2-2 2s-2-.9-2-2 .9-2 2-2 2 .9 2 2zm7.97 0c0 1.1-.9 2-2 2s-2-.9-2-2 .9-2 2-2 2 .9 2 2zm7.98 0c0 1.1-.9 2-2 2s-2-.9-2-2 .9-2 2-2 2 .9 2 2zm7.98 0c0 1.1-.9 2-2 2s-2-.9-2-2 .9-2 2-2 2 .9 2 2zm7.97 0c0 1.1-.9 2-2 2s-2-.9-2-2 .9-2 2-2 2 .9 2 2zm7.98 0c0 1.1-.9 2-2 2s-2-.9-2-2 .9-2 2-2 2 .9 2 2zm7.97 0c0 1.1-.9 2-2 2s-2-.9-2-2 .9-2 2-2 2 .9 2 2zm7.97 0c0 1.1-.9 2-2 2s-2-.9-2-2 .9-2 2-2 2 .9 2 2zm7.98 0c0 1.1-.9 2-2 2s-2-.9-2-2 .9-2 2-2 2 .9 2 2zm7.97 0c0 1.1-.9 2-2 2s-2-.9-2-2 .9-2 2-2 2 .9 2 2zm7.97 0c0 1.1-.9 2-2 2s-2-.9-2-2 .9-2 2-2 2 .9 2 2zm7.97 0c0 1.1-.9 2-2 2s-2-.9-2-2 .9-2 2-2 2 .9 2 2zm7.97 0c0 1.1-.9 2-2 2s-2-.9-2-2 .9-2 2-2 2 .9 2 2zm7.97 0c0 1.1-.88 2-2 2-1.1 0-2-.9-2-2s.9-2 2-2c1.12 0 2 .9 2 2zm8 0c0 1.1-.9 2-2 2-1.12 0-2-.9-2-2s.88-2 2-2c1.1 0 2 .9 2 2zm7.96 0c0 1.1-.9 2-2 2s-2-.9-2-2 .9-2 2-2 2 .9 2 2zm7.97 0c0 1.1-.9 2-2 2s-2-.9-2-2 .9-2 2-2 2 .9 2 2zm7.98 0c0 1.1-.9 2-2 2s-2-.9-2-2 .9-2 2-2 2 .9 2 2zm7.98 0c0 1.1-.9 2-2 2s-2-.9-2-2 .9-2 2-2 2 .9 2 2zm7.97 0c0 1.1-.9 2-2 2s-2-.9-2-2 .9-2 2-2 2 .9 2 2zm7.98 0c0 1.1-.9 2-2 2s-2-.9-2-2 .9-2 2-2 2 .9 2 2zm7.97 0c0 1.1-.9 2-2 2s-2-.9-2-2 .9-2 2-2 2 .9 2 2zm7.97 0c0 1.1-.9 2-2 2s-2-.9-2-2 .9-2 2-2 2 .9 2 2zm7.98 0c0 1.1-.9 2-2 2s-2-.9-2-2 .9-2 2-2 2 .9 2 2zm7.97 0c0 1.1-.9 2-2 2s-2-.9-2-2 .9-2 2-2 2 .9 2 2zm7.97 0c0 1.1-.9 2-2 2s-2-.9-2-2 .9-2 2-2 2 .9 2 2zm7.97 0c0 1.1-.9 2-2 2s-2-.9-2-2 .9-2 2-2 2 .9 2 2zm7.97 0c0 1.1-.9 2-2 2s-2-.9-2-2 .9-2 2-2 2 .9 2 2zm7.97 0c0 1.1-.88 2-2 2-1.1 0-2-.9-2-2s.9-2 2-2c1.12 0 2 .9 2 2zm8 0c0 1.1-.9 2-2 2-1.12 0-2-.9-2-2s.88-2 2-2c1.1 0 2 .9 2 2zm7.96 0c0 1.1-.9 2-2 2s-2-.9-2-2 .9-2 2-2 2 .9 2 2zm7.97 0c0 1.1-.9 2-2 2s-2-.9-2-2 .9-2 2-2 2 .9 2 2zm7.98 0c0 1.1-.9 2-2 2s-2-.9-2-2 .9-2 2-2 2 .9 2 2zm7.98 0c0 1.1-.9 2-2 2s-2-.9-2-2 .9-2 2-2 2 .9 2 2zm7.97 0c0 1.1-.9 2-2 2s-2-.9-2-2 .9-2 2-2 2 .9 2 2zm7.98 0c0 1.1-.9 2-2 2s-2-.9-2-2 .9-2 2-2 2 .9 2 2zm7.97 0c0 1.1-.9 2-2 2s-2-.9-2-2 .9-2 2-2 2 .9 2 2zm7.97 0c0 1.1-.9 2-2 2s-2-.9-2-2 .9-2 2-2 2 .9 2 2zm7.98 0c0 1.1-.9 2-2 2s-2-.9-2-2 .9-2 2-2 2 .9 2 2zm7.97 0c0 1.1-.9 2-2 2s-2-.9-2-2 .9-2 2-2 2 .9 2 2zm7.97 0c0 1.1-.9 2-2 2s-2-.9-2-2 .9-2 2-2 2 .9 2 2zm7.97 0c0 1.1-.9 2-2 2s-2-.9-2-2 .9-2 2-2 2 .9 2 2zm7.97 0c0 1.1-.9 2-2 2s-2-.9-2-2 .9-2 2-2 2 .9 2 2zm7.97 0c0 1.1-.88 2-2 2-1.1 0-2-.9-2-2s.9-2 2-2c1.12 0 2 .9 2 2zm8 0c0 1.1-.9 2-2 2-1.12 0-2-.9-2-2s.88-2 2-2c1.1 0 2 .9 2 2zm7.96 0c0 1.1-.9 2-2 2s-2-.9-2-2 .9-2 2-2 2 .9 2 2zm7.97 0c0 1.1-.9 2-2 2s-2-.9-2-2 .9-2 2-2 2 .9 2 2zm7.98 0c0 1.1-.9 2-2 2s-2-.9-2-2 .9-2 2-2 2 .9 2 2zm7.98 0c0 1.1-.9 2-2 2s-2-.9-2-2 .9-2 2-2 2 .9 2 2zm7.97 0c0 1.1-.9 2-2 2s-2-.9-2-2 .9-2 2-2 2 .9 2 2zm7.98 0c0 1.1-.9 2-2 2s-2-.9-2-2 .9-2 2-2 2 .9 2 2zm7.97 0c0 1.1-.9 2-2 2s-2-.9-2-2 .9-2 2-2 2 .9 2 2zm7.97 0c0 1.1-.9 2-2 2s-2-.9-2-2 .9-2 2-2 2 .9 2 2zm7.98 0c0 1.1-.9 2-2 2s-2-.9-2-2 .9-2 2-2 2 .9 2 2zm7.97 0c0 1.1-.9 2-2 2s-2-.9-2-2 .9-2 2-2 2 .9 2 2zm7.97 0c0 1.1-.9 2-2 2s-2-.9-2-2 .9-2 2-2 2 .9 2 2zm7.97 0c0 1.1-.9 2-2 2s-2-.9-2-2 .9-2 2-2 2 .9 2 2zm7.97 0c0 1.1-.9 2-2 2s-2-.9-2-2 .9-2 2-2 2 .9 2 2zm7.97 0c0 1.1-.88 2-2 2-1.1 0-2-.9-2-2s.9-2 2-2c1.12 0 2 .9 2 2zm8 0c0 1.1-.9 2-2 2-1.12 0-2-.9-2-2s.88-2 2-2c1.1 0 2 .9 2 2zm7.96 0c0 1.1-.9 2-2 2s-2-.9-2-2 .9-2 2-2 2 .9 2 2zm7.97 0c0 1.1-.9 2-2 2s-2-.9-2-2 .9-2 2-2 2 .9 2 2zm7.98 0c0 1.1-.9 2-2 2s-2-.9-2-2 .9-2 2-2 2 .9 2 2zm7.98 0c0 1.1-.9 2-2 2s-2-.9-2-2 .9-2 2-2 2 .9 2 2zm7.97 0c0 1.1-.9 2-2 2s-2-.9-2-2 .9-2 2-2 2 .9 2 2zm7.98 0c0 1.1-.9 2-2 2s-2-.9-2-2 .9-2 2-2 2 .9 2 2zm7.97 0c0 1.1-.9 2-2 2s-2-.9-2-2 .9-2 2-2 2 .9 2 2zm7.97 0c0 1.1-.9 2-2 2s-2-.9-2-2 .9-2 2-2 2 .9 2 2zm7.98 0c0 1.1-.9 2-2 2s-2-.9-2-2 .9-2 2-2 2 .9 2 2zm7.97 0c0 1.1-.9 2-2 2s-2-.9-2-2 .9-2 2-2 2 .9 2 2zm7.97 0c0 1.1-.9 2-2 2s-2-.9-2-2 .9-2 2-2 2 .9 2 2zm7.97 0c0 1.1-.9 2-2 2s-2-.9-2-2 .9-2 2-2 2 .9 2 2zm7.97 0c0 1.1-.9 2-2 2s-2-.9-2-2 .9-2 2-2 2 .9 2 2zm7.97 0c0 1.1-.88 2-2 2-1.1 0-2-.9-2-2s.9-2 2-2c1.12 0 2 .9 2 2zm8 0c0 1.1-.9 2-2 2-1.12 0-2-.9-2-2s.88-2 2-2c1.1 0 2 .9 2 2zm7.96 0c0 1.1-.9 2-2 2s-2-.9-2-2 .9-2 2-2 2 .9 2 2zm7.97 0c0 1.1-.9 2-2 2s-2-.9-2-2 .9-2 2-2 2 .9 2 2zm7.98 0c0 1.1-.9 2-2 2s-2-.9-2-2 .9-2 2-2 2 .9 2 2zm7.98 0c0 1.1-.9 2-2 2s-2-.9-2-2 .9-2 2-2 2 .9 2 2zm7.97 0c0 1.1-.9 2-2 2s-2-.9-2-2 .9-2 2-2 2 .9 2 2zm7.98 0c0 1.1-.9 2-2 2s-2-.9-2-2 .9-2 2-2 2 .9 2 2zm7.97 0c0 1.1-.9 2-2 2s-2-.9-2-2 .9-2 2-2 2 .9 2 2zm7.97 0c0 1.1-.9 2-2 2s-2-.9-2-2 .9-2 2-2 2 .9 2 2zm7.98 0c0 1.1-.9 2-2 2s-2-.9-2-2 .9-2 2-2 2 .9 2 2zm7.97 0c0 1.1-.9 2-2 2s-2-.9-2-2 .9-2 2-2 2 .9 2 2zm7.97 0c0 1.1-.9 2-2 2s-2-.9-2-2 .9-2 2-2 2 .9 2 2zm7.97 0c0 1.1-.9 2-2 2s-2-.9-2-2 .9-2 2-2 2 .9 2 2zm7.97 0c0 1.1-.9 2-2 2s-2-.9-2-2 .9-2 2-2 2 .9 2 2zm7.97 0c0 1.1-.88 2-2 2-1.1 0-2-.9-2-2s.9-2 2-2c1.12 0 2 .9 2 2zm8 0c0 1.1-.9 2-2 2-1.12 0-2-.9-2-2s.88-2 2-2c1.1 0 2 .9 2 2zm7.96 0c0 1.1-.9 2-2 2s-2-.9-2-2 .9-2 2-2 2 .9 2 2zm7.97 0c0 1.1-.9 2-2 2s-2-.9-2-2 .9-2 2-2 2 .9 2 2zm7.98 0c0 1.1-.9 2-2 2s-2-.9-2-2 .9-2 2-2 2 .9 2 2zm7.98 0c0 1.1-.9 2-2 2s-2-.9-2-2 .9-2 2-2 2 .9 2 2zm7.97 0c0 1.1-.9 2-2 2s-2-.9-2-2 .9-2 2-2 2 .9 2 2zm7.98 0c0 1.1-.9 2-2 2s-2-.9-2-2 .9-2 2-2 2 .9 2 2zm7.97 0c0 1.1-.9 2-2 2s-2-.9-2-2 .9-2 2-2 2 .9 2 2zm7.97 0c0 1.1-.9 2-2 2s-2-.9-2-2 .9-2 2-2 2 .9 2 2zm7.98 0c0 1.1-.9 2-2 2s-2-.9-2-2 .9-2 2-2 2 .9 2 2zm7.97 0c0 1.1-.9 2-2 2s-2-.9-2-2 .9-2 2-2 2 .9 2 2zm7.97 0c0 1.1-.9 2-2 2s-2-.9-2-2 .9-2 2-2 2 .9 2 2zm7.97 0c0 1.1-.9 2-2 2s-2-.9-2-2 .9-2 2-2 2 .9 2 2zm7.97 0c0 1.1-.9 2-2 2s-2-.9-2-2 .9-2 2-2 2 .9 2 2zm7.97 0c0 1.1-.88 2-2 2-1.1 0-2-.9-2-2s.9-2 2-2c1.12 0 2 .9 2 2zm8 0c0 1.1-.9 2-2 2-1.12 0-2-.9-2-2s.88-2 2-2c1.1 0 2 .9 2 2zm7.96 0c0 1.1-.9 2-2 2s-2-.9-2-2 .9-2 2-2 2 .9 2 2zm7.97 0c0 1.1-.9 2-2 2s-2-.9-2-2 .9-2 2-2 2 .9 2 2zm7.98 0c0 1.1-.9 2-2 2s-2-.9-2-2 .9-2 2-2 2 .9 2 2zm7.98 0c0 1.1-.9 2-2 2s-2-.9-2-2 .9-2 2-2 2 .9 2 2zm7.97 0c0 1.1-.9 2-2 2s-2-.9-2-2 .9-2 2-2 2 .9 2 2zm7.98 0c0 1.1-.9 2-2 2s-2-.9-2-2 .9-2 2-2 2 .9 2 2zm7.97 0c0 1.1-.9 2-2 2s-2-.9-2-2 .9-2 2-2 2 .9 2 2zm7.97 0c0 1.1-.9 2-2 2s-2-.9-2-2 .9-2 2-2 2 .9 2 2zm7.98 0c0 1.1-.9 2-2 2s-2-.9-2-2 .9-2 2-2 2 .9 2 2zm7.97 0c0 1.1-.9 2-2 2s-2-.9-2-2 .9-2 2-2 2 .9 2 2zm7.97 0c0 1.1-.9 2-2 2s-2-.9-2-2 .9-2 2-2 2 .9 2 2zm7.97 0c0 1.1-.9 2-2 2s-2-.9-2-2 .9-2 2-2 2 .9 2 2zm7.97 0c0 1.1-.9 2-2 2s-2-.9-2-2 .9-2 2-2 2 .9 2 2zm7.97 0c0 1.1-.88 2-2 2-1.1 0-2-.9-2-2s.9-2 2-2c1.12 0 2 .9 2 2zm8 0c0 1.1-.9 2-2 2-1.12 0-2-.9-2-2s.88-2 2-2c1.1 0 2 .9 2 2zm7.96 0c0 1.1-.9 2-2 2s-2-.9-2-2 .9-2 2-2 2 .9 2 2zm7.97 0c0 1.1-.9 2-2 2s-2-.9-2-2 .9-2 2-2 2 .9 2 2zm7.98 0c0 1.1-.9 2-2 2s-2-.9-2-2 .9-2 2-2 2 .9 2 2zm7.98 0c0 1.1-.9 2-2 2s-2-.9-2-2 .9-2 2-2 2 .9 2 2zm7.97 0c0 1.1-.9 2-2 2s-2-.9-2-2 .9-2 2-2 2 .9 2 2zm7.98 0c0 1.1-.9 2-2 2s-2-.9-2-2 .9-2 2-2 2 .9 2 2z" fill="#439e9f"/><path d="M3680-491.5a6 6 0 0 1 6-6h228a6 6 0 0 1 6 6v48a6 6 0 0 1-6 6h-228a6 6 0 0 1-6-6z" fill="none"/><g><use xlink:href="#v" transform="matrix(1,0,0,1,3680,-497.5) translate(128.623046875 36.8359375)"/><use xlink:href="#w" transform="matrix(1,0,0,1,3680,-497.5) translate(175.2734375 36.8359375)"/></g><path d="M3680-551.5a6 6 0 0 1 6-6h228a6 6 0 0 1 6 6v48a6 6 0 0 1-6 6h-228a6 6 0 0 1-6-6z" fill="none"/><g><use xlink:href="#x" transform="matrix(1,0,0,1,3680,-557.5) translate(74.51171875 36.8359375)"/><use xlink:href="#y" transform="matrix(1,0,0,1,3680,-557.5) translate(167.24609375 36.8359375)"/></g><g filter="url(#z)"><path d="M3572.47-754a6 6 0 0 1 6-6H3914a6 6 0 0 1 6 6v164.13a6 6 0 0 1-6 6h-335.53a6 6 0 0 1-6-6z" stroke="#333" stroke-width="2" fill="#fff"/></g><path d="M3601-730h40.5M3601.03-730H3600" stroke="#ea704d" stroke-width="2" fill="none"/><path d="M3656.76-730l-14.26 4.63v-9.26z" stroke="#ea704d" stroke-width="2" fill="#ea704d"/><path d="M3601-675h40.5M3601.03-675H3600" stroke="#136b80" stroke-width="2" fill="none"/><path d="M3656.76-675l-14.26 4.63v-9.26z" stroke="#136b80" stroke-width="2" fill="#136b80"/><path d="M3740-754a6 6 0 0 1 6-6h148a6 6 0 0 1 6 6v48a6 6 0 0 1-6 6h-148a6 6 0 0 1-6-6z" fill="none"/><g><use xlink:href="#A" transform="matrix(1,0,0,1,3740,-760) translate(13.585069444444457 36.076388888888886)"/><use xlink:href="#B" transform="matrix(1,0,0,1,3740,-760) translate(62.97743055555557 36.076388888888886)"/></g><path d="M3721.5-699a6 6 0 0 1 6-6H3894a6 6 0 0 1 6 6v48a6 6 0 0 1-6 6h-166.5a6 6 0 0 1-6-6z" fill="none"/><g><use xlink:href="#C" transform="matrix(1,0,0,1,3721.5154820071352,-705) translate(6.951388888888886 36.076388888888886)"/><use xlink:href="#B" transform="matrix(1,0,0,1,3721.5154820071352,-705) translate(81.97743055555556 36.076388888888886)"/></g><path d="M3604-620h24.8M3604.1-620h-4.1" stroke="#136b80" stroke-width="8" fill="none"/><path d="M3647.06-620l-14.27 4.63v-9.26z" stroke="#136b80" stroke-width="8" fill="#136b80"/><path d="M3680-644a6 6 0 0 1 6-6h208a6 6 0 0 1 6 6v48a6 6 0 0 1-6 6h-208a6 6 0 0 1-6-6z" fill="none"/><g><use xlink:href="#D" transform="matrix(1,0,0,1,3680,-650) translate(24.32465277777777 36.076388888888886)"/><use xlink:href="#E" transform="matrix(1,0,0,1,3680,-650) translate(48.951388888888886 36.076388888888886)"/><use xlink:href="#B" transform="matrix(1,0,0,1,3680,-650) translate(123.97743055555556 36.076388888888886)"/></g><defs><path fill="#fff" d="M1245-974c0 302-233 466-552 461H430V0H130v-1456h568c323 5 547 167 547 482zm-303 2c1-143-93-241-237-241H430v457h268c151 1 244-71 244-216" id="F"/><path fill="#fff" d="M719-811c-143-24-279 1-319 103V0H111v-1082h273l8 129c74-124 180-175 331-136" id="G"/><path fill="#fff" d="M579 20C257 20 58-214 66-551c8-331 182-551 511-551 324 0 514 231 514 572 0 319-198 550-512 550zm-2-888c-169 0-222 141-222 338 0 181 61 317 224 317 170 0 223-137 223-338 0-178-64-317-225-317" id="H"/><path fill="#fff" d="M523-759l182-323h309L706-552 1027 0H717L524-340 332 0H21l321-552-307-530h310" id="I"/><path fill="#fff" d="M515-409l200-673h310L590 168c-66 202-236 321-472 250V199c127 7 198-15 230-107l34-89L3-1082h311" id="J"/><path fill="#fff" d="M202 125H-13l536-1581h215" id="K"/><path fill="#fff" d="M668-361l330-1095h334L825 0H512L7-1456h333" id="L"/><path fill="#fff" d="M449 0H149v-1456h300V0" id="M"/><g id="a"><use transform="matrix(0.009765625,0,0,0.009765625,0,0)" xlink:href="#F"/><use transform="matrix(0.009765625,0,0,0.009765625,12.900390625,0)" xlink:href="#G"/><use transform="matrix(0.009765625,0,0,0.009765625,19.84375,0)" xlink:href="#H"/><use transform="matrix(0.009765625,0,0,0.009765625,30.947265625,0)" xlink:href="#I"/><use transform="matrix(0.009765625,0,0,0.009765625,41.123046875,0)" xlink:href="#J"/><use transform="matrix(0.009765625,0,0,0.009765625,51.162109375,0)" xlink:href="#K"/><use transform="matrix(0.009765625,0,0,0.009765625,58.6328125,0)" xlink:href="#L"/><use transform="matrix(0.009765625,0,0,0.009765625,71.708984375,0)" xlink:href="#M"/><use transform="matrix(0.009765625,0,0,0.009765625,77.5390625,0)" xlink:href="#F"/></g><path fill="#333" d="M529-185c94 0 168-33 168-114 0-35-18-63-53-83s-91-39-168-55C219-491 90-600 90-765c0-208 203-337 432-337 246 0 451 124 453 349H686c-2-91-62-143-165-143-86 0-151 41-153 117 0 32 16 57 46 77 63 43 257 69 335 100 151 60 229 153 229 291C978-13 554 93 282-28 162-81 60-190 56-344h274c5 106 86 159 199 159" id="N"/><path fill="#333" d="M1031-175C952-60 797 20 609 20 287 20 60-206 72-543c12-330 180-559 505-559 309 0 482 214 477 537v118H365c15 134 115 234 263 234 111 0 198-40 261-121zM770-644c5-139-62-226-194-224-130 1-191 97-208 224h402" id="O"/><path fill="#333" d="M719-811c-143-24-279 1-319 103V0H111v-1082h273l8 129c74-124 180-175 331-136" id="P"/><path fill="#333" d="M516-353l201-729h302L654 0H378L13-1082h302" id="Q"/><g id="b"><use transform="matrix(0.008680555555555556,0,0,0.008680555555555556,0,0)" xlink:href="#N"/><use transform="matrix(0.008680555555555556,0,0,0.008680555555555556,9.140625,0)" xlink:href="#O"/><use transform="matrix(0.008680555555555556,0,0,0.008680555555555556,18.75,0)" xlink:href="#P"/><use transform="matrix(0.008680555555555556,0,0,0.008680555555555556,25.390625,0)" xlink:href="#Q"/><use transform="matrix(0.008680555555555556,0,0,0.008680555555555556,34.26215277777778,0)" xlink:href="#O"/><use transform="matrix(0.008680555555555556,0,0,0.008680555555555556,43.87152777777778,0)" xlink:href="#P"/></g><path d="M1245-974c0 302-233 466-552 461H430V0H130v-1456h568c323 5 547 167 547 482zm-303 2c1-143-93-241-237-241H430v457h268c151 1 244-71 244-216" id="R"/><path d="M1006-631H430v390h676V0H130v-1456h974v243H430v347h576v235" id="S"/><path d="M522-1456L896-400l372-1056h394V0h-301c-7-379 15-728 30-1085L998 0H792L400-1084c15 357 37 705 30 1084H130v-1456h392" id="T"/><g id="c"><use transform="matrix(0.009765625,0,0,0.009765625,0,0)" xlink:href="#R"/><use transform="matrix(0.009765625,0,0,0.009765625,12.900390625,0)" xlink:href="#S"/><use transform="matrix(0.009765625,0,0,0.009765625,24.150390625,0)" xlink:href="#T"/></g><path d="M952-300H426L326 0H7l542-1456h278L1372 0h-319zM507-543h364l-183-545" id="U"/><path d="M505 20C221 18 69-239 69-549c0-302 153-553 438-553 119 0 211 41 277 122l12-102h262V-36c-8 305-208 458-520 462-160 1-335-76-403-170L263 80c72 81 159 121 262 121 172 1 260-107 243-294C701-18 614 20 505 20zm76-887c-165 0-223 147-223 339 0 172 66 314 221 314 88 0 151-33 189-99v-455c-39-66-101-99-187-99" id="V"/><path d="M1031-175C952-60 797 20 609 20 287 20 60-206 72-543c12-330 180-559 505-559 309 0 482 214 477 537v118H365c15 134 115 234 263 234 111 0 198-40 261-121zM770-644c5-139-62-226-194-224-130 1-191 97-208 224h402" id="W"/><path d="M750-692c-1-124-48-174-173-175-81 0-142 35-183 104V0H105v-1082h272l9 125c77-97 181-145 311-145 244 0 342 151 342 403V0H750v-692" id="X"/><path d="M457-330c2 83 25 111 111 112 32 0 60-2 85-7V-6c-57 17-115 26-175 26-203 0-310-102-310-307v-583H10v-212h158v-266h289v266h185v212H457v540" id="Y"/><g id="d"><use transform="matrix(0.009765625,0,0,0.009765625,0,0)" xlink:href="#U"/><use transform="matrix(0.009765625,0,0,0.009765625,13.45703125,0)" xlink:href="#V"/><use transform="matrix(0.009765625,0,0,0.009765625,24.873046875,0)" xlink:href="#W"/><use transform="matrix(0.009765625,0,0,0.009765625,35.68359375,0)" xlink:href="#X"/><use transform="matrix(0.009765625,0,0,0.009765625,46.884765625,0)" xlink:href="#Y"/></g><path fill="#333" d="M741-689c-2-124-40-177-163-178-82 0-141 34-178 102V0H111v-1082h271l9 121c77-94 180-141 311-141 139 0 235 55 287 165 76-110 184-165 325-165 249 0 348 151 348 411V0h-290v-690c-2-123-39-176-163-177-87 0-147 41-180 124l1 743H741v-689" id="Z"/><path fill="#333" d="M579 20C257 20 58-214 66-551c8-331 182-551 511-551 324 0 514 231 514 572 0 319-198 550-512 550zm-2-888c-169 0-222 141-222 338 0 181 61 317 224 317 170 0 223-137 223-338 0-178-64-317-225-317" id="aa"/><path fill="#333" d="M750-692c-1-124-48-174-173-175-81 0-142 35-183 104V0H105v-1082h272l9 125c77-97 181-145 311-145 244 0 342 151 342 403V0H750v-692" id="ab"/><path fill="#333" d="M416 0H126v-1082h290V0zM271-1212c-92 0-162-61-162-150s68-149 162-149c93 0 162 60 162 149s-70 150-162 150" id="ac"/><path fill="#333" d="M457-330c2 83 25 111 111 112 32 0 60-2 85-7V-6c-57 17-115 26-175 26-203 0-310-102-310-307v-583H10v-212h158v-266h289v266h185v212H457v540" id="ad"/><path fill="#333" d="M505 20C221 18 69-239 69-549c0-302 153-553 438-553 119 0 211 41 277 122l12-102h262V-36c-8 305-208 458-520 462-160 1-335-76-403-170L263 80c72 81 159 121 262 121 172 1 260-107 243-294C701-18 614 20 505 20zm76-887c-165 0-223 147-223 339 0 172 66 314 221 314 88 0 151-33 189-99v-455c-39-66-101-99-187-99" id="ae"/><g id="e"><use transform="matrix(0.008680555555555556,0,0,0.008680555555555556,0,0)" xlink:href="#Z"/><use transform="matrix(0.008680555555555556,0,0,0.008680555555555556,15.390625,0)" xlink:href="#aa"/><use transform="matrix(0.008680555555555556,0,0,0.008680555555555556,25.442708333333336,0)" xlink:href="#ab"/><use transform="matrix(0.008680555555555556,0,0,0.008680555555555556,35.39930555555556,0)" xlink:href="#ac"/><use transform="matrix(0.008680555555555556,0,0,0.008680555555555556,40.11284722222222,0)" xlink:href="#ad"/><use transform="matrix(0.008680555555555556,0,0,0.008680555555555556,45.859375,0)" xlink:href="#aa"/><use transform="matrix(0.008680555555555556,0,0,0.008680555555555556,55.911458333333336,0)" xlink:href="#P"/><use transform="matrix(0.008680555555555556,0,0,0.008680555555555556,62.395833333333336,0)" xlink:href="#ac"/><use transform="matrix(0.008680555555555556,0,0,0.008680555555555556,67.109375,0)" xlink:href="#ab"/><use transform="matrix(0.008680555555555556,0,0,0.008680555555555556,77.06597222222223,0)" xlink:href="#ae"/></g><path fill="#fff" d="M1006-631H430v390h676V0H130v-1456h974v243H430v347h576v235" id="af"/><path fill="#fff" d="M522-1456L896-400l372-1056h394V0h-301c-7-379 15-728 30-1085L998 0H792L400-1084c15 357 37 705 30 1084H130v-1456h392" id="ag"/><g id="f"><use transform="matrix(0.009765625,0,0,0.009765625,0,0)" xlink:href="#F"/><use transform="matrix(0.009765625,0,0,0.009765625,12.900390625,0)" xlink:href="#af"/><use transform="matrix(0.009765625,0,0,0.009765625,24.150390625,0)" xlink:href="#ag"/></g><path fill="#fff" d="M663-1102c295 0 423 246 423 571 0 313-131 551-421 551-117 0-211-45-281-135L371 0H111v-1536h289v551c67-78 154-117 263-117zm-71 889c164 0 209-139 205-339-3-189-44-315-207-315-92 0-155 38-190 113v427c35 76 99 114 192 114" id="ah"/><path fill="#fff" d="M552-1102c254-4 435 134 435 383v469c1 103 15 180 43 233V0H738c-13-26-23-58-29-97C639-19 548 20 436 20 238 20 64-113 68-304c5-258 212-357 496-357h133c11-137-29-227-160-227-90 0-156 45-156 131H92c15-231 213-342 460-345zM357-325c0 76 61 124 142 124 88 0 168-45 198-105v-186H589c-152 2-232 51-232 167" id="ai"/><path fill="#fff" d="M355-556c-2 203 30 338 206 343 102 3 181-63 182-161h271C1001-128 821 17 566 20 242 24 66-212 66-554c0-320 184-548 498-548 262 0 451 167 450 423H743c-1-108-75-193-184-189-162 6-202 123-204 312" id="aj"/><path fill="#fff" d="M504-434L400-330V0H111v-1536h289v851c106-137 222-264 333-397h347L689-631 1114 0H782" id="ak"/><path fill="#fff" d="M1031-175C952-60 797 20 609 20 287 20 60-206 72-543c12-330 180-559 505-559 309 0 482 214 477 537v118H365c15 134 115 234 263 234 111 0 198-40 261-121zM770-644c5-139-62-226-194-224-130 1-191 97-208 224h402" id="al"/><path fill="#fff" d="M750-692c-1-124-48-174-173-175-81 0-142 35-183 104V0H105v-1082h272l9 125c77-97 181-145 311-145 244 0 342 151 342 403V0H750v-692" id="am"/><path fill="#fff" d="M488 20C204 20 66-234 66-549c0-305 140-551 424-553 105 0 192 39 261 118v-552h290V0H780l-14-115C694-25 601 20 488 20zM355-528c0 176 51 314 207 314 89 0 152-38 189-113v-427c-36-75-98-113-187-113-139 0-209 113-209 339" id="an"/><g id="g"><use transform="matrix(0.009765625,0,0,0.009765625,0,0)" xlink:href="#ah"/><use transform="matrix(0.009765625,0,0,0.009765625,11.259765625,0)" xlink:href="#ai"/><use transform="matrix(0.009765625,0,0,0.009765625,21.982421875,0)" xlink:href="#aj"/><use transform="matrix(0.009765625,0,0,0.009765625,32.412109375,0)" xlink:href="#ak"/><use transform="matrix(0.009765625,0,0,0.009765625,42.900390625,0)" xlink:href="#al"/><use transform="matrix(0.009765625,0,0,0.009765625,53.7109375,0)" xlink:href="#am"/><use transform="matrix(0.009765625,0,0,0.009765625,64.912109375,0)" xlink:href="#an"/></g><path fill="#28495a" d="M658-217c127 0 227-49 227-165 0-57-21-98-60-130-79-64-370-142-463-196-162-95-248-210-248-361 0-280 246-403 537-407 213-3 383 84 467 216 45 69 68 147 68 234H886c0-139-96-211-240-211-129 0-232 55-232 169 0 47 24 87 72 119s117 62 210 90c171 51 295 115 373 191s117 171 117 284c-2 272-237 411-528 404C331 13 78-135 69-458h301c0 161 96 241 288 241" id="ao"/><path fill="#28495a" d="M1031-175C952-60 797 20 609 20 287 20 60-206 72-543c12-330 180-559 505-559 309 0 482 214 477 537v118H365c15 134 115 234 263 234 111 0 198-40 261-121zM770-644c5-139-62-226-194-224-130 1-191 97-208 224h402" id="ap"/><path fill="#28495a" d="M719-811c-143-24-279 1-319 103V0H111v-1082h273l8 129c74-124 180-175 331-136" id="aq"/><path fill="#28495a" d="M516-353l201-729h302L654 0H378L13-1082h302" id="ar"/><g id="h"><use transform="matrix(0.009765625,0,0,0.009765625,0,0)" xlink:href="#ao"/><use transform="matrix(0.009765625,0,0,0.009765625,12.294921875,0)" xlink:href="#ap"/><use transform="matrix(0.009765625,0,0,0.009765625,23.10546875,0)" xlink:href="#aq"/><use transform="matrix(0.009765625,0,0,0.009765625,30.576171875,0)" xlink:href="#ar"/><use transform="matrix(0.009765625,0,0,0.009765625,40.556640625,0)" xlink:href="#ap"/><use transform="matrix(0.009765625,0,0,0.009765625,51.3671875,0)" xlink:href="#aq"/></g><path fill="#28495a" d="M952-300H426L326 0H7l542-1456h278L1372 0h-319zM507-543h364l-183-545" id="as"/><use transform="matrix(0.009765625,0,0,0.009765625,0,0)" xlink:href="#as" id="i"/><path fill="#28495a" d="M1212-428C1211-131 1004 0 696 0H130v-1456h510c318-1 539 108 539 399 0 155-89 264-208 308 141 33 242 151 241 321zM687-241c132 2 225-65 225-190 0-133-69-203-207-203H430v393h257zm192-786c0-145-86-186-239-186H430v367h222c151-3 227-63 227-181" id="at"/><use transform="matrix(0.009765625,0,0,0.009765625,0,0)" xlink:href="#at" id="j"/><path fill="#28495a" d="M687-225c189-1 272-84 286-260h300c-19 311-251 505-586 505C296 20 86-277 86-686c0-466 174-782 605-790 340-6 557 198 584 514H975c-15-183-92-268-284-268-100 0-173 38-225 108-63 84-76 264-76 443 0 157 24 272 72 345s122 109 225 109" id="au"/><use transform="matrix(0.009765625,0,0,0.009765625,0,0)" xlink:href="#au" id="k"/><path fill="#fff" d="M1315 0h-300v-624H430V0H130v-1456h300v590h585v-590h300V0" id="av"/><path fill="#fff" d="M1226-1213H780V0H480v-1213H40v-243h1186v243" id="aw"/><g id="l"><use transform="matrix(0.010850694444444444,0,0,0.010850694444444444,0,0)" xlink:href="#av"/><use transform="matrix(0.010850694444444444,0,0,0.010850694444444444,15.386284722222221,0)" xlink:href="#aw"/><use transform="matrix(0.010850694444444444,0,0,0.010850694444444444,29.307725694444443,0)" xlink:href="#aw"/><use transform="matrix(0.010850694444444444,0,0,0.010850694444444444,43.05555555555556,0)" xlink:href="#F"/></g><path fill="#fff" d="M416 0H126v-1536h290V0" id="ax"/><path fill="#fff" d="M416 0H126v-1082h290V0zM271-1212c-92 0-162-61-162-150s68-149 162-149c93 0 162 60 162 149s-70 150-162 150" id="ay"/><path fill="#fff" d="M457-330c2 83 25 111 111 112 32 0 60-2 85-7V-6c-57 17-115 26-175 26-203 0-310-102-310-307v-583H10v-212h158v-266h289v266h185v212H457v540" id="az"/><path fill="#fff" d="M529-185c94 0 168-33 168-114 0-35-18-63-53-83s-91-39-168-55C219-491 90-600 90-765c0-208 203-337 432-337 246 0 451 124 453 349H686c-2-91-62-143-165-143-86 0-151 41-153 117 0 32 16 57 46 77 63 43 257 69 335 100 151 60 229 153 229 291C978-13 554 93 282-28 162-81 60-190 56-344h274c5 106 86 159 199 159" id="aA"/><g id="m"><use transform="matrix(0.010850694444444444,0,0,0.010850694444444444,0,0)" xlink:href="#aj"/><use transform="matrix(0.010850694444444444,0,0,0.010850694444444444,11.588541666666666,0)" xlink:href="#ax"/><use transform="matrix(0.010850694444444444,0,0,0.010850694444444444,17.48046875,0)" xlink:href="#ay"/><use transform="matrix(0.010850694444444444,0,0,0.010850694444444444,23.372395833333332,0)" xlink:href="#al"/><use transform="matrix(0.010850694444444444,0,0,0.010850694444444444,35.38411458333333,0)" xlink:href="#am"/><use transform="matrix(0.010850694444444444,0,0,0.010850694444444444,47.82986111111111,0)" xlink:href="#az"/><use transform="matrix(0.010850694444444444,0,0,0.010850694444444444,55.338541666666664,0)" xlink:href="#aA"/></g><path d="M529-185c94 0 168-33 168-114 0-35-18-63-53-83s-91-39-168-55C219-491 90-600 90-765c0-208 203-337 432-337 246 0 451 124 453 349H686c-2-91-62-143-165-143-86 0-151 41-153 117 0 32 16 57 46 77 63 43 257 69 335 100 151 60 229 153 229 291C978-13 554 93 282-28 162-81 60-190 56-344h274c5 106 86 159 199 159" id="aB"/><g id="n"><use transform="matrix(0.009765625,0,0,0.009765625,0,0)" xlink:href="#U"/><use transform="matrix(0.009765625,0,0,0.009765625,13.45703125,0)" xlink:href="#V"/><use transform="matrix(0.009765625,0,0,0.009765625,24.873046875,0)" xlink:href="#W"/><use transform="matrix(0.009765625,0,0,0.009765625,35.68359375,0)" xlink:href="#X"/><use transform="matrix(0.009765625,0,0,0.009765625,46.884765625,0)" xlink:href="#Y"/><use transform="matrix(0.009765625,0,0,0.009765625,53.642578125,0)" xlink:href="#aB"/></g><g id="o"><use transform="matrix(0.009765625,0,0,0.009765625,0,0)" xlink:href="#F"/><use transform="matrix(0.009765625,0,0,0.009765625,12.900390625,0)" xlink:href="#af"/><use transform="matrix(0.009765625,0,0,0.009765625,24.150390625,0)" xlink:href="#ag"/></g><path fill="#fff" d="M1264-420l196-1036h299L1436 0h-302L897-974 660 0H358L35-1456h299L531-422l240-1034h254" id="aC"/><g id="p"><use transform="matrix(0.009765625,0,0,0.009765625,0,0)" xlink:href="#aC"/><use transform="matrix(0.009765625,0,0,0.009765625,17.1875,0)" xlink:href="#al"/><use transform="matrix(0.009765625,0,0,0.009765625,27.998046875,0)" xlink:href="#ah"/></g><path fill="#fff" d="M952-300H426L326 0H7l542-1456h278L1372 0h-319zM507-543h364l-183-545" id="aD"/><path fill="#fff" d="M663-1102c295 0 422 250 422 571 0 300-141 549-420 551-109 0-198-38-265-114v510H111v-1498h268l10 106c70-84 161-126 274-126zm133 550c0-175-53-315-209-315-91 0-153 35-187 104v443c35 71 98 107 189 107 138 0 207-113 207-339" id="aE"/><g id="q"><use transform="matrix(0.009765625,0,0,0.009765625,0,0)" xlink:href="#aD"/><use transform="matrix(0.009765625,0,0,0.009765625,13.45703125,0)" xlink:href="#aE"/><use transform="matrix(0.009765625,0,0,0.009765625,24.716796875,0)" xlink:href="#aE"/><use transform="matrix(0.009765625,0,0,0.009765625,35.9765625,0)" xlink:href="#ax"/><use transform="matrix(0.009765625,0,0,0.009765625,41.279296875,0)" xlink:href="#ay"/><use transform="matrix(0.009765625,0,0,0.009765625,46.58203125,0)" xlink:href="#aj"/><use transform="matrix(0.009765625,0,0,0.009765625,57.01171875,0)" xlink:href="#ai"/><use transform="matrix(0.009765625,0,0,0.009765625,67.734375,0)" xlink:href="#az"/><use transform="matrix(0.009765625,0,0,0.009765625,74.4921875,0)" xlink:href="#ay"/><use transform="matrix(0.009765625,0,0,0.009765625,79.794921875,0)" xlink:href="#H"/><use transform="matrix(0.009765625,0,0,0.009765625,91.103515625,0)" xlink:href="#am"/></g><path fill="#28495a" d="M651-954l273-502h345L845-734 1280 0H931L651-510 371 0H22l435-734-424-722h345" id="aF"/><use transform="matrix(0.009765625,0,0,0.009765625,0,0)" xlink:href="#aF" id="r"/><path fill="#333" d="M572 22C302 22 117-98 78-306l279-48c29 105 101 156 224 156 114 0 185-48 185-115 0-118-228-130-337-155-215-49-322-150-322-317 0-215 187-347 470-347 265 0 424 116 466 298l-266 47c-24-76-87-130-196-130-98 0-174 46-174 113 0 56 38 95 144 117l201 40c216 44 320 143 320 302 0 220-207 367-500 367" id="aG"/><path fill="#333" d="M633 22C291 22 81-200 81-553c0-345 210-579 537-579 292 0 525 185 525 567v84H378c7 183 109 277 260 277 105 0 184-46 216-132l272 51C1071-99 893 22 633 22zM380-669h474c-15-146-94-237-233-237-143 0-229 99-241 237" id="aH"/><path fill="#333" d="M128 0v-1118h290v195h12c54-169 184-238 367-200v268c-27-8-86-15-130-15-138 0-239 95-239 234V0H128" id="aI"/><path fill="#333" d="M443 0L31-1118h319c90 293 199 572 268 885 66-313 175-593 264-885h315L784 0H443" id="aJ"/><g id="s"><use transform="matrix(0.008680555555555556,0,0,0.008680555555555556,0,0)" xlink:href="#aG"/><use transform="matrix(0.008680555555555556,0,0,0.008680555555555556,9.956597222222223,0)" xlink:href="#aH"/><use transform="matrix(0.008680555555555556,0,0,0.008680555555555556,20.546875,0)" xlink:href="#aI"/><use transform="matrix(0.008680555555555556,0,0,0.008680555555555556,28.06423611111111,0)" xlink:href="#aJ"/><use transform="matrix(0.008680555555555556,0,0,0.008680555555555556,38.40277777777778,0)" xlink:href="#aH"/><use transform="matrix(0.008680555555555556,0,0,0.008680555555555556,48.99305555555556,0)" xlink:href="#aI"/></g><path fill="#28495a" d="M632-800l303-656h328L785-528V0H480v-528L2-1456h329" id="aK"/><use transform="matrix(0.009765625,0,0,0.009765625,0,0)" xlink:href="#aK" id="t"/><path fill="#28495a" d="M448-241h734V0H73v-176l720-1037H74v-243h1092v172" id="aL"/><use transform="matrix(0.009765625,0,0,0.009765625,0,0)" xlink:href="#aL" id="u"/><path fill="#439e9f" d="M1245-974c0 302-233 466-552 461H430V0H130v-1456h568c323 5 547 167 547 482zm-303 2c1-143-93-241-237-241H430v457h268c151 1 244-71 244-216" id="aM"/><path fill="#439e9f" d="M1006-631H430v390h676V0H130v-1456h974v243H430v347h576v235" id="aN"/><path fill="#439e9f" d="M522-1456L896-400l372-1056h394V0h-301c-7-379 15-728 30-1085L998 0H792L400-1084c15 357 37 705 30 1084H130v-1456h392" id="aO"/><g id="v"><use transform="matrix(0.009765625,0,0,0.009765625,0,0)" xlink:href="#aM"/><use transform="matrix(0.009765625,0,0,0.009765625,12.900390625,0)" xlink:href="#aN"/><use transform="matrix(0.009765625,0,0,0.009765625,24.150390625,0)" xlink:href="#aO"/></g><path fill="#439e9f" d="M687-225c189-1 272-84 286-260h300c-19 311-251 505-586 505C296 20 86-277 86-686c0-466 174-782 605-790 340-6 557 198 584 514H975c-15-183-92-268-284-268-100 0-173 38-225 108-63 84-76 264-76 443 0 157 24 272 72 345s122 109 225 109" id="aP"/><path fill="#439e9f" d="M416 0H126v-1536h290V0" id="aQ"/><path fill="#439e9f" d="M463 20c-241-1-359-147-359-393v-709h289v699c0 113 51 169 154 169 98 0 165-34 202-102v-766h290V0H767l-8-110C688-23 589 20 463 20" id="aR"/><path fill="#439e9f" d="M529-185c94 0 168-33 168-114 0-35-18-63-53-83s-91-39-168-55C219-491 90-600 90-765c0-208 203-337 432-337 246 0 451 124 453 349H686c-2-91-62-143-165-143-86 0-151 41-153 117 0 32 16 57 46 77 63 43 257 69 335 100 151 60 229 153 229 291C978-13 554 93 282-28 162-81 60-190 56-344h274c5 106 86 159 199 159" id="aS"/><path fill="#439e9f" d="M457-330c2 83 25 111 111 112 32 0 60-2 85-7V-6c-57 17-115 26-175 26-203 0-310-102-310-307v-583H10v-212h158v-266h289v266h185v212H457v540" id="aT"/><path fill="#439e9f" d="M1031-175C952-60 797 20 609 20 287 20 60-206 72-543c12-330 180-559 505-559 309 0 482 214 477 537v118H365c15 134 115 234 263 234 111 0 198-40 261-121zM770-644c5-139-62-226-194-224-130 1-191 97-208 224h402" id="aU"/><path fill="#439e9f" d="M719-811c-143-24-279 1-319 103V0H111v-1082h273l8 129c74-124 180-175 331-136" id="aV"/><g id="w"><use transform="matrix(0.009765625,0,0,0.009765625,0,0)" xlink:href="#aP"/><use transform="matrix(0.009765625,0,0,0.009765625,13.0859375,0)" xlink:href="#aQ"/><use transform="matrix(0.009765625,0,0,0.009765625,18.388671875,0)" xlink:href="#aR"/><use transform="matrix(0.009765625,0,0,0.009765625,29.580078125,0)" xlink:href="#aS"/><use transform="matrix(0.009765625,0,0,0.009765625,39.86328125,0)" xlink:href="#aT"/><use transform="matrix(0.009765625,0,0,0.009765625,46.62109375,0)" xlink:href="#aU"/><use transform="matrix(0.009765625,0,0,0.009765625,57.431640625,0)" xlink:href="#aV"/></g><path fill="#439e9f" d="M579 20C257 20 58-214 66-551c8-331 182-551 511-551 324 0 514 231 514 572 0 319-198 550-512 550zm-2-888c-169 0-222 141-222 338 0 181 61 317 224 317 170 0 223-137 223-338 0-178-64-317-225-317" id="aW"/><path fill="#439e9f" d="M741-689c-2-124-40-177-163-178-82 0-141 34-178 102V0H111v-1082h271l9 121c77-94 180-141 311-141 139 0 235 55 287 165 76-110 184-165 325-165 249 0 348 151 348 411V0h-290v-690c-2-123-39-176-163-177-87 0-147 41-180 124l1 743H741v-689" id="aX"/><g id="x"><use transform="matrix(0.009765625,0,0,0.009765625,0,0)" xlink:href="#aP"/><use transform="matrix(0.009765625,0,0,0.009765625,13.0859375,0)" xlink:href="#aR"/><use transform="matrix(0.009765625,0,0,0.009765625,24.27734375,0)" xlink:href="#aS"/><use transform="matrix(0.009765625,0,0,0.009765625,34.560546875,0)" xlink:href="#aT"/><use transform="matrix(0.009765625,0,0,0.009765625,41.025390625,0)" xlink:href="#aW"/><use transform="matrix(0.009765625,0,0,0.009765625,52.333984375,0)" xlink:href="#aX"/><use transform="matrix(0.009765625,0,0,0.009765625,69.6484375,0)" xlink:href="#aU"/><use transform="matrix(0.009765625,0,0,0.009765625,80.458984375,0)" xlink:href="#aV"/></g><path fill="#439e9f" d="M750-692c-1-124-48-174-173-175-81 0-142 35-183 104V0H105v-1082h272l9 125c77-97 181-145 311-145 244 0 342 151 342 403V0H750v-692" id="aY"/><path fill="#439e9f" d="M1052-393l142-689h279L1197 0H955L750-681 545 0H304L28-1082h279l141 688 198-688h209" id="aZ"/><path fill="#439e9f" d="M504-434L400-330V0H111v-1536h289v851c106-137 222-264 333-397h347L689-631 1114 0H782" id="ba"/><g id="y"><use transform="matrix(0.009765625,0,0,0.009765625,0,0)" xlink:href="#aY"/><use transform="matrix(0.009765625,0,0,0.009765625,11.201171875,0)" xlink:href="#aU"/><use transform="matrix(0.009765625,0,0,0.009765625,22.01171875,0)" xlink:href="#aT"/><use transform="matrix(0.009765625,0,0,0.009765625,28.76953125,0)" xlink:href="#aZ"/><use transform="matrix(0.009765625,0,0,0.009765625,43.466796875,0)" xlink:href="#aW"/><use transform="matrix(0.009765625,0,0,0.009765625,54.775390625,0)" xlink:href="#aV"/><use transform="matrix(0.009765625,0,0,0.009765625,62.0703125,0)" xlink:href="#ba"/></g><filter id="z" filterUnits="objectBoundingBox" x="-.03" y="-.02" width="1.06" height="1.11"><feOffset result="offOut" in="SourceAlpha" dy="6"/><feGaussianBlur result="blurOut" in="offOut" stdDeviation="5"/><feColorMatrix result="colorOut" in="blurOut" values="0 0 0 0 0 0 0 0 0 0 0 0 0 0 0 0 0 0 0.5019607843137255 0"/><feBlend in="SourceGraphic" in2="colorOut"/></filter><path d="M1288 0h-193v-673H361V0H169v-1456h192v626h734v-626h193V0" id="bb"/><path d="M1175-1298H707V0H516v-1298H49v-158h1126v158" id="bc"/><path d="M1216-1011c-1 297-202 441-512 441H361V0H169v-1456h537c297-6 510 164 510 445zm-192 2c1-178-126-288-307-289H361v571h345c196 1 318-92 318-282" id="bd"/><g id="A"><use transform="matrix(0.008680555555555556,0,0,0.008680555555555556,0,0)" xlink:href="#bb"/><use transform="matrix(0.008680555555555556,0,0,0.008680555555555556,12.421875000000002,0)" xlink:href="#bc"/><use transform="matrix(0.008680555555555556,0,0,0.008680555555555556,23.16840277777778,0)" xlink:href="#bc"/><use transform="matrix(0.008680555555555556,0,0,0.008680555555555556,33.77604166666667,0)" xlink:href="#bd"/></g><path d="M277-555c0 244 77 420 297 424 127 2 249-93 255-210h175C980-127 805 20 574 20 258 20 81-222 92-562c11-319 164-533 481-540 237-5 426 165 431 392H829c-7-133-115-242-256-240-209 4-296 166-296 395" id="be"/><path d="M584 20C278 26 81-227 91-551c10-320 175-545 491-551 308-5 503 247 494 573-9 322-175 543-492 549zm-2-970c-208 0-305 185-305 421 0 216 106 398 307 398 211 0 307-186 307-420 0-214-109-399-309-399" id="bf"/><path d="M589-945c-131 0-219 81-264 174V0H140v-1082h175l6 136c83-104 191-156 324-156 229 0 346 129 346 387V0H806v-716c-2-153-65-229-217-229" id="bg"/><path d="M599-131c141 0 220-65 285-146l113 88C906-50 770 20 589 20 281 21 93-214 93-545c0-223 93-397 233-485 74-48 154-72 240-72 300 2 449 218 445 537v77H278c0 197 129 357 321 357zm227-509c-3-180-88-310-260-310-170 0-264 140-282 310h542" id="bh"/><path d="M456 20C285 20 205-92 206-268v-671H9v-143h197v-262h185v262h202v143H391v671c-9 125 92 149 207 118V0c-49 13-96 20-142 20" id="bi"/><path d="M341 0H156v-1082h185V0zm-91-1264c-68 0-108-42-109-105 0-62 41-107 109-107s110 44 110 107-42 105-110 105" id="bj"/><path d="M538-131c121 0 232-49 232-156 0-50-20-88-56-117-73-60-334-92-420-143-92-55-162-110-162-238 0-190 192-317 400-317 223 0 414 129 413 338H759c0-108-110-186-227-186-119 0-215 53-215 159 0 45 18 78 53 101 76 52 331 90 416 139 98 57 169 115 169 251C955-92 760 20 538 20c-176 0-314-68-386-174-38-55-57-115-57-179h185c6 129 116 202 258 202" id="bk"/><g id="B"><use transform="matrix(0.008680555555555556,0,0,0.008680555555555556,0,0)" xlink:href="#be"/><use transform="matrix(0.008680555555555556,0,0,0.008680555555555556,9.305555555555555,0)" xlink:href="#bf"/><use transform="matrix(0.008680555555555556,0,0,0.008680555555555556,19.444444444444443,0)" xlink:href="#bg"/><use transform="matrix(0.008680555555555556,0,0,0.008680555555555556,29.253472222222218,0)" xlink:href="#bg"/><use transform="matrix(0.008680555555555556,0,0,0.008680555555555556,39.0625,0)" xlink:href="#bh"/><use transform="matrix(0.008680555555555556,0,0,0.008680555555555556,48.48090277777778,0)" xlink:href="#be"/><use transform="matrix(0.008680555555555556,0,0,0.008680555555555556,57.786458333333336,0)" xlink:href="#bi"/><use transform="matrix(0.008680555555555556,0,0,0.008680555555555556,63.59375,0)" xlink:href="#bj"/><use transform="matrix(0.008680555555555556,0,0,0.008680555555555556,67.90798611111111,0)" xlink:href="#bf"/><use transform="matrix(0.008680555555555556,0,0,0.008680555555555556,78.046875,0)" xlink:href="#bg"/><use transform="matrix(0.008680555555555556,0,0,0.008680555555555556,87.85590277777777,0)" xlink:href="#bk"/></g><path d="M521 20C240 20 96-239 96-550c0-303 147-552 427-552 132 0 235 47 309 140l9-120h169V-26c4 277-183 454-459 452-165-1-334-81-400-187l96-111c79 98 176 147 291 147 180 1 288-109 286-290v-93C750-23 649 20 521 20zm48-965c-209 0-287 178-287 416 0 217 86 392 285 392 117 0 202-53 257-159v-494c-57-103-142-155-255-155" id="bl"/><path d="M663-916c-163-27-288 18-338 148V0H140v-1082h180l3 125c61-97 147-145 258-145 36 0 63 5 82 14v172" id="bm"/><g id="C"><use transform="matrix(0.008680555555555556,0,0,0.008680555555555556,0,0)" xlink:href="#bd"/><use transform="matrix(0.008680555555555556,0,0,0.008680555555555556,11.102430555555557,0)" xlink:href="#bf"/><use transform="matrix(0.008680555555555556,0,0,0.008680555555555556,21.241319444444446,0)" xlink:href="#bk"/><use transform="matrix(0.008680555555555556,0,0,0.008680555555555556,30.40798611111111,0)" xlink:href="#bi"/><use transform="matrix(0.008680555555555556,0,0,0.008680555555555556,36.21527777777778,0)" xlink:href="#bl"/><use transform="matrix(0.008680555555555556,0,0,0.008680555555555556,46.189236111111114,0)" xlink:href="#bm"/><use transform="matrix(0.008680555555555556,0,0,0.008680555555555556,52.03993055555556,0)" xlink:href="#bh"/><use transform="matrix(0.008680555555555556,0,0,0.008680555555555556,61.458333333333336,0)" xlink:href="#bk"/></g><path d="M973-380H363L226 0H28l556-1456h168L1309 0h-197zM421-538h495l-248-681" id="bn"/><path d="M341 0H156v-1536h185V0" id="bo"/><g id="D"><use transform="matrix(0.008680555555555556,0,0,0.008680555555555556,0,0)" xlink:href="#bn"/><use transform="matrix(0.008680555555555556,0,0,0.008680555555555556,11.597222222222223,0)" xlink:href="#bo"/><use transform="matrix(0.008680555555555556,0,0,0.008680555555555556,15.911458333333336,0)" xlink:href="#bo"/></g><g id="E"><use transform="matrix(0.008680555555555556,0,0,0.008680555555555556,0,0)" xlink:href="#bd"/><use transform="matrix(0.008680555555555556,0,0,0.008680555555555556,11.102430555555557,0)" xlink:href="#bf"/><use transform="matrix(0.008680555555555556,0,0,0.008680555555555556,21.241319444444446,0)" xlink:href="#bk"/><use transform="matrix(0.008680555555555556,0,0,0.008680555555555556,30.40798611111111,0)" xlink:href="#bi"/><use transform="matrix(0.008680555555555556,0,0,0.008680555555555556,36.21527777777778,0)" xlink:href="#bl"/><use transform="matrix(0.008680555555555556,0,0,0.008680555555555556,46.189236111111114,0)" xlink:href="#bm"/><use transform="matrix(0.008680555555555556,0,0,0.008680555555555556,52.03993055555556,0)" xlink:href="#bh"/><use transform="matrix(0.008680555555555556,0,0,0.008680555555555556,61.458333333333336,0)" xlink:href="#bk"/></g></defs></g></svg>