<?xml version="1.0" encoding="utf-8"?>
<!-- Generator: Adobe Illustrator 23.0.2, SVG Export Plug-In . SVG Version: 6.00 Build 0)  -->
<svg version="1.1" id="Layer_1" xmlns="http://www.w3.org/2000/svg" xmlns:xlink="http://www.w3.org/1999/xlink" x="0px" y="0px"
	 viewBox="0 0 378.1 84" style="enable-background:new 0 0 378.1 84;" xml:space="preserve">
<style type="text/css">
	.st0{fill:url(#SVGID_1_);}
	.st1{clip-path:url(#SVGID_3_);}
	.st2{fill:#FAA31A;}
	.st3{fill:#EC7224;}
	.st4{fill:#E74B24;}
	.st5{opacity:0.1;fill:#FFFFFF;enable-background:new    ;}
	.st6{enable-background:new    ;}
	.st7{fill:#231F20;}
	.st8{fill:#EC7325;}
</style>
<title>logo</title>
<g>
	<g id="color">
		
			<linearGradient id="SVGID_1_" gradientUnits="userSpaceOnUse" x1="61.3484" y1="122.9829" x2="124.2784" y2="29.4729" gradientTransform="matrix(1 0 0 -1 0 91.8542)">
			<stop  offset="0" style="stop-color:#676767"/>
			<stop  offset="1" style="stop-color:#010101"/>
		</linearGradient>
		<path class="st0" d="M53.1,81.5V0.3h28.8c28.8,0,43.3,13.2,43.3,39.6c0,12.7-3.9,22.8-11.8,30.3S95,81.5,81.9,81.5H53.1z
			 M71.4,15.2v51.5h9.1c7.9,0,14.1-2.4,18.7-7.1c4.5-4.8,6.8-11.2,6.8-19.4c0-7.7-2.2-13.8-6.7-18.3s-10.7-6.7-18.8-6.7H71.4z
			 M117.9,81.5V0.3h29.6c9.1,0,16,1.7,20.9,5c4.7,3.1,7.5,8.4,7.3,14c0,4.3-1.5,8.4-4.4,11.5c-3,3.3-7,5.7-11.4,6.9v0.3
			c5.8,0.7,10.4,2.9,13.8,6.4c3.4,3.4,5.3,8.1,5.2,13c0,7.4-2.7,13.3-8,17.7c-5.3,4.4-12.6,6.5-21.8,6.5L117.9,81.5z M136.2,13.8V33
			h8c3.8,0,6.8-0.9,8.9-2.8c2.2-1.9,3.4-4.7,3.3-7.5c0-6-4.5-9-13.4-9L136.2,13.8z M136.2,46.6V68h9.9c4.2,0,7.5-1,9.9-3
			c2.4-2,3.7-4.9,3.6-8c0.1-3-1.2-5.8-3.5-7.6c-2.4-1.9-5.7-2.8-9.9-2.8L136.2,46.6z"/>
		<g>
			<defs>
				<polygon id="SVGID_2_" points="47.6,81.5 0.6,81.5 0.6,0.3 47.4,0.3 47.4,15.2 18.9,15.2 18.9,33.2 45.4,33.2 45.4,48.1 
					18.9,48.1 18.9,66.6 47.6,66.6 				"/>
			</defs>
			<clipPath id="SVGID_3_">
				<use xlink:href="#SVGID_2_"  style="overflow:visible;"/>
			</clipPath>
			<g class="st1">
				<path class="st2" d="M29.2-15.9c-27.1,0-50,20-53.6,46.8c4.4-1.1,9-1.7,13.5-1.7c2.2,0,4.4,0.1,6.6,0.4c1.6,0.2,3.2,0.5,4.8,0.8
					c3.2,0.7,6.3,1.7,9.4,2.9c3.4-10.3,9.8-19.4,18.5-26c1.6-1.2,3.3-2.4,5-3.4c8.4-5.1,18.1-7.8,28-7.8c0.7,0,1.3,0,2,0.1
					C53.7-11.7,41.6-16,29.2-15.9z"/>
				<path class="st3" d="M9.7,66.8c-0.7-2.1-1.2-4.3-1.6-6.5c-1.7-9-1.1-18.3,1.8-27c-3-1.3-6.2-2.2-9.4-2.9
					c-1.6-0.3-3.2-0.6-4.8-0.8c-2.2-0.3-4.4-0.4-6.6-0.4c-4.6,0-9.1,0.6-13.5,1.7c-0.3,2.4-0.5,4.9-0.5,7.3c0,29.1,23,53,52.1,54.1
					C19,85.6,13,76.8,9.7,66.8z"/>
				<path class="st3" d="M63.3-3.9c-0.7,0-1.3-0.1-2-0.1c-9.9,0-19.6,2.7-28,7.8c-1.7,1-3.4,2.2-5,3.4c-8.6,6.6-15.1,15.7-18.5,26
					c5,2,9.6,4.8,13.7,8.2c4.8,4,9,8.8,12.2,14.2c2,3.3,3.5,6.8,4.8,10.4c0.5,1.4,0.9,2.8,1.3,4.3c1,4.2,1.5,8.5,1.5,12.9
					c0,2.4-0.2,4.9-0.5,7.3c28.9-7.5,46.4-37,38.9-65.9C78.7,13.4,72.3,3.4,63.3-3.9z"/>
				<path class="st4" d="M41.7,70.4c-0.4-1.5-0.8-2.9-1.3-4.3c-1.2-3.6-2.8-7.1-4.8-10.4c-3.2-5.4-7.3-10.2-12.2-14.2
					c-4.1-3.4-8.7-6.2-13.6-8.2c-2.9,8.7-3.5,18-1.8,27c0.4,2.2,1,4.3,1.6,6.5c3.2,10,9.3,18.9,17.5,25.5c0.7,0,1.3,0.1,2,0.1
					c4.6,0,9.1-0.6,13.5-1.7c0.3-2.4,0.5-4.9,0.5-7.3C43.2,78.9,42.7,74.6,41.7,70.4z"/>
				
					<rect x="-30.1" y="-30.2" transform="matrix(0.9008 -0.4343 0.4343 0.9008 3.2122 29.5863)" class="st5" width="192.9" height="75.9"/>
			</g>
		</g>
	</g>
	<g class="st6">
		<path class="st7" d="M200.7,28.7c2.6,0,4.6,0.7,5.9,2s2,3.2,2,5.6c0,2.4-0.7,4.3-2,5.6c-1.3,1.3-3.3,2-5.9,2h-7.8v10.5h-3.4V28.7
			H200.7z M199.5,41c1.9,0,3.4-0.4,4.3-1.2c0.9-0.8,1.3-2,1.3-3.5c0-1.5-0.5-2.7-1.3-3.5c-0.9-0.8-2.3-1.2-4.3-1.2h-6.7V41H199.5z"
			/>
		<path class="st7" d="M212.1,36.5c0.5-1.6,1.3-3.1,2.3-4.3c1-1.2,2.3-2.2,3.9-3c1.5-0.7,3.3-1.1,5.4-1.1s3.8,0.4,5.4,1.1
			c1.5,0.7,2.8,1.7,3.9,3s1.8,2.7,2.3,4.3c0.5,1.6,0.8,3.3,0.8,5.1s-0.3,3.4-0.8,5.1c-0.5,1.6-1.3,3.1-2.3,4.3c-1,1.2-2.3,2.2-3.9,3
			c-1.5,0.7-3.3,1.1-5.4,1.1s-3.8-0.4-5.4-1.1c-1.5-0.7-2.8-1.7-3.9-3c-1-1.2-1.8-2.7-2.3-4.3c-0.5-1.6-0.8-3.3-0.8-5.1
			S211.5,38.1,212.1,36.5z M215.2,45.4c0.3,1.3,0.9,2.4,1.6,3.4c0.7,1,1.6,1.8,2.8,2.4c1.1,0.6,2.5,0.9,4,0.9c1.6,0,2.9-0.3,4-0.9
			c1.1-0.6,2.1-1.4,2.8-2.4c0.7-1,1.2-2.1,1.6-3.4c0.3-1.3,0.5-2.5,0.5-3.8c0-1.3-0.2-2.6-0.5-3.8c-0.3-1.3-0.9-2.4-1.6-3.4
			c-0.7-1-1.6-1.8-2.8-2.4c-1.1-0.6-2.5-0.9-4-0.9c-1.6,0-2.9,0.3-4,0.9c-1.1,0.6-2.1,1.4-2.8,2.4c-0.7,1-1.2,2.1-1.6,3.4
			c-0.3,1.3-0.5,2.5-0.5,3.8C214.7,42.8,214.9,44.1,215.2,45.4z"/>
		<path class="st7" d="M253,32.2c-1.1-0.8-2.6-1.2-4.4-1.2c-0.7,0-1.4,0.1-2.1,0.2c-0.7,0.1-1.3,0.4-1.9,0.7s-1,0.8-1.3,1.3
			c-0.3,0.6-0.5,1.3-0.5,2.1c0,0.8,0.2,1.4,0.7,1.9c0.5,0.5,1.1,0.9,1.9,1.2c0.8,0.3,1.7,0.6,2.6,0.8c1,0.2,2,0.4,3,0.7
			c1,0.2,2,0.5,3,0.8c1,0.3,1.9,0.8,2.6,1.3c0.8,0.6,1.4,1.2,1.9,2.1c0.5,0.8,0.7,1.9,0.7,3.2c0,1.4-0.3,2.5-0.9,3.5
			s-1.4,1.8-2.4,2.4c-1,0.6-2,1.1-3.2,1.3c-1.2,0.3-2.4,0.4-3.5,0.4c-1.4,0-2.8-0.2-4.1-0.5c-1.3-0.4-2.4-0.9-3.4-1.6
			c-1-0.7-1.7-1.7-2.3-2.8c-0.6-1.1-0.8-2.5-0.8-4h3.2c0,1.1,0.2,2,0.6,2.8c0.4,0.8,1,1.4,1.7,1.9c0.7,0.5,1.5,0.9,2.4,1.1
			c0.9,0.2,1.8,0.4,2.8,0.4c0.8,0,1.5-0.1,2.3-0.2c0.8-0.1,1.5-0.4,2.1-0.7s1.1-0.8,1.5-1.4s0.6-1.4,0.6-2.3c0-0.9-0.2-1.6-0.7-2.2
			c-0.5-0.6-1.1-1-1.9-1.3c-0.8-0.3-1.7-0.6-2.6-0.8c-1-0.2-2-0.4-3-0.7c-1-0.2-2-0.5-3-0.8c-1-0.3-1.9-0.7-2.6-1.2
			c-0.8-0.5-1.4-1.1-1.9-1.9c-0.5-0.8-0.7-1.8-0.7-2.9c0-1.3,0.3-2.4,0.8-3.4c0.5-0.9,1.2-1.7,2.1-2.3c0.9-0.6,1.9-1.1,3-1.4
			c1.1-0.3,2.3-0.5,3.4-0.5c1.3,0,2.5,0.2,3.7,0.5s2.1,0.8,3,1.5s1.5,1.5,2,2.5c0.5,1,0.8,2.2,0.8,3.7H255
			C254.8,34.3,254.1,33,253,32.2z"/>
		<path class="st7" d="M260.7,31.6v-2.9h20.6v2.9h-8.6v22.8h-3.4V31.6H260.7z"/>
		<path class="st7" d="M299.6,54.1c-1.5,0.6-3,0.9-4.5,0.9c-1.9,0-3.6-0.4-5.1-1.1c-1.5-0.7-2.8-1.7-3.9-2.9
			c-1.1-1.2-1.9-2.6-2.4-4.1c-0.6-1.6-0.8-3.2-0.8-4.9c0-1.9,0.3-3.7,0.8-5.3c0.5-1.7,1.3-3.2,2.3-4.4c1-1.3,2.3-2.3,3.8-3
			c1.5-0.8,3.3-1.1,5.3-1.1c1.4,0,2.7,0.2,3.9,0.5s2.3,0.8,3.3,1.5c1,0.7,1.8,1.6,2.4,2.6c0.7,1.1,1.1,2.4,1.3,3.9h-3.4
			c-0.2-1-0.5-1.8-0.9-2.5c-0.5-0.7-1-1.3-1.7-1.7c-0.7-0.5-1.4-0.8-2.3-1c-0.9-0.2-1.8-0.3-2.7-0.3c-1.6,0-2.9,0.3-4,0.9
			c-1.1,0.6-2,1.4-2.7,2.5c-0.7,1-1.2,2.2-1.6,3.5c-0.3,1.3-0.5,2.6-0.5,4c0,1.3,0.2,2.6,0.6,3.9c0.4,1.2,0.9,2.3,1.7,3.3
			s1.7,1.7,2.8,2.3c1.1,0.6,2.4,0.8,3.8,0.8c1.3,0,2.5-0.2,3.6-0.6s1.9-1,2.6-1.8c0.7-0.8,1.2-1.6,1.6-2.7c0.4-1,0.5-2.1,0.5-3.3
			h-8.2v-2.9h11.3v13.5h-2.2l-0.9-3.2C302.3,52.5,301,53.5,299.6,54.1z"/>
		<path class="st7" d="M323.5,28.7c2.4,0,4.4,0.6,5.7,1.8c1.4,1.2,2.1,2.8,2.1,4.9c0,1.6-0.4,2.9-1.1,4.1c-0.7,1.2-1.8,2-3.4,2.4V42
			c0.7,0.1,1.3,0.4,1.8,0.7c0.5,0.3,0.8,0.7,1.1,1.2c0.3,0.5,0.5,1,0.6,1.6c0.1,0.6,0.2,1.2,0.3,1.8c0,0.6,0.1,1.3,0.1,1.9
			c0,0.6,0.1,1.3,0.2,1.9c0.1,0.6,0.2,1.2,0.4,1.8c0.2,0.6,0.5,1.1,0.8,1.5h-3.8c-0.2-0.3-0.4-0.6-0.5-1.1c-0.1-0.5-0.1-1-0.2-1.5
			c0-0.6,0-1.2-0.1-1.8c0-0.6-0.1-1.3-0.2-1.9c-0.1-0.6-0.2-1.2-0.4-1.8c-0.1-0.6-0.4-1.1-0.7-1.5c-0.3-0.4-0.7-0.8-1.2-1
			s-1.2-0.4-2-0.4h-8.4v11h-3.4V28.7H323.5z M324.2,40.3c0.7-0.1,1.3-0.4,1.9-0.7c0.5-0.3,1-0.8,1.3-1.4c0.3-0.6,0.5-1.3,0.5-2.3
			c0-1.3-0.4-2.4-1.1-3.2c-0.7-0.8-1.9-1.2-3.5-1.2h-8.5v9h7.1C322.7,40.5,323.5,40.5,324.2,40.3z"/>
	</g>
	<g class="st6">
		<path class="st8" d="M353.8,28.7v2.9h-14.3v8.2h13.4v2.9h-13.4v8.9h14.4v2.9h-17.9V28.7H353.8z"/>
	</g>
	<g class="st6">
		<path class="st7" d="M370.9,32.2c-1.1-0.8-2.6-1.2-4.4-1.2c-0.7,0-1.4,0.1-2.1,0.2c-0.7,0.1-1.3,0.4-1.9,0.7s-1,0.8-1.3,1.3
			c-0.3,0.6-0.5,1.3-0.5,2.1c0,0.8,0.2,1.4,0.7,1.9c0.5,0.5,1.1,0.9,1.9,1.2c0.8,0.3,1.7,0.6,2.6,0.8s2,0.4,3,0.7c1,0.2,2,0.5,3,0.8
			s1.9,0.8,2.6,1.3c0.8,0.6,1.4,1.2,1.9,2.1s0.7,1.9,0.7,3.2c0,1.4-0.3,2.5-0.9,3.5c-0.6,1-1.4,1.8-2.4,2.4c-1,0.6-2,1.1-3.2,1.3
			s-2.4,0.4-3.5,0.4c-1.4,0-2.8-0.2-4.1-0.5c-1.3-0.4-2.4-0.9-3.4-1.6c-1-0.7-1.7-1.7-2.3-2.8c-0.6-1.1-0.8-2.5-0.8-4h3.2
			c0,1.1,0.2,2,0.6,2.8c0.4,0.8,1,1.4,1.7,1.9c0.7,0.5,1.5,0.9,2.4,1.1c0.9,0.2,1.8,0.4,2.8,0.4c0.8,0,1.5-0.1,2.3-0.2
			c0.8-0.1,1.5-0.4,2.1-0.7c0.6-0.3,1.1-0.8,1.5-1.4c0.4-0.6,0.6-1.4,0.6-2.3c0-0.9-0.2-1.6-0.7-2.2c-0.5-0.6-1.1-1-1.9-1.3
			c-0.8-0.3-1.7-0.6-2.6-0.8s-2-0.4-3-0.7s-2-0.5-3-0.8s-1.9-0.7-2.6-1.2c-0.8-0.5-1.4-1.1-1.9-1.9c-0.5-0.8-0.7-1.8-0.7-2.9
			c0-1.3,0.3-2.4,0.8-3.4c0.5-0.9,1.2-1.7,2.1-2.3c0.9-0.6,1.9-1.1,3-1.4c1.1-0.3,2.3-0.5,3.4-0.5c1.3,0,2.5,0.2,3.7,0.5
			s2.1,0.8,3,1.5s1.5,1.5,2,2.5c0.5,1,0.8,2.2,0.8,3.7h-3.2C372.7,34.3,372.1,33,370.9,32.2z"/>
	</g>
	<g class="st6">
		<path class="st7" d="M199.6,64.5v1.7h-8.4v4.8h7.8v1.7h-7.8v5.2h8.4v1.7h-10.4v-15H199.6z"/>
		<path class="st7" d="M203.6,68.6v1.7h0c0.7-1.3,1.9-2,3.5-2c0.7,0,1.3,0.1,1.8,0.3c0.5,0.2,0.9,0.5,1.2,0.8
			c0.3,0.4,0.5,0.8,0.6,1.2c0.1,0.5,0.2,1,0.2,1.6v7.1h-1.8v-7.3c0-0.7-0.2-1.2-0.6-1.6c-0.4-0.4-0.9-0.6-1.6-0.6
			c-0.5,0-1,0.1-1.4,0.3c-0.4,0.2-0.7,0.4-1,0.7c-0.3,0.3-0.5,0.7-0.6,1.1s-0.2,0.9-0.2,1.4v6.1H202V68.6H203.6z"/>
		<path class="st7" d="M218.5,68.6v1.6h-2.2v6.7c0,0.2,0,0.4,0.1,0.5s0.1,0.2,0.2,0.3c0.1,0.1,0.2,0.1,0.4,0.1c0.2,0,0.4,0,0.7,0
			h0.8v1.6h-1.4c-0.5,0-0.9,0-1.2-0.1c-0.3-0.1-0.6-0.2-0.8-0.3c-0.2-0.2-0.4-0.4-0.5-0.7c-0.1-0.3-0.1-0.7-0.1-1.2v-6.9h-1.8v-1.6
			h1.8v-3.3h1.8v3.3H218.5z"/>
		<path class="st7" d="M228.4,78.8c-0.8,0.6-1.8,0.9-3.1,0.9c-0.9,0-1.6-0.1-2.3-0.4c-0.6-0.3-1.2-0.7-1.6-1.2
			c-0.4-0.5-0.8-1.1-1-1.8c-0.2-0.7-0.3-1.5-0.4-2.3c0-0.8,0.1-1.6,0.4-2.3c0.3-0.7,0.6-1.3,1.1-1.8s1-0.9,1.6-1.2
			c0.6-0.3,1.3-0.4,2-0.4c1,0,1.8,0.2,2.4,0.6c0.6,0.4,1.1,0.9,1.5,1.5c0.4,0.6,0.7,1.3,0.8,2c0.1,0.7,0.2,1.4,0.2,2.1H222
			c0,0.5,0,0.9,0.2,1.4c0.1,0.4,0.3,0.8,0.6,1.1s0.6,0.6,1.1,0.8c0.4,0.2,0.9,0.3,1.5,0.3c0.8,0,1.4-0.2,1.9-0.5
			c0.5-0.4,0.8-0.9,1-1.6h1.8C229.7,77.3,229.2,78.2,228.4,78.8z M227.9,71.8c-0.2-0.4-0.4-0.7-0.7-1c-0.3-0.3-0.6-0.5-1-0.7
			c-0.4-0.2-0.8-0.2-1.2-0.2c-0.5,0-0.9,0.1-1.2,0.2c-0.4,0.2-0.7,0.4-1,0.7c-0.3,0.3-0.5,0.6-0.6,1S222,72.6,222,73h6.2
			C228.2,72.6,228.1,72.2,227.9,71.8z"/>
		<path class="st7" d="M233.8,68.6v2.3h0c0.4-0.9,1-1.5,1.6-2c0.6-0.4,1.4-0.6,2.4-0.6v1.9c-0.7,0-1.3,0.1-1.8,0.3s-0.9,0.5-1.2,0.9
			c-0.3,0.4-0.5,0.8-0.7,1.4c-0.1,0.5-0.2,1.2-0.2,1.9v4.8h-1.8V68.6H233.8z"/>
		<path class="st7" d="M241.2,68.6v1.5h0c0.3-0.6,0.8-1,1.4-1.3c0.6-0.3,1.3-0.4,2.1-0.4c0.8,0,1.6,0.2,2.2,0.5
			c0.6,0.3,1.1,0.7,1.6,1.2s0.7,1.1,0.9,1.8c0.2,0.7,0.3,1.4,0.3,2.2c0,0.8-0.1,1.5-0.3,2.2s-0.5,1.3-0.9,1.8
			c-0.4,0.5-0.9,0.9-1.6,1.2c-0.6,0.3-1.3,0.4-2.2,0.4c-0.3,0-0.6,0-0.9-0.1c-0.3-0.1-0.7-0.1-1-0.3s-0.6-0.3-0.9-0.5
			c-0.3-0.2-0.5-0.5-0.7-0.8h0v5.6h-1.8v-15H241.2z M247.6,72.5c-0.1-0.5-0.3-0.9-0.6-1.3c-0.3-0.4-0.6-0.7-1-0.9
			c-0.4-0.2-0.9-0.3-1.5-0.3c-0.6,0-1.1,0.1-1.5,0.4s-0.8,0.5-1,0.9c-0.3,0.4-0.5,0.8-0.6,1.3s-0.2,1-0.2,1.5c0,0.5,0.1,1,0.2,1.5
			s0.3,0.9,0.6,1.3c0.3,0.4,0.6,0.7,1.1,0.9c0.4,0.2,1,0.3,1.6,0.3s1.1-0.1,1.5-0.4s0.7-0.6,1-0.9c0.3-0.4,0.4-0.8,0.5-1.3
			c0.1-0.5,0.2-1,0.2-1.6C247.8,73.4,247.8,73,247.6,72.5z"/>
		<path class="st7" d="M253.6,68.6v2.3h0c0.4-0.9,1-1.5,1.6-2c0.6-0.4,1.4-0.6,2.4-0.6v1.9c-0.7,0-1.3,0.1-1.8,0.3s-0.9,0.5-1.2,0.9
			c-0.3,0.4-0.5,0.8-0.7,1.4c-0.1,0.5-0.2,1.2-0.2,1.9v4.8H252V68.6H253.6z"/>
		<path class="st7" d="M259.3,66.7v-2.2h1.8v2.2H259.3z M261.1,68.6v10.9h-1.8V68.6H261.1z"/>
		<path class="st7" d="M265.5,77.1c0.2,0.3,0.4,0.5,0.7,0.7c0.3,0.2,0.6,0.3,0.9,0.3c0.3,0.1,0.7,0.1,1.1,0.1c0.3,0,0.6,0,0.9-0.1
			c0.3,0,0.6-0.1,0.9-0.2c0.3-0.1,0.5-0.3,0.6-0.5s0.3-0.5,0.3-0.8c0-0.5-0.2-0.8-0.5-1c-0.3-0.2-0.8-0.4-1.3-0.6
			c-0.5-0.1-1.1-0.3-1.7-0.4c-0.6-0.1-1.2-0.3-1.7-0.5c-0.5-0.2-1-0.5-1.3-0.9s-0.5-0.9-0.5-1.6c0-0.5,0.1-1,0.4-1.4
			c0.2-0.4,0.6-0.7,0.9-1c0.4-0.2,0.8-0.4,1.3-0.5c0.5-0.1,1-0.2,1.4-0.2c0.6,0,1.2,0.1,1.7,0.2c0.5,0.1,1,0.3,1.4,0.5s0.7,0.6,1,1
			c0.2,0.4,0.4,1,0.4,1.6h-1.8c0-0.3-0.1-0.6-0.3-0.9c-0.2-0.2-0.3-0.4-0.6-0.6s-0.5-0.2-0.8-0.3c-0.3-0.1-0.6-0.1-0.9-0.1
			c-0.3,0-0.5,0-0.8,0.1c-0.3,0-0.5,0.1-0.7,0.2c-0.2,0.1-0.4,0.2-0.5,0.4c-0.1,0.2-0.2,0.4-0.2,0.7c0,0.3,0.1,0.6,0.3,0.8
			c0.2,0.2,0.5,0.4,0.8,0.5c0.3,0.1,0.7,0.2,1.1,0.3c0.4,0.1,0.8,0.2,1.3,0.3c0.4,0.1,0.9,0.2,1.3,0.4c0.4,0.1,0.8,0.3,1.1,0.6
			c0.3,0.2,0.6,0.5,0.8,0.9c0.2,0.3,0.3,0.8,0.3,1.3c0,0.7-0.1,1.2-0.4,1.6c-0.3,0.4-0.6,0.8-1.1,1c-0.4,0.3-0.9,0.5-1.5,0.6
			c-0.6,0.1-1.1,0.2-1.6,0.2c-0.6,0-1.2-0.1-1.7-0.2s-1-0.3-1.4-0.6s-0.8-0.7-1-1.1c-0.3-0.5-0.4-1-0.4-1.7h1.8
			C265.2,76.4,265.3,76.8,265.5,77.1z"/>
		<path class="st7" d="M282.5,78.8c-0.8,0.6-1.8,0.9-3.1,0.9c-0.9,0-1.6-0.1-2.3-0.4c-0.6-0.3-1.2-0.7-1.6-1.2
			c-0.4-0.5-0.8-1.1-1-1.8c-0.2-0.7-0.3-1.5-0.4-2.3c0-0.8,0.1-1.6,0.4-2.3c0.3-0.7,0.6-1.3,1.1-1.8s1-0.9,1.6-1.2
			c0.6-0.3,1.3-0.4,2-0.4c1,0,1.8,0.2,2.4,0.6c0.6,0.4,1.1,0.9,1.5,1.5c0.4,0.6,0.7,1.3,0.8,2c0.1,0.7,0.2,1.4,0.2,2.1h-8.1
			c0,0.5,0,0.9,0.2,1.4c0.1,0.4,0.3,0.8,0.6,1.1s0.6,0.6,1.1,0.8c0.4,0.2,0.9,0.3,1.5,0.3c0.8,0,1.4-0.2,1.9-0.5
			c0.5-0.4,0.8-0.9,1-1.6h1.8C283.8,77.3,283.3,78.2,282.5,78.8z M282.1,71.8c-0.2-0.4-0.4-0.7-0.7-1c-0.3-0.3-0.6-0.5-1-0.7
			c-0.4-0.2-0.8-0.2-1.2-0.2c-0.5,0-0.9,0.1-1.2,0.2c-0.4,0.2-0.7,0.4-1,0.7c-0.3,0.3-0.5,0.6-0.6,1s-0.2,0.8-0.3,1.2h6.2
			C282.3,72.6,282.2,72.2,282.1,71.8z"/>
		<path class="st7" d="M295.4,64.5l4.7,12.6l4.7-12.6h2.7v15h-1.9V67h0L301,79.5h-1.7L294.6,67h0v12.5h-1.9v-15H295.4z"/>
		<path class="st7" d="M320.5,79.4c-0.3,0.2-0.7,0.3-1.3,0.3c-0.5,0-0.8-0.1-1.1-0.4c-0.3-0.3-0.4-0.7-0.4-1.3
			c-0.5,0.6-1.1,1-1.7,1.3c-0.7,0.3-1.4,0.4-2.1,0.4c-0.5,0-1-0.1-1.4-0.2c-0.4-0.1-0.8-0.3-1.1-0.5s-0.6-0.5-0.8-0.9
			c-0.2-0.4-0.3-0.9-0.3-1.4c0-0.6,0.1-1.1,0.3-1.5c0.2-0.4,0.5-0.7,0.8-1c0.3-0.2,0.7-0.4,1.2-0.6c0.4-0.1,0.9-0.2,1.4-0.3
			c0.5-0.1,1-0.2,1.4-0.2c0.4,0,0.8-0.1,1.2-0.2s0.6-0.2,0.8-0.4c0.2-0.2,0.3-0.4,0.3-0.8c0-0.4-0.1-0.7-0.2-0.9s-0.3-0.4-0.6-0.5
			c-0.2-0.1-0.5-0.2-0.8-0.3c-0.3,0-0.6-0.1-0.9-0.1c-0.8,0-1.4,0.1-1.9,0.4c-0.5,0.3-0.8,0.8-0.8,1.6h-1.8c0-0.7,0.2-1.2,0.4-1.7
			s0.6-0.8,1-1.1c0.4-0.3,0.9-0.5,1.4-0.6s1.1-0.2,1.7-0.2c0.5,0,1,0,1.5,0.1c0.5,0.1,0.9,0.2,1.3,0.4c0.4,0.2,0.7,0.5,0.9,0.9
			c0.2,0.4,0.4,0.9,0.4,1.5v5.6c0,0.4,0,0.7,0.1,0.9c0,0.2,0.2,0.3,0.5,0.3c0.2,0,0.3,0,0.5-0.1V79.4z M317.6,73.9
			c-0.2,0.2-0.5,0.3-0.9,0.4s-0.7,0.1-1.1,0.2c-0.4,0-0.8,0.1-1.2,0.2c-0.4,0.1-0.8,0.2-1.1,0.3c-0.3,0.1-0.6,0.3-0.8,0.6
			s-0.3,0.6-0.3,1.1c0,0.3,0.1,0.5,0.2,0.7s0.3,0.4,0.5,0.5c0.2,0.1,0.4,0.2,0.7,0.3c0.3,0.1,0.5,0.1,0.8,0.1c0.6,0,1.1-0.1,1.5-0.2
			s0.8-0.4,1-0.6c0.3-0.2,0.5-0.5,0.6-0.8s0.2-0.6,0.2-0.8V73.9z"/>
		<path class="st7" d="M324,68.6v1.7h0c0.7-1.3,1.9-2,3.5-2c0.7,0,1.3,0.1,1.8,0.3c0.5,0.2,0.9,0.5,1.2,0.8c0.3,0.4,0.5,0.8,0.6,1.2
			c0.1,0.5,0.2,1,0.2,1.6v7.1h-1.8v-7.3c0-0.7-0.2-1.2-0.6-1.6c-0.4-0.4-0.9-0.6-1.6-0.6c-0.5,0-1,0.1-1.4,0.3s-0.7,0.4-1,0.7
			c-0.3,0.3-0.5,0.7-0.6,1.1c-0.1,0.4-0.2,0.9-0.2,1.4v6.1h-1.8V68.6H324z"/>
		<path class="st7" d="M343.8,79.4c-0.3,0.2-0.7,0.3-1.3,0.3c-0.5,0-0.8-0.1-1.1-0.4c-0.3-0.3-0.4-0.7-0.4-1.3
			c-0.5,0.6-1.1,1-1.7,1.3c-0.7,0.3-1.4,0.4-2.1,0.4c-0.5,0-1-0.1-1.4-0.2c-0.4-0.1-0.8-0.3-1.1-0.5c-0.3-0.2-0.6-0.5-0.8-0.9
			c-0.2-0.4-0.3-0.9-0.3-1.4c0-0.6,0.1-1.1,0.3-1.5c0.2-0.4,0.5-0.7,0.8-1c0.3-0.2,0.7-0.4,1.2-0.6c0.4-0.1,0.9-0.2,1.4-0.3
			c0.5-0.1,1-0.2,1.4-0.2c0.4,0,0.8-0.1,1.2-0.2s0.6-0.2,0.8-0.4c0.2-0.2,0.3-0.4,0.3-0.8c0-0.4-0.1-0.7-0.2-0.9
			c-0.1-0.2-0.3-0.4-0.6-0.5c-0.2-0.1-0.5-0.2-0.8-0.3s-0.6-0.1-0.9-0.1c-0.8,0-1.4,0.1-1.9,0.4s-0.8,0.8-0.8,1.6H334
			c0-0.7,0.2-1.2,0.4-1.7s0.6-0.8,1-1.1c0.4-0.3,0.9-0.5,1.4-0.6c0.5-0.1,1.1-0.2,1.7-0.2c0.5,0,1,0,1.5,0.1
			c0.5,0.1,0.9,0.2,1.3,0.4c0.4,0.2,0.7,0.5,0.9,0.9c0.2,0.4,0.4,0.9,0.4,1.5v5.6c0,0.4,0,0.7,0.1,0.9c0,0.2,0.2,0.3,0.5,0.3
			c0.2,0,0.3,0,0.5-0.1V79.4z M340.9,73.9c-0.2,0.2-0.5,0.3-0.9,0.4c-0.4,0.1-0.7,0.1-1.1,0.2c-0.4,0-0.8,0.1-1.2,0.2
			s-0.8,0.2-1.1,0.3c-0.3,0.1-0.6,0.3-0.8,0.6c-0.2,0.3-0.3,0.6-0.3,1.1c0,0.3,0.1,0.5,0.2,0.7c0.1,0.2,0.3,0.4,0.5,0.5
			c0.2,0.1,0.4,0.2,0.7,0.3c0.3,0.1,0.5,0.1,0.8,0.1c0.6,0,1.1-0.1,1.5-0.2c0.4-0.2,0.8-0.4,1-0.6c0.3-0.2,0.5-0.5,0.6-0.8
			s0.2-0.6,0.2-0.8V73.9z"/>
		<path class="st7" d="M353.9,82.5c-0.8,0.9-2.1,1.3-3.8,1.3c-0.5,0-1-0.1-1.5-0.2c-0.5-0.1-1-0.3-1.4-0.5s-0.8-0.6-1.1-1
			c-0.3-0.4-0.4-0.9-0.5-1.5h1.8c0,0.3,0.1,0.6,0.3,0.8c0.2,0.2,0.4,0.4,0.7,0.5c0.3,0.1,0.6,0.2,0.9,0.3c0.3,0.1,0.6,0.1,0.9,0.1
			c0.6,0,1.1-0.1,1.5-0.3s0.7-0.5,1-0.8c0.3-0.4,0.5-0.8,0.6-1.3c0.1-0.5,0.2-1.1,0.2-1.7v-0.7h0c-0.3,0.7-0.8,1.2-1.4,1.5
			c-0.6,0.3-1.3,0.5-2,0.5c-0.8,0-1.5-0.1-2.1-0.4c-0.6-0.3-1.1-0.7-1.5-1.2s-0.7-1.1-0.9-1.7c-0.2-0.7-0.3-1.4-0.3-2.1
			c0-0.6,0.1-1.3,0.3-2s0.4-1.3,0.8-1.8c0.4-0.6,0.9-1,1.6-1.4c0.6-0.4,1.4-0.5,2.4-0.5c0.7,0,1.3,0.2,1.9,0.5
			c0.6,0.3,1,0.8,1.3,1.4h0v-1.6h1.7v9.9C355.1,80.3,354.7,81.7,353.9,82.5z M351.6,77.7c0.4-0.2,0.7-0.6,1-1
			c0.3-0.4,0.4-0.9,0.6-1.4c0.1-0.5,0.2-1,0.2-1.5c0-0.5-0.1-0.9-0.2-1.4c-0.1-0.5-0.3-0.9-0.5-1.2s-0.6-0.7-1-0.9
			c-0.4-0.2-0.9-0.3-1.4-0.3c-0.6,0-1.1,0.1-1.5,0.3c-0.4,0.2-0.7,0.5-1,0.9c-0.3,0.4-0.4,0.8-0.6,1.3c-0.1,0.5-0.2,1-0.2,1.5
			c0,0.5,0,1,0.1,1.5c0.1,0.5,0.3,0.9,0.5,1.3c0.2,0.4,0.6,0.7,0.9,1c0.4,0.2,0.9,0.4,1.5,0.4S351.2,77.9,351.6,77.7z"/>
		<path class="st7" d="M365.7,78.8c-0.8,0.6-1.8,0.9-3.1,0.9c-0.9,0-1.6-0.1-2.3-0.4c-0.6-0.3-1.2-0.7-1.6-1.2s-0.8-1.1-1-1.8
			s-0.3-1.5-0.4-2.3c0-0.8,0.1-1.6,0.4-2.3c0.3-0.7,0.6-1.3,1.1-1.8s1-0.9,1.6-1.2c0.6-0.3,1.3-0.4,2-0.4c1,0,1.8,0.2,2.4,0.6
			c0.6,0.4,1.1,0.9,1.5,1.5c0.4,0.6,0.7,1.3,0.8,2c0.1,0.7,0.2,1.4,0.2,2.1h-8.1c0,0.5,0,0.9,0.2,1.4c0.1,0.4,0.3,0.8,0.6,1.1
			s0.6,0.6,1.1,0.8c0.4,0.2,0.9,0.3,1.5,0.3c0.8,0,1.4-0.2,1.9-0.5c0.5-0.4,0.8-0.9,1-1.6h1.8C367,77.3,366.5,78.2,365.7,78.8z
			 M365.2,71.8c-0.2-0.4-0.4-0.7-0.7-1c-0.3-0.3-0.6-0.5-1-0.7c-0.4-0.2-0.8-0.2-1.2-0.2c-0.5,0-0.9,0.1-1.2,0.2
			c-0.4,0.2-0.7,0.4-1,0.7c-0.3,0.3-0.5,0.6-0.6,1c-0.2,0.4-0.2,0.8-0.3,1.2h6.2C365.5,72.6,365.4,72.2,365.2,71.8z"/>
		<path class="st7" d="M371.1,68.6v2.3h0c0.4-0.9,1-1.5,1.6-2c0.6-0.4,1.4-0.6,2.4-0.6v1.9c-0.7,0-1.3,0.1-1.8,0.3s-0.9,0.5-1.2,0.9
			c-0.3,0.4-0.5,0.8-0.7,1.4c-0.1,0.5-0.2,1.2-0.2,1.9v4.8h-1.8V68.6H371.1z"/>
	</g>
</g>
</svg>
