<svg xmlns="http://www.w3.org/2000/svg" xmlns:xlink="http://www.w3.org/1999/xlink" xmlns:lucid="lucid" width="5027" height="1107"><g transform="translate(963.5 -196.5)" lucid:page-tab-id="SRuzC_X1g56."><path d="M-960 206a6 6 0 0 1 6-6h5008a6 6 0 0 1 6 6v1088a6 6 0 0 1-6 6H-954a6 6 0 0 1-6-6z" stroke="#136a7f" stroke-width="7" fill="#fff"/><path d="M-312.8 661.33c59.7 0 108.12 48.4 108.12 108.13 0 59.7-48.4 108.12-108.13 108.12h-406.4c-59.7 0-108.12-48.4-108.12-108.12 0-59.72 48.4-108.13 108.13-108.13z" stroke="#e7c568" stroke-width="2" fill="#e7c568"/><use xlink:href="#a" transform="matrix(1,0,0,1,-822.318825433415,666.3333333333335) translate(115.30187500000001 132.4375)"/><use xlink:href="#b" transform="matrix(1,0,0,1,-822.318825433415,666.3333333333335) translate(206.1221875 132.4375)"/><path d="M534.5 661.33c59.73 0 108.14 48.4 108.14 108.13 0 59.7-48.4 108.12-108.13 108.12H128.13C68.42 877.58 20 829.18 20 769.46c0-59.72 48.4-108.13 108.13-108.13z" stroke="#e7c568" stroke-width="2" fill="#e7c568"/><use xlink:href="#a" transform="matrix(1,0,0,1,25,666.3333333333335) translate(115.30187500000001 132.4375)"/><use xlink:href="#c" transform="matrix(1,0,0,1,25,666.3333333333335) translate(206.1221875 132.4375)"/><path d="M1381.83 659.6c59.72 0 108.13 48.4 108.13 108.13 0 59.7-48.4 108.12-108.13 108.12h-406.4c-59.7 0-108.1-48.4-108.1-108.12 0-59.72 48.4-108.13 108.1-108.13z" stroke="#e7c568" stroke-width="2" fill="#e7c568"/><use xlink:href="#a" transform="matrix(1,0,0,1,872.318825433415,664.6027692625762) translate(115.30187500000001 132.4375)"/><use xlink:href="#d" transform="matrix(1,0,0,1,872.318825433415,664.6027692625762) translate(206.1221875 132.4375)"/><path d="M556.2 1110.4v-.03a3.5 3.5 0 0 1 3.5-3.5 3.5 3.5 0 0 1 3.5 3.5 3.5 3.5 0 0 1-3.5 3.5 3.5 3.5 0 0 1-3.5-3.5v-.03m13.96.04v-.04a3.5 3.5 0 0 1 3.5-3.5 3.5 3.5 0 0 1 3.5 3.5 3.5 3.5 0 0 1-3.5 3.5 3.5 3.5 0 0 1-3.5-3.5v-.03m13.98.05v-.03a3.5 3.5 0 0 1 3.5-3.5 3.5 3.5 0 0 1 3.5 3.5 3.5 3.5 0 0 1-3.5 3.5 3.5 3.5 0 0 1-3.5-3.5v-.04m13.98.05v-.04a3.5 3.5 0 0 1 3.5-3.5 3.5 3.5 0 0 1 3.5 3.5 3.5 3.5 0 0 1-3.5 3.5 3.5 3.5 0 0 1-3.5-3.5v-.04m13.97.04v-.04a3.5 3.5 0 0 1 3.5-3.5 3.5 3.5 0 0 1 3.5 3.5 3.5 3.5 0 0 1-3.5 3.5 3.5 3.5 0 0 1-3.5-3.5v-.03m13.97.04v-.04a3.5 3.5 0 0 1 3.5-3.5 3.5 3.5 0 0 1 3.5 3.5 3.5 3.5 0 0 1-3.5 3.5 3.5 3.5 0 0 1-3.5-3.5v-.03m13.98.04v-.03a3.5 3.5 0 0 1 3.5-3.5 3.5 3.5 0 0 1 3.5 3.5 3.5 3.5 0 0 1-3.5 3.5 3.5 3.5 0 0 1-3.5-3.5v-.03m13.97.04v-.02a3.5 3.5 0 0 1 3.5-3.5 3.5 3.5 0 0 1 3.5 3.5 3.5 3.5 0 0 1-3.5 3.5 3.5 3.5 0 0 1-3.5-3.5v-.04m13.98.05v-.05a3.5 3.5 0 0 1 3.5-3.5 3.5 3.5 0 0 1 3.5 3.5 3.5 3.5 0 0 1-3.5 3.5 3.5 3.5 0 0 1-3.5-3.5v-.03m13.98.04v-.04a3.5 3.5 0 0 1 3.5-3.5 3.5 3.5 0 0 1 3.5 3.5 3.5 3.5 0 0 1-3.5 3.5 3.5 3.5 0 0 1-3.5-3.5v-.03m13.97.03v-.03a3.5 3.5 0 0 1 3.5-3.5 3.5 3.5 0 0 1 3.5 3.5 3.5 3.5 0 0 1-3.5 3.5 3.5 3.5 0 0 1-3.5-3.5v-.04m13.98.05v-.03a3.5 3.5 0 0 1 3.5-3.5 3.5 3.5 0 0 1 3.5 3.5 3.5 3.5 0 0 1-3.5 3.5 3.5 3.5 0 0 1-3.5-3.5v-.03m13.97.04v-.04a3.5 3.5 0 0 1 3.5-3.5 3.5 3.5 0 0 1 3.5 3.5 3.5 3.5 0 0 1-3.5 3.5 3.5 3.5 0 0 1-3.5-3.5v-.03m13.98.05v-.03a3.5 3.5 0 0 1 3.5-3.5 3.5 3.5 0 0 1 3.5 3.5 3.5 3.5 0 0 1-3.5 3.5 3.5 3.5 0 0 1-3.5-3.5v-.04m13.98.04v-.03a3.5 3.5 0 0 1 3.5-3.5 3.5 3.5 0 0 1 3.5 3.5 3.5 3.5 0 0 1-3.5 3.5 3.5 3.5 0 0 1-3.5-3.5v-.05m13.97.04v-.04a3.5 3.5 0 0 1 3.5-3.5 3.5 3.5 0 0 1 3.5 3.5 3.5 3.5 0 0 1-3.5 3.5 3.5 3.5 0 0 1-3.5-3.5v-.04m13.98.05v-.04a3.5 3.5 0 0 1 3.5-3.5 3.5 3.5 0 0 1 3.5 3.5 3.5 3.5 0 0 1-3.5 3.5 3.5 3.5 0 0 1-3.5-3.5v-.03m13.98.04v-.04a3.5 3.5 0 0 1 3.5-3.5 3.5 3.5 0 0 1 3.5 3.5 3.5 3.5 0 0 1-3.5 3.5 3.5 3.5 0 0 1-3.5-3.5v-.03m13.98.04v-.02a3.5 3.5 0 0 1 3.5-3.5 3.5 3.5 0 0 1 3.5 3.5 3.5 3.5 0 0 1-3.5 3.5 3.5 3.5 0 0 1-3.5-3.5v-.04m13.96-.5v-.02a3.5 3.5 0 0 1 3.5-3.5 3.5 3.5 0 0 1 3.5 3.5 3.5 3.5 0 0 1-3.5 3.5 3.5 3.5 0 0 1-3.5-3.5v-.04m13.95-.8v-.02a3.5 3.5 0 0 1 3.5-3.5 3.5 3.5 0 0 1 3.5 3.5 3.5 3.5 0 0 1-3.5 3.5 3.5 3.5 0 0 1-3.5-3.5v-.04m13.95-.8v-.02a3.5 3.5 0 0 1 3.5-3.5 3.5 3.5 0 0 1 3.5 3.5 3.5 3.5 0 0 1-3.5 3.5 3.5 3.5 0 0 1-3.5-3.5v-.03m13.95-.8v-.03a3.5 3.5 0 0 1 3.5-3.5 3.5 3.5 0 0 1 3.5 3.5 3.5 3.5 0 0 1-3.5 3.5 3.5 3.5 0 0 1-3.5-3.5v-.04m13.92-1.15v-.04a3.5 3.5 0 0 1 3.5-3.5 3.5 3.5 0 0 1 3.5 3.5 3.5 3.5 0 0 1-3.5 3.5 3.5 3.5 0 0 1-3.5-3.5v-.02m13.9-1.38v-.04a3.5 3.5 0 0 1 3.5-3.5 3.5 3.5 0 0 1 3.5 3.5 3.5 3.5 0 0 1-3.5 3.5 3.5 3.5 0 0 1-3.5-3.5v-.03m13.9-1.38v-.04a3.5 3.5 0 0 1 3.5-3.5 3.5 3.5 0 0 1 3.5 3.5 3.5 3.5 0 0 1-3.5 3.5 3.5 3.5 0 0 1-3.5-3.5v-.02m13.84-1.8v-.02a3.5 3.5 0 0 1 3.5-3.5 3.5 3.5 0 0 1 3.5 3.5 3.5 3.5 0 0 1-3.5 3.5 3.5 3.5 0 0 1-3.5-3.5v-.04m13.83-1.96v-.03a3.5 3.5 0 0 1 3.5-3.5 3.5 3.5 0 0 1 3.5 3.5 3.5 3.5 0 0 1-3.5 3.5 3.5 3.5 0 0 1-3.5-3.5v-.04m13.8-2.2v-.03a3.5 3.5 0 0 1 3.5-3.5 3.5 3.5 0 0 1 3.5 3.5 3.5 3.5 0 0 1-3.5 3.5 3.5 3.5 0 0 1-3.5-3.5v-.03m13.72-2.54v-.04a3.5 3.5 0 0 1 3.5-3.5 3.5 3.5 0 0 1 3.5 3.5 3.5 3.5 0 0 1-3.5 3.5 3.5 3.5 0 0 1-3.5-3.5v-.03m13.66-2.82v-.03a3.5 3.5 0 0 1 3.5-3.5 3.5 3.5 0 0 1 3.5 3.5 3.5 3.5 0 0 1-3.5 3.5 3.5 3.5 0 0 1-3.5-3.5v-.03m13.6-3.12v-.03a3.5 3.5 0 0 1 3.5-3.5 3.5 3.5 0 0 1 3.5 3.5 3.5 3.5 0 0 1-3.5 3.5 3.5 3.5 0 0 1-3.5-3.5v-.04m13.5-3.62v-.03a3.5 3.5 0 0 1 3.5-3.5 3.5 3.5 0 0 1 3.5 3.5 3.5 3.5 0 0 1-3.5 3.5 3.5 3.5 0 0 1-3.5-3.5v-.03m13.37-3.95v-.04a3.5 3.5 0 0 1 3.5-3.5 3.5 3.5 0 0 1 3.5 3.5 3.5 3.5 0 0 1-3.5 3.5 3.5 3.5 0 0 1-3.5-3.5v-.03m13.24-4.4v-.03a3.5 3.5 0 0 1 3.5-3.5 3.5 3.5 0 0 1 3.5 3.5 3.5 3.5 0 0 1-3.5 3.5 3.5 3.5 0 0 1-3.5-3.5v-.04m13.06-4.9v-.03a3.5 3.5 0 0 1 3.5-3.5 3.5 3.5 0 0 1 3.5 3.5 3.5 3.5 0 0 1-3.5 3.5 3.5 3.5 0 0 1-3.5-3.5v-.04m12.84-5.44v-.04a3.5 3.5 0 0 1 3.5-3.5 3.5 3.5 0 0 1 3.5 3.5 3.5 3.5 0 0 1-3.5 3.5 3.5 3.5 0 0 1-3.5-3.5v-.03m12.56-6.06v-.03a3.5 3.5 0 0 1 3.5-3.5 3.5 3.5 0 0 1 3.5 3.5 3.5 3.5 0 0 1-3.5 3.5 3.5 3.5 0 0 1-3.5-3.5v-.03m12.25-6.66v-.02a3.5 3.5 0 0 1 3.5-3.5 3.5 3.5 0 0 1 3.5 3.5 3.5 3.5 0 0 1-3.5 3.5 3.5 3.5 0 0 1-3.5-3.5v-.04m11.86-7.3v-.05a3.5 3.5 0 0 1 3.5-3.5 3.5 3.5 0 0 1 3.5 3.5 3.5 3.5 0 0 1-3.5 3.5 3.5 3.5 0 0 1-3.5-3.5v-.04m11.35-8.08v-.04a3.5 3.5 0 0 1 3.5-3.5 3.5 3.5 0 0 1 3.5 3.5 3.5 3.5 0 0 1-3.5 3.5 3.5 3.5 0 0 1-3.5-3.5v-.03m10.8-8.78v-.03a3.5 3.5 0 0 1 3.5-3.5 3.5 3.5 0 0 1 3.5 3.5 3.5 3.5 0 0 1-3.5 3.5 3.5 3.5 0 0 1-3.5-3.5v-.05m10.16-9.52v-.03a3.5 3.5 0 0 1 3.5-3.5 3.5 3.5 0 0 1 3.5 3.5 3.5 3.5 0 0 1-3.5 3.5 3.5 3.5 0 0 1-3.5-3.5v-.04m9.37-10.3v-.03a3.5 3.5 0 0 1 3.5-3.5 3.5 3.5 0 0 1 3.5 3.5 3.5 3.5 0 0 1-3.5 3.5 3.5 3.5 0 0 1-3.5-3.5v-.03m8.53-11v-.04a3.5 3.5 0 0 1 3.5-3.5 3.5 3.5 0 0 1 3.5 3.5 3.5 3.5 0 0 1-3.5 3.5 3.5 3.5 0 0 1-3.5-3.5v-.03m7.6-11.65v-.03a3.5 3.5 0 0 1 3.5-3.5 3.5 3.5 0 0 1 3.5 3.5 3.5 3.5 0 0 1-3.5 3.5 3.5 3.5 0 0 1-3.5-3.5v-.04m6.64-12.2v-.05a3.5 3.5 0 0 1 3.5-3.5 3.5 3.5 0 0 1 3.5 3.5 3.5 3.5 0 0 1-3.5 3.5 3.5 3.5 0 0 1-3.5-3.5v-.03m5.64-12.7v-.05a3.5 3.5 0 0 1 3.5-3.5 3.5 3.5 0 0 1 3.5 3.5 3.5 3.5 0 0 1-3.5 3.5 3.5 3.5 0 0 1-3.5-3.5v-.03m4.66-13.1v-.04a3.5 3.5 0 0 1 3.5-3.5 3.5 3.5 0 0 1 3.5 3.5 3.5 3.5 0 0 1-3.5 3.5 3.5 3.5 0 0 1-3.5-3.5v-.03m3.72-13.4v-.04a3.5 3.5 0 0 1 3.5-3.5 3.5 3.5 0 0 1 3.5 3.5 3.5 3.5 0 0 1-3.5 3.5 3.5 3.5 0 0 1-3.5-3.5v-.03m2.73-13.64v-.03a3.5 3.5 0 0 1 3.5-3.5 3.5 3.5 0 0 1 3.5 3.5 3.5 3.5 0 0 1-3.5 3.5 3.5 3.5 0 0 1-3.5-3.5v-.04m1.95-13.77v-.04a3.5 3.5 0 0 1 3.5-3.5 3.5 3.5 0 0 1 3.5 3.5 3.5 3.5 0 0 1-3.5 3.5 3.5 3.5 0 0 1-3.5-3.5v-.04" fill="#e96f4c"/><path d="M559.8 1113.85h-3.62v-6.95h3.6z" stroke="#e96f4c" stroke-width=".05" fill="#e96f4c"/><path d="M1178.04 888.16l3.88 14.5-9.26-.5z" stroke="#e96f4c" stroke-width="7" fill="#e96f4c"/><path d="M-519.43 882.13v-.04a3.5 3.5 0 0 1 3.5-3.5 3.5 3.5 0 0 1 3.5 3.5 3.5 3.5 0 0 1-3.5 3.5 3.5 3.5 0 0 1-3.5-3.5v-.04m.5 14.1v-.05a3.5 3.5 0 0 1 3.5-3.5 3.5 3.5 0 0 1 3.5 3.5 3.5 3.5 0 0 1-3.5 3.5 3.5 3.5 0 0 1-3.5-3.5v-.02m1.2 14.04v-.03a3.5 3.5 0 0 1 3.5-3.5 3.5 3.5 0 0 1 3.5 3.5 3.5 3.5 0 0 1-3.5 3.5 3.5 3.5 0 0 1-3.5-3.5v-.05m1.96 13.96V924a3.5 3.5 0 0 1 3.5-3.5 3.5 3.5 0 0 1 3.5 3.5 3.5 3.5 0 0 1-3.5 3.5 3.5 3.5 0 0 1-3.5-3.5v-.04m2.86 13.8v-.03a3.5 3.5 0 0 1 3.5-3.5 3.5 3.5 0 0 1 3.5 3.5 3.5 3.5 0 0 1-3.5 3.5 3.5 3.5 0 0 1-3.5-3.5v-.02m3.7 13.6v-.05a3.5 3.5 0 0 1 3.5-3.5 3.5 3.5 0 0 1 3.5 3.5 3.5 3.5 0 0 1-3.5 3.5 3.5 3.5 0 0 1-3.5-3.5v-.03m4.67 13.3v-.03a3.5 3.5 0 0 1 3.5-3.5 3.5 3.5 0 0 1 3.5 3.5 3.5 3.5 0 0 1-3.5 3.5 3.5 3.5 0 0 1-3.5-3.5v-.04m5.68 12.9v-.04a3.5 3.5 0 0 1 3.5-3.5 3.5 3.5 0 0 1 3.5 3.5 3.5 3.5 0 0 1-3.5 3.5 3.5 3.5 0 0 1-3.5-3.5v-.04m6.67 12.4v-.03a3.5 3.5 0 0 1 3.5-3.5 3.5 3.5 0 0 1 3.5 3.5 3.5 3.5 0 0 1-3.5 3.5 3.5 3.5 0 0 1-3.5-3.5v-.03m7.64 11.83v-.03a3.5 3.5 0 0 1 3.5-3.5 3.5 3.5 0 0 1 3.5 3.5 3.5 3.5 0 0 1-3.5 3.5 3.5 3.5 0 0 1-3.5-3.5v-.04m8.56 11.18v-.03a3.5 3.5 0 0 1 3.5-3.5 3.5 3.5 0 0 1 3.5 3.5 3.5 3.5 0 0 1-3.5 3.5 3.5 3.5 0 0 1-3.5-3.5v-.03m9.4 10.47v-.03a3.5 3.5 0 0 1 3.5-3.5 3.5 3.5 0 0 1 3.5 3.5 3.5 3.5 0 0 1-3.5 3.5 3.5 3.5 0 0 1-3.5-3.5v-.03m10.18 9.73v-.03a3.5 3.5 0 0 1 3.5-3.5 3.5 3.5 0 0 1 3.5 3.5 3.5 3.5 0 0 1-3.5 3.5 3.5 3.5 0 0 1-3.5-3.5v-.04m10.83 8.98v-.02a3.5 3.5 0 0 1 3.5-3.5 3.5 3.5 0 0 1 3.5 3.5 3.5 3.5 0 0 1-3.5 3.5 3.5 3.5 0 0 1-3.5-3.5v-.04m11.45 8.18v-.03a3.5 3.5 0 0 1 3.5-3.5 3.5 3.5 0 0 1 3.5 3.5 3.5 3.5 0 0 1-3.5 3.5 3.5 3.5 0 0 1-3.5-3.5v-.05m11.9 7.5v-.02a3.5 3.5 0 0 1 3.5-3.5 3.5 3.5 0 0 1 3.5 3.5 3.5 3.5 0 0 1-3.5 3.5 3.5 3.5 0 0 1-3.5-3.5v-.04m12.3 6.77v-.03a3.5 3.5 0 0 1 3.5-3.5 3.5 3.5 0 0 1 3.5 3.5 3.5 3.5 0 0 1-3.5 3.5 3.5 3.5 0 0 1-3.5-3.5v-.04m12.66 6.13v-.03a3.5 3.5 0 0 1 3.5-3.5 3.5 3.5 0 0 1 3.5 3.5 3.5 3.5 0 0 1-3.5 3.5 3.5 3.5 0 0 1-3.5-3.5v-.04m12.92 5.54v-.03a3.5 3.5 0 0 1 3.5-3.5 3.5 3.5 0 0 1 3.5 3.5 3.5 3.5 0 0 1-3.5 3.5 3.5 3.5 0 0 1-3.5-3.5v-.04m13.13 5v-.04a3.5 3.5 0 0 1 3.5-3.5 3.5 3.5 0 0 1 3.5 3.5 3.5 3.5 0 0 1-3.5 3.5 3.5 3.5 0 0 1-3.5-3.5v-.04m13.3 4.5v-.04a3.5 3.5 0 0 1 3.5-3.5 3.5 3.5 0 0 1 3.5 3.5 3.5 3.5 0 0 1-3.5 3.5 3.5 3.5 0 0 1-3.5-3.5v-.03m13.45 4.07v-.03a3.5 3.5 0 0 1 3.5-3.5 3.5 3.5 0 0 1 3.5 3.5 3.5 3.5 0 0 1-3.5 3.5 3.5 3.5 0 0 1-3.5-3.5v-.04m13.6 3.55v-.03a3.5 3.5 0 0 1 3.5-3.5 3.5 3.5 0 0 1 3.5 3.5 3.5 3.5 0 0 1-3.5 3.5 3.5 3.5 0 0 1-3.5-3.5v-.04m13.67 3.2v-.04a3.5 3.5 0 0 1 3.5-3.5 3.5 3.5 0 0 1 3.5 3.5 3.5 3.5 0 0 1-3.5 3.5 3.5 3.5 0 0 1-3.5-3.5v-.04m13.72 2.98v-.03a3.5 3.5 0 0 1 3.5-3.5 3.5 3.5 0 0 1 3.5 3.5 3.5 3.5 0 0 1-3.5 3.5 3.5 3.5 0 0 1-3.5-3.5v-.04m13.84 2.43v-.03a3.5 3.5 0 0 1 3.5-3.5 3.5 3.5 0 0 1 3.5 3.5 3.5 3.5 0 0 1-3.5 3.5 3.5 3.5 0 0 1-3.5-3.5v-.04m13.83 2.4v-.03a3.5 3.5 0 0 1 3.5-3.5 3.5 3.5 0 0 1 3.5 3.5 3.5 3.5 0 0 1-3.5 3.5 3.5 3.5 0 0 1-3.5-3.5v-.03m13.93 1.83v-.04a3.5 3.5 0 0 1 3.5-3.5 3.5 3.5 0 0 1 3.5 3.5 3.5 3.5 0 0 1-3.5 3.5 3.5 3.5 0 0 1-3.5-3.5v-.04m13.92 1.8v-.02a3.5 3.5 0 0 1 3.5-3.5 3.5 3.5 0 0 1 3.5 3.5 3.5 3.5 0 0 1-3.5 3.5 3.5 3.5 0 0 1-3.5-3.5v-.04m13.96 1.5v-.03a3.5 3.5 0 0 1 3.5-3.5 3.5 3.5 0 0 1 3.5 3.5 3.5 3.5 0 0 1-3.5 3.5 3.5 3.5 0 0 1-3.5-3.5v-.03m14 1.23v-.04a3.5 3.5 0 0 1 3.5-3.5 3.5 3.5 0 0 1 3.5 3.5 3.5 3.5 0 0 1-3.5 3.5 3.5 3.5 0 0 1-3.5-3.5v-.03m13.97 1.23v-.04a3.5 3.5 0 0 1 3.5-3.5 3.5 3.5 0 0 1 3.5 3.5 3.5 3.5 0 0 1-3.5 3.5 3.5 3.5 0 0 1-3.5-3.5v-.04m14 1v-.03a3.5 3.5 0 0 1 3.5-3.5 3.5 3.5 0 0 1 3.5 3.5 3.5 3.5 0 0 1-3.5 3.5 3.5 3.5 0 0 1-3.5-3.5v-.04m14.02.63v-.04a3.5 3.5 0 0 1 3.5-3.5 3.5 3.5 0 0 1 3.5 3.5 3.5 3.5 0 0 1-3.5 3.5 3.5 3.5 0 0 1-3.5-3.5v-.04m14 .63v-.04a3.5 3.5 0 0 1 3.5-3.5 3.5 3.5 0 0 1 3.5 3.5 3.5 3.5 0 0 1-3.5 3.5 3.5 3.5 0 0 1-3.5-3.5v-.04m14.03.64v-.03a3.5 3.5 0 0 1 3.5-3.5 3.5 3.5 0 0 1 3.5 3.5 3.5 3.5 0 0 1-3.5 3.5 3.5 3.5 0 0 1-3.5-3.5v-.04m14.02.63v-.04a3.5 3.5 0 0 1 3.5-3.5 3.5 3.5 0 0 1 3.5 3.5 3.5 3.5 0 0 1-3.5 3.5 3.5 3.5 0 0 1-3.5-3.5v-.04m14.03.05v-.02a3.5 3.5 0 0 1 3.5-3.5 3.5 3.5 0 0 1 3.5 3.5 3.5 3.5 0 0 1-3.5 3.5 3.5 3.5 0 0 1-3.5-3.5v-.04m14.03 0v-.04a3.5 3.5 0 0 1 3.5-3.5 3.5 3.5 0 0 1 3.5 3.5 3.5 3.5 0 0 1-3.5 3.5 3.5 3.5 0 0 1-3.5-3.5v-.04m14.04 0v-.04a3.5 3.5 0 0 1 3.5-3.5 3.5 3.5 0 0 1 3.5 3.5 3.5 3.5 0 0 1-3.5 3.5 3.5 3.5 0 0 1-3.5-3.5v-.03m14.03-.02v-.04a3.5 3.5 0 0 1 3.5-3.5 3.5 3.5 0 0 1 3.5 3.5 3.5 3.5 0 0 1-3.5 3.5 3.5 3.5 0 0 1-3.5-3.5v-.03m14.03 0v-.03a3.5 3.5 0 0 1 3.5-3.5 3.5 3.5 0 0 1 3.5 3.5 3.5 3.5 0 0 1-3.5 3.5 3.5 3.5 0 0 1-3.5-3.5v-.04m14.03 0v-.04a3.5 3.5 0 0 1 3.5-3.5 3.5 3.5 0 0 1 3.5 3.5 3.5 3.5 0 0 1-3.5 3.5 3.5 3.5 0 0 1-3.5-3.5v-.05m14.04 0v-.04a3.5 3.5 0 0 1 3.5-3.5 3.5 3.5 0 0 1 3.5 3.5 3.5 3.5 0 0 1-3.5 3.5 3.5 3.5 0 0 1-3.5-3.5v-.02m14.03 0v-.04a3.5 3.5 0 0 1 3.5-3.5 3.5 3.5 0 0 1 3.5 3.5 3.5 3.5 0 0 1-3.5 3.5 3.5 3.5 0 0 1-3.5-3.5v-.04m14.03 0v-.04a3.5 3.5 0 0 1 3.5-3.5 3.5 3.5 0 0 1 3.5 3.5 3.5 3.5 0 0 1-3.5 3.5 3.5 3.5 0 0 1-3.5-3.5v-.04m14.03 0v-.04a3.5 3.5 0 0 1 3.5-3.5 3.5 3.5 0 0 1 3.5 3.5 3.5 3.5 0 0 1-3.5 3.5 3.5 3.5 0 0 1-3.5-3.5v-.03m14.03-.1v-.04a3.5 3.5 0 0 1 3.5-3.5 3.5 3.5 0 0 1 3.5 3.5 3.5 3.5 0 0 1-3.5 3.5 3.5 3.5 0 0 1-3.5-3.5v-.03m14.02-.15v-.03a3.5 3.5 0 0 1 3.5-3.5 3.5 3.5 0 0 1 3.5 3.5 3.5 3.5 0 0 1-3.5 3.5 3.5 3.5 0 0 1-3.5-3.5v-.05m14.03-.15v-.04a3.5 3.5 0 0 1 3.5-3.5 3.5 3.5 0 0 1 3.5 3.5 3.5 3.5 0 0 1-3.5 3.5 3.5 3.5 0 0 1-3.5-3.5v-.03m14.03-.16v-.03a3.5 3.5 0 0 1 3.5-3.5 3.5 3.5 0 0 1 3.5 3.5 3.5 3.5 0 0 1-3.5 3.5 3.5 3.5 0 0 1-3.5-3.5v-.04m14.02-.15v-.03a3.5 3.5 0 0 1 3.5-3.5 3.5 3.5 0 0 1 3.5 3.5 3.5 3.5 0 0 1-3.5 3.5 3.5 3.5 0 0 1-3.5-3.5v-.04m14.03-.15v-.04a3.5 3.5 0 0 1 3.5-3.5 3.5 3.5 0 0 1 3.5 3.5 3.5 3.5 0 0 1-3.5 3.5 3.5 3.5 0 0 1-3.5-3.5v-.04m14.03-.16v-.03a3.5 3.5 0 0 1 3.5-3.5 3.5 3.5 0 0 1 3.5 3.5 3.5 3.5 0 0 1-3.5 3.5 3.5 3.5 0 0 1-3.5-3.5v-.04m14.03-.15v-.04a3.5 3.5 0 0 1 3.5-3.5 3.5 3.5 0 0 1 3.5 3.5 3.5 3.5 0 0 1-3.5 3.5 3.5 3.5 0 0 1-3.5-3.5v-.03" fill="#e96f4c"/><path d="M-512.45 882.1l-6.95.15-.08-3.67h6.96z" stroke="#e96f4c" stroke-width=".05" fill="#e96f4c"/><path d="M137.86 1110.56l-14.2 4.86-.14-9.27z" stroke="#e96f4c" stroke-width="7" fill="#e96f4c"/><path d="M72.23 449.12l11.4.24 14.76.93 14.52 1.5 14.23 2.1 13.83 2.65 13.37 3.14 12.87 3.58 12.3 4 11.74 4.36 11.14 4.68 10.54 4.96 9.95 5.2 9.34 5.4 8.8 5.57 8.23 5.73 7.72 5.85 7.2 5.97 6.74 6.06 6.28 6.15 5.85 6.25 5.45 6.3 5.07 6.4 4.68 6.46 4.35 6.55 4 6.63 3.7 6.72 3.4 6.8 3.07 6.94 2.8 7.04 2.5 7.18 2.2 7.33 1.93 7.48 1.63 7.67 1.33 7.88.05.5" stroke="#05825f" stroke-width="7" stroke-linejoin="round" fill="none"/><path d="M72.4 445.65l-.15 6.95-3.52-.08v-6.95z" stroke="#05825f" stroke-width=".05" fill="#05825f"/><path d="M330.5 649.04l-5.62-13.9 9.24-.66z" stroke="#05825f" stroke-width="7" fill="#05825f"/><path d="M-515.93 656.83l.1-5.3.55-8.5.86-8.24 1.18-8 1.5-7.8 1.77-7.6 2.08-7.44 2.37-7.28 2.66-7.13 2.94-7 3.25-6.9 3.55-6.8 3.86-6.7 4.2-6.6 4.53-6.52 4.9-6.44 5.26-6.38 5.66-6.28 6.08-6.2 6.5-6.12 6.98-6.02 7.46-5.9 7.96-5.8 8.5-5.63 9.04-5.47 9.6-5.3 10.2-5.04 10.75-4.8 11.35-4.48 11.92-4.15 12.46-3.76 12.98-3.33 13.44-2.86 13.86-2.34 14.2-1.8 7.37-.6" stroke="#05825f" stroke-width="7" stroke-linejoin="round" fill="none"/><path d="M-512.45 656.8l-.07 3.53h-6.96l.08-3.66z" stroke="#05825f" stroke-width=".05" fill="#05825f"/><path d="M-266.33 449.55l-14.05 5.26-.4-9.26z" stroke="#05825f" stroke-width="7" fill="#05825f"/><path d="M331.4 656.83l.1-5.14.52-8.3.83-7.94 1.14-7.67 1.4-7.43 1.7-7.2 1.94-7 2.22-6.82 2.48-6.67 2.75-6.53 3-6.42 3.3-6.32 3.6-6.22 3.92-6.16 4.23-6.1 4.6-6.03 4.95-6 5.37-5.97 5.8-5.93 6.3-5.9 6.8-5.87 7.36-5.83 8-5.8 8.65-5.76 9.4-5.7 10.2-5.6 11.1-5.5 12-5.34 13.03-5.16 14.1-4.9 15.16-4.57 16.28-4.18 17.35-3.7 18.35-3.1 19.25-2.42 19.93-1.67 1.58-.06" stroke="#05825f" stroke-width="7" stroke-linejoin="round" fill="none"/><path d="M334.87 656.8l-.08 3.53h-6.96l.08-3.66z" stroke="#05825f" stroke-width=".05" fill="#05825f"/><path d="M617.86 449.4l-14.12 5.07-.28-9.27z" stroke="#05825f" stroke-width="7" fill="#05825f"/><path d="M956.42 449.12l7.48.16 10.8.68 10.65 1.1 10.45 1.56 10.26 1.95 10.03 2.36 9.8 2.73 9.56 3.1 9.3 3.47 9.03 3.8 8.73 4.1 8.45 4.42 8.15 4.7 7.84 4.98 7.52 5.23 7.2 5.47 6.87 5.68 6.55 5.9 6.23 6.1 5.9 6.3 5.57 6.45 5.25 6.63 4.94 6.8 4.62 6.93 4.3 7.1 3.97 7.24 3.65 7.38 3.36 7.53 3.05 7.68 2.72 7.82 2.4 7.98 2.1 8.15 1.77 8.3 1.43 8.5.28 2.22" stroke="#05825f" stroke-width="7" stroke-linejoin="round" fill="none"/><path d="M956.6 445.65l-.16 6.95-3.52-.08v-6.95z" stroke="#05825f" stroke-width=".05" fill="#05825f"/><path d="M1177.86 647.3l-5.6-13.9 9.26-.65z" stroke="#05825f" stroke-width="7" fill="#05825f"/><path d="M-251.5 406a6 6 0 0 1 6-6H59.22a6 6 0 0 1 6 6v86.1a6 6 0 0 1-6 6H-245.5a6 6 0 0 1-6-6z" stroke="#05825f" stroke-width="7" fill="#fff"/><use xlink:href="#e" transform="matrix(1,0,0,1,-239.5136082431991,412) translate(8.8828125 56.35416666666667)"/><path d="M632.68 406a6 6 0 0 1 6-6h304.74a6 6 0 0 1 6 6v86.1a6 6 0 0 1-6 6H638.68a6 6 0 0 1-6-6z" stroke="#05825f" stroke-width="7" fill="#fff"/><use xlink:href="#e" transform="matrix(1,0,0,1,644.6811745665855,412) translate(8.8828125 56.35416666666667)"/><path d="M152.68 1067.33a6 6 0 0 1 6-6h388a6 6 0 0 1 6 6v86.1a6 6 0 0 1-6 6h-388a6 6 0 0 1-6-6z" stroke="#e96f4c" stroke-width="7" fill="#fff"/><use xlink:href="#f" transform="matrix(1,0,0,1,164.68117456658547,1073.3333333333335) translate(0.1484375 56.35416666666667)"/><use xlink:href="#g" transform="matrix(1,0,0,1,164.68117456658547,1073.3333333333335) translate(105.66927083333333 56.35416666666667)"/><path d="M2229.15 659.6c59.72 0 108.13 48.4 108.13 108.13 0 59.7-48.4 108.12-108.13 108.12h-406.4c-59.7 0-108.1-48.4-108.1-108.12 0-59.72 48.4-108.13 108.1-108.13z" stroke="#e7c568" stroke-width="2" fill="#e7c568"/><use xlink:href="#a" transform="matrix(1,0,0,1,1719.63765086683,664.6027692625762) translate(115.30187500000001 132.4375)"/><use xlink:href="#h" transform="matrix(1,0,0,1,1719.63765086683,664.6027692625762) translate(206.1221875 132.4375)"/><path d="M3014.5 659.6c59.73 0 108.14 48.4 108.14 108.13 0 59.7-48.4 108.12-108.13 108.12h-406.38c-59.7 0-108.12-48.4-108.12-108.12 0-59.72 48.4-108.13 108.13-108.13z" stroke="#e7c568" stroke-width="2" fill="#e7c568"/><use xlink:href="#a" transform="matrix(1,0,0,1,2505,664.6027692625762) translate(115.30187500000001 132.4375)"/><use xlink:href="#i" transform="matrix(1,0,0,1,2505,664.6027692625762) translate(206.1221875 132.4375)"/><path d="M3799.88 659.6c59.7 0 108.12 48.4 108.12 108.13 0 59.7-48.4 108.12-108.13 108.12H3393.5c-59.73 0-108.14-48.4-108.14-108.12 0-59.72 48.4-108.13 108.13-108.13z" stroke="#429d9e" stroke-width="2" fill="#136a7f"/><use xlink:href="#j" transform="matrix(1,0,0,1,3290.36234913317,664.6027692625762) translate(144.22765625 132.4375)"/><use xlink:href="#k" transform="matrix(1,0,0,1,3290.36234913317,664.6027692625762) translate(290.90734375 132.4375)"/><path d="M1763.74 449.12l12 .25 15.33.96 15.1 1.6 14.74 2.17 14.3 2.72 13.8 3.24 13.2 3.68 12.6 4.1 11.96 4.44 11.3 4.75 10.66 5 10.02 5.25 9.4 5.42 8.77 5.57 8.23 5.7 7.67 5.83 7.15 5.92 6.67 6 6.2 6.07 5.77 6.13 5.35 6.22 4.98 6.27 4.6 6.35 4.28 6.42 3.94 6.5 3.63 6.58 3.3 6.68 3.04 6.8 2.74 6.9 2.45 7.03 2.16 7.18 1.9 7.35 1.6 7.54 1.3 7.74v.1" stroke="#05825f" stroke-width="7" stroke-linejoin="round" fill="none"/><path d="M1763.9 445.65l-.14 6.95-3.52-.08v-6.95z" stroke="#05825f" stroke-width=".05" fill="#05825f"/><path d="M2025.14 647.3l-5.64-13.9 9.24-.66z" stroke="#05825f" stroke-width="7" fill="#05825f"/><path d="M1178.7 655.1l.12-5.23.53-8.44.86-8.2 1.18-7.94 1.48-7.76 1.77-7.55 2.06-7.4 2.35-7.23 2.63-7.1 2.93-6.96 3.24-6.85 3.53-6.75 3.84-6.65 4.18-6.57 4.5-6.48 4.86-6.4 5.23-6.32 5.62-6.24 6.02-6.16 6.47-6.07 6.9-5.96 7.4-5.85 7.9-5.75 8.4-5.58 8.94-5.42 9.5-5.22 10.07-5 10.64-4.73 11.2-4.43 11.76-4.1 12.28-3.7 12.78-3.28 13.23-2.82 13.62-2.3 13.95-1.76 6.78-.57" stroke="#05825f" stroke-width="7" stroke-linejoin="round" fill="none"/><path d="M1182.2 655.08l-.1 3.52h-6.94l.08-3.66z" stroke="#05825f" stroke-width=".05" fill="#05825f"/><path d="M1425.18 449.55l-14.04 5.27-.4-9.26z" stroke="#05825f" stroke-width="7" fill="#05825f"/><path d="M2583.74 449.12l7.98.17 11.32.7 11.15 1.17 10.94 1.62 10.75 2.04 10.5 2.46 10.23 2.86 9.97 3.24 9.68 3.6 9.36 3.93 9.04 4.26 8.7 4.54 8.38 4.83 8.02 5.1 7.67 5.32 7.3 5.54 6.97 5.76 6.6 5.94 6.27 6.13 5.9 6.3 5.56 6.44 5.23 6.6 4.9 6.75 4.56 6.88 4.24 7 3.93 7.15 3.62 7.28 3.3 7.4 3 7.56 2.66 7.7 2.38 7.85 2.06 8 1.73 8.17 1.4 8.35.24 1.8" stroke="#05825f" stroke-width="7" stroke-linejoin="round" fill="none"/><path d="M2583.9 445.65l-.14 6.95-3.52-.08v-6.95z" stroke="#05825f" stroke-width=".05" fill="#05825f"/><path d="M2810.54 647.3l-5.6-13.9 9.24-.65z" stroke="#05825f" stroke-width="7" fill="#05825f"/><path d="M2026.03 655.1l.12-5.6.55-8.86.9-8.65 1.26-8.46 1.58-8.27 1.9-8.1 2.2-7.94 2.54-7.78 2.84-7.63 3.15-7.5 3.46-7.36 3.78-7.22 4.1-7.08 4.4-6.95 4.75-6.8 5.06-6.68 5.4-6.53 5.75-6.38 6.08-6.2 6.43-6.05 6.78-5.84 7.13-5.65 7.48-5.44 7.82-5.2 8.18-4.95 8.52-4.7 8.85-4.38 9.17-4.1 9.48-3.74 9.78-3.4 10.07-3.05 10.33-2.65 10.58-2.25 10.8-1.82 10.22-1.28" stroke="#05825f" stroke-width="7" stroke-linejoin="round" fill="none"/><path d="M2029.5 655.08l-.07 3.52h-6.95l.08-3.66z" stroke="#05825f" stroke-width=".05" fill="#05825f"/><path d="M2245.2 449.66l-14 5.4-.5-9.26z" stroke="#05825f" stroke-width="7" fill="#05825f"/><path d="M3363.74 449.12l8.5.18 11.87.74 11.7 1.23 11.47 1.7 11.25 2.14 10.98 2.6 10.7 2.97 10.37 3.37 10.05 3.74 9.7 4.08 9.33 4.4 8.96 4.67 8.58 4.95 8.18 5.2 7.8 5.4 7.4 5.63 7.04 5.82 6.64 6 6.28 6.13 5.9 6.3 5.55 6.42 5.2 6.56 4.86 6.7 4.53 6.8 4.2 6.93 3.87 7.05 3.56 7.18 3.24 7.3 2.95 7.44 2.62 7.57 2.33 7.7 2.03 7.88 1.7 8.05 1.4 8.23.18 1.44" stroke="#05825f" stroke-width="7" stroke-linejoin="round" fill="none"/><path d="M3363.9 445.65l-.14 6.95-3.52-.08v-6.95z" stroke="#05825f" stroke-width=".05" fill="#05825f"/><path d="M3595.9 647.3l-5.62-13.9 9.24-.65z" stroke="#05825f" stroke-width="7" fill="#05825f"/><path d="M2811.4 655.1l.1-5.7.58-8.98.92-8.78 1.27-8.6 1.6-8.4 1.93-8.24 2.26-8.08 2.57-7.9 2.9-7.78 3.2-7.6 3.5-7.48 3.83-7.32 4.14-7.17 4.46-7.03 4.77-6.87 5.1-6.7 5.4-6.55 5.75-6.38 6.06-6.18 6.4-6 6.7-5.8 7.02-5.56 7.35-5.34 7.68-5.1 7.97-4.82 8.27-4.55 8.58-4.26 8.85-3.94 9.13-3.62 9.4-3.26 9.64-2.92 9.87-2.53 10.1-2.15 10.3-1.74 8.47-1.07" stroke="#05825f" stroke-width="7" stroke-linejoin="round" fill="none"/><path d="M2814.87 655.08l-.07 3.52h-6.96l.08-3.66z" stroke="#05825f" stroke-width=".05" fill="#05825f"/><path d="M3025.2 449.7l-13.98 5.44-.53-9.26z" stroke="#05825f" stroke-width="7" fill="#05825f"/><path d="M1440 406a6 6 0 0 1 6-6h304.74a6 6 0 0 1 6 6v86.1a6 6 0 0 1-6 6H1446a6 6 0 0 1-6-6z" stroke="#05825f" stroke-width="7" fill="#fff"/><use xlink:href="#e" transform="matrix(1,0,0,1,1452,412) translate(8.8828125 56.35416666666667)"/><path d="M2260 406a6 6 0 0 1 6-6h304.74a6 6 0 0 1 6 6v86.1a6 6 0 0 1-6 6H2266a6 6 0 0 1-6-6z" stroke="#05825f" stroke-width="7" fill="#fff"/><use xlink:href="#e" transform="matrix(1,0,0,1,2272,412) translate(8.8828125 56.35416666666667)"/><path d="M3040 406a6 6 0 0 1 6-6h304.74a6 6 0 0 1 6 6v86.1a6 6 0 0 1-6 6H3046a6 6 0 0 1-6-6z" stroke="#05825f" stroke-width="7" fill="#fff"/><use xlink:href="#e" transform="matrix(1,0,0,1,3052,412) translate(8.8828125 56.35416666666667)"/><path d="M3043.5 1110.37v-.03a3.5 3.5 0 0 1 3.5-3.5 3.5 3.5 0 0 1 3.5 3.5 3.5 3.5 0 0 1-3.5 3.5 3.5 3.5 0 0 1-3.5-3.5v-.04m13.92-.1v-.03a3.5 3.5 0 0 1 3.5-3.5 3.5 3.5 0 0 1 3.5 3.5 3.5 3.5 0 0 1-3.5 3.5 3.5 3.5 0 0 1-3.5-3.5v-.04m13.9-.1v-.03a3.5 3.5 0 0 1 3.5-3.5 3.5 3.5 0 0 1 3.5 3.5 3.5 3.5 0 0 1-3.5 3.5 3.5 3.5 0 0 1-3.5-3.5v-.03m13.92-.1v-.04a3.5 3.5 0 0 1 3.5-3.5 3.5 3.5 0 0 1 3.5 3.5 3.5 3.5 0 0 1-3.5 3.5 3.5 3.5 0 0 1-3.5-3.5v-.03m13.9-.1v-.04a3.5 3.5 0 0 1 3.5-3.5 3.5 3.5 0 0 1 3.5 3.5 3.5 3.5 0 0 1-3.5 3.5 3.5 3.5 0 0 1-3.5-3.5v-.03m13.92-.1v-.03a3.5 3.5 0 0 1 3.5-3.5 3.5 3.5 0 0 1 3.5 3.5 3.5 3.5 0 0 1-3.5 3.5 3.5 3.5 0 0 1-3.5-3.5v-.04m13.9-.1v-.03a3.5 3.5 0 0 1 3.5-3.5 3.5 3.5 0 0 1 3.5 3.5 3.5 3.5 0 0 1-3.5 3.5 3.5 3.5 0 0 1-3.5-3.5v-.04m13.93-.1v-.04a3.5 3.5 0 0 1 3.5-3.5 3.5 3.5 0 0 1 3.5 3.5 3.5 3.5 0 0 1-3.5 3.5 3.5 3.5 0 0 1-3.5-3.5v-.03m13.9-.1v-.04a3.5 3.5 0 0 1 3.5-3.5 3.5 3.5 0 0 1 3.5 3.5 3.5 3.5 0 0 1-3.5 3.5 3.5 3.5 0 0 1-3.5-3.5v-.04m13.9-.1v-.03a3.5 3.5 0 0 1 3.5-3.5 3.5 3.5 0 0 1 3.5 3.5 3.5 3.5 0 0 1-3.5 3.5 3.5 3.5 0 0 1-3.5-3.5v-.04m13.92-.1v-.04a3.5 3.5 0 0 1 3.5-3.5 3.5 3.5 0 0 1 3.5 3.5 3.5 3.5 0 0 1-3.5 3.5 3.5 3.5 0 0 1-3.5-3.5v-.04m13.9-.1v-.03a3.5 3.5 0 0 1 3.5-3.5 3.5 3.5 0 0 1 3.5 3.5 3.5 3.5 0 0 1-3.5 3.5 3.5 3.5 0 0 1-3.5-3.5v-.05m13.92-.1v-.03a3.5 3.5 0 0 1 3.5-3.5 3.5 3.5 0 0 1 3.5 3.5 3.5 3.5 0 0 1-3.5 3.5 3.5 3.5 0 0 1-3.5-3.5v-.03m13.9-.6v-.03a3.5 3.5 0 0 1 3.5-3.5 3.5 3.5 0 0 1 3.5 3.5 3.5 3.5 0 0 1-3.5 3.5 3.5 3.5 0 0 1-3.5-3.5v-.04m13.88-.78v-.04a3.5 3.5 0 0 1 3.5-3.5 3.5 3.5 0 0 1 3.5 3.5 3.5 3.5 0 0 1-3.5 3.5 3.5 3.5 0 0 1-3.5-3.5v-.02m13.9-.8v-.02a3.5 3.5 0 0 1 3.5-3.5 3.5 3.5 0 0 1 3.5 3.5 3.5 3.5 0 0 1-3.5 3.5 3.5 3.5 0 0 1-3.5-3.5v-.04m13.87-.78v-.03a3.5 3.5 0 0 1 3.5-3.5 3.5 3.5 0 0 1 3.5 3.5 3.5 3.5 0 0 1-3.5 3.5 3.5 3.5 0 0 1-3.5-3.5v-.03m13.86-.95v-.04a3.5 3.5 0 0 1 3.5-3.5 3.5 3.5 0 0 1 3.5 3.5 3.5 3.5 0 0 1-3.5 3.5 3.5 3.5 0 0 1-3.5-3.5v-.03m13.84-1.37v-.04a3.5 3.5 0 0 1 3.5-3.5 3.5 3.5 0 0 1 3.5 3.5 3.5 3.5 0 0 1-3.5 3.5 3.5 3.5 0 0 1-3.5-3.5v-.03m13.84-1.37v-.03a3.5 3.5 0 0 1 3.5-3.5 3.5 3.5 0 0 1 3.5 3.5 3.5 3.5 0 0 1-3.5 3.5 3.5 3.5 0 0 1-3.5-3.5v-.04m13.83-1.44v-.04a3.5 3.5 0 0 1 3.5-3.5 3.5 3.5 0 0 1 3.5 3.5 3.5 3.5 0 0 1-3.5 3.5 3.5 3.5 0 0 1-3.5-3.5v-.03m13.76-1.95v-.04a3.5 3.5 0 0 1 3.5-3.5 3.5 3.5 0 0 1 3.5 3.5 3.5 3.5 0 0 1-3.5 3.5 3.5 3.5 0 0 1-3.5-3.5v-.03m13.76-1.96v-.03a3.5 3.5 0 0 1 3.5-3.5 3.5 3.5 0 0 1 3.5 3.5 3.5 3.5 0 0 1-3.5 3.5 3.5 3.5 0 0 1-3.5-3.5v-.04m13.7-2.33v-.03a3.5 3.5 0 0 1 3.5-3.5 3.5 3.5 0 0 1 3.5 3.5 3.5 3.5 0 0 1-3.5 3.5 3.5 3.5 0 0 1-3.5-3.5v-.04m13.66-2.53v-.03a3.5 3.5 0 0 1 3.5-3.5 3.5 3.5 0 0 1 3.5 3.5 3.5 3.5 0 0 1-3.5 3.5 3.5 3.5 0 0 1-3.5-3.5v-.04m13.6-2.9v-.02a3.5 3.5 0 0 1 3.5-3.5 3.5 3.5 0 0 1 3.5 3.5 3.5 3.5 0 0 1-3.5 3.5 3.5 3.5 0 0 1-3.5-3.5v-.04m13.54-3.1v-.03a3.5 3.5 0 0 1 3.5-3.5 3.5 3.5 0 0 1 3.5 3.5 3.5 3.5 0 0 1-3.5 3.5 3.5 3.5 0 0 1-3.5-3.5v-.03m13.4-3.63v-.03a3.5 3.5 0 0 1 3.5-3.5 3.5 3.5 0 0 1 3.5 3.5 3.5 3.5 0 0 1-3.5 3.5 3.5 3.5 0 0 1-3.5-3.5v-.03m13.33-3.93v-.03a3.5 3.5 0 0 1 3.5-3.5 3.5 3.5 0 0 1 3.5 3.5 3.5 3.5 0 0 1-3.5 3.5 3.5 3.5 0 0 1-3.5-3.5v-.03m13.2-4.33v-.03a3.5 3.5 0 0 1 3.5-3.5 3.5 3.5 0 0 1 3.5 3.5 3.5 3.5 0 0 1-3.5 3.5 3.5 3.5 0 0 1-3.5-3.5v-.03m13.02-4.8v-.04a3.5 3.5 0 0 1 3.5-3.5 3.5 3.5 0 0 1 3.5 3.5 3.5 3.5 0 0 1-3.5 3.5 3.5 3.5 0 0 1-3.5-3.5v-.04m12.82-5.35v-.03a3.5 3.5 0 0 1 3.5-3.5 3.5 3.5 0 0 1 3.5 3.5 3.5 3.5 0 0 1-3.5 3.5 3.5 3.5 0 0 1-3.5-3.5v-.04m12.56-5.9v-.05a3.5 3.5 0 0 1 3.5-3.5 3.5 3.5 0 0 1 3.5 3.5 3.5 3.5 0 0 1-3.5 3.5 3.5 3.5 0 0 1-3.5-3.5v-.03m12.25-6.52v-.03a3.5 3.5 0 0 1 3.5-3.5 3.5 3.5 0 0 1 3.5 3.5 3.5 3.5 0 0 1-3.5 3.5 3.5 3.5 0 0 1-3.5-3.5v-.04m11.9-7.12v-.03a3.5 3.5 0 0 1 3.5-3.5 3.5 3.5 0 0 1 3.5 3.5 3.5 3.5 0 0 1-3.5 3.5 3.5 3.5 0 0 1-3.5-3.5v-.04m11.47-7.8v-.02a3.5 3.5 0 0 1 3.5-3.5 3.5 3.5 0 0 1 3.5 3.5 3.5 3.5 0 0 1-3.5 3.5 3.5 3.5 0 0 1-3.5-3.5v-.04m10.92-8.54v-.03a3.5 3.5 0 0 1 3.5-3.5 3.5 3.5 0 0 1 3.5 3.5 3.5 3.5 0 0 1-3.5 3.5 3.5 3.5 0 0 1-3.5-3.5v-.04m10.3-9.27v-.03a3.5 3.5 0 0 1 3.5-3.5 3.5 3.5 0 0 1 3.5 3.5 3.5 3.5 0 0 1-3.5 3.5 3.5 3.5 0 0 1-3.5-3.5v-.04m9.6-10v-.03a3.5 3.5 0 0 1 3.5-3.5 3.5 3.5 0 0 1 3.5 3.5 3.5 3.5 0 0 1-3.5 3.5 3.5 3.5 0 0 1-3.5-3.5v-.04m8.8-10.7v-.04a3.5 3.5 0 0 1 3.5-3.5 3.5 3.5 0 0 1 3.5 3.5 3.5 3.5 0 0 1-3.5 3.5 3.5 3.5 0 0 1-3.5-3.5v-.04m7.9-11.38v-.04a3.5 3.5 0 0 1 3.5-3.5 3.5 3.5 0 0 1 3.5 3.5 3.5 3.5 0 0 1-3.5 3.5 3.5 3.5 0 0 1-3.5-3.5v-.03m6.93-11.98v-.04a3.5 3.5 0 0 1 3.5-3.5 3.5 3.5 0 0 1 3.5 3.5 3.5 3.5 0 0 1-3.5 3.5 3.5 3.5 0 0 1-3.5-3.5v-.03m5.92-12.52v-.03a3.5 3.5 0 0 1 3.5-3.5 3.5 3.5 0 0 1 3.5 3.5 3.5 3.5 0 0 1-3.5 3.5 3.5 3.5 0 0 1-3.5-3.5v-.04m4.9-12.95v-.02a3.5 3.5 0 0 1 3.5-3.5 3.5 3.5 0 0 1 3.5 3.5 3.5 3.5 0 0 1-3.5 3.5 3.5 3.5 0 0 1-3.5-3.5v-.04m3.9-13.28v-.03a3.5 3.5 0 0 1 3.5-3.5 3.5 3.5 0 0 1 3.5 3.5 3.5 3.5 0 0 1-3.5 3.5 3.5 3.5 0 0 1-3.5-3.5v-.04m2.95-13.53v-.03a3.5 3.5 0 0 1 3.5-3.5 3.5 3.5 0 0 1 3.5 3.5 3.5 3.5 0 0 1-3.5 3.5 3.5 3.5 0 0 1-3.5-3.5v-.04" fill="#e96f4c"/><path d="M3047.14 1113.8l-3.64.06v-6.96l3.55-.04z" stroke="#e96f4c" stroke-width=".05" fill="#e96f4c"/><path d="M3596.03 888.16l3.8 14.5-9.25-.52z" stroke="#e96f4c" stroke-width="7" fill="#e96f4c"/><path d="M2022.53 880.4v-.04a3.5 3.5 0 0 1 3.5-3.5 3.5 3.5 0 0 1 3.5 3.5 3.5 3.5 0 0 1-3.5 3.5 3.5 3.5 0 0 1-3.5-3.5v-.03m.53 14.06v-.05a3.5 3.5 0 0 1 3.5-3.5 3.5 3.5 0 0 1 3.5 3.5 3.5 3.5 0 0 1-3.5 3.5 3.5 3.5 0 0 1-3.5-3.5v-.03m1.24 14v-.02a3.5 3.5 0 0 1 3.5-3.5 3.5 3.5 0 0 1 3.5 3.5 3.5 3.5 0 0 1-3.5 3.5 3.5 3.5 0 0 1-3.5-3.5v-.04m2.1 13.9v-.02a3.5 3.5 0 0 1 3.5-3.5 3.5 3.5 0 0 1 3.5 3.5 3.5 3.5 0 0 1-3.5 3.5 3.5 3.5 0 0 1-3.5-3.5v-.04m2.95 13.76v-.03a3.5 3.5 0 0 1 3.5-3.5 3.5 3.5 0 0 1 3.5 3.5 3.5 3.5 0 0 1-3.5 3.5 3.5 3.5 0 0 1-3.5-3.5v-.04m3.94 13.5v-.04a3.5 3.5 0 0 1 3.5-3.5 3.5 3.5 0 0 1 3.5 3.5 3.5 3.5 0 0 1-3.5 3.5 3.5 3.5 0 0 1-3.5-3.5v-.03m4.88 13.18v-.02a3.5 3.5 0 0 1 3.5-3.5 3.5 3.5 0 0 1 3.5 3.5 3.5 3.5 0 0 1-3.5 3.5 3.5 3.5 0 0 1-3.5-3.5v-.04m5.9 12.77v-.03a3.5 3.5 0 0 1 3.5-3.5 3.5 3.5 0 0 1 3.5 3.5 3.5 3.5 0 0 1-3.5 3.5 3.5 3.5 0 0 1-3.5-3.5v-.03m6.9 12.25v-.05a3.5 3.5 0 0 1 3.5-3.5 3.5 3.5 0 0 1 3.5 3.5 3.5 3.5 0 0 1-3.5 3.5 3.5 3.5 0 0 1-3.5-3.5v-.03m7.86 11.65v-.03a3.5 3.5 0 0 1 3.5-3.5 3.5 3.5 0 0 1 3.5 3.5 3.5 3.5 0 0 1-3.5 3.5 3.5 3.5 0 0 1-3.5-3.5v-.04m8.77 10.98v-.03a3.5 3.5 0 0 1 3.5-3.5 3.5 3.5 0 0 1 3.5 3.5 3.5 3.5 0 0 1-3.5 3.5 3.5 3.5 0 0 1-3.5-3.5v-.04m9.6 10.27v-.03a3.5 3.5 0 0 1 3.5-3.5 3.5 3.5 0 0 1 3.5 3.5 3.5 3.5 0 0 1-3.5 3.5 3.5 3.5 0 0 1-3.5-3.5v-.04m10.37 9.5v-.05a3.5 3.5 0 0 1 3.5-3.5 3.5 3.5 0 0 1 3.5 3.5 3.5 3.5 0 0 1-3.5 3.5 3.5 3.5 0 0 1-3.5-3.5v-.03m10.98 8.75v-.04a3.5 3.5 0 0 1 3.5-3.5 3.5 3.5 0 0 1 3.5 3.5 3.5 3.5 0 0 1-3.5 3.5 3.5 3.5 0 0 1-3.5-3.5v-.03m11.52 8.03v-.04a3.5 3.5 0 0 1 3.5-3.5 3.5 3.5 0 0 1 3.5 3.5 3.5 3.5 0 0 1-3.5 3.5 3.5 3.5 0 0 1-3.5-3.5v-.04m11.98 7.3v-.03a3.5 3.5 0 0 1 3.5-3.5 3.5 3.5 0 0 1 3.5 3.5 3.5 3.5 0 0 1-3.5 3.5 3.5 3.5 0 0 1-3.5-3.5v-.03m12.37 6.63v-.04a3.5 3.5 0 0 1 3.5-3.5 3.5 3.5 0 0 1 3.5 3.5 3.5 3.5 0 0 1-3.5 3.5 3.5 3.5 0 0 1-3.5-3.5v-.04m12.67 6.02v-.03a3.5 3.5 0 0 1 3.5-3.5 3.5 3.5 0 0 1 3.5 3.5 3.5 3.5 0 0 1-3.5 3.5 3.5 3.5 0 0 1-3.5-3.5v-.04m12.92 5.47v-.04a3.5 3.5 0 0 1 3.5-3.5 3.5 3.5 0 0 1 3.5 3.5 3.5 3.5 0 0 1-3.5 3.5 3.5 3.5 0 0 1-3.5-3.5v-.03m13.13 4.92v-.03a3.5 3.5 0 0 1 3.5-3.5 3.5 3.5 0 0 1 3.5 3.5 3.5 3.5 0 0 1-3.5 3.5 3.5 3.5 0 0 1-3.5-3.5v-.05m13.3 4.46v-.03a3.5 3.5 0 0 1 3.5-3.5 3.5 3.5 0 0 1 3.5 3.5 3.5 3.5 0 0 1-3.5 3.5 3.5 3.5 0 0 1-3.5-3.5v-.03m13.42 4.06v-.03a3.5 3.5 0 0 1 3.5-3.5 3.5 3.5 0 0 1 3.5 3.5 3.5 3.5 0 0 1-3.5 3.5 3.5 3.5 0 0 1-3.5-3.5v-.04m13.56 3.55v-.04a3.5 3.5 0 0 1 3.5-3.5 3.5 3.5 0 0 1 3.5 3.5 3.5 3.5 0 0 1-3.5 3.5 3.5 3.5 0 0 1-3.5-3.5v-.03m13.65 3.22v-.03a3.5 3.5 0 0 1 3.5-3.5 3.5 3.5 0 0 1 3.5 3.5 3.5 3.5 0 0 1-3.5 3.5 3.5 3.5 0 0 1-3.5-3.5v-.05m13.7 2.97v-.03a3.5 3.5 0 0 1 3.5-3.5 3.5 3.5 0 0 1 3.5 3.5 3.5 3.5 0 0 1-3.5 3.5 3.5 3.5 0 0 1-3.5-3.5v-.05m13.8 2.5v-.03a3.5 3.5 0 0 1 3.5-3.5 3.5 3.5 0 0 1 3.5 3.5 3.5 3.5 0 0 1-3.5 3.5 3.5 3.5 0 0 1-3.5-3.5v-.04m13.8 2.4v-.04a3.5 3.5 0 0 1 3.5-3.5 3.5 3.5 0 0 1 3.5 3.5 3.5 3.5 0 0 1-3.5 3.5 3.5 3.5 0 0 1-3.5-3.5v-.03m13.87 1.98v-.03a3.5 3.5 0 0 1 3.5-3.5 3.5 3.5 0 0 1 3.5 3.5 3.5 3.5 0 0 1-3.5 3.5 3.5 3.5 0 0 1-3.5-3.5v-.04m13.9 1.83v-.04a3.5 3.5 0 0 1 3.5-3.5 3.5 3.5 0 0 1 3.5 3.5 3.5 3.5 0 0 1-3.5 3.5 3.5 3.5 0 0 1-3.5-3.5v-.04m13.9 1.75v-.03a3.5 3.5 0 0 1 3.5-3.5 3.5 3.5 0 0 1 3.5 3.5 3.5 3.5 0 0 1-3.5 3.5 3.5 3.5 0 0 1-3.5-3.5v-.04m13.95 1.23v-.03a3.5 3.5 0 0 1 3.5-3.5 3.5 3.5 0 0 1 3.5 3.5 3.5 3.5 0 0 1-3.5 3.5 3.5 3.5 0 0 1-3.5-3.5v-.04m13.95 1.22v-.04a3.5 3.5 0 0 1 3.5-3.5 3.5 3.5 0 0 1 3.5 3.5 3.5 3.5 0 0 1-3.5 3.5 3.5 3.5 0 0 1-3.5-3.5v-.03m13.96 1.22v-.03a3.5 3.5 0 0 1 3.5-3.5 3.5 3.5 0 0 1 3.5 3.5 3.5 3.5 0 0 1-3.5 3.5 3.5 3.5 0 0 1-3.5-3.5v-.04m14 .82v-.03a3.5 3.5 0 0 1 3.5-3.5 3.5 3.5 0 0 1 3.5 3.5 3.5 3.5 0 0 1-3.5 3.5 3.5 3.5 0 0 1-3.5-3.5v-.05m13.98.64v-.05a3.5 3.5 0 0 1 3.5-3.5 3.5 3.5 0 0 1 3.5 3.5 3.5 3.5 0 0 1-3.5 3.5 3.5 3.5 0 0 1-3.5-3.5v-.03m14 .63v-.04a3.5 3.5 0 0 1 3.5-3.5 3.5 3.5 0 0 1 3.5 3.5 3.5 3.5 0 0 1-3.5 3.5 3.5 3.5 0 0 1-3.5-3.5v-.02m14 .63v-.03a3.5 3.5 0 0 1 3.5-3.5 3.5 3.5 0 0 1 3.5 3.5 3.5 3.5 0 0 1-3.5 3.5 3.5 3.5 0 0 1-3.5-3.5v-.03m13.98.63v-.04a3.5 3.5 0 0 1 3.5-3.5 3.5 3.5 0 0 1 3.5 3.5 3.5 3.5 0 0 1-3.5 3.5 3.5 3.5 0 0 1-3.5-3.5v-.03m14 .3v-.04a3.5 3.5 0 0 1 3.5-3.5 3.5 3.5 0 0 1 3.5 3.5 3.5 3.5 0 0 1-3.5 3.5 3.5 3.5 0 0 1-3.5-3.5v-.04m14 .05v-.03a3.5 3.5 0 0 1 3.5-3.5 3.5 3.5 0 0 1 3.5 3.5 3.5 3.5 0 0 1-3.5 3.5 3.5 3.5 0 0 1-3.5-3.5v-.04m14 .05v-.03a3.5 3.5 0 0 1 3.5-3.5 3.5 3.5 0 0 1 3.5 3.5 3.5 3.5 0 0 1-3.5 3.5 3.5 3.5 0 0 1-3.5-3.5v-.04m14 .05v-.03a3.5 3.5 0 0 1 3.5-3.5 3.5 3.5 0 0 1 3.5 3.5 3.5 3.5 0 0 1-3.5 3.5 3.5 3.5 0 0 1-3.5-3.5v-.04m14.02.05v-.02a3.5 3.5 0 0 1 3.5-3.5 3.5 3.5 0 0 1 3.5 3.5 3.5 3.5 0 0 1-3.5 3.5 3.5 3.5 0 0 1-3.5-3.5v-.04m14 .05v-.04a3.5 3.5 0 0 1 3.5-3.5 3.5 3.5 0 0 1 3.5 3.5 3.5 3.5 0 0 1-3.5 3.5 3.5 3.5 0 0 1-3.5-3.5v-.04m14 .05v-.03a3.5 3.5 0 0 1 3.5-3.5 3.5 3.5 0 0 1 3.5 3.5 3.5 3.5 0 0 1-3.5 3.5 3.5 3.5 0 0 1-3.5-3.5v-.04m14 .05v-.03a3.5 3.5 0 0 1 3.5-3.5 3.5 3.5 0 0 1 3.5 3.5 3.5 3.5 0 0 1-3.5 3.5 3.5 3.5 0 0 1-3.5-3.5v-.04m14 .05v-.03a3.5 3.5 0 0 1 3.5-3.5 3.5 3.5 0 0 1 3.5 3.5 3.5 3.5 0 0 1-3.5 3.5 3.5 3.5 0 0 1-3.5-3.5v-.04m14.02.06v-.04a3.5 3.5 0 0 1 3.5-3.5 3.5 3.5 0 0 1 3.5 3.5 3.5 3.5 0 0 1-3.5 3.5 3.5 3.5 0 0 1-3.5-3.5v-.04m14 .05v-.04a3.5 3.5 0 0 1 3.5-3.5 3.5 3.5 0 0 1 3.5 3.5 3.5 3.5 0 0 1-3.5 3.5 3.5 3.5 0 0 1-3.5-3.5v-.04m14 .05v-.03a3.5 3.5 0 0 1 3.5-3.5 3.5 3.5 0 0 1 3.5 3.5 3.5 3.5 0 0 1-3.5 3.5 3.5 3.5 0 0 1-3.5-3.5v-.04" fill="#e96f4c"/><path d="M2029.5 880.38l-6.94.14-.08-3.67h6.95z" stroke="#e96f4c" stroke-width=".05" fill="#e96f4c"/><path d="M2625.17 1110.4l-14.26 4.65v-9.27z" stroke="#e96f4c" stroke-width="7" fill="#e96f4c"/><path d="M2640 1067.33a6 6 0 0 1 6-6h388a6 6 0 0 1 6 6v86.1a6 6 0 0 1-6 6h-388a6 6 0 0 1-6-6z" stroke="#e96f4c" stroke-width="7" fill="#fff"/><g><use xlink:href="#f" transform="matrix(1,0,0,1,2652,1073.3333333333335) translate(0.1484375 56.35416666666667)"/><use xlink:href="#g" transform="matrix(1,0,0,1,2652,1073.3333333333335) translate(105.66927083333333 56.35416666666667)"/></g><defs><path fill="#fff" d="M375 0H183v-1456h192V0" id="l"/><path fill="#fff" d="M1161-1018c0 201-122 330-278 388l342 618V0h-206L703-589H361V0H168v-1456h482c310-2 511 139 511 438zm-193 0c0-187-120-280-313-280H361v552h295c179 3 313-101 312-272" id="m"/><g id="a"><use transform="matrix(0.0390625,0,0,0.0390625,0,0)" xlink:href="#l"/><use transform="matrix(0.0390625,0,0,0.0390625,21.7578125,0)" xlink:href="#m"/></g><path fill="#fff" d="M569-1476c255 0 440 146 439 390 0 143-91 314-274 512L344-151h731V0H121v-133l504-560c75-85 125-155 155-207 105-184 6-424-211-424-183 0-293 113-291 297H93c-3-270 199-449 476-449" id="n"/><path fill="#fff" d="M574-1476c351 0 454 237 460 615v240c0 217-37 378-111 483S733 20 576 20c-346 0-454-246-461-616v-247c0-214 37-373 111-477s190-156 348-156zm275 905c0-337 59-752-275-753-95 0-160 38-207 107-80 118-66 409-67 625 0 157 22 273 68 348s115 113 208 113c91 0 160-35 204-106s69-182 69-334" id="o"/><path fill="#fff" d="M132-554c0-555 187-908 715-903v157c-320-8-501 179-526 477 77-88 181-132 314-132 259 0 417 214 417 480 0 286-172 495-451 495-293 0-469-266-469-574zm737 88c0-181-95-335-265-335-133 0-252 96-286 200v68c-6 207 101 397 283 400 175 3 268-150 268-333" id="p"/><path fill="#fff" d="M258 11c-71 0-114-43-114-108 0-67 42-112 114-112s116 45 116 112c-1 65-45 108-116 108" id="q"/><path fill="#fff" d="M729 0H543v-1233l-373 137v-168l530-199h29V0" id="r"/><g id="b"><use transform="matrix(0.0390625,0,0,0.0390625,0,0)" xlink:href="#n"/><use transform="matrix(0.0390625,0,0,0.0390625,44.921875,0)" xlink:href="#o"/><use transform="matrix(0.0390625,0,0,0.0390625,89.84375,0)" xlink:href="#n"/><use transform="matrix(0.0390625,0,0,0.0390625,134.765625,0)" xlink:href="#p"/><use transform="matrix(0.0390625,0,0,0.0390625,179.6875,0)" xlink:href="#q"/><use transform="matrix(0.0390625,0,0,0.0390625,200.7421875,0)" xlink:href="#o"/><use transform="matrix(0.0390625,0,0,0.0390625,245.6640625,0)" xlink:href="#r"/></g><g id="c"><use transform="matrix(0.0390625,0,0,0.0390625,0,0)" xlink:href="#n"/><use transform="matrix(0.0390625,0,0,0.0390625,44.921875,0)" xlink:href="#o"/><use transform="matrix(0.0390625,0,0,0.0390625,89.84375,0)" xlink:href="#n"/><use transform="matrix(0.0390625,0,0,0.0390625,134.765625,0)" xlink:href="#p"/><use transform="matrix(0.0390625,0,0,0.0390625,179.6875,0)" xlink:href="#q"/><use transform="matrix(0.0390625,0,0,0.0390625,200.7421875,0)" xlink:href="#o"/><use transform="matrix(0.0390625,0,0,0.0390625,245.6640625,0)" xlink:href="#n"/></g><path fill="#fff" d="M832-402c-1-179-119-264-303-265H390v-151h139c164 0 281-91 281-250 0-171-85-256-255-256-154 0-265 99-263 250H107c-4-235 205-402 448-402 266 0 444 150 440 412-2 148-109 272-229 317 147 45 249 158 251 341 3 262-197 426-461 426C299 20 91-135 94-384h186c-2 156 116 253 276 253 176 0 277-96 276-271" id="s"/><g id="d"><use transform="matrix(0.0390625,0,0,0.0390625,0,0)" xlink:href="#n"/><use transform="matrix(0.0390625,0,0,0.0390625,44.921875,0)" xlink:href="#o"/><use transform="matrix(0.0390625,0,0,0.0390625,89.84375,0)" xlink:href="#n"/><use transform="matrix(0.0390625,0,0,0.0390625,134.765625,0)" xlink:href="#p"/><use transform="matrix(0.0390625,0,0,0.0390625,179.6875,0)" xlink:href="#q"/><use transform="matrix(0.0390625,0,0,0.0390625,200.7421875,0)" xlink:href="#o"/><use transform="matrix(0.0390625,0,0,0.0390625,245.6640625,0)" xlink:href="#s"/></g><path fill="#05825f" d="M681 22C323 22 94-145 85-462h297c10 151 131 226 296 226 163 0 271-77 271-190 0-102-95-149-257-189l-164-41c-252-61-403-188-403-405 0-269 236-449 560-449 330 0 546 183 551 445H941c-11-119-106-188-259-188-156 0-244 72-244 172-3 156 226 185 373 221 250 61 445 186 445 436 0 271-213 446-575 446" id="t"/><path fill="#05825f" d="M513 14c-232 0-385-159-385-421v-711h300v659c0 139 76 222 202 222 127 0 217-86 217-234v-647h301V0H864l-4-232C797-74 683 14 513 14" id="u"/><path fill="#05825f" d="M128 418v-1536h295v188h14c41-89 129-202 319-202 248 0 453 193 453 575 0 372-197 576-455 576-183 0-275-108-317-198h-9v597H128zm534-640c156 0 240-139 240-336 0-196-83-334-240-334-154 0-241 131-241 334 0 202 88 336 241 336" id="v"/><path fill="#05825f" d="M628 22C291 22 81-210 81-554c0-346 210-578 547-578 336 0 547 232 547 578 0 344-211 576-547 576zm0-236c160 0 242-146 242-341 0-197-82-341-242-341S387-753 387-555c0 195 81 341 241 341" id="w"/><path fill="#05825f" d="M128 0v-1118h290v195h12c54-169 184-238 367-200v268c-27-8-86-15-130-15-138 0-239 95-239 234V0H128" id="x"/><path fill="#05825f" d="M683-1118v229H474v562c0 71 29 104 102 104 23 0 73-7 95-13l43 225C647 9 580 16 520 16 296 16 174-96 174-301v-588H20v-229h154v-266h300v266h209" id="y"/><path fill="#05825f" d="M633 22C291 22 81-200 81-553c0-345 210-579 537-579 292 0 525 185 525 567v84H378c7 183 109 277 260 277 105 0 184-46 216-132l272 51C1071-99 893 22 633 22zM380-669h474c-15-146-94-237-233-237-143 0-229 99-241 237" id="z"/><path fill="#05825f" d="M537 19C279 19 81-185 81-557c0-382 206-575 454-575 190 0 278 113 318 202h10v-560h300V0H868v-179h-15C812-89 719 19 537 19zm92-241c153 0 240-134 240-336 0-203-86-334-240-334-158 0-240 138-240 334 0 197 84 336 240 336" id="A"/><g id="e"><use transform="matrix(0.026041666666666668,0,0,0.026041666666666668,0,0)" xlink:href="#t"/><use transform="matrix(0.026041666666666668,0,0,0.026041666666666668,34.921875,0)" xlink:href="#u"/><use transform="matrix(0.026041666666666668,0,0,0.026041666666666668,68.125,0)" xlink:href="#v"/><use transform="matrix(0.026041666666666668,0,0,0.026041666666666668,101.74479166666667,0)" xlink:href="#v"/><use transform="matrix(0.026041666666666668,0,0,0.026041666666666668,135.36458333333334,0)" xlink:href="#w"/><use transform="matrix(0.026041666666666668,0,0,0.026041666666666668,168.07291666666669,0)" xlink:href="#x"/><use transform="matrix(0.026041666666666668,0,0,0.026041666666666668,190.83333333333334,0)" xlink:href="#y"/><use transform="matrix(0.026041666666666668,0,0,0.026041666666666668,209.84375,0)" xlink:href="#z"/><use transform="matrix(0.026041666666666668,0,0,0.026041666666666668,241.61458333333334,0)" xlink:href="#A"/></g><path fill="#e96f4c" d="M135 0v-1490h340l471 754c59 97 122 210 187 365-32-387-14-721-19-1119h312V0h-341C855-382 627-689 427-1113c32 420 16 695 20 1113H135" id="B"/><path fill="#e96f4c" d="M628 22C291 22 81-210 81-554c0-346 210-578 547-578 336 0 547 232 547 578 0 344-211 576-547 576zm0-236c160 0 242-146 242-341 0-197-82-341-242-341S387-753 387-555c0 195 81 341 241 341" id="C"/><path fill="#e96f4c" d="M683-1118v229H474v562c0 71 29 104 102 104 23 0 73-7 95-13l43 225C647 9 580 16 520 16 296 16 174-96 174-301v-588H20v-229h154v-266h300v266h209" id="D"/><g id="f"><use transform="matrix(0.026041666666666668,0,0,0.026041666666666668,0,0)" xlink:href="#B"/><use transform="matrix(0.026041666666666668,0,0,0.026041666666666668,40.65104166666667,0)" xlink:href="#C"/><use transform="matrix(0.026041666666666668,0,0,0.026041666666666668,73.359375,0)" xlink:href="#D"/></g><path fill="#e96f4c" d="M572 22C302 22 117-98 78-306l279-48c29 105 101 156 224 156 114 0 185-48 185-115 0-118-228-130-337-155-215-49-322-150-322-317 0-215 187-347 470-347 265 0 424 116 466 298l-266 47c-24-76-87-130-196-130-98 0-174 46-174 113 0 56 38 95 144 117l201 40c216 44 320 143 320 302 0 220-207 367-500 367" id="E"/><path fill="#e96f4c" d="M513 14c-232 0-385-159-385-421v-711h300v659c0 139 76 222 202 222 127 0 217-86 217-234v-647h301V0H864l-4-232C797-74 683 14 513 14" id="F"/><path fill="#e96f4c" d="M128 418v-1536h295v188h14c41-89 129-202 319-202 248 0 453 193 453 575 0 372-197 576-455 576-183 0-275-108-317-198h-9v597H128zm534-640c156 0 240-139 240-336 0-196-83-334-240-334-154 0-241 131-241 334 0 202 88 336 241 336" id="G"/><path fill="#e96f4c" d="M128 0v-1118h290v195h12c54-169 184-238 367-200v268c-27-8-86-15-130-15-138 0-239 95-239 234V0H128" id="H"/><path fill="#e96f4c" d="M633 22C291 22 81-200 81-553c0-345 210-579 537-579 292 0 525 185 525 567v84H378c7 183 109 277 260 277 105 0 184-46 216-132l272 51C1071-99 893 22 633 22zM380-669h474c-15-146-94-237-233-237-143 0-229 99-241 237" id="I"/><path fill="#e96f4c" d="M537 19C279 19 81-185 81-557c0-382 206-575 454-575 190 0 278 113 318 202h10v-560h300V0H868v-179h-15C812-89 719 19 537 19zm92-241c153 0 240-134 240-336 0-203-86-334-240-334-158 0-240 138-240 334 0 197 84 336 240 336" id="J"/><g id="g"><use transform="matrix(0.026041666666666668,0,0,0.026041666666666668,0,0)" xlink:href="#E"/><use transform="matrix(0.026041666666666668,0,0,0.026041666666666668,29.869791666666668,0)" xlink:href="#F"/><use transform="matrix(0.026041666666666668,0,0,0.026041666666666668,63.07291666666667,0)" xlink:href="#G"/><use transform="matrix(0.026041666666666668,0,0,0.026041666666666668,96.69270833333334,0)" xlink:href="#G"/><use transform="matrix(0.026041666666666668,0,0,0.026041666666666668,130.3125,0)" xlink:href="#C"/><use transform="matrix(0.026041666666666668,0,0,0.026041666666666668,163.02083333333334,0)" xlink:href="#H"/><use transform="matrix(0.026041666666666668,0,0,0.026041666666666668,185.78125,0)" xlink:href="#D"/><use transform="matrix(0.026041666666666668,0,0,0.026041666666666668,204.79166666666666,0)" xlink:href="#I"/><use transform="matrix(0.026041666666666668,0,0,0.026041666666666668,236.5625,0)" xlink:href="#J"/></g><path fill="#fff" d="M902-489h202v151H902V0H716v-338H53v-109l652-1009h197v967zm-639 0h453v-714l-22 40" id="K"/><g id="h"><use transform="matrix(0.0390625,0,0,0.0390625,0,0)" xlink:href="#n"/><use transform="matrix(0.0390625,0,0,0.0390625,44.921875,0)" xlink:href="#o"/><use transform="matrix(0.0390625,0,0,0.0390625,89.84375,0)" xlink:href="#n"/><use transform="matrix(0.0390625,0,0,0.0390625,134.765625,0)" xlink:href="#p"/><use transform="matrix(0.0390625,0,0,0.0390625,179.6875,0)" xlink:href="#q"/><use transform="matrix(0.0390625,0,0,0.0390625,200.7421875,0)" xlink:href="#o"/><use transform="matrix(0.0390625,0,0,0.0390625,245.6640625,0)" xlink:href="#K"/></g><path fill="#fff" d="M884-462c0-185-111-323-291-323-113 0-183 39-239 93l-148-38 74-726h746v171H437l-44 397c71-42 152-63 243-63 273-2 433 205 433 487 0 293-170 484-461 484-260 0-436-159-454-403h175c20 156 111 252 279 252 182 0 276-140 276-331" id="L"/><g id="i"><use transform="matrix(0.0390625,0,0,0.0390625,0,0)" xlink:href="#n"/><use transform="matrix(0.0390625,0,0,0.0390625,44.921875,0)" xlink:href="#o"/><use transform="matrix(0.0390625,0,0,0.0390625,89.84375,0)" xlink:href="#n"/><use transform="matrix(0.0390625,0,0,0.0390625,134.765625,0)" xlink:href="#p"/><use transform="matrix(0.0390625,0,0,0.0390625,179.6875,0)" xlink:href="#q"/><use transform="matrix(0.0390625,0,0,0.0390625,200.7421875,0)" xlink:href="#o"/><use transform="matrix(0.0390625,0,0,0.0390625,245.6640625,0)" xlink:href="#L"/></g><path fill="#fff" d="M362-157h690V0H169v-1456h193v1299" id="M"/><path fill="#fff" d="M1175-1298H707V0H516v-1298H49v-158h1126v158" id="N"/><path fill="#fff" d="M631-137c179 0 314-70 314-231 0-71-25-127-75-166s-141-77-272-115c-165-47-285-106-360-175s-112-154-112-255c0-245 231-397 495-397 206 0 369 89 449 218 43 68 65 142 65 223H942c0-184-129-283-321-283-172 0-299 76-301 236 0 59 26 109 76 150s135 78 256 113c205 59 345 116 436 256 35 53 50 119 50 193-2 256-231 398-507 390C333 12 90-129 80-422h193c0 187 160 285 358 285" id="O"/><g id="j"><use transform="matrix(0.0390625,0,0,0.0390625,0,0)" xlink:href="#M"/><use transform="matrix(0.0390625,0,0,0.0390625,32.3046875,0)" xlink:href="#N"/><use transform="matrix(0.0390625,0,0,0.0390625,79.4140625,0)" xlink:href="#O"/></g><g id="k"><use transform="matrix(0.0390625,0,0,0.0390625,0,0)" xlink:href="#r"/><use transform="matrix(0.0390625,0,0,0.0390625,44.921875,0)" xlink:href="#q"/><use transform="matrix(0.0390625,0,0,0.0390625,65.9765625,0)" xlink:href="#K"/><use transform="matrix(0.0390625,0,0,0.0390625,110.8984375,0)" xlink:href="#q"/><use transform="matrix(0.0390625,0,0,0.0390625,131.953125,0)" xlink:href="#o"/></g></defs></g></svg>