<svg xmlns="http://www.w3.org/2000/svg" xmlns:xlink="http://www.w3.org/1999/xlink" xmlns:lucid="lucid" width="5147" height="1107"><g transform="translate(2263.5 263.5)" lucid:page-tab-id="3PvzOv.7WlJR"><path d="M-2260-254a6 6 0 0 1 6-6h5128a6 6 0 0 1 6 6V834a6 6 0 0 1-6 6h-5128a6 6 0 0 1-6-6z" stroke="#136a7f" stroke-width="7" fill="#fff"/><path d="M-1570.14 223.8c59.72 0 108.13 48.4 108.13 108.12-.02 59.7-48.42 108.12-108.14 108.12h-406.4c-59.7 0-108.1-48.4-108.1-108.13 0-59.7 48.4-108.1 108.1-108.1z" stroke="#429d9e" stroke-width="2" fill="#429d9e"/><use xlink:href="#a" transform="matrix(1,0,0,1,-2079.652158766748,228.79032471215123) translate(144.22765625 132.4375)"/><use xlink:href="#b" transform="matrix(1,0,0,1,-2079.652158766748,228.79032471215123) translate(290.90734375 132.4375)"/><path d="M-870.14 223.8c59.72 0 108.13 48.4 108.13 108.12 0 59.7-48.42 108.12-108.14 108.12h-406.4c-59.7 0-108.1-48.4-108.1-108.13 0-59.7 48.4-108.1 108.1-108.1z" stroke="#429d9e" stroke-width="2" fill="#429d9e"/><use xlink:href="#a" transform="matrix(1,0,0,1,-1379.6521587667478,228.79032471215123) translate(144.22765625 132.4375)"/><use xlink:href="#c" transform="matrix(1,0,0,1,-1379.6521587667478,228.79032471215123) translate(290.90734375 132.4375)"/><path d="M-170.14 223.8c59.72 0 108.12 48.4 108.12 108.12 0 59.7-48.4 108.12-108.12 108.12h-406.4c-59.7 0-108.1-48.4-108.1-108.13 0-59.7 48.4-108.1 108.1-108.1z" stroke="#429d9e" stroke-width="2" fill="#429d9e"/><use xlink:href="#a" transform="matrix(1,0,0,1,-679.6521587667478,228.79032471215123) translate(144.22765625 87.15625)"/><use xlink:href="#d" transform="matrix(1,0,0,1,-679.6521587667478,228.79032471215123) translate(290.90734375 87.15625)"/><use xlink:href="#e" transform="matrix(1,0,0,1,-679.6521587667478,228.79032471215123) translate(158.0414583333333 174.91666666666669)"/><use xlink:href="#f" transform="matrix(1,0,0,1,-679.6521587667478,228.79032471215123) translate(322.0258333333333 174.91666666666669)"/><path d="M529.86 202.95c59.72 0 108.13 48.4 108.13 108.13 0 59.72-48.42 108.12-108.14 108.12h-406.4c-59.7 0-108.1-48.4-108.1-108.12 0-59.72 48.4-108.13 108.1-108.13z" stroke="#429d9e" stroke-width="2" fill="#136a7f"/><use xlink:href="#a" transform="matrix(1,0,0,1,20.347841233252154,207.9538582196119) translate(144.22765625 132.4375)"/><use xlink:href="#g" transform="matrix(1,0,0,1,20.347841233252154,207.9538582196119) translate(290.90734375 132.4375)"/><path d="M1229.86 202.95c59.72 0 108.13 48.4 108.13 108.13-.02 59.72-48.42 108.12-108.14 108.12h-406.4c-59.7 0-108.1-48.4-108.1-108.12 0-59.72 48.4-108.13 108.1-108.13z" stroke="#429d9e" stroke-width="2" fill="#e96f4c"/><use xlink:href="#a" transform="matrix(1,0,0,1,720.3478412332522,207.9538582196119) translate(144.22765625 132.4375)"/><use xlink:href="#h" transform="matrix(1,0,0,1,720.3478412332522,207.9538582196119) translate(290.90734375 132.4375)"/><path d="M1929.86 202.95c59.72 0 108.13 48.4 108.13 108.13-.02 59.72-48.42 108.12-108.14 108.12h-406.4c-59.7 0-108.1-48.4-108.1-108.12 0-59.72 48.4-108.13 108.1-108.13z" stroke="#429d9e" stroke-width="2" fill="#e96f4c"/><use xlink:href="#a" transform="matrix(1,0,0,1,1420.3478412332522,207.9538582196119) translate(144.22765625 132.4375)"/><use xlink:href="#i" transform="matrix(1,0,0,1,1420.3478412332522,207.9538582196119) translate(290.90734375 132.4375)"/><path d="M2629.86 202.95c59.72 0 108.13 48.4 108.13 108.13 0 59.72-48.42 108.12-108.14 108.12h-406.4c-59.7 0-108.1-48.4-108.1-108.12 0-59.72 48.4-108.13 108.1-108.13z" stroke="#429d9e" stroke-width="2" fill="#e96f4c"/><use xlink:href="#a" transform="matrix(1,0,0,1,2120.347841233252,207.9538582196119) translate(144.22765625 132.4375)"/><use xlink:href="#j" transform="matrix(1,0,0,1,2120.347841233252,207.9538582196119) translate(290.90734375 132.4375)"/><path d="M-907.96 12.02l202.05 1.24 52.52 3.23 37.86 3.93 29.55 4.34 24.06 4.58 20.1 4.7 17.16 4.78 14.84 4.82 13 4.83 11.5 4.82 10.25 4.83 9.22 4.8 8.34 4.82 7.6 4.8 6.93 4.84 6.38 4.82 5.88 4.86 5.44 4.9 5.05 4.94 4.7 5 4.38 5.08 4.1 5.16 3.82 5.27 3.6 5.4 3.34 5.53 3.15 5.7 2.92 5.9 2.7 6.1 2.53 6.34 2.3 6.63 2.1 6.95 1.88 7.3 1.64 7.73 1.38 8.2.58 4.57" stroke="#05825f" stroke-width="7" stroke-linejoin="round" fill="none"/><path d="M-907.85 8.55l-.04 6.95-3.56-.03V8.52z" stroke="#05825f" stroke-width=".05" fill="#05825f"/><path d="M-374.03 211.5l-5.5-13.97 9.25-.57z" stroke="#05825f" stroke-width="7" fill="#05825f"/><path d="M-1773.26 219.28l.14-7 .6-9.72.96-9.05 1.25-8.45 1.5-7.96 1.77-7.52 1.98-7.12 2.2-6.78 2.42-6.5 2.6-6.2 2.83-6 3.03-5.8 3.24-5.6 3.47-5.47 3.7-5.32 3.96-5.2 4.24-5.13 4.54-5.04 4.87-4.96 5.23-4.92 5.66-4.88 6.1-4.84 6.66-4.83 7.25-4.8 7.95-4.83 8.76-4.8 9.7-4.83 10.86-4.8 12.2-4.84 13.88-4.83 15.93-4.8 18.54-4.75 21.94-4.64 26.58-4.48 33.23-4.17 43.96-3.65 66.3-2.65 138.94-.08" stroke="#05825f" stroke-width="7" stroke-linejoin="round" fill="none"/><path d="M-1769.8 219.27l-.06 3.52h-6.95l.07-3.68z" stroke="#05825f" stroke-width=".05" fill="#05825f"/><path d="M-1246.53 12l-14.26 4.65V7.38z" stroke="#05825f" stroke-width="7" fill="#05825f"/><path d="M-511.46 651.9v-.04a3.5 3.5 0 0 1 3.5-3.5 3.5 3.5 0 0 1 3.5 3.5 3.5 3.5 0 0 1-3.5 3.5 3.5 3.5 0 0 1-3.5-3.5v-.04m13.94.17v-.05a3.5 3.5 0 0 1 3.5-3.5 3.5 3.5 0 0 1 3.5 3.5 3.5 3.5 0 0 1-3.5 3.5 3.5 3.5 0 0 1-3.5-3.5v-.03m13.95.16v-.03a3.5 3.5 0 0 1 3.5-3.5 3.5 3.5 0 0 1 3.5 3.5 3.5 3.5 0 0 1-3.5 3.5 3.5 3.5 0 0 1-3.5-3.5V652m13.94.18v-.04a3.5 3.5 0 0 1 3.5-3.5 3.5 3.5 0 0 1 3.5 3.5 3.5 3.5 0 0 1-3.5 3.5 3.5 3.5 0 0 1-3.5-3.5v-.03m13.94.17v-.03a3.5 3.5 0 0 1 3.5-3.5 3.5 3.5 0 0 1 3.5 3.5 3.5 3.5 0 0 1-3.5 3.5 3.5 3.5 0 0 1-3.5-3.5v-.03m13.96.17v-.03a3.5 3.5 0 0 1 3.5-3.5 3.5 3.5 0 0 1 3.5 3.5 3.5 3.5 0 0 1-3.5 3.5 3.5 3.5 0 0 1-3.5-3.5v-.04m13.94.17v-.04a3.5 3.5 0 0 1 3.5-3.5 3.5 3.5 0 0 1 3.5 3.5 3.5 3.5 0 0 1-3.5 3.5 3.5 3.5 0 0 1-3.5-3.5v-.03m13.94.16v-.03a3.5 3.5 0 0 1 3.5-3.5 3.5 3.5 0 0 1 3.5 3.5 3.5 3.5 0 0 1-3.5 3.5 3.5 3.5 0 0 1-3.5-3.5v-.04m13.94.16v-.03a3.5 3.5 0 0 1 3.5-3.5 3.5 3.5 0 0 1 3.5 3.5 3.5 3.5 0 0 1-3.5 3.5 3.5 3.5 0 0 1-3.5-3.5v-.04m13.95.16v-.04a3.5 3.5 0 0 1 3.5-3.5 3.5 3.5 0 0 1 3.5 3.5 3.5 3.5 0 0 1-3.5 3.5 3.5 3.5 0 0 1-3.5-3.5v-.03m13.94.15v-.03a3.5 3.5 0 0 1 3.5-3.5 3.5 3.5 0 0 1 3.5 3.5 3.5 3.5 0 0 1-3.5 3.5 3.5 3.5 0 0 1-3.5-3.5v-.04m13.94.17v-.04a3.5 3.5 0 0 1 3.5-3.5 3.5 3.5 0 0 1 3.5 3.5 3.5 3.5 0 0 1-3.5 3.5 3.5 3.5 0 0 1-3.5-3.5v-.02m13.96.16V653a3.5 3.5 0 0 1 3.5-3.5 3.5 3.5 0 0 1 3.5 3.5 3.5 3.5 0 0 1-3.5 3.5 3.5 3.5 0 0 1-3.5-3.5V653m13.94.16v-.03a3.5 3.5 0 0 1 3.5-3.5 3.5 3.5 0 0 1 3.5 3.5 3.5 3.5 0 0 1-3.5 3.5 3.5 3.5 0 0 1-3.5-3.5v-.03m13.94.17v-.04a3.5 3.5 0 0 1 3.5-3.5 3.5 3.5 0 0 1 3.5 3.5 3.5 3.5 0 0 1-3.5 3.5 3.5 3.5 0 0 1-3.5-3.5v-.03m13.94.16v-.03a3.5 3.5 0 0 1 3.5-3.5 3.5 3.5 0 0 1 3.5 3.5 3.5 3.5 0 0 1-3.5 3.5 3.5 3.5 0 0 1-3.5-3.5v-.04m13.94.17v-.03a3.5 3.5 0 0 1 3.5-3.5 3.5 3.5 0 0 1 3.5 3.5 3.5 3.5 0 0 1-3.5 3.5 3.5 3.5 0 0 1-3.5-3.5v-.04m13.95.17v-.04a3.5 3.5 0 0 1 3.5-3.5 3.5 3.5 0 0 1 3.5 3.5 3.5 3.5 0 0 1-3.5 3.5 3.5 3.5 0 0 1-3.5-3.5v-.04m13.94.16v-.03a3.5 3.5 0 0 1 3.5-3.5 3.5 3.5 0 0 1 3.5 3.5 3.5 3.5 0 0 1-3.5 3.5 3.5 3.5 0 0 1-3.5-3.5v-.05m13.95.17v-.04a3.5 3.5 0 0 1 3.5-3.5 3.5 3.5 0 0 1 3.5 3.5 3.5 3.5 0 0 1-3.5 3.5 3.5 3.5 0 0 1-3.5-3.5v-.03m13.95.17v-.04a3.5 3.5 0 0 1 3.5-3.5 3.5 3.5 0 0 1 3.5 3.5 3.5 3.5 0 0 1-3.5 3.5 3.5 3.5 0 0 1-3.5-3.5v-.03m13.94.16v-.02a3.5 3.5 0 0 1 3.5-3.5 3.5 3.5 0 0 1 3.5 3.5 3.5 3.5 0 0 1-3.5 3.5 3.5 3.5 0 0 1-3.5-3.5v-.04m13.94.17v-.03a3.5 3.5 0 0 1 3.5-3.5 3.5 3.5 0 0 1 3.5 3.5 3.5 3.5 0 0 1-3.5 3.5 3.5 3.5 0 0 1-3.5-3.5v-.03m13.94.16v-.03a3.5 3.5 0 0 1 3.5-3.5 3.5 3.5 0 0 1 3.5 3.5 3.5 3.5 0 0 1-3.5 3.5 3.5 3.5 0 0 1-3.5-3.5v-.04m13.95.17v-.03a3.5 3.5 0 0 1 3.5-3.5 3.5 3.5 0 0 1 3.5 3.5 3.5 3.5 0 0 1-3.5 3.5 3.5 3.5 0 0 1-3.5-3.5v-.04m13.94.17v-.04a3.5 3.5 0 0 1 3.5-3.5 3.5 3.5 0 0 1 3.5 3.5 3.5 3.5 0 0 1-3.5 3.5 3.5 3.5 0 0 1-3.5-3.5v-.03m13.95.16v-.04a3.5 3.5 0 0 1 3.5-3.5 3.5 3.5 0 0 1 3.5 3.5 3.5 3.5 0 0 1-3.5 3.5 3.5 3.5 0 0 1-3.5-3.5v-.04m13.94.17v-.04a3.5 3.5 0 0 1 3.5-3.5 3.5 3.5 0 0 1 3.5 3.5 3.5 3.5 0 0 1-3.5 3.5 3.5 3.5 0 0 1-3.5-3.5v-.04m13.94.17v-.05a3.5 3.5 0 0 1 3.5-3.5 3.5 3.5 0 0 1 3.5 3.5 3.5 3.5 0 0 1-3.5 3.5 3.5 3.5 0 0 1-3.5-3.5v-.03m13.94.16v-.03a3.5 3.5 0 0 1 3.5-3.5 3.5 3.5 0 0 1 3.5 3.5 3.5 3.5 0 0 1-3.5 3.5 3.5 3.5 0 0 1-3.5-3.5v-.04m13.94.18v-.04a3.5 3.5 0 0 1 3.5-3.5 3.5 3.5 0 0 1 3.5 3.5 3.5 3.5 0 0 1-3.5 3.5 3.5 3.5 0 0 1-3.5-3.5v-.03m13.95.17v-.03a3.5 3.5 0 0 1 3.5-3.5 3.5 3.5 0 0 1 3.5 3.5 3.5 3.5 0 0 1-3.5 3.5 3.5 3.5 0 0 1-3.5-3.5v-.04m13.94.17v-.03a3.5 3.5 0 0 1 3.5-3.5 3.5 3.5 0 0 1 3.5 3.5 3.5 3.5 0 0 1-3.5 3.5 3.5 3.5 0 0 1-3.5-3.5v-.04m13.95.17v-.04a3.5 3.5 0 0 1 3.5-3.5 3.5 3.5 0 0 1 3.5 3.5 3.5 3.5 0 0 1-3.5 3.5 3.5 3.5 0 0 1-3.5-3.5V655m13.93-.24v-.04a3.5 3.5 0 0 1 3.5-3.5 3.5 3.5 0 0 1 3.5 3.5 3.5 3.5 0 0 1-3.5 3.5 3.5 3.5 0 0 1-3.5-3.5v-.03m13.92-.8v-.03a3.5 3.5 0 0 1 3.5-3.5 3.5 3.5 0 0 1 3.5 3.5 3.5 3.5 0 0 1-3.5 3.5 3.5 3.5 0 0 1-3.5-3.5v-.04m13.92-.8v-.02a3.5 3.5 0 0 1 3.5-3.5 3.5 3.5 0 0 1 3.5 3.5 3.5 3.5 0 0 1-3.5 3.5 3.5 3.5 0 0 1-3.5-3.5v-.03m13.9-.78v-.05a3.5 3.5 0 0 1 3.5-3.5 3.5 3.5 0 0 1 3.5 3.5 3.5 3.5 0 0 1-3.5 3.5 3.5 3.5 0 0 1-3.5-3.5v-.03m13.93-.8v-.03a3.5 3.5 0 0 1 3.5-3.5 3.5 3.5 0 0 1 3.5 3.5 3.5 3.5 0 0 1-3.5 3.5 3.5 3.5 0 0 1-3.5-3.5v-.04m13.9-.96v-.03a3.5 3.5 0 0 1 3.5-3.5 3.5 3.5 0 0 1 3.5 3.5 3.5 3.5 0 0 1-3.5 3.5 3.5 3.5 0 0 1-3.5-3.5v-.04m13.87-1.4v-.03a3.5 3.5 0 0 1 3.5-3.5 3.5 3.5 0 0 1 3.5 3.5 3.5 3.5 0 0 1-3.5 3.5 3.5 3.5 0 0 1-3.5-3.5v-.04m13.86-1.4v-.03a3.5 3.5 0 0 1 3.5-3.5 3.5 3.5 0 0 1 3.5 3.5 3.5 3.5 0 0 1-3.5 3.5 3.5 3.5 0 0 1-3.5-3.5v-.04m13.87-1.4v-.04a3.5 3.5 0 0 1 3.5-3.5 3.5 3.5 0 0 1 3.5 3.5 3.5 3.5 0 0 1-3.5 3.5 3.5 3.5 0 0 1-3.5-3.5v-.04m13.8-1.92v-.03a3.5 3.5 0 0 1 3.5-3.5 3.5 3.5 0 0 1 3.5 3.5 3.5 3.5 0 0 1-3.5 3.5 3.5 3.5 0 0 1-3.5-3.5v-.03m13.8-2v-.02a3.5 3.5 0 0 1 3.5-3.5 3.5 3.5 0 0 1 3.5 3.5 3.5 3.5 0 0 1-3.5 3.5 3.5 3.5 0 0 1-3.5-3.5v-.04m13.72-2.32v-.04a3.5 3.5 0 0 1 3.5-3.5 3.5 3.5 0 0 1 3.5 3.5 3.5 3.5 0 0 1-3.5 3.5 3.5 3.5 0 0 1-3.5-3.5v-.03m13.7-2.57v-.04a3.5 3.5 0 0 1 3.5-3.5 3.5 3.5 0 0 1 3.5 3.5 3.5 3.5 0 0 1-3.5 3.5 3.5 3.5 0 0 1-3.5-3.5v-.04m13.6-3v-.05a3.5 3.5 0 0 1 3.5-3.5 3.5 3.5 0 0 1 3.5 3.5 3.5 3.5 0 0 1-3.5 3.5 3.5 3.5 0 0 1-3.5-3.5v-.02m13.5-3.3v-.05a3.5 3.5 0 0 1 3.5-3.5 3.5 3.5 0 0 1 3.5 3.5 3.5 3.5 0 0 1-3.5 3.5 3.5 3.5 0 0 1-3.5-3.5v-.03m13.43-3.73v-.04a3.5 3.5 0 0 1 3.5-3.5 3.5 3.5 0 0 1 3.5 3.5 3.5 3.5 0 0 1-3.5 3.5 3.5 3.5 0 0 1-3.5-3.5v-.03m13.25-4.26v-.04a3.5 3.5 0 0 1 3.5-3.5 3.5 3.5 0 0 1 3.5 3.5 3.5 3.5 0 0 1-3.5 3.5 3.5 3.5 0 0 1-3.5-3.5v-.03m13.07-4.8v-.03a3.5 3.5 0 0 1 3.5-3.5 3.5 3.5 0 0 1 3.5 3.5 3.5 3.5 0 0 1-3.5 3.5 3.5 3.5 0 0 1-3.5-3.5v-.04m12.8-5.42v-.03a3.5 3.5 0 0 1 3.5-3.5 3.5 3.5 0 0 1 3.5 3.5 3.5 3.5 0 0 1-3.5 3.5 3.5 3.5 0 0 1-3.5-3.5v-.04m12.53-6.06v-.03a3.5 3.5 0 0 1 3.5-3.5 3.5 3.5 0 0 1 3.5 3.5 3.5 3.5 0 0 1-3.5 3.5 3.5 3.5 0 0 1-3.5-3.5v-.03m12.17-6.72v-.04a3.5 3.5 0 0 1 3.5-3.5 3.5 3.5 0 0 1 3.5 3.5 3.5 3.5 0 0 1-3.5 3.5 3.5 3.5 0 0 1-3.5-3.5v-.02m11.68-7.54v-.04a3.5 3.5 0 0 1 3.5-3.5 3.5 3.5 0 0 1 3.5 3.5 3.5 3.5 0 0 1-3.5 3.5 3.5 3.5 0 0 1-3.5-3.5v-.03m11.15-8.3v-.04a3.5 3.5 0 0 1 3.5-3.5 3.5 3.5 0 0 1 3.5 3.5 3.5 3.5 0 0 1-3.5 3.5 3.5 3.5 0 0 1-3.5-3.5v-.03m10.48-9.1v-.05a3.5 3.5 0 0 1 3.5-3.5 3.5 3.5 0 0 1 3.5 3.5 3.5 3.5 0 0 1-3.5 3.5 3.5 3.5 0 0 1-3.5-3.5v-.03m9.72-9.93v-.05a3.5 3.5 0 0 1 3.5-3.5 3.5 3.5 0 0 1 3.5 3.5 3.5 3.5 0 0 1-3.5 3.5 3.5 3.5 0 0 1-3.5-3.5v-.03m8.85-10.7v-.04a3.5 3.5 0 0 1 3.5-3.5 3.5 3.5 0 0 1 3.5 3.5 3.5 3.5 0 0 1-3.5 3.5 3.5 3.5 0 0 1-3.5-3.5v-.03m7.9-11.4v-.04a3.5 3.5 0 0 1 3.5-3.5 3.5 3.5 0 0 1 3.5 3.5 3.5 3.5 0 0 1-3.5 3.5 3.5 3.5 0 0 1-3.5-3.5v-.03m6.94-12.02v-.04a3.5 3.5 0 0 1 3.5-3.5 3.5 3.5 0 0 1 3.5 3.5 3.5 3.5 0 0 1-3.5 3.5 3.5 3.5 0 0 1-3.5-3.5v-.02m5.93-12.55v-.03a3.5 3.5 0 0 1 3.5-3.5 3.5 3.5 0 0 1 3.5 3.5 3.5 3.5 0 0 1-3.5 3.5 3.5 3.5 0 0 1-3.5-3.5v-.04m4.94-12.96v-.04a3.5 3.5 0 0 1 3.5-3.5 3.5 3.5 0 0 1 3.5 3.5 3.5 3.5 0 0 1-3.5 3.5 3.5 3.5 0 0 1-3.5-3.5v-.03m4.05-13.27v-.04a3.5 3.5 0 0 1 3.5-3.5 3.5 3.5 0 0 1 3.5 3.5 3.5 3.5 0 0 1-3.5 3.5 3.5 3.5 0 0 1-3.5-3.5v-.03m3.15-13.52v-.04a3.5 3.5 0 0 1 3.5-3.5 3.5 3.5 0 0 1 3.5 3.5 3.5 3.5 0 0 1-3.5 3.5 3.5 3.5 0 0 1-3.5-3.5v-.03m2.38-13.66v-.03a3.5 3.5 0 0 1 3.5-3.5 3.5 3.5 0 0 1 3.5 3.5 3.5 3.5 0 0 1-3.5 3.5 3.5 3.5 0 0 1-3.5-3.5v-.03m1.57-13.78v-.04a3.5 3.5 0 0 1 3.5-3.5 3.5 3.5 0 0 1 3.5 3.5 3.5 3.5 0 0 1-3.5 3.5 3.5 3.5 0 0 1-3.5-3.5v-.04" fill="#e96f4c"/><path d="M-507.84 648.38l-.05 6.95-3.56-.02v-6.94z" stroke="#e96f4c" stroke-width=".05" fill="#e96f4c"/><path d="M326.15 431.52l4 14.46-9.28-.42z" stroke="#e96f4c" stroke-width="7" fill="#e96f4c"/><path d="M-1776.76 444.58v-.03a3.5 3.5 0 0 1 3.5-3.5 3.5 3.5 0 0 1 3.5 3.5 3.5 3.5 0 0 1-3.5 3.5 3.5 3.5 0 0 1-3.5-3.5v-.04m.33 13.98v-.04a3.5 3.5 0 0 1 3.5-3.5 3.5 3.5 0 0 1 3.5 3.5 3.5 3.5 0 0 1-3.5 3.5 3.5 3.5 0 0 1-3.5-3.5v-.03m.9 13.95v-.04a3.5 3.5 0 0 1 3.5-3.5 3.5 3.5 0 0 1 3.5 3.5 3.5 3.5 0 0 1-3.5 3.5 3.5 3.5 0 0 1-3.5-3.5v-.02m1.56 13.88v-.04a3.5 3.5 0 0 1 3.5-3.5 3.5 3.5 0 0 1 3.5 3.5 3.5 3.5 0 0 1-3.5 3.5 3.5 3.5 0 0 1-3.5-3.5v-.03m2.24 13.78v-.04a3.5 3.5 0 0 1 3.5-3.5 3.5 3.5 0 0 1 3.5 3.5 3.5 3.5 0 0 1-3.5 3.5 3.5 3.5 0 0 1-3.5-3.5v-.03m2.97 13.65v-.03a3.5 3.5 0 0 1 3.5-3.5 3.5 3.5 0 0 1 3.5 3.5 3.5 3.5 0 0 1-3.5 3.5 3.5 3.5 0 0 1-3.5-3.5v-.04m3.95 13.4v-.03a3.5 3.5 0 0 1 3.5-3.5 3.5 3.5 0 0 1 3.5 3.5 3.5 3.5 0 0 1-3.5 3.5 3.5 3.5 0 0 1-3.5-3.5v-.04m4.9 13.08v-.03a3.5 3.5 0 0 1 3.5-3.5 3.5 3.5 0 0 1 3.5 3.5 3.5 3.5 0 0 1-3.5 3.5 3.5 3.5 0 0 1-3.5-3.5v-.04m5.96 12.63v-.03a3.5 3.5 0 0 1 3.5-3.5 3.5 3.5 0 0 1 3.5 3.5 3.5 3.5 0 0 1-3.5 3.5 3.5 3.5 0 0 1-3.5-3.5v-.04m7.07 12.03v-.04a3.5 3.5 0 0 1 3.5-3.5 3.5 3.5 0 0 1 3.5 3.5 3.5 3.5 0 0 1-3.5 3.5 3.5 3.5 0 0 1-3.5-3.5v-.04m8.25 11.25v-.03a3.5 3.5 0 0 1 3.5-3.5 3.5 3.5 0 0 1 3.5 3.5 3.5 3.5 0 0 1-3.5 3.5 3.5 3.5 0 0 1-3.5-3.5v-.04m9.3 10.4v-.05a3.5 3.5 0 0 1 3.5-3.5 3.5 3.5 0 0 1 3.5 3.5 3.5 3.5 0 0 1-3.5 3.5 3.5 3.5 0 0 1-3.5-3.5v-.03m10.3 9.4v-.02a3.5 3.5 0 0 1 3.5-3.5 3.5 3.5 0 0 1 3.5 3.5 3.5 3.5 0 0 1-3.5 3.5 3.5 3.5 0 0 1-3.5-3.5v-.04m11.14 8.37v-.04a3.5 3.5 0 0 1 3.5-3.5 3.5 3.5 0 0 1 3.5 3.5 3.5 3.5 0 0 1-3.5 3.5 3.5 3.5 0 0 1-3.5-3.5v-.04m11.82 7.37v-.04a3.5 3.5 0 0 1 3.5-3.5 3.5 3.5 0 0 1 3.5 3.5 3.5 3.5 0 0 1-3.5 3.5 3.5 3.5 0 0 1-3.5-3.5v-.04m12.35 6.44v-.03a3.5 3.5 0 0 1 3.5-3.5 3.5 3.5 0 0 1 3.5 3.5 3.5 3.5 0 0 1-3.5 3.5 3.5 3.5 0 0 1-3.5-3.5v-.04m12.78 5.5v-.02a3.5 3.5 0 0 1 3.5-3.5 3.5 3.5 0 0 1 3.5 3.5 3.5 3.5 0 0 1-3.5 3.5 3.5 3.5 0 0 1-3.5-3.5v-.03m13.07 4.8v-.03a3.5 3.5 0 0 1 3.5-3.5 3.5 3.5 0 0 1 3.5 3.5 3.5 3.5 0 0 1-3.5 3.5 3.5 3.5 0 0 1-3.5-3.5v-.04m13.3 4.1v-.03a3.5 3.5 0 0 1 3.5-3.5 3.5 3.5 0 0 1 3.5 3.5 3.5 3.5 0 0 1-3.5 3.5 3.5 3.5 0 0 1-3.5-3.5v-.03m13.47 3.5v-.03a3.5 3.5 0 0 1 3.5-3.5 3.5 3.5 0 0 1 3.5 3.5 3.5 3.5 0 0 1-3.5 3.5 3.5 3.5 0 0 1-3.5-3.5v-.02m13.6 2.95v-.04a3.5 3.5 0 0 1 3.5-3.5 3.5 3.5 0 0 1 3.5 3.5 3.5 3.5 0 0 1-3.5 3.5 3.5 3.5 0 0 1-3.5-3.5v-.04m13.7 2.5v-.03a3.5 3.5 0 0 1 3.5-3.5 3.5 3.5 0 0 1 3.5 3.5 3.5 3.5 0 0 1-3.5 3.5 3.5 3.5 0 0 1-3.5-3.5V640m13.7 2.23v-.04a3.5 3.5 0 0 1 3.5-3.5 3.5 3.5 0 0 1 3.5 3.5 3.5 3.5 0 0 1-3.5 3.5 3.5 3.5 0 0 1-3.5-3.5v-.04m13.8 1.8v-.04a3.5 3.5 0 0 1 3.5-3.5 3.5 3.5 0 0 1 3.5 3.5 3.5 3.5 0 0 1-3.5 3.5 3.5 3.5 0 0 1-3.5-3.5v-.04m13.8 1.7v-.02a3.5 3.5 0 0 1 3.5-3.5 3.5 3.5 0 0 1 3.5 3.5 3.5 3.5 0 0 1-3.5 3.5 3.5 3.5 0 0 1-3.5-3.5v-.04m13.87 1.2v-.03a3.5 3.5 0 0 1 3.5-3.5 3.5 3.5 0 0 1 3.5 3.5 3.5 3.5 0 0 1-3.5 3.5 3.5 3.5 0 0 1-3.5-3.5v-.05m13.84 1.2v-.03a3.5 3.5 0 0 1 3.5-3.5 3.5 3.5 0 0 1 3.5 3.5 3.5 3.5 0 0 1-3.5 3.5 3.5 3.5 0 0 1-3.5-3.5v-.03m13.86 1.2v-.04a3.5 3.5 0 0 1 3.5-3.5 3.5 3.5 0 0 1 3.5 3.5 3.5 3.5 0 0 1-3.5 3.5 3.5 3.5 0 0 1-3.5-3.5v-.04m13.87.93v-.04a3.5 3.5 0 0 1 3.5-3.5 3.5 3.5 0 0 1 3.5 3.5 3.5 3.5 0 0 1-3.5 3.5 3.5 3.5 0 0 1-3.5-3.5v-.02m13.88.8v-.04a3.5 3.5 0 0 1 3.5-3.5 3.5 3.5 0 0 1 3.5 3.5 3.5 3.5 0 0 1-3.5 3.5 3.5 3.5 0 0 1-3.5-3.5v-.03m13.9.45v-.04a3.5 3.5 0 0 1 3.5-3.5 3.5 3.5 0 0 1 3.5 3.5 3.5 3.5 0 0 1-3.5 3.5 3.5 3.5 0 0 1-3.5-3.5v-.02m13.9.44v-.04a3.5 3.5 0 0 1 3.5-3.5 3.5 3.5 0 0 1 3.5 3.5 3.5 3.5 0 0 1-3.5 3.5 3.5 3.5 0 0 1-3.5-3.5v-.03m13.9.43v-.03a3.5 3.5 0 0 1 3.5-3.5 3.5 3.5 0 0 1 3.5 3.5 3.5 3.5 0 0 1-3.5 3.5 3.5 3.5 0 0 1-3.5-3.5v-.03m13.9.43v-.03a3.5 3.5 0 0 1 3.5-3.5 3.5 3.5 0 0 1 3.5 3.5 3.5 3.5 0 0 1-3.5 3.5 3.5 3.5 0 0 1-3.5-3.5v-.04m13.88.44v-.03a3.5 3.5 0 0 1 3.5-3.5 3.5 3.5 0 0 1 3.5 3.5 3.5 3.5 0 0 1-3.5 3.5 3.5 3.5 0 0 1-3.5-3.5v-.05m13.9.44v-.04a3.5 3.5 0 0 1 3.5-3.5 3.5 3.5 0 0 1 3.5 3.5 3.5 3.5 0 0 1-3.5 3.5 3.5 3.5 0 0 1-3.5-3.5v-.04m13.9.44v-.03a3.5 3.5 0 0 1 3.5-3.5 3.5 3.5 0 0 1 3.5 3.5 3.5 3.5 0 0 1-3.5 3.5 3.5 3.5 0 0 1-3.5-3.5v-.04m13.9.43v-.04a3.5 3.5 0 0 1 3.5-3.5 3.5 3.5 0 0 1 3.5 3.5 3.5 3.5 0 0 1-3.5 3.5 3.5 3.5 0 0 1-3.5-3.5v-.04m13.9.44v-.04a3.5 3.5 0 0 1 3.5-3.5 3.5 3.5 0 0 1 3.5 3.5 3.5 3.5 0 0 1-3.5 3.5 3.5 3.5 0 0 1-3.5-3.5v-.03m13.9.44v-.04a3.5 3.5 0 0 1 3.5-3.5 3.5 3.5 0 0 1 3.5 3.5 3.5 3.5 0 0 1-3.5 3.5 3.5 3.5 0 0 1-3.5-3.5v-.03m13.9.26v-.03a3.5 3.5 0 0 1 3.5-3.5 3.5 3.5 0 0 1 3.5 3.5 3.5 3.5 0 0 1-3.5 3.5 3.5 3.5 0 0 1-3.5-3.5v-.03m13.9-.02v-.04a3.5 3.5 0 0 1 3.5-3.5 3.5 3.5 0 0 1 3.5 3.5 3.5 3.5 0 0 1-3.5 3.5 3.5 3.5 0 0 1-3.5-3.5v-.03m13.9 0v-.04a3.5 3.5 0 0 1 3.5-3.5 3.5 3.5 0 0 1 3.5 3.5 3.5 3.5 0 0 1-3.5 3.5 3.5 3.5 0 0 1-3.5-3.5v-.04m13.9 0v-.05a3.5 3.5 0 0 1 3.5-3.5 3.5 3.5 0 0 1 3.5 3.5 3.5 3.5 0 0 1-3.5 3.5 3.5 3.5 0 0 1-3.5-3.5v-.03m13.9-.02v-.03a3.5 3.5 0 0 1 3.5-3.5 3.5 3.5 0 0 1 3.5 3.5 3.5 3.5 0 0 1-3.5 3.5 3.5 3.5 0 0 1-3.5-3.5v-.05m13.9-.02V654a3.5 3.5 0 0 1 3.5-3.5 3.5 3.5 0 0 1 3.5 3.5 3.5 3.5 0 0 1-3.5 3.5 3.5 3.5 0 0 1-3.5-3.5v-.04m13.9 0v-.05a3.5 3.5 0 0 1 3.5-3.5 3.5 3.5 0 0 1 3.5 3.5 3.5 3.5 0 0 1-3.5 3.5 3.5 3.5 0 0 1-3.5-3.5v-.02m13.9-.02v-.03a3.5 3.5 0 0 1 3.5-3.5 3.5 3.5 0 0 1 3.5 3.5 3.5 3.5 0 0 1-3.5 3.5 3.5 3.5 0 0 1-3.5-3.5v-.04m13.9-.03v-.03a3.5 3.5 0 0 1 3.5-3.5 3.5 3.5 0 0 1 3.5 3.5 3.5 3.5 0 0 1-3.5 3.5 3.5 3.5 0 0 1-3.5-3.5v-.04m13.9 0v-.05a3.5 3.5 0 0 1 3.5-3.5 3.5 3.5 0 0 1 3.5 3.5 3.5 3.5 0 0 1-3.5 3.5 3.5 3.5 0 0 1-3.5-3.5v-.03m13.9-.02v-.03a3.5 3.5 0 0 1 3.5-3.5 3.5 3.5 0 0 1 3.5 3.5 3.5 3.5 0 0 1-3.5 3.5 3.5 3.5 0 0 1-3.5-3.5v-.04m13.9 0v-.05a3.5 3.5 0 0 1 3.5-3.5 3.5 3.5 0 0 1 3.5 3.5 3.5 3.5 0 0 1-3.5 3.5 3.5 3.5 0 0 1-3.5-3.5v-.03m13.9-.02v-.04a3.5 3.5 0 0 1 3.5-3.5 3.5 3.5 0 0 1 3.5 3.5 3.5 3.5 0 0 1-3.5 3.5 3.5 3.5 0 0 1-3.5-3.5v-.04m13.9-.02v-.03a3.5 3.5 0 0 1 3.5-3.5 3.5 3.5 0 0 1 3.5 3.5 3.5 3.5 0 0 1-3.5 3.5 3.5 3.5 0 0 1-3.5-3.5v-.03m13.9 0v-.05a3.5 3.5 0 0 1 3.5-3.5 3.5 3.5 0 0 1 3.5 3.5 3.5 3.5 0 0 1-3.5 3.5 3.5 3.5 0 0 1-3.5-3.5v-.03m13.9-.03v-.03a3.5 3.5 0 0 1 3.5-3.5 3.5 3.5 0 0 1 3.5 3.5 3.5 3.5 0 0 1-3.5 3.5 3.5 3.5 0 0 1-3.5-3.5v-.04m13.9-.02v-.03a3.5 3.5 0 0 1 3.5-3.5 3.5 3.5 0 0 1 3.5 3.5 3.5 3.5 0 0 1-3.5 3.5 3.5 3.5 0 0 1-3.5-3.5V653m13.9 0v-.04a3.5 3.5 0 0 1 3.5-3.5 3.5 3.5 0 0 1 3.5 3.5 3.5 3.5 0 0 1-3.5 3.5 3.5 3.5 0 0 1-3.5-3.5v-.03m13.9-.02v-.02a3.5 3.5 0 0 1 3.5-3.5 3.5 3.5 0 0 1 3.5 3.5 3.5 3.5 0 0 1-3.5 3.5 3.5 3.5 0 0 1-3.5-3.5v-.04m13.9-.02v-.03a3.5 3.5 0 0 1 3.5-3.5 3.5 3.5 0 0 1 3.5 3.5 3.5 3.5 0 0 1-3.5 3.5 3.5 3.5 0 0 1-3.5-3.5v-.05m13.9 0v-.05a3.5 3.5 0 0 1 3.5-3.5 3.5 3.5 0 0 1 3.5 3.5 3.5 3.5 0 0 1-3.5 3.5 3.5 3.5 0 0 1-3.5-3.5v-.03m13.9-.02v-.03a3.5 3.5 0 0 1 3.5-3.5 3.5 3.5 0 0 1 3.5 3.5 3.5 3.5 0 0 1-3.5 3.5 3.5 3.5 0 0 1-3.5-3.5v-.04m13.9 0v-.05a3.5 3.5 0 0 1 3.5-3.5 3.5 3.5 0 0 1 3.5 3.5 3.5 3.5 0 0 1-3.5 3.5 3.5 3.5 0 0 1-3.5-3.5v-.03m13.9-.02v-.04a3.5 3.5 0 0 1 3.5-3.5 3.5 3.5 0 0 1 3.5 3.5 3.5 3.5 0 0 1-3.5 3.5 3.5 3.5 0 0 1-3.5-3.5v-.03m13.9 0v-.04a3.5 3.5 0 0 1 3.5-3.5 3.5 3.5 0 0 1 3.5 3.5 3.5 3.5 0 0 1-3.5 3.5 3.5 3.5 0 0 1-3.5-3.5v-.04m13.9 0v-.05a3.5 3.5 0 0 1 3.5-3.5 3.5 3.5 0 0 1 3.5 3.5 3.5 3.5 0 0 1-3.5 3.5 3.5 3.5 0 0 1-3.5-3.5v-.03m13.9-.02v-.04a3.5 3.5 0 0 1 3.5-3.5 3.5 3.5 0 0 1 3.5 3.5 3.5 3.5 0 0 1-3.5 3.5 3.5 3.5 0 0 1-3.5-3.5v-.03m13.9-.02v-.03a3.5 3.5 0 0 1 3.5-3.5 3.5 3.5 0 0 1 3.5 3.5 3.5 3.5 0 0 1-3.5 3.5 3.5 3.5 0 0 1-3.5-3.5v-.04" fill="#e96f4c"/><path d="M-1769.8 444.56l-6.93.15-.08-3.66h6.94z" stroke="#e96f4c" stroke-width=".05" fill="#e96f4c"/><path d="M-929.8 651.9l-14.23 4.73-.05-9.27z" stroke="#e96f4c" stroke-width="7" fill="#e96f4c"/><path d="M-1231.7-31.05a6 6 0 0 1 6-6h304.74a6 6 0 0 1 6 6v86.1a6 6 0 0 1-6 6h-304.74a6 6 0 0 1-6-6z" stroke="#05825f" stroke-width="7" fill="#fff"/><use xlink:href="#k" transform="matrix(1,0,0,1,-1219.7039172399186,-25.046141780388098) translate(8.8828125 56.35416666666667)"/><path d="M-914.96 608.8a6 6 0 0 1 6-6h388a6 6 0 0 1 6 6v86.08a6 6 0 0 1-6 6h-388a6 6 0 0 1-6-6z" stroke="#e96f4c" stroke-width="7" fill="#fff"/><use xlink:href="#l" transform="matrix(1,0,0,1,-902.9627494267475,614.7845076439144) translate(0.1484375 56.35416666666667)"/><use xlink:href="#m" transform="matrix(1,0,0,1,-902.9627494267475,614.7845076439144) translate(105.66927083333333 56.35416666666667)"/><path d="M199.1 12.07l1.85.04 5.12.33 4.92.52 4.72.7 4.58.87 4.42 1.04 4.3 1.2 4.2 1.36 4.1 1.52 4 1.7 3.93 1.84 3.87 2.02 3.8 2.2 3.78 2.4 3.73 2.6 3.7 2.8 3.67 3.03 3.65 3.3 3.63 3.55 3.62 3.86 3.6 4.18 3.6 4.53 3.58 4.93 3.56 5.36 3.54 5.84 3.5 6.36 3.43 6.93 3.37 7.55 3.25 8.23 3.12 8.96 2.93 9.73 2.7 10.5 2.4 11.3 2.03 12.06 1.6 12.72.4 4.78" stroke="#05825f" stroke-width="7" stroke-linejoin="round" fill="none"/><path d="M199.25 8.6l-.14 6.95-3.5-.07V8.52z" stroke="#05825f" stroke-width=".05" fill="#05825f"/><path d="M326.14 190.64l-5.3-14.03 9.26-.43z" stroke="#05825f" stroke-width="7" fill="#05825f"/><path d="M-373.26 219.3l.1-5.45.56-8.67.9-8.45 1.2-8.22 1.53-8.02 1.84-7.85 2.15-7.7 2.44-7.52 2.75-7.38 3.07-7.27 3.36-7.13 3.67-7.03 4-6.92 4.3-6.8 4.67-6.7 5-6.6 5.37-6.48 5.73-6.37 6.12-6.25 6.5-6.12 6.93-5.97 7.35-5.83 7.77-5.65 8.2-5.46 8.67-5.24 9.1-5 9.55-4.73 9.97-4.46 10.4-4.1 10.82-3.78 11.2-3.38 11.56-2.97 11.88-2.5 12.18-2.07 12.42-1.57 2.8-.23" stroke="#05825f" stroke-width="7" stroke-linejoin="round" fill="none"/><path d="M-369.78 219.27l-.08 3.52h-6.95l.07-3.68z" stroke="#05825f" stroke-width=".05" fill="#05825f"/><path d="M-139.47 12.56l-14.02 5.33-.44-9.27z" stroke="#05825f" stroke-width="7" fill="#05825f"/><path d="M-124.65-31.05a6 6 0 0 1 6-6H186.1a6 6 0 0 1 6 6v86.1a6 6 0 0 1-6 6h-304.75a6 6 0 0 1-6-6z" stroke="#05825f" stroke-width="7" fill="#fff"/><use xlink:href="#k" transform="matrix(1,0,0,1,-112.65215876674785,-25.046141780388098) translate(8.8828125 56.35416666666667)"/><path d="M819.1 12.07l7.05.15 10.42.66 10.26 1.07 10.1 1.5 9.88 1.88 9.67 2.27 9.42 2.63 9.15 2.97 8.88 3.3 8.6 3.62 8.28 3.9 7.98 4.16 7.65 4.4 7.32 4.66 7 4.86 6.65 5.05 6.33 5.24 6 5.4 5.68 5.55 5.37 5.7 5.04 5.85 4.74 5.97 4.43 6.1 4.13 6.2 3.83 6.34 3.55 6.45 3.26 6.57 2.97 6.7 2.7 6.8 2.43 6.93 2.13 7.08 1.85 7.2 1.58 7.38 1.07 6.37" stroke="#136a7f" stroke-width="7" stroke-linejoin="round" fill="none"/><path d="M819.25 8.6l-.14 6.95-3.5-.07V8.52z" stroke="#136a7f" stroke-width=".05" fill="#136a7f"/><path d="M1025.8 190.66l-5.7-13.87 9.24-.72z" stroke="#136a7f" stroke-width="7" fill="#136a7f"/><path d="M326.74 198.45l.13-6.33.6-9.73 1.02-9.6 1.38-9.4 1.76-9.22 2.1-8.98 2.44-8.74 2.75-8.46 3.04-8.16 3.3-7.86 3.55-7.54 3.77-7.22 3.96-6.88 4.16-6.56 4.33-6.22 4.47-5.9 4.6-5.56 4.74-5.26 4.85-4.95 4.96-4.66 5.05-4.36 5.15-4.08 5.23-3.8 5.32-3.53 5.4-3.28 5.5-3.03 5.6-2.77 5.68-2.54 5.8-2.3 5.88-2.04 6-1.8 6.13-1.58 6.26-1.34 1.25-.2" stroke="#136a7f" stroke-width="7" stroke-linejoin="round" fill="none"/><path d="M330.22 198.44l-.08 3.5h-6.95l.07-3.65z" stroke="#136a7f" stroke-width=".05" fill="#136a7f"/><path d="M480.57 13l-13.8 5.9-.83-9.23z" stroke="#136a7f" stroke-width="7" fill="#136a7f"/><path d="M495.35-31.05a6 6 0 0 1 6-6H806.1a6 6 0 0 1 6 6v86.1a6 6 0 0 1-6 6H501.34a6 6 0 0 1-6-6z" stroke="#05825f" stroke-width="7" fill="#fff"/><use xlink:href="#k" transform="matrix(1,0,0,1,507.34784123325215,-25.046141780388098) translate(8.8828125 56.35416666666667)"/><path d="M323.24 423.75v-.04a3.5 3.5 0 0 1 3.5-3.5 3.5 3.5 0 0 1 3.5 3.5 3.5 3.5 0 0 1-3.5 3.5 3.5 3.5 0 0 1-3.5-3.5v-.02m.6 14.2v-.03a3.5 3.5 0 0 1 3.5-3.5 3.5 3.5 0 0 1 3.5 3.5 3.5 3.5 0 0 1-3.5 3.5 3.5 3.5 0 0 1-3.5-3.5v-.03m1.45 14.15v-.04a3.5 3.5 0 0 1 3.5-3.5 3.5 3.5 0 0 1 3.5 3.5 3.5 3.5 0 0 1-3.5 3.5 3.5 3.5 0 0 1-3.5-3.5v-.03m2.37 14.03v-.04a3.5 3.5 0 0 1 3.5-3.5 3.5 3.5 0 0 1 3.5 3.5 3.5 3.5 0 0 1-3.5 3.5 3.5 3.5 0 0 1-3.5-3.5v-.04m3.43 13.8v-.03a3.5 3.5 0 0 1 3.5-3.5 3.5 3.5 0 0 1 3.5 3.5 3.5 3.5 0 0 1-3.5 3.5 3.5 3.5 0 0 1-3.5-3.5v-.04m4.45 13.5v-.04a3.5 3.5 0 0 1 3.5-3.5 3.5 3.5 0 0 1 3.5 3.5 3.5 3.5 0 0 1-3.5 3.5 3.5 3.5 0 0 1-3.5-3.5v-.03m5.5 13.1v-.03a3.5 3.5 0 0 1 3.5-3.5 3.5 3.5 0 0 1 3.5 3.5 3.5 3.5 0 0 1-3.5 3.5 3.5 3.5 0 0 1-3.5-3.5v-.04m6.6 12.6v-.03a3.5 3.5 0 0 1 3.5-3.5 3.5 3.5 0 0 1 3.5 3.5 3.5 3.5 0 0 1-3.5 3.5 3.5 3.5 0 0 1-3.5-3.5v-.04m7.6 12v-.04a3.5 3.5 0 0 1 3.5-3.5 3.5 3.5 0 0 1 3.5 3.5 3.5 3.5 0 0 1-3.5 3.5 3.5 3.5 0 0 1-3.5-3.5v-.04m8.6 11.33v-.03a3.5 3.5 0 0 1 3.5-3.5 3.5 3.5 0 0 1 3.5 3.5 3.5 3.5 0 0 1-3.5 3.5 3.5 3.5 0 0 1-3.5-3.5v-.04m9.44 10.6v-.03a3.5 3.5 0 0 1 3.5-3.5 3.5 3.5 0 0 1 3.5 3.5 3.5 3.5 0 0 1-3.5 3.5 3.5 3.5 0 0 1-3.5-3.5v-.03m10.2 9.86v-.03a3.5 3.5 0 0 1 3.5-3.5 3.5 3.5 0 0 1 3.5 3.5 3.5 3.5 0 0 1-3.5 3.5 3.5 3.5 0 0 1-3.5-3.5v-.03m10.92 9.1v-.05a3.5 3.5 0 0 1 3.5-3.5 3.5 3.5 0 0 1 3.5 3.5 3.5 3.5 0 0 1-3.5 3.5 3.5 3.5 0 0 1-3.5-3.5v-.03m11.47 8.36v-.04a3.5 3.5 0 0 1 3.5-3.5 3.5 3.5 0 0 1 3.5 3.5 3.5 3.5 0 0 1-3.5 3.5 3.5 3.5 0 0 1-3.5-3.5v-.04m11.95 7.66v-.04a3.5 3.5 0 0 1 3.5-3.5 3.5 3.5 0 0 1 3.5 3.5 3.5 3.5 0 0 1-3.5 3.5 3.5 3.5 0 0 1-3.5-3.5V587m12.33 7.03V594a3.5 3.5 0 0 1 3.5-3.5 3.5 3.5 0 0 1 3.5 3.5 3.5 3.5 0 0 1-3.5 3.5 3.5 3.5 0 0 1-3.5-3.5v-.04m12.68 6.38v-.04a3.5 3.5 0 0 1 3.5-3.5 3.5 3.5 0 0 1 3.5 3.5 3.5 3.5 0 0 1-3.5 3.5 3.5 3.5 0 0 1-3.5-3.5v-.03m12.95 5.8v-.04a3.5 3.5 0 0 1 3.5-3.5 3.5 3.5 0 0 1 3.5 3.5 3.5 3.5 0 0 1-3.5 3.5 3.5 3.5 0 0 1-3.5-3.5V606m13.18 5.27v-.03a3.5 3.5 0 0 1 3.5-3.5 3.5 3.5 0 0 1 3.5 3.5 3.5 3.5 0 0 1-3.5 3.5 3.5 3.5 0 0 1-3.5-3.5v-.04m13.36 4.74v-.04a3.5 3.5 0 0 1 3.5-3.5 3.5 3.5 0 0 1 3.5 3.5 3.5 3.5 0 0 1-3.5 3.5 3.5 3.5 0 0 1-3.5-3.5v-.03m13.52 4.3v-.04a3.5 3.5 0 0 1 3.5-3.5 3.5 3.5 0 0 1 3.5 3.5 3.5 3.5 0 0 1-3.5 3.5 3.5 3.5 0 0 1-3.5-3.5v-.04m13.6 3.93V624a3.5 3.5 0 0 1 3.5-3.5 3.5 3.5 0 0 1 3.5 3.5 3.5 3.5 0 0 1-3.5 3.5 3.5 3.5 0 0 1-3.5-3.5v-.04m13.73 3.6v-.05a3.5 3.5 0 0 1 3.5-3.5 3.5 3.5 0 0 1 3.5 3.5 3.5 3.5 0 0 1-3.5 3.5 3.5 3.5 0 0 1-3.5-3.5v-.02m13.8 3.13v-.02a3.5 3.5 0 0 1 3.5-3.5 3.5 3.5 0 0 1 3.5 3.5 3.5 3.5 0 0 1-3.5 3.5 3.5 3.5 0 0 1-3.5-3.5v-.04m13.87 3v-.03a3.5 3.5 0 0 1 3.5-3.5 3.5 3.5 0 0 1 3.5 3.5 3.5 3.5 0 0 1-3.5 3.5 3.5 3.5 0 0 1-3.5-3.5v-.02m13.95 2.47v-.04a3.5 3.5 0 0 1 3.5-3.5 3.5 3.5 0 0 1 3.5 3.5 3.5 3.5 0 0 1-3.5 3.5 3.5 3.5 0 0 1-3.5-3.5v-.02m13.96 2.42v-.03a3.5 3.5 0 0 1 3.5-3.5 3.5 3.5 0 0 1 3.5 3.5 3.5 3.5 0 0 1-3.5 3.5 3.5 3.5 0 0 1-3.5-3.5v-.04m14.02 2.03v-.04a3.5 3.5 0 0 1 3.5-3.5 3.5 3.5 0 0 1 3.5 3.5 3.5 3.5 0 0 1-3.5 3.5 3.5 3.5 0 0 1-3.5-3.5v-.03m14.05 1.82V642a3.5 3.5 0 0 1 3.5-3.5 3.5 3.5 0 0 1 3.5 3.5 3.5 3.5 0 0 1-3.5 3.5 3.5 3.5 0 0 1-3.5-3.5v-.05m14.05 1.83v-.03a3.5 3.5 0 0 1 3.5-3.5 3.5 3.5 0 0 1 3.5 3.5 3.5 3.5 0 0 1-3.5 3.5 3.5 3.5 0 0 1-3.5-3.5v-.04M635 645V645a3.5 3.5 0 0 1 3.5-3.5 3.5 3.5 0 0 1 3.5 3.5 3.5 3.5 0 0 1-3.5 3.5 3.5 3.5 0 0 1-3.5-3.5v-.04m14.12 1.24v-.03a3.5 3.5 0 0 1 3.5-3.5 3.5 3.5 0 0 1 3.5 3.5 3.5 3.5 0 0 1-3.5 3.5 3.5 3.5 0 0 1-3.5-3.5v-.04m14.1 1.25v-.03a3.5 3.5 0 0 1 3.5-3.5 3.5 3.5 0 0 1 3.5 3.5 3.5 3.5 0 0 1-3.5 3.5 3.5 3.5 0 0 1-3.5-3.5v-.04m14.13 1.07v-.03a3.5 3.5 0 0 1 3.5-3.5 3.5 3.5 0 0 1 3.5 3.5 3.5 3.5 0 0 1-3.5 3.5 3.5 3.5 0 0 1-3.5-3.5v-.04m14.15.64v-.04a3.5 3.5 0 0 1 3.5-3.5 3.5 3.5 0 0 1 3.5 3.5 3.5 3.5 0 0 1-3.5 3.5 3.5 3.5 0 0 1-3.5-3.5v-.03m14.15.64v-.05a3.5 3.5 0 0 1 3.5-3.5 3.5 3.5 0 0 1 3.5 3.5 3.5 3.5 0 0 1-3.5 3.5 3.5 3.5 0 0 1-3.5-3.5v-.03m14.15.63v-.03a3.5 3.5 0 0 1 3.5-3.5 3.5 3.5 0 0 1 3.5 3.5 3.5 3.5 0 0 1-3.5 3.5 3.5 3.5 0 0 1-3.5-3.5v-.04m14.15.64v-.03a3.5 3.5 0 0 1 3.5-3.5 3.5 3.5 0 0 1 3.5 3.5 3.5 3.5 0 0 1-3.5 3.5 3.5 3.5 0 0 1-3.5-3.5v-.05m14.15.64v-.05a3.5 3.5 0 0 1 3.5-3.5 3.5 3.5 0 0 1 3.5 3.5 3.5 3.5 0 0 1-3.5 3.5 3.5 3.5 0 0 1-3.5-3.5v-.03m14.16.23v-.04a3.5 3.5 0 0 1 3.5-3.5 3.5 3.5 0 0 1 3.5 3.5 3.5 3.5 0 0 1-3.5 3.5 3.5 3.5 0 0 1-3.5-3.5v-.02m14.16.2v-.04a3.5 3.5 0 0 1 3.5-3.5 3.5 3.5 0 0 1 3.5 3.5 3.5 3.5 0 0 1-3.5 3.5 3.5 3.5 0 0 1-3.5-3.5v-.04m14.16.2v-.03a3.5 3.5 0 0 1 3.5-3.5 3.5 3.5 0 0 1 3.5 3.5 3.5 3.5 0 0 1-3.5 3.5 3.5 3.5 0 0 1-3.5-3.5v-.04" fill="#e96f4c"/><path d="M330.2 423.73l-6.93.14-.08-3.67h6.94z" stroke="#e96f4c" stroke-width=".05" fill="#e96f4c"/><path d="M811.84 651.73l-14.3 4.5.08-9.27z" stroke="#e96f4c" stroke-width="7" fill="#e96f4c"/><path d="M1230.17 651.8v-.03a3.5 3.5 0 0 1 3.5-3.5 3.5 3.5 0 0 1 3.5 3.5 3.5 3.5 0 0 1-3.5 3.5 3.5 3.5 0 0 1-3.5-3.5v-.03m14.16-.18v-.03a3.5 3.5 0 0 1 3.5-3.5 3.5 3.5 0 0 1 3.5 3.5 3.5 3.5 0 0 1-3.5 3.5 3.5 3.5 0 0 1-3.5-3.5v-.04m14.16-.18v-.04a3.5 3.5 0 0 1 3.5-3.5 3.5 3.5 0 0 1 3.5 3.5 3.5 3.5 0 0 1-3.5 3.5 3.5 3.5 0 0 1-3.5-3.5v-.03m14.15-.18v-.03a3.5 3.5 0 0 1 3.5-3.5 3.5 3.5 0 0 1 3.5 3.5 3.5 3.5 0 0 1-3.5 3.5 3.5 3.5 0 0 1-3.5-3.5V651m14.15-.17v-.04a3.5 3.5 0 0 1 3.5-3.5 3.5 3.5 0 0 1 3.5 3.5 3.5 3.5 0 0 1-3.5 3.5 3.5 3.5 0 0 1-3.5-3.5v-.04m14.16-.18v-.03a3.5 3.5 0 0 1 3.5-3.5 3.5 3.5 0 0 1 3.5 3.5 3.5 3.5 0 0 1-3.5 3.5 3.5 3.5 0 0 1-3.5-3.5v-.04m14.16-.16v-.04a3.5 3.5 0 0 1 3.5-3.5 3.5 3.5 0 0 1 3.5 3.5 3.5 3.5 0 0 1-3.5 3.5 3.5 3.5 0 0 1-3.5-3.5v-.03m14.16-.18v-.04a3.5 3.5 0 0 1 3.5-3.5 3.5 3.5 0 0 1 3.5 3.5 3.5 3.5 0 0 1-3.5 3.5 3.5 3.5 0 0 1-3.5-3.5v-.04m14.15-.32v-.04a3.5 3.5 0 0 1 3.5-3.5 3.5 3.5 0 0 1 3.5 3.5 3.5 3.5 0 0 1-3.5 3.5 3.5 3.5 0 0 1-3.5-3.5v-.03m14.13-.8v-.04a3.5 3.5 0 0 1 3.5-3.5 3.5 3.5 0 0 1 3.5 3.5 3.5 3.5 0 0 1-3.5 3.5 3.5 3.5 0 0 1-3.5-3.5v-.05m14.14-.8v-.03a3.5 3.5 0 0 1 3.5-3.5 3.5 3.5 0 0 1 3.5 3.5 3.5 3.5 0 0 1-3.5 3.5 3.5 3.5 0 0 1-3.5-3.5v-.04m14.13-.8v-.03a3.5 3.5 0 0 1 3.5-3.5 3.5 3.5 0 0 1 3.5 3.5 3.5 3.5 0 0 1-3.5 3.5 3.5 3.5 0 0 1-3.5-3.5V647m14.13-.8v-.02a3.5 3.5 0 0 1 3.5-3.5 3.5 3.5 0 0 1 3.5 3.5 3.5 3.5 0 0 1-3.5 3.5 3.5 3.5 0 0 1-3.5-3.5v-.04m14.1-1.37v-.04a3.5 3.5 0 0 1 3.5-3.5 3.5 3.5 0 0 1 3.5 3.5 3.5 3.5 0 0 1-3.5 3.5 3.5 3.5 0 0 1-3.5-3.5v-.03m14.07-1.4v-.04a3.5 3.5 0 0 1 3.5-3.5 3.5 3.5 0 0 1 3.5 3.5 3.5 3.5 0 0 1-3.5 3.5 3.5 3.5 0 0 1-3.5-3.5v-.03m14.08-1.4v-.03a3.5 3.5 0 0 1 3.5-3.5 3.5 3.5 0 0 1 3.5 3.5 3.5 3.5 0 0 1-3.5 3.5 3.5 3.5 0 0 1-3.5-3.5v-.04m14.04-1.88v-.04a3.5 3.5 0 0 1 3.5-3.5 3.5 3.5 0 0 1 3.5 3.5 3.5 3.5 0 0 1-3.5 3.5 3.5 3.5 0 0 1-3.5-3.5v-.03m14-1.98v-.04a3.5 3.5 0 0 1 3.5-3.5 3.5 3.5 0 0 1 3.5 3.5 3.5 3.5 0 0 1-3.5 3.5 3.5 3.5 0 0 1-3.5-3.5v-.03m13.98-2.2v-.03a3.5 3.5 0 0 1 3.5-3.5 3.5 3.5 0 0 1 3.5 3.5 3.5 3.5 0 0 1-3.5 3.5 3.5 3.5 0 0 1-3.5-3.5v-.03m13.9-2.6v-.02a3.5 3.5 0 0 1 3.5-3.5 3.5 3.5 0 0 1 3.5 3.5 3.5 3.5 0 0 1-3.5 3.5 3.5 3.5 0 0 1-3.5-3.5v-.04m13.9-2.75v-.05a3.5 3.5 0 0 1 3.5-3.5 3.5 3.5 0 0 1 3.5 3.5 3.5 3.5 0 0 1-3.5 3.5 3.5 3.5 0 0 1-3.5-3.5v-.03m13.77-3.16v-.03a3.5 3.5 0 0 1 3.5-3.5 3.5 3.5 0 0 1 3.5 3.5 3.5 3.5 0 0 1-3.5 3.5 3.5 3.5 0 0 1-3.5-3.5v-.04m13.7-3.5v-.03a3.5 3.5 0 0 1 3.5-3.5 3.5 3.5 0 0 1 3.5 3.5 3.5 3.5 0 0 1-3.5 3.5 3.5 3.5 0 0 1-3.5-3.5v-.04m13.62-3.8v-.03a3.5 3.5 0 0 1 3.5-3.5 3.5 3.5 0 0 1 3.5 3.5 3.5 3.5 0 0 1-3.5 3.5 3.5 3.5 0 0 1-3.5-3.5v-.03m13.47-4.3v-.04a3.5 3.5 0 0 1 3.5-3.5 3.5 3.5 0 0 1 3.5 3.5 3.5 3.5 0 0 1-3.5 3.5 3.5 3.5 0 0 1-3.5-3.5V615m13.3-4.75v-.04a3.5 3.5 0 0 1 3.5-3.5 3.5 3.5 0 0 1 3.5 3.5 3.5 3.5 0 0 1-3.5 3.5 3.5 3.5 0 0 1-3.5-3.5v-.03m13.13-5.22v-.04a3.5 3.5 0 0 1 3.5-3.5 3.5 3.5 0 0 1 3.5 3.5 3.5 3.5 0 0 1-3.5 3.5 3.5 3.5 0 0 1-3.5-3.5v-.02m12.9-5.76v-.03a3.5 3.5 0 0 1 3.5-3.5 3.5 3.5 0 0 1 3.5 3.5 3.5 3.5 0 0 1-3.5 3.5 3.5 3.5 0 0 1-3.5-3.5v-.05m12.63-6.32v-.04a3.5 3.5 0 0 1 3.5-3.5 3.5 3.5 0 0 1 3.5 3.5 3.5 3.5 0 0 1-3.5 3.5 3.5 3.5 0 0 1-3.5-3.5v-.05m12.3-6.96v-.04a3.5 3.5 0 0 1 3.5-3.5 3.5 3.5 0 0 1 3.5 3.5 3.5 3.5 0 0 1-3.5 3.5 3.5 3.5 0 0 1-3.5-3.5v-.04m11.83-7.68v-.03a3.5 3.5 0 0 1 3.5-3.5 3.5 3.5 0 0 1 3.5 3.5 3.5 3.5 0 0 1-3.5 3.5 3.5 3.5 0 0 1-3.5-3.5v-.03m11.4-8.33v-.03a3.5 3.5 0 0 1 3.5-3.5 3.5 3.5 0 0 1 3.5 3.5 3.5 3.5 0 0 1-3.5 3.5 3.5 3.5 0 0 1-3.5-3.5v-.02m10.75-9.14v-.03a3.5 3.5 0 0 1 3.5-3.5 3.5 3.5 0 0 1 3.5 3.5 3.5 3.5 0 0 1-3.5 3.5 3.5 3.5 0 0 1-3.5-3.5v-.03m10.08-9.86v-.02a3.5 3.5 0 0 1 3.5-3.5 3.5 3.5 0 0 1 3.5 3.5 3.5 3.5 0 0 1-3.5 3.5 3.5 3.5 0 0 1-3.5-3.5v-.04m9.3-10.6v-.04a3.5 3.5 0 0 1 3.5-3.5 3.5 3.5 0 0 1 3.5 3.5 3.5 3.5 0 0 1-3.5 3.5 3.5 3.5 0 0 1-3.5-3.5v-.04m8.4-11.32v-.03a3.5 3.5 0 0 1 3.5-3.5 3.5 3.5 0 0 1 3.5 3.5 3.5 3.5 0 0 1-3.5 3.5 3.5 3.5 0 0 1-3.5-3.5v-.03m7.4-11.98v-.05a3.5 3.5 0 0 1 3.5-3.5 3.5 3.5 0 0 1 3.5 3.5 3.5 3.5 0 0 1-3.5 3.5 3.5 3.5 0 0 1-3.5-3.5v-.03m6.4-12.57v-.03a3.5 3.5 0 0 1 3.5-3.5 3.5 3.5 0 0 1 3.5 3.5 3.5 3.5 0 0 1-3.5 3.5 3.5 3.5 0 0 1-3.5-3.5v-.04m5.3-13.05v-.03a3.5 3.5 0 0 1 3.5-3.5 3.5 3.5 0 0 1 3.5 3.5 3.5 3.5 0 0 1-3.5 3.5 3.5 3.5 0 0 1-3.5-3.5v-.04m4.26-13.43V477a3.5 3.5 0 0 1 3.5-3.5 3.5 3.5 0 0 1 3.5 3.5 3.5 3.5 0 0 1-3.5 3.5 3.5 3.5 0 0 1-3.5-3.5v-.04m3.2-13.72v-.03a3.5 3.5 0 0 1 3.5-3.5 3.5 3.5 0 0 1 3.5 3.5 3.5 3.5 0 0 1-3.5 3.5 3.5 3.5 0 0 1-3.5-3.5v-.03m2.18-13.9v-.05a3.5 3.5 0 0 1 3.5-3.5 3.5 3.5 0 0 1 3.5 3.5 3.5 3.5 0 0 1-3.5 3.5 3.5 3.5 0 0 1-3.5-3.5v-.03" fill="#e96f4c"/><path d="M1233.82 655.24l-3.65.07v-6.94l3.53-.07z" stroke="#e96f4c" stroke-width=".05" fill="#e96f4c"/><path d="M1725.97 431.5l3.75 14.53-9.25-.57z" stroke="#e96f4c" stroke-width="7" fill="#e96f4c"/><path d="M826.67 608.8a6 6 0 0 1 6-6h388a6 6 0 0 1 6 6v86.08a6 6 0 0 1-6 6h-388a6 6 0 0 1-6-6z" stroke="#e96f4c" stroke-width="7" fill="#fff"/><use xlink:href="#l" transform="matrix(1,0,0,1,838.666666666667,614.7845076439144) translate(0.1484375 56.35416666666667)"/><use xlink:href="#m" transform="matrix(1,0,0,1,838.666666666667,614.7845076439144) translate(105.66927083333333 56.35416666666667)"/><path d="M-1457.5 331.92h42.76" stroke="#05825f" stroke-width="7" fill="none"/><path d="M-1457.42 335.4h-3.67l.1-3.48-.1-3.48h3.67z" stroke="#05825f" stroke-width=".05" fill="#05825f"/><path d="M-1396.98 331.92l-14.26 4.63v-9.27z" stroke="#05825f" stroke-width="7" fill="#05825f"/><path d="M-757.5 331.92h40.55" stroke="#05825f" stroke-width="7" fill="none"/><path d="M-757.42 335.4h-3.68l.1-3.48-.1-3.48h3.68z" stroke="#05825f" stroke-width=".05" fill="#05825f"/><path d="M-699.2 331.92l-14.25 4.63v-9.27z" stroke="#05825f" stroke-width="7" fill="#05825f"/><path d="M1342.5 311.08h42.76" stroke="#05825f" stroke-width="7" fill="none"/><path d="M1342.58 314.55h-3.67l.1-3.47-.1-3.48h3.67z" stroke="#05825f" stroke-width=".05" fill="#05825f"/><path d="M1403.02 311.08l-14.26 4.63v-9.26z" stroke="#05825f" stroke-width="7" fill="#05825f"/><path d="M2042.5 311.08h42.76" stroke="#05825f" stroke-width="7" fill="none"/><path d="M2042.58 314.55h-3.67l.1-3.47-.1-3.48h3.67z" stroke="#05825f" stroke-width=".05" fill="#05825f"/><path d="M2103.02 311.08l-14.26 4.63v-9.26z" stroke="#05825f" stroke-width="7" fill="#05825f"/><defs><path fill="#fff" d="M362-157h690V0H169v-1456h193v1299" id="n"/><path fill="#fff" d="M1175-1298H707V0H516v-1298H49v-158h1126v158" id="o"/><path fill="#fff" d="M631-137c179 0 314-70 314-231 0-71-25-127-75-166s-141-77-272-115c-165-47-285-106-360-175s-112-154-112-255c0-245 231-397 495-397 206 0 369 89 449 218 43 68 65 142 65 223H942c0-184-129-283-321-283-172 0-299 76-301 236 0 59 26 109 76 150s135 78 256 113c205 59 345 116 436 256 35 53 50 119 50 193-2 256-231 398-507 390C333 12 90-129 80-422h193c0 187 160 285 358 285" id="p"/><g id="a"><use transform="matrix(0.0390625,0,0,0.0390625,0,0)" xlink:href="#n"/><use transform="matrix(0.0390625,0,0,0.0390625,32.3046875,0)" xlink:href="#o"/><use transform="matrix(0.0390625,0,0,0.0390625,79.4140625,0)" xlink:href="#p"/></g><path fill="#fff" d="M729 0H543v-1233l-373 137v-168l530-199h29V0" id="q"/><path fill="#fff" d="M258 11c-71 0-114-43-114-108 0-67 42-112 114-112s116 45 116 112c-1 65-45 108-116 108" id="r"/><path fill="#fff" d="M832-402c-1-179-119-264-303-265H390v-151h139c164 0 281-91 281-250 0-171-85-256-255-256-154 0-265 99-263 250H107c-4-235 205-402 448-402 266 0 444 150 440 412-2 148-109 272-229 317 147 45 249 158 251 341 3 262-197 426-461 426C299 20 91-135 94-384h186c-2 156 116 253 276 253 176 0 277-96 276-271" id="s"/><path fill="#fff" d="M132-554c0-555 187-908 715-903v157c-320-8-501 179-526 477 77-88 181-132 314-132 259 0 417 214 417 480 0 286-172 495-451 495-293 0-469-266-469-574zm737 88c0-181-95-335-265-335-133 0-252 96-286 200v68c-6 207 101 397 283 400 175 3 268-150 268-333" id="t"/><g id="b"><use transform="matrix(0.0390625,0,0,0.0390625,0,0)" xlink:href="#q"/><use transform="matrix(0.0390625,0,0,0.0390625,44.921875,0)" xlink:href="#r"/><use transform="matrix(0.0390625,0,0,0.0390625,65.9765625,0)" xlink:href="#s"/><use transform="matrix(0.0390625,0,0,0.0390625,110.8984375,0)" xlink:href="#r"/><use transform="matrix(0.0390625,0,0,0.0390625,131.953125,0)" xlink:href="#t"/></g><path fill="#fff" d="M1061-1352L458 0H264l601-1304H77v-152h984v104" id="u"/><g id="c"><use transform="matrix(0.0390625,0,0,0.0390625,0,0)" xlink:href="#q"/><use transform="matrix(0.0390625,0,0,0.0390625,44.921875,0)" xlink:href="#r"/><use transform="matrix(0.0390625,0,0,0.0390625,65.9765625,0)" xlink:href="#s"/><use transform="matrix(0.0390625,0,0,0.0390625,110.8984375,0)" xlink:href="#r"/><use transform="matrix(0.0390625,0,0,0.0390625,131.953125,0)" xlink:href="#u"/></g><path fill="#fff" d="M575-1476c247 0 432 154 429 400-2 161-97 271-213 327 135 56 245 179 247 356 3 257-200 413-463 413-265 0-466-156-463-413 2-176 108-302 243-357-115-56-207-166-209-326-4-246 181-400 429-400zm0 1345c168 0 278-101 278-266 0-161-118-276-280-276-163 0-276 113-276 276 0 167 108 266 278 266zm244-942c0-143-104-251-244-251-146 0-244 102-244 251 0 145 98 248 244 248s244-103 244-248" id="v"/><g id="d"><use transform="matrix(0.0390625,0,0,0.0390625,0,0)" xlink:href="#q"/><use transform="matrix(0.0390625,0,0,0.0390625,44.921875,0)" xlink:href="#r"/><use transform="matrix(0.0390625,0,0,0.0390625,65.9765625,0)" xlink:href="#s"/><use transform="matrix(0.0390625,0,0,0.0390625,110.8984375,0)" xlink:href="#r"/><use transform="matrix(0.0390625,0,0,0.0390625,131.953125,0)" xlink:href="#v"/></g><path fill="#fff" d="M319-664C304-226 428 158 661 357l-38 113c-89-49-172-133-254-248C142-97 71-578 194-1025c67-244 240-513 429-618l38 122c-201 153-330 502-342 857" id="w"/><path fill="#fff" d="M341 0H156v-1536h185V0" id="x"/><path fill="#fff" d="M561-1102c238-4 403 126 403 351v498c0 99 13 178 38 237V0H808c-11-21-19-59-26-114C696-25 593 20 474 20c-199 0-368-130-365-320 4-251 214-359 490-356h180v-85c-1-135-86-212-229-212-115 0-232 67-233 171H131c20-205 206-316 430-320zM294-326c0 117 90 185 207 185 122 0 239-75 278-162v-222H634c-227 0-340 66-340 199" id="y"/><path fill="#fff" d="M456 20C285 20 205-92 206-268v-671H9v-143h197v-262h185v262h202v143H391v671c-9 125 92 149 207 118V0c-49 13-96 20-142 20" id="z"/><path fill="#fff" d="M599-131c141 0 220-65 285-146l113 88C906-50 770 20 589 20 281 21 93-214 93-545c0-223 93-397 233-485 74-48 154-72 240-72 300 2 449 218 445 537v77H278c0 197 129 357 321 357zm227-509c-3-180-88-310-260-310-170 0-264 140-282 310h542" id="A"/><path fill="#fff" d="M538-131c121 0 232-49 232-156 0-50-20-88-56-117-73-60-334-92-420-143-92-55-162-110-162-238 0-190 192-317 400-317 223 0 414 129 413 338H759c0-108-110-186-227-186-119 0-215 53-215 159 0 45 18 78 53 101 76 52 331 90 416 139 98 57 169 115 169 251C955-92 760 20 538 20c-176 0-314-68-386-174-38-55-57-115-57-179h185c6 129 116 202 258 202" id="B"/><g id="e"><use transform="matrix(0.026041666666666668,0,0,0.026041666666666668,0,0)" xlink:href="#w"/><use transform="matrix(0.026041666666666668,0,0,0.026041666666666668,18.229166666666668,0)" xlink:href="#x"/><use transform="matrix(0.026041666666666668,0,0,0.026041666666666668,31.171875,0)" xlink:href="#y"/><use transform="matrix(0.026041666666666668,0,0,0.026041666666666668,60.18229166666667,0)" xlink:href="#z"/><use transform="matrix(0.026041666666666668,0,0,0.026041666666666668,77.60416666666667,0)" xlink:href="#A"/><use transform="matrix(0.026041666666666668,0,0,0.026041666666666668,105.859375,0)" xlink:href="#B"/><use transform="matrix(0.026041666666666668,0,0,0.026041666666666668,133.359375,0)" xlink:href="#z"/></g><path fill="#fff" d="M503-687l240-395h216L605-547 970 0H756L506-405 256 0H41l365-547-354-535h214" id="C"/><path fill="#fff" d="M38 357C331 141 457-487 337-984c-53-219-157-429-299-546l39-113c190 106 362 378 431 621 75 268 76 597 0 868C440 88 266 365 77 470" id="D"/><g id="f"><use transform="matrix(0.026041666666666668,0,0,0.026041666666666668,0,0)" xlink:href="#q"/><use transform="matrix(0.026041666666666668,0,0,0.026041666666666668,29.947916666666668,0)" xlink:href="#r"/><use transform="matrix(0.026041666666666668,0,0,0.026041666666666668,43.984375,0)" xlink:href="#s"/><use transform="matrix(0.026041666666666668,0,0,0.026041666666666668,73.93229166666667,0)" xlink:href="#r"/><use transform="matrix(0.026041666666666668,0,0,0.026041666666666668,87.96875,0)" xlink:href="#C"/><use transform="matrix(0.026041666666666668,0,0,0.026041666666666668,114.40104166666667,0)" xlink:href="#D"/></g><path fill="#fff" d="M902-489h202v151H902V0H716v-338H53v-109l652-1009h197v967zm-639 0h453v-714l-22 40" id="E"/><path fill="#fff" d="M574-1476c351 0 454 237 460 615v240c0 217-37 378-111 483S733 20 576 20c-346 0-454-246-461-616v-247c0-214 37-373 111-477s190-156 348-156zm275 905c0-337 59-752-275-753-95 0-160 38-207 107-80 118-66 409-67 625 0 157 22 273 68 348s115 113 208 113c91 0 160-35 204-106s69-182 69-334" id="F"/><g id="g"><use transform="matrix(0.0390625,0,0,0.0390625,0,0)" xlink:href="#q"/><use transform="matrix(0.0390625,0,0,0.0390625,44.921875,0)" xlink:href="#r"/><use transform="matrix(0.0390625,0,0,0.0390625,65.9765625,0)" xlink:href="#E"/><use transform="matrix(0.0390625,0,0,0.0390625,110.8984375,0)" xlink:href="#r"/><use transform="matrix(0.0390625,0,0,0.0390625,131.953125,0)" xlink:href="#F"/></g><g id="h"><use transform="matrix(0.0390625,0,0,0.0390625,0,0)" xlink:href="#q"/><use transform="matrix(0.0390625,0,0,0.0390625,44.921875,0)" xlink:href="#r"/><use transform="matrix(0.0390625,0,0,0.0390625,65.9765625,0)" xlink:href="#E"/><use transform="matrix(0.0390625,0,0,0.0390625,110.8984375,0)" xlink:href="#r"/><use transform="matrix(0.0390625,0,0,0.0390625,131.953125,0)" xlink:href="#q"/></g><path fill="#fff" d="M569-1476c255 0 440 146 439 390 0 143-91 314-274 512L344-151h731V0H121v-133l504-560c75-85 125-155 155-207 105-184 6-424-211-424-183 0-293 113-291 297H93c-3-270 199-449 476-449" id="G"/><g id="i"><use transform="matrix(0.0390625,0,0,0.0390625,0,0)" xlink:href="#q"/><use transform="matrix(0.0390625,0,0,0.0390625,44.921875,0)" xlink:href="#r"/><use transform="matrix(0.0390625,0,0,0.0390625,65.9765625,0)" xlink:href="#E"/><use transform="matrix(0.0390625,0,0,0.0390625,110.8984375,0)" xlink:href="#r"/><use transform="matrix(0.0390625,0,0,0.0390625,131.953125,0)" xlink:href="#G"/></g><g id="j"><use transform="matrix(0.0390625,0,0,0.0390625,0,0)" xlink:href="#q"/><use transform="matrix(0.0390625,0,0,0.0390625,44.921875,0)" xlink:href="#r"/><use transform="matrix(0.0390625,0,0,0.0390625,65.9765625,0)" xlink:href="#E"/><use transform="matrix(0.0390625,0,0,0.0390625,110.8984375,0)" xlink:href="#r"/><use transform="matrix(0.0390625,0,0,0.0390625,131.953125,0)" xlink:href="#s"/></g><path fill="#05825f" d="M681 22C323 22 94-145 85-462h297c10 151 131 226 296 226 163 0 271-77 271-190 0-102-95-149-257-189l-164-41c-252-61-403-188-403-405 0-269 236-449 560-449 330 0 546 183 551 445H941c-11-119-106-188-259-188-156 0-244 72-244 172-3 156 226 185 373 221 250 61 445 186 445 436 0 271-213 446-575 446" id="H"/><path fill="#05825f" d="M513 14c-232 0-385-159-385-421v-711h300v659c0 139 76 222 202 222 127 0 217-86 217-234v-647h301V0H864l-4-232C797-74 683 14 513 14" id="I"/><path fill="#05825f" d="M128 418v-1536h295v188h14c41-89 129-202 319-202 248 0 453 193 453 575 0 372-197 576-455 576-183 0-275-108-317-198h-9v597H128zm534-640c156 0 240-139 240-336 0-196-83-334-240-334-154 0-241 131-241 334 0 202 88 336 241 336" id="J"/><path fill="#05825f" d="M628 22C291 22 81-210 81-554c0-346 210-578 547-578 336 0 547 232 547 578 0 344-211 576-547 576zm0-236c160 0 242-146 242-341 0-197-82-341-242-341S387-753 387-555c0 195 81 341 241 341" id="K"/><path fill="#05825f" d="M128 0v-1118h290v195h12c54-169 184-238 367-200v268c-27-8-86-15-130-15-138 0-239 95-239 234V0H128" id="L"/><path fill="#05825f" d="M683-1118v229H474v562c0 71 29 104 102 104 23 0 73-7 95-13l43 225C647 9 580 16 520 16 296 16 174-96 174-301v-588H20v-229h154v-266h300v266h209" id="M"/><path fill="#05825f" d="M633 22C291 22 81-200 81-553c0-345 210-579 537-579 292 0 525 185 525 567v84H378c7 183 109 277 260 277 105 0 184-46 216-132l272 51C1071-99 893 22 633 22zM380-669h474c-15-146-94-237-233-237-143 0-229 99-241 237" id="N"/><path fill="#05825f" d="M537 19C279 19 81-185 81-557c0-382 206-575 454-575 190 0 278 113 318 202h10v-560h300V0H868v-179h-15C812-89 719 19 537 19zm92-241c153 0 240-134 240-336 0-203-86-334-240-334-158 0-240 138-240 334 0 197 84 336 240 336" id="O"/><g id="k"><use transform="matrix(0.026041666666666668,0,0,0.026041666666666668,0,0)" xlink:href="#H"/><use transform="matrix(0.026041666666666668,0,0,0.026041666666666668,34.921875,0)" xlink:href="#I"/><use transform="matrix(0.026041666666666668,0,0,0.026041666666666668,68.125,0)" xlink:href="#J"/><use transform="matrix(0.026041666666666668,0,0,0.026041666666666668,101.74479166666667,0)" xlink:href="#J"/><use transform="matrix(0.026041666666666668,0,0,0.026041666666666668,135.36458333333334,0)" xlink:href="#K"/><use transform="matrix(0.026041666666666668,0,0,0.026041666666666668,168.07291666666669,0)" xlink:href="#L"/><use transform="matrix(0.026041666666666668,0,0,0.026041666666666668,190.83333333333334,0)" xlink:href="#M"/><use transform="matrix(0.026041666666666668,0,0,0.026041666666666668,209.84375,0)" xlink:href="#N"/><use transform="matrix(0.026041666666666668,0,0,0.026041666666666668,241.61458333333334,0)" xlink:href="#O"/></g><path fill="#e96f4c" d="M135 0v-1490h340l471 754c59 97 122 210 187 365-32-387-14-721-19-1119h312V0h-341C855-382 627-689 427-1113c32 420 16 695 20 1113H135" id="P"/><path fill="#e96f4c" d="M628 22C291 22 81-210 81-554c0-346 210-578 547-578 336 0 547 232 547 578 0 344-211 576-547 576zm0-236c160 0 242-146 242-341 0-197-82-341-242-341S387-753 387-555c0 195 81 341 241 341" id="Q"/><path fill="#e96f4c" d="M683-1118v229H474v562c0 71 29 104 102 104 23 0 73-7 95-13l43 225C647 9 580 16 520 16 296 16 174-96 174-301v-588H20v-229h154v-266h300v266h209" id="R"/><g id="l"><use transform="matrix(0.026041666666666668,0,0,0.026041666666666668,0,0)" xlink:href="#P"/><use transform="matrix(0.026041666666666668,0,0,0.026041666666666668,40.65104166666667,0)" xlink:href="#Q"/><use transform="matrix(0.026041666666666668,0,0,0.026041666666666668,73.359375,0)" xlink:href="#R"/></g><path fill="#e96f4c" d="M572 22C302 22 117-98 78-306l279-48c29 105 101 156 224 156 114 0 185-48 185-115 0-118-228-130-337-155-215-49-322-150-322-317 0-215 187-347 470-347 265 0 424 116 466 298l-266 47c-24-76-87-130-196-130-98 0-174 46-174 113 0 56 38 95 144 117l201 40c216 44 320 143 320 302 0 220-207 367-500 367" id="S"/><path fill="#e96f4c" d="M513 14c-232 0-385-159-385-421v-711h300v659c0 139 76 222 202 222 127 0 217-86 217-234v-647h301V0H864l-4-232C797-74 683 14 513 14" id="T"/><path fill="#e96f4c" d="M128 418v-1536h295v188h14c41-89 129-202 319-202 248 0 453 193 453 575 0 372-197 576-455 576-183 0-275-108-317-198h-9v597H128zm534-640c156 0 240-139 240-336 0-196-83-334-240-334-154 0-241 131-241 334 0 202 88 336 241 336" id="U"/><path fill="#e96f4c" d="M128 0v-1118h290v195h12c54-169 184-238 367-200v268c-27-8-86-15-130-15-138 0-239 95-239 234V0H128" id="V"/><path fill="#e96f4c" d="M633 22C291 22 81-200 81-553c0-345 210-579 537-579 292 0 525 185 525 567v84H378c7 183 109 277 260 277 105 0 184-46 216-132l272 51C1071-99 893 22 633 22zM380-669h474c-15-146-94-237-233-237-143 0-229 99-241 237" id="W"/><path fill="#e96f4c" d="M537 19C279 19 81-185 81-557c0-382 206-575 454-575 190 0 278 113 318 202h10v-560h300V0H868v-179h-15C812-89 719 19 537 19zm92-241c153 0 240-134 240-336 0-203-86-334-240-334-158 0-240 138-240 334 0 197 84 336 240 336" id="X"/><g id="m"><use transform="matrix(0.026041666666666668,0,0,0.026041666666666668,0,0)" xlink:href="#S"/><use transform="matrix(0.026041666666666668,0,0,0.026041666666666668,29.869791666666668,0)" xlink:href="#T"/><use transform="matrix(0.026041666666666668,0,0,0.026041666666666668,63.07291666666667,0)" xlink:href="#U"/><use transform="matrix(0.026041666666666668,0,0,0.026041666666666668,96.69270833333334,0)" xlink:href="#U"/><use transform="matrix(0.026041666666666668,0,0,0.026041666666666668,130.3125,0)" xlink:href="#Q"/><use transform="matrix(0.026041666666666668,0,0,0.026041666666666668,163.02083333333334,0)" xlink:href="#V"/><use transform="matrix(0.026041666666666668,0,0,0.026041666666666668,185.78125,0)" xlink:href="#R"/><use transform="matrix(0.026041666666666668,0,0,0.026041666666666668,204.79166666666666,0)" xlink:href="#W"/><use transform="matrix(0.026041666666666668,0,0,0.026041666666666668,236.5625,0)" xlink:href="#X"/></g></defs></g></svg>