<svg width="100" height="100" xmlns="http://www.w3.org/2000/svg" x="0px" y="0px" viewBox="0 0 50 50">
<title>barman</title>
<path d="M24.9880203,0 C34.9472532,0 43.0208067,8.07355346 43.0208067,18.0327864 C43.0208067,27.9920193 34.9472532,36.0655727 24.9880203,36.0655727 C15.0287874,36.0655727 6.95523395,27.9920193 6.95523395,18.0327864 C6.95523395,17.4374865 6.98407988,16.848924 7.04045021,16.2684204 C6.90725308,16.2496427 6.77294267,16.2181318 6.63963453,16.1748173 L1.72813251,14.5789736 C0.414997487,14.1523102 -0.303629726,12.7419248 0.123033707,11.4287898 C0.549697141,10.1156548 1.96008246,9.39702757 3.27321748,9.82369101 L8.1847195,11.4195347 L8.20359946,11.4268308 C10.8392582,4.73550006 17.3606216,0 24.9880203,0 Z M24.9880203,3 C16.6856417,3 9.95523395,9.73040771 9.95523395,18.0327864 C9.95523395,26.335165 16.6856417,33.0655727 24.9880203,33.0655727 C33.290399,33.0655727 40.0208067,26.335165 40.0208067,18.0327864 C40.0208067,9.73040771 33.290399,3 24.9880203,3 Z" id="Combined-Shape" fill-rule="nonzero"></path>
<path d="M29.1166634,9.21646214 C29.783262,9.4308122 30.3209633,9.76481215 30.7297672,10.218462 C31.1564188,10.6919173 31.4035168,11.4753495 31.5143764,11.9989966 C34.8980437,13.964762 37.1727914,17.6294148 37.1727914,21.8253634 C37.1727914,23.6751003 36.7307195,25.4215858 35.9464639,26.9649319 C34.0705239,30.6566168 29.570666,31.9533415 25.1460937,31.9533415 C31.0703307,31.2379392 34.9229699,27.278279 33.7412399,21.9849596 C33.6362548,21.5147002 33.2891783,21.0791369 32.7000104,20.6782698 L32.5159973,20.5590506 L30.7265724,24.247901 L24.3642792,21.2518644 C24.8854889,20.3049924 24.903123,19.7349307 24.4171814,19.5416794 C23.9616112,19.3605063 23.5746463,19.6940924 23.2562867,20.5424378 L23.1935295,20.7189703 L15.5154429,17.0187541 C17.8931776,12.6493992 21.3254132,10.4647217 25.8121497,10.4647217 C26.6220129,10.4647217 27.4120838,10.5494632 28.1739788,10.7105629 L28.1554321,10.7403803 L27.6220306,14.8651209 L28.4163803,17.7937956 L28.1554321,14.8651209 L28.8355849,10.8714504 L28.8464429,10.8734621 L29.1166634,9.21646214 Z M32.7270893,15.4085798 C32.365709,15.4085798 32.0727524,15.7015364 32.0727524,16.0629168 C32.0727524,16.4242971 32.365709,16.7172537 32.7270893,16.7172537 C33.0884696,16.7172537 33.3814262,16.4242971 33.3814262,16.0629168 C33.3814262,15.7015364 33.0884696,15.4085798 32.7270893,15.4085798 Z" id="Combined-Shape"></path>
</svg>
