<svg width="100" height="100" xmlns="http://www.w3.org/2000/svg" x="0px" y="0px" viewBox="0 0 50 50">
<title>big data</title>
<path d="M 25 1 C 21.839277 1 19.19831 1.5686133 17.259766 2.5761719 C 15.321221 3.5837304 14 5.1451015 14 7 L 14 13 L 14 17 L 16 17 L 16 16.617188 C 16.380074 16.913955 16.801337 17.18556 17.259766 17.423828 C 19.19831 18.431387 21.839277 19 25 19 C 28.160723 19 30.80169 18.431387 32.740234 17.423828 C 33.198663 17.18556 33.619926 16.913955 34 16.617188 L 34 17 L 36 17 L 36 13 L 36 7 C 36 5.1451015 34.678779 3.5837304 32.740234 2.5761719 C 30.80169 1.5686133 28.160723 1 25 1 z M 25 3 C 27.915277 3 30.273951 3.5498711 31.816406 4.3515625 C 33.358862 5.1532539 34 6.0918985 34 7 C 34 7.9081015 33.358862 8.8467461 31.816406 9.6484375 C 30.273951 10.450129 27.915277 11 25 11 C 22.084723 11 19.726049 10.450129 18.183594 9.6484375 C 16.641138 8.8467461 16 7.9081015 16 7 C 16 6.0918985 16.641138 5.1532539 18.183594 4.3515625 C 19.726049 3.5498711 22.084723 3 25 3 z M 16 10.617188 C 16.380074 10.913955 16.801337 11.18556 17.259766 11.423828 C 19.19831 12.431387 21.839277 13 25 13 C 28.160723 13 30.80169 12.431387 32.740234 11.423828 C 33.198663 11.18556 33.619926 10.913955 34 10.617188 L 34 13 C 34 13.908102 33.358862 14.846744 31.816406 15.648438 C 30.273951 16.450128 27.915277 17 25 17 C 22.084723 17 19.726049 16.450128 18.183594 15.648438 C 16.641138 14.846744 16 13.908102 16 13 L 16 10.617188 z M 13 19 C 9.8392767 19 7.19831 19.568613 5.2597656 20.576172 C 3.3212213 21.58373 2 23.145102 2 25 L 2 31 L 2 43 C 2 44.854898 3.3212213 46.41627 5.2597656 47.423828 C 7.19831 48.431387 9.8392767 49 13 49 C 16.160723 49 18.80169 48.431387 20.740234 47.423828 C 22.678779 46.41627 24 44.854898 24 43 L 24 31 L 24 25 C 24 23.145102 22.678779 21.58373 20.740234 20.576172 C 18.80169 19.568613 16.160723 19 13 19 z M 37 19 C 33.839277 19 31.19831 19.568613 29.259766 20.576172 C 27.321221 21.58373 26 23.145102 26 25 L 26 31 L 26 43 C 26 44.854898 27.321221 46.41627 29.259766 47.423828 C 31.19831 48.431387 33.839277 49 37 49 C 40.160723 49 42.80169 48.431387 44.740234 47.423828 C 46.678779 46.41627 48 44.854898 48 43 L 48 31 L 48 25 C 48 23.145102 46.678779 21.58373 44.740234 20.576172 C 42.80169 19.568613 40.160723 19 37 19 z M 13 21 C 15.915277 21 18.273951 21.549871 19.816406 22.351562 C 21.358862 23.153254 22 24.091898 22 25 C 22 25.908102 21.358862 26.846746 19.816406 27.648438 C 18.273951 28.450129 15.915277 29 13 29 C 10.084723 29 7.7260492 28.450129 6.1835938 27.648438 C 4.6411381 26.846746 4 25.908102 4 25 C 4 24.091898 4.6411381 23.153254 6.1835938 22.351562 C 7.7260494 21.549871 10.084723 21 13 21 z M 37 21 C 39.915277 21 42.273951 21.549871 43.816406 22.351562 C 45.358862 23.153254 46 24.091898 46 25 C 46 25.908102 45.358862 26.846746 43.816406 27.648438 C 42.273951 28.450129 39.915277 29 37 29 C 34.084723 29 31.726049 28.450129 30.183594 27.648438 C 28.641138 26.846746 28 25.908102 28 25 C 28 24.091898 28.641138 23.153254 30.183594 22.351562 C 31.726049 21.549871 34.084723 21 37 21 z M 4 28.617188 C 4.3800741 28.913955 4.8013374 29.18556 5.2597656 29.423828 C 7.19831 30.431387 9.8392767 31 13 31 C 16.160723 31 18.80169 30.431387 20.740234 29.423828 C 21.198663 29.18556 21.619926 28.913954 22 28.617188 L 22 31 C 22 31.908102 21.358862 32.846746 19.816406 33.648438 C 18.273951 34.450128 15.915277 35 13 35 C 10.084723 35 7.7260492 34.450128 6.1835938 33.648438 C 4.6411381 32.846746 4 31.908102 4 31 L 4 28.617188 z M 28 28.617188 C 28.380074 28.913955 28.801337 29.18556 29.259766 29.423828 C 31.19831 30.431387 33.839277 31 37 31 C 40.160723 31 42.80169 30.431387 44.740234 29.423828 C 45.198663 29.18556 45.619926 28.913955 46 28.617188 L 46 31 C 46 31.908102 45.358862 32.846746 43.816406 33.648438 C 42.273951 34.450128 39.915277 35 37 35 C 34.084723 35 31.726049 34.450128 30.183594 33.648438 C 28.641138 32.846746 28 31.908102 28 31 L 28 28.617188 z M 4 34.617188 C 4.3800741 34.913955 4.8013374 35.18556 5.2597656 35.423828 C 7.19831 36.431387 9.8392767 37 13 37 C 16.160723 37 18.80169 36.431387 20.740234 35.423828 C 21.198663 35.18556 21.619926 34.913955 22 34.617188 L 22 37 C 22 37.908102 21.358862 38.846746 19.816406 39.648438 C 18.273951 40.450128 15.915277 41 13 41 C 10.084723 41 7.7260492 40.450128 6.1835938 39.648438 C 4.6411381 38.846746 4 37.908102 4 37 L 4 34.617188 z M 28 34.617188 C 28.380074 34.913955 28.801337 35.18556 29.259766 35.423828 C 31.19831 36.431387 33.839277 37 37 37 C 40.160723 37 42.80169 36.431387 44.740234 35.423828 C 45.198663 35.18556 45.619926 34.913955 46 34.617188 L 46 37 C 46 37.908102 45.358862 38.846746 43.816406 39.648438 C 42.273951 40.450128 39.915277 41 37 41 C 34.084723 41 31.726049 40.450128 30.183594 39.648438 C 28.641138 38.846746 28 37.908102 28 37 L 28 34.617188 z M 4 40.617188 C 4.3800741 40.913955 4.8013374 41.18556 5.2597656 41.423828 C 7.19831 42.431387 9.8392767 43 13 43 C 16.160723 43 18.80169 42.431387 20.740234 41.423828 C 21.198663 41.18556 21.619926 40.913955 22 40.617188 L 22 43 C 22 43.908102 21.358862 44.846746 19.816406 45.648438 C 18.273951 46.450128 15.915277 47 13 47 C 10.084723 47 7.7260492 46.450128 6.1835938 45.648438 C 4.6411381 44.846746 4 43.908102 4 43 L 4 40.617188 z M 28 40.617188 C 28.380074 40.913955 28.801337 41.18556 29.259766 41.423828 C 31.19831 42.431387 33.839277 43 37 43 C 40.160723 43 42.80169 42.431387 44.740234 41.423828 C 45.198663 41.18556 45.619926 40.913955 46 40.617188 L 46 43 C 46 43.908102 45.358862 44.846746 43.816406 45.648438 C 42.273951 46.450128 39.915277 47 37 47 C 34.084723 47 31.726049 46.450128 30.183594 45.648438 C 28.641138 44.846746 28 43.908102 28 43 L 28 40.617188 z"/></svg>