<svg width="100" height="100" xmlns="http://www.w3.org/2000/svg" x="0px" y="0px" viewBox="0 0 50 50"> 
<title>brain-circuit</title>
<path d="M 21.361328 2 C 15.910037 2 12.406777 4.5176078 11.3125 7.2207031 C 7.0190251 8.1336471 4 12.830736 4 17.998047 C 4 20.125094 4.6170839 22.254614 5.6855469 24.619141 C 4.812798 25.686864 4 27.025818 4 29 C 4 31.587442 5.6942188 34.080318 8.7128906 35.46875 C 7.7648385 37.674615 7.9680895 39.802405 9.0976562 41.316406 C 10.270907 42.888959 12.242428 43.70724 14.359375 43.869141 C 15.001123 45.554728 16.156995 46.72575 17.4375 47.283203 C 18.89587 47.918088 20.387983 48 21.361328 48 C 22.849439 48 24.154149 47.29862 25.001953 46.210938 C 25.84923 47.292273 27.150052 47.98929 28.630859 48 L 28.632812 48 C 29.552976 48.0066 31.039086 47.92271 32.509766 47.289062 C 33.778905 46.742249 34.932787 45.591033 35.59375 43.949219 C 37.192396 43.897599 38.846287 43.660818 40.248047 42.871094 C 41.822976 41.983783 43 40.304167 43 38 C 43 37.099066 42.67523 36.267515 42.291016 35.431641 C 43.575156 34.793253 44.586978 33.976036 45.140625 32.966797 C 45.838517 31.694613 46 30.300027 46 29 C 46 27.006703 45.058604 25.807683 44.144531 24.828125 C 45.228964 22.463917 46.03534 20.178728 46 17.982422 C 45.90703 12.148042 41.975141 8.0523602 37.710938 7.2050781 C 36.760699 4.7071935 34.058614 2 28.638672 2 C 27.274588 2 25.949224 2.3504312 25.113281 3.4277344 C 25.072057 3.4808609 25.038541 3.5404279 25 3.5957031 C 24.961459 3.5404279 24.927943 3.4808609 24.886719 3.4277344 C 24.050776 2.3504312 22.725412 2 21.361328 2 z M 21.361328 4 C 22.440244 4 22.933834 4.171897 23.306641 4.6523438 C 23.679448 5.1327904 24 6.2113199 24 8.1855469 L 24 13.832031 A 1.0001 1.0001 0 0 0 24 14.158203 L 24 18 L 21 18 L 21 13 L 16.8125 13 C 16.395141 11.84267 15.293159 11 14 11 C 12.35499 11 11 12.35499 11 14 C 11 15.64501 12.35499 17 14 17 C 15.293159 17 16.395141 16.15733 16.8125 15 L 19 15 L 19 20 L 24 20 L 24 28 L 17 28 L 17 34.1875 C 15.84267 34.604859 15 35.706841 15 37 C 15 38.64501 16.35499 40 18 40 C 19.64501 40 21 38.64501 21 37 C 21 35.706841 20.15733 34.604859 19 34.1875 L 19 30 L 24 30 L 24 36.832031 A 1.0001 1.0001 0 0 0 24 37.158203 L 24 43.332031 C 24 44.968513 22.94031 46 21.361328 46 C 20.518673 46 19.279458 45.90333 18.236328 45.449219 C 17.193198 44.995104 16.34717 44.284037 15.970703 42.759766 L 15.783203 42 L 15 42 C 13.166111 42 11.533635 41.236876 10.701172 40.121094 C 9.8687081 39.005311 9.6483493 37.54697 10.859375 35.511719 L 11.492188 34.447266 L 10.318359 34.052734 C 7.2666238 33.02704 6 30.97598 6 29 C 6 27.280333 6.6382905 26.412961 7.5410156 25.425781 L 7.9296875 25 L 11.1875 25 C 11.604859 26.15733 12.706841 27 14 27 C 15.64501 27 17 25.64501 17 24 C 17 22.35499 15.64501 21 14 21 C 12.706841 21 11.604859 21.84267 11.1875 23 L 7.1328125 23 C 6.3748298 21.153485 6 19.561273 6 17.998047 C 6 13.408195 8.8754552 9.390876 12.121094 8.9921875 L 12.78125 8.9121094 L 12.960938 8.2734375 C 13.408632 6.6991014 16.239179 4 21.361328 4 z M 28.638672 4 C 33.760821 4 35.514782 6.432686 36.039062 8.2734375 L 36.220703 8.9121094 L 36.878906 8.9921875 C 40.250669 9.406369 43.917363 12.82972 44 18.015625 C 44.02961 19.85582 43.276815 22.099648 42.097656 24.568359 L 41.794922 25.203125 L 42.287109 25.701172 C 43.329556 26.758712 44 27.321333 44 29 C 44 30.126973 43.846327 31.16609 43.386719 32.003906 C 43.093896 32.537692 42.651473 33.008772 42 33.416016 L 42 29 L 33 29 L 33 25.8125 C 34.15733 25.395141 35 24.293159 35 23 C 35 21.35499 33.64501 20 32 20 C 30.35499 20 29 21.35499 29 23 C 29 24.293159 29.84267 25.395141 31 25.8125 L 31 31 L 40 31 L 40 34.857422 A 1.0001 1.0001 0 0 0 40.128906 35.517578 A 1.0001 1.0001 0 0 0 40.130859 35.519531 C 40.649099 36.577424 41 37.47455 41 38 C 41 39.695833 40.353149 40.516217 39.265625 41.128906 C 38.178101 41.741596 36.575498 42 35 42 L 34.216797 42 L 34.029297 42.759766 C 33.655498 44.273237 32.78257 44.994774 31.71875 45.453125 C 30.65493 45.911476 29.41032 46.005443 28.646484 46 C 27.059004 45.988519 26 44.968513 26 43.332031 L 26 38 L 30.1875 38 C 30.604859 39.15733 31.706841 40 33 40 C 34.64501 40 36 38.64501 36 37 C 36 35.35499 34.64501 34 33 34 C 31.706841 34 30.604859 34.84267 30.1875 36 L 26 36 L 26 29.167969 A 1.0001 1.0001 0 0 0 26 28.841797 L 26 19.167969 A 1.0001 1.0001 0 0 0 26 18.841797 L 26 15 L 34.1875 15 C 34.604859 16.15733 35.706841 17 37 17 C 38.64501 17 40 15.64501 40 14 C 40 12.35499 38.64501 11 37 11 C 35.706841 11 34.604859 11.84267 34.1875 13 L 26 13 L 26 8.1855469 C 26 6.2113199 26.320552 5.1327905 26.693359 4.6523438 C 27.066166 4.171897 27.559756 4 28.638672 4 z M 14 13 C 14.54383 13 14.958426 13.408812 14.988281 13.943359 A 1.0001 1.0001 0 0 0 14.988281 14.058594 C 14.957487 14.592159 14.543157 15 14 15 C 13.435871 15 13 14.564129 13 14 C 13 13.435871 13.435871 13 14 13 z M 37 13 C 37.564129 13 38 13.435871 38 14 C 38 14.564129 37.564129 15 37 15 C 36.45617 15 36.041574 14.591188 36.011719 14.056641 A 1.0001 1.0001 0 0 0 36.011719 13.941406 C 36.042513 13.407841 36.456843 13 37 13 z M 32 22 C 32.564129 22 33 22.435871 33 23 C 33 23.54383 32.591188 23.958426 32.056641 23.988281 A 1.0001 1.0001 0 0 0 31.984375 23.986328 A 1.0001 1.0001 0 0 0 31.941406 23.988281 C 31.407841 23.957487 31 23.543157 31 23 C 31 22.435871 31.435871 22 32 22 z M 14 23 C 14.564129 23 15 23.435871 15 24 C 15 24.564129 14.564129 25 14 25 C 13.45617 25 13.041574 24.591188 13.011719 24.056641 A 1.0001 1.0001 0 0 0 13.011719 23.941406 C 13.042513 23.407841 13.456843 23 14 23 z M 33 36 C 33.564129 36 34 36.435871 34 37 C 34 37.564129 33.564129 38 33 38 C 32.45617 38 32.041574 37.591188 32.011719 37.056641 A 1.0001 1.0001 0 0 0 32.011719 36.941406 C 32.042513 36.407841 32.456843 36 33 36 z M 17.943359 36.011719 A 1.0001 1.0001 0 0 0 18.058594 36.011719 C 18.592159 36.042513 19 36.456843 19 37 C 19 37.564129 18.564129 38 18 38 C 17.435871 38 17 37.564129 17 37 C 17 36.45617 17.408812 36.041574 17.943359 36.011719 z"></path></svg>