<svg width="100" height="100" xmlns="http://www.w3.org/2000/svg" x="0px" y="0px" viewBox="0 0 50 50">
<title>case-study</title>
<path d="M 17 2 C 15.707031 2 14.605469 2.84375 14.1875 4 L 5 4 C 3.355469 4 2 5.355469 2 7 L 2 43 C 2 44.644531 3.355469 46 5 46 L 14.1875 46 C 14.605469 47.15625 15.707031 48 17 48 L 33 48 C 34.292969 48 35.394531 47.15625 35.8125 46 L 45 46 C 46.644531 46 48 44.644531 48 43 L 48 7 C 48 5.355469 46.644531 4 45 4 L 35.8125 4 C 35.394531 2.84375 34.292969 2 33 2 Z M 17 4 L 33 4 C 33.566406 4 34 4.433594 34 5 L 34 45 C 34 45.566406 33.566406 46 33 46 L 17 46 C 16.433594 46 16 45.566406 16 45 L 16 5 C 16 4.433594 16.433594 4 17 4 Z M 5 6 L 14 6 L 14 12 L 7 12 L 7 14 L 14 14 L 14 16 L 7 16 L 7 18 L 14 18 L 14 26 L 12 26 L 12 28 L 14 28 L 14 30 L 12 30 L 12 32 L 14 32 L 14 44 L 5 44 C 4.433594 44 4 43.566406 4 43 L 4 7 C 4 6.433594 4.433594 6 5 6 Z M 36 6 L 45 6 C 45.566406 6 46 6.433594 46 7 L 46 43 C 46 43.566406 45.566406 44 45 44 L 36 44 L 36 36 L 43 36 L 43 34 L 36 34 L 36 32 L 43 32 L 43 30 L 36 30 L 36 28 L 43 28 L 43 26 L 36 26 L 36 18 L 43 18 L 43 16 L 36 16 L 36 14 L 43 14 L 43 12 L 36 12 Z M 19 10 L 19 12 L 31 12 L 31 10 Z M 19 14 L 19 16 L 31 16 L 31 14 Z M 9 26 C 8.449219 26 8 26.449219 8 27 C 8 27.550781 8.449219 28 9 28 C 9.550781 28 10 27.550781 10 27 C 10 26.449219 9.550781 26 9 26 Z M 20 26 C 19.449219 26 19 26.449219 19 27 C 19 27.550781 19.449219 28 20 28 C 20.550781 28 21 27.550781 21 27 C 21 26.449219 20.550781 26 20 26 Z M 23 26 L 23 28 L 31 28 L 31 26 Z M 9 30 C 8.449219 30 8 30.449219 8 31 C 8 31.550781 8.449219 32 9 32 C 9.550781 32 10 31.550781 10 31 C 10 30.449219 9.550781 30 9 30 Z M 20 30 C 19.449219 30 19 30.449219 19 31 C 19 31.550781 19.449219 32 20 32 C 20.550781 32 21 31.550781 21 31 C 21 30.449219 20.550781 30 20 30 Z M 23 30 L 23 32 L 31 32 L 31 30 Z M 20 34 C 19.449219 34 19 34.449219 19 35 C 19 35.550781 19.449219 36 20 36 C 20.550781 36 21 35.550781 21 35 C 21 34.449219 20.550781 34 20 34 Z M 23 34 L 23 36 L 31 36 L 31 34 Z M 20 38 C 19.449219 38 19 38.449219 19 39 C 19 39.550781 19.449219 40 20 40 C 20.550781 40 21 39.550781 21 39 C 21 38.449219 20.550781 38 20 38 Z M 23 38 L 23 40 L 31 40 L 31 38 Z"></path></svg>