<svg width="100" height="100" xmlns="http://www.w3.org/2000/svg" x="0px" y="0px" viewBox="0 0 50 50">
<title>change</title>
<path d="M 36 0.585938 L 23.585938 13 L 31 13 L 31 16 L 16 16 C 12.144531 16 9 19.144531 9 23 L 9 37 L 1.585938 37 L 14 49.414063 L 26.414063 37 L 19 37 L 19 34 L 34 34 C 37.855469 34 41 30.855469 41 27 L 41 13 L 48.414063 13 Z M 36 3.414063 L 43.585938 11 L 39 11 L 39 27 C 39 29.773438 36.773438 32 34 32 L 19 32 L 19 26 L 33 26 L 33 11 L 28.414063 11 Z M 16 18 L 31 18 L 31 24 L 17 24 L 17 39 L 21.585938 39 L 14 46.585938 L 6.414063 39 L 11 39 L 11 23 C 11 20.226563 13.226563 18 16 18 Z"></path></svg>