<svg width="100" height="100" xmlns="http://www.w3.org/2000/svg" x="0px" y="0px" viewBox="0 0 50 50">
<title>cloud-private</title>
<path d="M 28.992188 9 C 23.810763 9 19.615553 11.897891 17.53125 16.257812 C 16.385683 15.502053 15.081248 15 13.640625 15 C 9.9389475 15 7.280744 17.979203 7.0664062 21.564453 C 5.3307704 22.147681 3.6536312 23.049581 2.3730469 24.513672 C 0.92455934 26.169727 -2.9605947e-16 28.456049 0 31.330078 C 0 36.658457 4.340656 41 9.6699219 41 L 14 41 L 14 39 L 9.6699219 39 C 5.4211878 39 2 35.577699 2 31.330078 C 2 28.873107 2.7436438 27.128023 3.8789062 25.830078 C 5.0141688 24.532133 6.5808774 23.680505 8.265625 23.214844 L 9.0273438 23.003906 L 9 22.214844 C 8.9949995 22.074829 8.9863281 22.006569 8.9863281 22 C 8.9863281 19.151158 10.860341 17 13.640625 17 C 15.072914 17 16.299809 17.47787 17.183594 18.363281 L 18.287109 19.46875 L 18.830078 18.003906 C 20.410567 13.732713 24.14873 11 28.992188 11 C 35.177681 11 40 15.81618 40 22 C 40 22.455098 39.962077 22.912902 39.904297 23.380859 L 39.765625 24.503906 L 40.896484 24.503906 C 41.016484 24.503906 41.035082 24.501953 40.955078 24.501953 C 44.67342 24.502 48 28.297785 48 32.099609 C 48 35.923279 44.92245 39 41.097656 39 L 36 39 L 36 41 L 41.097656 41 C 46.002862 41 50 37.003939 50 32.099609 C 50 27.520619 46.465382 23.322181 41.949219 22.730469 C 41.965323 22.486057 42 22.253648 42 22 C 42 14.76382 36.228693 9 28.992188 9 z M 25 28 C 21.7 28 19 30.799219 19 34.199219 L 19 36 L 17.900391 36 C 16.800391 36 16 36.900391 16 37.900391 L 16 48 C 16 49.1 16.800391 50 17.900391 50 L 32.099609 50 C 33.099609 50 34 49.099609 34 48.099609 L 34 37.900391 C 34 36.900391 33.199609 36 32.099609 36 L 31 36 L 31 34.199219 C 31 30.799219 28.3 28 25 28 z M 25 30 C 27.2 30 29 31.899219 29 34.199219 L 29 36 L 21 36 L 21 34.199219 C 21 31.899219 22.8 30 25 30 z M 18 38 L 32 38 L 32 48 L 18 48 L 18 38 z M 25 41 C 24.2 41 23.599609 41.600391 23.599609 42.400391 C 23.599609 42.800391 23.799609 43.100391 24.099609 43.400391 L 24.099609 44.699219 C 24.099609 45.199219 24.5 45.599609 25 45.599609 C 25.5 45.599609 25.900391 45.199219 25.900391 44.699219 L 25.900391 43.400391 C 26.200391 43.100391 26.400391 42.800391 26.400391 42.400391 C 26.400391 41.600391 25.8 41 25 41 z"></path></svg>