<svg width="100" height="100" xmlns="http://www.w3.org/2000/svg" x="0px" y="0px" viewBox="0 0 50 50">
<title>cloud-public</title>
<path d="M 28.992188 9 C 23.926188 9 19.629328 11.6735 17.486328 16.0625 C 16.386328 15.3715 15.062625 15 13.640625 15 C 10.003625 15 7.2249531 17.765719 7.0019531 21.511719 C 2.5409531 23.020719 -5.9211895e-16 26.561078 0 31.330078 C 0 36.662078 4.3379219 41 9.6699219 41 L 18.396484 41 L 19.537109 39.289062 C 19.543109 39.280062 19.626953 39.165 19.751953 39 L 9.6699219 39 C 5.4409219 39 2 35.559078 2 31.330078 C 2 25.775078 5.9265781 23.861844 8.2675781 23.214844 L 9.0273438 23.005859 L 8.9863281 22 C 8.9863281 19.149 10.987625 17 13.640625 17 C 15.048625 17 16.307594 17.483328 17.183594 18.361328 L 18.287109 19.466797 L 18.830078 18.001953 C 20.428078 13.682953 24.322187 11 28.992188 11 C 35.164187 11 40 15.832 40 22 C 40 22.415 39.970297 22.853859 39.904297 23.380859 L 39.822266 24.501953 L 40.953125 24.501953 C 44.640125 24.501953 47.998047 28.123609 47.998047 32.099609 C 47.998047 33.349609 47.660172 34.51925 47.076172 35.53125 C 47.622172 36.03925 48.10725 36.531375 48.53125 36.984375 C 49.45725 35.580375 50 33.903609 50 32.099609 C 50 27.370609 46.384375 23.179125 41.984375 22.578125 C 41.994375 22.380125 42 22.188 42 22 C 42 14.71 36.286187 9 28.992188 9 z M 35 32 C 27.4 32 21.399219 40.100391 21.199219 40.400391 L 20.800781 41 L 21.199219 41.599609 C 21.399219 41.899609 27.4 50 35 50 C 42.6 50 48.600781 41.899609 48.800781 41.599609 L 49.199219 41 L 48.800781 40.400391 C 48.600781 40.100391 42.6 32 35 32 z M 35 34 C 40.5 34 45.299219 39.2 46.699219 41 C 45.299219 42.8 40.5 48 35 48 C 29.5 48 24.800781 42.8 23.300781 41 C 24.700781 39.2 29.5 34 35 34 z M 35 35 C 31.7 35 29 37.7 29 41 C 29 44.3 31.7 47 35 47 C 38.3 47 41 44.3 41 41 C 41 37.7 38.3 35 35 35 z M 35 37 C 37.2 37 39 38.8 39 41 C 39 43.2 37.2 45 35 45 C 32.8 45 31 43.2 31 41 C 31 38.8 32.8 37 35 37 z M 35 39 C 33.9 39 33 39.9 33 41 C 33 42.1 33.9 43 35 43 C 36.1 43 37 42.1 37 41 C 37 39.9 36.1 39 35 39 z"></path></svg>