<svg width="100" height="100" xmlns="http://www.w3.org/2000/svg" x="0px" y="0px" viewBox="0 0 50 50">
<title>code-writing</title>
<path d="M 8 8 C 5.757 8 4 9.757 4 12 L 4 34 C 4 34.738 4.2050625 35.413 4.5390625 36 L 2 36 C 1.447 36 1 36.447 1 37 C 1 39.757 3.243 42 6 42 L 44 42 C 46.757 42 49 39.757 49 37 C 49 36.447 48.553 36 48 36 L 45.460938 36 C 45.794938 35.413 46 34.738 46 34 L 46 12 C 46 9.757 44.243 8 42 8 L 8 8 z M 8 10 L 42 10 C 43.141 10 44 10.859 44 12 L 44 34 C 44 35.141 43.141 36 42 36 L 8 36 C 6.859 36 6 35.141 6 34 L 6 12 C 6 10.859 6.859 10 8 10 z M 26.498047 14.986328 A 1.0001 1.0001 0 0 0 25.521484 15.791016 L 22.521484 29.791016 A 1.0005838 1.0005838 0 1 0 24.478516 30.208984 L 27.478516 16.208984 A 1.0001 1.0001 0 0 0 26.498047 14.986328 z M 18.037109 17.988281 A 1.0001 1.0001 0 0 0 17.199219 18.400391 L 13.75 23 L 17.199219 27.599609 A 1.0003905 1.0003905 0 1 0 18.800781 26.400391 L 16.25 23 L 18.800781 19.599609 A 1.0001 1.0001 0 0 0 18.037109 17.988281 z M 31.933594 17.990234 A 1.0001 1.0001 0 0 0 31.199219 19.599609 L 33.75 23 L 31.199219 26.400391 A 1.0003905 1.0003905 0 1 0 32.800781 27.599609 L 36.25 23 L 32.800781 18.400391 A 1.0001 1.0001 0 0 0 31.933594 17.990234 z M 3.171875 38 L 8 38 L 42 38 L 46.828125 38 C 46.415125 39.164 45.304 40 44 40 L 6 40 C 4.696 40 3.584875 39.164 3.171875 38 z"></path></svg>