<svg width="100" height="100" xmlns="http://www.w3.org/2000/svg" x="0px" y="0px" viewBox="0 0 50 50">
<title>coffee</title>
<path d="M 25.90625 0.96875 C 25.863281 0.976563 25.820313 0.988281 25.78125 1 C 25.316406 1.105469 24.988281 1.523438 25 2 C 25 5.054688 23.835938 5.976563 22.34375 7.3125 C 20.851563 8.648438 19.03125 10.410156 19.03125 14 C 19.027344 14.359375 19.214844 14.695313 19.527344 14.878906 C 19.839844 15.058594 20.222656 15.058594 20.535156 14.878906 C 20.847656 14.695313 21.035156 14.359375 21.03125 14 C 21.03125 11.015625 22.1875 10.125 23.6875 8.78125 C 25.1875 7.4375 27 5.648438 27 2 C 27.011719 1.710938 26.894531 1.433594 26.6875 1.238281 C 26.476563 1.039063 26.191406 0.941406 25.90625 0.96875 Z M 30.90625 5.96875 C 30.863281 5.976563 30.820313 5.988281 30.78125 6 C 30.316406 6.105469 29.988281 6.523438 30 7 C 30 8.953125 29.339844 9.425781 28.34375 10.3125 C 27.347656 11.199219 26 12.511719 26 15 C 25.996094 15.359375 26.183594 15.695313 26.496094 15.878906 C 26.808594 16.058594 27.191406 16.058594 27.503906 15.878906 C 27.816406 15.695313 28.003906 15.359375 28 15 C 28 13.125 28.648438 12.707031 29.65625 11.8125 C 30.664063 10.917969 32 9.546875 32 7 C 32.011719 6.710938 31.894531 6.433594 31.6875 6.238281 C 31.476563 6.039063 31.191406 5.941406 30.90625 5.96875 Z M 10.8125 18 C 10.335938 18.089844 9.992188 18.511719 10 19 L 10 47 C 10 48.644531 11.355469 50 13 50 L 34 50 C 35.644531 50 37 48.644531 37 47 L 37 40.96875 C 39.894531 40.78125 42.023438 39.269531 43.25 37.25 C 44.5625 35.089844 45 32.421875 45 30 C 45 28.703125 44.695313 27.453125 43.84375 26.5 C 42.992188 25.546875 41.644531 25 40 25 L 37 25 L 37 19 C 37 18.449219 36.550781 18 36 18 L 11 18 C 10.96875 18 10.9375 18 10.90625 18 C 10.875 18 10.84375 18 10.8125 18 Z M 12 20 L 35 20 L 35 47 C 35 47.566406 34.566406 48 34 48 L 13 48 C 12.433594 48 12 47.566406 12 47 Z M 37 27 L 40 27 C 41.242188 27 41.917969 27.332031 42.34375 27.8125 C 42.769531 28.292969 43 29.03125 43 30 C 43 32.160156 42.5625 34.492188 41.53125 36.1875 C 40.585938 37.746094 39.214844 38.804688 37 38.96875 Z"/></svg>