<svg width="100" height="100" xmlns="http://www.w3.org/2000/svg" x="0px" y="0px" viewBox="0 0 50 50">
<title>conflict</title><path d="M 41.1875 2.40625 L 30.1875 17.40625 L 31.8125 18.59375 L 42.8125 3.59375 Z M 20.9375 5.6875 L 19.0625 6.3125 L 21.0625 12.3125 L 22.9375 11.6875 Z M 10.75 6.34375 L 9.25 7.65625 L 18.25 17.65625 L 19.75 16.34375 Z M 28 8 L 19 27 L 24 27 L 22 42 L 31 24 L 26 24 Z M 7 17 L 7 21 L 1 21 L 1 29 L 7 29 L 7 33 L 9.40625 33 L 9.71875 32.71875 L 16.71875 25.71875 L 17.40625 25 L 16.71875 24.28125 L 9.71875 17.28125 L 9.40625 17 Z M 40.59375 17 L 40.28125 17.28125 L 33.28125 24.28125 L 32.59375 25 L 33.28125 25.71875 L 40.28125 32.71875 L 40.59375 33 L 43 33 L 43 29 L 49 29 L 49 21 L 43 21 L 43 17 Z M 9 19.4375 L 14.5625 25 L 9 30.5625 L 9 27 L 3 27 L 3 23 L 9 23 Z M 41 19.4375 L 41 23 L 47 23 L 47 27 L 41 27 L 41 30.5625 L 35.4375 25 Z M 17.4375 32.75 L 7.1875 46.40625 L 8.8125 47.59375 L 19.03125 33.9375 Z M 29.875 34.5 L 28.125 35.5 L 35.125 47.5 L 36.875 46.5 Z M 39.625 37.21875 L 38.375 38.78125 L 44.375 43.78125 L 45.625 42.21875 Z"/></svg>
