<svg width="100" height="100" xmlns="http://www.w3.org/2000/svg" x="0px" y="0px" viewBox="0 0 50 50">
<title>connect</title>
<path d="M 12.378906 13.089844 C 12.121094 13.097656 11.875 13.207031 11.691406 13.390625 L 0.0859375 25 L 11.691406 36.609375 C 11.945313 36.867188 12.316406 36.972656 12.667969 36.882813 C 13.015625 36.792969 13.292969 36.515625 13.382813 36.167969 C 13.472656 35.816406 13.367188 35.445313 13.109375 35.191406 L 2.914063 25 L 13.109375 14.808594 C 13.402344 14.519531 13.492188 14.078125 13.332031 13.699219 C 13.171875 13.320313 12.792969 13.078125 12.378906 13.089844 Z M 37.589844 13.089844 C 37.183594 13.089844 36.816406 13.335938 36.664063 13.714844 C 36.511719 14.089844 36.601563 14.523438 36.890625 14.808594 L 47.085938 25 L 36.890625 35.191406 C 36.632813 35.445313 36.527344 35.816406 36.617188 36.167969 C 36.707031 36.515625 36.984375 36.792969 37.332031 36.882813 C 37.683594 36.972656 38.054688 36.867188 38.308594 36.609375 L 49.914063 25 L 38.308594 13.390625 C 38.117188 13.199219 37.859375 13.089844 37.589844 13.089844 Z M 15 23 C 13.894531 23 13 23.894531 13 25 C 13 26.105469 13.894531 27 15 27 C 16.105469 27 17 26.105469 17 25 C 17 23.894531 16.105469 23 15 23 Z M 25 23 C 23.894531 23 23 23.894531 23 25 C 23 26.105469 23.894531 27 25 27 C 26.105469 27 27 26.105469 27 25 C 27 23.894531 26.105469 23 25 23 Z M 35 23 C 33.894531 23 33 23.894531 33 25 C 33 26.105469 33.894531 27 35 27 C 36.105469 27 37 26.105469 37 25 C 37 23.894531 36.105469 23 35 23 Z"></path></svg>