<svg width="100" height="100" xmlns="http://www.w3.org/2000/svg" x="0px" y="0px" viewBox="0 0 50 50">
<title>console</title>
<path d="M 2.84375 3 C 1.285156 3 0 4.285156 0 5.84375 L 0 10.8125 C -0.00390625 10.855469 -0.00390625 10.894531 0 10.9375 L 0 46 C 0 46.550781 0.449219 47 1 47 L 49 47 C 49.550781 47 50 46.550781 50 46 L 50 11 C 50 10.96875 50 10.9375 50 10.90625 L 50 5.84375 C 50 4.285156 48.714844 3 47.15625 3 Z M 2.84375 5 L 47.15625 5 C 47.636719 5 48 5.363281 48 5.84375 L 48 10 L 2 10 L 2 5.84375 C 2 5.363281 2.363281 5 2.84375 5 Z M 2 12 L 48 12 L 48 45 L 2 45 Z M 14.90625 19.9375 C 14.527344 19.996094 14.214844 20.265625 14.101563 20.628906 C 13.988281 20.996094 14.09375 21.394531 14.375 21.65625 L 19.59375 27.03125 L 14.21875 32.25 C 13.820313 32.636719 13.816406 33.273438 14.203125 33.671875 C 14.589844 34.070313 15.226563 34.074219 15.625 33.6875 L 21.6875 27.75 L 22.40625 27.0625 L 21.71875 26.34375 L 15.78125 20.25 C 15.601563 20.058594 15.355469 19.949219 15.09375 19.9375 C 15.03125 19.929688 14.96875 19.929688 14.90625 19.9375 Z M 22.8125 32 C 22.261719 32.050781 21.855469 32.542969 21.90625 33.09375 C 21.957031 33.644531 22.449219 34.050781 23 34 L 36 34 C 36.359375 34.003906 36.695313 33.816406 36.878906 33.503906 C 37.058594 33.191406 37.058594 32.808594 36.878906 32.496094 C 36.695313 32.183594 36.359375 31.996094 36 32 L 23 32 C 22.96875 32 22.9375 32 22.90625 32 C 22.875 32 22.84375 32 22.8125 32 Z"></path></svg>