<svg width="100" height="100" xmlns="http://www.w3.org/2000/svg" x="0px" y="0px" viewBox="0 0 64 64">
<title>container</title>
<path d="M 31.986328 5.0195312 A 1.0001 1.0001 0 0 0 31.623047 5.0917969 L 5.6230469 15.644531 A 1.0001 1.0001 0 0 0 5.6015625 15.654297 A 1.0001 1.0001 0 0 0 5.578125 15.666016 A 1.0001 1.0001 0 0 0 5.5234375 15.693359 A 1.0001 1.0001 0 0 0 5.4726562 15.724609 A 1.0001 1.0001 0 0 0 5.4375 15.746094 A 1.0001 1.0001 0 0 0 5.4101562 15.763672 A 1.0001 1.0001 0 0 0 5.2734375 15.884766 A 1.0001 1.0001 0 0 0 5.2089844 15.960938 A 1.0001 1.0001 0 0 0 5.1601562 16.029297 A 1.0001 1.0001 0 0 0 5.1347656 16.074219 A 1.0001 1.0001 0 0 0 5.1035156 16.130859 A 1.0001 1.0001 0 0 0 5.0625 16.222656 A 1.0001 1.0001 0 0 0 5.0625 16.224609 A 1.0001 1.0001 0 0 0 5.0332031 16.318359 A 1.0001 1.0001 0 0 0 5.0117188 16.416016 A 1.0001 1.0001 0 0 0 5 16.611328 L 5 48.445312 A 1.0001 1.0001 0 0 0 5.6230469 49.373047 L 31.623047 59.925781 A 1.0001 1.0001 0 0 0 31.638672 59.931641 A 1.0001 1.0001 0 0 0 31.642578 59.933594 A 1.0001 1.0001 0 0 0 32.509766 59.871094 L 58.376953 49.373047 A 1.0001 1.0001 0 0 0 59 48.445312 L 59 16.630859 A 1.0004869 1.0004869 0 0 0 59 16.572266 A 1.0004869 1.0004869 0 0 0 58.998047 16.503906 A 1.0001 1.0001 0 0 0 58.990234 16.441406 A 1.0001 1.0001 0 0 0 58.990234 16.431641 A 1.0004869 1.0004869 0 0 0 58.988281 16.417969 A 1.0001 1.0001 0 0 0 58.974609 16.347656 A 1.0001 1.0001 0 0 0 58.970703 16.332031 A 1.0004869 1.0004869 0 0 0 58.955078 16.277344 A 1.0004869 1.0004869 0 0 0 58.925781 16.197266 A 1.0004869 1.0004869 0 0 0 58.921875 16.183594 A 1.0001 1.0001 0 0 0 58.904297 16.144531 A 1.0004869 1.0004869 0 0 0 58.898438 16.132812 A 1.0001 1.0001 0 0 0 58.861328 16.0625 A 1.0001 1.0001 0 0 0 58.857422 16.056641 A 1.0004869 1.0004869 0 0 0 58.851562 16.046875 A 1.0001 1.0001 0 0 0 58.800781 15.974609 A 1.0001 1.0001 0 0 0 58.748047 15.908203 A 1.0001 1.0001 0 0 0 58.738281 15.896484 A 1.0004869 1.0004869 0 0 0 58.724609 15.882812 A 1.0001 1.0001 0 0 0 58.667969 15.828125 A 1.0001 1.0001 0 0 0 58.666016 15.826172 A 1.0004869 1.0004869 0 0 0 58.662109 15.824219 A 1.0001 1.0001 0 0 0 58.591797 15.765625 A 1.0001 1.0001 0 0 0 58.587891 15.763672 A 1.0004869 1.0004869 0 0 0 58.583984 15.761719 A 1.0001 1.0001 0 0 0 58.503906 15.708984 A 1.0001 1.0001 0 0 0 58.332031 15.628906 L 32.376953 5.0917969 A 1.0001 1.0001 0 0 0 31.986328 5.0195312 z M 32 7.0976562 L 55.337891 16.572266 L 32 26.046875 L 8.6621094 16.572266 L 32 7.0976562 z M 7 18.056641 L 12.515625 20.296875 L 31 27.798828 L 31 33 A 1.0001 1.0001 0 1 0 33 33 L 33 27.798828 L 57 18.056641 L 57 47.773438 L 33 57.515625 L 33 46 A 1.0001 1.0001 0 1 0 31 46 L 31 57.515625 L 7 47.773438 L 7 18.056641 z M 31.984375 35.986328 A 1.0001 1.0001 0 0 0 31 37 L 31 41 A 1.0001 1.0001 0 1 0 33 41 L 33 37 A 1.0001 1.0001 0 0 0 31.984375 35.986328 z M 53 42.5 C 52.447 42.5 52 42.947 52 43.5 L 52 45.5 C 52 46.053 52.447 46.5 53 46.5 C 53.553 46.5 54 46.053 54 45.5 L 54 43.5 C 54 42.947 53.553 42.5 53 42.5 z M 48 44.5 C 47.447 44.5 47 44.947 47 45.5 L 47 47.5 C 47 48.053 47.447 48.5 48 48.5 C 48.553 48.5 49 48.053 49 47.5 L 49 45.5 C 49 44.947 48.553 44.5 48 44.5 z M 43 46.5 C 42.447 46.5 42 46.947 42 47.5 L 42 49.5 C 42 50.053 42.447 50.5 43 50.5 C 43.553 50.5 44 50.053 44 49.5 L 44 47.5 C 44 46.947 43.553 46.5 43 46.5 z M 38 48.5 C 37.447 48.5 37 48.947 37 49.5 L 37 51.5 C 37 52.053 37.447 52.5 38 52.5 C 38.553 52.5 39 52.053 39 51.5 L 39 49.5 C 39 48.947 38.553 48.5 38 48.5 z"></path></svg>