<svg width="100" height="100" xmlns="http://www.w3.org/2000/svg" x="0px" y="0px" viewBox="0 0 50 50">
<title>convert</title>
<path d="M 5 4 A 1.0001 1.0001 0 0 0 4 5 L 4 31 A 1.0001 1.0001 0 0 0 5 32 L 18 32 L 18 45 A 1.0001 1.0001 0 0 0 19 46 L 45 46 A 1.0001 1.0001 0 0 0 46 45 L 46 19 A 1.0001 1.0001 0 0 0 45 18 L 32 18 L 32 5 A 1.0001 1.0001 0 0 0 31 4 L 5 4 z M 6 6 L 30 6 L 30 18.585938 L 29.445312 19.140625 L 30.859375 20.554688 L 31.414062 20 L 44 20 L 44 44 L 20 44 L 20 31.414062 L 20.554688 30.859375 L 19.140625 29.445312 L 18.585938 30 L 6 30 L 6 6 z M 9.7070312 8.2929688 L 8.2929688 9.7070312 L 17.585938 19 L 10 19 L 10 21 L 21 21 L 21 10 L 19 10 L 19 17.585938 L 9.7070312 8.2929688 z M 28.140625 20.445312 L 26.445312 22.140625 L 27.859375 23.554688 L 29.554688 21.859375 L 28.140625 20.445312 z M 25.140625 23.445312 L 23.445312 25.140625 L 24.859375 26.554688 L 26.554688 24.859375 L 25.140625 23.445312 z M 22.140625 26.445312 L 20.445312 28.140625 L 21.859375 29.554688 L 23.554688 27.859375 L 22.140625 26.445312 z M 29 29 L 29 40 L 31 40 L 31 32.414062 L 40.292969 41.707031 L 41.707031 40.292969 L 32.414062 31 L 40 31 L 40 29 L 29 29 z"></path></svg>