<svg width="100" height="100" xmlns="http://www.w3.org/2000/svg" x="0px" y="0px" viewBox="0 0 50 50">
<title>crown</title><path d="M 25 6 C 22.800781 6 21 7.800781 21 10 C 21 11.183594 21.546875 12.234375 22.375 12.96875 L 15.5 24.875 L 8.71875 21.46875 C 8.898438 21.015625 9 20.515625 9 20 C 9 17.800781 7.199219 16 5 16 C 2.800781 16 1 17.800781 1 20 C 1 22.175781 2.769531 23.964844 4.9375 24 L 8 37.09375 L 8 43 C 8 43.550781 8.449219 44 9 44 L 41 44 C 41.550781 44 42 43.550781 42 43 L 42 37.09375 L 45.0625 24 C 47.230469 23.964844 49 22.175781 49 20 C 49 17.800781 47.199219 16 45 16 C 42.800781 16 41 17.800781 41 20 C 41 20.46875 41.097656 20.925781 41.25 21.34375 L 34.40625 24.78125 L 27.59375 13 C 28.441406 12.265625 29 11.199219 29 10 C 29 7.800781 27.199219 6 25 6 Z M 25 8 C 26.117188 8 27 8.882813 27 10 C 27 10.664063 26.675781 11.230469 26.1875 11.59375 C 26.144531 11.589844 26.105469 11.589844 26.0625 11.59375 C 25.804688 11.628906 25.566406 11.761719 25.40625 11.96875 C 25.273438 11.996094 25.140625 12 25 12 C 24.769531 12 24.546875 11.976563 24.34375 11.90625 C 24.324219 11.894531 24.300781 11.882813 24.28125 11.875 C 24.269531 11.871094 24.261719 11.847656 24.25 11.84375 C 24.238281 11.84375 24.230469 11.84375 24.21875 11.84375 C 24.207031 11.839844 24.199219 11.816406 24.1875 11.8125 C 24.128906 11.773438 24.066406 11.742188 24 11.71875 C 23.402344 11.375 23 10.746094 23 10 C 23 8.882813 23.882813 8 25 8 Z M 24.15625 13.90625 C 24.425781 13.964844 24.714844 14 25 14 C 25.273438 14 25.554688 13.960938 25.8125 13.90625 L 33.125 26.59375 C 33.386719 27.054688 33.960938 27.234375 34.4375 27 L 42.40625 23 C 42.628906 23.191406 42.863281 23.359375 43.125 23.5 L 40.21875 36 L 9.78125 36 L 6.875 23.5 C 7.089844 23.382813 7.28125 23.246094 7.46875 23.09375 L 15.4375 27.09375 C 15.921875 27.347656 16.519531 27.167969 16.78125 26.6875 Z M 5 18 C 6.117188 18 7 18.882813 7 20 C 7 20.378906 6.898438 20.730469 6.71875 21.03125 C 6.714844 21.035156 6.691406 21.027344 6.6875 21.03125 C 6.554688 21.128906 6.445313 21.257813 6.375 21.40625 C 6.375 21.417969 6.375 21.425781 6.375 21.4375 C 6.179688 21.625 5.949219 21.78125 5.6875 21.875 C 5.679688 21.878906 5.664063 21.871094 5.65625 21.875 C 5.527344 21.882813 5.398438 21.914063 5.28125 21.96875 C 5.269531 21.96875 5.261719 21.96875 5.25 21.96875 C 5.230469 21.972656 5.210938 21.996094 5.1875 22 C 5.125 22.003906 5.0625 22 5 22 C 3.882813 22 3 21.117188 3 20 C 3 18.882813 3.882813 18 5 18 Z M 45 18 C 46.117188 18 47 18.882813 47 20 C 47 21.117188 46.117188 22 45 22 C 44.890625 22 44.789063 21.984375 44.6875 21.96875 C 44.597656 21.933594 44.503906 21.914063 44.40625 21.90625 C 44.0625 21.800781 43.765625 21.601563 43.53125 21.34375 C 43.472656 21.210938 43.386719 21.09375 43.28125 21 C 43.113281 20.707031 43 20.367188 43 20 C 43 18.882813 43.882813 18 45 18 Z M 10 38 L 40 38 L 40 42 L 10 42 Z"/></svg>
