<svg width="100" height="100" xmlns="http://www.w3.org/2000/svg" x="0px" y="0px" viewBox="0 0 50 50">
  <title>products</title>
  <path d="M46.9106254,27.2 C46.9106254,27.2 46.9106254,27.1106254 46.8246873,27.1106254 L46.7353127,27.0246873 C46.7353127,27.0246873 46.6493754,27.0246873 46.6493754,26.9353127 C46.6493754,26.9353127 46.56,26.9353127 46.56,26.8493754 L36.44,21.8306254 L36.44,10.04 C36.44,9.83375 36.3609373,9.64125 36.23375,9.48656272 C36.165,9.39375 36.0893754,9.30781272 36,9.24937544 C35.9175,9.19093728 35.8246873,9.16 35.7284373,9.13937544 L25.3918754,3.97281272 C25.1443754,3.84906272 24.8556254,3.84906272 24.6046873,3.97281272 L14.20625,9.17375 C14.1031254,9.19093728 14.0034373,9.21843728 13.9106254,9.24937544 C13.6493754,9.33531272 13.56,9.77531272 13.56,10.04 L13.56,21.8168754 L3.48812544,26.8528127 C3.47437544,26.8596873 3.4675,26.8665627 3.45718728,26.8734373 C3.44343728,26.8803127 3.42968728,26.88375 3.41593728,26.8906254 C3.38843728,26.9078127 3.36781272,26.9318754 3.34375,26.9525 C3.31625,26.9731254 3.28875,26.9903127 3.26812544,27.0143754 C3.23375,27.04875 3.20625,27.0831254 3.17875,27.1209373 C3.16156272,27.145 3.14093728,27.1690627 3.12375,27.1965627 C3.09625,27.2378127 3.07906254,27.2859373 3.061875,27.3340627 C3.05156254,27.3581254 3.04125,27.3821873 3.03093754,27.40625 C3.01375,27.4818754 3,27.5609373 3,27.64 L3,39.96 C3,40.2934373 3.18906272,40.5993754 3.48812544,40.7471873 L14.0481254,46.0271873 C14.0584373,46.0340627 14.0756254,46.0306254 14.0859373,46.0375 C14.1993754,46.0856254 14.3196873,46.12 14.44,46.12 C14.5603127,46.12 14.6806254,46.0856254 14.7940627,46.0375 C14.8043754,46.0306254 14.8215627,46.0340627 14.8318754,46.0271873 L25.0171873,40.93625 L35.2093754,46.0306254 C35.2953127,46.12 35.4706254,46.12 35.56,46.12 C35.6493754,46.12 35.8246873,46.12 35.9106254,46.0306254 L41.9846873,43.04 L46.4706254,40.7506254 C46.7353127,40.5753127 47,40.3106254 47,39.96 L47,27.64 C47,27.5506254 47,27.4646873 47,27.3753127 C46.9106254,27.2893754 46.9106254,27.2 46.9106254,27.2 Z M14.44,31.9368754 L5.84625,27.64 L14.44,23.3431254 L23.03375,27.64 L14.44,31.9368754 Z M24.12,15.8631254 L24.12,26.2168754 L15.32,21.8168754 L15.32,11.4631254 L24.12,15.8631254 Z M25,5.74312544 L33.5696873,10.0296873 L28.6506254,12.5115627 L25,14.3368754 L16.40625,10.04 L25,5.74312544 Z M4.76,29.0631254 L13.56,33.4631254 L13.56,43.8168754 L4.76,39.4168754 L4.76,29.0631254 Z M34.68,34.68 L34.68,43.8306254 L25.88,39.4306254 L25.88,29.0356254 L30.1906254,31.16 L34.68,33.36 L34.68,34.68 Z M24.12,29.0356254 L24.12,39.4306254 L15.32,43.8306254 L15.32,33.36 L19.8093746,31.16 L24.12,29.0356254 Z M45.3823926,29.0356254 L45.3823926,39.4306254 L36.5823926,43.8306254 L36.5823926,33.36 L41.0717671,31.16 L45.3823926,29.0356254 Z M35.56,23.3293754 L44.1846873,27.64 L35.56,31.9506254 L26.9353127,27.64 L35.56,23.3293754 Z M34.68,11.46 L34.68,21.855 L25.88,26.255 L25.88,15.7843746 L30.3693746,13.5843746 L34.68,11.46 Z"></path>
</svg>