<svg width="100" height="100" xmlns="http://www.w3.org/2000/svg" x="0px" y="0px" viewBox="0 0 50 50">
<title>we-can-do-it-all</title><path d="M 25 2 C 23.939942 2 22.890637 2.086735 21.865234 2.2265625 A 1.0003305 1.0003305 0 1 0 22.134766 4.2089844 C 23.089363 4.0788119 24.050058 4 25 4 C 32.57568 4 39.147459 8.0148722 42.847656 14 L 36 14 A 1.0001 1.0001 0 1 0 36 16 L 45 16 A 1.0001 1.0001 0 0 0 46 15 L 46 6 A 1.0001 1.0001 0 0 0 44.984375 4.9863281 A 1.0001 1.0001 0 0 0 44 6 L 44 12.107422 C 39.864695 6.0258725 32.92256 2 25 2 z M 6 4 A 1.0001 1.0001 0 1 0 6 6 L 12.023438 6 C 5.9492618 10.152759 2 17.158723 2 25 C 2 26.082953 2.063322 27.109832 2.1894531 28.123047 A 1.0001 1.0001 0 1 0 4.1738281 27.876953 C 4.0579588 26.946168 4 26.005047 4 25 C 4 17.467998 7.9808814 10.787486 14 7.0917969 L 14 14 A 1.0001 1.0001 0 1 0 16 14 L 16 5 A 1.0001 1.0001 0 0 0 15 4 L 6 4 z M 46.748047 20.986328 A 1.0001 1.0001 0 0 0 45.802734 22.128906 C 45.926051 23.075941 46 24.042926 46 25 C 46 32.989409 41.532913 39.858722 35 43.423828 L 35 36 A 1.0001 1.0001 0 0 0 33.984375 34.986328 A 1.0001 1.0001 0 0 0 33 36 L 33 45 A 1.0001 1.0001 0 0 0 34 46 L 43 46 A 1.0001 1.0001 0 1 0 43 44 L 37.892578 44 C 43.974127 39.864695 48 32.92256 48 25 C 48 23.941074 47.91979 22.890059 47.787109 21.871094 A 1.0001 1.0001 0 0 0 46.748047 20.986328 z M 5 34 A 1.0001 1.0001 0 0 0 4 35 L 4 44 A 1.0001 1.0001 0 1 0 6 44 L 6 37.919922 C 10.149802 44.005932 17.13502 48 25 48 C 25.713194 48 26.403619 47.973279 27.082031 47.917969 A 1.0004397 1.0004397 0 1 0 26.917969 45.923828 C 26.296381 45.974511 25.662806 46 25 46 C 17.473065 46 10.840444 42.001045 7.1347656 36 L 14 36 A 1.0001 1.0001 0 1 0 14 34 L 5 34 z"/></svg>
