<svg width="100" height="100" xmlns="http://www.w3.org/2000/svg" x="0px" y="0px" viewBox="0 0 50 50">
<title>database-backup</title>
<path d="M 21 0 C 15.355469 0 10.230469 1.011719 6.4375 2.71875 C 4.542969 3.570313 2.980469 4.601563 1.84375 5.8125 C 0.761719 6.964844 0.0664063 8.324219 0 9.78125 C -0.00390625 9.832031 -0.00390625 9.886719 0 9.9375 C 0 9.957031 0 9.980469 0 10 L 0 19.8125 C -0.0078125 19.875 -0.0078125 19.9375 0 20 L 0 29.8125 C -0.0078125 29.875 -0.0078125 29.9375 0 30 L 0 39 C 0 40.542969 0.707031 41.976563 1.84375 43.1875 C 2.980469 44.398438 4.542969 45.429688 6.4375 46.28125 C 10.230469 47.988281 15.355469 49 21 49 C 23.894531 49 26.644531 48.742188 29.15625 48.25 C 29.699219 48.144531 30.058594 47.621094 29.953125 47.078125 C 29.847656 46.535156 29.324219 46.175781 28.78125 46.28125 C 26.40625 46.746094 23.773438 47 21 47 C 15.597656 47 10.726563 45.988281 7.28125 44.4375 C 5.558594 43.664063 4.199219 42.757813 3.3125 41.8125 C 2.425781 40.867188 2 39.941406 2 39 L 2 34.34375 C 3.121094 35.488281 4.621094 36.464844 6.4375 37.28125 C 10.230469 38.988281 15.355469 40 21 40 C 22.761719 40 24.460938 39.90625 26.09375 39.71875 C 26.644531 39.660156 27.046875 39.160156 26.984375 38.609375 C 26.925781 38.058594 26.425781 37.65625 25.875 37.71875 C 24.320313 37.898438 22.6875 38 21 38 C 15.597656 38 10.726563 36.988281 7.28125 35.4375 C 5.558594 34.664063 4.199219 33.757813 3.3125 32.8125 C 2.425781 31.867188 2 30.941406 2 30 C 2.007813 29.9375 2.007813 29.875 2 29.8125 L 2 24.34375 C 3.121094 25.488281 4.621094 26.464844 6.4375 27.28125 C 10.230469 28.988281 15.355469 30 21 30 C 26.644531 30 31.769531 28.988281 35.5625 27.28125 C 37.378906 26.464844 38.878906 25.488281 40 24.34375 L 40 27 C 39.996094 27.359375 40.183594 27.695313 40.496094 27.878906 C 40.808594 28.058594 41.191406 28.058594 41.503906 27.878906 C 41.816406 27.695313 42.003906 27.359375 42 27 L 42 10 C 42 9.96875 42 9.9375 42 9.90625 C 42 9.875 42 9.84375 42 9.8125 C 42 9.800781 42 9.792969 42 9.78125 C 41.992188 9.761719 41.980469 9.738281 41.96875 9.71875 C 41.886719 8.285156 41.222656 6.945313 40.15625 5.8125 C 39.019531 4.601563 37.457031 3.570313 35.5625 2.71875 C 31.769531 1.011719 26.644531 0 21 0 Z M 21 2 C 26.402344 2 31.273438 3.011719 34.71875 4.5625 C 36.441406 5.335938 37.800781 6.242188 38.6875 7.1875 C 39.574219 8.132813 40 9.058594 40 10 C 40 10.941406 39.574219 11.867188 38.6875 12.8125 C 37.800781 13.757813 36.441406 14.664063 34.71875 15.4375 C 31.273438 16.988281 26.402344 18 21 18 C 15.597656 18 10.726563 16.988281 7.28125 15.4375 C 5.558594 14.664063 4.199219 13.757813 3.3125 12.8125 C 2.425781 11.867188 2 10.941406 2 10 C 2 9.96875 2 9.9375 2 9.90625 C 2.027344 8.996094 2.453125 8.101563 3.3125 7.1875 C 4.199219 6.242188 5.558594 5.335938 7.28125 4.5625 C 10.726563 3.011719 15.597656 2 21 2 Z M 2 14.34375 C 3.121094 15.488281 4.621094 16.464844 6.4375 17.28125 C 10.230469 18.988281 15.355469 20 21 20 C 26.644531 20 31.769531 18.988281 35.5625 17.28125 C 37.378906 16.464844 38.878906 15.488281 40 14.34375 L 40 19.84375 C 40 19.875 40 19.90625 40 19.9375 L 40 20 C 40 20.941406 39.574219 21.867188 38.6875 22.8125 C 37.800781 23.757813 36.441406 24.664063 34.71875 25.4375 C 31.273438 26.988281 26.402344 28 21 28 C 15.597656 28 10.726563 26.988281 7.28125 25.4375 C 5.558594 24.664063 4.199219 23.757813 3.3125 22.8125 C 2.425781 21.867188 2 20.941406 2 20 C 2.007813 19.9375 2.007813 19.875 2 19.8125 Z M 47.875 29.3125 C 47.371094 29.375 46.996094 29.804688 47 30.3125 L 47 33.25 C 45.796875 31.898438 43.492188 29.96875 40 29.96875 C 34.480469 29.96875 29.96875 34.480469 29.96875 40 C 29.96875 45.519531 34.480469 50.03125 40 50.03125 C 45.519531 50.03125 50.03125 45.519531 50.03125 40 C 50.03125 39.429688 49.570313 38.96875 49 38.96875 C 48.429688 38.96875 47.96875 39.429688 47.96875 40 C 47.96875 44.421875 44.421875 47.96875 40 47.96875 C 35.578125 47.96875 32.03125 44.421875 32.03125 40 C 32.03125 35.578125 35.578125 32.03125 40 32.03125 C 43.164063 32.03125 45.105469 34.015625 45.875 35 L 42.3125 35 C 41.953125 34.996094 41.617188 35.183594 41.433594 35.496094 C 41.253906 35.808594 41.253906 36.191406 41.433594 36.503906 C 41.617188 36.816406 41.953125 37.003906 42.3125 37 L 49 37 L 49 30.3125 C 49.003906 30.023438 48.878906 29.75 48.664063 29.558594 C 48.449219 29.367188 48.160156 29.277344 47.875 29.3125 Z"></path></svg>