<svg width="100" height="100" xmlns="http://www.w3.org/2000/svg" x="0px" y="0px" viewBox="0 0 50 50">
<title>data-transfer</title>
<path d="M 37.84375 0.09375 C 37.46875 0.160156 37.167969 0.433594 37.0625 0.796875 C 36.957031 1.164063 37.066406 1.554688 37.34375 1.8125 L 46.53125 11 L 1 11 C 0.96875 11 0.9375 11 0.90625 11 C 0.355469 11.027344 -0.0742188 11.496094 -0.046875 12.046875 C -0.0195313 12.597656 0.449219 13.027344 1 13 L 46.53125 13 L 37.34375 22.1875 C 37.046875 22.429688 36.910156 22.816406 36.996094 23.191406 C 37.082031 23.5625 37.375 23.855469 37.746094 23.941406 C 38.121094 24.027344 38.507813 23.890625 38.75 23.59375 L 49.65625 12.71875 L 50.34375 12 L 49.65625 11.28125 L 38.75 0.40625 C 38.542969 0.183594 38.242188 0.0703125 37.9375 0.09375 C 37.90625 0.09375 37.875 0.09375 37.84375 0.09375 Z M 11.8125 26.09375 C 11.59375 26.132813 11.398438 26.242188 11.25 26.40625 L 0.34375 37.28125 L -0.34375 38 L 0.34375 38.71875 L 11.25 49.59375 C 11.492188 49.890625 11.878906 50.027344 12.253906 49.941406 C 12.625 49.855469 12.917969 49.5625 13.003906 49.191406 C 13.089844 48.816406 12.953125 48.429688 12.65625 48.1875 L 3.46875 39 L 49 39 C 49.359375 39.003906 49.695313 38.816406 49.878906 38.503906 C 50.058594 38.191406 50.058594 37.808594 49.878906 37.496094 C 49.695313 37.183594 49.359375 36.996094 49 37 L 3.46875 37 L 12.65625 27.8125 C 12.980469 27.511719 13.066406 27.035156 12.871094 26.640625 C 12.679688 26.242188 12.246094 26.023438 11.8125 26.09375 Z"/></svg>