<svg width="100" height="100" xmlns="http://www.w3.org/2000/svg" x="0px" y="0px" viewBox="0 0 50 50">
<title>deliver-love</title>
<path d="M 26 1 C 21.59375 1 18 4.59375 18 9 C 18 10.855469 18.9375 12.664063 20.21875 14.4375 C 21.5 16.210938 23.15625 17.9375 24.8125 19.46875 C 28.125 22.527344 31.4375 24.8125 31.4375 24.8125 L 32 25.21875 L 32.5625 24.8125 C 32.5625 24.8125 35.878906 22.53125 39.1875 19.46875 C 40.84375 17.9375 42.5 16.207031 43.78125 14.4375 C 45.0625 12.667969 46 10.847656 46 9 C 46 4.59375 42.40625 1 38 1 C 35.578125 1 33.464844 2.136719 32 3.84375 C 30.535156 2.136719 28.421875 1 26 1 Z M 26 3 C 28.191406 3 30.105469 4.1875 31.15625 5.9375 L 32 7.34375 L 32.84375 5.9375 C 33.894531 4.1875 35.808594 3 38 3 C 41.324219 3 44 5.675781 44 9 C 44 10.117188 43.3125 11.648438 42.15625 13.25 C 41 14.851563 39.40625 16.523438 37.8125 18 C 34.90625 20.691406 32.496094 22.367188 32 22.71875 C 31.503906 22.367188 29.09375 20.683594 26.1875 18 C 24.59375 16.527344 23 14.882813 21.84375 13.28125 C 20.6875 11.679688 20 10.132813 20 9 C 20 5.675781 22.675781 3 26 3 Z M 46 26.03125 C 45.03125 26.089844 44.0625 26.53125 43.34375 27.25 L 33.5625 37 L 24.4375 37 L 24.03125 36.59375 L 29.875 35.4375 C 31.367188 35.140625 32.648438 34.007813 32.9375 32.4375 C 33.363281 30.105469 31.539063 28 29.25 28 L 15.3125 28 C 12.925781 28 10.625 28.9375 8.9375 30.625 L 0.28125 39.28125 L -0.40625 40 L 0.28125 40.71875 L 9.28125 49.71875 L 10 50.40625 L 10.71875 49.71875 L 14.125 46.28125 C 14.3125 46.09375 14.546875 46 14.8125 46 L 33.34375 46 C 34.667969 46 35.9375 45.46875 36.875 44.53125 L 48.875 32.53125 C 50.410156 30.996094 50.347656 28.433594 48.71875 26.96875 C 47.9375 26.265625 46.96875 25.972656 46 26.03125 Z M 46.09375 28.03125 C 46.570313 27.996094 47.050781 28.148438 47.40625 28.46875 C 48.207031 29.1875 48.214844 30.378906 47.46875 31.125 L 35.46875 43.125 C 34.90625 43.6875 34.140625 44 33.34375 44 L 14.8125 44 C 14.015625 44 13.28125 44.3125 12.71875 44.875 L 10 47.5625 L 2.4375 40 L 10.375 32.0625 C 11.6875 30.75 13.457031 30 15.3125 30 L 29.25 30 C 30.335938 30 31.179688 30.933594 30.96875 32.09375 C 30.84375 32.773438 30.21875 33.320313 29.46875 33.46875 L 21.8125 35.03125 L 19.96875 35.375 L 21.28125 36.71875 L 23.28125 38.71875 L 23.59375 39 L 34.40625 39 L 34.71875 38.71875 L 44.75 28.65625 C 45.113281 28.292969 45.617188 28.066406 46.09375 28.03125 Z"></path></svg>