<svg width="100" height="100" xmlns="http://www.w3.org/2000/svg" x="0px" y="0px" viewBox="0 0 50 50">
<title>developer</title>
<path d="M 23 1 C 15.773438 1 10.445313 3.492188 7 7.398438 C 3.554688 11.308594 2 16.558594 2 22 C 2 26.40625 3.363281 30.507813 5.675781 33.867188 C 7.769531 36.914063 9 40.519531 9 44.199219 L 9 49 L 11 49 L 11 44.199219 C 11 40.078125 9.628906 36.085938 7.324219 32.734375 C 5.234375 29.695313 4 25.992188 4 22 C 4 16.941406 5.445313 12.191406 8.5 8.726563 C 11.554688 5.257813 16.226563 3 23 3 C 29.800781 3 34.207031 4.980469 37.117188 8.007813 C 40.027344 11.03125 41.472656 15.203125 42.007813 19.71875 L 42.03125 19.921875 L 46.828125 28.1875 C 47.074219 28.632813 46.949219 29.078125 46.515625 29.324219 L 42 31.582031 L 42 37.597656 C 42 41.339844 38.921875 44.25 35.191406 43.90625 L 35.175781 43.902344 L 31 43.632813 L 31 49 L 33 49 L 33 45.765625 L 35.007813 45.894531 C 39.878906 46.351563 44 42.457031 44 37.597656 L 44 32.816406 L 47.484375 31.074219 C 48.847656 30.316406 49.324219 28.566406 48.574219 27.214844 L 48.570313 27.207031 L 43.921875 19.199219 C 43.328125 14.515625 41.804688 9.996094 38.558594 6.617188 C 35.242188 3.171875 30.199219 1 23 1 Z M 25 13.984375 C 24.523438 13.988281 24.113281 14.324219 24.019531 14.792969 L 21.019531 28.792969 C 20.90625 29.332031 21.25 29.863281 21.789063 29.980469 C 22.332031 30.09375 22.863281 29.75 22.980469 29.207031 L 25.980469 15.207031 C 26.046875 14.910156 25.976563 14.597656 25.785156 14.359375 C 25.59375 14.121094 25.304688 13.984375 25 13.984375 Z M 16.535156 16.988281 C 16.207031 16.980469 15.894531 17.132813 15.699219 17.402344 L 12.25 22 L 15.699219 26.597656 C 16.03125 27.042969 16.65625 27.132813 17.097656 26.800781 C 17.542969 26.46875 17.632813 25.84375 17.300781 25.402344 L 14.75 22 L 17.300781 18.597656 C 17.53125 18.300781 17.574219 17.898438 17.414063 17.558594 C 17.253906 17.21875 16.914063 17 16.535156 16.988281 Z M 30.433594 16.988281 C 30.0625 17.011719 29.734375 17.234375 29.582031 17.574219 C 29.425781 17.910156 29.472656 18.304688 29.699219 18.597656 L 32.25 22 L 29.699219 25.402344 C 29.367188 25.84375 29.457031 26.46875 29.902344 26.800781 C 30.34375 27.132813 30.96875 27.042969 31.300781 26.597656 L 34.75 22 L 31.300781 17.402344 C 31.101563 17.125 30.773438 16.96875 30.433594 16.988281 Z"></path></svg>