<svg fill="#000000" xmlns="http://www.w3.org/2000/svg" viewBox="0 0 50 50" width="50px" height="50px"><path d="M 4 9 C 1.8026661 9 0 10.802666 0 13 L 0 37 C 0 39.197334 1.8026661 41 4 41 L 46 41 C 48.197334 41 50 39.197334 50 37 L 50 13 C 50 10.802666 48.197334 9 46 9 L 4 9 z M 4 11 L 46 11 C 47.116666 11 48 11.883334 48 13 L 48 37 C 48 38.116666 47.116666 39 46 39 L 4 39 C 2.8833339 39 2 38.116666 2 37 L 2 13 C 2 11.883334 2.8833339 11 4 11 z M 21 14 L 21 15 L 21 17 L 20 17 L 18 17 L 15 17 L 15 18 L 15 20 L 12 20 L 12 21 L 12 23 L 9.0898438 23 A 1.0001 1.0001 0 0 0 8.0996094 23.859375 C 8.0996094 23.859375 8 24.531818 8 25.263672 C 8 27.335106 8.893517 29.940815 10.841797 32.123047 C 12.790076 34.305279 15.84978 36 20 36 C 26.196053 36 31.575923 32.988938 34.916016 28 L 40.5 28 L 45.125 28 C 44.125 28 41.75 27 40.5 26 C 39.277 27 38 27 37 27 C 36.573496 27 36.095717 26.983833 35.597656 26.90625 C 35.968579 26.264181 36.315937 25.601426 36.621094 24.904297 C 38.471571 24.814327 39.87263 24.214334 40.685547 23.472656 C 41.604104 22.634596 41.945312 21.681641 41.945312 21.681641 A 1.0001 1.0001 0 0 0 41.480469 20.476562 C 41.480469 20.476562 39.644004 19.581614 37.210938 19.912109 C 36.438992 17.635767 34.787109 16.226562 34.787109 16.226562 A 1.0001 1.0001 0 0 0 34.140625 16 A 1.0001 1.0001 0 0 0 33.455078 16.285156 C 33.455078 16.285156 31.753925 18.006799 32.003906 20.763672 C 32.063236 21.422364 32.296962 22.021057 32.582031 22.574219 C 32.017838 22.796581 31.247131 23 30 23 L 29 23 L 29 20 L 26 20 L 26 17 L 26 14 L 21 14 z M 23 16 L 24 16 L 24 17 L 23 17 L 23 16 z M 34.322266 18.650391 C 34.80959 19.257452 35.347222 20.101693 35.552734 21.185547 A 1.0001 1.0001 0 0 0 36.798828 21.964844 C 37.864382 21.672676 38.769217 21.741118 39.425781 21.876953 C 39.367781 21.938193 39.408341 21.931813 39.337891 21.996094 C 38.764448 22.519283 37.819179 23.067623 36.037109 23 A 1.0001 1.0001 0 0 0 35.072266 23.626953 C 34.705489 24.540614 34.271425 25.396051 33.789062 26.203125 C 33.692889 26.137505 33.596288 26.07703 33.5 26 C 32.277 27 31 27 30 27 C 29 27 27.75 27 26.5 26 C 25.277 27 24 27 23 27 C 22 27 20.75 27 19.5 26 C 18.277 27 17 27 16 27 C 15 27 13.75 27 12.5 26 C 11.924962 26.575038 11.150336 27.047491 10.392578 27.408203 C 10.132268 26.616289 10 25.869891 10 25.263672 C 10 25.135472 10.010917 25.123625 10.017578 25 L 15 25 L 17 25 L 30 25 C 32.600251 25 34.205482 24.044057 34.515625 23.857422 A 1.0001 1.0001 0 0 0 34.794922 22.392578 C 34.467186 21.96417 34.0329 20.992642 33.996094 20.583984 C 33.917994 19.722718 34.117006 19.122937 34.322266 18.650391 z M 17 19 L 18 19 L 18 20 L 17 20 L 17 19 z M 20 19 L 21 19 L 21 20 L 20 20 L 20 19 z M 23 19 L 24 19 L 24 20 L 23 20 L 23 19 z M 14 22 L 15 22 L 15 23 L 14 23 L 14 22 z M 17 22 L 18 22 L 18 23 L 17 23 L 17 22 z M 20 22 L 21 22 L 21 23 L 20 23 L 20 22 z M 23 22 L 24 22 L 24 23 L 23 23 L 23 22 z M 26 22 L 27 22 L 27 23 L 26 23 L 26 22 z M 10.607422 28 L 19.5 28 L 20 28 L 26.5 28 L 32.564453 28 C 29.560207 31.817403 25.113479 34 20 34 C 17.98209 34 16.341588 33.553268 14.996094 32.853516 C 17.099978 32.555038 18.447266 31.894531 18.447266 31.894531 A 1.0001 1.0001 0 0 0 18.003906 29.994141 A 1.0001 1.0001 0 0 0 17.552734 30.105469 C 17.552734 30.105469 15.777778 31 13 31 A 1.0001 1.0001 0 0 0 12.609375 31.074219 C 12.517645 30.97942 12.418871 30.888284 12.332031 30.791016 C 11.554945 29.920616 10.989471 28.942823 10.607422 28 z M 20 28 C 19.448 28 19 28.448 19 29 C 19 29.552 19.448 30 20 30 C 20.552 30 21 29.552 21 29 C 21 28.864 20.972828 28.735187 20.923828 28.617188 C 20.854828 28.743187 20.720406 28.828125 20.566406 28.828125 C 20.341406 28.828125 20.158203 28.646875 20.158203 28.421875 C 20.158203 28.270875 20.239328 28.138359 20.361328 28.068359 C 20.249328 28.024359 20.128 28 20 28 z"/></svg>