<svg width="100" height="100" xmlns="http://www.w3.org/2000/svg" x="0px" y="0px" viewBox="0 0 50 50">
<title>earth</title>
<path d="M 25 1 A 1 1 0 0 0 24 2 A 1 1 0 0 0 25 3 A 1 1 0 0 0 26 2 A 1 1 0 0 0 25 1 z M 19.046875 1.7832031 A 1 1 0 0 0 18.046875 2.7832031 A 1 1 0 0 0 19.046875 3.7832031 A 1 1 0 0 0 20.046875 2.7832031 A 1 1 0 0 0 19.046875 1.7832031 z M 30.953125 1.7832031 A 1 1 0 0 0 29.953125 2.7832031 A 1 1 0 0 0 30.953125 3.7832031 A 1 1 0 0 0 31.953125 2.7832031 A 1 1 0 0 0 30.953125 1.7832031 z M 13.5 4.0800781 A 1 1 0 0 0 12.5 5.0800781 A 1 1 0 0 0 13.5 6.0800781 A 1 1 0 0 0 14.5 5.0800781 A 1 1 0 0 0 13.5 4.0800781 z M 36.5 4.0800781 A 1 1 0 0 0 35.5 5.0800781 A 1 1 0 0 0 36.5 6.0800781 A 1 1 0 0 0 37.5 5.0800781 A 1 1 0 0 0 36.5 4.0800781 z M 25 5 C 13.96615 5 5 13.96615 5 25 C 5 36.03385 13.96615 45 25 45 C 36.03385 45 45 36.03385 45 25 C 45 13.96615 36.03385 5 25 5 z M 25 7 C 28.520206 7 31.790832 8.0221294 34.5625 9.7636719 C 34.335233 10.319653 33.994782 11.137733 33.527344 12.164062 C 33.174452 12.938891 32.791205 13.729122 32.451172 14.337891 C 32.281155 14.642275 32.12022 14.902419 31.994141 15.078125 C 31.868061 15.253831 31.741235 15.342636 31.845703 15.277344 L 29.78125 16.542969 A 1.0001 1.0001 0 0 0 29.597656 16.6875 C 29.091954 17.193202 28.898364 17.962595 29.064453 18.626953 A 1.0001 1.0001 0 0 0 29.318359 19.083984 L 29.888672 19.667969 C 29.593457 19.767399 29.294261 19.858006 28.982422 20.03125 C 28.775823 20.146027 28.561159 20.289821 28.363281 20.525391 C 28.165403 20.76096 28 21.125 28 21.5 C 28 22.153624 28.196665 22.71697 28.429688 23.337891 C 28.546198 23.648351 28.672093 23.939974 28.833984 24.210938 C 28.914934 24.346418 29.000462 24.47784 29.144531 24.623047 C 29.288601 24.768254 29.52213 25 30 25 C 31.619014 25 32.708743 24.303618 33.328125 23.564453 C 33.947507 22.825288 34.232653 22.227755 34.818359 21.822266 C 35.490576 21.357068 35.912751 21.30037 36.265625 21.208984 C 36.337265 21.315425 36.333505 21.269414 36.425781 21.447266 C 36.698754 21.973357 36.980291 22.785003 36.994141 23.919922 C 36.984359 23.909209 36.950394 24.056533 36.816406 24.224609 C 36.633526 24.454041 36.325615 24.747794 35.939453 25.017578 C 35.167129 25.557147 34.090741 26 33 26 C 31.002672 26 29.656535 26.589153 28.886719 27.470703 C 28.116902 28.352253 28 29.378737 28 30 C 28 31.925294 29.200504 33.250343 30.324219 33.970703 C 30.886076 34.330883 31.442396 34.570314 31.890625 34.728516 C 32.072467 34.792696 32.15687 34.797356 32.289062 34.835938 C 32.447474 35.13028 32.664611 35.590884 33.259766 37 C 33.561413 37.715425 34.255261 39.211833 34.691406 40.158203 C 31.893147 41.949345 28.574266 43 25 43 C 23.96165 43 22.950827 42.892802 21.960938 42.724609 C 22.167336 41.554894 22.557297 40.200344 22.951172 39.041016 C 23.368228 37.813454 23.698758 37.01347 23.869141 36.535156 C 24.457454 36.1441 26 34.989677 26 32.375 C 26 31.847778 25.848445 31.444816 25.494141 30.960938 C 25.139836 30.477059 24.463333 30 23.625 30 C 23.16216 30 23.133743 29.98722 22.958984 29.880859 C 22.784226 29.774499 22.430544 29.45292 21.794922 28.880859 A 1.0001 1.0001 0 0 0 21.792969 28.880859 C 20.970221 28.141035 19.975238 28 19.25 28 L 17.75 28 L 15.125 28 C 14.395833 28 14.306524 27.78297 14.160156 27.490234 C 14.013788 27.197498 14 26.875 14 26.875 L 14 25 L 14.625 25 C 14.761538 25 14.713626 24.993887 14.710938 24.992188 C 14.737527 25.081277 14.754338 25.206635 14.951172 25.458984 C 15.192545 25.768428 15.716739 26 16.125 26 C 16.787202 26 17.456858 25.616999 17.732422 25.140625 C 18.007986 24.664251 18 24.245278 18 24 C 18 23.497037 18.058169 22.954921 18.263672 22.630859 C 18.469175 22.306797 18.782222 22 20 22 C 20.580357 22 21.296422 21.8905 21.933594 21.40625 C 22.570765 20.922 23 20.043269 23 19 L 23 15.5 C 23 15.331667 23.01208 14.741473 22.642578 14.130859 C 22.273079 13.520246 21.430571 13 20.375 13 C 19.67427 13 19.205371 12.898098 19.074219 12.830078 C 18.943066 12.762058 19 12.904198 19 12.625 C 19 12.6516 19.04484 12.270324 19.15625 11.837891 C 19.267661 11.405457 19.433821 10.863486 19.636719 10.292969 C 19.991973 9.2940499 20.475515 8.2196705 20.935547 7.4765625 C 22.243325 7.1750802 23.599661 7 25 7 z M 8.7363281 7.7363281 A 1 1 0 0 0 7.7363281 8.7363281 A 1 1 0 0 0 8.7363281 9.7363281 A 1 1 0 0 0 9.7363281 8.7363281 A 1 1 0 0 0 8.7363281 7.7363281 z M 41.263672 7.7363281 A 1 1 0 0 0 40.263672 8.7363281 A 1 1 0 0 0 41.263672 9.7363281 A 1 1 0 0 0 42.263672 8.7363281 A 1 1 0 0 0 41.263672 7.7363281 z M 18.267578 8.3105469 C 18.081234 8.7486755 17.90501 9.1907235 17.751953 9.6210938 C 17.530351 10.244202 17.348464 10.836371 17.21875 11.339844 C 17.089036 11.843317 17 12.199903 17 12.625 C 17 13.425802 17.480449 14.255989 18.154297 14.605469 C 18.828145 14.954949 19.54573 15 20.375 15 C 20.917429 15 20.88814 15.09413 20.931641 15.166016 C 20.975141 15.237902 21 15.398333 21 15.5 L 21 19 C 21 19.581731 20.866735 19.703 20.722656 19.8125 C 20.578578 19.922 20.294643 20 20 20 C 18.337778 20 17.150669 20.652656 16.576172 21.558594 C 16.125368 22.269478 16.052411 22.961686 16.03125 23.527344 C 15.9605 23.455374 15.96064 23.385217 15.869141 23.324219 C 15.513463 23.0871 15.085957 23 14.625 23 L 13.75 23 C 13.116778 23 12.423175 23.421378 12.189453 23.914062 C 11.955731 24.406748 12 24.7905 12 25 L 12 26.806641 C 11.168217 26.19502 10.565665 25.753808 10.035156 24.816406 C 9.8808877 24.543681 9.6822207 24.268648 9.4101562 24.025391 A 1.0001 1.0001 0 0 0 9.4082031 24.023438 L 9.109375 23.757812 A 1.0001 1.0001 0 0 0 9.1074219 23.757812 C 8.5605889 23.27224 7.8551448 23.001915 7.1230469 23 C 7.8626493 16.308635 12.251183 10.73539 18.267578 8.3105469 z M 36.236328 10.945312 C 40.356796 14.241782 43 19.303647 43 25 C 43 30.646677 40.406437 35.674324 36.347656 38.972656 C 35.891977 37.979129 35.32951 36.761506 35.101562 36.220703 C 34.420964 34.609286 34.160921 33.97303 33.847656 33.470703 A 1.0001 1.0001 0 0 0 33.126953 33.007812 C 33.231976 33.021192 32.890301 32.960252 32.554688 32.841797 C 32.219073 32.723342 31.797314 32.539054 31.404297 32.287109 C 30.618262 31.78322 30 31.131706 30 30 C 30 29.631263 30.0706 29.158059 30.394531 28.787109 C 30.718465 28.416159 31.372328 28 33 28 C 34.609259 28 36.033262 27.393634 37.085938 26.658203 C 37.612274 26.290488 38.048115 25.890099 38.380859 25.472656 C 38.713604 25.055213 39 24.650926 39 24 C 39 22.480247 38.606913 21.313082 38.199219 20.527344 C 37.791524 19.741605 37.3125 19.273438 37.3125 19.273438 A 1.0001 1.0001 0 0 0 36.453125 19.015625 C 36.453125 19.015625 35.022757 19.249634 33.681641 20.177734 C 32.642347 20.897245 32.196789 21.799712 31.794922 22.279297 C 31.467207 22.670389 31.138299 22.86118 30.4375 22.933594 C 30.39066 22.832965 30.34886 22.762868 30.300781 22.634766 C 30.161225 22.2629 30.101416 21.925915 30.0625 21.740234 C 30.232209 21.659254 30.488117 21.558648 30.816406 21.449219 A 1.0001 1.0001 0 0 0 31.054688 21.332031 C 31.647544 20.936793 31.740687 20.478629 31.845703 20.142578 C 31.950719 19.806528 31.990234 19.515625 31.990234 19.515625 A 1.0001 1.0001 0 0 0 31.714844 18.675781 L 31.121094 18.066406 L 32.898438 16.976562 A 1.0001 1.0001 0 0 0 32.904297 16.972656 C 33.258765 16.751114 33.423931 16.516188 33.619141 16.244141 C 33.81435 15.972093 34.004001 15.66046 34.197266 15.314453 C 34.583795 14.62244 34.981798 13.795485 35.347656 12.992188 C 35.693985 12.23177 35.999054 11.513186 36.236328 10.945312 z M 5.0800781 12.5 A 1 1 0 0 0 4.0800781 13.5 A 1 1 0 0 0 5.0800781 14.5 A 1 1 0 0 0 6.0800781 13.5 A 1 1 0 0 0 5.0800781 12.5 z M 44.919922 12.5 A 1 1 0 0 0 43.919922 13.5 A 1 1 0 0 0 44.919922 14.5 A 1 1 0 0 0 45.919922 13.5 A 1 1 0 0 0 44.919922 12.5 z M 2.7832031 18.046875 A 1 1 0 0 0 1.7832031 19.046875 A 1 1 0 0 0 2.7832031 20.046875 A 1 1 0 0 0 3.7832031 19.046875 A 1 1 0 0 0 2.7832031 18.046875 z M 47.216797 18.046875 A 1 1 0 0 0 46.216797 19.046875 A 1 1 0 0 0 47.216797 20.046875 A 1 1 0 0 0 48.216797 19.046875 A 1 1 0 0 0 47.216797 18.046875 z M 2 24 A 1 1 0 0 0 1 25 A 1 1 0 0 0 2 26 A 1 1 0 0 0 3 25 A 1 1 0 0 0 2 24 z M 48 24 A 1 1 0 0 0 47 25 A 1 1 0 0 0 48 26 A 1 1 0 0 0 49 25 A 1 1 0 0 0 48 24 z M 7 25 L 7.1152344 25 C 7.3603364 25 7.5960767 25.08926 7.7792969 25.251953 L 8.078125 25.517578 C 8.145731 25.578458 8.2257221 25.678446 8.2949219 25.800781 C 9.1278885 27.272625 10.208461 27.957367 11.171875 28.679688 C 11.704319 29.07902 12.41028 29.431755 13.027344 29.931641 C 13.644407 30.431527 14.001953 30.939815 14.001953 31.375 C 14.001953 33.122865 14.549001 34.796684 15.056641 36.242188 C 15.56428 37.687691 16.001953 38.97037 16.001953 39.5 L 16.001953 40.583984 C 10.619306 37.477871 7 31.671306 7 25 z M 2.7832031 29.953125 A 1 1 0 0 0 1.7832031 30.953125 A 1 1 0 0 0 2.7832031 31.953125 A 1 1 0 0 0 3.7832031 30.953125 A 1 1 0 0 0 2.7832031 29.953125 z M 47.216797 29.953125 A 1 1 0 0 0 46.216797 30.953125 A 1 1 0 0 0 47.216797 31.953125 A 1 1 0 0 0 48.216797 30.953125 A 1 1 0 0 0 47.216797 29.953125 z M 15.671875 30 L 17.75 30 L 19.25 30 C 19.783971 30 20.088601 30.04031 20.455078 30.369141 C 21.069456 30.92208 21.425227 31.288001 21.917969 31.587891 C 22.41071 31.88778 23.00784 32 23.625 32 C 23.786667 32 23.797664 32.02896 23.880859 32.142578 C 23.964055 32.2562 24 32.542222 24 32.375 C 24 34.492063 22.552734 35.105469 22.552734 35.105469 A 1.0001 1.0001 0 0 0 22.050781 35.683594 C 22.017001 35.784939 21.532633 37.001198 21.058594 38.396484 C 20.656923 39.578761 20.24356 40.96261 20.003906 42.285156 C 19.31678 42.087339 18.652577 41.837 18.001953 41.5625 L 18.001953 39.5 C 18.001953 38.22963 17.437673 36.980121 16.945312 35.578125 C 16.452952 34.176129 16.001953 32.687135 16.001953 31.375 C 16.001953 30.862179 15.873707 30.405741 15.671875 30 z M 5.0800781 35.5 A 1 1 0 0 0 4.0800781 36.5 A 1 1 0 0 0 5.0800781 37.5 A 1 1 0 0 0 6.0800781 36.5 A 1 1 0 0 0 5.0800781 35.5 z M 44.919922 35.5 A 1 1 0 0 0 43.919922 36.5 A 1 1 0 0 0 44.919922 37.5 A 1 1 0 0 0 45.919922 36.5 A 1 1 0 0 0 44.919922 35.5 z M 8.7363281 40.263672 A 1 1 0 0 0 7.7363281 41.263672 A 1 1 0 0 0 8.7363281 42.263672 A 1 1 0 0 0 9.7363281 41.263672 A 1 1 0 0 0 8.7363281 40.263672 z M 41.263672 40.263672 A 1 1 0 0 0 40.263672 41.263672 A 1 1 0 0 0 41.263672 42.263672 A 1 1 0 0 0 42.263672 41.263672 A 1 1 0 0 0 41.263672 40.263672 z M 13.5 43.919922 A 1 1 0 0 0 12.5 44.919922 A 1 1 0 0 0 13.5 45.919922 A 1 1 0 0 0 14.5 44.919922 A 1 1 0 0 0 13.5 43.919922 z M 36.5 43.919922 A 1 1 0 0 0 35.5 44.919922 A 1 1 0 0 0 36.5 45.919922 A 1 1 0 0 0 37.5 44.919922 A 1 1 0 0 0 36.5 43.919922 z M 19.046875 46.216797 A 1 1 0 0 0 18.046875 47.216797 A 1 1 0 0 0 19.046875 48.216797 A 1 1 0 0 0 20.046875 47.216797 A 1 1 0 0 0 19.046875 46.216797 z M 30.953125 46.216797 A 1 1 0 0 0 29.953125 47.216797 A 1 1 0 0 0 30.953125 48.216797 A 1 1 0 0 0 31.953125 47.216797 A 1 1 0 0 0 30.953125 46.216797 z M 25 47 A 1 1 0 0 0 24 48 A 1 1 0 0 0 25 49 A 1 1 0 0 0 26 48 A 1 1 0 0 0 25 47 z"></path></svg>