<svg width="100" height="100" xmlns="http://www.w3.org/2000/svg" x="0px" y="0px" viewBox="0 0 50 50"> 
<title>edb-symbol</title>
<path d="M44.9115044,17.7399569 L44.9115044,17.7399569 C44.9115044,14.6709439 42.3427041,12.4364058 39.1747752,12.7507246 L34.3565809,13.2282297 C33.8484346,13.2782982 33.4370781,13.7177883 33.4370781,14.2101284 L33.4370781,22.4946091 L33.4370781,23.544193 L33.4370781,31.8286737 C33.4370781,32.3200867 33.8484346,32.6789109 34.3565809,32.6279152 L39.1747752,32.1504101 C42.3427041,31.8370185 44.9115044,29.0943779 44.9115044,26.0244377 L44.9115044,26.0244377 C44.9115044,24.3786679 44.1720306,22.9730414 42.9979708,22.0718085 C44.1720306,20.93785 44.9115044,19.3857268 44.9115044,17.7399569" id="Fill-20"></path> <path d="M15.6434191,13.2277941 L10.8261927,12.7506887 C7.65729586,12.4366329 5.08849558,14.6702274 5.08849558,17.7394512 C5.08849558,19.3856965 5.82796936,20.9374471 7.00202917,22.0713831 C5.82796936,22.9727881 5.08849558,24.3781646 5.08849558,26.0244099 L5.08849558,26.0244099 C5.08849558,29.0936337 7.65729586,31.8367582 10.8261927,32.150814 L15.6434191,32.6279195 C16.1515654,32.6788725 16.5629219,32.3203486 16.5629219,31.8284205 L16.5629219,23.5434617 L16.5629219,22.4947562 L16.5629219,14.2097975 C16.5629219,13.7178694 16.1515654,13.2778207 15.6434191,13.2277941" id="Fill-23"></path> <path d="M24.9985482,18.0309735 L20.1822896,18.0309735 C19.6741433,18.0309735 19.2627869,18.4255244 19.2627869,18.9126929 L19.2627869,30.907597 L19.2627869,32.1255183 C19.2627869,32.6404721 19.6325238,33.1572783 20.1668032,33.1572783 L24.9995161,33.1572783 C24.9491854,34.1186489 23.572835,34.8447708 20.3458643,35.188382 L19.979999,35.219872 C19.762222,35.2421003 19.2627869,35.219872 19.2627869,36.1238197 L19.2627869,36.3636993 C19.2627869,36.8508678 19.6615607,37.2787611 20.1697069,37.2787611 L24.9859655,37.2787611 C28.1548623,37.2787611 30.7372131,34.7817908 30.7372131,31.7420815 L30.7372131,23.5352368 C30.7372131,20.4955275 28.1684129,18.0309735 24.9985482,18.0309735" id="Fill-26"></path> </svg>