<svg width="100" height="100" xmlns="http://www.w3.org/2000/svg" x="0px" y="0px" viewBox="0 0 50 50"> 
<title>edb-kubernetes</title>
<path d="M25,2 C22.806013,2 21.005415,3.7974359 21,5.9902344 L9.9375,12.3125 C9.2044591,11.512473 8.1619822,11 7,11 C4.8027056,11 3,12.802706 3,15 C3,16.850301 4.2842135,18.405591 6,18.855469 L6,31.144531 C4.2842135,31.594409 3,33.149699 3,35 C3,37.197294 4.8027056,39 7,39 C8.1619822,39 9.2044591,38.487527 9.9375,37.6875 L21,44.009766 C21.005415,46.202564 22.806013,48 25,48 C27.193987,48 28.994585,46.202564 29,44.009766 L40.0625,37.6875 C40.795541,38.487527 41.838018,39 43,39 C45.197294,39 47,37.197294 47,35 C47,33.149699 45.715786,31.594409 44,31.144531 L44,18.855469 C45.715786,18.405591 47,16.850301 47,15 C47,12.802706 45.197294,11 43,11 C41.838018,11 40.795541,11.512473 40.0625,12.3125 L29,5.9902344 C28.994585,3.7974359 27.193987,2 25,2 Z M25,4 C26.116414,4 27,4.8835859 27,6 C27,7.1164141 26.116414,8 25,8 C23.883586,8 23,7.1164141 23,6 C23,4.8835859 23.883586,4 25,4 Z M21.548828,7.9804688 C22.242368,9.1788112 23.525281,10 25,10 C26.474719,10 27.757632,9.1788112 28.451172,7.9804688 L39.119141,14.078125 C39.047772,14.375567 39,14.68172 39,15 C39,16.850301 40.284214,18.405591 42,18.855469 L42,31.144531 C40.284214,31.594409 39,33.149699 39,35 C39,35.31828 39.047772,35.624433 39.119141,35.921875 L28.451172,42.019531 C27.757632,40.821189 26.474719,40 25,40 C23.525281,40 22.242368,40.821189 21.548828,42.019531 L10.880859,35.921875 C10.952228,35.624433 11,35.31828 11,35 C11,33.149699 9.7157865,31.594409 8,31.144531 L8,18.855469 C9.7157865,18.405591 11,16.850301 11,15 C11,14.68172 10.952228,14.375567 10.880859,14.078125 L21.548828,7.9804688 Z M7,13 C8.1164141,13 9,13.883586 9,15 C9,16.085528 8.162361,16.943181 7.0898438,16.990234 C7.05478079,16.9870766 7.01957551,16.9857728 6.984375,16.986328 C6.95894394,16.986661 6.93353483,16.9879639 6.9082031,16.990234 C5.8366323,16.94221 5,16.084864 5,15 C5,13.883586 5.8835859,13 7,13 Z M43,13 C44.116414,13 45,13.883586 45,15 C45,16.085528 44.162361,16.943181 43.089844,16.990234 C43.0547809,16.9870766 43.0195756,16.9857728 42.984375,16.986328 C42.9589439,16.986661 42.9335348,16.9879639 42.908203,16.990234 C41.836632,16.94221 41,16.084864 41,15 C41,13.883586 41.883586,13 43,13 Z M6.9101562,33.009766 C6.97057775,33.0152757 7.03137535,33.0152757 7.0917969,33.009766 C8.1633677,33.05779 9,33.915136 9,35 C9,36.116414 8.1164141,37 7,37 C5.8835859,37 5,36.116414 5,35 C5,33.914472 5.837639,33.056819 6.9101562,33.009766 Z M42.910156,33.009766 C42.9705777,33.0152757 43.0313753,33.0152757 43.091797,33.009766 C44.163368,33.05779 45,33.915136 45,35 C45,36.116414 44.116414,37 43,37 C41.883586,37 41,36.116414 41,35 C41,33.914472 41.837639,33.056819 42.910156,33.009766 Z M25,42 C26.116414,42 27,42.883586 27,44 C27,45.116414 26.116414,46 25,46 C23.883586,46 23,45.116414 23,44 C23,42.883586 23.883586,42 25,42 Z" id="Shape" fill-rule="nonzero"></path><path d="M24.999617,13.5008373 C24.7308386,13.5008373 24.4623372,13.5607218 24.2143621,13.6805824 L16.2654148,17.5184901 C15.7709519,17.7570973 15.4114059,18.2090467 15.2893692,18.7445717 L13.3252281,27.3733373 C13.2038516,27.9076809 13.3317633,28.469478 13.6726682,28.8986592 L19.1754767,35.8173366 C19.5179861,36.2481655 20.0393494,36.4991627 20.5893369,36.4991627 L29.4098971,36.4991627 C29.9598846,36.4991627 30.4812479,36.2481655 30.8237573,35.8173366 L36.3265658,28.8996638 L36.3265658,28.8986592 C36.6674012,28.4698317 36.7962096,27.9086223 36.6750099,27.3743414 C36.6750102,27.3740067 36.6750102,27.373672 36.6750099,27.3733373 L34.7098649,18.7445717 C34.7098652,18.744237 34.7098652,18.7439023 34.7098649,18.7435676 C34.587858,18.2088909 34.2285072,17.7575775 33.7338191,17.5184901 L25.785876,13.6805824 C25.7855418,13.6802472 25.7852071,13.6799125 25.7848719,13.6795782 C25.5368767,13.5602396 25.2683954,13.5008373 24.999617,13.5008373 Z M24.999617,14.5290993 C25.1151181,14.5290993 25.2303487,14.5547834 25.3380196,14.6064199 L33.2869672,18.4443274 C33.5007516,18.5476513 33.6549133,18.7411389 33.707711,18.9725168 L35.6718518,27.6012819 C35.7243605,27.8327545 35.669384,28.0740557 35.522232,28.2590082 L30.0194235,35.1776851 C29.871452,35.3638129 29.6475582,35.4709007 29.4098971,35.4709007 L20.5893369,35.4709007 C20.3516758,35.4709007 20.1287866,35.3638129 19.9808146,35.1776851 L14.4780062,28.2590082 C14.3304868,28.0732892 14.2749821,27.8319653 14.3273819,27.6012819 L16.2925272,18.9735209 C16.3452951,18.741963 16.4992856,18.5481073 16.712267,18.4453315 C16.7122673,18.4449968 16.7122673,18.4446621 16.712267,18.4443274 L24.6612144,14.6064199 C24.7683449,14.5546375 24.8841159,14.5290993 24.999617,14.5290993 Z M24.9956006,16.6920632 C24.9230598,16.6920632 24.8493941,16.7066852 24.7787011,16.7362477 C24.495929,16.8596392 24.3620946,17.1885223 24.485486,17.4712944 C24.6037361,17.7489251 24.644425,18.0261142 24.6752728,18.303745 C24.6855554,18.4477017 24.6914597,18.5866775 24.6863184,18.7254928 C24.7017423,18.8643082 24.6294828,19.0034048 24.5266566,19.1422202 C24.4186891,19.2810355 24.4085267,19.4201322 24.3931028,19.5589475 C22.9822137,19.6974323 21.7120669,20.3157293 20.7409655,21.2449358 L20.7319281,21.2399148 C20.613678,21.1627951 20.5011717,21.0853943 20.3212258,21.080253 C20.1515626,21.0699703 19.9971624,21.0394839 19.8994775,20.9366577 C19.79151,20.8543967 19.6838638,20.7622151 19.5861789,20.6645302 C19.3856678,20.4691599 19.1947967,20.2580855 19.0559813,19.9907374 C18.9891443,19.8622046 18.8656726,19.7588561 18.7165746,19.7125843 C18.4183786,19.6303233 18.1101011,19.7999865 18.0226988,20.0981825 C17.9352965,20.3912372 18.1101006,20.7047769 18.4082971,20.7870379 C18.6962104,20.8744401 18.9379723,21.0183968 19.1744726,21.1726361 C19.2875814,21.2497558 19.3958702,21.332137 19.5038377,21.4246806 C19.6220879,21.5018003 19.6835024,21.645757 19.7297742,21.8102789 C19.7637027,21.9750738 19.8582663,22.0704102 19.9506901,22.1627399 C19.2469434,23.1649195 18.8300449,24.3828383 18.8300449,25.6973905 C18.8300449,25.9148495 18.8421126,26.1293321 18.8641863,26.3410584 C18.7488497,26.3814305 18.6346957,26.4252268 18.5368298,26.5408867 C18.4237205,26.6694195 18.3000884,26.771603 18.161273,26.7818856 C18.027599,26.8178748 17.8893862,26.8437824 17.7505708,26.8592063 C17.4729401,26.8951955 17.1900875,26.915881 16.8970328,26.8541853 C16.7530761,26.8284788 16.5937758,26.8590454 16.4652431,26.951589 C16.2133189,27.1263935 16.156885,27.4758823 16.3316895,27.7278065 C16.5116354,27.9797307 16.8610034,28.0423097 17.1129276,27.8623643 C17.3597104,27.6875598 17.6217969,27.5892724 17.889145,27.5018701 C18.0228191,27.4607396 18.1570155,27.425152 18.2958309,27.3994454 C18.4295044,27.3531736 18.5782816,27.3938625 18.7376617,27.4606995 C18.8700931,27.5290506 18.9873453,27.523607 19.103177,27.5119116 C19.555729,28.9791335 20.5452656,30.208338 21.8375103,30.9843041 C21.7933588,31.1078405 21.7519383,31.2365784 21.7913192,31.3990232 C21.8221671,31.5686865 21.8271474,31.7286295 21.7551691,31.8468797 C21.6986147,31.9754124 21.6372403,32.0980404 21.5704033,32.2214318 C21.4264466,32.4579321 21.2724484,32.6945933 21.0462308,32.9002457 C20.9382633,32.9979306 20.8656022,33.1365048 20.8604608,33.2958854 C20.8501782,33.604364 21.0922213,33.861992 21.4006999,33.8722746 C21.7091785,33.8825572 21.971827,33.6405136 21.9821096,33.332035 C21.9872509,33.0286977 22.0693114,32.761912 22.161855,32.4945639 C22.2081267,32.3660312 22.2648416,32.2373781 22.3265373,32.1139867 C22.3728091,31.9803126 22.4957589,31.8819449 22.6448569,31.799684 C22.793376,31.7230286 22.8601837,31.6146395 22.9270264,31.5004433 C23.5759836,31.7330603 24.2717617,31.8669627 24.999617,31.8669627 C25.7398973,31.8669627 26.447049,31.7286506 27.1053449,31.4883936 C27.1749747,31.6072314 27.2465371,31.7202112 27.3955477,31.799684 C27.5446457,31.8870863 27.6675955,31.9803126 27.7138673,32.1139867 C27.775563,32.2425194 27.8272573,32.3710522 27.8735291,32.4995849 C27.9660727,32.7669331 28.0429913,33.0337187 28.053274,33.337056 C28.053274,33.486154 28.1147687,33.6307534 28.2330188,33.7387209 C28.4643777,33.9443733 28.8145092,33.9287884 29.0253029,33.7025708 C29.2309553,33.4712118 29.215371,33.1210809 28.9891533,32.9102872 C28.7629357,32.7097761 28.6088167,32.4680944 28.4700013,32.2264528 C28.4031643,32.1082027 28.3417899,31.9803126 28.2852355,31.8569212 C28.2132571,31.7335297 28.2181172,31.578728 28.2541064,31.4090647 C28.2952369,31.2342602 28.2490453,31.1059285 28.2079148,30.9722544 L28.2038984,30.9592001 C29.4858538,30.1754979 30.4623891,28.9425474 30.9050944,27.4757615 L30.9221651,27.4767661 C31.0661218,27.4870482 31.2047366,27.5019102 31.3589759,27.4145079 C31.5132153,27.3425296 31.6681373,27.3010778 31.8018114,27.3422082 C31.9354854,27.3627735 32.0738186,27.3935812 32.2074926,27.4295704 C32.4748407,27.5066901 32.7428315,27.5993138 32.9947557,27.7689771 C33.1181472,27.8460967 33.2723063,27.8822864 33.4265456,27.8462978 C33.7298829,27.7794607 33.9201514,27.4817465 33.8533144,27.1835505 C33.7864774,26.8802132 33.4878799,26.6899446 33.1845426,26.7567817 C32.8863466,26.8236187 32.6087559,26.8126132 32.3259839,26.7869066 C32.1871685,26.7714827 32.0530929,26.7514794 31.9142775,26.7206316 C31.7754622,26.7103489 31.6529545,26.6180866 31.5347044,26.4946951 C31.4164543,26.3558798 31.2827797,26.3199307 31.1491061,26.2788002 L31.1400682,26.2757879 C31.1579152,26.0850839 31.1691891,25.8926719 31.1691891,25.6973905 C31.1691891,24.4227127 30.7800346,23.2365945 30.114819,22.2521102 C30.2123296,22.149485 30.3108551,22.052051 30.3467805,21.8775576 C30.3930523,21.7130356 30.4544668,21.5690789 30.5727169,21.4919593 C30.6755431,21.3994162 30.7889733,21.3171548 30.9020821,21.2348938 C31.1334411,21.0806545 31.3753233,20.9315565 31.6632371,20.8492955 C31.8071938,20.8081656 31.9296614,20.7100786 32.0016397,20.5661219 C32.1455964,20.2936325 32.0382715,19.9548284 31.7606408,19.816013 C31.4881514,19.6720563 31.1483426,19.7793812 31.0095273,20.0570119 C30.8707119,20.3243601 30.6807246,20.535435 30.4853548,20.7308048 C30.3825286,20.8284897 30.2800237,20.9215551 30.1720562,21.0089574 C30.0743713,21.1117836 29.9199711,21.14227 29.7503078,21.1525526 C29.570362,21.1576939 29.4568516,21.2401158 29.3386015,21.3172355 C28.3582118,20.3459746 27.0548634,19.7011469 25.6061312,19.5589475 C25.5907067,19.4201322 25.5805449,19.2810355 25.4725774,19.1422202 C25.3697512,19.0034048 25.2974917,18.8643082 25.3129156,18.7254928 C25.3077743,18.5866775 25.3136786,18.4477017 25.3239612,18.303745 C25.354809,18.0261142 25.3954979,17.7489251 25.513748,17.4712944 C25.5703024,17.3376203 25.5754437,17.1785611 25.513748,17.0294631 C25.4212044,16.817384 25.2132225,16.6915826 24.9956006,16.6920632 Z M24.2585455,20.6153258 L24.2334415,20.813146 C24.1614632,21.3684074 24.1101303,21.9288102 24.0587172,22.4840717 C24.0278693,22.7771264 24.0019617,23.0756838 23.9813965,23.3687385 C23.7294723,23.1887927 23.4775481,22.9981626 23.2102,22.8284994 C22.7474821,22.5148795 22.284523,22.200858 21.8063812,21.9026621 L21.6447111,21.8022456 C22.3678236,21.1791738 23.2665066,20.758154 24.2585455,20.6153258 Z M25.7406885,20.6153258 C26.7733438,20.7640017 27.703323,21.2162247 28.4408804,21.8815745 L28.2691689,21.9900237 C27.7961684,22.293361 27.3391141,22.6072622 26.8763962,22.9208821 C26.691309,23.0442735 26.5109611,23.1729271 26.3361566,23.3014598 C26.1973412,23.3991447 26.0070326,23.3114612 25.9967499,23.141798 C25.981326,22.9207217 25.9610821,22.7051481 25.9405169,22.4840717 C25.8891038,21.9288102 25.8377709,21.3684074 25.7657925,20.813146 L25.7406885,20.6153258 Z M20.6716781,22.924899 L20.8353569,23.0956064 C21.2260964,23.5017699 21.622258,23.8926704 22.0232807,24.2885513 C22.1929434,24.4582145 22.3626067,24.6181972 22.5374117,24.7775783 C22.6608027,24.8906866 22.6144507,25.0907962 22.45507,25.1370679 C22.2031458,25.2141876 21.9508602,25.2857644 21.698936,25.3680254 C21.1693811,25.5428299 20.6348859,25.7079945 20.1053309,25.898223 L19.8723653,25.97956 C19.8672728,25.8854879 19.8583069,25.7927639 19.8583069,25.6973905 C19.8583069,24.6741192 20.1591208,23.724785 20.6716781,22.924899 Z M29.3888095,23.0263195 C29.8627591,23.8049663 30.1409271,24.7166342 30.1409271,25.6973905 C30.1409271,25.7832669 30.1320069,25.8666168 30.1278728,25.9514438 L29.9451157,25.893202 C29.4104194,25.7183974 28.8762851,25.5684563 28.3364476,25.414217 C27.9868385,25.3113908 27.6367075,25.2194497 27.2870985,25.1320475 C27.5493053,24.8801233 27.8224374,24.6329784 28.0743616,24.3759134 C28.4702424,23.9800326 28.8656411,23.5842319 29.2512393,23.1729271 L29.3888095,23.0263195 Z M24.6812974,24.6691285 L25.3078946,24.6691285 C25.4055795,24.6691285 25.498485,24.7156414 25.5498976,24.7876198 L25.9505583,25.2917093 C26.0071128,25.3585458 26.0282405,25.4553474 26.0128165,25.5427497 L25.8682172,26.16533 C25.8527932,26.2630149 25.7857958,26.3399741 25.7035348,26.3862459 L25.1281498,26.6533529 C25.0458888,26.6996247 24.9433037,26.6996247 24.8610428,26.6533529 L24.2846536,26.3862459 C24.2023926,26.3399741 24.1302533,26.2630149 24.1199707,26.16533 L23.976376,25.5427497 C23.9609521,25.4553474 23.9820792,25.3585463 24.0386337,25.2917093 L24.4392944,24.7876198 C24.4907075,24.7156414 24.5836125,24.6691285 24.6812974,24.6691285 Z M22.8246017,27.1212923 C22.9839823,27.0955858 23.1132385,27.2553679 23.0515427,27.4044659 C22.9538573,27.6615314 22.8607919,27.9135764 22.7733896,28.1706419 C22.5831612,28.7001969 22.3979131,29.2245303 22.2231085,29.7592265 L22.1528176,29.980142 C21.2377692,29.3717034 20.534965,28.4763992 20.1605599,27.4225412 L20.433692,27.3994454 C20.9940948,27.3480323 21.544215,27.2805125 22.1046178,27.2136755 C22.3462594,27.1879689 22.5829601,27.1521402 22.8246017,27.1212923 Z M27.267015,27.193592 C27.5086565,27.2192985 27.7453578,27.2453264 27.9869994,27.2658917 C28.5474022,27.3173048 29.1025429,27.3684767 29.6629457,27.4044659 L29.8416869,27.4145079 C29.4740282,28.4549291 28.78667,29.3417758 27.8905998,29.9510216 L27.8323586,29.764247 C27.6626953,29.2295508 27.4780899,28.700076 27.298144,28.1756624 C27.2158831,27.9391622 27.1335018,27.708125 27.0460995,27.4767661 C26.9895451,27.3276681 27.1127757,27.1730267 27.267015,27.193592 Z M25.0377753,28.2077956 C25.111039,28.2077956 25.1844229,28.2447087 25.2255534,28.3192577 C25.3386622,28.5351927 25.4576352,28.7461072 25.5810267,28.9569009 C25.8586574,29.4401841 26.1353648,29.9288898 26.4335603,30.4018903 L26.5550643,30.5987058 C26.0645119,30.753576 25.5422674,30.8387006 24.999617,30.8387006 C24.4733073,30.8387006 23.9659983,30.7587903 23.4883531,30.6127642 L23.6168858,30.4069108 C23.9150818,29.9339103 24.1976929,29.4502256 24.480465,28.9669424 C24.6089977,28.7561487 24.7327506,28.540334 24.8510013,28.3192577 C24.8921312,28.2447087 24.9645116,28.2077956 25.0377753,28.2077956 Z" id="Shape" fill-rule="nonzero"></path></svg>