<svg width="100" height="100" xmlns="http://www.w3.org/2000/svg" x="0px" y="0px" viewBox="0 0 50 50">
<title>edb-replicate</title>
<path d="M25,2 C27.193987,2 28.994585,3.7974359 29,5.9902344 L29,5.9902344 L40.0625,12.3125 C40.795541,11.512473 41.838018,11 43,11 C45.197294,11 47,12.802706 47,15 C47,16.850301 45.715786,18.405591 44,18.855469 L44,18.855469 L44,31.144531 C45.715786,31.594409 47,33.149699 47,35 C47,37.197294 45.197294,39 43,39 C41.838018,39 40.795541,38.487527 40.0625,37.6875 L40.0625,37.6875 L29,44.009766 C28.994585,46.202564 27.193987,48 25,48 C22.806013,48 21.005415,46.202564 21,44.009766 L21,44.009766 L9.9375,37.6875 C9.2044591,38.487527 8.1619822,39 7,39 C4.8027056,39 3,37.197294 3,35 C3,33.149699 4.2842135,31.594409 6,31.144531 L6,31.144531 L6,18.855469 C4.2842135,18.405591 3,16.850301 3,15 C3,12.802706 4.8027056,11 7,11 C8.1619822,11 9.2044591,11.512473 9.9375,12.3125 L9.9375,12.3125 L21,5.9902344 C21.005415,3.7974359 22.806013,2 25,2 Z M25,42 C23.883586,42 23,42.883586 23,44 C23,45.116414 23.883586,46 25,46 C26.116414,46 27,45.116414 27,44 C27,42.883586 26.116414,42 25,42 Z M17.7111358,30.2805377 L10.8873652,34.0632292 C10.9609479,34.3636501 11,34.6773395 11,35 C11,35.31828 10.952228,35.624433 10.880859,35.921875 L10.880859,35.921875 L21.548828,42.019531 C22.0797214,41.10222 22.9559667,40.4059074 23.9992367,40.1297641 L24.0003032,33.9451047 C21.4165487,33.6595736 19.1624122,32.2803039 17.7111358,30.2805377 Z M32.2617582,30.3176885 C30.8097918,32.2971205 28.5680018,33.6609915 26.0006955,33.9449943 L25.9997623,40.1294993 C27.0434728,40.4054621 27.9201088,41.1019266 28.451172,42.019531 L28.451172,42.019531 L39.119141,35.921875 C39.047772,35.624433 39,35.31828 39,35 C39,34.694115 39.0350969,34.3962925 39.1014385,34.1101938 L32.2617582,30.3176885 Z M7.0917969,33.009766 C7.03137535,33.0152757 6.97057775,33.0152757 6.9101562,33.009766 C5.837639,33.056819 5,33.914472 5,35 C5,36.116414 5.8835859,37 7,37 C8.1164141,37 9,36.116414 9,35 C9,33.915136 8.1633677,33.05779 7.0917969,33.009766 Z M43.091797,33.009766 C43.0313753,33.0152757 42.9705777,33.0152757 42.910156,33.009766 C41.837639,33.056819 41,33.914472 41,35 C41,36.116414 41.883586,37 43,37 C44.116414,37 45,36.116414 45,35 C45,33.915136 44.163368,33.05779 43.091797,33.009766 Z M40.1257195,17.7596184 L33.3098115,21.5374452 C33.7544511,22.6033071 34,23.772978 34,25 C34,26.273261 33.7355959,27.4847671 33.2586985,28.5826076 L40.0330285,32.3390984 C40.5514858,31.76811 41.2325741,31.3457496 42,31.144531 L42,31.144531 L42,18.855469 C41.2774911,18.6660276 40.6315089,18.2805735 40.1257195,17.7596184 Z M9.72008898,17.9102177 C9.23990877,18.354932 8.65102051,18.6847719 8,18.855469 L8,18.855469 L8,31.144531 C8.75152001,31.341579 9.42024412,31.7506968 9.93452534,32.3037868 L16.7235445,28.5414482 C16.2578452,27.4545159 16,26.2573694 16,25 C16,23.8461194 16.2171476,22.7429563 16.6128073,21.7291463 Z M25,18 C21.1340068,18 18,21.1340068 18,25 C18,28.8659932 21.1340068,32 25,32 C28.8659932,32 32,28.8659932 32,25 C32,21.1340068 28.8659932,18 25,18 Z M21.548828,7.9804688 L10.880859,14.078125 C10.952228,14.375567 11,14.68172 11,15 C11,15.4271065 10.9315734,15.838494 10.8052072,16.2241951 L17.5425262,19.9599308 C18.9843968,17.8306525 21.3142293,16.3517338 24.0003032,16.0548953 L23.9992367,9.87023591 C22.9559667,9.59409262 22.0797214,8.89778011 21.548828,7.9804688 L21.548828,7.9804688 Z M28.451172,7.9804688 C27.9201088,8.89807346 27.0434728,9.59453795 25.9997623,9.87050071 L26.0006955,16.0550057 C28.6137217,16.3440662 30.8895345,17.7517991 32.3385763,19.7886468 L39.134467,16.0217679 C39.0467996,15.695688 39,15.3532194 39,15 C39,14.68172 39.047772,14.375567 39.119141,14.078125 L39.119141,14.078125 Z M7,13 C5.8835859,13 5,13.883586 5,15 C5,16.084864 5.8366323,16.94221 6.9082031,16.990234 C6.93353483,16.9879639 6.95894394,16.986661 6.984375,16.986328 C7.01957551,16.9857728 7.05478079,16.9870766 7.0898438,16.990234 C8.162361,16.943181 9,16.085528 9,15 C9,13.883586 8.1164141,13 7,13 Z M43,13 C41.883586,13 41,13.883586 41,15 C41,16.084864 41.836632,16.94221 42.908203,16.990234 C42.9335348,16.9879639 42.9589439,16.986661 42.984375,16.986328 C43.0195756,16.9857728 43.0547809,16.9870766 43.089844,16.990234 C44.162361,16.943181 45,16.085528 45,15 C45,13.883586 44.116414,13 43,13 Z M25,4 C23.883586,4 23,4.8835859 23,6 C23,7.1164141 23.883586,8 25,8 C26.116414,8 27,7.1164141 27,6 C27,4.8835859 26.116414,4 25,4 Z"></path></svg>