<svg width="100" height="100" xmlns="http://www.w3.org/2000/svg" x="0px" y="0px" viewBox="0 0 50 50">
<title>edb-dashboard</title>
<path d="M 25 2 C 22.806013 2 21.005415 3.7974359 21 5.9902344 L 9.9375 12.3125 C 9.2044591 11.512473 8.1619822 11 7 11 C 4.8027056 11 3 12.802706 3 15 C 3 16.850301 4.2842135 18.405591 6 18.855469 L 6 31.144531 C 4.2842135 31.594409 3 33.149699 3 35 C 3 37.197294 4.8027056 39 7 39 C 8.1619822 39 9.2044591 38.487527 9.9375 37.6875 L 21 44.009766 C 21.005415 46.202564 22.806013 48 25 48 C 27.193987 48 28.994585 46.202564 29 44.009766 L 40.0625 37.6875 C 40.795541 38.487527 41.838018 39 43 39 C 45.197294 39 47 37.197294 47 35 C 47 33.149699 45.715786 31.594409 44 31.144531 L 44 18.855469 C 45.715786 18.405591 47 16.850301 47 15 C 47 12.802706 45.197294 11 43 11 C 41.838018 11 40.795541 11.512473 40.0625 12.3125 L 29 5.9902344 C 28.994585 3.7974359 27.193987 2 25 2 z M 25 4 C 26.116414 4 27 4.8835859 27 6 C 27 7.1164141 26.116414 8 25 8 C 23.883586 8 23 7.1164141 23 6 C 23 4.8835859 23.883586 4 25 4 z M 21.548828 7.9804688 C 22.242368 9.1788112 23.525281 10 25 10 C 26.474719 10 27.757632 9.1788112 28.451172 7.9804688 L 39.119141 14.078125 C 39.047772 14.375567 39 14.68172 39 15 C 39 16.850301 40.284214 18.405591 42 18.855469 L 42 31.144531 C 40.284214 31.594409 39 33.149699 39 35 C 39 35.31828 39.047772 35.624433 39.119141 35.921875 L 28.451172 42.019531 C 27.757632 40.821189 26.474719 40 25 40 C 23.525281 40 22.242368 40.821189 21.548828 42.019531 L 10.880859 35.921875 C 10.952228 35.624433 11 35.31828 11 35 C 11 33.149699 9.7157865 31.594409 8 31.144531 L 8 18.855469 C 9.7157865 18.405591 11 16.850301 11 15 C 11 14.68172 10.952228 14.375567 10.880859 14.078125 L 21.548828 7.9804688 z M 7 13 C 8.1164141 13 9 13.883586 9 15 C 9 16.085528 8.162361 16.943181 7.0898438 16.990234 A 1.0001 1.0001 0 0 0 6.984375 16.986328 A 1.0001 1.0001 0 0 0 6.9082031 16.990234 C 5.8366323 16.94221 5 16.084864 5 15 C 5 13.883586 5.8835859 13 7 13 z M 43 13 C 44.116414 13 45 13.883586 45 15 C 45 16.085528 44.162361 16.943181 43.089844 16.990234 A 1.0001 1.0001 0 0 0 42.984375 16.986328 A 1.0001 1.0001 0 0 0 42.908203 16.990234 C 41.836632 16.94221 41 16.084864 41 15 C 41 13.883586 41.883586 13 43 13 z M 25.636719 15 C 23.354663 15 21.614316 15.792851 20.714844 17.207031 C 19.904723 18.480731 19.892104 20.082538 20.267578 21.726562 C 20.076255 22.061311 19.957405 22.45347 20.011719 22.945312 C 20.074859 23.514837 20.215024 23.967911 20.480469 24.335938 C 20.578209 24.471455 20.753365 24.478888 20.884766 24.578125 C 21.019831 25.110096 21.161244 25.660176 21.425781 26.017578 C 21.611532 26.268535 21.800663 26.479445 21.976562 26.650391 C 21.984163 26.657791 21.9926 26.660779 22 26.667969 L 22 27.660156 C 21.9328 27.811168 21.822992 27.951396 21.474609 28.148438 C 21.089979 28.36598 20.514864 28.588357 19.890625 28.892578 C 19.266386 29.1968 18.577834 29.594686 18.015625 30.251953 C 17.453416 30.90922 17.063913 31.825238 17.001953 32.945312 A 1.0001 1.0001 0 0 0 18 34 L 32 34 A 1.0001 1.0001 0 0 0 32.998047 32.945312 C 32.936087 31.825239 32.546551 30.909284 31.984375 30.251953 C 31.422199 29.594622 30.733635 29.196878 30.109375 28.892578 C 29.485115 28.588278 28.910089 28.364029 28.525391 28.146484 C 28.177008 27.949476 28.067147 27.810888 28 27.660156 L 28 26.65625 C 28.0097 26.64645 28.02117 26.640999 28.03125 26.630859 C 28.204238 26.456801 28.391071 26.244369 28.572266 25.994141 C 28.828242 25.640639 28.963567 25.108457 29.097656 24.59375 C 29.229448 24.49445 29.403997 24.487375 29.501953 24.351562 C 29.767766 23.983026 29.910125 23.530591 29.972656 22.960938 C 30.014736 22.579874 29.979556 22.223445 29.847656 21.892578 C 29.829946 21.848158 29.751986 21.824218 29.730469 21.779297 C 30.009576 20.634421 30.100515 19.413462 29.658203 18.292969 C 29.236023 17.223464 28.144477 16.489826 26.78125 16.224609 L 26.576172 15.658203 A 1.0001 1.0001 0 0 0 25.636719 15 z M 24.976562 17.111328 L 25.060547 17.341797 A 1.0001 1.0001 0 0 0 26 18 C 27.193111 18 27.538713 18.373344 27.796875 19.027344 C 28.055037 19.681344 28.026996 20.746091 27.730469 21.705078 A 1.0001 1.0001 0 0 0 27.986328 22.712891 C 27.986722 22.731991 27.987575 22.713251 27.984375 22.742188 C 27.953395 23.024428 27.910077 23.080602 27.898438 23.105469 A 1.0001 1.0001 0 0 0 27.316406 24.011719 C 27.316406 24.133233 27.179986 24.508972 26.953125 24.822266 C 26.839694 24.978913 26.713199 25.12212 26.613281 25.222656 C 26.513361 25.323192 26.386323 25.399101 26.503906 25.332031 A 1.0001 1.0001 0 0 0 26 26.199219 L 26 27.933594 A 1.0001 1.0001 0 0 0 26.054688 28.257812 C 26.328761 29.058571 26.956356 29.559154 27.539062 29.888672 C 28.121771 30.21819 28.715557 30.437503 29.232422 30.689453 C 29.749287 30.941403 30.173864 31.212503 30.464844 31.552734 C 30.551504 31.654067 30.555734 31.878936 30.625 32 L 19.375 32 C 19.44425 31.878963 19.4485 31.654039 19.535156 31.552734 C 19.826103 31.212595 20.250692 30.94331 20.767578 30.691406 C 21.284464 30.439503 21.878162 30.218284 22.460938 29.888672 C 23.043713 29.559059 23.671329 29.058726 23.945312 28.257812 A 1.0001 1.0001 0 0 0 24 27.933594 L 24 26.199219 A 1.0001 1.0001 0 0 0 23.492188 25.330078 C 23.59273 25.386858 23.471378 25.314258 23.371094 25.216797 C 23.270808 25.119337 23.146203 24.980793 23.033203 24.828125 C 22.807204 24.522789 22.666016 24.160996 22.666016 23.996094 A 1.0001 1.0001 0 0 0 22.085938 23.089844 C 22.074068 23.064624 22.029357 23.008975 21.998047 22.726562 C 21.993758 22.687722 22.001955 22.700371 22.007812 22.6875 A 1.0001 1.0001 0 0 0 22.257812 21.708984 C 21.829708 20.215104 21.927816 19.02732 22.402344 18.28125 C 22.803508 17.650526 23.64661 17.244575 24.976562 17.111328 z M 6.9101562 33.009766 A 1.0001 1.0001 0 0 0 7.0917969 33.009766 C 8.1633677 33.05779 9 33.915136 9 35 C 9 36.116414 8.1164141 37 7 37 C 5.8835859 37 5 36.116414 5 35 C 5 33.914472 5.837639 33.056819 6.9101562 33.009766 z M 42.910156 33.009766 A 1.0001 1.0001 0 0 0 43.091797 33.009766 C 44.163368 33.05779 45 33.915136 45 35 C 45 36.116414 44.116414 37 43 37 C 41.883586 37 41 36.116414 41 35 C 41 33.914472 41.837639 33.056819 42.910156 33.009766 z M 25 42 C 26.116414 42 27 42.883586 27 44 C 27 45.116414 26.116414 46 25 46 C 23.883586 46 23 45.116414 23 44 C 23 42.883586 23.883586 42 25 42 z"/></svg>