<svg width="100" height="100" xmlns="http://www.w3.org/2000/svg" x="0px" y="0px" viewBox="0 0 50 50">
<title>edb-replication</title>
<path d="M25,2 C22.806013,2 21.005415,3.7974359 21,5.9902344 L9.9375,12.3125 C9.2044591,11.512473 8.1619822,11 7,11 C4.8027056,11 3,12.802706 3,15 C3,16.850301 4.2842135,18.405591 6,18.855469 L6,31.144531 C4.2842135,31.594409 3,33.149699 3,35 C3,37.197294 4.8027056,39 7,39 C8.1619822,39 9.2044591,38.487527 9.9375,37.6875 L21,44.009766 C21.005415,46.202564 22.806013,48 25,48 C27.193987,48 28.994585,46.202564 29,44.009766 L40.0625,37.6875 C40.795541,38.487527 41.838018,39 43,39 C45.197294,39 47,37.197294 47,35 C47,33.149699 45.715786,31.594409 44,31.144531 L44,18.855469 C45.715786,18.405591 47,16.850301 47,15 C47,12.802706 45.197294,11 43,11 C41.838018,11 40.795541,11.512473 40.0625,12.3125 L29,5.9902344 C28.994585,3.7974359 27.193987,2 25,2 Z M25,4 C26.116414,4 27,4.8835859 27,6 C27,7.1164141 26.116414,8 25,8 C23.883586,8 23,7.1164141 23,6 C23,4.8835859 23.883586,4 25,4 Z M21.548828,7.9804688 C22.242368,9.1788112 23.525281,10 25,10 C26.474719,10 27.757632,9.1788112 28.451172,7.9804688 L39.119141,14.078125 C39.047772,14.375567 39,14.68172 39,15 C39,16.850301 40.284214,18.405591 42,18.855469 L42,31.144531 C40.284214,31.594409 39,33.149699 39,35 C39,35.31828 39.047772,35.624433 39.119141,35.921875 L28.451172,42.019531 C27.757632,40.821189 26.474719,40 25,40 C23.525281,40 22.242368,40.821189 21.548828,42.019531 L10.880859,35.921875 C10.952228,35.624433 11,35.31828 11,35 C11,33.149699 9.7157865,31.594409 8,31.144531 L8,18.855469 C9.7157865,18.405591 11,16.850301 11,15 C11,14.68172 10.952228,14.375567 10.880859,14.078125 L21.548828,7.9804688 Z M7,13 C8.1164141,13 9,13.883586 9,15 C9,16.085528 8.162361,16.943181 7.0898438,16.990234 C7.05478079,16.9870766 7.01957551,16.9857728 6.984375,16.986328 C6.95894394,16.986661 6.93353483,16.9879639 6.9082031,16.990234 C5.8366323,16.94221 5,16.084864 5,15 C5,13.883586 5.8835859,13 7,13 Z M43,13 C44.116414,13 45,13.883586 45,15 C45,16.085528 44.162361,16.943181 43.089844,16.990234 C43.0547809,16.9870766 43.0195756,16.9857728 42.984375,16.986328 C42.9589439,16.986661 42.9335348,16.9879639 42.908203,16.990234 C41.836632,16.94221 41,16.084864 41,15 C41,13.883586 41.883586,13 43,13 Z M6.9101562,33.009766 C6.97057775,33.0152757 7.03137535,33.0152757 7.0917969,33.009766 C8.1633677,33.05779 9,33.915136 9,35 C9,36.116414 8.1164141,37 7,37 C5.8835859,37 5,36.116414 5,35 C5,33.914472 5.837639,33.056819 6.9101562,33.009766 Z M42.910156,33.009766 C42.9705777,33.0152757 43.0313753,33.0152757 43.091797,33.009766 C44.163368,33.05779 45,33.915136 45,35 C45,36.116414 44.116414,37 43,37 C41.883586,37 41,36.116414 41,35 C41,33.914472 41.837639,33.056819 42.910156,33.009766 Z M25,42 C26.116414,42 27,42.883586 27,44 C27,45.116414 26.116414,46 25,46 C23.883586,46 23,45.116414 23,44 C23,42.883586 23.883586,42 25,42 Z" id="Shape" fill-rule="nonzero"></path><path d="M19.0145185,14 L13.3074875,19.707031 C13.0462467,19.9578476 12.9410119,20.330298 13.0323687,20.6807401 C13.1237256,21.0311821 13.3973984,21.304855 13.7478405,21.3962118 C14.0982825,21.4875686 14.470733,21.3823338 14.7215495,21.121093 L18.0145185,17.828124 L18.0145185,35.414062 C18.0094183,35.7746979 18.1988938,36.1101434 18.5103914,36.2919497 C18.8218889,36.4737561 19.2071481,36.4737561 19.5186457,36.2919497 C19.8301432,36.1101434 20.0196188,35.7746979 20.0145185,35.414062 L20.0145185,17.828124 L23.3074875,21.121093 C23.5583041,21.3823338 23.9307545,21.4875686 24.2811966,21.3962118 C24.6316387,21.304855 24.9053115,21.0311821 24.9966684,20.6807401 C25.0880252,20.330298 24.9827903,19.9578476 24.7215495,19.707031 L19.0145185,14 Z M30.9988935,14.4002679 C30.4473773,14.4090111 30.0069658,14.8625301 30.0145185,15.414062 L30.0145185,33 L26.7215495,29.707031 C26.5332785,29.513498 26.2747544,29.4043118 26.0047525,29.404296 C25.5978295,29.404403 25.2315436,29.6510517 25.0784218,30.0280664 C24.9252999,30.4050811 25.0158761,30.8372811 25.3074875,31.121093 L31.0145185,36.828124 L36.7215495,31.121093 C36.9827903,30.8702764 37.0880252,30.497826 36.9966684,30.1473839 C36.9053115,29.7969419 36.6316387,29.523269 36.2811966,29.4319122 C35.9307545,29.3405554 35.5583041,29.4457902 35.3074875,29.707031 L32.0145185,33 L32.0145185,15.414062 C32.01822,15.1437617 31.9123419,14.8834753 31.7210089,14.6925103 C31.5296759,14.5015452 31.2691862,14.3961683 30.9988935,14.4002679 Z" id="Shape" fill-rule="nonzero" transform="translate(25.014519, 25.414062) rotate(90.000000) translate(-25.014519, -25.414062) "></path></svg>