<svg width="100" height="100" xmlns="http://www.w3.org/2000/svg" x="0px" y="0px" viewBox="0 0 50 50">
<title>edb-epas</title>
<path d="M25,2 C22.806013,2 21.005415,3.7974359 21,5.9902344 L9.9375,12.3125 C9.2044591,11.512473 8.1619822,11 7,11 C4.8027056,11 3,12.802706 3,15 C3,16.850301 4.2842135,18.405591 6,18.855469 L6,31.144531 C4.2842135,31.594409 3,33.149699 3,35 C3,37.197294 4.8027056,39 7,39 C8.1619822,39 9.2044591,38.487527 9.9375,37.6875 L21,44.009766 C21.005415,46.202564 22.806013,48 25,48 C27.193987,48 28.994585,46.202564 29,44.009766 L40.0625,37.6875 C40.795541,38.487527 41.838018,39 43,39 C45.197294,39 47,37.197294 47,35 C47,33.149699 45.715786,31.594409 44,31.144531 L44,18.855469 C45.715786,18.405591 47,16.850301 47,15 C47,12.802706 45.197294,11 43,11 C41.838018,11 40.795541,11.512473 40.0625,12.3125 L29,5.9902344 C28.994585,3.7974359 27.193987,2 25,2 Z M25,4 C26.116414,4 27,4.8835859 27,6 C27,7.1164141 26.116414,8 25,8 C23.883586,8 23,7.1164141 23,6 C23,4.8835859 23.883586,4 25,4 Z M21.548828,7.9804688 C22.242368,9.1788112 23.525281,10 25,10 C26.474719,10 27.757632,9.1788112 28.451172,7.9804688 L39.119141,14.078125 C39.047772,14.375567 39,14.68172 39,15 C39,16.850301 40.284214,18.405591 42,18.855469 L42,31.144531 C40.284214,31.594409 39,33.149699 39,35 C39,35.31828 39.047772,35.624433 39.119141,35.921875 L28.451172,42.019531 C27.757632,40.821189 26.474719,40 25,40 C23.525281,40 22.242368,40.821189 21.548828,42.019531 L10.880859,35.921875 C10.952228,35.624433 11,35.31828 11,35 C11,33.149699 9.7157865,31.594409 8,31.144531 L8,18.855469 C9.7157865,18.405591 11,16.850301 11,15 C11,14.68172 10.952228,14.375567 10.880859,14.078125 L21.548828,7.9804688 Z M7,13 C8.1164141,13 9,13.883586 9,15 C9,16.085528 8.162361,16.943181 7.0898438,16.990234 C7.05478079,16.9870766 7.01957551,16.9857728 6.984375,16.986328 C6.95894394,16.986661 6.93353483,16.9879639 6.9082031,16.990234 C5.8366323,16.94221 5,16.084864 5,15 C5,13.883586 5.8835859,13 7,13 Z M43,13 C44.116414,13 45,13.883586 45,15 C45,16.085528 44.162361,16.943181 43.089844,16.990234 C43.0547809,16.9870766 43.0195756,16.9857728 42.984375,16.986328 C42.9589439,16.986661 42.9335348,16.9879639 42.908203,16.990234 C41.836632,16.94221 41,16.084864 41,15 C41,13.883586 41.883586,13 43,13 Z M6.9101562,33.009766 C6.97057775,33.0152757 7.03137535,33.0152757 7.0917969,33.009766 C8.1633677,33.05779 9,33.915136 9,35 C9,36.116414 8.1164141,37 7,37 C5.8835859,37 5,36.116414 5,35 C5,33.914472 5.837639,33.056819 6.9101562,33.009766 Z M42.910156,33.009766 C42.9705777,33.0152757 43.0313753,33.0152757 43.091797,33.009766 C44.163368,33.05779 45,33.915136 45,35 C45,36.116414 44.116414,37 43,37 C41.883586,37 41,36.116414 41,35 C41,33.914472 41.837639,33.056819 42.910156,33.009766 Z M25,42 C26.116414,42 27,42.883586 27,44 C27,45.116414 26.116414,46 25,46 C23.883586,46 23,45.116414 23,44 C23,42.883586 23.883586,42 25,42 Z" id="Shape" fill-rule="nonzero"></path><path d="M25,14 C22.446754,14 20.307206,14.456516 18.716797,15.283203 C17.126388,16.10989 16,17.421546 16,19 L16,23 L16,27 L16,31 C16,32.578454 17.126388,33.89011 18.716797,34.716797 C20.307206,35.543484 22.446754,36 25,36 C27.553246,36 29.692794,35.543484 31.283203,34.716797 C32.873612,33.89011 34,32.578454 34,31 L34,27 L34,23 L34,19 C34,17.421546 32.873612,16.10989 31.283203,15.283203 C29.692794,14.456516 27.553246,14 25,14 Z M25,16 C27.307754,16 29.166987,16.437781 30.361328,17.058594 C31.555669,17.679407 32,18.368454 32,19 C32,19.631546 31.555669,20.320593 30.361328,20.941406 C29.166987,21.562219 27.307754,22 25,22 C22.692246,22 20.833013,21.562219 19.638672,20.941406 C18.444331,20.320593 18,19.631546 18,19 C18,18.368454 18.444331,17.679407 19.638672,17.058594 C20.833013,16.437781 22.692246,16 25,16 Z M18,22.283203 C18.226833,22.438365 18.463816,22.585299 18.716797,22.716797 C20.307206,23.543484 22.446754,24 25,24 C27.553246,24 29.692794,23.543484 31.283203,22.716797 C31.536184,22.585299 31.773167,22.438365 32,22.283203 L32,23 C32,23.631546 31.555669,24.320593 30.361328,24.941406 C29.166987,25.562219 27.307754,26 25,26 C22.692246,26 20.833013,25.562219 19.638672,24.941406 C18.444331,24.320593 18,23.631546 18,23 L18,22.283203 Z M18,26.283203 C18.226833,26.438365 18.463816,26.585299 18.716797,26.716797 C20.307206,27.543484 22.446754,28 25,28 C27.553246,28 29.692794,27.543484 31.283203,26.716797 C31.536184,26.585299 31.773167,26.438365 32,26.283203 L32,27 C32,27.631546 31.555669,28.320593 30.361328,28.941406 C29.166987,29.562219 27.307754,30 25,30 C22.692246,30 20.833013,29.562219 19.638672,28.941406 C18.444331,28.320593 18,27.631546 18,27 L18,26.283203 Z M18,30.283203 C18.226833,30.438365 18.463816,30.585299 18.716797,30.716797 C20.307206,31.543484 22.446754,32 25,32 C27.553246,32 29.692794,31.543484 31.283203,30.716797 C31.536184,30.585299 31.773167,30.438365 32,30.283203 L32,31 C32,31.631546 31.555669,32.320593 30.361328,32.941406 C29.166987,33.562219 27.307754,34 25,34 C22.692246,34 20.833013,33.562219 19.638672,32.941406 C18.444331,32.320593 18,31.631546 18,31 L18,30.283203 Z" id="Shape" fill-rule="nonzero"></path></svg>