<?xml version="1.0" encoding="utf-8"?>
<!-- Generator: Adobe Illustrator 26.0.1, SVG Export Plug-In . SVG Version: 6.00 Build 0)  -->
<svg version="1.1" id="Layer_1" xmlns="http://www.w3.org/2000/svg" xmlns:xlink="http://www.w3.org/1999/xlink" x="0px" y="0px"
	 viewBox="0 0 266 100" style="enable-background:new 0 0 266 100;" xml:space="preserve">
<style type="text/css">
	.st0{fill-rule:evenodd;clip-rule:evenodd;}
	.st1{fill-rule:evenodd;clip-rule:evenodd;fill:#FF3E00;}
	.st2{fill-rule:evenodd;clip-rule:evenodd;fill:#FFFFFF;}
</style>
<g id="edb-docs-logo-disc-dark">
	<g id="logo" transform="translate(6.500000, 2.000000)">
		<g id="type" transform="translate(113.000000, 23.000000)">
			<path id="Fill-17" class="st0" d="M123.6,40.2c5.9,0,8.2-2,8.2-5.9c0-3.6-2.6-6.1-8.4-6.1h-13.1v12H123.6z M110.3,9.6v10.1h13.5
				c4.6,0,6.3-2.3,6.3-4.9c0-2.8-2.1-5.1-7-5.1H110.3z M100.7,49.6c-0.5,0-0.9-0.5-0.9-1V1.1c0-0.5,0.5-1,0.9-1h23.7
				c10.5,0,16.1,5.9,16.1,13.6c0,4-1.5,7.1-4,9.3v0.2c3.6,2.5,5.8,6.4,5.8,11.6c0,9.5-6.5,14.9-17.6,14.9H100.7z"/>
			<path id="Fill-15" class="st0" d="M57.8,9.6v30.7h10.1c9.8,0,15-5.9,15-15.3c0-9.4-6.3-15.3-15.2-15.3H57.8z M48.2,49.6
				c-0.5,0-0.9-0.5-0.9-1V1.1c0-0.5,0.5-1,0.9-1h19.6c14.7,0,25.7,9.7,25.7,24.8c0,14.9-9.3,24.8-25.5,24.8H48.2z"/>
			<path id="Fill-13" class="st0" d="M10.9,29v11.2h27.2c0.5,0,1.1,0.7,1.1,1.2v7.1c0,0.5-0.6,1.2-1.1,1.2H1.3c-0.5,0-0.9-0.5-0.9-1
				V1.1c0-0.5,0.5-1,0.9-1h36.4c0.5,0,1.1,0.7,1.1,1.2v7.1c0,0.5-0.6,1.2-1.1,1.2H10.9v10.1h24.4c0.5,0,1.1,0.7,1.1,1.2v7.1
				c0,0.5-0.6,1.2-1.1,1.2H10.9z"/>
		</g>
		<g id="symbol">
			<circle id="Oval" class="st1" cx="48" cy="48" r="48"/>
			<path id="Fill-20" class="st2" d="M78,38.6L78,38.6c0-4.6-3.9-8-8.6-7.5l-7.3,0.7c-0.8,0.1-1.4,0.7-1.4,1.5v12.5v1.6v12.5
				c0,0.7,0.6,1.3,1.4,1.2l7.3-0.7c4.8-0.5,8.6-4.6,8.6-9.2l0,0c0-2.5-1.1-4.6-2.9-6C76.9,43.4,78,41,78,38.6"/>
			<path id="Fill-23" class="st2" d="M33.9,31.8L26.6,31c-4.8-0.5-8.6,2.9-8.6,7.5c0,2.5,1.1,4.8,2.9,6.5c-1.8,1.4-2.9,3.5-2.9,6
				l0,0c0,4.6,3.9,8.8,8.6,9.2l7.3,0.7c0.8,0.1,1.4-0.5,1.4-1.2V47.3v-1.6V33.2C35.3,32.5,34.7,31.8,33.9,31.8"/>
			<path id="Fill-26" class="st2" d="M48,39h-7.3c-0.8,0-1.4,0.6-1.4,1.3v18.1v1.8c0,0.8,0.6,1.6,1.4,1.6H48c-0.1,1.4-2.1,2.5-7,3.1
				l-0.6,0c-0.3,0-1.1,0-1.1,1.4v0.4c0,0.7,0.6,1.4,1.4,1.4H48c4.8,0,8.7-3.8,8.7-8.3V47.3C56.6,42.7,52.8,39,48,39"/>
		</g>
	</g>
</g>
</svg>
