<svg width="100" height="100" xmlns="http://www.w3.org/2000/svg" x="0px" y="0px" viewBox="0 0 50 50"> 
<title>enterprise</title>
<path d="M 19 3 L 19 4 L 15 4 L 15 6.332031 L 3 11.332031 L 3 47 L 5 47 L 5 12.667969 L 15 8.5 L 15 47 L 17 47 L 17 6 L 21 6 L 21 5 L 28 5 L 28 6 L 32 6 L 32 47 L 34 47 L 34 14 L 45 14 L 45 47 L 47 47 L 47 12 L 34 12 L 34 4 L 30 4 L 30 3 Z M 19 8 L 19 9 L 20 9 L 20 8 Z M 21 8 L 21 9 L 22 9 L 22 8 Z M 23 8 L 23 9 L 24 9 L 24 8 Z M 25 8 L 25 9 L 26 9 L 26 8 Z M 27 8 L 27 9 L 28 9 L 28 8 Z M 29 8 L 29 9 L 30 9 L 30 8 Z M 19 10 L 19 11 L 20 11 L 20 10 Z M 21 10 L 21 11 L 22 11 L 22 10 Z M 23 10 L 23 11 L 24 11 L 24 10 Z M 25 10 L 25 11 L 26 11 L 26 10 Z M 27 10 L 27 11 L 28 11 L 28 10 Z M 29 10 L 29 11 L 30 11 L 30 10 Z M 14 10.96875 L 13 11.355469 L 13 14 L 14 14 Z M 12 11.734375 L 11 12.121094 L 11 14 L 12 14 Z M 19 12 L 19 13 L 20 13 L 20 12 Z M 21 12 L 21 13 L 22 13 L 22 12 Z M 23 12 L 23 13 L 24 13 L 24 12 Z M 25 12 L 25 13 L 26 13 L 26 12 Z M 27 12 L 27 13 L 28 13 L 28 12 Z M 29 12 L 29 13 L 30 13 L 30 12 Z M 10 12.5 L 9 12.886719 L 9 14 L 10 14 Z M 8 13.265625 L 7 13.652344 L 7 14 L 8 14 Z M 19 14 L 19 15 L 20 15 L 20 14 Z M 21 14 L 21 15 L 22 15 L 22 14 Z M 23 14 L 23 15 L 24 15 L 24 14 Z M 25 14 L 25 15 L 26 15 L 26 14 Z M 27 14 L 27 15 L 28 15 L 28 14 Z M 29 14 L 29 15 L 30 15 L 30 14 Z M 7 15 L 7 17 L 8 17 L 8 15 Z M 9 15 L 9 17 L 10 17 L 10 15 Z M 11 15 L 11 17 L 12 17 L 12 15 Z M 13 15 L 13 17 L 14 17 L 14 15 Z M 19 16 L 19 17 L 20 17 L 20 16 Z M 21 16 L 21 17 L 22 17 L 22 16 Z M 23 16 L 23 17 L 24 17 L 24 16 Z M 25 16 L 25 17 L 26 17 L 26 16 Z M 27 16 L 27 17 L 28 17 L 28 16 Z M 29 16 L 29 17 L 30 17 L 30 16 Z M 35 16 L 35 17 L 37 17 L 37 16 Z M 38 16 L 38 17 L 40 17 L 40 16 Z M 41 16 L 41 17 L 43 17 L 43 16 Z M 7 18 L 7 20 L 8 20 L 8 18 Z M 9 18 L 9 20 L 10 20 L 10 18 Z M 11 18 L 11 20 L 12 20 L 12 18 Z M 13 18 L 13 20 L 14 20 L 14 18 Z M 19 18 L 19 19 L 20 19 L 20 18 Z M 21 18 L 21 19 L 22 19 L 22 18 Z M 23 18 L 23 19 L 24 19 L 24 18 Z M 25 18 L 25 19 L 26 19 L 26 18 Z M 27 18 L 27 19 L 28 19 L 28 18 Z M 29 18 L 29 19 L 30 19 L 30 18 Z M 35 18 L 35 19 L 37 19 L 37 18 Z M 38 18 L 38 19 L 40 19 L 40 18 Z M 41 18 L 41 19 L 43 19 L 43 18 Z M 19 20 L 19 21 L 20 21 L 20 20 Z M 21 20 L 21 21 L 22 21 L 22 20 Z M 23 20 L 23 21 L 24 21 L 24 20 Z M 25 20 L 25 21 L 26 21 L 26 20 Z M 27 20 L 27 21 L 28 21 L 28 20 Z M 29 20 L 29 21 L 30 21 L 30 20 Z M 35 20 L 35 21 L 37 21 L 37 20 Z M 38 20 L 38 21 L 40 21 L 40 20 Z M 41 20 L 41 21 L 43 21 L 43 20 Z M 7 21 L 7 23 L 8 23 L 8 21 Z M 9 21 L 9 23 L 10 23 L 10 21 Z M 11 21 L 11 23 L 12 23 L 12 21 Z M 13 21 L 13 23 L 14 23 L 14 21 Z M 19 22 L 19 23 L 20 23 L 20 22 Z M 21 22 L 21 23 L 22 23 L 22 22 Z M 23 22 L 23 23 L 24 23 L 24 22 Z M 25 22 L 25 23 L 26 23 L 26 22 Z M 27 22 L 27 23 L 28 23 L 28 22 Z M 29 22 L 29 23 L 30 23 L 30 22 Z M 35 22 L 35 23 L 37 23 L 37 22 Z M 38 22 L 38 23 L 40 23 L 40 22 Z M 41 22 L 41 23 L 43 23 L 43 22 Z M 7 24 L 7 26 L 8 26 L 8 24 Z M 9 24 L 9 26 L 10 26 L 10 24 Z M 11 24 L 11 26 L 12 26 L 12 24 Z M 13 24 L 13 26 L 14 26 L 14 24 Z M 19 24 L 19 25 L 20 25 L 20 24 Z M 21 24 L 21 25 L 22 25 L 22 24 Z M 23 24 L 23 25 L 24 25 L 24 24 Z M 25 24 L 25 25 L 26 25 L 26 24 Z M 27 24 L 27 25 L 28 25 L 28 24 Z M 29 24 L 29 25 L 30 25 L 30 24 Z M 35 24 L 35 25 L 37 25 L 37 24 Z M 38 24 L 38 25 L 40 25 L 40 24 Z M 41 24 L 41 25 L 43 25 L 43 24 Z M 19 26 L 19 27 L 20 27 L 20 26 Z M 21 26 L 21 27 L 22 27 L 22 26 Z M 23 26 L 23 27 L 24 27 L 24 26 Z M 25 26 L 25 27 L 26 27 L 26 26 Z M 27 26 L 27 27 L 28 27 L 28 26 Z M 29 26 L 29 27 L 30 27 L 30 26 Z M 35 26 L 35 27 L 37 27 L 37 26 Z M 38 26 L 38 27 L 40 27 L 40 26 Z M 41 26 L 41 27 L 43 27 L 43 26 Z M 7 27 L 7 29 L 8 29 L 8 27 Z M 9 27 L 9 29 L 10 29 L 10 27 Z M 11 27 L 11 29 L 12 29 L 12 27 Z M 13 27 L 13 29 L 14 29 L 14 27 Z M 19 28 L 19 29 L 20 29 L 20 28 Z M 21 28 L 21 29 L 22 29 L 22 28 Z M 23 28 L 23 29 L 24 29 L 24 28 Z M 25 28 L 25 29 L 26 29 L 26 28 Z M 27 28 L 27 29 L 28 29 L 28 28 Z M 29 28 L 29 29 L 30 29 L 30 28 Z M 35 28 L 35 29 L 37 29 L 37 28 Z M 38 28 L 38 29 L 40 29 L 40 28 Z M 41 28 L 41 29 L 43 29 L 43 28 Z M 7 30 L 7 32 L 8 32 L 8 30 Z M 9 30 L 9 32 L 10 32 L 10 30 Z M 11 30 L 11 32 L 12 32 L 12 30 Z M 13 30 L 13 32 L 14 32 L 14 30 Z M 19 30 L 19 31 L 20 31 L 20 30 Z M 21 30 L 21 31 L 22 31 L 22 30 Z M 23 30 L 23 31 L 24 31 L 24 30 Z M 25 30 L 25 31 L 26 31 L 26 30 Z M 27 30 L 27 31 L 28 31 L 28 30 Z M 29 30 L 29 31 L 30 31 L 30 30 Z M 35 30 L 35 31 L 37 31 L 37 30 Z M 38 30 L 38 31 L 40 31 L 40 30 Z M 41 30 L 41 31 L 43 31 L 43 30 Z M 19 32 L 19 33 L 20 33 L 20 32 Z M 21 32 L 21 33 L 22 33 L 22 32 Z M 23 32 L 23 33 L 24 33 L 24 32 Z M 25 32 L 25 33 L 26 33 L 26 32 Z M 27 32 L 27 33 L 28 33 L 28 32 Z M 29 32 L 29 33 L 30 33 L 30 32 Z M 35 32 L 35 33 L 37 33 L 37 32 Z M 38 32 L 38 33 L 40 33 L 40 32 Z M 41 32 L 41 33 L 43 33 L 43 32 Z M 7 33 L 7 35 L 8 35 L 8 33 Z M 9 33 L 9 35 L 10 35 L 10 33 Z M 11 33 L 11 35 L 12 35 L 12 33 Z M 13 33 L 13 35 L 14 35 L 14 33 Z M 19 34 L 19 35 L 20 35 L 20 34 Z M 21 34 L 21 35 L 22 35 L 22 34 Z M 23 34 L 23 35 L 24 35 L 24 34 Z M 25 34 L 25 35 L 26 35 L 26 34 Z M 27 34 L 27 35 L 28 35 L 28 34 Z M 29 34 L 29 35 L 30 35 L 30 34 Z M 35 34 L 35 35 L 37 35 L 37 34 Z M 38 34 L 38 35 L 40 35 L 40 34 Z M 41 34 L 41 35 L 43 35 L 43 34 Z M 7 36 L 7 38 L 8 38 L 8 36 Z M 9 36 L 9 38 L 10 38 L 10 36 Z M 11 36 L 11 38 L 12 38 L 12 36 Z M 13 36 L 13 38 L 14 38 L 14 36 Z M 19 36 L 19 37 L 20 37 L 20 36 Z M 21 36 L 21 37 L 22 37 L 22 36 Z M 23 36 L 23 37 L 24 37 L 24 36 Z M 25 36 L 25 37 L 26 37 L 26 36 Z M 27 36 L 27 37 L 28 37 L 28 36 Z M 29 36 L 29 37 L 30 37 L 30 36 Z M 35 36 L 35 37 L 37 37 L 37 36 Z M 38 36 L 38 37 L 40 37 L 40 36 Z M 41 36 L 41 37 L 43 37 L 43 36 Z M 19 38 L 19 39 L 20 39 L 20 38 Z M 21 38 L 21 39 L 22 39 L 22 38 Z M 23 38 L 23 39 L 24 39 L 24 38 Z M 25 38 L 25 39 L 26 39 L 26 38 Z M 27 38 L 27 39 L 28 39 L 28 38 Z M 29 38 L 29 39 L 30 39 L 30 38 Z M 35 38 L 35 39 L 37 39 L 37 38 Z M 38 38 L 38 39 L 40 39 L 40 38 Z M 41 38 L 41 39 L 43 39 L 43 38 Z M 7 39 L 7 41 L 8 41 L 8 39 Z M 9 39 L 9 41 L 10 41 L 10 39 Z M 11 39 L 11 41 L 12 41 L 12 39 Z M 13 39 L 13 41 L 14 41 L 14 39 Z M 19 40 L 19 41 L 20 41 L 20 40 Z M 21 40 L 21 41 L 22 41 L 22 40 Z M 23 40 L 23 41 L 24 41 L 24 40 Z M 25 40 L 25 41 L 26 41 L 26 40 Z M 27 40 L 27 41 L 28 41 L 28 40 Z M 29 40 L 29 41 L 30 41 L 30 40 Z M 35 40 L 35 41 L 37 41 L 37 40 Z M 38 40 L 38 41 L 40 41 L 40 40 Z M 41 40 L 41 41 L 43 41 L 43 40 Z M 7 42 L 7 44 L 8 44 L 8 42 Z M 9 42 L 9 44 L 10 44 L 10 42 Z M 11 42 L 11 44 L 12 44 L 12 42 Z M 13 42 L 13 44 L 14 44 L 14 42 Z M 19 42 L 19 43 L 20 43 L 20 42 Z M 21 42 L 21 43 L 22 43 L 22 42 Z M 23 42 L 23 43 L 24 43 L 24 42 Z M 25 42 L 25 43 L 26 43 L 26 42 Z M 27 42 L 27 43 L 28 43 L 28 42 Z M 29 42 L 29 43 L 30 43 L 30 42 Z M 35 42 L 35 43 L 37 43 L 37 42 Z M 38 42 L 38 43 L 40 43 L 40 42 Z M 41 42 L 41 43 L 43 43 L 43 42 Z M 19 44 L 19 45 L 20 45 L 20 44 Z M 21 44 L 21 45 L 22 45 L 22 44 Z M 23 44 L 23 45 L 24 45 L 24 44 Z M 25 44 L 25 45 L 26 45 L 26 44 Z M 27 44 L 27 45 L 28 45 L 28 44 Z M 29 44 L 29 45 L 30 45 L 30 44 Z M 35 44 L 35 45 L 37 45 L 37 44 Z M 38 44 L 38 45 L 40 45 L 40 44 Z M 41 44 L 41 45 L 43 45 L 43 44 Z M 7 45 L 7 47 L 8 47 L 8 45 Z M 9 45 L 9 47 L 10 47 L 10 45 Z M 11 45 L 11 47 L 12 47 L 12 45 Z M 13 45 L 13 47 L 14 47 L 14 45 Z M 19 46 L 19 47 L 20 47 L 20 46 Z M 21 46 L 21 47 L 22 47 L 22 46 Z M 23 46 L 23 47 L 24 47 L 24 46 Z M 25 46 L 25 47 L 26 47 L 26 46 Z M 27 46 L 27 47 L 28 47 L 28 46 Z M 29 46 L 29 47 L 30 47 L 30 46 Z M 35 46 L 35 47 L 37 47 L 37 46 Z M 38 46 L 38 47 L 40 47 L 40 46 Z M 41 46 L 41 47 L 43 47 L 43 46 Z" /></svg>