<svg width="100" height="100" xmlns="http://www.w3.org/2000/svg" x="0px" y="0px" viewBox="0 0 50 50">
<title>gui</title><path d="M 2.84375 3 C 1.285156 3 0 4.285156 0 5.84375 L 0 10.8125 C -0.0078125 10.875 -0.0078125 10.9375 0 11 L 0 46 C 0 46.550781 0.449219 47 1 47 L 49 47 C 49.550781 47 50 46.550781 50 46 L 50 11 C 50 10.96875 50 10.9375 50 10.90625 L 50 5.84375 C 50 4.285156 48.714844 3 47.15625 3 Z M 2.84375 5 L 47.15625 5 C 47.636719 5 48 5.363281 48 5.84375 L 48 10 L 2 10 L 2 5.84375 C 2 5.363281 2.363281 5 2.84375 5 Z M 2 12 L 48 12 L 48 45 L 2 45 Z M 7.71875 17 C 7.167969 17.078125 6.78125 17.589844 6.859375 18.140625 C 6.9375 18.691406 7.449219 19.078125 8 19 L 20 19 C 20.359375 19.003906 20.695313 18.816406 20.878906 18.503906 C 21.058594 18.191406 21.058594 17.808594 20.878906 17.496094 C 20.695313 17.183594 20.359375 16.996094 20 17 L 8 17 C 7.96875 17 7.9375 17 7.90625 17 C 7.875 17 7.84375 17 7.8125 17 C 7.78125 17 7.75 17 7.71875 17 Z M 17.71875 24 C 17.167969 24.078125 16.78125 24.589844 16.859375 25.140625 C 16.9375 25.691406 17.449219 26.078125 18 26 L 30 26 C 30.359375 26.003906 30.695313 25.816406 30.878906 25.503906 C 31.058594 25.191406 31.058594 24.808594 30.878906 24.496094 C 30.695313 24.183594 30.359375 23.996094 30 24 L 18 24 C 17.96875 24 17.9375 24 17.90625 24 C 17.875 24 17.84375 24 17.8125 24 C 17.78125 24 17.75 24 17.71875 24 Z M 27.71875 31 C 27.167969 31.078125 26.78125 31.589844 26.859375 32.140625 C 26.9375 32.691406 27.449219 33.078125 28 33 L 40 33 C 40.359375 33.003906 40.695313 32.816406 40.878906 32.503906 C 41.058594 32.191406 41.058594 31.808594 40.878906 31.496094 C 40.695313 31.183594 40.359375 30.996094 40 31 L 28 31 C 27.96875 31 27.9375 31 27.90625 31 C 27.875 31 27.84375 31 27.8125 31 C 27.78125 31 27.75 31 27.71875 31 Z M 7.71875 39 C 7.167969 39.078125 6.78125 39.589844 6.859375 40.140625 C 6.9375 40.691406 7.449219 41.078125 8 41 L 20 41 C 20.359375 41.003906 20.695313 40.816406 20.878906 40.503906 C 21.058594 40.191406 21.058594 39.808594 20.878906 39.496094 C 20.695313 39.183594 20.359375 38.996094 20 39 L 8 39 C 7.96875 39 7.9375 39 7.90625 39 C 7.875 39 7.84375 39 7.8125 39 C 7.78125 39 7.75 39 7.71875 39 Z"/></svg>
