<svg width="100px" height="100px" viewBox="0 0 50 50" version="1.1" xmlns="http://www.w3.org/2000/svg" xmlns:xlink="http://www.w3.org/1999/xlink">
    <title>hadoop</title>
    <g id="hadoop" stroke="none" stroke-width="1">
        <path d="M46.4218978,16.6451387 C46.4218978,16.6451387 45.9974745,14.4823139 45.0195985,14.0812555 C44.0413212,13.6798759 43.7615839,13.7407372 43.3115474,14.031073 C42.8330876,14.3397956 42.517219,15.3546058 42.1203358,15.5862482 C41.7229708,15.8178905 41.0614453,16.0496131 41.0614453,16.0496131 C40.6081168,13.9702117 38.3124891,12.9710584 37.0433942,11.9312774 C36.3898175,11.3796715 33.9317591,8.60020438 30.6682117,8.65255474 C30.6682117,8.65255474 27.9148394,8.74448905 25.5789051,10.0002555 C23.2429708,11.2561022 22.2570657,13.0790511 22.2570657,13.0790511 C22.2570657,13.0790511 21.3256788,13.0519927 20.6370146,13.6732117 C20.0414088,14.2104453 18.9488759,15.2800146 18.9488759,15.2800146 C18.9488759,15.2800146 17.5140584,15.4336131 15.9243577,15.8472774 C14.4425693,16.2327591 12.7177372,17.0477226 11.9408321,17.6837956 C11.0160292,18.4409489 10.1805912,19.2755036 9.67226277,19.8712701 C9.28083942,20.3303796 8.78230657,21.3624526 8.25446715,21.883146 C7.62120438,22.5078978 7.03483212,22.7124818 6.89078832,22.6933723 C6.89078832,22.6933723 7.57945255,21.9236934 7.40377372,21.1000584 C7.35535766,20.8720292 8.05189051,21.815781 8.05189051,21.815781 C8.05189051,21.8157007 8.28706569,21.0925912 8.24113869,20.4384526 C8.2070146,19.9513212 7.92406569,19.5081095 7.76837956,19.3986715 C7.76837956,19.3986715 7.87629197,19.223073 7.98452555,18.9530511 C8.09243796,18.6829489 8.14655474,18.3454015 8.14655474,18.3454015 C8.14655474,18.3454015 7.23066423,18.4924161 6.56672993,18.9664599 C5.6770146,19.6016496 5.04889051,20.1845693 4.67609489,21.1540146 C4.40615328,21.8562482 5.04070073,22.6528248 5.16226277,22.7474891 C5.28374453,22.8421533 5.33786131,24.0303942 5.97240876,24.4353869 C6.60727737,24.8404599 7.51168613,24.759365 7.51168613,24.759365 C7.51168613,24.759365 7.36418978,25.8529416 7.39012409,26.919781 C7.41453285,27.9113869 7.61261314,28.8761752 7.60627007,29.0128321 C7.59270073,29.2963431 7.25523358,30.2012336 7.17437956,30.3496934 C7.09328467,30.4981533 5.6350219,31.8887299 5.4729927,32.0642482 C5.3109635,32.239927 5.1220365,32.6180219 5.27049635,33.2121022 C5.34709489,33.5193796 5.60057664,34.5036788 6.36423358,35.4132263 C7.0760219,36.2611898 8.82164964,37.2225255 9.79390511,37.0604964 C9.81253285,37.057365 9.49706569,37.8435036 9.44286861,38.1543139 C9.38875182,38.4649635 9.25362044,39.3290657 9.86127007,39.6262263 C10.129927,39.7575036 10.7815766,40.1208248 11.5898759,40.368927 C12.6108686,40.6823869 13.8521022,40.874365 14.5603577,40.882073 C15.1781241,40.8886569 16.0044088,40.7524015 16.3428394,40.1934088 C16.7001387,39.604146 16.5779343,38.6791022 16.5994526,38.4652044 C16.6535693,37.9252409 17.2881168,37.1281825 17.4232482,36.9121971 C17.5580584,36.6963723 17.5175912,35.3595109 17.5175912,35.3595109 C17.5175912,35.3595109 18.0543431,35.4424526 18.6249781,35.4675839 C19.195292,35.4927956 19.7996496,35.4605182 19.9348613,35.4539343 C19.9348613,35.4539343 19.0705985,35.7918832 19.0705985,36.5344234 C19.0703577,36.8184964 19.1414964,37.4918248 19.4487737,38.1547153 C19.9440949,39.2238029 20.8346131,40.3950219 21.3932044,40.8283577 C22.2976934,41.5302701 23.3915109,41.5980365 24.4851679,40.8823139 C25.1495036,40.4474526 25.0790876,39.9239489 25.3495109,39.6942336 C25.4780584,39.5847153 25.8839343,39.3482555 26.2678905,39.0460365 C26.6887007,38.7147518 27.0843796,38.3187518 27.091365,38.276438 C27.0983504,38.2348467 27.2268978,38.4592628 27.6990146,38.5732774 C28.1529854,38.6830365 28.936073,38.6815109 29.6972409,38.6815109 C31.2505693,38.6815109 31.9256642,38.5599489 31.9256642,38.5599489 C31.9256642,38.5599489 32.3993869,38.3659635 32.641146,37.8712847 C32.8368978,37.4713504 32.8140146,36.7803577 32.7900073,36.5748905 C32.7358102,36.1156204 32.4523796,35.9131241 32.4523796,35.9131241 C32.4523796,35.9131241 32.4254015,33.9550438 32.4254015,33.5499708 C32.4254015,33.1448175 31.3180146,30.2282117 31.3180146,30.2282117 C31.3180146,30.2282117 32.0065985,30.8763285 32.5470438,31.3356788 C32.8165036,31.5649927 33.5242774,32.1672628 34.2615985,32.2404891 C36.165562,32.4294161 37.1757956,31.1790292 37.475365,30.6874015 C37.9089416,29.9764161 38.069365,29.1212263 38.069365,29.1212263 C38.069365,29.1212263 40.081562,29.5529562 42.1475547,28.9453066 C49.317708,26.879073 46.4218978,16.6451387 46.4218978,16.6451387 Z M7.37960584,19.8659708 C7.37960584,19.8659708 7.74734307,20.6524307 7.65845985,20.5001971 C7.56981752,20.3479635 7.26535036,20.3099854 7.26535036,20.3099854 C7.26535036,20.3099854 7.32870073,20.0055182 7.37960584,19.8659708 Z M6.50490511,24.0632336 C5.84916058,23.813365 6.06787591,23.0019343 5.69315328,22.4711241 C5.31875182,21.9404745 4.8190146,21.0664161 7.0980219,19.3805255 C7.0980219,19.3805255 6.817,20.0048759 6.75461314,20.4420657 C6.6919854,20.8790949 6.72329927,21.2225036 6.66091241,21.6595328 C6.59820438,22.096562 6.16149635,22.5022774 6.16149635,22.5022774 C6.16149635,22.5022774 6.31750365,23.2827153 6.91062044,23.4389635 C7.50405839,23.5951314 8.34680292,22.7209124 8.34680292,22.7209124 L7.97208029,23.876073 C7.97216058,23.876073 7.16032847,24.3131022 6.50490511,24.0632336 Z M7.28542336,34.927219 C5.69323358,33.5536642 6.2239635,32.4608905 6.66581022,32.1539343 C7.17694891,31.7984818 7.80129927,31.0545766 7.84746715,30.9627226 C7.90985401,30.8379489 8.03454745,30.4319927 8.06586131,30.2759051 C8.06586131,30.2759051 8.72128467,32.117562 9.15831387,32.960708 C9.59534307,33.8037737 10.375781,35.1770876 10.375781,35.1770876 C10.2510876,35.7389708 9.96717518,37.2406715 7.28542336,34.927219 Z M31.6036934,33.6782774 C31.6350073,34.2714745 31.5726204,35.957365 31.6354088,36.0822993 C31.697635,36.2073139 32.0097299,36.363 31.8538832,37.1435182 C31.6977956,37.9238759 31.2295328,37.8614891 30.386708,37.8614891 C28.7175985,37.8614891 27.7017445,37.611781 27.7017445,37.611781 C28.388562,36.8313431 30.2488467,35.5568686 30.8550511,31.3996715 C30.8548905,31.3997518 31.5726204,33.0854015 31.6036934,33.6782774 Z M46.1377445,21.5724161 C46.0800949,23.5761022 45.3991387,25.2839124 44.6591679,26.2511095 C41.0337445,30.9908248 34.0648029,26.7530949 34.0648029,26.7530949 C34.2400803,27.9174891 34.0273066,28.3931387 34.0273066,28.3931387 C33.9147372,28.9937226 33.4386861,29.9328978 33.8266569,30.4960657 C34.5470365,31.5415474 35.8222336,30.7921022 35.7047664,30.8090438 C34.3275182,31.009292 34.1273504,30.3083431 34.1273504,30.3083431 C34.1273504,30.3083431 34.9159781,30.6464526 35.8423066,30.3709708 C36.6000219,30.1456715 36.806292,28.606073 36.8812847,28.6683796 C36.9562774,28.7306861 37.4072774,28.8060803 37.4072774,28.8060803 C37.4072774,28.8060803 37.1942628,31.2598029 34.7406204,31.4600511 C33.8051387,31.5364088 33.0383504,30.6964745 32.7627883,30.4335182 C32.4874672,30.170562 31.3608905,29.1694015 31.3608905,29.1694015 C31.1751752,29.1054088 30.4156934,28.9454672 29.708562,28.5933869 C29.0344307,28.2582482 28.4064672,27.7297664 28.4064672,27.7297664 C28.7197664,28.6683796 30.5548394,29.4127664 30.5914526,29.4988394 C30.6098394,29.542438 30.1535401,31.942927 29.4611022,33.7535109 C28.7458613,35.6229489 27.6527664,36.6815985 27.4179124,36.9303431 C26.9795985,37.393708 26.0658759,38.0565985 25.7528978,38.319635 C25.4400803,38.5825912 24.7262847,38.9830073 24.5258759,39.1960219 C24.3255474,39.4088759 23.9721022,39.9636131 23.9721022,39.9636131 C23.7021606,40.3280584 22.9052628,40.854854 22.0276715,40.1527007 C21.8523139,40.0125109 21.3560292,39.4504672 20.9339343,38.7887007 C20.5120803,38.1269343 20.1709197,37.3572555 20.1101387,37.1414307 C19.9885766,36.7093796 20.1506058,36.4933139 20.2858175,36.3447737 C20.4209489,36.1962336 21.8115255,35.4398832 21.9872044,35.3047518 C22.1628832,35.1696204 22.2980146,35.2101679 22.3518102,35.3184818 C22.405927,35.4267956 22.6758686,35.7777518 22.6622993,35.6561898 C22.6486496,35.5346277 22.5274088,34.7512993 22.5274088,34.3058394 C22.5274088,33.8603796 22.6489708,32.8743942 22.6217518,32.9691387 C22.594854,33.0637226 22.0817883,34.4137518 21.9603066,34.4274015 C21.7127664,34.4553431 20.2453504,34.6973431 19.5702555,34.6704453 C18.8949197,34.6435474 17.5311606,34.6840146 17.3150949,34.4678686 C17.0992701,34.2518029 16.8562263,32.8474161 16.8562263,32.8474161 C16.8559051,32.8474161 16.9235912,35.2238978 16.8426569,35.8315474 C16.7574672,36.4695474 16.5717518,36.6932409 16.5185985,36.7903942 C16.3490219,37.0998394 16.2264964,37.2844307 15.9039635,37.7559854 C15.5818321,38.2275401 15.705562,38.1775182 15.6558613,38.9712044 C15.6061606,39.7649708 15.5656131,39.8879781 14.4741241,39.9624891 C13.3829562,40.0369197 11.389708,39.343438 10.9184745,39.070365 C10.4472409,38.7973723 10.3975401,38.4503504 10.5709708,37.8304161 C10.7448029,37.2104818 11.1913066,34.9781241 11.1913066,34.9781241 C8.56174453,31.306854 6.72618978,26.4430073 9.77712409,21.3357153 C12.0592628,17.5158248 16.1200292,16.5397153 18.2115547,16.4460949 C18.2115547,16.4460949 15.3395109,19.2556715 14.357781,21.5925693 C13.8508175,22.8000803 14.0337226,23.8408248 14.5805912,24.3269927 C15.1274599,24.8130803 16.2009635,26.9197007 16.2009635,26.9197007 C16.2009635,26.9197007 15.5326131,28.3374161 15.6743285,28.7020219 C15.6743285,28.7020219 16.0063358,29.0928832 16.5858029,29.5933431 C17.1975474,30.1211825 18.0910365,30.7592628 19.380927,30.7072336 C20.1926788,30.6747956 22.5204234,29.3299051 23.5128321,28.8438978 C24.5053212,28.3576496 25.8827299,28.3374161 25.8827299,28.2969489 C25.8827299,28.278 26.4755255,27.1067007 26.5513212,25.6233066 C26.6356277,23.9655985 26.2007664,21.9582993 26.1256934,21.5521022 C25.9838175,20.7824234 25.7204599,17.8049562 25.7204599,17.8049562 C25.7204599,17.8049562 25.3153869,19.5468905 25.4775766,21.5521022 C25.5352263,22.2634088 25.8690803,24.3876934 25.8624161,25.0561241 C25.8421825,27.0815693 25.1939854,27.6689854 25.1939854,27.6689854 C23.8368905,27.6487518 21.0823139,29.2488102 20.4341168,29.6134161 C20.1100584,29.7957591 19.6368978,29.9919927 19.1378029,29.9982555 C18.6390292,30.005 18.1146423,29.8213723 17.8819562,29.6945109 C17.2135255,29.3299051 16.5450949,28.4184307 16.5248613,28.3577299 C16.4460949,28.1213504 16.6932336,27.2108394 17.1122774,26.3727518 C17.9313358,24.734073 19.2646642,22.8294672 19.0769416,22.9902117 C18.7934307,23.2332555 16.6261898,26.0892409 16.6261898,26.0892409 C16.5977664,25.6596788 15.5931533,24.387854 14.9652701,23.5371606 C14.6917956,23.1666934 14.830781,22.587708 14.8842555,22.3624088 C14.946,22.1019416 15.3596642,21.016073 16.2615839,19.8508759 C18.0237518,17.5734745 20.8824672,14.6157591 21.2442628,14.280781 C21.7911314,13.7743796 22.338,13.7946131 22.6621387,13.7339124 C22.9861971,13.6731314 26.2476569,13.0654818 25.9435109,13.0857153 C25.6396861,13.1059489 23.2697883,13.2072774 23.3103358,13.1262628 C23.4281241,12.8907664 24.1913796,11.8378978 25.7611679,10.938708 C27.1169781,10.1620438 29.2251241,9.53954015 30.7643212,9.52055428 C32.6270949,9.4980292 34.5069708,10.8836277 35.7875474,11.9108832 C36.790073,12.7154088 37.435781,13.2160292 37.347219,13.2071971 C37.1446423,13.1869635 36.6991022,13.3287591 36.6991022,13.3287591 C37.0915693,13.3209708 38.308073,13.5835255 38.9676715,14.2402336 C39.7254672,14.9953796 40.183854,16.0367664 40.3544745,16.4447299 C40.3886788,16.4890511 40.4138905,16.5373066 40.4260146,16.5898175 C40.4428759,16.6641679 40.4180657,16.5974453 40.3544745,16.4447299 C40.0964964,16.1127226 39.2739854,16.0162117 38.8461898,16.2657591 C38.5695839,16.427146 37.7929197,16.5695839 37.7929197,16.5695839 L38.4612701,16.691146 C38.3739124,16.8655401 38.4102847,17.131708 38.4621533,17.3423139 C38.4669708,17.290927 38.478292,17.2396204 38.5039854,17.1909635 C38.6082044,16.9940876 38.8524526,16.9189343 39.0492482,17.0229124 C39.2315912,17.1194234 39.3100365,17.3207153 39.2380146,17.5083577 C38.9177299,17.5339708 38.8205766,17.5533212 38.5749635,17.6630803 C38.5638029,17.6524015 38.5578613,17.6383504 38.5486277,17.626708 C38.5569781,17.6488686 38.5625985,17.6634015 38.5625985,17.6634015 C38.5625985,17.6634015 38.0765109,17.9875401 38.3600219,17.8862117 C38.6436131,17.7848832 39.9805547,17.7443358 40.1425036,17.9064453 C40.3046131,18.0684745 40.264146,18.6558102 40.264146,18.6558102 C39.3930584,18.2101898 37.9955766,18.433 37.6715182,19.3850219 C37.5575839,19.7198394 37.1245693,20.8028175 37.1245693,20.8028175 C37.3877664,20.6204745 37.6512044,19.7090803 38.1979927,19.1824453 C38.6442555,18.7524015 39.6968832,18.7368248 39.413292,18.7976058 C39.129781,18.8583869 38.6436131,19.6482993 38.6232993,20.0534526 C38.6030657,20.4585255 38.3803358,21.8561679 38.3803358,21.8561679 C38.7246277,21.491562 38.8260365,19.9116569 39.474073,19.3851022 C40.0742555,18.8974088 40.4260146,19.0812774 40.4260146,19.0812774 C40.6690584,20.0535328 40.1019562,22.565146 40.1019562,22.565146 C40.3102336,22.1672993 40.6725912,21.4622555 40.810854,20.5193869 C40.968146,19.445562 40.8849635,18.1299781 40.8310876,17.7849635 C40.7298394,17.1367664 41.0188102,16.9432628 41.3374891,16.8330219 C41.8642847,16.6506788 42.1680292,16.4684161 42.6136496,16.1645912 C43.0592701,15.8607664 43.5252044,14.9696058 43.8492628,14.7872628 C44.1733212,14.6049197 44.7201898,14.5645328 45.2468248,15.7392044 C45.5357956,16.3843504 46.2073577,19.1292117 46.1377445,21.5724161 Z M4.001,20.0601168 C3.47436496,21.0729197 3.44746715,22.5177737 3.44746715,22.5177737 C3.44746715,22.5177737 3.28535766,20.7217226 3.66329197,19.8981679 C4.04146715,19.0745328 4.98682482,18.601854 5.27041606,18.3588102 C5.27025547,18.3587299 4.52747445,19.0473942 4.001,20.0601168 Z M3.27178832,19.830562 C3.02866423,20.2984234 3.01605839,20.9660511 3.01605839,20.9660511 C3.01605839,20.9660511 2.9409854,20.1362336 3.11578102,19.7556496 C3.29049635,19.375146 3.72720438,19.1567518 3.85824088,19.0445839 C3.85816058,19.0445036 3.51515328,19.3626204 3.27178832,19.830562 Z M23.2697883,9.66262774 C22.3944453,10.3949708 21.8136934,11.7185839 21.8136934,11.7185839 C21.8136934,11.7185839 22.3548613,9.99816788 23.0208029,9.38321168 C23.6863431,8.76857664 24.7408978,8.69551095 25.0959489,8.58029197 C25.0957883,8.58029197 24.1456934,8.93060584 23.2697883,9.66262774 Z M22.6851825,9.17051825 C22.2807518,9.5090292 22.0123358,10.1201314 22.0123358,10.1201314 C22.0123358,10.1201314 22.262365,9.32556204 22.5699635,9.04116788 C22.877562,8.75725547 23.3646131,8.72385401 23.5284892,8.67037953 C23.5287299,8.67029927 23.0896934,8.83232847 22.6851825,9.17051825 Z M20.4490945,19.5407883 C20.4286345,19.6106686 20.4178545,19.6507883 20.4178545,19.6507883 C20.4221445,19.6244515 20.4338045,19.5853853 20.4490945,19.5407883 Z M24.2503139,14.9455985 C23.4733285,15.0172993 22.7422701,14.8569562 22.1660146,15.411292 C21.3922409,16.1553577 21.0349416,17.4957518 20.5250876,19.2031606 C20.5050949,19.2693212 20.4838978,19.3340365 20.4633431,19.3992336 C20.4497737,19.4557591 20.4386934,19.5028905 20.4301022,19.540708 C20.5383358,19.1391679 21.0086058,17.983927 21.5415839,17.1433504 C22.0617956,16.3221241 22.6390949,15.8238321 22.7365693,15.7423358 C22.6748248,15.7964526 22.4761022,16.0121168 22.4190949,16.603146 C22.3516496,17.3052993 22.5542263,18.1967007 22.5542263,17.6295182 C22.5542263,17.0623358 23.1483066,15.8605255 23.6616131,15.496 C24.0043796,15.2524745 24.8218321,14.991365 25.3316861,14.8484453 C25.0031314,14.8767883 24.6305766,14.9105109 24.2503139,14.9455985 Z M44.1369489,15.3713066 C44.2597153,15.2048613 44.3929197,15.059292 44.477146,14.9810876 C44.4894307,14.9822117 44.4977007,14.9856642 44.4957737,14.9942555 C44.4247956,15.3170292 44.1426496,16.8200146 42.4844599,17.4066277 C41.9873723,17.5824672 41.5309124,17.4135328 41.2215474,17.2721387 C41.3968248,17.2545547 42.110781,17.3844672 43.1675036,16.7026277 C43.8169051,16.2835036 43.940073,15.637635 44.1369489,15.3713066 Z M30.197219,15.833708 C29.7104891,16.3848321 29.6028978,17.2379343 29.6028978,17.2379343 C29.6028978,17.2379343 29.6164672,15.9416204 29.9675036,15.5096496 C30.3184599,15.0776788 31.3988686,14.7399708 31.722927,14.6589562 C31.7230073,14.6588759 30.9128613,15.0234818 30.197219,15.833708 Z M33.5190584,26.6918321 C33.0950365,27.0647883 32.7949051,27.7854891 32.7955464,27.7950438 C32.8095182,27.9305766 32.9322847,26.5258686 33.2108175,26.2346496 C33.490073,25.944073 34.4510876,25.9203869 34.6111898,25.9085839 C34.6111898,25.9087445 33.9063869,26.3505912 33.5190584,26.6918321 Z M35.6255182,18.5240511 C35.6255182,18.5240511 34.4412117,18.9622044 33.5908394,19.5353285 C32.7404672,20.1084526 32.0302044,20.8735547 32.0302044,20.8735547 C32.0945182,20.7447664 32.2067664,20.4855036 32.5308248,20.1235474 C32.7593358,19.8304818 32.8656423,19.7444088 33.240365,19.5064234 C33.2068029,19.2304599 32.9810219,19.0356715 32.696146,19.0356715 C32.3885474,19.0356715 32.1390803,19.2850584 32.1390803,19.5928175 C32.1390803,19.8433285 32.3030365,20.0534526 32.5309051,20.1235474 C32.0314088,19.9245036 31.6782847,19.4542336 31.6682482,18.9028686 C31.5024453,19.0479562 30.8898175,19.5387007 30.6017299,19.5871168 C31.0644526,19.1038394 31.5010803,18.5778467 31.8538029,18.2150073 C32.0632044,17.8611606 32.4309416,17.6103285 32.8664453,17.5507518 C33.5911606,17.2409051 34.2880949,17.0889927 34.2880949,17.0889927 C34.1735182,17.2347226 33.8155766,17.4667664 33.5516569,17.6208467 C34.0504307,17.8010219 34.4115036,18.2456788 34.4527737,18.7788175 C35.1292336,18.5212409 35.6255182,18.5240511 35.6255182,18.5240511 Z"></path>
    </g>
</svg>