<svg width="100" height="100" xmlns="http://www.w3.org/2000/svg" x="0px" y="0px" viewBox="0 0 50 50">
<title>hard-to-find</title>
<path d="M 9 4 C 6.2545455 4 4 6.2545455 4 9 L 4 21 L 6 21 L 6 9 C 6 7.3454545 7.3454545 6 9 6 L 41 6 C 42.654545 6 44 7.3454545 44 9 L 44 41 C 44 42.654545 42.654545 44 41 44 L 9 44 C 7.3454545 44 6 42.654545 6 41 L 6 29 L 4 29 L 4 41 C 4 43.745455 6.2545455 46 9 46 L 41 46 C 43.745455 46 46 43.745455 46 41 L 46 9 C 46 6.2545455 43.745455 4 41 4 L 9 4 z M 10 10 L 10 19 L 16 19 L 16 31 L 12 31 L 12 24 L 4.0820312 24 L 4.0820312 26 L 10 26 L 10 33 L 18 33 L 18 17 L 12 17 L 12 12 L 22 12 L 22 40 L 30 40 L 30 26 L 37.585938 26 L 33.292969 30.292969 A 1.0001 1.0001 0 1 0 34.707031 31.707031 L 41.414062 25 L 34.707031 18.292969 A 1.0001 1.0001 0 0 0 33.990234 17.990234 A 1.0001 1.0001 0 0 0 33.292969 19.707031 L 37.585938 24 L 28 24 L 28 38 L 24 38 L 24 10 L 10 10 z"/></svg>