<svg width="100" height="100" xmlns="http://www.w3.org/2000/svg" x="0px" y="0px" viewBox="0 0 50 50">
<title>idea-sharing</title>
<path d="M 29.691406 2.003906 C 24.34375 2.164063 20 6.6875 20 12.03125 C 20 14.851563 21.410156 17.054688 22.6875 18.84375 C 23.960938 20.628906 25 22.070313 25 23.050781 L 25 26 C 25 27.644531 26.355469 29 28 29 L 28.277344 29 C 28.625 29.59375 29.261719 30 30 30 C 30.738281 30 31.375 29.59375 31.722656 29 L 32 29 C 33.644531 29 35 27.644531 35 26 L 35 23 C 35 22.054688 36.039063 20.617188 37.3125 18.832031 C 38.589844 17.046875 40 14.832031 40 12 C 40 6.386719 35.339844 1.835938 29.691406 2.003906 Z M 29.75 4.003906 C 34.300781 3.867188 38 7.488281 38 12 C 38 14.167969 36.910156 15.953125 35.6875 17.667969 C 34.667969 19.089844 33.5 20.414063 33.128906 22 L 31 22 L 31 13.414063 L 32.707031 11.707031 C 32.96875 11.457031 33.074219 11.082031 32.980469 10.734375 C 32.890625 10.382813 32.617188 10.109375 32.265625 10.019531 C 31.917969 9.925781 31.542969 10.03125 31.292969 10.292969 L 30 11.585938 L 28.707031 10.292969 C 28.519531 10.097656 28.261719 9.992188 27.988281 9.992188 C 27.582031 9.992188 27.21875 10.238281 27.0625 10.613281 C 26.910156 10.992188 27 11.421875 27.292969 11.707031 L 29 13.414063 L 29 22 L 26.859375 22 C 26.476563 20.421875 25.324219 19.09375 24.3125 17.679688 C 23.089844 15.960938 22 14.179688 22 12.03125 C 22 7.777344 25.503906 4.132813 29.75 4.003906 Z M 27 24 L 33 24 L 33 26 C 33 26.566406 32.566406 27 32 27 L 28 27 C 27.433594 27 27 26.566406 27 26 Z M 44.15625 27.996094 C 43.976563 28 43.792969 28.015625 43.613281 28.046875 C 43.132813 28.121094 42.660156 28.296875 42.226563 28.566406 L 31.117188 35.414063 C 30.859375 35.273438 30.546875 35.121094 30.132813 34.921875 C 29.65625 34.691406 29.160156 34.457031 28.878906 34.328125 C 27.367188 33.644531 22.550781 31.660156 18.894531 30.054688 C 17.332031 29.367188 15.660156 29.015625 13.988281 29 C 12.316406 28.984375 10.640625 29.304688 9.0625 29.964844 L 2.617188 32.644531 C 2.277344 32.777344 2.039063 33.082031 1.988281 33.441406 C 1.9375 33.800781 2.089844 34.160156 2.378906 34.378906 C 2.667969 34.59375 3.054688 34.640625 3.382813 34.492188 L 9.832031 31.808594 C 12.480469 30.703125 15.464844 30.730469 18.09375 31.886719 C 21.78125 33.503906 26.675781 35.527344 28.054688 36.152344 C 28.300781 36.261719 28.800781 36.496094 29.265625 36.71875 C 29.730469 36.945313 30.21875 37.191406 30.257813 37.21875 C 30.703125 37.476563 31 37.941406 31 38.5 C 31 39.339844 30.339844 40 29.5 40 C 29.378906 40 29.269531 39.988281 29.160156 39.960938 C 29.160156 39.960938 29.160156 39.960938 29.15625 39.957031 C 29.132813 39.953125 28.34375 39.734375 27.382813 39.453125 C 26.421875 39.167969 25.203125 38.808594 24.003906 38.453125 C 21.605469 37.738281 19.285156 37.042969 19.285156 37.042969 C 18.941406 36.921875 18.554688 37 18.285156 37.25 C 18.011719 37.5 17.898438 37.875 17.988281 38.230469 C 18.078125 38.589844 18.355469 38.867188 18.714844 38.957031 C 18.714844 38.957031 21.035156 39.652344 23.4375 40.367188 C 24.636719 40.722656 25.855469 41.085938 26.820313 41.371094 C 27.78125 41.652344 28.394531 41.835938 28.695313 41.90625 C 28.957031 41.96875 29.226563 42 29.5 42 C 31.421875 42 33 40.421875 33 38.5 C 33 37.90625 32.84375 37.351563 32.578125 36.859375 L 43.277344 30.269531 C 43.277344 30.269531 43.28125 30.265625 43.285156 30.265625 C 44.121094 29.738281 45.199219 29.980469 45.726563 30.816406 C 46.238281 31.628906 46.023438 32.675781 45.234375 33.21875 C 45.222656 33.230469 45.210938 33.238281 45.199219 33.246094 L 29.421875 45.199219 C 28.347656 46.011719 26.9375 46.234375 25.660156 45.78125 L 13.96875 41.632813 L 14.015625 41.652344 C 11.320313 40.539063 8.238281 40.914063 5.890625 42.640625 L 5.890625 42.636719 L 2.40625 45.191406 C 1.957031 45.519531 1.863281 46.144531 2.1875 46.589844 C 2.515625 47.039063 3.140625 47.132813 3.585938 46.808594 L 7.070313 44.25 C 8.859375 42.9375 11.199219 42.652344 13.25 43.5 C 13.265625 43.507813 13.28125 43.511719 13.296875 43.515625 L 24.996094 47.667969 C 26.898438 48.34375 29.023438 48.011719 30.632813 46.792969 L 46.40625 34.839844 L 46.371094 34.863281 C 47.917969 33.796875 48.371094 31.757813 47.554688 30.105469 C 47.53125 29.980469 47.484375 29.859375 47.417969 29.75 C 46.691406 28.601563 45.433594 27.976563 44.15625 27.996094 Z"></path></svg>