<svg width="100" height="100" xmlns="http://www.w3.org/2000/svg" x="0px" y="0px" viewBox="0 0 50 50">
<title>manage-database-instances</title><path d="M 16 3 C 14.90625 3 14 3.90625 14 5 L 14 6.832031 C 13.980469 6.941406 13.980469 7.050781 14 7.15625 L 14 19 C 14 19.550781 14.449219 20 15 20 L 16.664063 20 L 9.605469 32 L 11.925781 32 L 18.984375 20 L 24 20 L 24 32 L 26 32 L 26 20 L 31.015625 20 L 38.074219 32 L 40.394531 32 L 33.335938 20 L 35 20 C 35.550781 20 36 19.550781 36 19 L 36 7.167969 C 36.019531 7.058594 36.019531 6.949219 36 6.84375 L 36 5 C 36 3.90625 35.09375 3 34 3 Z M 16 5 L 34 5 L 34 6 L 16 6 Z M 16 8 L 34 8 L 34 18 L 16 18 Z M 18 10 L 18 12 L 20 12 L 20 10 Z M 22 10 L 22 12 L 32 12 L 32 10 Z M 18 14 L 18 16 L 20 16 L 20 14 Z M 22 14 L 22 16 L 32 16 L 32 14 Z M 4 34 C 3.449219 34 3 34.449219 3 35 L 3 43 C 3 43.550781 3.449219 44 4 44 L 8 44 L 8 45 L 6 45 L 6 47 L 8.832031 47 C 8.941406 47.019531 9.050781 47.019531 9.15625 47 L 12 47 L 12 45 L 10 45 L 10 44 L 14 44 C 14.550781 44 15 43.550781 15 43 L 15 35 C 15 34.449219 14.550781 34 14 34 Z M 20 34 C 19.449219 34 19 34.449219 19 35 L 19 43 C 19 43.550781 19.449219 44 20 44 L 24 44 L 24 45 L 22 45 L 22 47 L 24.832031 47 C 24.941406 47.019531 25.050781 47.019531 25.15625 47 L 28 47 L 28 45 L 26 45 L 26 44 L 30 44 C 30.550781 44 31 43.550781 31 43 L 31 35 C 31 34.449219 30.550781 34 30 34 Z M 36 34 C 35.449219 34 35 34.449219 35 35 L 35 43 C 35 43.550781 35.449219 44 36 44 L 40 44 L 40 45 L 38 45 L 38 47 L 40.832031 47 C 40.941406 47.019531 41.050781 47.019531 41.15625 47 L 44 47 L 44 45 L 42 45 L 42 44 L 46 44 C 46.550781 44 47 43.550781 47 43 L 47 35 C 47 34.449219 46.550781 34 46 34 Z M 5 36 L 13 36 L 13 42 L 9.15625 42 C 9.097656 41.992188 9.042969 41.984375 8.984375 41.984375 C 8.9375 41.988281 8.886719 41.992188 8.839844 42 L 5 42 Z M 21 36 L 29 36 L 29 42 L 25.15625 42 C 25.097656 41.992188 25.042969 41.984375 24.984375 41.984375 C 24.9375 41.988281 24.886719 41.992188 24.839844 42 L 21 42 Z M 37 36 L 45 36 L 45 42 L 41.15625 42 C 41.097656 41.992188 41.042969 41.984375 40.984375 41.984375 C 40.9375 41.988281 40.886719 41.992188 40.839844 42 L 37 42 Z"/></svg>
