<svg width="100" height="100" xmlns="http://www.w3.org/2000/svg" x="0px" y="0px" viewBox="0 0 50 50">
<title>knight</title>
<path d="M 26.626953 1.0566406 A 1.0001 1.0001 0 0 0 26.492188 1.0703125 C 23.727161 1.535431 22.050741 3.1334413 21.144531 4.6796875 C 20.691426 5.4528106 20.411527 6.2125112 20.222656 6.8300781 C 20.068728 7.3333919 19.996807 7.6398933 19.947266 7.828125 C 18.531785 8.7382456 16.902567 10.112055 15.640625 11.373047 C 12.006051 15.00871 10.734131 20.894986 12.894531 26.578125 C 13.621152 28.486877 15 30.787429 15 34 L 13.332031 34 C 11.005075 34 9 35.742953 9 38 A 1.0001 1.0001 0 0 0 9.0917969 38.417969 C 9.232003 39.603871 9.9178098 40.611511 10.886719 41.255859 C 9.5892987 42.615945 8.6046846 44.057937 8.1914062 45.416016 C 7.9428768 46.232711 7.8692418 47.103189 8.3300781 47.869141 C 8.7909145 48.635092 9.7228693 49 10.714844 49 L 39.289062 49 C 40.281222 49 41.214335 48.63458 41.673828 47.867188 C 42.133321 47.099793 42.055464 46.228394 41.804688 45.412109 C 41.390238 44.063065 40.412608 42.63313 39.125 41.28125 C 40.242627 40.566906 41 39.382414 41 38 A 1.0001 1.0001 0 0 0 40.908203 37.582031 C 40.667097 35.542944 38.839647 34 36.666016 34 L 36 34 C 36 30.148041 33.680241 26.877239 31.478516 24.458984 C 30.438089 23.316236 29.437428 22.394651 28.65625 21.666016 C 29.308834 21.448602 29.831489 21.085088 30.25 20.763672 C 30.794833 20.34524 31.261393 20.140625 31.234375 20.140625 C 32.034956 20.140625 32.064736 20.307901 32.46875 20.765625 C 32.670757 20.994487 32.923875 21.313579 33.335938 21.59375 C 33.747999 21.873921 34.321089 22.066406 34.958984 22.066406 C 35.949935 22.066406 36.703583 21.486727 37.15625 20.957031 C 37.608917 20.427335 37.907342 19.886622 38.039062 19.726562 C 38.031363 19.736362 38.112612 19.666102 38.314453 19.572266 C 38.517992 19.477646 38.818488 19.370695 39.160156 19.126953 C 39.501824 18.883211 39.881501 18.403318 39.957031 17.835938 C 40.032561 17.268556 39.881541 16.718204 39.59375 16.087891 L 39.595703 16.087891 C 39.01928 14.82283 36.931569 10.781821 32.708984 9.0351562 C 32.476263 8.9388809 32.459726 8.9020106 32.335938 8.703125 C 32.212148 8.5042394 32.049497 8.1129679 31.681641 7.6816406 C 31.313784 7.2503133 30.735077 6.8501251 29.941406 6.6074219 C 29.332324 6.4211654 28.408999 6.3685524 27.447266 6.3242188 C 27.435936 6.2725257 27.434261 6.294863 27.425781 6.234375 C 27.382361 5.9247416 27.360321 5.5074137 27.363281 5.0527344 C 27.369181 4.1433758 27.4748 3.0722278 27.638672 2.2519531 A 1.0001 1.0001 0 0 0 26.626953 1.0566406 z M 25.507812 3.5722656 C 25.461603 4.0735214 25.366435 4.5563716 25.363281 5.0410156 C 25.359881 5.5659613 25.382203 6.0616958 25.445312 6.5117188 C 25.508422 6.9617416 25.575975 7.3576124 25.851562 7.7832031 A 1.0001 1.0001 0 0 0 26.691406 8.2382812 C 28.006784 8.2382812 28.850092 8.3643908 29.357422 8.5195312 C 29.864751 8.6746718 30.024513 8.8194679 30.160156 8.9785156 C 30.2958 9.1375633 30.401007 9.3810575 30.636719 9.7597656 C 30.87243 10.138474 31.30708 10.621541 31.943359 10.884766 C 35.340774 12.290101 37.313812 15.904986 37.775391 16.917969 C 37.96042 17.323218 37.958122 17.48844 37.958984 17.519531 C 37.887944 17.563571 37.724686 17.63974 37.470703 17.757812 C 37.196305 17.885378 36.82144 18.059827 36.496094 18.453125 A 1.0001 1.0001 0 0 0 36.494141 18.455078 C 36.123862 18.905018 35.898052 19.352399 35.636719 19.658203 C 35.375385 19.964007 35.226034 20.066406 34.958984 20.066406 C 34.66588 20.066406 34.58 20.020406 34.460938 19.939453 C 34.341875 19.858503 34.191743 19.694044 33.96875 19.441406 C 33.522764 18.93613 32.621794 18.140625 31.234375 18.140625 C 30.189357 18.140625 29.580167 18.756166 29.03125 19.177734 C 28.482333 19.599303 27.992651 19.860862 27.912109 19.867188 C 27.647691 19.887708 27.55099 19.823488 27.298828 19.685547 C 27.235788 19.651057 27.16655 19.609537 27.033203 19.556641 C 26.899857 19.503751 26.649205 19.387194 26.244141 19.521484 C 25.839076 19.655778 25.598079 20.062863 25.537109 20.275391 C 25.476139 20.487919 25.478516 20.619481 25.478516 20.757812 C 25.478516 21.212362 25.638565 21.381077 25.75 21.542969 C 25.861435 21.704861 25.979947 21.840192 26.115234 21.984375 C 26.38581 22.272741 26.727563 22.590097 27.128906 22.964844 C 27.931592 23.714338 28.970613 24.676018 30 25.806641 C 32.058775 28.067886 34 30.973959 34 34 L 17 34 C 17 30.212571 15.361051 27.436435 14.763672 25.867188 C 12.858072 20.854326 14.019261 15.823446 17.054688 12.787109 C 18.341496 11.501269 20.172798 9.9319667 21.337891 9.2441406 A 1.0001 1.0001 0 0 0 21.773438 8.7109375 C 21.908331 8.3230641 21.974168 7.9391831 22.134766 7.4140625 C 22.295364 6.8889419 22.525824 6.2805332 22.871094 5.6914062 C 23.382473 4.8188515 24.278646 4.0943203 25.507812 3.5722656 z M 13.332031 36 L 36.666016 36 C 38.020324 36 39 36.945047 39 38 C 39 39.054953 38.021012 40 36.667969 40 L 13.332031 40 C 11.978988 40 11 39.054953 11 38 C 11 36.945047 11.978988 36 13.332031 36 z M 36.996094 41.96875 C 38.483405 43.360967 39.579331 44.980372 39.892578 46 C 40.051552 46.517465 39.984601 46.7938 39.957031 46.839844 C 39.929464 46.885888 39.875903 47 39.289062 47 L 10.714844 47 C 10.128318 47 10.073492 46.885376 10.044922 46.837891 C 10.016352 46.790401 9.9481198 46.515102 10.105469 45.998047 C 10.415359 44.979713 11.505369 43.362023 12.988281 41.970703 C 13.10321 41.979507 13.214894 42 13.332031 42 L 36.667969 42 C 36.779805 42 36.885931 41.976666 36.996094 41.96875 z"></path></svg>