<svg fill="#000000" xmlns="http://www.w3.org/2000/svg" viewBox="0 0 50 50" width="50px" height="50px"><path d="M 11.947266 8 A 1.0001 1.0001 0 0 0 11.820312 8.0136719 L 0.8203125 10.015625 A 1.0001 1.0001 0 0 0 0.11328125 11.462891 L 12.113281 34.462891 A 1.0001 1.0001 0 0 0 13.267578 34.962891 L 24.066406 31.962891 L 30.132812 42.498047 A 1.0001 1.0001 0 0 0 31.347656 42.9375 L 48.353516 36.652344 A 1.0001 1.0001 0 0 0 48.833984 35.152344 L 43.089844 26.679688 L 49.267578 24.962891 A 1.0001 1.0001 0 0 0 49.824219 23.431641 L 44.326172 15.457031 A 1.0001 1.0001 0 0 0 43.248047 15.058594 L 35.746094 17.033203 A 1.0001 1.0001 0 0 0 35.171875 18.560547 L 39.875 25.498047 L 25.027344 29.621094 L 12.865234 8.5 A 1.0001 1.0001 0 0 0 11.947266 8 z M 11.484375 10.107422 L 23.037109 30.173828 L 13.511719 32.820312 L 2.515625 11.740234 L 11.484375 10.107422 z M 43.078125 17.169922 L 47.378906 23.412109 L 41.908203 24.933594 L 37.619141 18.607422 L 43.078125 17.169922 z M 41.056641 27.244141 L 46.462891 35.21875 L 31.445312 40.769531 L 26.056641 31.410156 L 41.056641 27.244141 z"/></svg>