<svg width="100" height="100" xmlns="http://www.w3.org/2000/svg" x="0px" y="0px" viewBox="0 0 50 50">
<title>learning</title>
<path d="M 23 1 C 15.773438 1 10.445313 3.492188 7 7.398438 C 3.554688 11.308594 2 16.558594 2 22 C 2 26.40625 3.363281 30.507813 5.675781 33.867188 C 7.769531 36.914063 9 40.519531 9 44.199219 L 9 49 L 11 49 L 11 44.199219 C 11 40.078125 9.628906 36.085938 7.324219 32.734375 C 5.234375 29.695313 4 25.992188 4 22 C 4 16.941406 5.445313 12.191406 8.5 8.726563 C 11.554688 5.257813 16.226563 3 23 3 C 29.800781 3 34.207031 4.980469 37.117188 8.007813 C 40.027344 11.03125 41.472656 15.203125 42.007813 19.71875 L 42.03125 19.921875 L 46.828125 28.1875 C 47.074219 28.632813 46.949219 29.078125 46.515625 29.324219 L 42 31.582031 L 42 37.597656 C 42 41.339844 38.921875 44.25 35.191406 43.90625 L 35.175781 43.902344 L 31 43.632813 L 31 49 L 33 49 L 33 45.765625 L 35.007813 45.894531 C 39.878906 46.351563 44 42.457031 44 37.597656 L 44 32.816406 L 47.484375 31.074219 C 48.847656 30.316406 49.324219 28.566406 48.574219 27.214844 L 48.570313 27.207031 L 43.921875 19.199219 C 43.328125 14.515625 41.804688 9.996094 38.558594 6.617188 C 35.242188 3.171875 30.199219 1 23 1 Z M 27 8 L 27 10.101563 C 26.363281 10.230469 25.773438 10.488281 25.25 10.835938 L 23.757813 9.34375 L 22.34375 10.757813 L 23.835938 12.25 C 23.488281 12.773438 23.230469 13.363281 23.101563 14 L 21 14 L 21 16 L 23.101563 16 C 23.230469 16.636719 23.488281 17.226563 23.835938 17.75 L 22.34375 19.242188 L 23.757813 20.65625 L 25.25 19.164063 C 25.773438 19.511719 26.363281 19.769531 27 19.898438 L 27 22 L 29 22 L 29 19.898438 C 29.636719 19.769531 30.226563 19.511719 30.75 19.164063 L 32.242188 20.65625 L 33.65625 19.242188 L 32.164063 17.75 C 32.511719 17.226563 32.769531 16.636719 32.898438 16 L 35 16 L 35 14 L 32.898438 14 C 32.769531 13.363281 32.511719 12.773438 32.164063 12.25 L 33.65625 10.757813 L 32.242188 9.34375 L 30.75 10.835938 C 30.226563 10.488281 29.636719 10.230469 29 10.101563 L 29 8 Z M 28 12 C 29.667969 12 31 13.332031 31 15 C 31 16.667969 29.667969 18 28 18 C 26.332031 18 25 16.667969 25 15 C 25 13.332031 26.332031 12 28 12 Z M 15 16 L 15 18.101563 C 14.363281 18.230469 13.78125 18.492188 13.253906 18.84375 L 11.757813 17.34375 L 10.34375 18.757813 L 11.84375 20.257813 C 11.496094 20.78125 11.238281 21.367188 11.109375 22 L 9 22 L 9 24 L 11.101563 24 C 11.230469 24.636719 11.488281 25.226563 11.835938 25.75 L 10.34375 27.242188 L 11.757813 28.65625 L 13.25 27.164063 C 13.773438 27.511719 14.363281 27.769531 15 27.898438 L 15 30 L 17 30 L 17 27.898438 C 17.636719 27.769531 18.226563 27.511719 18.75 27.164063 L 20.242188 28.65625 L 21.65625 27.242188 L 20.164063 25.75 C 20.511719 25.226563 20.769531 24.636719 20.898438 24 L 23 24 L 23 22 L 20.890625 22 C 20.761719 21.367188 20.503906 20.78125 20.15625 20.257813 L 21.65625 18.757813 L 20.242188 17.34375 L 18.746094 18.84375 C 18.21875 18.492188 17.636719 18.230469 17 18.101563 L 17 16 Z M 16 20 C 17.667969 20 19 21.332031 19 23 C 19 24.667969 17.667969 26 16 26 C 14.332031 26 13 24.667969 13 23 C 13 21.332031 14.332031 20 16 20 Z"></path></svg>