<svg width="100" height="100" xmlns="http://www.w3.org/2000/svg" x="0px" y="0px" viewBox="0 0 50 50">
<title>more-team</title>
<path d="M 21.28125 2 C 16.746094 2.085938 13.816406 4.007813 12.5625 6.90625 C 11.367188 9.664063 11.597656 13.121094 12.5 16.6875 C 12.042969 17.238281 11.714844 17.996094 11.84375 19.09375 C 11.988281 20.304688 12.28125 21.171875 12.75 21.78125 C 12.992188 22.097656 13.328125 22.117188 13.625 22.28125 C 13.796875 23.3125 14.105469 24.355469 14.53125 25.21875 C 14.773438 25.714844 15.042969 26.160156 15.3125 26.53125 C 15.433594 26.699219 15.621094 26.796875 15.75 26.9375 C 15.941406 28.425781 15.929688 29.121094 15.6875 30.40625 C 15.382813 31.195313 14.640625 31.824219 13.4375 32.4375 C 12.214844 33.058594 10.617188 33.605469 9 34.3125 C 7.382813 35.019531 5.722656 35.890625 4.40625 37.25 C 3.089844 38.609375 2.144531 40.488281 2 42.9375 L 1.9375 44 L 27.53125 44 C 27.5625 44 27.59375 44 27.625 44 C 29.703125 47.582031 33.570313 50 38 50 C 44.617188 50 50 44.617188 50 38 C 50 31.574219 44.914063 26.328125 38.5625 26.03125 C 38.453125 25.167969 38.507813 24.355469 38.625 23.75 C 38.71875 23.636719 38.878906 23.5625 38.96875 23.4375 C 39.207031 23.105469 39.449219 22.71875 39.65625 22.28125 C 40.011719 21.535156 40.253906 20.636719 40.40625 19.75 C 40.664063 19.601563 40.949219 19.582031 41.15625 19.3125 C 41.582031 18.757813 41.875 18 42 16.9375 C 42.109375 16.007813 41.820313 15.351563 41.4375 14.84375 C 41.84375 13.441406 42.269531 11.273438 42.0625 9.03125 C 41.945313 7.789063 41.628906 6.535156 40.90625 5.5 C 40.226563 4.527344 39.105469 3.835938 37.71875 3.59375 C 36.773438 2.503906 35.265625 2 33.5 2 C 30.761719 2.050781 28.675781 2.847656 27.28125 4.21875 C 26.964844 4.101563 26.632813 3.976563 26.28125 3.90625 C 25.265625 2.542969 23.410156 2 21.28125 2 Z M 21.28125 4 C 21.292969 4 21.300781 4 21.3125 4 C 23.25 4.007813 24.488281 4.582031 24.84375 5.21875 L 25.09375 5.65625 L 25.59375 5.71875 C 26.820313 5.867188 27.53125 6.367188 28.0625 7.125 C 28.59375 7.882813 28.886719 8.957031 29 10.15625 C 29.222656 12.554688 28.65625 15.378906 28.25 16.625 L 28 17.375 L 28.65625 17.78125 C 28.601563 17.746094 29.035156 18.054688 28.9375 18.875 C 28.824219 19.84375 28.578125 20.339844 28.40625 20.5625 C 28.234375 20.785156 28.148438 20.75 28.15625 20.75 L 27.34375 20.8125 L 27.25 21.65625 C 27.160156 22.507813 26.828125 23.550781 26.4375 24.375 C 26.242188 24.785156 26.015625 25.132813 25.84375 25.375 C 25.714844 25.554688 25.582031 25.675781 25.59375 25.6875 L 25.1875 25.875 L 25.09375 26.34375 C 24.816406 27.59375 24.78125 29.222656 25.1875 30.9375 L 25.1875 31 L 25.21875 31.0625 C 25.5625 32.003906 26.207031 32.707031 26.96875 33.28125 C 26.34375 34.734375 26 36.320313 26 38 C 26 39.40625 26.242188 40.746094 26.6875 42 L 4.21875 42 C 4.492188 40.609375 5.027344 39.496094 5.84375 38.65625 C 6.871094 37.597656 8.261719 36.820313 9.78125 36.15625 C 11.300781 35.492188 12.929688 34.9375 14.34375 34.21875 C 15.757813 33.5 17.039063 32.578125 17.59375 31.0625 L 17.625 30.96875 L 17.625 30.90625 C 17.929688 29.34375 18.003906 28.308594 17.75 26.4375 L 17.65625 25.9375 L 17.21875 25.6875 C 17.316406 25.738281 17.121094 25.59375 16.9375 25.34375 C 16.753906 25.09375 16.542969 24.75 16.34375 24.34375 C 15.941406 23.527344 15.589844 22.5 15.5 21.65625 L 15.40625 20.8125 L 14.59375 20.75 C 14.601563 20.75 14.515625 20.785156 14.34375 20.5625 C 14.171875 20.339844 13.925781 19.84375 13.8125 18.875 C 13.714844 18.054688 14.148438 17.746094 14.09375 17.78125 L 14.71875 17.40625 L 14.53125 16.6875 C 13.574219 13.164063 13.449219 9.898438 14.40625 7.6875 C 15.363281 5.480469 17.273438 4.082031 21.28125 4 Z M 33.5 4 C 33.511719 4 33.519531 4 33.53125 4 C 35.179688 4.007813 36.199219 4.515625 36.46875 5 L 36.71875 5.4375 L 37.21875 5.5 C 38.246094 5.625 38.8125 6.027344 39.25 6.65625 C 39.6875 7.285156 39.96875 8.195313 40.0625 9.21875 C 40.253906 11.261719 39.753906 13.691406 39.40625 14.75 L 39.15625 15.5 L 39.8125 15.90625 C 39.710938 15.84375 40.078125 16.027344 40 16.6875 C 39.902344 17.507813 39.691406 17.925781 39.5625 18.09375 C 39.433594 18.261719 39.394531 18.222656 39.4375 18.21875 L 38.625 18.28125 L 38.53125 19.125 C 38.457031 19.839844 38.175781 20.738281 37.84375 21.4375 C 37.675781 21.789063 37.488281 22.082031 37.34375 22.28125 C 37.199219 22.480469 37.027344 22.554688 37.21875 22.46875 L 36.78125 22.6875 L 36.65625 23.15625 C 36.472656 23.984375 36.425781 25.003906 36.5625 26.09375 C 32.945313 26.53125 29.828125 28.574219 27.9375 31.5 C 27.554688 31.160156 27.277344 30.804688 27.125 30.40625 C 26.835938 29.113281 26.859375 27.859375 27.03125 26.96875 C 27.160156 26.828125 27.351563 26.726563 27.46875 26.5625 C 27.738281 26.1875 28.011719 25.75 28.25 25.25 C 28.667969 24.371094 28.960938 23.320313 29.125 22.28125 C 29.429688 22.117188 29.753906 22.101563 30 21.78125 C 30.46875 21.171875 30.792969 20.304688 30.9375 19.09375 C 31.0625 18.03125 30.714844 17.304688 30.28125 16.75 C 30.75 15.152344 31.242188 12.578125 31 9.96875 C 30.867188 8.550781 30.503906 7.136719 29.6875 5.96875 C 29.511719 5.71875 29.320313 5.492188 29.09375 5.28125 C 30.058594 4.53125 31.441406 4.042969 33.5 4 Z M 38 28 C 43.535156 28 48 32.464844 48 38 C 48 43.535156 43.535156 48 38 48 C 32.464844 48 28 43.535156 28 38 C 28 32.464844 32.464844 28 38 28 Z M 37 32 L 37 37 L 32 37 L 32 39 L 37 39 L 37 44 L 39 44 L 39 39 L 44 39 L 44 37 L 39 37 L 39 32 Z"/></svg>