<svg xmlns="http://www.w3.org/2000/svg" viewBox="0 0 50 50">
<title>new window</title>
<path d="M 7 7 C 5.355469 7 4 8.355469 4 10 L 4 40 C 4 41.644531 5.355469 43 7 43 L 43 43 C 44.644531 43 46 41.644531 46 40 L 46 10 C 46 8.355469 44.644531 7 43 7 Z M 7 9 L 43 9 C 43.566406 9 44 9.433594 44 10 L 44 13 L 6 13 L 6 10 C 6 9.433594 6.433594 9 7 9 Z M 8 10 C 7.449219 10 7 10.449219 7 11 C 7 11.550781 7.449219 12 8 12 C 8.550781 12 9 11.550781 9 11 C 9 10.449219 8.550781 10 8 10 Z M 11 10 C 10.449219 10 10 10.449219 10 11 C 10 11.550781 10.449219 12 11 12 C 11.550781 12 12 11.550781 12 11 C 12 10.449219 11.550781 10 11 10 Z M 14 10 C 13.449219 10 13 10.449219 13 11 C 13 11.550781 13.449219 12 14 12 C 14.550781 12 15 11.550781 15 11 C 15 10.449219 14.550781 10 14 10 Z M 6 15 L 44 15 L 44 40 C 44 40.566406 43.566406 41 43 41 L 7 41 C 6.433594 41 6 40.566406 6 40 Z M 24.984375 18.984375 C 24.433594 18.996094 23.992188 19.449219 24 20 L 24 27 L 17 27 C 16.640625 26.996094 16.304688 27.183594 16.121094 27.496094 C 15.941406 27.808594 15.941406 28.191406 16.121094 28.503906 C 16.304688 28.816406 16.640625 29.003906 17 29 L 24 29 L 24 36 C 23.996094 36.359375 24.183594 36.695313 24.496094 36.878906 C 24.808594 37.058594 25.191406 37.058594 25.503906 36.878906 C 25.816406 36.695313 26.003906 36.359375 26 36 L 26 29 L 33 29 C 33.359375 29.003906 33.695313 28.816406 33.878906 28.503906 C 34.058594 28.191406 34.058594 27.808594 33.878906 27.496094 C 33.695313 27.183594 33.359375 26.996094 33 27 L 26 27 L 26 20 C 26.003906 19.730469 25.898438 19.46875 25.707031 19.277344 C 25.515625 19.085938 25.253906 18.980469 24.984375 18.984375 Z" /></svg>
