<svg width="100" height="100" xmlns="http://www.w3.org/2000/svg" x="0px" y="0px" viewBox="0 0 50 50">
<title>options</title>
<path d="M 25 0 C 23.152344 0 21.640625 1.289063 21.1875 3 L 10 3 C 8.355469 3 7 4.355469 7 6 L 7 45 C 7 46.644531 8.355469 48 10 48 L 40 48 C 41.644531 48 43 46.644531 43 45 L 43 6 C 43 4.355469 41.644531 3 40 3 L 33.0625 3 C 33.042969 3 33.019531 3 33 3 L 28.8125 3 C 28.359375 1.289063 26.847656 0 25 0 Z M 25 2 C 26.117188 2 27 2.882813 27 4 C 27 4.550781 27.449219 5 28 5 L 32 5 L 32 8 C 32 8.566406 31.566406 9 31 9 L 19 9 C 18.433594 9 18 8.566406 18 8 L 18 5 L 22 5 C 22.550781 5 23 4.550781 23 4 C 23 2.882813 23.882813 2 25 2 Z M 10 5 L 16 5 L 16 8 C 16 9.644531 17.355469 11 19 11 L 31 11 C 32.644531 11 34 9.644531 34 8 L 34 5 L 40 5 C 40.566406 5 41 5.433594 41 6 L 41 45 C 41 45.566406 40.566406 46 40 46 L 10 46 C 9.433594 46 9 45.566406 9 45 L 9 6 C 9 5.433594 9.433594 5 10 5 Z M 14.8125 17 C 14.335938 17.089844 13.992188 17.511719 14 18 L 14 22 C 14 22.550781 14.449219 23 15 23 L 19 23 C 19.550781 23 20 22.550781 20 22 L 20 18 C 20 17.449219 19.550781 17 19 17 L 15 17 C 14.96875 17 14.9375 17 14.90625 17 C 14.875 17 14.84375 17 14.8125 17 Z M 16 19 L 18 19 L 18 21 L 16 21 Z M 23.71875 19 C 23.167969 19.078125 22.78125 19.589844 22.859375 20.140625 C 22.9375 20.691406 23.449219 21.078125 24 21 L 36 21 C 36.359375 21.003906 36.695313 20.816406 36.878906 20.503906 C 37.058594 20.191406 37.058594 19.808594 36.878906 19.496094 C 36.695313 19.183594 36.359375 18.996094 36 19 L 24 19 C 23.96875 19 23.9375 19 23.90625 19 C 23.875 19 23.84375 19 23.8125 19 C 23.78125 19 23.75 19 23.71875 19 Z M 14.8125 25 C 14.335938 25.089844 13.992188 25.511719 14 26 L 14 30 C 14 30.550781 14.449219 31 15 31 L 19 31 C 19.550781 31 20 30.550781 20 30 L 20 26 C 20 25.449219 19.550781 25 19 25 L 15 25 C 14.96875 25 14.9375 25 14.90625 25 C 14.875 25 14.84375 25 14.8125 25 Z M 16 27 L 18 27 L 18 29 L 16 29 Z M 23.71875 27 C 23.167969 27.078125 22.78125 27.589844 22.859375 28.140625 C 22.9375 28.691406 23.449219 29.078125 24 29 L 36 29 C 36.359375 29.003906 36.695313 28.816406 36.878906 28.503906 C 37.058594 28.191406 37.058594 27.808594 36.878906 27.496094 C 36.695313 27.183594 36.359375 26.996094 36 27 L 24 27 C 23.96875 27 23.9375 27 23.90625 27 C 23.875 27 23.84375 27 23.8125 27 C 23.78125 27 23.75 27 23.71875 27 Z M 14.8125 33 C 14.335938 33.089844 13.992188 33.511719 14 34 L 14 38 C 14 38.550781 14.449219 39 15 39 L 19 39 C 19.550781 39 20 38.550781 20 38 L 20 34 C 20 33.449219 19.550781 33 19 33 L 15 33 C 14.96875 33 14.9375 33 14.90625 33 C 14.875 33 14.84375 33 14.8125 33 Z M 16 35 L 18 35 L 18 37 L 16 37 Z M 23.71875 35 C 23.167969 35.078125 22.78125 35.589844 22.859375 36.140625 C 22.9375 36.691406 23.449219 37.078125 24 37 L 36 37 C 36.359375 37.003906 36.695313 36.816406 36.878906 36.503906 C 37.058594 36.191406 37.058594 35.808594 36.878906 35.496094 C 36.695313 35.183594 36.359375 34.996094 36 35 L 24 35 C 23.96875 35 23.9375 35 23.90625 35 C 23.875 35 23.84375 35 23.8125 35 C 23.78125 35 23.75 35 23.71875 35 Z"></path></svg>