<svg xmlns="http://www.w3.org/2000/svg" viewBox="0 0 50 50" fill="#000000">
<title>pdf</title>
<path d="M 7 2 L 7 48 L 43 48 L 43 15.410156 L 29.183594 2 Z M 9 4 L 28 4 L 28 17 L 41 17 L 41 46 L 9 46 Z M 30 5.578125 L 39.707031 15 L 30 15 Z M 23.769531 19.875 C 23.019531 19.875 22.242188 20.300781 21.902344 20.933594 C 21.558594 21.5625 21.535156 22.238281 21.621094 22.941406 C 21.753906 24.050781 22.257813 25.304688 22.910156 26.589844 C 22.585938 27.683594 22.429688 28.636719 21.941406 29.804688 C 21.320313 31.292969 20.558594 32.472656 19.828125 33.710938 C 18.875 34.15625 17.671875 34.554688 16.96875 35.015625 C 16.179688 35.535156 15.554688 36 15.1875 36.738281 C 15.007813 37.105469 14.914063 37.628906 15.09375 38.101563 C 15.273438 38.574219 15.648438 38.882813 16.035156 39.082031 C 16.855469 39.515625 17.800781 39.246094 18.484375 38.785156 C 19.167969 38.324219 19.777344 37.648438 20.390625 36.824219 C 20.699219 36.40625 20.945313 35.730469 21.25 35.242188 C 22.230469 34.808594 22.925781 34.359375 24.039063 33.976563 C 25.542969 33.457031 26.882813 33.238281 28.289063 32.933594 C 29.464844 33.726563 30.714844 34.34375 32.082031 34.34375 C 32.855469 34.34375 33.453125 34.308594 34.035156 33.992188 C 34.621094 33.675781 34.972656 32.914063 34.972656 32.332031 C 34.972656 31.859375 34.765625 31.355469 34.4375 31.03125 C 34.105469 30.707031 33.714844 30.535156 33.3125 30.425781 C 32.515625 30.210938 31.609375 30.226563 30.566406 30.332031 C 30.015625 30.390625 29.277344 30.683594 28.664063 30.796875 C 28.582031 30.734375 28.503906 30.707031 28.421875 30.636719 C 27.175781 29.5625 26.007813 28.078125 25.140625 26.601563 C 25.089844 26.511719 25.097656 26.449219 25.046875 26.359375 C 25.257813 25.570313 25.671875 24.652344 25.765625 23.960938 C 25.894531 23.003906 25.921875 22.167969 25.691406 21.402344 C 25.574219 21.019531 25.378906 20.632813 25.039063 20.335938 C 24.699219 20.039063 24.21875 19.875 23.769531 19.875 Z M 23.6875 21.867188 C 23.699219 21.867188 23.71875 21.875 23.734375 21.878906 C 23.738281 21.886719 23.746094 21.882813 23.777344 21.980469 C 23.832031 22.164063 23.800781 22.683594 23.78125 23.144531 C 23.757813 23.027344 23.621094 22.808594 23.609375 22.703125 C 23.550781 22.238281 23.625 21.941406 23.65625 21.890625 C 23.664063 21.871094 23.675781 21.867188 23.6875 21.867188 Z M 24.292969 28.882813 C 24.910156 29.769531 25.59375 30.597656 26.359375 31.359375 C 25.335938 31.632813 24.417969 31.730469 23.386719 32.085938 C 23.167969 32.160156 23.042969 32.265625 22.828125 32.34375 C 23.132813 31.707031 23.511719 31.234375 23.785156 30.578125 C 24.035156 29.980469 24.078125 29.476563 24.292969 28.882813 Z"/></svg>
