<svg width="100" height="100" xmlns="http://www.w3.org/2000/svg" x="0px" y="0px" viewBox="0 0 50 50">
<title>presentation</title>
<path d="M 2.8125 2 C 2.335938 2.089844 1.992188 2.511719 2 3 L 2 7 C 2 7.550781 2.449219 8 3 8 L 4 8 L 4 39 C 4 39.550781 4.449219 40 5 40 L 24 40 L 24 42.1875 C 22.84375 42.605469 22 43.707031 22 45 C 22 46.644531 23.355469 48 25 48 C 26.644531 48 28 46.644531 28 45 C 28 43.707031 27.15625 42.605469 26 42.1875 L 26 40 L 45 40 C 45.550781 40 46 39.550781 46 39 L 46 8 L 47 8 C 47.550781 8 48 7.550781 48 7 L 48 3 C 48 2.449219 47.550781 2 47 2 L 3 2 C 2.96875 2 2.9375 2 2.90625 2 C 2.875 2 2.84375 2 2.8125 2 Z M 4 4 L 46 4 L 46 6 L 4 6 Z M 6 8 L 44 8 L 44 38 L 25.1875 38 C 25.054688 37.972656 24.914063 37.972656 24.78125 38 L 6 38 Z M 18.8125 14 C 18.335938 14.089844 17.992188 14.511719 18 15 L 18 20 C 18 20.550781 18.449219 21 19 21 L 24 21 C 24.550781 21 25 20.550781 25 20 C 25 16.699219 22.300781 14 19 14 C 18.96875 14 18.9375 14 18.90625 14 C 18.875 14 18.84375 14 18.8125 14 Z M 20 16.1875 C 21.390625 16.550781 22.449219 17.609375 22.8125 19 L 20 19 Z M 16 17 C 12.699219 17 10 19.699219 10 23 C 10 26.300781 12.699219 29 16 29 C 19.300781 29 22 26.300781 22 23 C 22 22.449219 21.550781 22 21 22 L 17 22 L 17 18 C 17 17.449219 16.550781 17 16 17 Z M 27.71875 17 C 27.167969 17.078125 26.78125 17.589844 26.859375 18.140625 C 26.9375 18.691406 27.449219 19.078125 28 19 L 39 19 C 39.359375 19.003906 39.695313 18.816406 39.878906 18.503906 C 40.058594 18.191406 40.058594 17.808594 39.878906 17.496094 C 39.695313 17.183594 39.359375 16.996094 39 17 L 28 17 C 27.96875 17 27.9375 17 27.90625 17 C 27.875 17 27.84375 17 27.8125 17 C 27.78125 17 27.75 17 27.71875 17 Z M 15 19.1875 L 15 23 C 15 23.550781 15.449219 24 16 24 L 19.8125 24 C 19.363281 25.71875 17.867188 27 16 27 C 13.78125 27 12 25.21875 12 23 C 12 21.132813 13.28125 19.636719 15 19.1875 Z M 27.71875 22 C 27.167969 22.078125 26.78125 22.589844 26.859375 23.140625 C 26.9375 23.691406 27.449219 24.078125 28 24 L 39 24 C 39.359375 24.003906 39.695313 23.816406 39.878906 23.503906 C 40.058594 23.191406 40.058594 22.808594 39.878906 22.496094 C 39.695313 22.183594 39.359375 21.996094 39 22 L 28 22 C 27.96875 22 27.9375 22 27.90625 22 C 27.875 22 27.84375 22 27.8125 22 C 27.78125 22 27.75 22 27.71875 22 Z M 27.71875 27 C 27.167969 27.078125 26.78125 27.589844 26.859375 28.140625 C 26.9375 28.691406 27.449219 29.078125 28 29 L 39 29 C 39.359375 29.003906 39.695313 28.816406 39.878906 28.503906 C 40.058594 28.191406 40.058594 27.808594 39.878906 27.496094 C 39.695313 27.183594 39.359375 26.996094 39 27 L 28 27 C 27.96875 27 27.9375 27 27.90625 27 C 27.875 27 27.84375 27 27.8125 27 C 27.78125 27 27.75 27 27.71875 27 Z M 24.90625 44 C 24.9375 44 24.96875 44 25 44 C 25.5625 44 26 44.4375 26 45 C 26 45.5625 25.5625 46 25 46 C 24.4375 46 24 45.5625 24 45 C 24 44.46875 24.386719 44.046875 24.90625 44 Z"></path></svg>