<svg width="100" height="100" xmlns="http://www.w3.org/2000/svg" x="0px" y="0px" viewBox="0 0 50 50">
<title>pulse</title>
<path d="M 21.488281 12 C 21.019531 12.003906 20.617188 12.335938 20.519531 12.796875 L 17.71875 26.40625 L 15.9375 21.648438 C 15.796875 21.277344 15.449219 21.023438 15.050781 21.003906 C 14.65625 20.980469 14.285156 21.199219 14.105469 21.550781 L 12.382813 25 L 9 25 C 8.914063 25 8.828125 25.011719 8.746094 25.03125 C 8.394531 24.394531 7.726563 24 7 24 C 5.894531 24 5 24.894531 5 26 C 5 27.105469 5.894531 28 7 28 C 7.726563 28 8.394531 27.605469 8.75 26.96875 C 8.832031 26.992188 8.914063 27 9 27 L 13 27 C 13.378906 27 13.726563 26.785156 13.894531 26.449219 L 14.871094 24.5 L 17.0625 30.351563 C 17.222656 30.765625 17.636719 31.027344 18.078125 30.992188 C 18.519531 30.960938 18.886719 30.636719 18.980469 30.203125 L 21.4375 18.253906 L 24.515625 35.179688 C 24.59375 35.621094 24.960938 35.957031 25.40625 35.996094 C 25.851563 36.039063 26.273438 35.777344 26.433594 35.359375 L 30.488281 24.816406 L 32.5625 30.351563 C 32.699219 30.707031 33.023438 30.957031 33.402344 30.992188 C 33.777344 31.03125 34.144531 30.851563 34.347656 30.53125 L 36.554688 27 L 41.269531 27 C 41.628906 27.617188 42.285156 28 43 28 C 44.105469 28 45 27.105469 45 26 C 45 24.894531 44.105469 24 43 24 C 42.285156 24 41.625 24.382813 41.269531 25 L 36 25 C 35.65625 25 35.335938 25.179688 35.152344 25.46875 L 33.722656 27.753906 L 31.4375 21.648438 C 31.289063 21.261719 30.917969 21.003906 30.503906 21 C 30.089844 21 29.714844 21.253906 29.566406 21.640625 L 25.84375 31.3125 L 22.484375 12.820313 C 22.398438 12.339844 21.976563 11.996094 21.488281 12 Z"></path></svg>