<svg width="100" height="100" xmlns="http://www.w3.org/2000/svg" x="0px" y="0px" viewBox="0 0 50 50">
<title>quote-left</title>
<path d="M 16 5 C 8.28125 5 2 11.28125 2 19 L 2 41 L 22 41 L 22 21 L 11 21 L 11 19 C 11 16.992188 11.617188 15.195313 12.558594 13.941406 C 13.496094 12.691406 14.703125 12 16 12 L 17 12 L 17 5 Z M 42 5 C 34.28125 5 28 11.28125 28 19 L 28 41 L 48 41 L 48 21 L 37 21 L 37 19 C 37 16.992188 37.617188 15.195313 38.558594 13.941406 C 39.496094 12.691406 40.703125 12 42 12 L 43 12 L 43 5 Z M 15 7.203125 L 15 10.265625 C 13.414063 10.574219 11.96875 11.394531 10.957031 12.746094 C 9.726563 14.386719 9 16.589844 9 19 L 9 23 L 20 23 L 20 39 L 4 39 L 4 19 C 4 12.714844 8.855469 7.734375 15 7.203125 Z M 41 7.203125 L 41 10.265625 C 39.414063 10.574219 37.96875 11.394531 36.957031 12.746094 C 35.726563 14.386719 35 16.589844 35 19 L 35 23 L 46 23 L 46 39 L 30 39 L 30 19 C 30 12.714844 34.855469 7.734375 41 7.203125 Z"/></svg>