<svg width="100" height="100" xmlns="http://www.w3.org/2000/svg" x="0px" y="0px" viewBox="0 0 50 50">
<title>quote-right</title>
<path d="M 2 9 L 2 29 L 13 29 L 13 31 C 13 33.007813 12.382813 34.804688 11.441406 36.058594 C 10.503906 37.308594 9.296875 38 8 38 L 7 38 L 7 45 L 8 45 C 15.71875 45 22 38.71875 22 31 L 22 9 Z M 28 9 L 28 29 L 39 29 L 39 31 C 39 33.007813 38.382813 34.804688 37.441406 36.058594 C 36.503906 37.308594 35.296875 38 34 38 L 33 38 L 33 45 L 34 45 C 41.71875 45 48 38.71875 48 31 L 48 9 Z M 4 11 L 20 11 L 20 31 C 20 37.285156 15.144531 42.265625 9 42.796875 L 9 39.734375 C 10.585938 39.425781 12.03125 38.605469 13.042969 37.253906 C 14.273438 35.613281 15 33.410156 15 31 L 15 27 L 4 27 Z M 30 11 L 46 11 L 46 31 C 46 37.285156 41.144531 42.265625 35 42.796875 L 35 39.734375 C 36.585938 39.425781 38.03125 38.605469 39.042969 37.253906 C 40.273438 35.613281 41 33.410156 41 31 L 41 27 L 30 27 Z"/></svg>