<svg width="100" height="100" xmlns="http://www.w3.org/2000/svg" x="0px" y="0px" viewBox="0 0 50 50">
<title>remote-dba</title>
<path d="M 26 2 C 13.300781 2 8.398438 10.199219 8 18 L 8 24.6875 C 7.300781 25.488281 7 26.511719 7 27.8125 C 7 30.113281 8.488281 32 10.6875 32.5 C 13.289063 39.300781 17.601563 48 25 48 C 29 48 32.101563 45.398438 34.5 42 L 31.90625 42 C 29.707031 44.699219 27.40625 46 24.90625 46 C 20.105469 46 15.988281 41.1875 12.1875 31.1875 L 12 30.59375 L 11.40625 30.5 C 10.105469 30.5 9 29.3125 9 27.8125 C 9 27.226563 9.109375 26.734375 9.28125 26.34375 L 12.5625 27.90625 C 12.875 28.058594 13.242188 28.039063 13.535156 27.851563 C 13.824219 27.667969 14.003906 27.347656 14 27 L 14 19.84375 C 14.691406 19.796875 16.511719 19.726563 19.53125 19 C 22.707031 18.238281 26.371094 16.875 28.90625 14.4375 C 31.589844 17.972656 35.058594 19.34375 36 19.65625 L 36 27 C 35.996094 27.347656 36.175781 27.667969 36.464844 27.851563 C 36.757813 28.039063 37.125 28.058594 37.4375 27.90625 L 39 27.125 L 39 30.4375 C 38.839844 30.472656 38.667969 30.5 38.5 30.5 L 37.90625 30.59375 L 37.6875 31.1875 C 36.6875 33.789063 35.6875 36.007813 34.6875 37.90625 C 35.886719 37.707031 37.011719 37.210938 37.8125 36.3125 C 38.414063 35.011719 38.90625 33.699219 39.40625 32.5 C 39.605469 32.449219 39.800781 32.367188 40 32.28125 L 40 33 C 40 36.371094 37.371094 39 34 39 L 29.8125 39 C 29.394531 37.84375 28.292969 37 27 37 L 25 37 C 23.355469 37 22 38.355469 22 40 C 22 41.644531 23.355469 43 25 43 L 27 43 C 28.292969 43 29.394531 42.15625 29.8125 41 L 34 41 C 38.429688 41 42 37.429688 42 33 L 42 32 C 43.644531 32 45 30.644531 45 29 L 45 25 C 45 23.355469 43.644531 22 42 22 L 42 18 C 41.601563 9.199219 36.707031 4.199219 28.40625 4 L 26.40625 2 Z M 25.59375 4 L 27.59375 6 L 28 6 C 38 6 39.800781 13.5 40 18 L 40 22 C 39.96875 22 39.9375 22 39.90625 22 C 39.390625 22.046875 38.996094 22.480469 39 23 L 39 24.875 L 38 25.375 L 38 19 C 38.003906 18.550781 37.710938 18.15625 37.28125 18.03125 C 37.28125 18.03125 32.296875 16.464844 29.84375 12.46875 C 29.644531 12.148438 29.28125 11.96875 28.90625 12 C 28.636719 12.027344 28.386719 12.160156 28.21875 12.375 C 26.226563 14.765625 22.433594 16.261719 19.09375 17.0625 C 15.753906 17.863281 12.9375 18 12.9375 18 C 12.410156 18.03125 12 18.472656 12 19 L 12 25.40625 L 9.90625 24.40625 L 9.90625 18 C 10.507813 7.898438 18.292969 4.101563 25.59375 4 Z M 41 24 L 42 24 C 42.554688 24 43 24.445313 43 25 L 43 29 C 43 29.554688 42.554688 30 42 30 L 41.1875 30 C 41.125 29.984375 41.0625 29.972656 41 29.96875 L 41 25.625 C 41.015625 25.519531 41.015625 25.417969 41 25.3125 Z M 25 39 L 27 39 C 27.554688 39 28 39.445313 28 40 C 28 40.554688 27.554688 41 27 41 L 25 41 C 24.445313 41 24 40.554688 24 40 C 24 39.445313 24.445313 39 25 39 Z"></path></svg>