<svg width="100" height="100" xmlns="http://www.w3.org/2000/svg" x="0px" y="0px" viewBox="0 0 50 50">
<title>single-primary-replication</title><path d="M 37 2 A 1.0001 1.0001 0 0 0 36 3 L 36 21 A 1.0001 1.0001 0 0 0 37 22 L 47 22 A 1.0001 1.0001 0 0 0 48 21 L 48 3 A 1.0001 1.0001 0 0 0 47 2 L 37 2 z M 38 4 L 46 4 L 46 20 L 38 20 L 38 4 z M 39 6 L 39 8 L 45 8 L 45 6 L 39 6 z M 5.6171875 7 C 4.8617583 7 4.1653033 7.43107 3.828125 8.1074219 L 2.1054688 11.552734 A 1.0001 1.0001 0 0 0 2.0683594 11.638672 A 1.0001 1.0001 0 0 0 2.0429688 11.716797 A 1.0001 1.0001 0 0 0 2.0351562 11.738281 A 1.0001 1.0001 0 0 0 2.0351562 11.740234 A 1.0001 1.0001 0 0 0 2.0351562 11.744141 A 1.0001 1.0001 0 0 0 2.0019531 11.929688 A 1.0001 1.0001 0 0 0 2.0019531 11.935547 A 1.0001 1.0001 0 0 0 2 12 A 1.0001 1.0001 0 0 0 2 12.037109 L 2 42 A 1.0001 1.0001 0 0 0 3 43 L 23 43 A 1.0001 1.0001 0 0 0 24 42 L 24 12 A 1.0001 1.0001 0 0 0 23.980469 11.800781 A 1.0001 1.0001 0 0 0 23.978516 11.789062 A 1.0001 1.0001 0 0 0 23.921875 11.611328 A 1.0001 1.0001 0 0 0 23.917969 11.603516 A 1.0001 1.0001 0 0 0 23.894531 11.552734 L 22.169922 8.1054688 C 21.832265 7.430588 21.13729 7 20.382812 7 L 5.6171875 7 z M 5.6191406 9 L 20.380859 9 L 21.380859 11 L 4.6191406 11 L 5.6191406 9 z M 39 10 L 39 12 L 45 12 L 45 10 L 39 10 z M 34 10.683594 L 26 19.298828 L 26 22.238281 L 34 13.623047 L 34 10.683594 z M 4 13 L 22 13 L 22 41 L 4 41 L 4 13 z M 7 15 A 1.0001 1.0001 0 0 0 6 16 L 6 21 L 6 26 A 1.0001 1.0001 0 0 0 7 27 L 19 27 A 1.0001 1.0001 0 0 0 20 26 L 20 21 L 20 16 A 1.0001 1.0001 0 0 0 19 15 L 7 15 z M 42 16 A 1 1 0 0 0 41 17 A 1 1 0 0 0 42 18 A 1 1 0 0 0 43 17 A 1 1 0 0 0 42 16 z M 8 17 L 18 17 L 18 20 L 8 20 L 8 17 z M 8 22 L 18 22 L 18 25 L 8 25 L 8 22 z M 26 24.761719 L 26 27.701172 L 34 36.316406 L 34 33.376953 L 26 24.761719 z M 37 28 A 1.0001 1.0001 0 0 0 36 29 L 36 47 A 1.0001 1.0001 0 0 0 37 48 L 47 48 A 1.0001 1.0001 0 0 0 48 47 L 48 29 A 1.0001 1.0001 0 0 0 47 28 L 37 28 z M 38 30 L 46 30 L 46 46 L 38 46 L 38 30 z M 13 31 A 1 1 0 0 0 12 32 A 1 1 0 0 0 13 33 A 1 1 0 0 0 14 32 A 1 1 0 0 0 13 31 z M 39 32 L 39 34 L 45 34 L 45 32 L 39 32 z M 13 35 A 1 1 0 0 0 12 36 A 1 1 0 0 0 13 37 A 1 1 0 0 0 14 36 A 1 1 0 0 0 13 35 z M 39 36 L 39 38 L 45 38 L 45 36 L 39 36 z M 42 42 A 1 1 0 0 0 41 43 A 1 1 0 0 0 42 44 A 1 1 0 0 0 43 43 A 1 1 0 0 0 42 42 z"/></svg>
