<?xml version="1.0" encoding="UTF-8"?>
<svg width="220px" height="80px" viewBox="0 0 220 80" version="1.1" xmlns="http://www.w3.org/2000/svg" xmlns:xlink="http://www.w3.org/1999/xlink">
    <title>500</title>
    <g id="500" stroke="none" stroke-width="1" fill="none" fill-rule="evenodd">
        <rect fill="#FFFFFF" x="0" y="0" width="220" height="80"></rect>
        <path d="M21.2265625,18.0844727 L21.2265625,17.5546875 L19,17.5546875 L19,18.0844727 L21.2265625,18.0844727 Z M24.2270508,18.0844727 L24.2270508,17.5546875 L22.0004883,17.5546875 L22.0004883,18.0844727 L24.2270508,18.0844727 Z M27.2275391,18.0844727 L27.2275391,17.5546875 L25.0009766,17.5546875 L25.0009766,18.0844727 L27.2275391,18.0844727 Z M28.8095703,17.8598633 L30.1401367,14 L29.5078125,14 L28.1772461,17.8598633 L28.8095703,17.8598633 Z M33.1918945,17.8598633 L31.8613281,14 L31.2265625,14 L32.5571289,17.8598633 L33.1918945,17.8598633 Z M36.1923828,17.8598633 L34.8618164,14 L34.2270508,14 L35.5576172,17.8598633 L36.1923828,17.8598633 Z M39.1928711,17.8598633 L37.8623047,14 L37.2275391,14 L38.5581055,17.8598633 L39.1928711,17.8598633 Z M42.1933594,17.8598633 L40.862793,14 L40.2280273,14 L41.5585938,17.8598633 L42.1933594,17.8598633 Z M45.1938477,17.8598633 L43.8632812,14 L43.2285156,14 L44.559082,17.8598633 L45.1938477,17.8598633 Z M48.1943359,17.8598633 L46.8637695,14 L46.2290039,14 L47.5595703,17.8598633 L48.1943359,17.8598633 Z M51.1948242,17.8598633 L49.8642578,14 L49.2294922,14 L50.5600586,17.8598633 L51.1948242,17.8598633 Z M54.1953125,17.8598633 L52.8647461,14 L52.2299805,14 L53.5605469,17.8598633 L54.1953125,17.8598633 Z M57.1958008,17.8598633 L55.8652344,14 L55.2304688,14 L56.5610352,17.8598633 L57.1958008,17.8598633 Z M60.1962891,17.8598633 L58.8657227,14 L58.230957,14 L59.5615234,17.8598633 L60.1962891,17.8598633 Z M63.1967773,17.8598633 L61.8662109,14 L61.2314453,14 L62.5620117,17.8598633 L63.1967773,17.8598633 Z M66.1972656,17.8598633 L64.8666992,14 L64.2319336,14 L65.5625,17.8598633 L66.1972656,17.8598633 Z M69.1977539,17.8598633 L67.8671875,14 L67.2324219,14 L68.5629883,17.8598633 L69.1977539,17.8598633 Z M72.1982422,17.8598633 L70.8676758,14 L70.2329102,14 L71.5634766,17.8598633 L72.1982422,17.8598633 Z M75.1987305,17.8598633 L73.8681641,14 L73.2333984,14 L74.5639648,17.8598633 L75.1987305,17.8598633 Z M78.2358398,18.0844727 L78.2358398,17.5546875 L76.0092773,17.5546875 L76.0092773,18.0844727 L78.2358398,18.0844727 Z M81.2363281,18.0844727 L81.2363281,17.5546875 L79.0097656,17.5546875 L79.0097656,18.0844727 L81.2363281,18.0844727 Z M84.2368164,18.0844727 L84.2368164,17.5546875 L82.0102539,17.5546875 L82.0102539,18.0844727 L84.2368164,18.0844727 Z M87.2373047,18.0844727 L87.2373047,17.5546875 L85.0107422,17.5546875 L85.0107422,18.0844727 L87.2373047,18.0844727 Z M90.237793,18.0844727 L90.237793,17.5546875 L88.0112305,17.5546875 L88.0112305,18.0844727 L90.237793,18.0844727 Z M93.2382812,18.0844727 L93.2382812,17.5546875 L91.0117188,17.5546875 L91.0117188,18.0844727 L93.2382812,18.0844727 Z M94.8203125,17.8598633 L96.1508789,14 L95.5185547,14 L94.1879883,17.8598633 L94.8203125,17.8598633 Z M99.2026367,17.8598633 L97.8720703,14 L97.2373047,14 L98.5678711,17.8598633 L99.2026367,17.8598633 Z M102.203125,17.8598633 L100.872559,14 L100.237793,14 L101.568359,17.8598633 L102.203125,17.8598633 Z M105.203613,17.8598633 L103.873047,14 L103.238281,14 L104.568848,17.8598633 L105.203613,17.8598633 Z M108.204102,17.8598633 L106.873535,14 L106.23877,14 L107.569336,17.8598633 L108.204102,17.8598633 Z M111.20459,17.8598633 L109.874023,14 L109.239258,14 L110.569824,17.8598633 L111.20459,17.8598633 Z M114.205078,17.8598633 L112.874512,14 L112.239746,14 L113.570312,17.8598633 L114.205078,17.8598633 Z M117.205566,17.8598633 L115.875,14 L115.240234,14 L116.570801,17.8598633 L117.205566,17.8598633 Z M120.242676,18.0844727 L120.242676,17.5546875 L118.016113,17.5546875 L118.016113,18.0844727 L120.242676,18.0844727 Z M123.243164,18.0844727 L123.243164,17.5546875 L121.016602,17.5546875 L121.016602,18.0844727 L123.243164,18.0844727 Z M126.243652,18.0844727 L126.243652,17.5546875 L124.01709,17.5546875 L124.01709,18.0844727 L126.243652,18.0844727 Z M129.244141,18.0844727 L129.244141,17.5546875 L127.017578,17.5546875 L127.017578,18.0844727 L129.244141,18.0844727 Z M132.244629,18.0844727 L132.244629,17.5546875 L130.018066,17.5546875 L130.018066,18.0844727 L132.244629,18.0844727 Z M135.245117,18.0844727 L135.245117,17.5546875 L133.018555,17.5546875 L133.018555,18.0844727 L135.245117,18.0844727 Z M138.245605,18.0844727 L138.245605,17.5546875 L136.019043,17.5546875 L136.019043,18.0844727 L138.245605,18.0844727 Z M141.246094,18.0844727 L141.246094,17.5546875 L139.019531,17.5546875 L139.019531,18.0844727 L141.246094,18.0844727 Z M142.828125,17.8598633 L144.158691,14 L143.526367,14 L142.195801,17.8598633 L142.828125,17.8598633 Z M147.210449,17.8598633 L145.879883,14 L145.245117,14 L146.575684,17.8598633 L147.210449,17.8598633 Z M150.210938,17.8598633 L148.880371,14 L148.245605,14 L149.576172,17.8598633 L150.210938,17.8598633 Z M153.211426,17.8598633 L151.880859,14 L151.246094,14 L152.57666,17.8598633 L153.211426,17.8598633 Z M156.211914,17.8598633 L154.881348,14 L154.246582,14 L155.577148,17.8598633 L156.211914,17.8598633 Z M159.212402,17.8598633 L157.881836,14 L157.24707,14 L158.577637,17.8598633 L159.212402,17.8598633 Z M162.212891,17.8598633 L160.882324,14 L160.247559,14 L161.578125,17.8598633 L162.212891,17.8598633 Z M165.213379,17.8598633 L163.882812,14 L163.248047,14 L164.578613,17.8598633 L165.213379,17.8598633 Z M168.250488,18.0844727 L168.250488,17.5546875 L166.023926,17.5546875 L166.023926,18.0844727 L168.250488,18.0844727 Z M171.250977,18.0844727 L171.250977,17.5546875 L169.024414,17.5546875 L169.024414,18.0844727 L171.250977,18.0844727 Z M174.251465,18.0844727 L174.251465,17.5546875 L172.024902,17.5546875 L172.024902,18.0844727 L174.251465,18.0844727 Z M177.251953,18.0844727 L177.251953,17.5546875 L175.025391,17.5546875 L175.025391,18.0844727 L177.251953,18.0844727 Z M24.2270508,24.0844727 L24.2270508,23.5546875 L22.0004883,23.5546875 L22.0004883,24.0844727 L24.2270508,24.0844727 Z M27.2275391,24.0844727 L27.2275391,23.5546875 L25.0009766,23.5546875 L25.0009766,24.0844727 L27.2275391,24.0844727 Z M30.1914062,23.8598633 L28.8608398,20 L28.2260742,20 L29.5566406,23.8598633 L30.1914062,23.8598633 Z M31.8100586,23.8598633 L33.140625,20 L32.5083008,20 L31.1777344,23.8598633 L31.8100586,23.8598633 Z M36.1923828,23.8598633 L34.8618164,20 L34.2270508,20 L35.5576172,23.8598633 L36.1923828,23.8598633 Z M39.1928711,23.8598633 L37.8623047,20 L37.2275391,20 L38.5581055,23.8598633 L39.1928711,23.8598633 Z M42.1933594,23.8598633 L40.862793,20 L40.2280273,20 L41.5585938,23.8598633 L42.1933594,23.8598633 Z M43.8120117,23.8598633 L45.1425781,20 L44.5102539,20 L43.1796875,23.8598633 L43.8120117,23.8598633 Z M46.8125,23.8598633 L48.1430664,20 L47.5107422,20 L46.1801758,23.8598633 L46.8125,23.8598633 Z M49.8129883,23.8598633 L51.1435547,20 L50.5112305,20 L49.1806641,23.8598633 L49.8129883,23.8598633 Z M52.8134766,23.8598633 L54.144043,20 L53.5117188,20 L52.1811523,23.8598633 L52.8134766,23.8598633 Z M55.8139648,23.8598633 L57.1445312,20 L56.512207,20 L55.1816406,23.8598633 L55.8139648,23.8598633 Z M58.8144531,23.8598633 L60.1450195,20 L59.5126953,20 L58.1821289,23.8598633 L58.8144531,23.8598633 Z M61.8149414,23.8598633 L63.1455078,20 L62.5131836,20 L61.1826172,23.8598633 L61.8149414,23.8598633 Z M64.8154297,23.8598633 L66.1459961,20 L65.5136719,20 L64.1831055,23.8598633 L64.8154297,23.8598633 Z M67.815918,23.8598633 L69.1464844,20 L68.5141602,20 L67.1835938,23.8598633 L67.815918,23.8598633 Z M70.8164062,23.8598633 L72.1469727,20 L71.5146484,20 L70.184082,23.8598633 L70.8164062,23.8598633 Z M73.8168945,23.8598633 L75.1474609,20 L74.5151367,20 L73.1845703,23.8598633 L73.8168945,23.8598633 Z M78.2358398,24.0844727 L78.2358398,23.5546875 L76.0092773,23.5546875 L76.0092773,24.0844727 L78.2358398,24.0844727 Z M81.2363281,24.0844727 L81.2363281,23.5546875 L79.0097656,23.5546875 L79.0097656,24.0844727 L81.2363281,24.0844727 Z M84.2368164,24.0844727 L84.2368164,23.5546875 L82.0102539,23.5546875 L82.0102539,24.0844727 L84.2368164,24.0844727 Z M87.2373047,24.0844727 L87.2373047,23.5546875 L85.0107422,23.5546875 L85.0107422,24.0844727 L87.2373047,24.0844727 Z M90.237793,24.0844727 L90.237793,23.5546875 L88.0112305,23.5546875 L88.0112305,24.0844727 L90.237793,24.0844727 Z M91.8198242,23.8598633 L93.1503906,20 L92.5180664,20 L91.1875,23.8598633 L91.8198242,23.8598633 Z M96.2021484,23.8598633 L94.871582,20 L94.2368164,20 L95.5673828,23.8598633 L96.2021484,23.8598633 Z M99.2026367,23.8598633 L97.8720703,20 L97.2373047,20 L98.5678711,23.8598633 L99.2026367,23.8598633 Z M102.203125,23.8598633 L100.872559,20 L100.237793,20 L101.568359,23.8598633 L102.203125,23.8598633 Z M103.821777,23.8598633 L105.152344,20 L104.52002,20 L103.189453,23.8598633 L103.821777,23.8598633 Z M106.822266,23.8598633 L108.152832,20 L107.520508,20 L106.189941,23.8598633 L106.822266,23.8598633 Z M109.822754,23.8598633 L111.15332,20 L110.520996,20 L109.19043,23.8598633 L109.822754,23.8598633 Z M112.823242,23.8598633 L114.153809,20 L113.521484,20 L112.190918,23.8598633 L112.823242,23.8598633 Z M115.82373,23.8598633 L117.154297,20 L116.521973,20 L115.191406,23.8598633 L115.82373,23.8598633 Z M120.206055,23.8598633 L118.875488,20 L118.240723,20 L119.571289,23.8598633 L120.206055,23.8598633 Z M123.206543,23.8598633 L121.875977,20 L121.241211,20 L122.571777,23.8598633 L123.206543,23.8598633 Z M126.207031,23.8598633 L124.876465,20 L124.241699,20 L125.572266,23.8598633 L126.207031,23.8598633 Z M129.244141,24.0844727 L129.244141,23.5546875 L127.017578,23.5546875 L127.017578,24.0844727 L129.244141,24.0844727 Z M132.244629,24.0844727 L132.244629,23.5546875 L130.018066,23.5546875 L130.018066,24.0844727 L132.244629,24.0844727 Z M135.245117,24.0844727 L135.245117,23.5546875 L133.018555,23.5546875 L133.018555,24.0844727 L135.245117,24.0844727 Z M138.245605,24.0844727 L138.245605,23.5546875 L136.019043,23.5546875 L136.019043,24.0844727 L138.245605,24.0844727 Z M139.827637,23.8598633 L141.158203,20 L140.525879,20 L139.195312,23.8598633 L139.827637,23.8598633 Z M144.209961,23.8598633 L142.879395,20 L142.244629,20 L143.575195,23.8598633 L144.209961,23.8598633 Z M147.210449,23.8598633 L145.879883,20 L145.245117,20 L146.575684,23.8598633 L147.210449,23.8598633 Z M150.210938,23.8598633 L148.880371,20 L148.245605,20 L149.576172,23.8598633 L150.210938,23.8598633 Z M151.82959,23.8598633 L153.160156,20 L152.527832,20 L151.197266,23.8598633 L151.82959,23.8598633 Z M154.830078,23.8598633 L156.160645,20 L155.52832,20 L154.197754,23.8598633 L154.830078,23.8598633 Z M157.830566,23.8598633 L159.161133,20 L158.528809,20 L157.198242,23.8598633 L157.830566,23.8598633 Z M160.831055,23.8598633 L162.161621,20 L161.529297,20 L160.19873,23.8598633 L160.831055,23.8598633 Z M163.831543,23.8598633 L165.162109,20 L164.529785,20 L163.199219,23.8598633 L163.831543,23.8598633 Z M168.213867,23.8598633 L166.883301,20 L166.248535,20 L167.579102,23.8598633 L168.213867,23.8598633 Z M171.214355,23.8598633 L169.883789,20 L169.249023,20 L170.57959,23.8598633 L171.214355,23.8598633 Z M174.214844,23.8598633 L172.884277,20 L172.249512,20 L173.580078,23.8598633 L174.214844,23.8598633 Z M177.251953,24.0844727 L177.251953,23.5546875 L175.025391,23.5546875 L175.025391,24.0844727 L177.251953,24.0844727 Z M180.252441,24.0844727 L180.252441,23.5546875 L178.025879,23.5546875 L178.025879,24.0844727 L180.252441,24.0844727 Z M27.2275391,30.0844727 L27.2275391,29.5546875 L25.0009766,29.5546875 L25.0009766,30.0844727 L27.2275391,30.0844727 Z M30.2280273,30.0844727 L30.2280273,29.5546875 L28.0014648,29.5546875 L28.0014648,30.0844727 L30.2280273,30.0844727 Z M33.1918945,29.8598633 L31.8613281,26 L31.2265625,26 L32.5571289,29.8598633 L33.1918945,29.8598633 Z M34.8105469,29.8598633 L36.1411133,26 L35.5087891,26 L34.1782227,29.8598633 L34.8105469,29.8598633 Z M39.1928711,29.8598633 L37.8623047,26 L37.2275391,26 L38.5581055,29.8598633 L39.1928711,29.8598633 Z M42.1933594,29.8598633 L40.862793,26 L40.2280273,26 L41.5585938,29.8598633 L42.1933594,29.8598633 Z M45.1938477,29.8598633 L43.8632812,26 L43.2285156,26 L44.559082,29.8598633 L45.1938477,29.8598633 Z M48.230957,30.0844727 L48.230957,29.5546875 L46.0043945,29.5546875 L46.0043945,30.0844727 L48.230957,30.0844727 Z M51.2314453,30.0844727 L51.2314453,29.5546875 L49.0048828,29.5546875 L49.0048828,30.0844727 L51.2314453,30.0844727 Z M54.2319336,30.0844727 L54.2319336,29.5546875 L52.0053711,29.5546875 L52.0053711,30.0844727 L54.2319336,30.0844727 Z M57.2324219,30.0844727 L57.2324219,29.5546875 L55.0058594,29.5546875 L55.0058594,30.0844727 L57.2324219,30.0844727 Z M60.2329102,30.0844727 L60.2329102,29.5546875 L58.0063477,29.5546875 L58.0063477,30.0844727 L60.2329102,30.0844727 Z M63.2333984,30.0844727 L63.2333984,29.5546875 L61.0068359,29.5546875 L61.0068359,30.0844727 L63.2333984,30.0844727 Z M66.2338867,30.0844727 L66.2338867,29.5546875 L64.0073242,29.5546875 L64.0073242,30.0844727 L66.2338867,30.0844727 Z M69.234375,30.0844727 L69.234375,29.5546875 L67.0078125,29.5546875 L67.0078125,30.0844727 L69.234375,30.0844727 Z M72.2348633,30.0844727 L72.2348633,29.5546875 L70.0083008,29.5546875 L70.0083008,30.0844727 L72.2348633,30.0844727 Z M75.2353516,30.0844727 L75.2353516,29.5546875 L73.0087891,29.5546875 L73.0087891,30.0844727 L75.2353516,30.0844727 Z M78.2358398,30.0844727 L78.2358398,29.5546875 L76.0092773,29.5546875 L76.0092773,30.0844727 L78.2358398,30.0844727 Z M81.2363281,30.0844727 L81.2363281,29.5546875 L79.0097656,29.5546875 L79.0097656,30.0844727 L81.2363281,30.0844727 Z M84.2368164,30.0844727 L84.2368164,29.5546875 L82.0102539,29.5546875 L82.0102539,30.0844727 L84.2368164,30.0844727 Z M87.2373047,30.0844727 L87.2373047,29.5546875 L85.0107422,29.5546875 L85.0107422,30.0844727 L87.2373047,30.0844727 Z M90.237793,30.0844727 L90.237793,29.5546875 L88.0112305,29.5546875 L88.0112305,30.0844727 L90.237793,30.0844727 Z M91.8198242,29.8598633 L93.1503906,26 L92.5180664,26 L91.1875,29.8598633 L91.8198242,29.8598633 Z M96.2021484,29.8598633 L94.871582,26 L94.2368164,26 L95.5673828,29.8598633 L96.2021484,29.8598633 Z M99.2026367,29.8598633 L97.8720703,26 L97.2373047,26 L98.5678711,29.8598633 L99.2026367,29.8598633 Z M102.203125,29.8598633 L100.872559,26 L100.237793,26 L101.568359,29.8598633 L102.203125,29.8598633 Z M105.240234,30.0844727 L105.240234,29.5546875 L103.013672,29.5546875 L103.013672,30.0844727 L105.240234,30.0844727 Z M108.240723,30.0844727 L108.240723,29.5546875 L106.01416,29.5546875 L106.01416,30.0844727 L108.240723,30.0844727 Z M111.241211,30.0844727 L111.241211,29.5546875 L109.014648,29.5546875 L109.014648,30.0844727 L111.241211,30.0844727 Z M114.241699,30.0844727 L114.241699,29.5546875 L112.015137,29.5546875 L112.015137,30.0844727 L114.241699,30.0844727 Z M117.205566,29.8598633 L115.875,26 L115.240234,26 L116.570801,29.8598633 L117.205566,29.8598633 Z M118.824219,29.8598633 L120.154785,26 L119.522461,26 L118.191895,29.8598633 L118.824219,29.8598633 Z M121.824707,29.8598633 L123.155273,26 L122.522949,26 L121.192383,29.8598633 L121.824707,29.8598633 Z M126.207031,29.8598633 L124.876465,26 L124.241699,26 L125.572266,29.8598633 L126.207031,29.8598633 Z M129.20752,29.8598633 L127.876953,26 L127.242188,26 L128.572754,29.8598633 L129.20752,29.8598633 Z M132.208008,29.8598633 L130.877441,26 L130.242676,26 L131.573242,29.8598633 L132.208008,29.8598633 Z M135.245117,30.0844727 L135.245117,29.5546875 L133.018555,29.5546875 L133.018555,30.0844727 L135.245117,30.0844727 Z M138.245605,30.0844727 L138.245605,29.5546875 L136.019043,29.5546875 L136.019043,30.0844727 L138.245605,30.0844727 Z M139.827637,29.8598633 L141.158203,26 L140.525879,26 L139.195312,29.8598633 L139.827637,29.8598633 Z M144.209961,29.8598633 L142.879395,26 L142.244629,26 L143.575195,29.8598633 L144.209961,29.8598633 Z M147.210449,29.8598633 L145.879883,26 L145.245117,26 L146.575684,29.8598633 L147.210449,29.8598633 Z M150.210938,29.8598633 L148.880371,26 L148.245605,26 L149.576172,29.8598633 L150.210938,29.8598633 Z M153.248047,30.0844727 L153.248047,29.5546875 L151.021484,29.5546875 L151.021484,30.0844727 L153.248047,30.0844727 Z M156.248535,30.0844727 L156.248535,29.5546875 L154.021973,29.5546875 L154.021973,30.0844727 L156.248535,30.0844727 Z M159.249023,30.0844727 L159.249023,29.5546875 L157.022461,29.5546875 L157.022461,30.0844727 L159.249023,30.0844727 Z M162.249512,30.0844727 L162.249512,29.5546875 L160.022949,29.5546875 L160.022949,30.0844727 L162.249512,30.0844727 Z M165.213379,29.8598633 L163.882812,26 L163.248047,26 L164.578613,29.8598633 L165.213379,29.8598633 Z M166.832031,29.8598633 L168.162598,26 L167.530273,26 L166.199707,29.8598633 L166.832031,29.8598633 Z M169.83252,29.8598633 L171.163086,26 L170.530762,26 L169.200195,29.8598633 L169.83252,29.8598633 Z M174.214844,29.8598633 L172.884277,26 L172.249512,26 L173.580078,29.8598633 L174.214844,29.8598633 Z M177.215332,29.8598633 L175.884766,26 L175.25,26 L176.580566,29.8598633 L177.215332,29.8598633 Z M180.21582,29.8598633 L178.885254,26 L178.250488,26 L179.581055,29.8598633 L180.21582,29.8598633 Z M183.25293,30.0844727 L183.25293,29.5546875 L181.026367,29.5546875 L181.026367,30.0844727 L183.25293,30.0844727 Z M30.2280273,36.0844727 L30.2280273,35.5546875 L28.0014648,35.5546875 L28.0014648,36.0844727 L30.2280273,36.0844727 Z M33.2285156,36.0844727 L33.2285156,35.5546875 L31.0019531,35.5546875 L31.0019531,36.0844727 L33.2285156,36.0844727 Z M36.1923828,35.8598633 L34.8618164,32 L34.2270508,32 L35.5576172,35.8598633 L36.1923828,35.8598633 Z M37.8110352,35.8598633 L39.1416016,32 L38.5092773,32 L37.1787109,35.8598633 L37.8110352,35.8598633 Z M42.1933594,35.8598633 L40.862793,32 L40.2280273,32 L41.5585938,35.8598633 L42.1933594,35.8598633 Z M45.1938477,35.8598633 L43.8632812,32 L43.2285156,32 L44.559082,35.8598633 L45.1938477,35.8598633 Z M48.1943359,35.8598633 L46.8637695,32 L46.2290039,32 L47.5595703,35.8598633 L48.1943359,35.8598633 Z M51.1948242,35.8598633 L49.8642578,32 L49.2294922,32 L50.5600586,35.8598633 L51.1948242,35.8598633 Z M54.1953125,35.8598633 L52.8647461,32 L52.2299805,32 L53.5605469,35.8598633 L54.1953125,35.8598633 Z M57.1958008,35.8598633 L55.8652344,32 L55.2304688,32 L56.5610352,35.8598633 L57.1958008,35.8598633 Z M60.1962891,35.8598633 L58.8657227,32 L58.230957,32 L59.5615234,35.8598633 L60.1962891,35.8598633 Z M63.1967773,35.8598633 L61.8662109,32 L61.2314453,32 L62.5620117,35.8598633 L63.1967773,35.8598633 Z M66.1972656,35.8598633 L64.8666992,32 L64.2319336,32 L65.5625,35.8598633 L66.1972656,35.8598633 Z M69.1977539,35.8598633 L67.8671875,32 L67.2324219,32 L68.5629883,35.8598633 L69.1977539,35.8598633 Z M72.1982422,35.8598633 L70.8676758,32 L70.2329102,32 L71.5634766,35.8598633 L72.1982422,35.8598633 Z M75.1987305,35.8598633 L73.8681641,32 L73.2333984,32 L74.5639648,35.8598633 L75.1987305,35.8598633 Z M78.2358398,36.0844727 L78.2358398,35.5546875 L76.0092773,35.5546875 L76.0092773,36.0844727 L78.2358398,36.0844727 Z M81.2363281,36.0844727 L81.2363281,35.5546875 L79.0097656,35.5546875 L79.0097656,36.0844727 L81.2363281,36.0844727 Z M84.2368164,36.0844727 L84.2368164,35.5546875 L82.0102539,35.5546875 L82.0102539,36.0844727 L84.2368164,36.0844727 Z M87.2373047,36.0844727 L87.2373047,35.5546875 L85.0107422,35.5546875 L85.0107422,36.0844727 L87.2373047,36.0844727 Z M90.237793,36.0844727 L90.237793,35.5546875 L88.0112305,35.5546875 L88.0112305,36.0844727 L90.237793,36.0844727 Z M93.2016602,35.8598633 L91.8710938,32 L91.2363281,32 L92.5668945,35.8598633 L93.2016602,35.8598633 Z M94.8203125,35.8598633 L96.1508789,32 L95.5185547,32 L94.1879883,35.8598633 L94.8203125,35.8598633 Z M99.2026367,35.8598633 L97.8720703,32 L97.2373047,32 L98.5678711,35.8598633 L99.2026367,35.8598633 Z M102.203125,35.8598633 L100.872559,32 L100.237793,32 L101.568359,35.8598633 L102.203125,35.8598633 Z M105.203613,35.8598633 L103.873047,32 L103.238281,32 L104.568848,35.8598633 L105.203613,35.8598633 Z M108.240723,36.0844727 L108.240723,35.5546875 L106.01416,35.5546875 L106.01416,36.0844727 L108.240723,36.0844727 Z M111.241211,36.0844727 L111.241211,35.5546875 L109.014648,35.5546875 L109.014648,36.0844727 L111.241211,36.0844727 Z M114.241699,36.0844727 L114.241699,35.5546875 L112.015137,35.5546875 L112.015137,36.0844727 L114.241699,36.0844727 Z M117.242188,36.0844727 L117.242188,35.5546875 L115.015625,35.5546875 L115.015625,36.0844727 L117.242188,36.0844727 Z M120.242676,36.0844727 L120.242676,35.5546875 L118.016113,35.5546875 L118.016113,36.0844727 L120.242676,36.0844727 Z M123.206543,35.8598633 L121.875977,32 L121.241211,32 L122.571777,35.8598633 L123.206543,35.8598633 Z M124.825195,35.8598633 L126.155762,32 L125.523438,32 L124.192871,35.8598633 L124.825195,35.8598633 Z M129.20752,35.8598633 L127.876953,32 L127.242188,32 L128.572754,35.8598633 L129.20752,35.8598633 Z M132.208008,35.8598633 L130.877441,32 L130.242676,32 L131.573242,35.8598633 L132.208008,35.8598633 Z M135.208496,35.8598633 L133.87793,32 L133.243164,32 L134.57373,35.8598633 L135.208496,35.8598633 Z M138.245605,36.0844727 L138.245605,35.5546875 L136.019043,35.5546875 L136.019043,36.0844727 L138.245605,36.0844727 Z M141.209473,35.8598633 L139.878906,32 L139.244141,32 L140.574707,35.8598633 L141.209473,35.8598633 Z M142.828125,35.8598633 L144.158691,32 L143.526367,32 L142.195801,35.8598633 L142.828125,35.8598633 Z M147.210449,35.8598633 L145.879883,32 L145.245117,32 L146.575684,35.8598633 L147.210449,35.8598633 Z M150.210938,35.8598633 L148.880371,32 L148.245605,32 L149.576172,35.8598633 L150.210938,35.8598633 Z M153.211426,35.8598633 L151.880859,32 L151.246094,32 L152.57666,35.8598633 L153.211426,35.8598633 Z M156.248535,36.0844727 L156.248535,35.5546875 L154.021973,35.5546875 L154.021973,36.0844727 L156.248535,36.0844727 Z M159.249023,36.0844727 L159.249023,35.5546875 L157.022461,35.5546875 L157.022461,36.0844727 L159.249023,36.0844727 Z M162.249512,36.0844727 L162.249512,35.5546875 L160.022949,35.5546875 L160.022949,36.0844727 L162.249512,36.0844727 Z M165.25,36.0844727 L165.25,35.5546875 L163.023438,35.5546875 L163.023438,36.0844727 L165.25,36.0844727 Z M168.250488,36.0844727 L168.250488,35.5546875 L166.023926,35.5546875 L166.023926,36.0844727 L168.250488,36.0844727 Z M171.214355,35.8598633 L169.883789,32 L169.249023,32 L170.57959,35.8598633 L171.214355,35.8598633 Z M172.833008,35.8598633 L174.163574,32 L173.53125,32 L172.200684,35.8598633 L172.833008,35.8598633 Z M177.215332,35.8598633 L175.884766,32 L175.25,32 L176.580566,35.8598633 L177.215332,35.8598633 Z M180.21582,35.8598633 L178.885254,32 L178.250488,32 L179.581055,35.8598633 L180.21582,35.8598633 Z M183.216309,35.8598633 L181.885742,32 L181.250977,32 L182.581543,35.8598633 L183.216309,35.8598633 Z M186.253418,36.0844727 L186.253418,35.5546875 L184.026855,35.5546875 L184.026855,36.0844727 L186.253418,36.0844727 Z M33.2285156,42.0844727 L33.2285156,41.5546875 L31.0019531,41.5546875 L31.0019531,42.0844727 L33.2285156,42.0844727 Z M36.2290039,42.0844727 L36.2290039,41.5546875 L34.0024414,41.5546875 L34.0024414,42.0844727 L36.2290039,42.0844727 Z M39.1928711,41.8598633 L37.8623047,38 L37.2275391,38 L38.5581055,41.8598633 L39.1928711,41.8598633 Z M40.8115234,41.8598633 L42.1420898,38 L41.5097656,38 L40.1791992,41.8598633 L40.8115234,41.8598633 Z M43.8120117,41.8598633 L45.1425781,38 L44.5102539,38 L43.1796875,41.8598633 L43.8120117,41.8598633 Z M46.8125,41.8598633 L48.1430664,38 L47.5107422,38 L46.1801758,41.8598633 L46.8125,41.8598633 Z M49.8129883,41.8598633 L51.1435547,38 L50.5112305,38 L49.1806641,41.8598633 L49.8129883,41.8598633 Z M52.8134766,41.8598633 L54.144043,38 L53.5117188,38 L52.1811523,41.8598633 L52.8134766,41.8598633 Z M55.8139648,41.8598633 L57.1445312,38 L56.512207,38 L55.1816406,41.8598633 L55.8139648,41.8598633 Z M58.8144531,41.8598633 L60.1450195,38 L59.5126953,38 L58.1821289,41.8598633 L58.8144531,41.8598633 Z M61.8149414,41.8598633 L63.1455078,38 L62.5131836,38 L61.1826172,41.8598633 L61.8149414,41.8598633 Z M64.8154297,41.8598633 L66.1459961,38 L65.5136719,38 L64.1831055,41.8598633 L64.8154297,41.8598633 Z M67.815918,41.8598633 L69.1464844,38 L68.5141602,38 L67.1835938,41.8598633 L67.815918,41.8598633 Z M70.8164062,41.8598633 L72.1469727,38 L71.5146484,38 L70.184082,41.8598633 L70.8164062,41.8598633 Z M73.8168945,41.8598633 L75.1474609,38 L74.5151367,38 L73.1845703,41.8598633 L73.8168945,41.8598633 Z M78.1992188,41.8598633 L76.8686523,38 L76.2338867,38 L77.5644531,41.8598633 L78.1992188,41.8598633 Z M81.199707,41.8598633 L79.8691406,38 L79.234375,38 L80.5649414,41.8598633 L81.199707,41.8598633 Z M84.2001953,41.8598633 L82.8696289,38 L82.2348633,38 L83.5654297,41.8598633 L84.2001953,41.8598633 Z M87.2373047,42.0844727 L87.2373047,41.5546875 L85.0107422,41.5546875 L85.0107422,42.0844727 L87.2373047,42.0844727 Z M90.237793,42.0844727 L90.237793,41.5546875 L88.0112305,41.5546875 L88.0112305,42.0844727 L90.237793,42.0844727 Z M93.2382812,42.0844727 L93.2382812,41.5546875 L91.0117188,41.5546875 L91.0117188,42.0844727 L93.2382812,42.0844727 Z M96.2021484,41.8598633 L94.871582,38 L94.2368164,38 L95.5673828,41.8598633 L96.2021484,41.8598633 Z M97.8208008,41.8598633 L99.1513672,38 L98.519043,38 L97.1884766,41.8598633 L97.8208008,41.8598633 Z M102.203125,41.8598633 L100.872559,38 L100.237793,38 L101.568359,41.8598633 L102.203125,41.8598633 Z M105.203613,41.8598633 L103.873047,38 L103.238281,38 L104.568848,41.8598633 L105.203613,41.8598633 Z M108.204102,41.8598633 L106.873535,38 L106.23877,38 L107.569336,41.8598633 L108.204102,41.8598633 Z M111.241211,42.0844727 L111.241211,41.5546875 L109.014648,41.5546875 L109.014648,42.0844727 L111.241211,42.0844727 Z M114.241699,42.0844727 L114.241699,41.5546875 L112.015137,41.5546875 L112.015137,42.0844727 L114.241699,42.0844727 Z M117.242188,42.0844727 L117.242188,41.5546875 L115.015625,41.5546875 L115.015625,42.0844727 L117.242188,42.0844727 Z M120.242676,42.0844727 L120.242676,41.5546875 L118.016113,41.5546875 L118.016113,42.0844727 L120.242676,42.0844727 Z M123.243164,42.0844727 L123.243164,41.5546875 L121.016602,41.5546875 L121.016602,42.0844727 L123.243164,42.0844727 Z M126.207031,41.8598633 L124.876465,38 L124.241699,38 L125.572266,41.8598633 L126.207031,41.8598633 Z M127.825684,41.8598633 L129.15625,38 L128.523926,38 L127.193359,41.8598633 L127.825684,41.8598633 Z M132.208008,41.8598633 L130.877441,38 L130.242676,38 L131.573242,41.8598633 L132.208008,41.8598633 Z M135.208496,41.8598633 L133.87793,38 L133.243164,38 L134.57373,41.8598633 L135.208496,41.8598633 Z M138.208984,41.8598633 L136.878418,38 L136.243652,38 L137.574219,41.8598633 L138.208984,41.8598633 Z M141.246094,42.0844727 L141.246094,41.5546875 L139.019531,41.5546875 L139.019531,42.0844727 L141.246094,42.0844727 Z M144.209961,41.8598633 L142.879395,38 L142.244629,38 L143.575195,41.8598633 L144.209961,41.8598633 Z M145.828613,41.8598633 L147.15918,38 L146.526855,38 L145.196289,41.8598633 L145.828613,41.8598633 Z M150.210938,41.8598633 L148.880371,38 L148.245605,38 L149.576172,41.8598633 L150.210938,41.8598633 Z M153.211426,41.8598633 L151.880859,38 L151.246094,38 L152.57666,41.8598633 L153.211426,41.8598633 Z M156.211914,41.8598633 L154.881348,38 L154.246582,38 L155.577148,41.8598633 L156.211914,41.8598633 Z M159.249023,42.0844727 L159.249023,41.5546875 L157.022461,41.5546875 L157.022461,42.0844727 L159.249023,42.0844727 Z M162.249512,42.0844727 L162.249512,41.5546875 L160.022949,41.5546875 L160.022949,42.0844727 L162.249512,42.0844727 Z M165.25,42.0844727 L165.25,41.5546875 L163.023438,41.5546875 L163.023438,42.0844727 L165.25,42.0844727 Z M168.250488,42.0844727 L168.250488,41.5546875 L166.023926,41.5546875 L166.023926,42.0844727 L168.250488,42.0844727 Z M171.250977,42.0844727 L171.250977,41.5546875 L169.024414,41.5546875 L169.024414,42.0844727 L171.250977,42.0844727 Z M174.214844,41.8598633 L172.884277,38 L172.249512,38 L173.580078,41.8598633 L174.214844,41.8598633 Z M175.833496,41.8598633 L177.164062,38 L176.531738,38 L175.201172,41.8598633 L175.833496,41.8598633 Z M180.21582,41.8598633 L178.885254,38 L178.250488,38 L179.581055,41.8598633 L180.21582,41.8598633 Z M183.216309,41.8598633 L181.885742,38 L181.250977,38 L182.581543,41.8598633 L183.216309,41.8598633 Z M186.216797,41.8598633 L184.88623,38 L184.251465,38 L185.582031,41.8598633 L186.216797,41.8598633 Z M189.253906,42.0844727 L189.253906,41.5546875 L187.027344,41.5546875 L187.027344,42.0844727 L189.253906,42.0844727 Z M36.2290039,48.0844727 L36.2290039,47.5546875 L34.0024414,47.5546875 L34.0024414,48.0844727 L36.2290039,48.0844727 Z M39.2294922,48.0844727 L39.2294922,47.5546875 L37.0029297,47.5546875 L37.0029297,48.0844727 L39.2294922,48.0844727 Z M42.2299805,48.0844727 L42.2299805,47.5546875 L40.003418,47.5546875 L40.003418,48.0844727 L42.2299805,48.0844727 Z M45.2304688,48.0844727 L45.2304688,47.5546875 L43.0039062,47.5546875 L43.0039062,48.0844727 L45.2304688,48.0844727 Z M48.230957,48.0844727 L48.230957,47.5546875 L46.0043945,47.5546875 L46.0043945,48.0844727 L48.230957,48.0844727 Z M51.2314453,48.0844727 L51.2314453,47.5546875 L49.0048828,47.5546875 L49.0048828,48.0844727 L51.2314453,48.0844727 Z M54.2319336,48.0844727 L54.2319336,47.5546875 L52.0053711,47.5546875 L52.0053711,48.0844727 L54.2319336,48.0844727 Z M57.2324219,48.0844727 L57.2324219,47.5546875 L55.0058594,47.5546875 L55.0058594,48.0844727 L57.2324219,48.0844727 Z M60.2329102,48.0844727 L60.2329102,47.5546875 L58.0063477,47.5546875 L58.0063477,48.0844727 L60.2329102,48.0844727 Z M63.2333984,48.0844727 L63.2333984,47.5546875 L61.0068359,47.5546875 L61.0068359,48.0844727 L63.2333984,48.0844727 Z M66.2338867,48.0844727 L66.2338867,47.5546875 L64.0073242,47.5546875 L64.0073242,48.0844727 L66.2338867,48.0844727 Z M69.234375,48.0844727 L69.234375,47.5546875 L67.0078125,47.5546875 L67.0078125,48.0844727 L69.234375,48.0844727 Z M72.2348633,48.0844727 L72.2348633,47.5546875 L70.0083008,47.5546875 L70.0083008,48.0844727 L72.2348633,48.0844727 Z M75.1987305,47.8598633 L73.8681641,44 L73.2333984,44 L74.5639648,47.8598633 L75.1987305,47.8598633 Z M76.8173828,47.8598633 L78.1479492,44 L77.515625,44 L76.1850586,47.8598633 L76.8173828,47.8598633 Z M79.8178711,47.8598633 L81.1484375,44 L80.5161133,44 L79.1855469,47.8598633 L79.8178711,47.8598633 Z M84.2001953,47.8598633 L82.8696289,44 L82.2348633,44 L83.5654297,47.8598633 L84.2001953,47.8598633 Z M87.2006836,47.8598633 L85.8701172,44 L85.2353516,44 L86.565918,47.8598633 L87.2006836,47.8598633 Z M90.2011719,47.8598633 L88.8706055,44 L88.2358398,44 L89.5664062,47.8598633 L90.2011719,47.8598633 Z M93.2382812,48.0844727 L93.2382812,47.5546875 L91.0117188,47.5546875 L91.0117188,48.0844727 L93.2382812,48.0844727 Z M96.2387695,48.0844727 L96.2387695,47.5546875 L94.012207,47.5546875 L94.012207,48.0844727 L96.2387695,48.0844727 Z M99.2026367,47.8598633 L97.8720703,44 L97.2373047,44 L98.5678711,47.8598633 L99.2026367,47.8598633 Z M100.821289,47.8598633 L102.151855,44 L101.519531,44 L100.188965,47.8598633 L100.821289,47.8598633 Z M105.203613,47.8598633 L103.873047,44 L103.238281,44 L104.568848,47.8598633 L105.203613,47.8598633 Z M108.204102,47.8598633 L106.873535,44 L106.23877,44 L107.569336,47.8598633 L108.204102,47.8598633 Z M111.20459,47.8598633 L109.874023,44 L109.239258,44 L110.569824,47.8598633 L111.20459,47.8598633 Z M114.241699,48.0844727 L114.241699,47.5546875 L112.015137,47.5546875 L112.015137,48.0844727 L114.241699,48.0844727 Z M117.242188,48.0844727 L117.242188,47.5546875 L115.015625,47.5546875 L115.015625,48.0844727 L117.242188,48.0844727 Z M120.242676,48.0844727 L120.242676,47.5546875 L118.016113,47.5546875 L118.016113,48.0844727 L120.242676,48.0844727 Z M123.243164,48.0844727 L123.243164,47.5546875 L121.016602,47.5546875 L121.016602,48.0844727 L123.243164,48.0844727 Z M126.243652,48.0844727 L126.243652,47.5546875 L124.01709,47.5546875 L124.01709,48.0844727 L126.243652,48.0844727 Z M129.20752,47.8598633 L127.876953,44 L127.242188,44 L128.572754,47.8598633 L129.20752,47.8598633 Z M130.826172,47.8598633 L132.156738,44 L131.524414,44 L130.193848,47.8598633 L130.826172,47.8598633 Z M135.208496,47.8598633 L133.87793,44 L133.243164,44 L134.57373,47.8598633 L135.208496,47.8598633 Z M138.208984,47.8598633 L136.878418,44 L136.243652,44 L137.574219,47.8598633 L138.208984,47.8598633 Z M141.209473,47.8598633 L139.878906,44 L139.244141,44 L140.574707,47.8598633 L141.209473,47.8598633 Z M144.246582,48.0844727 L144.246582,47.5546875 L142.02002,47.5546875 L142.02002,48.0844727 L144.246582,48.0844727 Z M147.210449,47.8598633 L145.879883,44 L145.245117,44 L146.575684,47.8598633 L147.210449,47.8598633 Z M148.829102,47.8598633 L150.159668,44 L149.527344,44 L148.196777,47.8598633 L148.829102,47.8598633 Z M153.211426,47.8598633 L151.880859,44 L151.246094,44 L152.57666,47.8598633 L153.211426,47.8598633 Z M156.211914,47.8598633 L154.881348,44 L154.246582,44 L155.577148,47.8598633 L156.211914,47.8598633 Z M159.212402,47.8598633 L157.881836,44 L157.24707,44 L158.577637,47.8598633 L159.212402,47.8598633 Z M162.249512,48.0844727 L162.249512,47.5546875 L160.022949,47.5546875 L160.022949,48.0844727 L162.249512,48.0844727 Z M165.25,48.0844727 L165.25,47.5546875 L163.023438,47.5546875 L163.023438,48.0844727 L165.25,48.0844727 Z M168.250488,48.0844727 L168.250488,47.5546875 L166.023926,47.5546875 L166.023926,48.0844727 L168.250488,48.0844727 Z M171.250977,48.0844727 L171.250977,47.5546875 L169.024414,47.5546875 L169.024414,48.0844727 L171.250977,48.0844727 Z M174.251465,48.0844727 L174.251465,47.5546875 L172.024902,47.5546875 L172.024902,48.0844727 L174.251465,48.0844727 Z M177.215332,47.8598633 L175.884766,44 L175.25,44 L176.580566,47.8598633 L177.215332,47.8598633 Z M178.833984,47.8598633 L180.164551,44 L179.532227,44 L178.20166,47.8598633 L178.833984,47.8598633 Z M183.216309,47.8598633 L181.885742,44 L181.250977,44 L182.581543,47.8598633 L183.216309,47.8598633 Z M186.216797,47.8598633 L184.88623,44 L184.251465,44 L185.582031,47.8598633 L186.216797,47.8598633 Z M189.217285,47.8598633 L187.886719,44 L187.251953,44 L188.58252,47.8598633 L189.217285,47.8598633 Z M192.254395,48.0844727 L192.254395,47.5546875 L190.027832,47.5546875 L190.027832,48.0844727 L192.254395,48.0844727 Z M39.2294922,54.0844727 L39.2294922,53.5546875 L37.0029297,53.5546875 L37.0029297,54.0844727 L39.2294922,54.0844727 Z M42.2299805,54.0844727 L42.2299805,53.5546875 L40.003418,53.5546875 L40.003418,54.0844727 L42.2299805,54.0844727 Z M43.8120117,53.8598633 L45.1425781,50 L44.5102539,50 L43.1796875,53.8598633 L43.8120117,53.8598633 Z M48.1943359,53.8598633 L46.8637695,50 L46.2290039,50 L47.5595703,53.8598633 L48.1943359,53.8598633 Z M51.1948242,53.8598633 L49.8642578,50 L49.2294922,50 L50.5600586,53.8598633 L51.1948242,53.8598633 Z M54.1953125,53.8598633 L52.8647461,50 L52.2299805,50 L53.5605469,53.8598633 L54.1953125,53.8598633 Z M57.2324219,54.0844727 L57.2324219,53.5546875 L55.0058594,53.5546875 L55.0058594,54.0844727 L57.2324219,54.0844727 Z M60.2329102,54.0844727 L60.2329102,53.5546875 L58.0063477,53.5546875 L58.0063477,54.0844727 L60.2329102,54.0844727 Z M63.2333984,54.0844727 L63.2333984,53.5546875 L61.0068359,53.5546875 L61.0068359,54.0844727 L63.2333984,54.0844727 Z M66.2338867,54.0844727 L66.2338867,53.5546875 L64.0073242,53.5546875 L64.0073242,54.0844727 L66.2338867,54.0844727 Z M69.234375,54.0844727 L69.234375,53.5546875 L67.0078125,53.5546875 L67.0078125,54.0844727 L69.234375,54.0844727 Z M72.2348633,54.0844727 L72.2348633,53.5546875 L70.0083008,53.5546875 L70.0083008,54.0844727 L72.2348633,54.0844727 Z M75.2353516,54.0844727 L75.2353516,53.5546875 L73.0087891,53.5546875 L73.0087891,54.0844727 L75.2353516,54.0844727 Z M78.2358398,54.0844727 L78.2358398,53.5546875 L76.0092773,53.5546875 L76.0092773,54.0844727 L78.2358398,54.0844727 Z M81.199707,53.8598633 L79.8691406,50 L79.234375,50 L80.5649414,53.8598633 L81.199707,53.8598633 Z M82.8183594,53.8598633 L84.1489258,50 L83.5166016,50 L82.1860352,53.8598633 L82.8183594,53.8598633 Z M87.2006836,53.8598633 L85.8701172,50 L85.2353516,50 L86.565918,53.8598633 L87.2006836,53.8598633 Z M90.2011719,53.8598633 L88.8706055,50 L88.2358398,50 L89.5664062,53.8598633 L90.2011719,53.8598633 Z M93.2016602,53.8598633 L91.8710938,50 L91.2363281,50 L92.5668945,53.8598633 L93.2016602,53.8598633 Z M96.2387695,54.0844727 L96.2387695,53.5546875 L94.012207,53.5546875 L94.012207,54.0844727 L96.2387695,54.0844727 Z M99.2392578,54.0844727 L99.2392578,53.5546875 L97.0126953,53.5546875 L97.0126953,54.0844727 L99.2392578,54.0844727 Z M102.203125,53.8598633 L100.872559,50 L100.237793,50 L101.568359,53.8598633 L102.203125,53.8598633 Z M103.821777,53.8598633 L105.152344,50 L104.52002,50 L103.189453,53.8598633 L103.821777,53.8598633 Z M106.822266,53.8598633 L108.152832,50 L107.520508,50 L106.189941,53.8598633 L106.822266,53.8598633 Z M111.20459,53.8598633 L109.874023,50 L109.239258,50 L110.569824,53.8598633 L111.20459,53.8598633 Z M114.205078,53.8598633 L112.874512,50 L112.239746,50 L113.570312,53.8598633 L114.205078,53.8598633 Z M117.205566,53.8598633 L115.875,50 L115.240234,50 L116.570801,53.8598633 L117.205566,53.8598633 Z M120.242676,54.0844727 L120.242676,53.5546875 L118.016113,53.5546875 L118.016113,54.0844727 L120.242676,54.0844727 Z M123.243164,54.0844727 L123.243164,53.5546875 L121.016602,53.5546875 L121.016602,54.0844727 L123.243164,54.0844727 Z M126.243652,54.0844727 L126.243652,53.5546875 L124.01709,53.5546875 L124.01709,54.0844727 L126.243652,54.0844727 Z M129.244141,54.0844727 L129.244141,53.5546875 L127.017578,53.5546875 L127.017578,54.0844727 L129.244141,54.0844727 Z M130.826172,53.8598633 L132.156738,50 L131.524414,50 L130.193848,53.8598633 L130.826172,53.8598633 Z M135.208496,53.8598633 L133.87793,50 L133.243164,50 L134.57373,53.8598633 L135.208496,53.8598633 Z M138.208984,53.8598633 L136.878418,50 L136.243652,50 L137.574219,53.8598633 L138.208984,53.8598633 Z M141.209473,53.8598633 L139.878906,50 L139.244141,50 L140.574707,53.8598633 L141.209473,53.8598633 Z M144.246582,54.0844727 L144.246582,53.5546875 L142.02002,53.5546875 L142.02002,54.0844727 L144.246582,54.0844727 Z M147.24707,54.0844727 L147.24707,53.5546875 L145.020508,53.5546875 L145.020508,54.0844727 L147.24707,54.0844727 Z M150.210938,53.8598633 L148.880371,50 L148.245605,50 L149.576172,53.8598633 L150.210938,53.8598633 Z M151.82959,53.8598633 L153.160156,50 L152.527832,50 L151.197266,53.8598633 L151.82959,53.8598633 Z M154.830078,53.8598633 L156.160645,50 L155.52832,50 L154.197754,53.8598633 L154.830078,53.8598633 Z M159.212402,53.8598633 L157.881836,50 L157.24707,50 L158.577637,53.8598633 L159.212402,53.8598633 Z M162.212891,53.8598633 L160.882324,50 L160.247559,50 L161.578125,53.8598633 L162.212891,53.8598633 Z M165.213379,53.8598633 L163.882812,50 L163.248047,50 L164.578613,53.8598633 L165.213379,53.8598633 Z M168.250488,54.0844727 L168.250488,53.5546875 L166.023926,53.5546875 L166.023926,54.0844727 L168.250488,54.0844727 Z M171.250977,54.0844727 L171.250977,53.5546875 L169.024414,53.5546875 L169.024414,54.0844727 L171.250977,54.0844727 Z M174.251465,54.0844727 L174.251465,53.5546875 L172.024902,53.5546875 L172.024902,54.0844727 L174.251465,54.0844727 Z M177.251953,54.0844727 L177.251953,53.5546875 L175.025391,53.5546875 L175.025391,54.0844727 L177.251953,54.0844727 Z M178.833984,53.8598633 L180.164551,50 L179.532227,50 L178.20166,53.8598633 L178.833984,53.8598633 Z M183.216309,53.8598633 L181.885742,50 L181.250977,50 L182.581543,53.8598633 L183.216309,53.8598633 Z M186.216797,53.8598633 L184.88623,50 L184.251465,50 L185.582031,53.8598633 L186.216797,53.8598633 Z M189.217285,53.8598633 L187.886719,50 L187.251953,50 L188.58252,53.8598633 L189.217285,53.8598633 Z M192.254395,54.0844727 L192.254395,53.5546875 L190.027832,53.5546875 L190.027832,54.0844727 L192.254395,54.0844727 Z M195.254883,54.0844727 L195.254883,53.5546875 L193.02832,53.5546875 L193.02832,54.0844727 L195.254883,54.0844727 Z M42.2299805,60.0844727 L42.2299805,59.5546875 L40.003418,59.5546875 L40.003418,60.0844727 L42.2299805,60.0844727 Z M45.1938477,59.8598633 L43.8632812,56 L43.2285156,56 L44.559082,59.8598633 L45.1938477,59.8598633 Z M46.8125,59.8598633 L48.1430664,56 L47.5107422,56 L46.1801758,59.8598633 L46.8125,59.8598633 Z M49.8129883,59.8598633 L51.1435547,56 L50.5112305,56 L49.1806641,59.8598633 L49.8129883,59.8598633 Z M54.1953125,59.8598633 L52.8647461,56 L52.2299805,56 L53.5605469,59.8598633 L54.1953125,59.8598633 Z M57.1958008,59.8598633 L55.8652344,56 L55.2304688,56 L56.5610352,59.8598633 L57.1958008,59.8598633 Z M60.1962891,59.8598633 L58.8657227,56 L58.230957,56 L59.5615234,59.8598633 L60.1962891,59.8598633 Z M63.1967773,59.8598633 L61.8662109,56 L61.2314453,56 L62.5620117,59.8598633 L63.1967773,59.8598633 Z M66.1972656,59.8598633 L64.8666992,56 L64.2319336,56 L65.5625,59.8598633 L66.1972656,59.8598633 Z M69.1977539,59.8598633 L67.8671875,56 L67.2324219,56 L68.5629883,59.8598633 L69.1977539,59.8598633 Z M72.1982422,59.8598633 L70.8676758,56 L70.2329102,56 L71.5634766,59.8598633 L72.1982422,59.8598633 Z M75.1987305,59.8598633 L73.8681641,56 L73.2333984,56 L74.5639648,59.8598633 L75.1987305,59.8598633 Z M78.1992188,59.8598633 L76.8686523,56 L76.2338867,56 L77.5644531,59.8598633 L78.1992188,59.8598633 Z M81.199707,59.8598633 L79.8691406,56 L79.234375,56 L80.5649414,59.8598633 L81.199707,59.8598633 Z M84.2001953,59.8598633 L82.8696289,56 L82.2348633,56 L83.5654297,59.8598633 L84.2001953,59.8598633 Z M87.2006836,59.8598633 L85.8701172,56 L85.2353516,56 L86.565918,59.8598633 L87.2006836,59.8598633 Z M90.2011719,59.8598633 L88.8706055,56 L88.2358398,56 L89.5664062,59.8598633 L90.2011719,59.8598633 Z M91.8198242,59.8598633 L93.1503906,56 L92.5180664,56 L91.1875,59.8598633 L91.8198242,59.8598633 Z M96.2387695,60.0844727 L96.2387695,59.5546875 L94.012207,59.5546875 L94.012207,60.0844727 L96.2387695,60.0844727 Z M99.2392578,60.0844727 L99.2392578,59.5546875 L97.0126953,59.5546875 L97.0126953,60.0844727 L99.2392578,60.0844727 Z M102.239746,60.0844727 L102.239746,59.5546875 L100.013184,59.5546875 L100.013184,60.0844727 L102.239746,60.0844727 Z M105.240234,60.0844727 L105.240234,59.5546875 L103.013672,59.5546875 L103.013672,60.0844727 L105.240234,60.0844727 Z M108.204102,59.8598633 L106.873535,56 L106.23877,56 L107.569336,59.8598633 L108.204102,59.8598633 Z M109.822754,59.8598633 L111.15332,56 L110.520996,56 L109.19043,59.8598633 L109.822754,59.8598633 Z M112.823242,59.8598633 L114.153809,56 L113.521484,56 L112.190918,59.8598633 L112.823242,59.8598633 Z M115.82373,59.8598633 L117.154297,56 L116.521973,56 L115.191406,59.8598633 L115.82373,59.8598633 Z M120.206055,59.8598633 L118.875488,56 L118.240723,56 L119.571289,59.8598633 L120.206055,59.8598633 Z M123.206543,59.8598633 L121.875977,56 L121.241211,56 L122.571777,59.8598633 L123.206543,59.8598633 Z M126.207031,59.8598633 L124.876465,56 L124.241699,56 L125.572266,59.8598633 L126.207031,59.8598633 Z M129.20752,59.8598633 L127.876953,56 L127.242188,56 L128.572754,59.8598633 L129.20752,59.8598633 Z M132.208008,59.8598633 L130.877441,56 L130.242676,56 L131.573242,59.8598633 L132.208008,59.8598633 Z M135.208496,59.8598633 L133.87793,56 L133.243164,56 L134.57373,59.8598633 L135.208496,59.8598633 Z M138.208984,59.8598633 L136.878418,56 L136.243652,56 L137.574219,59.8598633 L138.208984,59.8598633 Z M139.827637,59.8598633 L141.158203,56 L140.525879,56 L139.195312,59.8598633 L139.827637,59.8598633 Z M144.246582,60.0844727 L144.246582,59.5546875 L142.02002,59.5546875 L142.02002,60.0844727 L144.246582,60.0844727 Z M147.24707,60.0844727 L147.24707,59.5546875 L145.020508,59.5546875 L145.020508,60.0844727 L147.24707,60.0844727 Z M150.247559,60.0844727 L150.247559,59.5546875 L148.020996,59.5546875 L148.020996,60.0844727 L150.247559,60.0844727 Z M153.248047,60.0844727 L153.248047,59.5546875 L151.021484,59.5546875 L151.021484,60.0844727 L153.248047,60.0844727 Z M156.211914,59.8598633 L154.881348,56 L154.246582,56 L155.577148,59.8598633 L156.211914,59.8598633 Z M157.830566,59.8598633 L159.161133,56 L158.528809,56 L157.198242,59.8598633 L157.830566,59.8598633 Z M160.831055,59.8598633 L162.161621,56 L161.529297,56 L160.19873,59.8598633 L160.831055,59.8598633 Z M163.831543,59.8598633 L165.162109,56 L164.529785,56 L163.199219,59.8598633 L163.831543,59.8598633 Z M168.213867,59.8598633 L166.883301,56 L166.248535,56 L167.579102,59.8598633 L168.213867,59.8598633 Z M171.214355,59.8598633 L169.883789,56 L169.249023,56 L170.57959,59.8598633 L171.214355,59.8598633 Z M174.214844,59.8598633 L172.884277,56 L172.249512,56 L173.580078,59.8598633 L174.214844,59.8598633 Z M177.215332,59.8598633 L175.884766,56 L175.25,56 L176.580566,59.8598633 L177.215332,59.8598633 Z M180.21582,59.8598633 L178.885254,56 L178.250488,56 L179.581055,59.8598633 L180.21582,59.8598633 Z M183.216309,59.8598633 L181.885742,56 L181.250977,56 L182.581543,59.8598633 L183.216309,59.8598633 Z M186.216797,59.8598633 L184.88623,56 L184.251465,56 L185.582031,59.8598633 L186.216797,59.8598633 Z M187.835449,59.8598633 L189.166016,56 L188.533691,56 L187.203125,59.8598633 L187.835449,59.8598633 Z M192.254395,60.0844727 L192.254395,59.5546875 L190.027832,59.5546875 L190.027832,60.0844727 L192.254395,60.0844727 Z M195.254883,60.0844727 L195.254883,59.5546875 L193.02832,59.5546875 L193.02832,60.0844727 L195.254883,60.0844727 Z M198.255371,60.0844727 L198.255371,59.5546875 L196.028809,59.5546875 L196.028809,60.0844727 L198.255371,60.0844727 Z M45.2304688,66.0844727 L45.2304688,65.5546875 L43.0039062,65.5546875 L43.0039062,66.0844727 L45.2304688,66.0844727 Z M48.230957,66.0844727 L48.230957,65.5546875 L46.0043945,65.5546875 L46.0043945,66.0844727 L48.230957,66.0844727 Z M51.1948242,65.8598633 L49.8642578,62 L49.2294922,62 L50.5600586,65.8598633 L51.1948242,65.8598633 Z M52.8134766,65.8598633 L54.144043,62 L53.5117188,62 L52.1811523,65.8598633 L52.8134766,65.8598633 Z M55.8139648,65.8598633 L57.1445312,62 L56.512207,62 L55.1816406,65.8598633 L55.8139648,65.8598633 Z M58.8144531,65.8598633 L60.1450195,62 L59.5126953,62 L58.1821289,65.8598633 L58.8144531,65.8598633 Z M61.8149414,65.8598633 L63.1455078,62 L62.5131836,62 L61.1826172,65.8598633 L61.8149414,65.8598633 Z M64.8154297,65.8598633 L66.1459961,62 L65.5136719,62 L64.1831055,65.8598633 L64.8154297,65.8598633 Z M67.815918,65.8598633 L69.1464844,62 L68.5141602,62 L67.1835938,65.8598633 L67.815918,65.8598633 Z M70.8164062,65.8598633 L72.1469727,62 L71.5146484,62 L70.184082,65.8598633 L70.8164062,65.8598633 Z M73.8168945,65.8598633 L75.1474609,62 L74.5151367,62 L73.1845703,65.8598633 L73.8168945,65.8598633 Z M76.8173828,65.8598633 L78.1479492,62 L77.515625,62 L76.1850586,65.8598633 L76.8173828,65.8598633 Z M79.8178711,65.8598633 L81.1484375,62 L80.5161133,62 L79.1855469,65.8598633 L79.8178711,65.8598633 Z M82.8183594,65.8598633 L84.1489258,62 L83.5166016,62 L82.1860352,65.8598633 L82.8183594,65.8598633 Z M85.8188477,65.8598633 L87.1494141,62 L86.5170898,62 L85.1865234,65.8598633 L85.8188477,65.8598633 Z M88.8193359,65.8598633 L90.1499023,62 L89.5175781,62 L88.1870117,65.8598633 L88.8193359,65.8598633 Z M93.2382812,66.0844727 L93.2382812,65.5546875 L91.0117188,65.5546875 L91.0117188,66.0844727 L93.2382812,66.0844727 Z M96.2387695,66.0844727 L96.2387695,65.5546875 L94.012207,65.5546875 L94.012207,66.0844727 L96.2387695,66.0844727 Z M99.2392578,66.0844727 L99.2392578,65.5546875 L97.0126953,65.5546875 L97.0126953,66.0844727 L99.2392578,66.0844727 Z M102.239746,66.0844727 L102.239746,65.5546875 L100.013184,65.5546875 L100.013184,66.0844727 L102.239746,66.0844727 Z M105.240234,66.0844727 L105.240234,65.5546875 L103.013672,65.5546875 L103.013672,66.0844727 L105.240234,66.0844727 Z M108.240723,66.0844727 L108.240723,65.5546875 L106.01416,65.5546875 L106.01416,66.0844727 L108.240723,66.0844727 Z M111.241211,66.0844727 L111.241211,65.5546875 L109.014648,65.5546875 L109.014648,66.0844727 L111.241211,66.0844727 Z M114.241699,66.0844727 L114.241699,65.5546875 L112.015137,65.5546875 L112.015137,66.0844727 L114.241699,66.0844727 Z M117.205566,65.8598633 L115.875,62 L115.240234,62 L116.570801,65.8598633 L117.205566,65.8598633 Z M118.824219,65.8598633 L120.154785,62 L119.522461,62 L118.191895,65.8598633 L118.824219,65.8598633 Z M121.824707,65.8598633 L123.155273,62 L122.522949,62 L121.192383,65.8598633 L121.824707,65.8598633 Z M124.825195,65.8598633 L126.155762,62 L125.523438,62 L124.192871,65.8598633 L124.825195,65.8598633 Z M127.825684,65.8598633 L129.15625,62 L128.523926,62 L127.193359,65.8598633 L127.825684,65.8598633 Z M130.826172,65.8598633 L132.156738,62 L131.524414,62 L130.193848,65.8598633 L130.826172,65.8598633 Z M133.82666,65.8598633 L135.157227,62 L134.524902,62 L133.194336,65.8598633 L133.82666,65.8598633 Z M136.827148,65.8598633 L138.157715,62 L137.525391,62 L136.194824,65.8598633 L136.827148,65.8598633 Z M141.246094,66.0844727 L141.246094,65.5546875 L139.019531,65.5546875 L139.019531,66.0844727 L141.246094,66.0844727 Z M144.246582,66.0844727 L144.246582,65.5546875 L142.02002,65.5546875 L142.02002,66.0844727 L144.246582,66.0844727 Z M147.24707,66.0844727 L147.24707,65.5546875 L145.020508,65.5546875 L145.020508,66.0844727 L147.24707,66.0844727 Z M150.247559,66.0844727 L150.247559,65.5546875 L148.020996,65.5546875 L148.020996,66.0844727 L150.247559,66.0844727 Z M153.248047,66.0844727 L153.248047,65.5546875 L151.021484,65.5546875 L151.021484,66.0844727 L153.248047,66.0844727 Z M156.248535,66.0844727 L156.248535,65.5546875 L154.021973,65.5546875 L154.021973,66.0844727 L156.248535,66.0844727 Z M159.249023,66.0844727 L159.249023,65.5546875 L157.022461,65.5546875 L157.022461,66.0844727 L159.249023,66.0844727 Z M162.249512,66.0844727 L162.249512,65.5546875 L160.022949,65.5546875 L160.022949,66.0844727 L162.249512,66.0844727 Z M165.213379,65.8598633 L163.882812,62 L163.248047,62 L164.578613,65.8598633 L165.213379,65.8598633 Z M166.832031,65.8598633 L168.162598,62 L167.530273,62 L166.199707,65.8598633 L166.832031,65.8598633 Z M169.83252,65.8598633 L171.163086,62 L170.530762,62 L169.200195,65.8598633 L169.83252,65.8598633 Z M172.833008,65.8598633 L174.163574,62 L173.53125,62 L172.200684,65.8598633 L172.833008,65.8598633 Z M175.833496,65.8598633 L177.164062,62 L176.531738,62 L175.201172,65.8598633 L175.833496,65.8598633 Z M178.833984,65.8598633 L180.164551,62 L179.532227,62 L178.20166,65.8598633 L178.833984,65.8598633 Z M181.834473,65.8598633 L183.165039,62 L182.532715,62 L181.202148,65.8598633 L181.834473,65.8598633 Z M184.834961,65.8598633 L186.165527,62 L185.533203,62 L184.202637,65.8598633 L184.834961,65.8598633 Z M189.253906,66.0844727 L189.253906,65.5546875 L187.027344,65.5546875 L187.027344,66.0844727 L189.253906,66.0844727 Z M192.254395,66.0844727 L192.254395,65.5546875 L190.027832,65.5546875 L190.027832,66.0844727 L192.254395,66.0844727 Z M195.254883,66.0844727 L195.254883,65.5546875 L193.02832,65.5546875 L193.02832,66.0844727 L195.254883,66.0844727 Z M198.255371,66.0844727 L198.255371,65.5546875 L196.028809,65.5546875 L196.028809,66.0844727 L198.255371,66.0844727 Z M201.255859,66.0844727 L201.255859,65.5546875 L199.029297,65.5546875 L199.029297,66.0844727 L201.255859,66.0844727 Z" id="___/\\\\\\\\\\\\\\\______/\\\\\\\________/\\\\\\\______\/\\\///////////_____/\\\/////\\\____/\\\/////\\\____\/\\\_______________/\\\____\//\\\__/\\\____\//\\\___\/\\\\\\\\\\\\_____\/\\\_____\/\\\_\/\\\_____\/\\\___\////////////\\\___\/\\\_____\/\\\_\/\\\_____\/\\\______________\//\\\__\/\\\_____\/\\\_\/\\\_____\/\\\___/\\\________\/\\\__\//\\\____/\\\__\//\\\____/\\\___\//\\\\\\\\\\\\\/____\///\\\\\\\/____\///\\\\\\\/_____\/////////////________\///////________\///////_____" fill="#88B84A" fill-rule="nonzero"></path>
    </g>
</svg>