<svg width="100" height="100" xmlns="http://www.w3.org/2000/svg" x="0px" y="0px" viewBox="0 0 50 50"> 
<title>store</title>
<path d="M 7 4 C 5.3550302 4 4 5.3550302 4 7 L 4 10.912109 C 3.9625533 11.094611 3 15.799274 3 18.5 C 3 19.87865 3.2660604 21.198539 3.9960938 22.251953 C 3.9974251 22.253874 3.9986651 22.255894 4 22.257812 L 4 43 C 4 44.64497 5.3550302 46 7 46 L 9.8320312 46 A 1.0001 1.0001 0 0 0 10.158203 46 L 18.832031 46 A 1.0001 1.0001 0 0 0 19.158203 46 L 43 46 C 44.64497 46 46 44.64497 46 43 L 46 22.257812 C 46.001335 22.255894 46.002575 22.253874 46.003906 22.251953 C 46.73394 21.198539 47 19.87865 47 18.5 C 47 15.799274 46.037447 11.09461 46 10.912109 L 46 7 C 46 5.3550302 44.64497 4 43 4 L 7 4 z M 7 6 L 43 6 C 43.56503 6 44 6.4349698 44 7 L 44 10 L 32.154297 10 A 1.0001 1.0001 0 0 0 31.984375 9.9863281 A 1.0001 1.0001 0 0 0 31.839844 10 L 25.154297 10 A 1.0001 1.0001 0 0 0 24.984375 9.9863281 A 1.0001 1.0001 0 0 0 24.839844 10 L 18.154297 10 A 1.0001 1.0001 0 0 0 17.984375 9.9863281 A 1.0001 1.0001 0 0 0 17.839844 10 L 6 10 L 6 7 C 6 6.4349698 6.4349698 6 7 6 z M 8 7 A 1 1 0 0 0 7 8 A 1 1 0 0 0 8 9 A 1 1 0 0 0 9 8 A 1 1 0 0 0 8 7 z M 11 7 A 1 1 0 0 0 10 8 A 1 1 0 0 0 11 9 A 1 1 0 0 0 12 8 A 1 1 0 0 0 11 7 z M 14 7 A 1 1 0 0 0 13 8 A 1 1 0 0 0 14 9 A 1 1 0 0 0 15 8 A 1 1 0 0 0 14 7 z M 5.8730469 12 L 10 12 L 10 20.886719 C 9.3615118 21.563076 8.4966284 22 7.5 22 C 6.5277884 22 6.0393417 21.686664 5.640625 21.111328 C 5.2419083 20.535993 5 19.60635 5 18.5 C 5 16.527448 5.7019741 12.911439 5.8730469 12 z M 12 12 L 17 12 L 17 20.886719 C 16.361512 21.563076 15.496628 22 14.5 22 C 13.504858 22 12.639028 21.566344 12 20.892578 L 12 12 z M 19 12 L 24 12 L 24 20.886719 C 23.361512 21.563076 22.496628 22 21.5 22 C 20.504858 22 19.639028 21.566344 19 20.892578 L 19 12 z M 26 12 L 31 12 L 31 20.886719 C 30.362395 21.562365 29.49642 22 28.5 22 C 27.504858 22 26.639028 21.566344 26 20.892578 L 26 12 z M 33 12 L 38 12 L 38 20.892578 C 37.361904 21.565869 36.495044 22 35.5 22 C 34.504858 22 33.638213 21.56588 33 20.892578 L 33 12 z M 40 12 L 44.126953 12 C 44.298026 12.911439 45 16.527448 45 18.5 C 45 19.60635 44.758092 20.535993 44.359375 21.111328 C 43.960658 21.686664 43.472212 22 42.5 22 C 41.504858 22 40.638213 21.56588 40 20.892578 L 40 12 z M 11 22.712891 C 11.947802 23.506862 13.164489 24 14.5 24 C 15.835511 24 17.052198 23.506862 18 22.712891 C 18.947802 23.506862 20.164489 24 21.5 24 C 22.835511 24 24.052198 23.506862 25 22.712891 C 25.947802 23.506862 27.164489 24 28.5 24 C 29.834661 24 31.052555 23.50807 32 22.714844 C 32.947445 23.50807 34.165339 24 35.5 24 C 36.834661 24 38.052555 23.50807 39 22.714844 C 39.947445 23.50807 41.165339 24 42.5 24 C 43.03686 24 43.539024 23.908002 44 23.748047 L 44 43 C 44 43.56503 43.56503 44 43 44 L 20 44 L 20 27 L 9 27 L 9 44 L 7 44 C 6.4349698 44 6 43.56503 6 43 L 6 23.748047 C 6.4609758 23.908002 6.9631394 24 7.5 24 C 8.8355107 24 10.052198 23.506862 11 22.712891 z M 23 27 L 23 28 L 23 41 L 41 41 L 41 27 L 23 27 z M 11 29 L 18 29 L 18 44 L 11 44 L 11 29 z M 25 29 L 39 29 L 39 39 L 25 39 L 25 29 z"/></svg>