<svg width="100px" height="100px" viewBox="0 0 50 50" version="1.1" xmlns="http://www.w3.org/2000/svg" xmlns:xlink="http://www.w3.org/1999/xlink">
    <title>support-portal</title>
    <path d="M7,7 C5.343,7 4,8.343 4,10 L4,40 C4,41.657 5.343,43 7,43 L43,43 C44.657,43 46,41.657 46,40 L46,10 C46,8.343 44.657,7 43,7 L7,7 Z M7,9 L43,9 C43.552,9 44,9.448 44,10 L44,13 L6,13 L6,10 C6,9.448 6.448,9 7,9 Z M36,10 C35.4477153,10 35,10.4477153 35,11 C35,11.5522847 35.4477153,12 36,12 C36.5522847,12 37,11.5522847 37,11 C37,10.4477153 36.5522847,10 36,10 Z M39,10 C38.4477153,10 38,10.4477153 38,11 C38,11.5522847 38.4477153,12 39,12 C39.5522847,12 40,11.5522847 40,11 C40,10.4477153 39.5522847,10 39,10 Z M42,10 C41.4477153,10 41,10.4477153 41,11 C41,11.5522847 41.4477153,12 42,12 C42.5522847,12 43,11.5522847 43,11 C43,10.4477153 42.5522847,10 42,10 Z M6,15 L44,15 L44,40 C44,40.552 43.552,41 43,41 L7,41 C6.448,41 6,40.552 6,40 L6,15 Z" id="Shape" fill-rule="nonzero"></path><path d="M23,17.1503906 L22.398438,20.3496096 C22.098438,20.4496096 21.698438,20.5499996 21.398438,20.7499996 L18.699219,18.8496096 L15.699219,21.8496096 L17.5,24.3496096 C17.4,24.7496096 17.19961,25.0511716 17.09961,25.4511716 L14,25.9511716 L14,30.1503906 L17.09961,30.6503906 C17.19961,30.9503906 17.3,31.3503906 17.5,31.6503906 L15.699219,34.3496096 L18.699219,37.3496096 L21.398438,35.5507816 C21.798438,35.7507816 22.1,35.8511716 22.5,35.9511716 L23,39.1503906 L27.09961,39.1503906 L27.699219,36.0507816 C27.999219,35.9507816 28.299219,35.8503906 28.699219,35.6503906 L31.398438,37.4511716 L34.398438,34.4511716 L32.5,31.8496096 C32.7,31.4496096 32.798438,31.0499996 32.898438,30.7499996 L36,30.1503906 L36,25.9511716 L32.798829,25.4511716 C32.698829,25.1511716 32.598438,24.7511716 32.398438,24.4511716 L34.199219,21.7499996 L31.298829,18.8496096 L28.699219,20.7499996 C28.399219,20.5499996 27.999219,20.4496096 27.699219,20.3496096 L27.199219,17.1503906 L23,17.1503906 Z M24.699219,19.1503906 L25.5,19.1503906 L25.898438,21.8496096 L26.5,22.0507816 C27.1,22.2507816 27.699219,22.4499996 28.199219,22.7499996 L28.798829,23.1503906 L31.09961,21.4511716 L31.59961,21.9511716 L30,24.2499996 L30.298829,24.7499996 C30.598829,25.3499996 30.8,25.9507816 31,26.5507816 L31.199219,27.1503906 L34,27.5507816 L34,28.3496096 L31.298829,28.9511716 L31.09961,29.5507816 C30.89961,30.1507816 30.698438,30.7499996 30.398438,31.2499996 L30,31.8496096 L31.699219,34.1503906 L31.09961,34.7499996 L28.798829,33.1503906 L28.298829,33.4511716 C27.698829,33.7511716 27.1,33.9503906 26.5,34.1503906 L25.898438,34.3496096 L25.398438,37.1503906 L24.59961,37.1503906 L24.199219,34.4511716 L23.59961,34.2499996 C22.99961,34.0499996 22.398438,33.8507816 21.898438,33.5507816 L21.298829,33.1503906 L18.898438,34.7499996 L18.298829,34.1503906 L19.898438,31.8496096 L19.59961,31.3496096 C19.29961,30.7496096 19.098438,30.0507816 18.898438,29.5507816 L18.699219,28.9511716 L16,28.4511716 L16,27.6503906 L18.798829,27.1503906 L18.898438,26.4511716 C18.998438,25.9511716 19.2,25.3496096 19.5,24.8496096 L19.898438,24.3496096 L18.298829,22.0507816 L18.898438,21.4511716 L21.199219,23.0507816 L21.699219,22.8496096 C22.399219,22.5496096 22.99961,22.2507816 23.59961,22.0507816 L24.199219,21.9511716 L24.699219,19.1503906 Z M25,24.0507816 C22.8,24.0507816 21,25.8507816 21,28.0507816 C21,30.2507816 22.8,32.0507816 25,32.0507816 C27.2,32.0507816 29,30.3507816 29,28.0507816 C29,25.8507816 27.2,24.0507816 25,24.0507816 Z M25,26.1503906 C26.1,26.1503906 27,26.9503906 27,28.1503906 C27,29.2503906 26.1,30.1503906 25,30.1503906 C23.9,30.1503906 23,29.2503906 23,28.1503906 C23,27.0503906 23.9,26.1503906 25,26.1503906 Z" id="Shape" fill-rule="nonzero"></path>
</svg>