<svg xmlns="http://www.w3.org/2000/svg" viewBox="0 0 48 48" width="50px" height="50px"><path fill="#7CB342" d="M37.455,17.81l-0.645-1.457c2.088,1.295,4.017,2.269,5.459,2.269c1.445,0,2.73-1.136,2.73-1.136c-1.285-4.7-1.285-4.376-9.15-6v1.3c-0.321-0.486-4.016-1.625-8.83-1.785c-0.324,0-0.645,0-1.125,0C18.99,11,10,16.676,10,23.001C10,26.407,12.728,29,16.1,29c2.57,0,4.497-1.946,4.497-4.057c0-1.942-1.286-4.214-4.014-4.214c-0.644,0-2.891,0.484-2.891,2.756c0,1.621,1.286,2.434,2.248,2.434c1.445,0,1.605-0.65,1.605-0.976c0-0.485-0.32-0.647-0.801-0.81c-0.322,0-0.644,0.162-0.804,0.162c-0.161,0-0.642-0.162-0.642-0.811c0-0.646,0.642-0.971,1.446-0.971c1.282,0,2.086,1.296,2.086,2.268c0,0.486-0.161,2.271-2.57,2.271c-1.766,0-3.853-1.299-3.853-3.729c0-2.434,2.086-3.891,4.015-3.891c5.137,0,5.94,5.187,5.94,5.187l2.247,1.135c0,0-0.16-0.812-0.16-1.459c0-2.104,0.964-2.92,2.891-2.92c2.889,0,4.012,2.435,5.138,3.567l2.888,1.299c0,0-1.441-1.946-1.441-3.728c0-2.109,1.926-1.139,4.492-1.139c2.731,0,6.424-0.646,6.424-2.755c-0.48,0-1.445,0.975-3.052,0.975C40.665,19.271,37.775,17.81,37.455,17.81z M41.468,13.433c1.124,0,2.087,0.973,2.087,2.109c0,1.134-0.963,2.105-2.087,2.105s-2.087-0.972-2.087-2.105C39.381,14.405,40.184,13.433,41.468,13.433z"/><path fill="#7CB342" d="M41.468,13.919c-0.803,0-1.446,0.649-1.446,1.461c0,0.811,0.644,1.458,1.446,1.458c0.802,0,1.446-0.647,1.446-1.458C42.914,14.568,42.27,13.919,41.468,13.919z M41.788,15.542c-0.32,0-0.641-0.162-0.641-0.485c0-0.163,0.32-0.488,0.641-0.488s0.644,0.162,0.644,0.488C42.27,15.38,42.108,15.542,41.788,15.542z"/><g><path fill="#004D40" d="M19.52 30c-.499 0-.835.333-.835.833l-.02 3.502c0 .498-.333.832-.832.832h-2.166c-.501 0-.502-.334-.502-.832l.02-3.518c0-.5-.499-.833-.999-.833h-.333c-.502 0-.834.333-.834.833L13 34.502C13 36.167 14.001 37 15.834 37l0 0c.832 0 1.5-.33 2.166-.664C18.332 36.167 18.499 36 18.665 36c0 0 .169 0 .336.167L19.5 37h.666C20.667 37 21 36.5 21 36.164v-5.367C21 30.298 20.518 30 20.019 30H19.52M24.726 28c-1.286 0-2.409 1.125-2.409 2.411v.643c0 1.283.963 2.088 2.249 2.088h2.409c.32 0 .645.161.645.645v.541c0 .319-.324.673-.645.673h-4.658v1.196c0 .482.321.804.802.804h4.016c1.285 0 2.412-1.128 2.412-2.412v-.965c0-1.286-.806-1.929-2.252-1.929h-2.409c-.481 0-.642-.161-.642-.48v-.571c0-.321.321-.643.802-.643h4.016v-1.197c0-.483-.321-.803-.801-.803M6.409 28C5.123 28 4 29.125 4 30.411v.643c0 1.283.963 2.088 2.249 2.088h2.409c.321 0 .645.161.645.645v.541C9.302 34.646 8.978 35 8.657 35H4v1.196C4 36.679 4.321 37 4.802 37h4.016c1.285 0 2.412-1.128 2.412-2.412v-.965c0-1.286-.805-1.929-2.251-1.929H6.569c-.481 0-.642-.161-.642-.48v-.571C5.928 30.321 6.249 30 6.73 30h4.016v-1.197c0-.483-.321-.803-.801-.803M36.547 28h-3.094C32.143 28 31 29.145 31 30.455v4.09C31 35.852 32.143 37 33.453 37h3.436c.49 0 .817-.326.817-.82V35h-3.927c-.489 0-.652-.293-.652-.619 0 0 0-.982 0-1.146.163 0 4.566 0 4.566 0 .652 0 1.307-.492 1.307-1.146v-1.633C39 29.145 37.857 28 36.547 28zM36.889 31.436c-.164 0-3.764 0-3.764 0v-.014l.002-.967c0-.328.326-.654.652-.654h2.457c.326 0 .652.326.652.654V31.436z"/></g></svg>