<svg width="100" height="100" xmlns="http://www.w3.org/2000/svg" x="0px" y="0px" viewBox="0 0 50 50">
<title>training</title>
<path d="M 12 2 C 9.25 2 7 4.25 7 7 C 7 9.75 9.25 12 12 12 C 14.75 12 17 9.75 17 7 C 17 4.25 14.75 2 12 2 Z M 29 2 L 29 4 L 19 4 L 19 6 L 46 6 L 46 32 L 20 32 L 20 34 L 28.5 34 L 23 45 L 25 45 L 30 35 L 35 45 L 37 45 L 31.5 34 L 47 34 C 47.550781 34 48 33.550781 48 33 L 48 5 C 48 4.449219 47.550781 4 47 4 L 31 4 L 31 2 Z M 12 4 C 13.667969 4 15 5.332031 15 7 C 15 8.667969 13.667969 10 12 10 C 10.332031 10 9 8.667969 9 7 C 9 5.332031 10.332031 4 12 4 Z M 7.5 13 C 4.472656 13 2 15.472656 2 18.5 L 2 30.8125 C 1.996094 30.855469 1.996094 30.894531 2 30.9375 L 2 31 C 1.996094 31.09375 2.007813 31.191406 2.03125 31.28125 C 2.179688 32.792969 3.453125 34 5 34 C 5.351563 34 5.683594 33.925781 6 33.8125 L 6 44.5 C 6 46.421875 7.578125 48 9.5 48 C 10.476563 48 11.363281 47.589844 12 46.9375 C 12.636719 47.589844 13.523438 48 14.5 48 C 16.421875 48 18 46.421875 18 44.5 L 18 19 L 29 19 C 30.644531 19 32 17.644531 32 16 C 32 14.375 30.679688 13.035156 29.0625 13 C 29.042969 13 29.019531 13 29 13 L 15 13 C 14.613281 12.996094 14.261719 13.214844 14.09375 13.5625 L 12 17.75 L 9.90625 13.5625 C 9.738281 13.214844 9.386719 12.996094 9 13 Z M 7.5 15 L 8.375 15 L 11.09375 20.4375 C 11.257813 20.789063 11.613281 21.015625 12 21.015625 C 12.386719 21.015625 12.742188 20.789063 12.90625 20.4375 L 15.625 15 L 29 15 C 29.03125 15 29.0625 15 29.09375 15 C 29.613281 15.046875 30 15.46875 30 16 C 30 16.566406 29.566406 17 29 17 L 17 17 C 16.449219 17 16 17.449219 16 18 L 16 44.5 C 16 45.339844 15.339844 46 14.5 46 C 13.710938 46 13.074219 45.421875 13 44.65625 L 13 44.40625 C 13 44.375 13 44.34375 13 44.3125 L 13 34 C 13.011719 33.710938 12.894531 33.433594 12.6875 33.238281 C 12.476563 33.039063 12.191406 32.941406 11.90625 32.96875 C 11.863281 32.976563 11.820313 32.988281 11.78125 33 C 11.316406 33.105469 10.988281 33.523438 11 34 L 11 44.3125 C 10.996094 44.355469 10.996094 44.394531 11 44.4375 L 11 44.65625 C 10.925781 45.421875 10.289063 46 9.5 46 C 8.660156 46 8 45.339844 8 44.5 L 8 21 C 8.007813 20.691406 7.871094 20.398438 7.632813 20.203125 C 7.398438 20.007813 7.082031 19.933594 6.78125 20 C 6.316406 20.105469 5.988281 20.523438 6 21 L 6 30.84375 C 6 30.875 6 30.90625 6 30.9375 L 6 31 C 6 31.566406 5.566406 32 5 32 C 4.457031 32 4.03125 31.597656 4 31.0625 C 4 31.042969 4 31.019531 4 31 C 4.007813 30.9375 4.007813 30.875 4 30.8125 L 4 18.5 C 4 16.554688 5.554688 15 7.5 15 Z"/></svg>