<svg width="100" height="100" xmlns="http://www.w3.org/2000/svg" x="0px" y="0px" viewBox="0 0 50 50">
<title>treehouse</title>
<path d="M 25 2 C 23.546875 2 22.347656 2.726563 21.4375 3.71875 C 20.710938 3.296875 19.90625 3 19 3 C 16.945313 3 15.234375 4.277344 14.46875 6.0625 C 14.308594 6.042969 14.171875 6 14 6 C 11.539063 6 9.59375 7.839844 9.1875 10.1875 C 6.839844 10.59375 5 12.539063 5 15 C 5 15.171875 5.042969 15.308594 5.0625 15.46875 C 3.277344 16.234375 2 17.945313 2 20 C 2 21.453125 2.726563 22.652344 3.71875 23.5625 C 3.296875 24.289063 3 25.09375 3 26 C 3 27.324219 3.597656 28.457031 4.4375 29.34375 C 4.238281 29.871094 4 30.386719 4 31 C 4 33.75 6.25 36 9 36 C 9.90625 36 10.710938 35.703125 11.4375 35.28125 C 12.347656 36.273438 13.546875 37 15 37 C 16.394531 37 17.535156 36.304688 18.4375 35.375 C 18.890625 35.855469 19.402344 36.273438 20 36.5625 L 20 40.15625 C 20 40.949219 19.730469 41.277344 19.15625 41.6875 C 18.582031 42.097656 17.679688 42.421875 16.6875 42.75 C 15.695313 43.078125 14.640625 43.398438 13.71875 44 C 12.796875 44.601563 12 45.664063 12 47 C 12 47.550781 12.449219 48 13 48 L 37 48 C 37.550781 48 38 47.550781 38 47 C 38 45.667969 37.210938 44.628906 36.28125 44.0625 C 35.351563 43.496094 34.296875 43.214844 33.3125 42.90625 C 32.328125 42.597656 31.40625 42.269531 30.84375 41.84375 C 30.28125 41.417969 30 41 30 40.0625 L 30 36.5625 C 30.59375 36.273438 31.113281 35.855469 31.5625 35.375 C 32.464844 36.304688 33.605469 37 35 37 C 36.453125 37 37.652344 36.273438 38.5625 35.28125 C 39.289063 35.703125 40.09375 36 41 36 C 43.75 36 46 33.75 46 31 C 46 30.386719 45.761719 29.871094 45.5625 29.34375 C 46.402344 28.453125 47 27.324219 47 26 C 47 25.09375 46.703125 24.289063 46.28125 23.5625 C 47.273438 22.652344 48 21.453125 48 20 C 48 17.945313 46.722656 16.234375 44.9375 15.46875 C 44.957031 15.308594 45 15.171875 45 15 C 45 12.539063 43.160156 10.59375 40.8125 10.1875 C 40.40625 7.839844 38.460938 6 36 6 C 35.828125 6 35.691406 6.042969 35.53125 6.0625 C 34.765625 4.277344 33.054688 3 31 3 C 30.09375 3 29.289063 3.296875 28.5625 3.71875 C 27.652344 2.726563 26.453125 2 25 2 Z M 25 4 C 26.101563 4 27.035156 4.585938 27.5625 5.46875 C 27.714844 5.71875 27.964844 5.890625 28.253906 5.9375 C 28.542969 5.988281 28.839844 5.90625 29.0625 5.71875 C 29.597656 5.265625 30.265625 5 31 5 C 32.453125 5 33.652344 6.019531 33.9375 7.375 C 33.996094 7.644531 34.164063 7.878906 34.398438 8.019531 C 34.636719 8.164063 34.921875 8.199219 35.1875 8.125 C 35.480469 8.042969 35.742188 8 36 8 C 37.667969 8 39 9.332031 39 11 C 39 11.550781 39.449219 12 40 12 C 41.667969 12 43 13.332031 43 15 C 43 15.257813 42.957031 15.519531 42.875 15.8125 C 42.800781 16.078125 42.835938 16.363281 42.980469 16.601563 C 43.121094 16.835938 43.355469 17.003906 43.625 17.0625 C 44.980469 17.347656 46 18.546875 46 20 C 46 21.097656 45.414063 22.035156 44.53125 22.5625 C 44.28125 22.714844 44.109375 22.964844 44.0625 23.253906 C 44.011719 23.542969 44.09375 23.839844 44.28125 24.0625 C 44.734375 24.597656 45 25.265625 45 26 C 45 26.945313 44.566406 27.753906 43.875 28.3125 C 43.503906 28.613281 43.398438 29.140625 43.625 29.5625 C 43.867188 30.003906 44 30.492188 44 31 C 44 32.667969 42.667969 34 41 34 C 40.265625 34 39.597656 33.734375 39.0625 33.28125 C 38.839844 33.09375 38.542969 33.011719 38.253906 33.0625 C 37.964844 33.109375 37.714844 33.28125 37.5625 33.53125 C 37.035156 34.414063 36.101563 35 35 35 C 33.859375 35 32.886719 34.347656 32.375 33.40625 C 32.199219 33.089844 31.863281 32.890625 31.5 32.890625 C 31.136719 32.890625 30.800781 33.089844 30.625 33.40625 C 30.460938 33.703125 30.246094 33.957031 30 34.1875 L 30 30 L 36 30 L 36 18.625 L 36.5625 18.90625 C 37.0625 19.148438 37.664063 18.9375 37.90625 18.4375 C 38.148438 17.9375 37.9375 17.335938 37.4375 17.09375 L 35.46875 16.09375 C 35.410156 16.066406 35.34375 16.046875 35.28125 16.03125 L 25.4375 11.09375 L 25 10.875 L 24.5625 11.09375 L 14.78125 16 C 14.621094 16.035156 14.46875 16.109375 14.34375 16.21875 L 12.5625 17.09375 C 12.0625 17.335938 11.851563 17.9375 12.09375 18.4375 C 12.335938 18.9375 12.9375 19.148438 13.4375 18.90625 L 14 18.625 L 14 30 L 20 30 L 20 34.1875 C 19.753906 33.960938 19.539063 33.703125 19.375 33.40625 C 19.199219 33.089844 18.863281 32.890625 18.5 32.890625 C 18.136719 32.890625 17.800781 33.089844 17.625 33.40625 C 17.113281 34.347656 16.140625 35 15 35 C 13.898438 35 12.964844 34.414063 12.4375 33.53125 C 12.285156 33.28125 12.035156 33.109375 11.746094 33.0625 C 11.457031 33.011719 11.160156 33.09375 10.9375 33.28125 C 10.402344 33.734375 9.734375 34 9 34 C 7.332031 34 6 32.667969 6 31 C 6 30.492188 6.132813 30.003906 6.375 29.5625 C 6.601563 29.140625 6.496094 28.613281 6.125 28.3125 C 5.4375 27.753906 5 26.945313 5 26 C 5 25.265625 5.265625 24.597656 5.71875 24.0625 C 5.90625 23.839844 5.988281 23.542969 5.9375 23.253906 C 5.890625 22.964844 5.71875 22.714844 5.46875 22.5625 C 4.585938 22.035156 4 21.097656 4 20 C 4 18.546875 5.019531 17.347656 6.375 17.0625 C 6.644531 17.003906 6.878906 16.835938 7.019531 16.601563 C 7.164063 16.363281 7.199219 16.078125 7.125 15.8125 C 7.042969 15.519531 7 15.257813 7 15 C 7 13.332031 8.332031 12 10 12 C 10.550781 12 11 11.550781 11 11 C 11 9.332031 12.332031 8 14 8 C 14.257813 8 14.519531 8.042969 14.8125 8.125 C 15.078125 8.199219 15.363281 8.164063 15.601563 8.019531 C 15.835938 7.878906 16.003906 7.644531 16.0625 7.375 C 16.347656 6.019531 17.546875 5 19 5 C 19.734375 5 20.402344 5.265625 20.9375 5.71875 C 21.160156 5.90625 21.457031 5.988281 21.746094 5.9375 C 22.035156 5.890625 22.285156 5.71875 22.4375 5.46875 C 22.964844 4.585938 23.898438 4 25 4 Z M 25 13.125 L 34 17.625 L 34 28 L 21.1875 28 C 21.054688 27.972656 20.914063 27.972656 20.78125 28 L 16 28 L 16 17.625 Z M 21.8125 18 C 21.335938 18.089844 20.992188 18.511719 21 19 L 21 25 C 21 25.550781 21.449219 26 22 26 L 28 26 C 28.550781 26 29 25.550781 29 25 L 29 19 C 29 18.449219 28.550781 18 28 18 L 22 18 C 21.96875 18 21.9375 18 21.90625 18 C 21.875 18 21.84375 18 21.8125 18 Z M 23 20 L 27 20 L 27 24 L 23 24 Z M 22 30 L 28 30 L 28 35.75 C 27.992188 35.824219 27.992188 35.894531 28 35.96875 L 28 40.0625 C 28 41.550781 28.71875 42.730469 29.65625 43.4375 C 30.59375 44.144531 31.671875 44.492188 32.6875 44.8125 C 33.703125 45.132813 34.648438 45.433594 35.21875 45.78125 C 35.347656 45.859375 35.40625 45.929688 35.5 46 L 14.4375 46 C 14.546875 45.898438 14.613281 45.796875 14.78125 45.6875 C 15.359375 45.3125 16.304688 44.992188 17.3125 44.65625 C 18.320313 44.320313 19.417969 43.972656 20.34375 43.3125 C 21.269531 42.652344 22 41.558594 22 40.15625 Z"/></svg>