<svg width="100" height="100" xmlns="http://www.w3.org/2000/svg" x="0px" y="0px" viewBox="0 0 50 50">
<title>webinar</title>
<path d="M 3 7 C 1.355469 7 0 8.355469 0 10 L 0 40 C 0 41.644531 1.355469 43 3 43 L 47 43 C 48.644531 43 50 41.644531 50 40 L 50 10 C 50 8.355469 48.644531 7 47 7 Z M 3 9 L 47 9 C 47.566406 9 48 9.433594 48 10 L 48 40 C 48 40.566406 47.566406 41 47 41 L 38.28125 41 C 36.601563 39.871094 34.691406 39.242188 33.125 38.59375 C 31.5625 37.949219 30.535156 37.273438 30.15625 36.5 C 31.527344 36.300781 32.867188 36.074219 33.8125 35.71875 C 34.414063 35.492188 34.921875 35.242188 35.34375 34.90625 C 35.765625 34.570313 36.1875 34.082031 36.1875 33.40625 C 36.1875 33.117188 36.0625 32.84375 35.84375 32.65625 C 35.78125 32.601563 35.589844 32.261719 35.46875 31.65625 C 35.347656 31.050781 35.308594 30.234375 35.28125 29.28125 C 35.230469 27.375 35.285156 24.976563 35.15625 22.625 C 35.027344 20.273438 34.710938 17.949219 33.6875 16.09375 C 32.703125 14.308594 30.871094 13.066406 28.375 13.0625 C 27.570313 12.519531 26.488281 12.09375 25.03125 12.09375 C 25.011719 12.09375 24.988281 12.09375 24.96875 12.09375 C 21.566406 12.351563 19.1875 13.746094 17.71875 15.71875 C 16.25 17.691406 15.65625 20.148438 15.375 22.5625 C 15.09375 24.976563 15.140625 27.371094 15.0625 29.28125 C 15.023438 30.238281 14.941406 31.078125 14.8125 31.6875 C 14.683594 32.296875 14.507813 32.628906 14.40625 32.71875 C 14.1875 32.90625 14.0625 33.179688 14.0625 33.46875 C 14.0625 34.109375 14.402344 34.691406 14.84375 35.0625 C 15.285156 35.433594 15.808594 35.679688 16.40625 35.875 C 17.324219 36.175781 18.59375 36.335938 19.875 36.5 C 19.496094 37.273438 18.503906 37.949219 16.9375 38.59375 C 15.363281 39.242188 13.40625 39.871094 11.71875 41 L 3 41 C 2.433594 41 2 40.566406 2 40 L 2 10 C 2 9.433594 2.433594 9 3 9 Z M 25.09375 14.09375 C 25.105469 14.09375 25.113281 14.09375 25.125 14.09375 C 26.339844 14.117188 27.136719 14.507813 27.5 14.8125 C 27.695313 14.96875 27.9375 15.046875 28.1875 15.03125 C 30.230469 14.953125 31.183594 15.699219 31.9375 17.0625 C 32.691406 18.425781 33.066406 20.488281 33.1875 22.71875 C 33.308594 24.949219 33.226563 27.335938 33.28125 29.34375 C 33.308594 30.347656 33.339844 31.257813 33.5 32.0625 C 33.597656 32.554688 33.902344 32.929688 34.125 33.34375 C 33.960938 33.472656 33.605469 33.664063 33.125 33.84375 C 32.167969 34.203125 30.679688 34.539063 28.9375 34.71875 C 28.421875 34.785156 28.042969 35.230469 28.0625 35.75 C 28.074219 36.152344 28.066406 36.519531 28.09375 36.8125 C 28.105469 36.898438 28.125 36.980469 28.15625 37.0625 C 28.824219 38.863281 30.589844 39.710938 32.34375 40.4375 C 32.753906 40.609375 33.113281 40.832031 33.53125 41 L 16.5 41 C 16.921875 40.832031 17.273438 40.609375 17.6875 40.4375 C 19.445313 39.710938 21.207031 38.863281 21.875 37.0625 C 21.90625 36.980469 21.925781 36.898438 21.9375 36.8125 C 21.984375 36.304688 22.019531 35.984375 22.03125 35.71875 C 22.050781 35.1875 21.652344 34.738281 21.125 34.6875 C 19.398438 34.5 17.941406 34.269531 17.03125 33.96875 C 16.574219 33.820313 16.253906 33.640625 16.125 33.53125 C 16.058594 33.476563 16.097656 33.503906 16.09375 33.5 C 16.363281 33.054688 16.667969 32.628906 16.78125 32.09375 C 16.953125 31.28125 17.023438 30.375 17.0625 29.375 C 17.144531 27.375 17.113281 25.019531 17.375 22.78125 C 17.636719 20.542969 18.203125 18.441406 19.34375 16.90625 C 20.480469 15.378906 22.164063 14.324219 25.09375 14.09375 Z"></path></svg>