<svg width="1735" height="1857" viewBox="0 0 1735 1857" fill="none" xmlns="http://www.w3.org/2000/svg">
<rect width="1735" height="1856" transform="translate(0 0.285645)" fill="white"/>
<rect x="70" y="80.2856" width="1591" height="1481" rx="10" fill="#F9F9F9" stroke="#A8AAAD" stroke-width="5.75222"/>
<path d="M162.56 916.286H585.44C588.51 916.286 591 913.356 591 909.743V229.828C591 226.215 588.51 223.286 585.44 223.286H162.56C159.489 223.286 157 226.215 157 229.828V909.724C157 913.356 159.489 916.286 162.56 916.286Z" fill="white" stroke="#A8AAAD" stroke-width="5.75222"/>
<path fill-rule="evenodd" clip-rule="evenodd" d="M497.288 841.286H248.712C243.904 841.286 240 836.896 240 831.491V499.081C240 493.675 243.904 489.286 248.712 489.286H497.288C502.096 489.286 506 493.675 506 499.081V831.491C506 836.896 502.128 841.286 497.288 841.286Z" fill="white" stroke="#A8AAAD" stroke-width="5.77807"/>
<path opacity="0.15" fill-rule="evenodd" clip-rule="evenodd" d="M497.288 841.286H248.712C243.904 841.286 240 836.896 240 831.491V499.081C240 493.675 243.904 489.286 248.712 489.286H497.288C502.096 489.286 506 493.675 506 499.081V831.491C506 836.896 502.096 841.286 497.288 841.286Z" fill="#D2D3D4"/>
<path d="M359.097 660.452C352.214 657.058 344.264 659.45 341.324 665.784C340.968 666.559 340.677 667.367 340.516 668.207" fill="#FEFDF1"/>
<path d="M339.964 668.986C339.899 668.986 339.802 668.986 339.738 668.953C339.188 668.824 338.833 668.307 338.962 667.758C339.156 666.885 339.479 666.045 339.867 665.237C343.099 658.742 351.792 656.221 359.289 659.679C359.806 659.905 360.032 660.519 359.774 661.004C359.515 661.521 358.933 661.715 358.416 661.488C351.953 658.515 344.456 660.584 341.741 666.11C341.418 666.788 341.16 667.467 340.998 668.21C340.869 668.695 340.449 668.986 339.964 668.986Z" fill="#482B29"/>
<path d="M438.92 653.054C438.92 642.583 409.771 634.117 373.804 634.117C337.836 634.117 308.688 642.583 308.688 653.054V688.795C308.688 699.265 337.836 707.732 373.804 707.732C409.771 707.732 438.92 699.265 438.92 688.795V653.054Z" fill="#808285"/>
<path d="M373.799 710.058C339.899 710.058 305.58 702.593 305.58 688.309V652.73C305.58 638.446 339.899 630.981 373.799 630.981C407.698 630.981 442.018 638.446 442.018 652.73V688.309C442.018 702.593 407.698 710.058 373.799 710.058ZM373.799 636.766C335.149 636.766 311.397 646.073 311.397 652.73V688.309C311.397 694.966 335.149 704.273 373.799 704.273C412.449 704.273 436.201 694.966 436.201 688.309V652.73C436.201 646.073 412.481 636.766 373.799 636.766Z" fill="#231F20"/>
<path d="M373.804 634.117C337.836 634.117 308.688 642.616 308.688 653.118C308.688 663.621 337.836 672.12 373.804 672.12C409.771 672.12 438.92 663.621 438.92 653.118C438.92 642.616 409.771 634.117 373.804 634.117Z" fill="#D2D3D4"/>
<path d="M373.796 673.64C341.028 673.64 307.129 665.949 307.129 653.087C307.129 640.225 341.028 632.534 373.796 632.534C406.565 632.534 440.464 640.225 440.464 653.087C440.464 665.949 406.565 673.64 373.796 673.64ZM373.796 635.669C336.342 635.669 310.231 644.847 310.231 653.087C310.231 661.328 336.342 670.505 373.796 670.505C411.25 670.505 437.362 661.328 437.362 653.087C437.362 644.847 411.25 635.669 373.796 635.669Z" fill="#231F20"/>
<path d="M438.92 601.122C438.92 590.651 409.771 582.185 373.804 582.185C337.836 582.185 308.688 590.651 308.688 601.122V636.863C308.688 647.333 337.836 655.8 373.804 655.8C409.771 655.8 438.92 647.333 438.92 636.863V601.122Z" fill="#8171B5"/>
<path d="M373.799 658.159C339.899 658.159 305.58 650.694 305.58 636.411V600.831C305.58 586.547 339.899 579.082 373.799 579.082C407.698 579.082 442.018 586.547 442.018 600.831V636.411C442.018 650.694 407.698 658.159 373.799 658.159ZM373.799 584.867C335.149 584.867 311.397 594.174 311.397 600.831V636.411C311.397 643.068 335.149 652.375 373.799 652.375C412.449 652.375 436.201 643.068 436.201 636.411V600.831C436.201 594.174 412.481 584.867 373.799 584.867Z" fill="#231F20"/>
<path d="M411.613 616.635C400.949 618.865 387.894 620.157 373.804 620.157C337.836 620.157 308.688 611.658 308.688 601.156C308.688 590.653 337.836 582.154 373.804 582.154C409.771 582.154 438.92 590.653 438.92 601.156C438.92 605.098 434.816 608.75 427.804 611.755" fill="#D2D3D4"/>
<path d="M373.796 621.708C341.028 621.708 307.129 614.017 307.129 601.155C307.129 588.294 341.028 580.603 373.796 580.603C406.565 580.603 440.464 588.294 440.464 601.155C440.464 605.615 436.295 609.784 428.41 613.209C427.635 613.532 426.73 613.177 426.374 612.401C426.051 611.626 426.407 610.689 427.182 610.365C433.742 607.522 437.362 604.258 437.362 601.188C437.362 592.947 411.25 583.769 373.796 583.769C336.342 583.769 310.231 592.947 310.231 601.188C310.231 609.428 336.342 618.606 373.796 618.606C387.337 618.606 400.295 617.41 411.283 615.116C412.123 614.954 412.931 615.471 413.125 616.311C413.286 617.152 412.769 617.96 411.929 618.154C400.748 620.48 387.563 621.708 373.796 621.708Z" fill="#231F20"/>
<path d="M418.102 615.988C417.391 615.988 416.713 615.568 416.519 614.954C416.292 614.178 416.68 613.403 417.52 613.209L419.104 612.821C419.944 612.595 420.817 613.047 421.043 613.823C421.269 614.598 420.784 615.406 419.976 615.632L418.555 615.988C418.393 615.988 418.231 615.988 418.102 615.988Z" fill="#231F20"/>
<path d="M438.92 552.293C438.92 541.822 409.771 533.355 373.804 533.355C337.836 533.355 308.688 541.822 308.688 552.293V588.034C308.688 598.504 337.836 606.971 373.804 606.971C409.771 606.971 438.92 598.504 438.92 588.034V552.293Z" fill="#808285"/>
<path d="M373.799 609.33C339.899 609.33 305.58 601.865 305.58 587.582V552.002C305.58 537.718 339.899 530.286 373.799 530.286C407.698 530.286 442.018 537.751 442.018 552.002V587.582C442.018 601.865 407.698 609.33 373.799 609.33ZM373.799 536.038C335.149 536.038 311.397 545.345 311.397 552.002V587.582C311.397 594.239 335.149 603.546 373.799 603.546C412.449 603.546 436.201 594.239 436.201 587.582V552.002C436.201 545.345 412.481 536.038 373.799 536.038Z" fill="#231F20"/>
<path d="M317.111 561.697C311.747 558.95 308.709 555.75 308.709 552.357C308.709 541.855 337.858 533.356 373.826 533.356C409.793 533.356 438.942 541.855 438.942 552.357C438.942 562.86 409.793 571.359 373.826 571.359C356.31 571.359 340.411 569.355 328.713 566.059" fill="#D2D3D4"/>
<path d="M373.796 572.88C356.766 572.88 340.576 570.974 328.263 567.516C327.423 567.29 326.971 566.417 327.197 565.609C327.423 564.769 328.296 564.284 329.104 564.543C341.157 567.904 357.025 569.778 373.796 569.778C411.25 569.778 437.362 560.6 437.362 552.36C437.362 544.119 411.25 534.942 373.796 534.942C336.342 534.942 310.231 544.119 310.231 552.36C310.231 555.721 314.335 558.532 317.793 560.31C318.569 560.697 318.86 561.635 318.472 562.41C318.084 563.186 317.147 563.477 316.371 563.089C310.231 559.922 307.129 556.302 307.129 552.36C307.129 539.498 341.028 531.839 373.796 531.839C406.565 531.839 440.464 539.531 440.464 552.36C440.464 565.222 406.565 572.88 373.796 572.88Z" fill="#231F20"/>
<path d="M324.259 565.607C324.097 565.607 323.935 565.575 323.806 565.542L323.031 565.284C322.287 565.025 321.738 564.153 321.996 563.377C322.255 562.634 322.934 562.181 323.709 562.44L324.743 562.795C325.519 563.054 325.907 563.862 325.648 564.637C325.422 565.219 324.873 565.607 324.259 565.607Z" fill="#231F20"/>
<path d="M309.471 767.286V740.14H318.468C324.827 740.14 328.434 743.553 328.434 749.719V757.746C328.434 764.028 325.021 767.286 318.623 767.286H309.471ZM318.274 742.777H312.496V764.649H318.39C323.47 764.649 325.332 762.089 325.332 757.785V749.68C325.332 745.453 323.082 742.777 318.274 742.777ZM344.858 767.286V764.649C343.889 766.665 342.105 767.673 339.041 767.673C335.124 767.673 332.953 765.734 332.953 762.632V761.469C332.953 758.715 334.737 756.699 339.623 756.699H344.858V755.109C344.858 751.852 343.733 750.611 340.709 750.611C337.955 750.611 336.753 751.929 336.521 753.829H333.573C334.039 750.339 336.171 747.974 340.98 747.974C345.634 747.974 347.883 750.107 347.883 754.721V767.286H344.858ZM339.933 765.463C343.074 765.463 344.858 764.028 344.858 760.499V758.638H339.894C336.986 758.638 335.978 759.724 335.978 761.508V762.322C335.978 764.377 337.257 765.463 339.933 765.463ZM363.12 764.92V767.48H360.367C356.179 767.48 354.434 765.734 354.434 761.663V750.921H351.486V748.362H354.434V742.777H357.458V748.362H363.12V750.921H357.458V761.701C357.458 763.834 358.35 764.92 360.91 764.92H363.12ZM378.146 767.286V764.649C377.176 766.665 375.392 767.673 372.329 767.673C368.412 767.673 366.241 765.734 366.241 762.632V761.469C366.241 758.715 368.024 756.699 372.911 756.699H378.146V755.109C378.146 751.852 377.021 750.611 373.996 750.611C371.243 750.611 370.041 751.929 369.808 753.829H366.861C367.326 750.339 369.459 747.974 374.268 747.974C378.921 747.974 381.171 750.107 381.171 754.721V767.286H378.146ZM373.221 765.463C376.362 765.463 378.146 764.028 378.146 760.499V758.638H373.182C370.274 758.638 369.265 759.724 369.265 761.508V762.322C369.265 764.377 370.545 765.463 373.221 765.463ZM414.85 767.286L412.29 760.228H400.656L398.058 767.286H394.878L404.961 740.14H408.141L418.146 767.286H414.85ZM411.398 757.63L406.434 743.902L401.471 757.63H411.398ZM425.62 740.14H428.335V767.286H425.31V743.01L419.609 744.871V742.234L425.62 740.14ZM330.281 811.286V784.14H334.973V807.214H346.956V811.286H330.281ZM366.43 805.469C365.849 809.385 362.785 811.673 358.132 811.673C352.974 811.673 349.484 808.649 349.484 802.987V800.272C349.484 794.611 352.897 791.586 358.209 791.586C363.289 791.586 366.547 794.727 366.547 800.505V802.715H354.293C354.331 803.22 354.37 803.724 354.448 804.189C354.758 806.438 356.038 807.757 358.403 807.757C358.52 807.757 358.675 807.718 358.791 807.718C360.575 807.602 361.506 806.671 361.855 805.469H366.43ZM354.293 799.73L354.758 799.846H362.048C361.893 796.86 360.769 795.464 358.209 795.464C355.65 795.464 354.409 797.093 354.293 799.73ZM381.864 811.286V808.92C380.933 810.782 379.266 811.673 376.396 811.673C372.557 811.673 370.23 809.657 370.23 806.322V805.275C370.23 802.366 372.247 800.234 377.482 800.234H381.864V799.264C381.864 796.782 380.972 795.658 378.646 795.658C376.513 795.658 375.66 796.627 375.427 798.023H370.812C371.355 794.184 373.759 791.586 378.956 791.586C383.842 791.586 386.556 793.874 386.556 798.799V811.286H381.864ZM378.025 808.338C380.468 808.338 381.864 807.136 381.864 804.034V802.948H378.103C375.776 802.948 374.923 803.84 374.923 805.275V805.895C374.923 807.485 375.853 808.338 378.025 808.338ZM403.602 811.286V808.494C402.555 810.626 400.616 811.673 398.057 811.673C393.868 811.673 390.65 808.649 390.65 802.987V800.311C390.65 794.611 393.868 791.586 398.057 791.586C400.771 791.586 402.632 792.788 403.602 794.766V782.977H408.294V811.286H403.602ZM399.414 795.658C396.699 795.658 395.458 797.558 395.458 800.505V802.754C395.458 805.74 396.699 807.602 399.53 807.602C402.051 807.602 403.602 805.973 403.602 802.754V800.389C403.602 797.48 402.012 795.658 399.414 795.658Z" fill="#5A5B5C"/>
<path d="M255.669 299.286L253.11 292.228H241.476L238.878 299.286H235.698L245.781 272.14H248.96L258.965 299.286H255.669ZM252.218 289.63L247.254 275.902L242.29 289.63H252.218ZM269.461 299.286H265.971L258.991 280.362H262.248L267.794 296.145L273.339 280.362H276.48L269.461 299.286ZM290.729 299.286V296.649C289.76 298.665 287.976 299.673 284.912 299.673C280.996 299.673 278.824 297.734 278.824 294.632V293.469C278.824 290.715 280.608 288.699 285.494 288.699H290.729V287.109C290.729 283.852 289.605 282.611 286.58 282.611C283.827 282.611 282.625 283.929 282.392 285.829H279.445C279.91 282.339 282.043 279.974 286.851 279.974C291.505 279.974 293.754 282.107 293.754 286.721V299.286H290.729ZM285.804 297.463C288.946 297.463 290.729 296.028 290.729 292.499V290.638H285.766C282.857 290.638 281.849 291.724 281.849 293.508V294.322C281.849 296.377 283.129 297.463 285.804 297.463ZM301.383 276.677C300.18 276.677 299.25 275.824 299.25 274.7C299.25 273.575 300.18 272.722 301.383 272.722C302.662 272.722 303.554 273.575 303.554 274.7C303.554 275.824 302.662 276.677 301.383 276.677ZM299.87 299.286V280.362H302.934V299.286H299.87ZM312.208 294.555C312.208 296.338 312.751 296.843 314.302 296.843H314.884V299.48H314.186C310.618 299.48 309.145 298.433 309.145 294.593V270.977H312.208V294.555ZM330.038 299.286V296.649C329.069 298.665 327.285 299.673 324.222 299.673C320.305 299.673 318.133 297.734 318.133 294.632V293.469C318.133 290.715 319.917 288.699 324.803 288.699H330.038V287.109C330.038 283.852 328.914 282.611 325.889 282.611C323.136 282.611 321.934 283.929 321.701 285.829H318.754C319.219 282.339 321.352 279.974 326.161 279.974C330.814 279.974 333.063 282.107 333.063 286.721V299.286H330.038ZM325.114 297.463C328.255 297.463 330.038 296.028 330.038 292.499V290.638H325.075C322.166 290.638 321.158 291.724 321.158 293.508V294.322C321.158 296.377 322.438 297.463 325.114 297.463ZM348.06 299.673C345.19 299.673 343.212 298.355 342.243 296.222V299.286H339.179V270.977H342.243V283.541C343.251 281.176 345.345 279.974 348.06 279.974C352.364 279.974 355.428 282.805 355.428 288.389V291.297C355.428 296.843 352.364 299.673 348.06 299.673ZM347.362 297.036C350.774 297.036 352.364 294.787 352.364 291.258V288.428C352.364 284.899 350.774 282.611 347.323 282.611C344.182 282.611 342.243 284.627 342.243 288.583V291.336C342.243 294.865 344.221 297.036 347.362 297.036ZM362.467 276.677C361.265 276.677 360.334 275.824 360.334 274.7C360.334 273.575 361.265 272.722 362.467 272.722C363.747 272.722 364.639 273.575 364.639 274.7C364.639 275.824 363.747 276.677 362.467 276.677ZM360.955 299.286V280.362H364.018V299.286H360.955ZM373.293 294.555C373.293 296.338 373.836 296.843 375.387 296.843H375.969V299.48H375.271C371.703 299.48 370.229 298.433 370.229 294.593V270.977H373.293V294.555ZM381.932 276.677C380.73 276.677 379.799 275.824 379.799 274.7C379.799 273.575 380.73 272.722 381.932 272.722C383.212 272.722 384.104 273.575 384.104 274.7C384.104 275.824 383.212 276.677 381.932 276.677ZM380.42 299.286V280.362H383.483V299.286H380.42ZM399.312 296.92V299.48H396.558C392.37 299.48 390.625 297.734 390.625 293.663V282.921H387.678V280.362H390.625V274.777H393.65V280.362H399.312V282.921H393.65V293.701C393.65 295.834 394.542 296.92 397.101 296.92H399.312ZM402.739 307.235H401.575V304.598H402.739C404.988 304.598 406.19 304.055 407.78 300.255L408.827 297.773L401.343 280.362H404.6L410.339 294.05L416.04 280.362H419.181L410.339 301.263C408.323 306.033 406.578 307.235 402.739 307.235ZM431.041 299.286V296.998L445.428 274.777H431.778V272.14H449.19V274.428L434.764 296.649H449.306V299.286H431.041ZM460.269 299.673C455.344 299.673 452.164 296.843 452.164 291.297V288.35C452.164 282.805 455.344 279.974 460.269 279.974C465.194 279.974 468.412 282.805 468.412 288.35V291.297C468.412 296.843 465.194 299.673 460.269 299.673ZM460.269 282.611C456.817 282.611 455.266 284.899 455.266 288.35V291.258C455.266 294.787 456.817 297.036 460.269 297.036C463.72 297.036 465.31 294.787 465.31 291.258V288.35C465.31 284.899 463.72 282.611 460.269 282.611ZM476.947 288.505V299.286H473.883V280.362H476.947V283.929C478.149 281.292 480.359 279.974 483.074 279.974C487.185 279.974 489.434 282.145 489.434 286.721V299.286H486.409V287.342C486.409 284.201 485.129 282.611 482.066 282.611C479.235 282.611 476.947 284.782 476.947 288.505ZM510.359 293.624C509.932 297.541 507.024 299.673 502.719 299.673C497.911 299.673 494.692 296.843 494.692 291.297V288.35C494.692 282.805 497.872 279.974 502.758 279.974C507.45 279.974 510.475 282.843 510.475 288.428V290.173H497.833C497.833 290.793 497.872 291.414 497.911 291.995C498.066 295.175 499.617 297.114 502.874 297.114C503.185 297.114 503.456 297.114 503.727 297.075C505.938 296.804 507.179 295.602 507.45 293.624H510.359ZM497.833 287.962L498.066 288.234H507.605C507.45 284.278 506.015 282.494 502.758 282.494C499.423 282.494 497.872 284.627 497.833 287.962Z" fill="#505050"/>
<path d="M166.182 156.164V166.286H161.49V139.14H170.06C176.459 139.14 179.833 141.971 179.833 146.974V148.409C179.833 151.86 177.932 154.303 174.52 155.389L180.918 166.286H175.606L169.983 156.164H166.182ZM169.789 143.212H166.182V152.093H169.789C173.356 152.093 175.024 150.58 175.024 148.215V147.129C175.024 144.763 173.512 143.212 169.789 143.212ZM200.556 160.469C199.974 164.385 196.911 166.673 192.257 166.673C187.1 166.673 183.61 163.649 183.61 157.987V155.272C183.61 149.611 187.022 146.586 192.335 146.586C197.415 146.586 200.672 149.727 200.672 155.505V157.715H188.418C188.457 158.22 188.496 158.724 188.573 159.189C188.884 161.438 190.163 162.757 192.529 162.757C192.645 162.757 192.8 162.718 192.917 162.718C194.7 162.602 195.631 161.671 195.98 160.469H200.556ZM188.418 154.73L188.884 154.846H196.174C196.019 151.86 194.894 150.464 192.335 150.464C189.775 150.464 188.535 152.093 188.418 154.73ZM213.547 174.429C208.311 174.429 205.326 171.986 204.86 168.225H209.436C209.785 169.543 210.871 170.357 213.353 170.357C216.222 170.357 217.541 168.961 217.541 165.626V163.106C216.533 165.239 214.555 166.286 212.034 166.286C207.807 166.286 204.589 163.261 204.589 157.599V155.311C204.589 149.611 207.807 146.586 212.034 146.586C214.71 146.586 216.571 147.788 217.541 149.766V146.974H222.233V165.626C222.233 171.521 218.937 174.429 213.547 174.429ZM213.353 150.658C210.677 150.658 209.397 152.558 209.397 155.505V157.366C209.397 160.352 210.677 162.214 213.469 162.214C216.029 162.214 217.541 160.585 217.541 157.366V155.389C217.541 152.48 215.951 150.658 213.353 150.658ZM230.455 143.755C228.71 143.755 227.508 142.669 227.508 141.118C227.508 139.528 228.71 138.442 230.455 138.442C232.201 138.442 233.403 139.528 233.403 141.118C233.403 142.669 232.201 143.755 230.455 143.755ZM228.129 166.286V146.974H232.782V166.286H228.129ZM246.528 166.673C241.176 166.673 237.725 163.649 237.725 157.987V155.272C237.725 149.611 241.176 146.586 246.528 146.586C251.918 146.586 255.369 149.611 255.369 155.272V157.987C255.369 163.649 251.918 166.673 246.528 166.673ZM246.528 150.658C243.775 150.658 242.534 152.558 242.534 155.428V157.832C242.534 160.74 243.775 162.602 246.528 162.602C249.32 162.602 250.6 160.74 250.6 157.832V155.428C250.6 152.558 249.32 150.658 246.528 150.658ZM264.934 155.699V166.286H260.28V146.974H264.934V150.347C266.214 147.749 268.269 146.586 270.828 146.586C274.784 146.586 277.188 148.951 277.188 153.489V166.286H272.496V154.768C272.496 152.015 271.488 150.658 269.045 150.658C266.795 150.658 264.934 152.325 264.934 155.699ZM310.176 166.286L308.198 160.469H297.844L295.866 166.286H290.941L300.636 139.14H305.6L315.256 166.286H310.176ZM306.879 156.397L303.002 144.88L299.085 156.397H306.879Z" fill="#505050"/>
<path d="M652.56 1479.29H1075.44C1078.51 1479.29 1081 1476.36 1081 1472.74V792.828C1081 789.215 1078.51 786.286 1075.44 786.286H652.56C649.489 786.286 647 789.215 647 792.828V1472.72C647 1476.36 649.489 1479.29 652.56 1479.29Z" fill="white" stroke="#A8AAAD" stroke-width="5.75222"/>
<path fill-rule="evenodd" clip-rule="evenodd" d="M987.288 1386.29H738.712C733.904 1386.29 730 1382.12 730 1376.99V1061.58C730 1056.45 733.904 1052.29 738.712 1052.29H987.288C992.096 1052.29 996 1056.45 996 1061.58V1376.99C996 1382.12 992.128 1386.29 987.288 1386.29Z" fill="white" stroke="#A8AAAD" stroke-width="5.77807"/>
<path fill-rule="evenodd" clip-rule="evenodd" d="M986.686 1363.88H737.725C732.91 1363.88 729 1359.97 729 1355.15V1059.01C729 1054.2 732.91 1050.29 737.725 1050.29H986.686C991.501 1050.29 995.412 1054.2 995.412 1059.01V1355.12C995.412 1359.97 991.501 1363.88 986.686 1363.88Z" fill="#F3F3F3" stroke="#ACACAC" stroke-width="5.77807"/>
<path d="M848.119 1227.25C841.235 1223.85 833.286 1226.24 830.345 1232.58C829.99 1233.35 829.699 1234.16 829.537 1235" fill="#FEFDF1"/>
<path d="M828.985 1235.81C828.921 1235.81 828.824 1235.81 828.759 1235.78C828.21 1235.65 827.854 1235.13 827.984 1234.58C828.178 1233.71 828.501 1232.87 828.888 1232.06C832.12 1225.57 840.813 1223.04 848.31 1226.5C848.827 1226.73 849.054 1227.34 848.795 1227.83C848.536 1228.34 847.955 1228.54 847.438 1228.31C840.975 1225.34 833.477 1227.41 830.763 1232.93C830.44 1233.61 830.181 1234.29 830.019 1235.03C829.89 1235.49 829.438 1235.81 828.985 1235.81Z" fill="#482B29"/>
<path d="M927.942 1219.88C927.942 1209.41 898.793 1200.94 862.825 1200.94C826.858 1200.94 797.709 1209.41 797.709 1219.88V1255.62C797.709 1266.09 826.858 1274.56 862.825 1274.56C898.793 1274.56 927.942 1266.09 927.942 1255.62V1219.88Z" fill="#7B868C"/>
<path d="M862.82 1276.88C828.921 1276.88 794.602 1269.42 794.602 1255.14V1219.56C794.602 1205.27 828.921 1197.81 862.82 1197.81C896.72 1197.81 931.039 1205.27 931.039 1219.56V1255.14C931.039 1269.42 896.72 1276.88 862.82 1276.88ZM862.82 1203.59C824.171 1203.59 800.418 1212.9 800.418 1219.56V1255.14C800.418 1261.79 824.171 1271.1 862.82 1271.1C901.47 1271.1 925.222 1261.79 925.222 1255.14V1219.56C925.222 1212.9 901.502 1203.59 862.82 1203.59Z" fill="#102D40"/>
<path d="M862.825 1200.91C826.858 1200.91 797.709 1209.41 797.709 1219.91C797.709 1230.42 826.858 1238.91 862.825 1238.91C898.793 1238.91 927.942 1230.42 927.942 1219.91C927.942 1209.44 898.793 1200.91 862.825 1200.91Z" fill="#CFD5D9"/>
<path d="M862.818 1240.46C830.05 1240.46 796.15 1232.77 796.15 1219.91C796.15 1207.05 830.05 1199.36 862.818 1199.36C895.586 1199.36 929.485 1207.05 929.485 1219.91C929.485 1232.77 895.586 1240.46 862.818 1240.46ZM862.818 1202.49C825.364 1202.49 799.253 1211.67 799.253 1219.91C799.253 1228.15 825.364 1237.33 862.818 1237.33C900.272 1237.33 926.383 1228.15 926.383 1219.91C926.383 1211.67 900.272 1202.49 862.818 1202.49Z" fill="#102D40"/>
<path d="M927.942 1167.95C927.942 1157.48 898.793 1149.01 862.825 1149.01C826.858 1149.01 797.709 1157.48 797.709 1167.95V1203.69C797.709 1214.16 826.858 1222.63 862.825 1222.63C898.793 1222.63 927.942 1214.16 927.942 1203.69V1167.95Z" fill="#386EB6"/>
<path d="M862.82 1224.95C828.921 1224.95 794.602 1217.49 794.602 1203.2V1167.62C794.602 1153.34 828.921 1145.88 862.82 1145.88C896.72 1145.88 931.039 1153.34 931.039 1167.62V1203.2C931.039 1217.49 896.72 1224.95 862.82 1224.95ZM862.82 1151.66C824.171 1151.66 800.418 1160.97 800.418 1167.62V1203.2C800.418 1209.86 824.171 1219.17 862.82 1219.17C901.47 1219.17 925.222 1209.86 925.222 1203.2V1167.62C925.222 1160.97 901.502 1151.66 862.82 1151.66Z" fill="#102D40"/>
<path d="M900.635 1183.46C889.971 1185.69 876.915 1186.98 862.825 1186.98C826.858 1186.98 797.709 1178.48 797.709 1167.98C797.709 1157.48 826.858 1148.98 862.825 1148.98C898.793 1148.98 927.942 1157.48 927.942 1167.98C927.942 1171.92 923.838 1175.57 916.825 1178.58" fill="#CFD5D9"/>
<path d="M862.818 1188.53C830.05 1188.53 796.15 1180.84 796.15 1167.98C796.15 1155.12 830.05 1147.43 862.818 1147.43C895.586 1147.43 929.485 1155.12 929.485 1167.98C929.485 1172.44 925.317 1176.61 917.432 1180.03C916.656 1180.36 915.751 1180 915.396 1179.23C915.073 1178.45 915.428 1177.51 916.204 1177.19C922.764 1174.35 926.383 1171.08 926.383 1168.01C926.383 1159.77 900.272 1150.59 862.818 1150.59C825.364 1150.59 799.253 1159.77 799.253 1168.01C799.253 1176.25 825.364 1185.43 862.818 1185.43C876.358 1185.43 889.317 1184.24 900.304 1181.94C901.144 1181.78 901.952 1182.3 902.146 1183.14C902.308 1183.98 901.791 1184.78 900.951 1184.98C889.769 1187.31 876.584 1188.53 862.818 1188.53Z" fill="#102D40"/>
<path d="M907.092 1182.81C906.381 1182.81 905.703 1182.39 905.509 1181.78C905.283 1181 905.67 1180.23 906.511 1180.03L908.094 1179.65C908.934 1179.42 909.807 1179.87 910.033 1180.65C910.259 1181.42 909.775 1182.23 908.967 1182.46L907.545 1182.81C907.383 1182.78 907.254 1182.81 907.092 1182.81Z" fill="#102D40"/>
<path d="M927.942 1119.12C927.942 1108.65 898.793 1100.18 862.825 1100.18C826.858 1100.18 797.709 1108.65 797.709 1119.12V1154.86C797.709 1165.33 826.858 1173.8 862.825 1173.8C898.793 1173.8 927.942 1165.33 927.942 1154.86V1119.12Z" fill="#7B868C"/>
<path d="M862.82 1176.12C828.921 1176.12 794.602 1168.66 794.602 1154.38V1118.8C794.602 1104.51 828.921 1097.08 862.82 1097.08C896.72 1097.08 931.039 1104.54 931.039 1118.8V1154.38C931.039 1168.66 896.72 1176.12 862.82 1176.12ZM862.82 1102.83C824.171 1102.83 800.418 1112.14 800.418 1118.8V1154.38C800.418 1161.03 824.171 1170.34 862.82 1170.34C901.47 1170.34 925.222 1161.03 925.222 1154.38V1118.8C925.222 1112.14 901.502 1102.83 862.82 1102.83Z" fill="#102D40"/>
<path d="M806.133 1128.49C800.768 1125.74 797.73 1122.54 797.73 1119.15C797.73 1108.65 826.879 1100.15 862.847 1100.15C898.814 1100.15 927.963 1108.65 927.963 1119.15C927.963 1129.65 898.814 1138.15 862.847 1138.15C845.332 1138.15 829.432 1136.15 817.734 1132.85" fill="#CFD5D9"/>
<path d="M862.818 1139.7C845.788 1139.7 829.597 1137.8 817.285 1134.34C816.445 1134.11 815.992 1133.24 816.218 1132.43C816.445 1131.59 817.317 1131.11 818.125 1131.36C830.179 1134.73 846.046 1136.6 862.818 1136.6C900.272 1136.6 926.383 1127.42 926.383 1119.18C926.383 1110.94 900.272 1101.76 862.818 1101.76C825.364 1101.76 799.253 1110.94 799.253 1119.18C799.253 1122.54 803.357 1125.35 806.815 1127.13C807.59 1127.52 807.881 1128.46 807.493 1129.23C807.105 1130.01 806.168 1130.3 805.393 1129.91C799.253 1126.74 796.15 1123.12 796.15 1119.18C796.15 1106.32 830.05 1098.66 862.818 1098.66C895.586 1098.66 929.485 1106.35 929.485 1119.18C929.485 1132.01 895.586 1139.7 862.818 1139.7Z" fill="#102D40"/>
<path d="M813.28 1132.4C813.118 1132.4 812.957 1132.37 812.828 1132.34L812.052 1132.08C811.309 1131.82 810.759 1130.95 811.018 1130.17C811.276 1129.43 811.955 1128.98 812.731 1129.23L813.765 1129.59C814.54 1129.85 814.928 1130.66 814.67 1131.43C814.443 1132.01 813.894 1132.4 813.28 1132.4Z" fill="#102D40"/>
<path fill-rule="evenodd" clip-rule="evenodd" d="M986.909 1386.29H737.948C733.133 1386.29 729.223 1382.76 729.223 1378.42V1111.41C729.223 1107.07 733.133 1103.54 737.948 1103.54H986.909C991.724 1103.54 995.634 1107.07 995.634 1111.41V1378.42C995.634 1382.76 991.724 1386.29 986.909 1386.29Z" fill="#A8AAAD" stroke="#A8AAAD" stroke-width="5.77807"/>
<path d="M816.096 1364.29L810.318 1342.45L804.501 1364.29H799.343L792.131 1337.14H797.288L802.213 1358.16L807.875 1337.14H813.42L818.81 1358.16L824.007 1337.14H828.932L821.719 1364.29H816.096ZM834.731 1341.76C832.986 1341.76 831.784 1340.67 831.784 1339.12C831.784 1337.53 832.986 1336.44 834.731 1336.44C836.476 1336.44 837.678 1337.53 837.678 1339.12C837.678 1340.67 836.476 1341.76 834.731 1341.76ZM832.404 1364.29V1344.97H837.057V1364.29H832.404ZM854.099 1360.56V1364.48H850.687C845.917 1364.48 843.862 1362.46 843.862 1357.54V1348.93H840.992V1344.97H843.862V1339.39H848.554V1344.97H854.099V1348.93H848.554V1357.54C848.554 1359.4 849.291 1360.56 851.656 1360.56H854.099ZM863.226 1353.7V1364.29H858.572V1344.97H863.226V1348.35C864.505 1345.75 866.561 1344.59 869.12 1344.59C873.076 1344.59 875.48 1346.95 875.48 1351.49V1364.29H870.788V1352.77C870.788 1350.01 869.779 1348.66 867.336 1348.66C865.087 1348.66 863.226 1350.33 863.226 1353.7ZM897.083 1358.47C896.501 1362.39 893.438 1364.67 888.784 1364.67C883.626 1364.67 880.136 1361.65 880.136 1355.99V1353.27C880.136 1347.61 883.549 1344.59 888.862 1344.59C893.942 1344.59 897.199 1347.73 897.199 1353.51V1355.72H884.945C884.984 1356.22 885.023 1356.72 885.1 1357.19C885.41 1359.44 886.69 1360.76 889.056 1360.76C889.172 1360.76 889.327 1360.72 889.443 1360.72C891.227 1360.6 892.158 1359.67 892.507 1358.47H897.083ZM884.945 1352.73L885.41 1352.85H892.701C892.546 1349.86 891.421 1348.46 888.862 1348.46C886.302 1348.46 885.061 1350.09 884.945 1352.73ZM908.833 1348.15C906.777 1348.15 906.002 1348.89 906.002 1350.29C906.002 1351.68 906.7 1352.19 908.522 1352.57L911.004 1353.04C915.658 1353.97 917.286 1355.33 917.286 1358.7C917.286 1362.7 914.611 1364.67 909.22 1364.67C904.14 1364.67 901.309 1362.62 900.805 1358.2H905.226C905.575 1360.21 906.661 1361.14 909.298 1361.14C911.741 1361.14 912.594 1360.37 912.594 1358.93C912.594 1357.5 911.974 1357.07 909.841 1356.65L906.971 1356.1C903.21 1355.41 901.309 1353.93 901.309 1350.48C901.309 1346.91 903.791 1344.59 908.794 1344.59C914.223 1344.59 916.627 1346.84 916.86 1350.91H912.245C912.051 1349.05 911.12 1348.15 908.833 1348.15ZM928.639 1348.15C926.583 1348.15 925.808 1348.89 925.808 1350.29C925.808 1351.68 926.506 1352.19 928.328 1352.57L930.81 1353.04C935.464 1353.97 937.092 1355.33 937.092 1358.7C937.092 1362.7 934.417 1364.67 929.026 1364.67C923.946 1364.67 921.115 1362.62 920.611 1358.2H925.032C925.381 1360.21 926.467 1361.14 929.104 1361.14C931.547 1361.14 932.4 1360.37 932.4 1358.93C932.4 1357.5 931.78 1357.07 929.647 1356.65L926.777 1356.1C923.016 1355.41 921.115 1353.93 921.115 1350.48C921.115 1346.91 923.597 1344.59 928.6 1344.59C934.029 1344.59 936.433 1346.84 936.666 1350.91H932.051C931.857 1349.05 930.927 1348.15 928.639 1348.15Z" fill="white"/>
<path fill-rule="evenodd" clip-rule="evenodd" d="M987.288 1317.29H738.712C733.904 1317.29 730 1313.96 730 1309.86V1057.71C730 1053.62 733.904 1050.29 738.712 1050.29H987.288C992.096 1050.29 996 1053.62 996 1057.71V1309.83C996 1313.96 992.096 1317.29 987.288 1317.29Z" fill="white" stroke="#A8AAAD" stroke-width="5.77807"/>
<path opacity="0.15" fill-rule="evenodd" clip-rule="evenodd" d="M987.288 1317.29H738.711C733.904 1317.29 730 1313.96 730 1309.86V1057.71C730 1053.62 733.904 1050.29 738.711 1050.29H987.288C992.096 1050.29 996 1053.62 996 1057.71V1309.83C996 1313.96 992.096 1317.29 987.288 1317.29Z" fill="#D2D3D4"/>
<path d="M848.824 1227.25C841.94 1223.85 833.991 1226.24 831.05 1232.58C830.694 1233.35 830.404 1234.16 830.242 1235" fill="#FEFDF1"/>
<path d="M829.684 1235.81C829.62 1235.81 829.523 1235.81 829.458 1235.78C828.909 1235.65 828.553 1235.13 828.683 1234.58C828.876 1233.71 829.2 1232.87 829.587 1232.06C832.819 1225.57 841.512 1223.04 849.009 1226.5C849.526 1226.73 849.752 1227.34 849.494 1227.83C849.235 1228.34 848.654 1228.54 848.137 1228.31C841.674 1225.34 834.176 1227.41 831.462 1232.93C831.139 1233.61 830.88 1234.29 830.718 1235.03C830.589 1235.49 830.169 1235.81 829.684 1235.81Z" fill="#482B29"/>
<path d="M928.643 1219.88C928.643 1209.41 899.494 1200.94 863.526 1200.94C827.559 1200.94 798.41 1209.41 798.41 1219.88V1255.62C798.41 1266.09 827.559 1274.56 863.526 1274.56C899.494 1274.56 928.643 1266.09 928.643 1255.62V1219.88Z" fill="#808285"/>
<path d="M863.558 1276.88C829.659 1276.88 795.34 1269.42 795.34 1255.14V1219.56C795.34 1205.27 829.659 1197.81 863.558 1197.81C897.458 1197.81 931.777 1205.27 931.777 1219.56V1255.14C931.745 1269.42 897.458 1276.88 863.558 1276.88ZM863.558 1203.59C824.909 1203.59 801.156 1212.9 801.156 1219.56V1255.14C801.156 1261.79 824.909 1271.1 863.558 1271.1C902.208 1271.1 925.96 1261.79 925.96 1255.14V1219.56C925.96 1212.9 902.208 1203.59 863.558 1203.59Z" fill="#231F20"/>
<path d="M863.563 1200.91C827.596 1200.91 798.447 1209.41 798.447 1219.91C798.447 1230.42 827.596 1238.91 863.563 1238.91C899.531 1238.91 928.68 1230.42 928.68 1219.91C928.647 1209.44 899.499 1200.91 863.563 1200.91Z" fill="#D2D3D4"/>
<path d="M863.552 1240.46C830.784 1240.46 796.885 1232.77 796.885 1219.91C796.885 1207.05 830.784 1199.36 863.552 1199.36C896.32 1199.36 930.22 1207.05 930.22 1219.91C930.187 1232.77 896.32 1240.46 863.552 1240.46ZM863.552 1202.49C826.098 1202.49 799.987 1211.67 799.987 1219.91C799.987 1228.15 826.098 1237.33 863.552 1237.33C901.006 1237.33 927.117 1228.15 927.117 1219.91C927.117 1211.67 901.006 1202.49 863.552 1202.49Z" fill="#231F20"/>
<path d="M928.643 1167.95C928.643 1157.48 899.494 1149.01 863.526 1149.01C827.559 1149.01 798.41 1157.48 798.41 1167.95V1203.69C798.41 1214.16 827.559 1222.63 863.526 1222.63C899.494 1222.63 928.643 1214.16 928.643 1203.69V1167.95Z" fill="#1E84CC"/>
<path d="M863.558 1224.95C829.659 1224.95 795.34 1217.49 795.34 1203.2V1167.62C795.34 1153.34 829.659 1145.88 863.558 1145.88C897.458 1145.88 931.777 1153.34 931.777 1167.62V1203.2C931.745 1217.49 897.458 1224.95 863.558 1224.95ZM863.558 1151.66C824.909 1151.66 801.156 1160.97 801.156 1167.62V1203.2C801.156 1209.86 824.909 1219.17 863.558 1219.17C902.208 1219.17 925.96 1209.86 925.96 1203.2V1167.62C925.96 1160.97 902.208 1151.66 863.558 1151.66Z" fill="#231F20"/>
<path d="M901.336 1183.46C890.672 1185.69 877.616 1186.98 863.526 1186.98C827.559 1186.98 798.41 1178.48 798.41 1167.98C798.41 1157.48 827.559 1148.98 863.526 1148.98C899.494 1148.98 928.643 1157.48 928.643 1167.98C928.643 1171.92 924.539 1175.57 917.526 1178.58" fill="#D2D3D4"/>
<path d="M863.552 1188.53C830.784 1188.53 796.885 1180.84 796.885 1167.98C796.885 1155.12 830.784 1147.43 863.552 1147.43C896.32 1147.43 930.22 1155.12 930.22 1167.98C930.22 1172.44 926.051 1176.61 918.166 1180.04C917.39 1180.36 916.485 1180 916.13 1179.23C915.807 1178.45 916.162 1177.51 916.938 1177.19C923.498 1174.35 927.117 1171.08 927.117 1168.01C927.117 1159.77 901.006 1150.6 863.552 1150.6C826.098 1150.6 799.987 1159.77 799.987 1168.01C799.987 1176.25 826.098 1185.43 863.552 1185.43C877.092 1185.43 890.051 1184.24 901.038 1181.94C901.879 1181.78 902.687 1182.3 902.88 1183.14C903.042 1183.98 902.525 1184.79 901.685 1184.98C890.471 1187.31 877.286 1188.53 863.552 1188.53Z" fill="#231F20"/>
<path d="M907.83 1182.81C907.119 1182.81 906.441 1182.39 906.247 1181.78C906.021 1181 906.408 1180.23 907.249 1180.03L908.832 1179.65C909.672 1179.42 910.545 1179.87 910.771 1180.65C910.997 1181.42 910.513 1182.23 909.705 1182.46L908.283 1182.81C908.121 1182.78 907.96 1182.81 907.83 1182.81Z" fill="#231F20"/>
<path d="M928.643 1119.12C928.643 1108.65 899.494 1100.18 863.526 1100.18C827.559 1100.18 798.41 1108.65 798.41 1119.12V1154.86C798.41 1165.33 827.559 1173.8 863.526 1173.8C899.494 1173.8 928.643 1165.33 928.643 1154.86V1119.12Z" fill="#808285"/>
<path d="M863.558 1176.12C829.659 1176.12 795.34 1168.66 795.34 1154.38V1118.8C795.34 1104.51 829.659 1097.08 863.558 1097.08C897.458 1097.08 931.777 1104.54 931.777 1118.8V1154.38C931.745 1168.66 897.458 1176.12 863.558 1176.12ZM863.558 1102.83C824.909 1102.83 801.156 1112.14 801.156 1118.8V1154.38C801.156 1161.03 824.909 1170.34 863.558 1170.34C902.208 1170.34 925.96 1161.03 925.96 1154.38V1118.8C925.96 1112.14 902.208 1102.83 863.558 1102.83Z" fill="#231F20"/>
<path d="M806.849 1128.49C801.485 1125.74 798.447 1122.55 798.447 1119.15C798.447 1108.65 827.596 1100.15 863.563 1100.15C899.531 1100.15 928.68 1108.65 928.68 1119.15C928.68 1129.65 899.531 1138.15 863.563 1138.15C846.048 1138.15 830.149 1136.15 818.451 1132.85" fill="#D2D3D4"/>
<path d="M863.552 1139.7C846.522 1139.7 830.331 1137.8 818.019 1134.34C817.179 1134.11 816.727 1133.24 816.953 1132.43C817.179 1131.59 818.051 1131.11 818.859 1131.37C830.913 1134.73 846.78 1136.6 863.552 1136.6C901.006 1136.6 927.117 1127.42 927.117 1119.18C927.117 1110.94 901.006 1101.76 863.552 1101.76C826.098 1101.76 799.987 1110.94 799.987 1119.18C799.987 1122.54 804.091 1125.35 807.549 1127.13C808.324 1127.52 808.615 1128.46 808.227 1129.23C807.84 1130.01 806.902 1130.3 806.127 1129.91C799.987 1126.74 796.885 1123.12 796.885 1119.18C796.885 1106.32 830.784 1098.66 863.552 1098.66C896.32 1098.66 930.22 1106.35 930.22 1119.18C930.187 1132.01 896.32 1139.7 863.552 1139.7Z" fill="#231F20"/>
<path d="M813.989 1132.4C813.827 1132.4 813.666 1132.37 813.536 1132.34L812.761 1132.08C812.017 1131.82 811.468 1130.95 811.727 1130.17C811.985 1129.43 812.664 1128.98 813.439 1129.23L814.473 1129.59C815.249 1129.85 815.637 1130.66 815.378 1131.43C815.184 1132.01 814.603 1132.4 813.989 1132.4Z" fill="#231F20"/>
<path d="M745.669 862.286L743.11 855.228H731.476L728.878 862.286H725.698L735.781 835.14H738.96L748.965 862.286H745.669ZM742.218 852.63L737.254 838.902L732.29 852.63H742.218ZM759.461 862.286H755.971L748.991 843.362H752.248L757.794 859.145L763.339 843.362H766.48L759.461 862.286ZM780.729 862.286V859.649C779.76 861.665 777.976 862.673 774.912 862.673C770.996 862.673 768.824 860.734 768.824 857.632V856.469C768.824 853.715 770.608 851.699 775.494 851.699H780.729V850.109C780.729 846.852 779.605 845.611 776.58 845.611C773.827 845.611 772.625 846.929 772.392 848.829H769.445C769.91 845.339 772.043 842.974 776.851 842.974C781.505 842.974 783.754 845.107 783.754 849.721V862.286H780.729ZM775.804 860.463C778.946 860.463 780.729 859.028 780.729 855.499V853.638H775.766C772.857 853.638 771.849 854.724 771.849 856.508V857.322C771.849 859.377 773.129 860.463 775.804 860.463ZM791.383 839.677C790.18 839.677 789.25 838.824 789.25 837.7C789.25 836.575 790.18 835.722 791.383 835.722C792.662 835.722 793.554 836.575 793.554 837.7C793.554 838.824 792.662 839.677 791.383 839.677ZM789.87 862.286V843.362H792.934V862.286H789.87ZM802.208 857.555C802.208 859.338 802.751 859.843 804.302 859.843H804.884V862.48H804.186C800.618 862.48 799.145 861.433 799.145 857.593V833.977H802.208V857.555ZM820.038 862.286V859.649C819.069 861.665 817.285 862.673 814.222 862.673C810.305 862.673 808.133 860.734 808.133 857.632V856.469C808.133 853.715 809.917 851.699 814.803 851.699H820.038V850.109C820.038 846.852 818.914 845.611 815.889 845.611C813.136 845.611 811.934 846.929 811.701 848.829H808.754C809.219 845.339 811.352 842.974 816.161 842.974C820.814 842.974 823.063 845.107 823.063 849.721V862.286H820.038ZM815.114 860.463C818.255 860.463 820.038 859.028 820.038 855.499V853.638H815.075C812.166 853.638 811.158 854.724 811.158 856.508V857.322C811.158 859.377 812.438 860.463 815.114 860.463ZM838.06 862.673C835.19 862.673 833.212 861.355 832.243 859.222V862.286H829.179V833.977H832.243V846.541C833.251 844.176 835.345 842.974 838.06 842.974C842.364 842.974 845.428 845.805 845.428 851.389V854.297C845.428 859.843 842.364 862.673 838.06 862.673ZM837.362 860.036C840.774 860.036 842.364 857.787 842.364 854.258V851.428C842.364 847.899 840.774 845.611 837.323 845.611C834.182 845.611 832.243 847.627 832.243 851.583V854.336C832.243 857.865 834.221 860.036 837.362 860.036ZM852.467 839.677C851.265 839.677 850.334 838.824 850.334 837.7C850.334 836.575 851.265 835.722 852.467 835.722C853.747 835.722 854.639 836.575 854.639 837.7C854.639 838.824 853.747 839.677 852.467 839.677ZM850.955 862.286V843.362H854.018V862.286H850.955ZM863.293 857.555C863.293 859.338 863.836 859.843 865.387 859.843H865.969V862.48H865.271C861.703 862.48 860.229 861.433 860.229 857.593V833.977H863.293V857.555ZM871.932 839.677C870.73 839.677 869.799 838.824 869.799 837.7C869.799 836.575 870.73 835.722 871.932 835.722C873.212 835.722 874.104 836.575 874.104 837.7C874.104 838.824 873.212 839.677 871.932 839.677ZM870.42 862.286V843.362H873.483V862.286H870.42ZM889.312 859.92V862.48H886.558C882.37 862.48 880.625 860.734 880.625 856.663V845.921H877.678V843.362H880.625V837.777H883.65V843.362H889.312V845.921H883.65V856.701C883.65 858.834 884.542 859.92 887.101 859.92H889.312ZM892.739 870.235H891.575V867.598H892.739C894.988 867.598 896.19 867.055 897.78 863.255L898.827 860.773L891.343 843.362H894.6L900.339 857.05L906.04 843.362H909.181L900.339 864.263C898.323 869.033 896.578 870.235 892.739 870.235ZM921.041 862.286V859.998L935.428 837.777H921.778V835.14H939.19V837.428L924.764 859.649H939.306V862.286H921.041ZM950.269 862.673C945.344 862.673 942.164 859.843 942.164 854.297V851.35C942.164 845.805 945.344 842.974 950.269 842.974C955.194 842.974 958.412 845.805 958.412 851.35V854.297C958.412 859.843 955.194 862.673 950.269 862.673ZM950.269 845.611C946.817 845.611 945.266 847.899 945.266 851.35V854.258C945.266 857.787 946.817 860.036 950.269 860.036C953.72 860.036 955.31 857.787 955.31 854.258V851.35C955.31 847.899 953.72 845.611 950.269 845.611ZM966.947 851.505V862.286H963.883V843.362H966.947V846.929C968.149 844.292 970.359 842.974 973.074 842.974C977.185 842.974 979.434 845.145 979.434 849.721V862.286H976.409V850.342C976.409 847.201 975.129 845.611 972.066 845.611C969.235 845.611 966.947 847.782 966.947 851.505ZM1000.36 856.624C999.932 860.541 997.024 862.673 992.719 862.673C987.911 862.673 984.692 859.843 984.692 854.297V851.35C984.692 845.805 987.872 842.974 992.758 842.974C997.45 842.974 1000.47 845.843 1000.47 851.428V853.173H987.833C987.833 853.793 987.872 854.414 987.911 854.995C988.066 858.175 989.617 860.114 992.874 860.114C993.185 860.114 993.456 860.114 993.727 860.075C995.938 859.804 997.179 858.602 997.45 856.624H1000.36ZM987.833 850.962L988.066 851.234H997.605C997.45 847.278 996.015 845.494 992.758 845.494C989.423 845.494 987.872 847.627 987.833 850.962Z" fill="#505050"/>
<path fill-rule="evenodd" clip-rule="evenodd" d="M993.797 986.286H732.203C729.341 986.286 727 984.204 727 981.661V924.911C727 922.367 729.341 920.286 732.203 920.286H993.797C996.659 920.286 999 922.367 999 924.911V981.661C999 984.204 996.659 986.286 993.797 986.286Z" fill="#1E84CC"/>
<path d="M824.84 957.164H820.845V967.286H816.153V940.14H824.723C831.122 940.14 834.496 942.971 834.496 947.974V949.409C834.496 954.295 830.734 957.164 824.84 957.164ZM824.452 944.212H820.845V953.093H824.452C828.019 953.093 829.687 951.58 829.687 949.215V948.129C829.687 945.763 828.175 944.212 824.452 944.212ZM843.327 957.358V967.286H838.673V947.974H843.327V951.27C844.606 948.788 846.506 947.586 848.949 947.586H849.88V952.239H848.678C845.576 952.239 843.327 953.829 843.327 957.358ZM861.314 967.673C855.962 967.673 852.511 964.649 852.511 958.987V956.272C852.511 950.611 855.962 947.586 861.314 947.586C866.704 947.586 870.155 950.611 870.155 956.272V958.987C870.155 964.649 866.704 967.673 861.314 967.673ZM861.314 951.658C858.56 951.658 857.319 953.558 857.319 956.428V958.832C857.319 961.74 858.56 963.602 861.314 963.602C864.106 963.602 865.385 961.74 865.385 958.832V956.428C865.385 953.558 864.106 951.658 861.314 951.658ZM885.683 967.286L880.991 960.654L876.725 967.286H871.529L878.509 957.048L872.188 947.974H877.656L881.572 953.597L885.218 947.974H890.414L884.132 957.281L891.112 967.286H885.683ZM894.295 975.235H892.899V971.164H894.179C896.35 971.164 897.63 970.698 899.104 967.131L899.763 965.541L892.356 947.974H897.436L902.09 959.724L906.937 947.974H911.746L903.059 968.527C900.849 973.723 898.871 975.235 894.295 975.235Z" fill="white"/>
<path d="M493.137 822.507L738.382 1163.76" stroke="#231F20" stroke-width="4.72166" stroke-dasharray="9.44 9.44"/>
<path d="M744.916 1172.84L727.479 1166.5L740.894 1149.27L744.916 1172.84Z" fill="#231F20" stroke="#231F20" stroke-width="3.23158"/>
<path d="M491.063 817.754L508.499 824.089L495.11 841.323L491.063 817.754Z" fill="#231F20" stroke="#231F20" stroke-width="3.23158"/>
<path fill-rule="evenodd" clip-rule="evenodd" d="M503.797 423.286H242.203C239.341 423.286 237 421.204 237 418.661V361.911C237 359.367 239.341 357.286 242.203 357.286H503.797C506.659 357.286 509 359.367 509 361.911V418.661C509 421.204 506.659 423.286 503.797 423.286Z" fill="#1E84CC"/>
<path d="M334.84 394.164H330.845V404.286H326.153V377.14H334.723C341.122 377.14 344.496 379.971 344.496 384.974V386.409C344.496 391.295 340.734 394.164 334.84 394.164ZM334.452 381.212H330.845V390.093H334.452C338.019 390.093 339.687 388.58 339.687 386.215V385.129C339.687 382.763 338.175 381.212 334.452 381.212ZM353.327 394.358V404.286H348.673V384.974H353.327V388.27C354.606 385.788 356.506 384.586 358.949 384.586H359.88V389.239H358.678C355.576 389.239 353.327 390.829 353.327 394.358ZM371.314 404.673C365.962 404.673 362.511 401.649 362.511 395.987V393.272C362.511 387.611 365.962 384.586 371.314 384.586C376.704 384.586 380.155 387.611 380.155 393.272V395.987C380.155 401.649 376.704 404.673 371.314 404.673ZM371.314 388.658C368.56 388.658 367.319 390.558 367.319 393.428V395.832C367.319 398.74 368.56 400.602 371.314 400.602C374.106 400.602 375.385 398.74 375.385 395.832V393.428C375.385 390.558 374.106 388.658 371.314 388.658ZM395.683 404.286L390.991 397.654L386.725 404.286H381.529L388.509 394.048L382.188 384.974H387.656L391.572 390.597L395.218 384.974H400.414L394.132 394.281L401.112 404.286H395.683ZM404.295 412.235H402.899V408.164H404.179C406.35 408.164 407.63 407.698 409.104 404.131L409.763 402.541L402.356 384.974H407.436L412.09 396.724L416.937 384.974H421.746L413.059 405.527C410.849 410.723 408.871 412.235 404.295 412.235Z" fill="white"/>
<path d="M1142.56 916.286H1565.44C1568.51 916.286 1571 913.356 1571 909.743V229.828C1571 226.215 1568.51 223.286 1565.44 223.286H1142.56C1139.49 223.286 1137 226.215 1137 229.828V909.724C1137 913.356 1139.49 916.286 1142.56 916.286Z" fill="white" stroke="#A8AAAD" stroke-width="5.75222"/>
<path fill-rule="evenodd" clip-rule="evenodd" d="M1477.29 841.286H1228.71C1223.9 841.286 1220 836.896 1220 831.491V499.081C1220 493.675 1223.9 489.286 1228.71 489.286H1477.29C1482.1 489.286 1486 493.675 1486 499.081V831.491C1486 836.896 1482.13 841.286 1477.29 841.286Z" fill="white" stroke="#A8AAAD" stroke-width="5.77807"/>
<path opacity="0.15" fill-rule="evenodd" clip-rule="evenodd" d="M1477.29 841.286H1228.71C1223.9 841.286 1220 836.896 1220 831.491V499.081C1220 493.675 1223.9 489.286 1228.71 489.286H1477.29C1482.1 489.286 1486 493.675 1486 499.081V831.491C1486 836.896 1482.1 841.286 1477.29 841.286Z" fill="#D2D3D4"/>
<path d="M1339.1 660.452C1332.21 657.058 1324.26 659.45 1321.32 665.784C1320.97 666.559 1320.68 667.367 1320.52 668.207" fill="#FEFDF1"/>
<path d="M1319.96 668.986C1319.9 668.986 1319.8 668.986 1319.74 668.953C1319.19 668.824 1318.83 668.307 1318.96 667.758C1319.16 666.885 1319.48 666.045 1319.87 665.237C1323.1 658.742 1331.79 656.221 1339.29 659.679C1339.81 659.905 1340.03 660.519 1339.77 661.004C1339.52 661.521 1338.93 661.715 1338.42 661.488C1331.95 658.515 1324.46 660.584 1321.74 666.11C1321.42 666.788 1321.16 667.467 1321 668.21C1320.87 668.695 1320.45 668.986 1319.96 668.986Z" fill="#482B29"/>
<path d="M1418.92 653.054C1418.92 642.583 1389.77 634.117 1353.8 634.117C1317.84 634.117 1288.69 642.583 1288.69 653.054V688.795C1288.69 699.265 1317.84 707.732 1353.8 707.732C1389.77 707.732 1418.92 699.265 1418.92 688.795V653.054Z" fill="#808285"/>
<path d="M1353.8 710.058C1319.9 710.058 1285.58 702.593 1285.58 688.309V652.73C1285.58 638.446 1319.9 630.981 1353.8 630.981C1387.7 630.981 1422.02 638.446 1422.02 652.73V688.309C1422.02 702.593 1387.7 710.058 1353.8 710.058ZM1353.8 636.766C1315.15 636.766 1291.4 646.073 1291.4 652.73V688.309C1291.4 694.966 1315.15 704.273 1353.8 704.273C1392.45 704.273 1416.2 694.966 1416.2 688.309V652.73C1416.2 646.073 1392.48 636.766 1353.8 636.766Z" fill="#231F20"/>
<path d="M1353.8 634.117C1317.84 634.117 1288.69 642.616 1288.69 653.118C1288.69 663.621 1317.84 672.12 1353.8 672.12C1389.77 672.12 1418.92 663.621 1418.92 653.118C1418.92 642.616 1389.77 634.117 1353.8 634.117Z" fill="#D2D3D4"/>
<path d="M1353.8 673.64C1321.03 673.64 1287.13 665.949 1287.13 653.087C1287.13 640.225 1321.03 632.534 1353.8 632.534C1386.56 632.534 1420.46 640.225 1420.46 653.087C1420.46 665.949 1386.56 673.64 1353.8 673.64ZM1353.8 635.669C1316.34 635.669 1290.23 644.847 1290.23 653.087C1290.23 661.328 1316.34 670.505 1353.8 670.505C1391.25 670.505 1417.36 661.328 1417.36 653.087C1417.36 644.847 1391.25 635.669 1353.8 635.669Z" fill="#231F20"/>
<path d="M1418.92 601.122C1418.92 590.651 1389.77 582.185 1353.8 582.185C1317.84 582.185 1288.69 590.651 1288.69 601.122V636.863C1288.69 647.333 1317.84 655.8 1353.8 655.8C1389.77 655.8 1418.92 647.333 1418.92 636.863V601.122Z" fill="#CAC1E1"/>
<path d="M1353.8 658.159C1319.9 658.159 1285.58 650.694 1285.58 636.411V600.831C1285.58 586.547 1319.9 579.082 1353.8 579.082C1387.7 579.082 1422.02 586.547 1422.02 600.831V636.411C1422.02 650.694 1387.7 658.159 1353.8 658.159ZM1353.8 584.867C1315.15 584.867 1291.4 594.174 1291.4 600.831V636.411C1291.4 643.068 1315.15 652.375 1353.8 652.375C1392.45 652.375 1416.2 643.068 1416.2 636.411V600.831C1416.2 594.174 1392.48 584.867 1353.8 584.867Z" fill="#231F20"/>
<path d="M1391.61 616.635C1380.95 618.865 1367.89 620.157 1353.8 620.157C1317.84 620.157 1288.69 611.658 1288.69 601.156C1288.69 590.653 1317.84 582.154 1353.8 582.154C1389.77 582.154 1418.92 590.653 1418.92 601.156C1418.92 605.098 1414.82 608.75 1407.8 611.755" fill="#D2D3D4"/>
<path d="M1353.8 621.708C1321.03 621.708 1287.13 614.017 1287.13 601.155C1287.13 588.294 1321.03 580.603 1353.8 580.603C1386.56 580.603 1420.46 588.294 1420.46 601.155C1420.46 605.615 1416.3 609.784 1408.41 613.209C1407.63 613.532 1406.73 613.177 1406.37 612.401C1406.05 611.626 1406.41 610.689 1407.18 610.365C1413.74 607.522 1417.36 604.258 1417.36 601.188C1417.36 592.947 1391.25 583.769 1353.8 583.769C1316.34 583.769 1290.23 592.947 1290.23 601.188C1290.23 609.428 1316.34 618.606 1353.8 618.606C1367.34 618.606 1380.3 617.41 1391.28 615.116C1392.12 614.954 1392.93 615.471 1393.12 616.311C1393.29 617.152 1392.77 617.96 1391.93 618.154C1380.75 620.48 1367.56 621.708 1353.8 621.708Z" fill="#231F20"/>
<path d="M1398.1 615.988C1397.39 615.988 1396.71 615.568 1396.52 614.954C1396.29 614.178 1396.68 613.403 1397.52 613.209L1399.1 612.821C1399.94 612.595 1400.82 613.047 1401.04 613.823C1401.27 614.598 1400.78 615.406 1399.98 615.632L1398.55 615.988C1398.39 615.988 1398.23 615.988 1398.1 615.988Z" fill="#231F20"/>
<path d="M1418.92 552.293C1418.92 541.822 1389.77 533.355 1353.8 533.355C1317.84 533.355 1288.69 541.822 1288.69 552.293V588.034C1288.69 598.504 1317.84 606.971 1353.8 606.971C1389.77 606.971 1418.92 598.504 1418.92 588.034V552.293Z" fill="#808285"/>
<path d="M1353.8 609.33C1319.9 609.33 1285.58 601.865 1285.58 587.582V552.002C1285.58 537.718 1319.9 530.286 1353.8 530.286C1387.7 530.286 1422.02 537.751 1422.02 552.002V587.582C1422.02 601.865 1387.7 609.33 1353.8 609.33ZM1353.8 536.038C1315.15 536.038 1291.4 545.345 1291.4 552.002V587.582C1291.4 594.239 1315.15 603.546 1353.8 603.546C1392.45 603.546 1416.2 594.239 1416.2 587.582V552.002C1416.2 545.345 1392.48 536.038 1353.8 536.038Z" fill="#231F20"/>
<path d="M1297.11 561.697C1291.75 558.95 1288.71 555.75 1288.71 552.357C1288.71 541.855 1317.86 533.356 1353.83 533.356C1389.79 533.356 1418.94 541.855 1418.94 552.357C1418.94 562.86 1389.79 571.359 1353.83 571.359C1336.31 571.359 1320.41 569.355 1308.71 566.059" fill="#D2D3D4"/>
<path d="M1353.8 572.88C1336.77 572.88 1320.58 570.974 1308.26 567.516C1307.42 567.29 1306.97 566.417 1307.2 565.609C1307.42 564.769 1308.3 564.284 1309.1 564.543C1321.16 567.904 1337.02 569.778 1353.8 569.778C1391.25 569.778 1417.36 560.6 1417.36 552.36C1417.36 544.119 1391.25 534.942 1353.8 534.942C1316.34 534.942 1290.23 544.119 1290.23 552.36C1290.23 555.721 1294.34 558.532 1297.79 560.31C1298.57 560.697 1298.86 561.635 1298.47 562.41C1298.08 563.186 1297.15 563.477 1296.37 563.089C1290.23 559.922 1287.13 556.302 1287.13 552.36C1287.13 539.498 1321.03 531.839 1353.8 531.839C1386.56 531.839 1420.46 539.531 1420.46 552.36C1420.46 565.222 1386.56 572.88 1353.8 572.88Z" fill="#231F20"/>
<path d="M1304.26 565.607C1304.1 565.607 1303.94 565.575 1303.81 565.542L1303.03 565.284C1302.29 565.025 1301.74 564.153 1302 563.377C1302.25 562.634 1302.93 562.181 1303.71 562.44L1304.74 562.795C1305.52 563.054 1305.91 563.862 1305.65 564.637C1305.42 565.219 1304.87 565.607 1304.26 565.607Z" fill="#231F20"/>
<path d="M1286.08 767.286V740.14H1295.08C1301.44 740.14 1305.04 743.553 1305.04 749.719V757.746C1305.04 764.028 1301.63 767.286 1295.23 767.286H1286.08ZM1294.88 742.777H1289.11V764.649H1295C1300.08 764.649 1301.94 762.089 1301.94 757.785V749.68C1301.94 745.453 1299.69 742.777 1294.88 742.777ZM1321.47 767.286V764.649C1320.5 766.665 1318.72 767.673 1315.65 767.673C1311.74 767.673 1309.56 765.734 1309.56 762.632V761.469C1309.56 758.715 1311.35 756.699 1316.23 756.699H1321.47V755.109C1321.47 751.852 1320.34 750.611 1317.32 750.611C1314.57 750.611 1313.36 751.929 1313.13 753.829H1310.18C1310.65 750.339 1312.78 747.974 1317.59 747.974C1322.24 747.974 1324.49 750.107 1324.49 754.721V767.286H1321.47ZM1316.54 765.463C1319.68 765.463 1321.47 764.028 1321.47 760.499V758.638H1316.5C1313.6 758.638 1312.59 759.724 1312.59 761.508V762.322C1312.59 764.377 1313.87 765.463 1316.54 765.463ZM1339.73 764.92V767.48H1336.98C1332.79 767.48 1331.04 765.734 1331.04 761.663V750.921H1328.1V748.362H1331.04V742.777H1334.07V748.362H1339.73V750.921H1334.07V761.701C1334.07 763.834 1334.96 764.92 1337.52 764.92H1339.73ZM1354.76 767.286V764.649C1353.79 766.665 1352 767.673 1348.94 767.673C1345.02 767.673 1342.85 765.734 1342.85 762.632V761.469C1342.85 758.715 1344.64 756.699 1349.52 756.699H1354.76V755.109C1354.76 751.852 1353.63 750.611 1350.61 750.611C1347.85 750.611 1346.65 751.929 1346.42 753.829H1343.47C1343.94 750.339 1346.07 747.974 1350.88 747.974C1355.53 747.974 1357.78 750.107 1357.78 754.721V767.286H1354.76ZM1349.83 765.463C1352.97 765.463 1354.76 764.028 1354.76 760.499V758.638H1349.79C1346.88 758.638 1345.88 759.724 1345.88 761.508V762.322C1345.88 764.377 1347.16 765.463 1349.83 765.463ZM1391.46 767.286L1388.9 760.228H1377.27L1374.67 767.286H1371.49L1381.57 740.14H1384.75L1394.76 767.286H1391.46ZM1388.01 757.63L1383.05 743.902L1378.08 757.63H1388.01ZM1396.96 767.286V764.92L1406.46 754.178C1409.25 751.037 1410.03 749.447 1410.03 746.927C1410.03 743.824 1408.51 742.39 1405.41 742.39C1402.04 742.39 1400.41 744.251 1400.14 747.896H1397.19C1397.42 742.739 1400.41 739.753 1405.45 739.753C1410.72 739.753 1413.13 742.622 1413.13 746.927C1413.13 750.688 1411.54 752.821 1408.51 756.079L1401.18 764.649H1413.55V767.286H1396.96ZM1290.01 787.824C1287.06 787.824 1286.06 789.143 1286.06 790.965C1286.06 792.982 1287.02 793.68 1289.89 794.766L1292.73 795.852C1298.08 797.868 1299.63 799.885 1299.63 803.879C1299.63 808.881 1296.8 811.673 1290.51 811.673C1284.7 811.673 1281.21 809.192 1280.55 803.336H1285.16C1285.67 806.322 1287.1 807.602 1290.51 807.602C1293.62 807.602 1294.86 806.477 1294.86 804.112C1294.86 801.94 1293.93 801.087 1290.67 799.846L1287.99 798.876C1283.11 797.093 1281.25 795.231 1281.25 791.121C1281.25 786.855 1283.96 783.753 1290.01 783.753C1295.94 783.753 1298.93 786.855 1299.12 792.09H1294.51C1294.28 789.259 1293.07 787.824 1290.01 787.824ZM1309.2 800.699V811.286H1304.55V782.977H1309.2V795.347C1310.48 792.749 1312.54 791.586 1315.1 791.586C1319.09 791.586 1321.46 793.951 1321.46 798.489V811.286H1316.76V799.768C1316.76 797.015 1315.76 795.658 1313.31 795.658C1311.06 795.658 1309.2 797.325 1309.2 800.699ZM1337.51 811.286V808.92C1336.58 810.782 1334.92 811.673 1332.05 811.673C1328.21 811.673 1325.88 809.657 1325.88 806.322V805.275C1325.88 802.366 1327.9 800.234 1333.13 800.234H1337.51V799.264C1337.51 796.782 1336.62 795.658 1334.3 795.658C1332.16 795.658 1331.31 796.627 1331.08 798.023H1326.46C1327 794.184 1329.41 791.586 1334.61 791.586C1339.49 791.586 1342.21 793.874 1342.21 798.799V811.286H1337.51ZM1333.67 808.338C1336.12 808.338 1337.51 807.136 1337.51 804.034V802.948H1333.75C1331.43 802.948 1330.57 803.84 1330.57 805.275V805.895C1330.57 807.485 1331.5 808.338 1333.67 808.338ZM1359.25 811.286V808.494C1358.2 810.626 1356.27 811.673 1353.71 811.673C1349.52 811.673 1346.3 808.649 1346.3 802.987V800.311C1346.3 794.611 1349.52 791.586 1353.71 791.586C1356.42 791.586 1358.28 792.788 1359.25 794.766V782.977H1363.94V811.286H1359.25ZM1355.06 795.658C1352.35 795.658 1351.11 797.558 1351.11 800.505V802.754C1351.11 805.74 1352.35 807.602 1355.18 807.602C1357.7 807.602 1359.25 805.973 1359.25 802.754V800.389C1359.25 797.48 1357.66 795.658 1355.06 795.658ZM1377.67 811.673C1372.32 811.673 1368.87 808.649 1368.87 802.987V800.272C1368.87 794.611 1372.32 791.586 1377.67 791.586C1383.06 791.586 1386.51 794.611 1386.51 800.272V802.987C1386.51 808.649 1383.06 811.673 1377.67 811.673ZM1377.67 795.658C1374.92 795.658 1373.68 797.558 1373.68 800.428V802.832C1373.68 805.74 1374.92 807.602 1377.67 807.602C1380.46 807.602 1381.74 805.74 1381.74 802.832V800.428C1381.74 797.558 1380.46 795.658 1377.67 795.658ZM1407.69 811.286L1403.5 797.791L1399.16 811.286H1394L1388.76 791.974H1393.92L1397.02 806.089L1401.48 791.974H1405.79L1410.13 806.128L1413.43 791.974H1418.35L1413.08 811.286H1407.69Z" fill="#5A5B5C"/>
<path d="M1235.67 299.286L1233.11 292.228H1221.48L1218.88 299.286H1215.7L1225.78 272.14H1228.96L1238.97 299.286H1235.67ZM1232.22 289.63L1227.25 275.902L1222.29 289.63H1232.22ZM1249.46 299.286H1245.97L1238.99 280.362H1242.25L1247.79 296.145L1253.34 280.362H1256.48L1249.46 299.286ZM1270.73 299.286V296.649C1269.76 298.665 1267.98 299.673 1264.91 299.673C1261 299.673 1258.82 297.734 1258.82 294.632V293.469C1258.82 290.715 1260.61 288.699 1265.49 288.699H1270.73V287.109C1270.73 283.852 1269.6 282.611 1266.58 282.611C1263.83 282.611 1262.62 283.929 1262.39 285.829H1259.44C1259.91 282.339 1262.04 279.974 1266.85 279.974C1271.5 279.974 1273.75 282.107 1273.75 286.721V299.286H1270.73ZM1265.8 297.463C1268.95 297.463 1270.73 296.028 1270.73 292.499V290.638H1265.77C1262.86 290.638 1261.85 291.724 1261.85 293.508V294.322C1261.85 296.377 1263.13 297.463 1265.8 297.463ZM1281.38 276.677C1280.18 276.677 1279.25 275.824 1279.25 274.7C1279.25 273.575 1280.18 272.722 1281.38 272.722C1282.66 272.722 1283.55 273.575 1283.55 274.7C1283.55 275.824 1282.66 276.677 1281.38 276.677ZM1279.87 299.286V280.362H1282.93V299.286H1279.87ZM1292.21 294.555C1292.21 296.338 1292.75 296.843 1294.3 296.843H1294.88V299.48H1294.19C1290.62 299.48 1289.14 298.433 1289.14 294.593V270.977H1292.21V294.555ZM1310.04 299.286V296.649C1309.07 298.665 1307.29 299.673 1304.22 299.673C1300.3 299.673 1298.13 297.734 1298.13 294.632V293.469C1298.13 290.715 1299.92 288.699 1304.8 288.699H1310.04V287.109C1310.04 283.852 1308.91 282.611 1305.89 282.611C1303.14 282.611 1301.93 283.929 1301.7 285.829H1298.75C1299.22 282.339 1301.35 279.974 1306.16 279.974C1310.81 279.974 1313.06 282.107 1313.06 286.721V299.286H1310.04ZM1305.11 297.463C1308.25 297.463 1310.04 296.028 1310.04 292.499V290.638H1305.07C1302.17 290.638 1301.16 291.724 1301.16 293.508V294.322C1301.16 296.377 1302.44 297.463 1305.11 297.463ZM1328.06 299.673C1325.19 299.673 1323.21 298.355 1322.24 296.222V299.286H1319.18V270.977H1322.24V283.541C1323.25 281.176 1325.35 279.974 1328.06 279.974C1332.36 279.974 1335.43 282.805 1335.43 288.389V291.297C1335.43 296.843 1332.36 299.673 1328.06 299.673ZM1327.36 297.036C1330.77 297.036 1332.36 294.787 1332.36 291.258V288.428C1332.36 284.899 1330.77 282.611 1327.32 282.611C1324.18 282.611 1322.24 284.627 1322.24 288.583V291.336C1322.24 294.865 1324.22 297.036 1327.36 297.036ZM1342.47 276.677C1341.26 276.677 1340.33 275.824 1340.33 274.7C1340.33 273.575 1341.26 272.722 1342.47 272.722C1343.75 272.722 1344.64 273.575 1344.64 274.7C1344.64 275.824 1343.75 276.677 1342.47 276.677ZM1340.95 299.286V280.362H1344.02V299.286H1340.95ZM1353.29 294.555C1353.29 296.338 1353.84 296.843 1355.39 296.843H1355.97V299.48H1355.27C1351.7 299.48 1350.23 298.433 1350.23 294.593V270.977H1353.29V294.555ZM1361.93 276.677C1360.73 276.677 1359.8 275.824 1359.8 274.7C1359.8 273.575 1360.73 272.722 1361.93 272.722C1363.21 272.722 1364.1 273.575 1364.1 274.7C1364.1 275.824 1363.21 276.677 1361.93 276.677ZM1360.42 299.286V280.362H1363.48V299.286H1360.42ZM1379.31 296.92V299.48H1376.56C1372.37 299.48 1370.63 297.734 1370.63 293.663V282.921H1367.68V280.362H1370.63V274.777H1373.65V280.362H1379.31V282.921H1373.65V293.701C1373.65 295.834 1374.54 296.92 1377.1 296.92H1379.31ZM1382.74 307.235H1381.58V304.598H1382.74C1384.99 304.598 1386.19 304.055 1387.78 300.255L1388.83 297.773L1381.34 280.362H1384.6L1390.34 294.05L1396.04 280.362H1399.18L1390.34 301.263C1388.32 306.033 1386.58 307.235 1382.74 307.235ZM1411.04 299.286V296.998L1425.43 274.777H1411.78V272.14H1429.19V274.428L1414.76 296.649H1429.31V299.286H1411.04ZM1440.27 299.673C1435.34 299.673 1432.16 296.843 1432.16 291.297V288.35C1432.16 282.805 1435.34 279.974 1440.27 279.974C1445.19 279.974 1448.41 282.805 1448.41 288.35V291.297C1448.41 296.843 1445.19 299.673 1440.27 299.673ZM1440.27 282.611C1436.82 282.611 1435.27 284.899 1435.27 288.35V291.258C1435.27 294.787 1436.82 297.036 1440.27 297.036C1443.72 297.036 1445.31 294.787 1445.31 291.258V288.35C1445.31 284.899 1443.72 282.611 1440.27 282.611ZM1456.95 288.505V299.286H1453.88V280.362H1456.95V283.929C1458.15 281.292 1460.36 279.974 1463.07 279.974C1467.18 279.974 1469.43 282.145 1469.43 286.721V299.286H1466.41V287.342C1466.41 284.201 1465.13 282.611 1462.07 282.611C1459.23 282.611 1456.95 284.782 1456.95 288.505ZM1490.36 293.624C1489.93 297.541 1487.02 299.673 1482.72 299.673C1477.91 299.673 1474.69 296.843 1474.69 291.297V288.35C1474.69 282.805 1477.87 279.974 1482.76 279.974C1487.45 279.974 1490.47 282.843 1490.47 288.428V290.173H1477.83C1477.83 290.793 1477.87 291.414 1477.91 291.995C1478.07 295.175 1479.62 297.114 1482.87 297.114C1483.18 297.114 1483.46 297.114 1483.73 297.075C1485.94 296.804 1487.18 295.602 1487.45 293.624H1490.36ZM1477.83 287.962L1478.07 288.234H1487.61C1487.45 284.278 1486.02 282.494 1482.76 282.494C1479.42 282.494 1477.87 284.627 1477.83 287.962Z" fill="#505050"/>
<path fill-rule="evenodd" clip-rule="evenodd" d="M1483.8 423.286H1222.2C1219.34 423.286 1217 421.204 1217 418.661V361.911C1217 359.367 1219.34 357.286 1222.2 357.286H1483.8C1486.66 357.286 1489 359.367 1489 361.911V418.661C1489 421.204 1486.66 423.286 1483.8 423.286Z" fill="#1E84CC"/>
<path d="M1314.84 394.164H1310.85V404.286H1306.15V377.14H1314.72C1321.12 377.14 1324.5 379.971 1324.5 384.974V386.409C1324.5 391.295 1320.73 394.164 1314.84 394.164ZM1314.45 381.212H1310.85V390.093H1314.45C1318.02 390.093 1319.69 388.58 1319.69 386.215V385.129C1319.69 382.763 1318.17 381.212 1314.45 381.212ZM1333.33 394.358V404.286H1328.67V384.974H1333.33V388.27C1334.61 385.788 1336.51 384.586 1338.95 384.586H1339.88V389.239H1338.68C1335.58 389.239 1333.33 390.829 1333.33 394.358ZM1351.31 404.673C1345.96 404.673 1342.51 401.649 1342.51 395.987V393.272C1342.51 387.611 1345.96 384.586 1351.31 384.586C1356.7 384.586 1360.16 387.611 1360.16 393.272V395.987C1360.16 401.649 1356.7 404.673 1351.31 404.673ZM1351.31 388.658C1348.56 388.658 1347.32 390.558 1347.32 393.428V395.832C1347.32 398.74 1348.56 400.602 1351.31 400.602C1354.11 400.602 1355.39 398.74 1355.39 395.832V393.428C1355.39 390.558 1354.11 388.658 1351.31 388.658ZM1375.68 404.286L1370.99 397.654L1366.72 404.286H1361.53L1368.51 394.048L1362.19 384.974H1367.66L1371.57 390.597L1375.22 384.974H1380.41L1374.13 394.281L1381.11 404.286H1375.68ZM1384.3 412.235H1382.9V408.164H1384.18C1386.35 408.164 1387.63 407.698 1389.1 404.131L1389.76 402.541L1382.36 384.974H1387.44L1392.09 396.724L1396.94 384.974H1401.75L1393.06 405.527C1390.85 410.723 1388.87 412.235 1384.3 412.235Z" fill="white"/>
<path d="M490 650.286L1238 650.286" stroke="#231F20" stroke-width="4.72166"/>
<path fill-rule="evenodd" clip-rule="evenodd" d="M489.68 638.286V661.876L470 650.081L489.68 638.286Z" fill="#231F20"/>
<path fill-rule="evenodd" clip-rule="evenodd" d="M1238 661.876V638.286L1257.68 650.081L1238 661.876Z" fill="#231F20"/>
<path d="M1225.21 828.014L966.066 1158.81" stroke="#231F20" stroke-width="4.72166" stroke-dasharray="9.44 9.44"/>
<path fill-rule="evenodd" clip-rule="evenodd" d="M979.451 1162.87L963.37 1140.31L957.002 1170L979.451 1162.87Z" fill="#231F20"/>
<path fill-rule="evenodd" clip-rule="evenodd" d="M1207.16 828.051L1223.24 850.613L1229.61 820.928L1207.16 828.051Z" fill="#231F20"/>
<path d="M374 461.286L374 432.286" stroke="#1E84CC" stroke-width="4.72166"/>
<path fill-rule="evenodd" clip-rule="evenodd" d="M362 461.286H385.591L373.795 480.966L362 461.286Z" fill="#1E84CC"/>
<path d="M569.49 1660.29V1633.14H578.487C584.847 1633.14 588.453 1636.55 588.453 1642.72V1650.75C588.453 1657.03 585.04 1660.29 578.642 1660.29H569.49ZM578.293 1635.78H572.515V1657.65H578.409C583.489 1657.65 585.351 1655.09 585.351 1650.78V1642.68C585.351 1638.45 583.102 1635.78 578.293 1635.78ZM604.877 1660.29V1657.65C603.908 1659.67 602.124 1660.67 599.06 1660.67C595.144 1660.67 592.972 1658.73 592.972 1655.63V1654.47C592.972 1651.72 594.756 1649.7 599.642 1649.7H604.877V1648.11C604.877 1644.85 603.753 1643.61 600.728 1643.61C597.974 1643.61 596.772 1644.93 596.54 1646.83H593.592C594.058 1643.34 596.191 1640.97 600.999 1640.97C605.653 1640.97 607.902 1643.11 607.902 1647.72V1660.29H604.877ZM599.952 1658.46C603.093 1658.46 604.877 1657.03 604.877 1653.5V1651.64H599.913C597.005 1651.64 595.997 1652.72 595.997 1654.51V1655.32C595.997 1657.38 597.276 1658.46 599.952 1658.46ZM623.139 1657.92V1660.48H620.386C616.198 1660.48 614.453 1658.73 614.453 1654.66V1643.92H611.506V1641.36H614.453V1635.78H617.478V1641.36H623.139V1643.92H617.478V1654.7C617.478 1656.83 618.37 1657.92 620.929 1657.92H623.139ZM638.165 1660.29V1657.65C637.195 1659.67 635.412 1660.67 632.348 1660.67C628.431 1660.67 626.26 1658.73 626.26 1655.63V1654.47C626.26 1651.72 628.044 1649.7 632.93 1649.7H638.165V1648.11C638.165 1644.85 637.04 1643.61 634.016 1643.61C631.262 1643.61 630.06 1644.93 629.827 1646.83H626.88C627.346 1643.34 629.478 1640.97 634.287 1640.97C638.941 1640.97 641.19 1643.11 641.19 1647.72V1660.29H638.165ZM633.24 1658.46C636.381 1658.46 638.165 1657.03 638.165 1653.5V1651.64H633.201C630.293 1651.64 629.285 1652.72 629.285 1654.51V1655.32C629.285 1657.38 630.564 1658.46 633.24 1658.46ZM660.714 1649.39V1660.29H657.69V1633.14H665.096C671.805 1633.14 674.636 1635.85 674.636 1640.51V1642.1C674.636 1645.55 672.581 1648.11 668.47 1648.92L675.644 1660.29H672.232L665.445 1649.39H660.714ZM665.019 1635.78H660.714V1646.75H665.058C669.517 1646.75 671.534 1644.89 671.534 1642.02V1640.59C671.534 1637.68 669.827 1635.78 665.019 1635.78ZM694.612 1654.62C694.185 1658.54 691.277 1660.67 686.973 1660.67C682.164 1660.67 678.945 1657.84 678.945 1652.3V1649.35C678.945 1643.8 682.125 1640.97 687.011 1640.97C691.704 1640.97 694.728 1643.84 694.728 1649.43V1651.17H682.086C682.086 1651.79 682.125 1652.41 682.164 1653C682.319 1656.18 683.87 1658.11 687.128 1658.11C687.438 1658.11 687.709 1658.11 687.981 1658.08C690.191 1657.8 691.432 1656.6 691.704 1654.62H694.612ZM682.086 1648.96L682.319 1649.23H691.859C691.704 1645.28 690.269 1643.49 687.011 1643.49C683.676 1643.49 682.125 1645.63 682.086 1648.96ZM709.015 1660.67C706.145 1660.67 704.168 1659.35 703.198 1657.22V1668.04H700.135V1641.36H703.198V1644.54C704.206 1642.18 706.301 1640.97 709.015 1640.97C713.32 1640.97 716.383 1643.8 716.383 1649.39V1652.3C716.383 1657.84 713.32 1660.67 709.015 1660.67ZM708.317 1658.04C711.73 1658.04 713.32 1655.79 713.32 1652.26V1649.43C713.32 1645.9 711.73 1643.61 708.278 1643.61C705.137 1643.61 703.198 1645.63 703.198 1649.58V1652.34C703.198 1655.86 705.176 1658.04 708.317 1658.04ZM724.818 1655.55C724.818 1657.34 725.361 1657.84 726.912 1657.84H727.494V1660.48H726.796C723.228 1660.48 721.755 1659.43 721.755 1655.59V1631.98H724.818V1655.55ZM733.458 1637.68C732.256 1637.68 731.325 1636.82 731.325 1635.7C731.325 1634.58 732.256 1633.72 733.458 1633.72C734.738 1633.72 735.63 1634.58 735.63 1635.7C735.63 1636.82 734.738 1637.68 733.458 1637.68ZM731.946 1660.29V1641.36H735.009V1660.29H731.946ZM748.511 1658.04C751.264 1658.04 752.582 1656.87 753.048 1654.39H755.956C755.374 1658.54 752.66 1660.67 748.433 1660.67C743.663 1660.67 740.522 1657.84 740.522 1652.34V1649.39C740.522 1643.8 743.702 1640.97 748.472 1640.97C753.048 1640.97 755.53 1643.49 755.762 1647.29H752.815C752.466 1644.89 751.07 1643.61 748.472 1643.61C745.098 1643.61 743.624 1645.78 743.624 1649.43V1652.26C743.624 1655.86 745.176 1658.04 748.511 1658.04ZM771.203 1660.29V1657.65C770.233 1659.67 768.449 1660.67 765.386 1660.67C761.469 1660.67 759.297 1658.73 759.297 1655.63V1654.47C759.297 1651.72 761.081 1649.7 765.967 1649.7H771.203V1648.11C771.203 1644.85 770.078 1643.61 767.053 1643.61C764.3 1643.61 763.098 1644.93 762.865 1646.83H759.918C760.383 1643.34 762.516 1640.97 767.325 1640.97C771.978 1640.97 774.227 1643.11 774.227 1647.72V1660.29H771.203ZM766.278 1658.46C769.419 1658.46 771.203 1657.03 771.203 1653.5V1651.64H766.239C763.33 1651.64 762.322 1652.72 762.322 1654.51V1655.32C762.322 1657.38 763.602 1658.46 766.278 1658.46ZM789.465 1657.92V1660.48H786.711C782.523 1660.48 780.778 1658.73 780.778 1654.66V1643.92H777.831V1641.36H780.778V1635.78H783.803V1641.36H789.465V1643.92H783.803V1654.7C783.803 1656.83 784.695 1657.92 787.254 1657.92H789.465ZM795.451 1637.68C794.249 1637.68 793.318 1636.82 793.318 1635.7C793.318 1634.58 794.249 1633.72 795.451 1633.72C796.731 1633.72 797.623 1634.58 797.623 1635.7C797.623 1636.82 796.731 1637.68 795.451 1637.68ZM793.939 1660.29V1641.36H797.002V1660.29H793.939ZM810.62 1660.67C805.695 1660.67 802.515 1657.84 802.515 1652.3V1649.35C802.515 1643.8 805.695 1640.97 810.62 1640.97C815.545 1640.97 818.764 1643.8 818.764 1649.35V1652.3C818.764 1657.84 815.545 1660.67 810.62 1660.67ZM810.62 1643.61C807.169 1643.61 805.618 1645.9 805.618 1649.35V1652.26C805.618 1655.79 807.169 1658.04 810.62 1658.04C814.072 1658.04 815.662 1655.79 815.662 1652.26V1649.35C815.662 1645.9 814.072 1643.61 810.62 1643.61ZM827.299 1649.51V1660.29H824.235V1641.36H827.299V1644.93C828.501 1642.29 830.711 1640.97 833.426 1640.97C837.536 1640.97 839.785 1643.15 839.785 1647.72V1660.29H836.761V1648.34C836.761 1645.2 835.481 1643.61 832.417 1643.61C829.586 1643.61 827.299 1645.78 827.299 1649.51ZM866.673 1660.29V1657.65C865.704 1659.67 863.92 1660.67 860.856 1660.67C856.94 1660.67 854.768 1658.73 854.768 1655.63V1654.47C854.768 1651.72 856.552 1649.7 861.438 1649.7H866.673V1648.11C866.673 1644.85 865.549 1643.61 862.524 1643.61C859.77 1643.61 858.568 1644.93 858.336 1646.83H855.388C855.854 1643.34 857.987 1640.97 862.795 1640.97C867.449 1640.97 869.698 1643.11 869.698 1647.72V1660.29H866.673ZM861.748 1658.46C864.889 1658.46 866.673 1657.03 866.673 1653.5V1651.64H861.709C858.801 1651.64 857.793 1652.72 857.793 1654.51V1655.32C857.793 1657.38 859.072 1658.46 861.748 1658.46ZM878.878 1649.51V1660.29H875.814V1641.36H878.878V1644.93C880.08 1642.29 882.29 1640.97 885.005 1640.97C889.115 1640.97 891.364 1643.15 891.364 1647.72V1660.29H888.34V1648.34C888.34 1645.2 887.06 1643.61 883.996 1643.61C881.166 1643.61 878.878 1645.78 878.878 1649.51ZM909.846 1660.29V1657.18C908.799 1659.51 906.744 1660.67 904.029 1660.67C899.686 1660.67 896.661 1657.84 896.661 1652.3V1649.39C896.661 1643.8 899.686 1640.97 904.029 1640.97C906.86 1640.97 908.838 1642.25 909.846 1644.43V1631.98H912.871V1660.29H909.846ZM904.727 1643.61C901.315 1643.61 899.725 1645.9 899.725 1649.39V1652.22C899.725 1655.79 901.315 1658.04 904.766 1658.04C907.907 1658.04 909.846 1656.06 909.846 1652.06V1649.31C909.846 1645.82 907.869 1643.61 904.727 1643.61ZM938.749 1660.67C932.622 1660.67 928.705 1657.3 928.705 1650.75V1642.72C928.705 1636.17 932.66 1632.75 938.671 1632.75C944.566 1632.75 947.668 1636.36 948.133 1641.56H945.186C944.721 1637.68 942.704 1635.39 938.71 1635.39C934.056 1635.39 931.807 1638.26 931.807 1642.72V1650.78C931.807 1655.17 934.056 1658.04 938.632 1658.04C942.588 1658.04 944.876 1656.06 945.186 1651.87H948.133C947.823 1657.53 944.255 1660.67 938.749 1660.67ZM960.245 1660.67C955.32 1660.67 952.14 1657.84 952.14 1652.3V1649.35C952.14 1643.8 955.32 1640.97 960.245 1640.97C965.17 1640.97 968.389 1643.8 968.389 1649.35V1652.3C968.389 1657.84 965.17 1660.67 960.245 1660.67ZM960.245 1643.61C956.794 1643.61 955.243 1645.9 955.243 1649.35V1652.26C955.243 1655.79 956.794 1658.04 960.245 1658.04C963.696 1658.04 965.286 1655.79 965.286 1652.26V1649.35C965.286 1645.9 963.696 1643.61 960.245 1643.61ZM976.923 1649.51V1660.29H973.86V1641.36H976.923V1644.93C978.125 1642.29 980.336 1640.97 983.05 1640.97C987.161 1640.97 989.41 1643.15 989.41 1647.72V1660.29H986.385V1648.34C986.385 1645.2 985.106 1643.61 982.042 1643.61C979.211 1643.61 976.923 1645.78 976.923 1649.51ZM1001.65 1643.34C998.895 1643.34 997.809 1644.31 997.809 1646.25C997.809 1648.03 998.74 1648.65 1001.18 1649.23L1003.63 1649.78C1007.97 1650.75 1009.56 1651.91 1009.56 1655.09C1009.56 1658.7 1007.08 1660.67 1002.23 1660.67C997.344 1660.67 994.668 1658.66 994.242 1654.24H997.111C997.422 1657.11 999.012 1658.35 1002.31 1658.35C1005.33 1658.35 1006.53 1657.22 1006.53 1655.28C1006.53 1653.31 1005.72 1652.8 1002.73 1652.1L1000.06 1651.56C996.53 1650.82 994.785 1649.51 994.785 1646.33C994.785 1643.15 996.917 1640.97 1001.65 1640.97C1006.65 1640.97 1008.94 1643.15 1009.13 1647.02H1006.22C1005.99 1644.5 1004.67 1643.34 1001.65 1643.34ZM1029.38 1654.62C1028.96 1658.54 1026.05 1660.67 1021.74 1660.67C1016.94 1660.67 1013.72 1657.84 1013.72 1652.3V1649.35C1013.72 1643.8 1016.9 1640.97 1021.78 1640.97C1026.48 1640.97 1029.5 1643.84 1029.5 1649.43V1651.17H1016.86C1016.86 1651.79 1016.9 1652.41 1016.94 1653C1017.09 1656.18 1018.64 1658.11 1021.9 1658.11C1022.21 1658.11 1022.48 1658.11 1022.75 1658.08C1024.96 1657.8 1026.2 1656.6 1026.48 1654.62H1029.38ZM1016.86 1648.96L1017.09 1649.23H1026.63C1026.48 1645.28 1025.04 1643.49 1021.78 1643.49C1018.45 1643.49 1016.9 1645.63 1016.86 1648.96ZM1037.97 1649.51V1660.29H1034.91V1641.36H1037.97V1644.93C1039.17 1642.29 1041.38 1640.97 1044.1 1640.97C1048.21 1640.97 1050.46 1643.15 1050.46 1647.72V1660.29H1047.43V1648.34C1047.43 1645.2 1046.15 1643.61 1043.09 1643.61C1040.26 1643.61 1037.97 1645.78 1037.97 1649.51ZM1062.7 1643.34C1059.94 1643.34 1058.86 1644.31 1058.86 1646.25C1058.86 1648.03 1059.79 1648.65 1062.23 1649.23L1064.67 1649.78C1069.02 1650.75 1070.61 1651.91 1070.61 1655.09C1070.61 1658.7 1068.12 1660.67 1063.28 1660.67C1058.39 1660.67 1055.71 1658.66 1055.29 1654.24H1058.16C1058.47 1657.11 1060.06 1658.35 1063.35 1658.35C1066.38 1658.35 1067.58 1657.22 1067.58 1655.28C1067.58 1653.31 1066.77 1652.8 1063.78 1652.1L1061.11 1651.56C1057.58 1650.82 1055.83 1649.51 1055.83 1646.33C1055.83 1643.15 1057.96 1640.97 1062.7 1640.97C1067.7 1640.97 1069.99 1643.15 1070.18 1647.02H1067.27C1067.04 1644.5 1065.72 1643.34 1062.7 1643.34ZM1087.37 1660.29V1656.49C1086.29 1659.35 1084.15 1660.67 1081.36 1660.67C1077.29 1660.67 1075.12 1658.54 1075.12 1654.04V1641.36H1078.14V1653.42C1078.14 1656.56 1079.42 1658.15 1082.37 1658.15C1085.12 1658.15 1087.37 1655.98 1087.37 1652.26V1641.36H1090.44V1660.29H1087.37ZM1102.91 1643.34C1100.16 1643.34 1099.07 1644.31 1099.07 1646.25C1099.07 1648.03 1100 1648.65 1102.45 1649.23L1104.89 1649.78C1109.23 1650.75 1110.82 1651.91 1110.82 1655.09C1110.82 1658.7 1108.34 1660.67 1103.49 1660.67C1098.61 1660.67 1095.93 1658.66 1095.51 1654.24H1098.38C1098.69 1657.11 1100.28 1658.35 1103.57 1658.35C1106.6 1658.35 1107.8 1657.22 1107.8 1655.28C1107.8 1653.31 1106.98 1652.8 1104 1652.1L1101.32 1651.56C1097.79 1650.82 1096.05 1649.51 1096.05 1646.33C1096.05 1643.15 1098.18 1640.97 1102.91 1640.97C1107.92 1640.97 1110.2 1643.15 1110.4 1647.02H1107.49C1107.26 1644.5 1105.94 1643.34 1102.91 1643.34Z" fill="#505050"/>
<path d="M81.6289 1646.29L516.557 1646.29" stroke="#231F20" stroke-width="4.72166"/>
<path fill-rule="evenodd" clip-rule="evenodd" d="M81.4432 1634.29V1657.88L70 1646.08L81.4432 1634.29Z" fill="#231F20"/>
<path fill-rule="evenodd" clip-rule="evenodd" d="M516.557 1657.88V1634.29L528 1646.08L516.557 1657.88Z" fill="#231F20"/>
<path d="M576.974 1771.39H572.515V1782.29H569.49V1755.14H576.897C583.606 1755.14 586.437 1757.85 586.437 1762.51V1764.1C586.437 1768.52 583.102 1771.39 576.974 1771.39ZM576.819 1757.78H572.515V1768.75H576.858C581.318 1768.75 583.334 1766.89 583.334 1764.02V1762.59C583.334 1759.68 581.628 1757.78 576.819 1757.78ZM598.176 1757.39C594.221 1757.39 592.941 1759.21 592.941 1761.62C592.941 1764.21 594.066 1765.11 597.711 1766.43L600.581 1767.47C605.777 1769.41 607.328 1771.43 607.328 1775.23C607.328 1779.96 604.652 1782.67 598.642 1782.67C592.864 1782.67 589.722 1780.08 589.141 1774.45H592.049C592.553 1778.21 594.531 1780.04 598.68 1780.04C602.597 1780.04 604.226 1778.52 604.226 1775.34C604.226 1772.78 603.179 1771.54 599.34 1770.11L596.47 1769.06C591.623 1767.32 589.839 1765.65 589.839 1761.66C589.839 1757.74 592.321 1754.75 598.176 1754.75C603.838 1754.75 606.708 1757.66 606.824 1762.97H603.916C603.683 1759.21 602.093 1757.39 598.176 1757.39ZM629.527 1788.49H626.037L622.276 1782.67C621.927 1782.67 621.578 1782.63 621.229 1782.6C615.528 1782.32 611.922 1778.99 611.922 1772.75V1765.8C611.922 1765.18 611.922 1764.56 611.96 1763.98C612.271 1757.89 616.148 1754.75 622.12 1754.75C628.054 1754.75 631.932 1757.89 632.242 1763.94C632.281 1764.52 632.281 1765.15 632.281 1765.77V1772.75C632.281 1777.98 629.721 1781.2 625.417 1782.17L629.527 1788.49ZM622.12 1757.39C617.273 1757.39 615.024 1760.26 615.024 1764.72V1772.78C615.024 1777.17 617.273 1780.04 622.12 1780.04C626.929 1780.04 629.217 1777.17 629.217 1772.71V1764.68C629.217 1760.26 626.929 1757.39 622.12 1757.39ZM638.376 1782.29V1755.14H641.401V1779.65H654.353V1782.29H638.376ZM671.356 1771.39V1782.29H668.331V1755.14H675.738C682.447 1755.14 685.277 1757.85 685.277 1762.51V1764.1C685.277 1767.55 683.222 1770.11 679.112 1770.92L686.286 1782.29H682.873L676.087 1771.39H671.356ZM675.66 1757.78H671.356V1768.75H675.699C680.159 1768.75 682.175 1766.89 682.175 1764.02V1762.59C682.175 1759.68 680.469 1757.78 675.66 1757.78ZM705.254 1776.62C704.827 1780.54 701.919 1782.67 697.614 1782.67C692.805 1782.67 689.587 1779.84 689.587 1774.3V1771.35C689.587 1765.8 692.767 1762.97 697.653 1762.97C702.345 1762.97 705.37 1765.84 705.37 1771.43V1773.17H692.728C692.728 1773.79 692.767 1774.41 692.805 1775C692.961 1778.18 694.512 1780.11 697.769 1780.11C698.079 1780.11 698.351 1780.11 698.622 1780.08C700.833 1779.8 702.074 1778.6 702.345 1776.62H705.254ZM692.728 1770.96L692.961 1771.23H702.5C702.345 1767.28 700.91 1765.49 697.653 1765.49C694.318 1765.49 692.767 1767.63 692.728 1770.96ZM726.171 1790.04H723.147V1779.18C722.1 1781.51 720.044 1782.67 717.33 1782.67C712.987 1782.67 709.962 1779.84 709.962 1774.3V1771.39C709.962 1765.8 712.987 1762.97 717.33 1762.97C720.161 1762.97 722.138 1764.25 723.147 1766.43V1763.36H726.171V1790.04ZM718.028 1765.61C714.615 1765.61 713.025 1767.9 713.025 1771.39V1774.22C713.025 1777.79 714.615 1780.04 718.067 1780.04C721.208 1780.04 723.147 1778.06 723.147 1774.06V1771.31C723.147 1767.82 721.169 1765.61 718.028 1765.61ZM744.535 1782.29V1778.49C743.449 1781.35 741.316 1782.67 738.524 1782.67C734.453 1782.67 732.281 1780.54 732.281 1776.04V1763.36H735.306V1775.42C735.306 1778.56 736.585 1780.15 739.533 1780.15C742.286 1780.15 744.535 1777.98 744.535 1774.26V1763.36H747.599V1782.29H744.535ZM768.762 1776.62C768.335 1780.54 765.427 1782.67 761.122 1782.67C756.314 1782.67 753.095 1779.84 753.095 1774.3V1771.35C753.095 1765.8 756.275 1762.97 761.161 1762.97C765.853 1762.97 768.878 1765.84 768.878 1771.43V1773.17H756.236C756.236 1773.79 756.275 1774.41 756.314 1775C756.469 1778.18 758.02 1780.11 761.277 1780.11C761.588 1780.11 761.859 1780.11 762.13 1780.08C764.341 1779.8 765.582 1778.6 765.853 1776.62H768.762ZM756.236 1770.96L756.469 1771.23H766.008C765.853 1767.28 764.418 1765.49 761.161 1765.49C757.826 1765.49 756.275 1767.63 756.236 1770.96ZM780.411 1765.34C777.658 1765.34 776.572 1766.31 776.572 1768.25C776.572 1770.03 777.503 1770.65 779.946 1771.23L782.389 1771.78C786.732 1772.75 788.322 1773.91 788.322 1777.09C788.322 1780.7 785.84 1782.67 780.993 1782.67C776.107 1782.67 773.431 1780.66 773.005 1776.24H775.874C776.184 1779.11 777.774 1780.35 781.071 1780.35C784.095 1780.35 785.298 1779.22 785.298 1777.28C785.298 1775.31 784.483 1774.8 781.497 1774.1L778.821 1773.56C775.293 1772.82 773.548 1771.51 773.548 1768.33C773.548 1765.15 775.68 1762.97 780.411 1762.97C785.414 1762.97 787.702 1765.15 787.896 1769.02H784.987C784.755 1766.5 783.436 1765.34 780.411 1765.34ZM802.795 1779.92V1782.48H800.042C795.854 1782.48 794.109 1780.73 794.109 1776.66V1765.92H791.161V1763.36H794.109V1757.78H797.133V1763.36H802.795V1765.92H797.133V1776.7C797.133 1778.83 798.025 1779.92 800.585 1779.92H802.795ZM813.396 1765.34C810.643 1765.34 809.557 1766.31 809.557 1768.25C809.557 1770.03 810.488 1770.65 812.931 1771.23L815.374 1771.78C819.717 1772.75 821.307 1773.91 821.307 1777.09C821.307 1780.7 818.825 1782.67 813.978 1782.67C809.092 1782.67 806.416 1780.66 805.989 1776.24H808.859C809.169 1779.11 810.759 1780.35 814.056 1780.35C817.08 1780.35 818.282 1779.22 818.282 1777.28C818.282 1775.31 817.468 1774.8 814.482 1774.1L811.806 1773.56C808.277 1772.82 806.532 1771.51 806.532 1768.33C806.532 1765.15 808.665 1762.97 813.396 1762.97C818.399 1762.97 820.687 1765.15 820.881 1769.02H817.972C817.74 1766.5 816.421 1765.34 813.396 1765.34Z" fill="#505050"/>
<path d="M81.6289 1768.29L516.557 1768.29" stroke="#1E84CC" stroke-width="4.72166"/>
<path fill-rule="evenodd" clip-rule="evenodd" d="M81.4432 1756.29V1779.88L70 1768.08L81.4432 1756.29Z" fill="#1E84CC"/>
<path d="M578.642 1721.67C572.515 1721.67 568.598 1718.3 568.598 1711.75V1703.72C568.598 1697.17 572.554 1693.75 578.564 1693.75C584.459 1693.75 587.561 1697.36 588.026 1702.56H585.079C584.614 1698.68 582.597 1696.39 578.603 1696.39C573.95 1696.39 571.701 1699.26 571.701 1703.72V1711.78C571.701 1716.17 573.95 1719.04 578.526 1719.04C582.481 1719.04 584.769 1717.06 585.079 1712.87H588.026C587.716 1718.53 584.149 1721.67 578.642 1721.67ZM600.138 1721.67C595.213 1721.67 592.033 1718.84 592.033 1713.3V1710.35C592.033 1704.8 595.213 1701.97 600.138 1701.97C605.063 1701.97 608.282 1704.8 608.282 1710.35V1713.3C608.282 1718.84 605.063 1721.67 600.138 1721.67ZM600.138 1704.61C596.687 1704.61 595.136 1706.9 595.136 1710.35V1713.26C595.136 1716.79 596.687 1719.04 600.138 1719.04C603.59 1719.04 605.179 1716.79 605.179 1713.26V1710.35C605.179 1706.9 603.59 1704.61 600.138 1704.61ZM616.817 1710.51V1721.29H613.753V1702.36H616.817V1705.93C618.019 1703.29 620.229 1701.97 622.944 1701.97C627.054 1701.97 629.303 1704.15 629.303 1708.72V1721.29H626.279V1709.34C626.279 1706.2 624.999 1704.61 621.935 1704.61C619.104 1704.61 616.817 1706.78 616.817 1710.51ZM641.542 1704.34C638.788 1704.34 637.703 1705.31 637.703 1707.25C637.703 1709.03 638.633 1709.65 641.076 1710.23L643.519 1710.78C647.863 1711.75 649.453 1712.91 649.453 1716.09C649.453 1719.7 646.971 1721.67 642.123 1721.67C637.237 1721.67 634.562 1719.66 634.135 1715.24H637.005C637.315 1718.11 638.905 1719.35 642.201 1719.35C645.226 1719.35 646.428 1718.22 646.428 1716.28C646.428 1714.31 645.614 1713.8 642.628 1713.1L639.952 1712.56C636.423 1711.82 634.678 1710.51 634.678 1707.33C634.678 1704.15 636.811 1701.97 641.542 1701.97C646.544 1701.97 648.832 1704.15 649.026 1708.02H646.118C645.885 1705.5 644.567 1704.34 641.542 1704.34ZM669.277 1715.62C668.85 1719.54 665.942 1721.67 661.637 1721.67C656.829 1721.67 653.61 1718.84 653.61 1713.3V1710.35C653.61 1704.8 656.79 1701.97 661.676 1701.97C666.368 1701.97 669.393 1704.84 669.393 1710.43V1712.17H656.751C656.751 1712.79 656.79 1713.41 656.829 1714C656.984 1717.18 658.535 1719.11 661.793 1719.11C662.103 1719.11 662.374 1719.11 662.646 1719.08C664.856 1718.8 666.097 1717.6 666.368 1715.62H669.277ZM656.751 1709.96L656.984 1710.23H666.524C666.368 1706.28 664.934 1704.49 661.676 1704.49C658.341 1704.49 656.79 1706.63 656.751 1709.96ZM677.863 1710.51V1721.29H674.8V1702.36H677.863V1705.93C679.065 1703.29 681.276 1701.97 683.99 1701.97C688.101 1701.97 690.35 1704.15 690.35 1708.72V1721.29H687.325V1709.34C687.325 1706.2 686.045 1704.61 682.982 1704.61C680.151 1704.61 677.863 1706.78 677.863 1710.51ZM702.588 1704.34C699.835 1704.34 698.749 1705.31 698.749 1707.25C698.749 1709.03 699.68 1709.65 702.123 1710.23L704.566 1710.78C708.909 1711.75 710.499 1712.91 710.499 1716.09C710.499 1719.7 708.017 1721.67 703.17 1721.67C698.284 1721.67 695.608 1719.66 695.182 1715.24H698.051C698.361 1718.11 699.951 1719.35 703.248 1719.35C706.272 1719.35 707.475 1718.22 707.475 1716.28C707.475 1714.31 706.66 1713.8 703.674 1713.1L700.998 1712.56C697.47 1711.82 695.724 1710.51 695.724 1707.33C695.724 1704.15 697.857 1701.97 702.588 1701.97C707.591 1701.97 709.879 1704.15 710.073 1708.02H707.164C706.932 1705.5 705.613 1704.34 702.588 1704.34ZM727.266 1721.29V1717.49C726.181 1720.35 724.048 1721.67 721.256 1721.67C717.184 1721.67 715.012 1719.54 715.012 1715.04V1702.36H718.037V1714.42C718.037 1717.56 719.317 1719.15 722.264 1719.15C725.017 1719.15 727.266 1716.98 727.266 1713.26V1702.36H730.33V1721.29H727.266ZM742.806 1704.34C740.053 1704.34 738.967 1705.31 738.967 1707.25C738.967 1709.03 739.898 1709.65 742.341 1710.23L744.784 1710.78C749.127 1711.75 750.717 1712.91 750.717 1716.09C750.717 1719.7 748.235 1721.67 743.388 1721.67C738.502 1721.67 735.826 1719.66 735.4 1715.24H738.269C738.579 1718.11 740.169 1719.35 743.466 1719.35C746.49 1719.35 747.693 1718.22 747.693 1716.28C747.693 1714.31 746.878 1713.8 743.892 1713.1L741.216 1712.56C737.688 1711.82 735.943 1710.51 735.943 1707.33C735.943 1704.15 738.075 1701.97 742.806 1701.97C747.809 1701.97 750.097 1704.15 750.291 1708.02H747.382C747.15 1705.5 745.831 1704.34 742.806 1704.34Z" fill="#505050"/>
<path d="M81.6289 1707.29L516.557 1707.29" stroke="#231F20" stroke-width="4.72166" stroke-dasharray="8 8"/>
<path fill-rule="evenodd" clip-rule="evenodd" d="M81.4432 1695.29V1718.88L70 1707.08L81.4432 1695.29Z" fill="#231F20"/>
<path fill-rule="evenodd" clip-rule="evenodd" d="M516.557 1718.88V1695.29L528 1707.08L516.557 1718.88Z" fill="#231F20"/>
<path d="M491 550.286L1019 550.286" stroke="#1E84CC" stroke-width="4.72166"/>
<path d="M1019 389.286L1191 389.286" stroke="#1E84CC" stroke-width="4.72166"/>
<path d="M1019 387.286L1019 552.286" stroke="#1E84CC" stroke-width="4.72166"/>
<path fill-rule="evenodd" clip-rule="evenodd" d="M490.68 538.286V561.876L471 550.081L490.68 538.286Z" fill="#1E84CC"/>
<path d="M690 748.286L690 951.286" stroke="#1E84CC" stroke-width="4.72166"/>
<path d="M688 953.286L715 953.286" stroke="#1E84CC" stroke-width="5"/>
<path d="M692 748.286H489" stroke="#1E84CC" stroke-width="4.72166"/>
<path fill-rule="evenodd" clip-rule="evenodd" d="M490.126 736.571V760.162L470.445 748.367L490.126 736.571Z" fill="#1E84CC"/>
</svg>
