<svg id="Layer_1" data-name="Layer 1" xmlns="http://www.w3.org/2000/svg" viewBox="0 0 751.68 742"><defs><style>.cls-1{fill:#229598;}.cls-2{fill:#3db9c4;}.cls-3{fill:#fff;}.cls-4{fill:#61388c;}.cls-5{fill:#b399c8;}.cls-6{fill:#33672b;}.cls-7{fill:#adca3d;}.cls-8{fill:#1d70b7;}.cls-9{fill:#35a8e0;}.cls-10,.cls-11,.cls-13,.cls-14{fill:none;stroke:#f29100;stroke-miterlimit:10;stroke-width:5px;}.cls-11{stroke-dasharray:10.06 5.03;}.cls-12{fill:#f29100;}.cls-13{stroke-dasharray:10.03 5.01;}.cls-14{stroke-dasharray:10.06 5.03;}</style></defs><title>geo-distributed</title><circle class="cls-1" cx="375.49" cy="371" r="313.97"/><path class="cls-2" d="M741,695.34c2.49-3.13,5-6.3,7.32-9.53l-2.26.5Z" transform="translate(-129.48 -136.5)"/><path class="cls-2" d="M682.14,705.7l-10.86-14.62V668.31L663,660l-.72-9.49,10.54-20.09-20-35.28,2.36-23.92-18-1.87-6.63-6.63H618.49l-6.14,5.68h-21.3l-.72,1.9H578.49l-27.2-31,.23-24.15,4.49-1.64,1.67-9.24h-6.39l-2.61-9.69,31.48-22.72V455.79l1.65-.92,13.76-7.64,6.22.63h12.68l9.93-5.32,32-2.48v16.31l25.21,6.4,5,3.56h4.63v-8.88L705.71,456l13.84,10.32h22.72l8.16-7.46V447.16l-6.64-5-22.47.36-7.45-8.15-1.43-13.16-7.62,4.17-4.09,16.06-11-11.71-.45-11.09-10.63-9.14-3.91-3.9H662.39l3.91,11,14.82,8.27,2.58,2.75-3.21,1.6.14,8.69-7.23,3-6.17-1.37-3.86-5.45,10,.54,2.71-3.65-22.23-15-1.69-6.39-9.05,8.17L634,415.92,620.05,434l-2.73,7.1-8.92.81-13.2.06-7.88-3.67L585,422.67l2.84-7.47,13.42-2.94,14.64,2.94,1.78-8.11-6.22-1.47L613.57,393l14.75-2.32,10.29-14.56,10.64-1.77,9.61,1.41h3.53l-1.95-13.67-11.67,4.73-4.1-10.22-6.76-.95-1.28-7,5.53-6,13.13-5.14,7.46-13.31,19.87-10.16L718.14,313l27.68,12.84c-55.08-72.9-142.45-120-240.85-120-95.63,0-180.8,44.54-236.08,114l5.74,3.28,5.91.49,8.77-8.52,28.39-.24,6.4,3.53,12.06,2.61.94,4.74,19.18.72-2.6-6.17-17.05-.45,4-3.79-1.41-4.51h-15.4l16.81-12.54h16.09l7.57,10.43,12.54.7,7.58-7.35,5.68,2.84L379.7,315.69s-14.42.25-13.71.25,1.18,9.91,1.18,9.91l17.5-.45,1.89-4.73,12.08-.72,1.42-7.1-7.1-1.19,2.36-6.39,5.45-1.65,18.93.94-10.43,9.49,1.68,7.32L421.83,323l-.71-13.25,10.42-5.45L450,302.2l26.74,11.85v10.16l8.53,2.14-4.27,8H468.93l-3.57,9.21-27.59-6.48,21.68-11.56-8.27-7-18.7,2.36-1.64,1.7-.07,0-.29.4-5.37,5.59-8.9.74.71,4.44L420,335l-.13,1.46-7.24,1-.53,4.19-6.93.36L404,333.74l-12.43,3.78-25.38,14.87L369,362.84l7.1,4.62,14.19,2v16.13l6.56-1,6-12.62,15.1-4.77V347.75l8.4-6.33,20.3,4.8L445.26,359h5.45l14.91-7.34.71,16.8,10.87,6.63-.46,9.93-10.41,3.54.71,3.31,12.54,5.7-.25,6.85-3.63.31c0-.11,0-.18,0-.18l-15.82-4.86-.67-5.1h0l4.61-3.17v-4.62l-5-1.26-1.24,4.28-8.73,1.35-.87-.29v.43l-3,.44-2.46-4.95-2.85-1.26h-6.22l-2.83,2.32V393l5.32,1.75,5.25.72-1.17.55-4.79,5.31-2.12-2.66-4.62-1.23-12.61,11.87,1.65,1.35L398.87,421l-17.51,18.2-1.19,8.13L362.6,458.87l-8.7,8.77,1,17.5-12.08-5.61.11-10.27-33.6,0-17.39,8.81L284.34,492l-3,11,4.89,10.72,13.71,1.67,21.78-14.56,1.91,7.21L317,520.64l16.57,2.84,1.66,25.62,22.71,3.82,14.44-16.67,17.52,3.56,6.15,8.56,16.8-1,.48-5,9.22,4.48L433,563.24l18,.23,6.63,11.62.95,14.19,19.87,7.56,25.09.23,7.34,12.08,11.12,3.56-2.13,9.93-12.19,15.5-3.56,34.26-11,8.7-16.33-.5-5.45,9.47,4,17.77-17.75,22.73L451.89,741,435,749.1l-11.12,1.69-.47,4.74,7.81,2.23-.95,5.09-7,6.73,4.25,5.36,8.41.23-.47,6.51-2.25,6.38-.71,5.22,11.63,9.79a302.06,302.06,0,0,0,270.21-78.43H682.14ZM601.68,361.22l2.61-4,9.36-1.89L616,366.69l5,8.05,3.3,3.78,6,2.37-5.66,6.75-11,1.06h-8.3l.95-9.82,6.87-1.42-.59-4.62-6.41-4-4.49-3.08ZM586.31,379l5.69-9.12,7.66-1.76,5.47,2.37-.49,6.15-11.71,8.29h-6.62ZM452.37,406.75l-4,.34-.82,3.91-3.12,1.94-5,.43c-.17-1.17-.28-2.07-.28-2.07h-1.95v-4.21h8.16l1.7-4.33,3.24-.09,3.71.77Z" transform="translate(-129.48 -136.5)"/><path class="cls-2" d="M788.89,535.8l-7.33-7.35-.77-11.91-31.67-38.45-2.25,2.61,32,60.2,7.83,3.87L804.79,541c.27-2.43.48-4.88.69-7.34l-1.69,1.23Z" transform="translate(-129.48 -136.5)"/><polygon class="cls-2" points="259.94 270.59 255.58 267.88 253.01 270.59 256.45 273.47 259.94 270.59"/><path class="cls-2" d="M766.88,608.2l5.93,10.46,2.33,23.13A299.35,299.35,0,0,0,799,574.87l-5.58,8Z" transform="translate(-129.48 -136.5)"/><path class="cls-2" d="M755.75,672.81v2.44q3.4-5.07,6.6-10.3l-.21.29Z" transform="translate(-129.48 -136.5)"/><polygon class="cls-2" points="232.24 268.78 222.83 268.78 216.27 275.85 215.2 282.97 220.18 285.63 232.24 268.78"/><polygon class="cls-2" points="190.77 194.58 190.77 190.14 180.6 190.14 180.06 192.28 173.84 192.28 173.84 192.8 173.84 198.48 187.86 198.48 190.77 194.58"/><path class="cls-2" d="M367.4,414.68l5.32-1L377,411v-5.68H367.4Z" transform="translate(-129.48 -136.5)"/><polygon class="cls-2" points="212 246.39 214.32 237.34 207.57 235.76 200.12 239.29 204.72 248.71 212 246.39"/><polygon class="cls-2" points="242.7 259.7 242.7 266.46 248.57 265.04 242.7 259.7"/><polygon class="cls-2" points="261.35 283.69 261.35 278.18 250.53 274.98 249.82 274.98 249.82 280.11 252.3 283.69 261.35 283.69"/><polygon class="cls-2" points="239.69 266.46 239.69 260.61 237.22 260.61 237.22 257.23 226.03 257.23 217.86 260.61 216.27 264.68 222.65 266.46 239.69 266.46"/><path class="cls-2" d="M320,348.29s.53-6.22,0-6.22-6.75,1.08-6.75,1.08L303.32,346l2.67,3.2Z" transform="translate(-129.48 -136.5)"/><path class="cls-2" d="M718.14,331.78l1,5.09,23.09.65,7.7-6c-1.1-1.53-2.15-3.09-3.27-4.6l-4.43,3.8Z" transform="translate(-129.48 -136.5)"/><path class="cls-2" d="M233.41,375.9c-.75,1.56-1.45,3.15-2.18,4.73l4.11-2.92Z" transform="translate(-129.48 -136.5)"/><path class="cls-2" d="M788.54,416.61l5.36,3.92c-1.64-5.43-3.38-10.82-5.31-16.12l-.52,1.21Z" transform="translate(-129.48 -136.5)"/><path class="cls-2" d="M729,709.61,714.7,724.28C719.6,719.54,724.38,714.68,729,709.61Z" transform="translate(-129.48 -136.5)"/><path class="cls-2" d="M229.42,384.64a298.34,298.34,0,0,0-10.89,28.09l12.08-14.68Z" transform="translate(-129.48 -136.5)"/><path class="cls-2" d="M797.66,478.81c0,.23,3.33,2,8,4.25-.51-6.38-1.18-12.72-2.08-19h-5.65S797.66,478.05,797.66,478.81Z" transform="translate(-129.48 -136.5)"/><path class="cls-2" d="M794.21,435.09l-.83,3.78,5.46.39c-.53-2.27-1-4.57-1.58-6.82Z" transform="translate(-129.48 -136.5)"/><polygon class="cls-2" points="548.26 204.09 548.18 227.24 535.94 233.46 537.17 237.51 556.7 237.7 567.97 220.94 567.44 213.3 559.45 209.58 559.45 203.91 573.55 195.28 573.55 189.6 569.04 189.6 548.26 204.09"/><polygon class="cls-2" points="618.1 284.32 617.53 272.88 613.54 270.9 611.4 274.23 601.62 275.36 597.16 276.75 593.04 281.4 593.04 293.97 598.55 293.2 616.97 293.97 629.75 293.97 628.79 288.74 618.1 284.32"/><polygon class="cls-2" points="237.93 283.15 233.66 283.52 232.24 289.71 241.3 289.71 245.37 285.63 245.37 280.11 238.82 281.02 237.93 283.15"/><path class="cls-2" d="M398.17,748.77l-9.95-13.25,4-22.48-5.91-1.67V662.62s-16.57-12.54-17.52-12.54-8.76-2.12-8.76-2.12l-1.66-9.21-21.53-27,2.13-9.72.71-15.85,14.9-10.44L352.48,558l-21.76-1.62-17-19.43-12.08-3.31-7.8-1.42.94-7.11-9.94-1.4v4L260,521.59l-10-15.3,4.08-7.43-15.74-22.93-2.71-16.81h-6.39l2.13,16.31,10.88,16.8L241,498.86l-9.23-1.4-11.35-19.37V455.56L208.8,450a302.8,302.8,0,0,0-5.54,57.52c0,133.11,86.24,246,205.87,286.08l-12.8-22.51Z" transform="translate(-129.48 -136.5)"/><polygon class="cls-3" points="483.1 236.34 483.69 240.96 476.82 242.38 475.87 252.2 484.17 252.2 495.17 251.15 500.83 244.38 494.81 242.02 491.51 238.24 486.53 230.19 484.17 218.82 474.81 220.71 472.2 224.72 472.2 229.25 476.69 232.33 483.1 236.34"/><polygon class="cls-3" points="475.17 240.13 475.65 233.98 470.18 231.61 462.52 233.37 456.84 242.49 456.84 248.42 463.45 248.42 475.17 240.13"/><path class="cls-2" d="M714.35,724.64l.35-.36-.38.36Z" transform="translate(-129.48 -136.5)"/><path class="cls-3" d="M793.38,438.87l.83-3.78,3-2.65c-1-4-2.18-8-3.36-11.91l-5.36-3.92-.47-11,.52-1.21A300.83,300.83,0,0,0,750,331.52l-7.7,6-23.09-.65-1-5.09,24.13-1.06,4.43-3.8c-.29-.38-.6-.74-.88-1.11L718.14,313l-35.52,1.08-19.87,10.16-7.46,13.31-13.13,5.14-5.53,6,1.28,7,6.76.95,4.1,10.22,11.67-4.73,1.95,13.67h-3.53l-9.61-1.41-10.64,1.77-10.29,14.56L613.57,393l-2.11,12.59,6.22,1.47-1.78,8.11-14.64-2.94-13.42,2.94L585,422.67l2.32,15.66L595.2,442l13.2-.06,8.92-.81,2.73-7.1L634,415.92l9.16,1.86,9.05-8.17,1.69,6.39,22.23,15-2.71,3.65-10-.54,3.86,5.45,6.17,1.37,7.23-3-.14-8.69,3.21-1.6-2.58-2.75-14.82-8.27-3.91-11h12.34l3.91,3.9,10.63,9.14.45,11.09,11,11.71,4.09-16.06,7.62-4.17,1.43,13.16,7.45,8.15,22.47-.36,6.64,5v11.71l-8.16,7.46H719.55L705.71,456l-14.55,1.44v8.88h-4.63l-5-3.56-25.21-6.4V440.06l-32,2.48-9.93,5.32H601.79l-6.22-.63-13.76,7.64-1.65.92V471.9l-31.48,22.72,2.61,9.69h6.39L556,513.55l-4.49,1.64-.23,24.15,27.2,31h11.84l.72-1.9h21.3l6.14-5.68h12.08l6.63,6.63,18,1.87-2.36,23.92,20,35.28-10.54,20.09L663,660l8.3,8.27v22.77l10.86,14.62v18.94h32.18l.38-.36L729,709.61c4.17-4.62,8.16-9.4,12-14.27l5.06-9,2.26-.5c2.55-3.47,5-7,7.44-10.56v-2.44l6.39-7.57.21-.29c4.61-7.5,8.85-15.24,12.79-23.16l-2.33-23.13-5.93-10.46,26.58-25.36,5.58-8A300.47,300.47,0,0,0,804.79,541l-18.14,3.82-7.83-3.87-32-60.2,2.25-2.61,31.67,38.45.77,11.91,7.33,7.35,14.9-1,1.69-1.23c.74-8.61,1.2-17.31,1.2-26.11,0-8.24-.42-16.37-1.07-24.44-4.62-2.29-8-4-8-4.25,0-.76.22-14.73.22-14.73h5.65c-1.21-8.4-2.81-16.66-4.69-24.82ZM703,331.78l-14.1,8.63v5.67l8,3.72.52,7.64L686.18,374.2,666.65,374,665.42,370l12.24-6.22.08-23.15,20.78-14.48H703Zm43.42,98.69L728,429.7l-5.51.77V417.9l4.12-4.65,4.45-1.39,9.79-1.13L743,407.4l4,2,.57,11.45,10.69,4.41,1,5.23Z" transform="translate(-129.48 -136.5)"/><path class="cls-3" d="M447,402.76l-1.7,4.33h-8.16v4.21h1.95s.11.9.28,2.07l5-.43,3.12-1.94.82-3.91,4-.34,1.6-3.31-3.71-.77Z" transform="translate(-129.48 -136.5)"/><path class="cls-3" d="M433.19,788.06l2.25-6.38.47-6.51-8.41-.23-4.25-5.36,7-6.73.95-5.09-7.81-2.23.47-4.74L435,749.1,451.89,741l5.68-10.41,17.75-22.73-4-17.77,5.45-9.47,16.33.5,11-8.7,3.56-34.26,12.19-15.5,2.13-9.93-11.12-3.56-7.34-12.08-25.09-.23-19.87-7.56-.95-14.19-6.63-11.62-18-.23-10.42-16.33-9.22-4.48-.48,5-16.8,1-6.15-8.56-17.52-3.56-14.44,16.67-22.71-3.82-1.66-25.62L317,520.64l6.64-12.55-1.91-7.21-21.78,14.56-13.71-1.67-4.89-10.72,3-11,7.56-13.92,17.39-8.81,33.6,0-.11,10.27,12.08,5.61-1-17.5,8.7-8.77,17.57-11.53,1.19-8.13L398.87,421l18.63-10.32-1.65-1.35,12.61-11.87,4.62,1.23,2.12,2.66,4.79-5.31,1.17-.55-5.25-.72L430.59,393v-5.16l2.83-2.32h6.22l2.85,1.26,2.46,4.95,3-.44v-.43l.87.29,8.73-1.35,1.24-4.28,5,1.26v4.62l-4.61,3.17h0l.67,5.1,15.82,4.86s0,.07,0,.18l3.63-.31.25-6.85L467,391.88l-.71-3.31L476.74,385l.46-9.93-10.87-6.63-.71-16.8L450.71,359h-5.45l1.43-12.79-20.3-4.8-8.4,6.33v19.37l-15.1,4.77-6,12.62-6.56,1V369.42l-14.19-2-7.1-4.62-2.84-10.45,25.38-14.87L404,333.74l1.23,8.33,6.93-.36.53-4.19,7.24-1L420,335l-3.11-1.28-.71-4.44,8.9-.74,5.37-5.59.29-.4.07,0,1.64-1.7,18.7-2.36,8.27,7-21.68,11.56,27.59,6.48,3.57-9.21H481l4.27-8-8.53-2.14V314.05L450,302.2l-18.46,2.12-10.42,5.45.71,13.25L411,321.37l-1.68-7.32,10.43-9.49-18.93-.94-5.45,1.65L393,311.66l7.1,1.19-1.42,7.1-12.08.72-1.89,4.73-17.5.45s-.47-9.91-1.18-9.91,13.71-.25,13.71-.25l10.42-10.18-5.68-2.84L376.86,310l-12.54-.7-7.57-10.43H340.66l-16.81,12.54h15.4l1.41,4.51-4,3.79,17.05.45,2.6,6.17-19.18-.72-.94-4.74-12.06-2.61-6.4-3.53-28.39.24-8.77,8.52-5.91-.49-5.74-3.28a302.32,302.32,0,0,0-35.48,56.16l1.93,1.81-4.11,2.92c-.62,1.33-1.21,2.67-1.81,4l1.19,13.41-12.08,14.68A300.35,300.35,0,0,0,208.8,450l11.64,5.58v22.53l11.35,19.37,9.23,1.4,1.18-6.63-10.88-16.8-2.13-16.31h6.39l2.71,16.81L254,498.86,250,506.29l10,15.3,24.85,6.15v-4l9.94,1.4-.94,7.11,7.8,1.42L313.68,537l17,19.43L352.48,558l2.13,17.74-14.9,10.44L339,602.05l-2.13,9.72,21.53,27,1.66,9.21s7.82,2.12,8.76,2.12,17.52,12.54,17.52,12.54v48.75l5.91,1.67-4,22.48,9.95,13.25-1.84,22.3,12.8,22.51a300.36,300.36,0,0,0,35,9.49l-11.63-9.79ZM374.85,422.13l-4.07,4.08h-9.07l1.43-6.19,4.26-.37.9-2.13,6.55-.91ZM377,411l-4.27,2.75-5.32,1v-9.4H377Zm8.07-6.58,4.35,2.71L385.93,410l-3.44-2.88Zm-5.76,7.1H380l10.82,3.2v5.52h-9.05l-2.48-3.59Zm-7.12-15.28,5.87,5.34L372.18,403Zm-24.84.91,8.17-3.38H366.7v3.38h2.46V403h-17l-6.38-1.78Zm-1.59,15.24,6.56-7.07h9.4l-12,16.85-5-2.66Zm-8.7-40.09,6.75,1.58-2.32,9.05-7.28,2.32-4.61-9.42Zm-33.73-43v-.52h6.22l.54-2.14h10.16v4.44l-2.9,3.9h-14Zm9.94,13.85s6.22-1.08,6.75-1.08,0,6.22,0,6.22l-14,.9-2.67-3.2Z" transform="translate(-129.48 -136.5)"/><path class="cls-4" d="M881.16,439.5c0-12.17-36.53-22-81.59-22S718,427.33,718,439.5v37.8c0,12.17,36.52,22,81.58,22s81.59-9.86,81.59-22Z" transform="translate(-129.48 -136.5)"/><path class="cls-5" d="M881.16,439.5c0,12.17-36.53,22-81.59,22S718,451.67,718,439.5s36.52-22,81.58-22S881.16,427.33,881.16,439.5Z" transform="translate(-129.48 -136.5)"/><path class="cls-4" d="M881.16,385.51c0-12.17-36.53-22-81.59-22s-81.58,9.86-81.58,22v37.8c0,12.17,36.52,22,81.58,22s81.59-9.86,81.59-22Z" transform="translate(-129.48 -136.5)"/><path class="cls-5" d="M881.16,385.51c0,12.17-36.53,22-81.59,22s-81.58-9.87-81.58-22,36.52-22,81.58-22S881.16,373.34,881.16,385.51Z" transform="translate(-129.48 -136.5)"/><path class="cls-4" d="M881.16,331.52c0-12.17-36.53-22-81.59-22s-81.58,9.86-81.58,22v37.8c0,12.17,36.52,22,81.58,22s81.59-9.86,81.59-22Z" transform="translate(-129.48 -136.5)"/><path class="cls-5" d="M881.16,331.52c0,12.17-36.53,22-81.59,22s-81.58-9.86-81.58-22,36.52-22,81.58-22S881.16,319.35,881.16,331.52Z" transform="translate(-129.48 -136.5)"/><path class="cls-6" d="M307.68,384.28c0-12.17-36.53-22-81.58-22s-81.58,9.86-81.58,22v37.8c0,12.17,36.52,22,81.58,22s81.58-9.86,81.58-22Z" transform="translate(-129.48 -136.5)"/><path class="cls-7" d="M307.68,384.28c0,12.17-36.53,22-81.58,22s-81.58-9.87-81.58-22,36.52-22,81.58-22S307.68,372.11,307.68,384.28Z" transform="translate(-129.48 -136.5)"/><path class="cls-6" d="M307.68,330.29c0-12.17-36.53-22-81.58-22s-81.58,9.86-81.58,22v37.8c0,12.17,36.52,22,81.58,22s81.58-9.86,81.58-22Z" transform="translate(-129.48 -136.5)"/><path class="cls-7" d="M307.68,330.29c0,12.17-36.53,22-81.58,22s-81.58-9.87-81.58-22,36.52-22,81.58-22S307.68,318.12,307.68,330.29Z" transform="translate(-129.48 -136.5)"/><path class="cls-6" d="M307.68,276.3c0-12.17-36.53-22-81.58-22s-81.58,9.86-81.58,22v37.8c0,12.17,36.52,22,81.58,22s81.58-9.86,81.58-22Z" transform="translate(-129.48 -136.5)"/><path class="cls-7" d="M307.68,276.3c0,12.17-36.53,22-81.58,22s-81.58-9.86-81.58-22,36.52-22,81.58-22S307.68,264.13,307.68,276.3Z" transform="translate(-129.48 -136.5)"/><path class="cls-8" d="M420,775.79c0-12.17-36.52-22-81.58-22s-81.58,9.86-81.58,22v37.8c0,12.17,36.52,22,81.58,22s81.58-9.86,81.58-22Z" transform="translate(-129.48 -136.5)"/><path class="cls-9" d="M420,775.79c0,12.17-36.52,22-81.58,22s-81.58-9.86-81.58-22,36.52-22,81.58-22S420,763.62,420,775.79Z" transform="translate(-129.48 -136.5)"/><path class="cls-8" d="M420,721.8c0-12.17-36.52-22-81.58-22s-81.58,9.86-81.58,22v37.8c0,12.17,36.52,22,81.58,22s81.58-9.86,81.58-22Z" transform="translate(-129.48 -136.5)"/><path class="cls-9" d="M420,721.8c0,12.17-36.52,22-81.58,22s-81.58-9.86-81.58-22,36.52-22,81.58-22S420,709.63,420,721.8Z" transform="translate(-129.48 -136.5)"/><path class="cls-8" d="M420,667.81c0-12.17-36.52-22-81.58-22s-81.58,9.86-81.58,22v37.8c0,12.17,36.52,22,81.58,22s81.58-9.86,81.58-22Z" transform="translate(-129.48 -136.5)"/><path class="cls-9" d="M420,667.81c0,12.17-36.52,22-81.58,22s-81.58-9.86-81.58-22,36.52-22,81.58-22S420,655.64,420,667.81Z" transform="translate(-129.48 -136.5)"/><path class="cls-10" d="M213.83,733.42c-1-1.31-2-2.63-3-4" transform="translate(-129.48 -136.5)"/><path class="cls-11" d="M207.78,725.42A366.83,366.83,0,0,1,136.47,507.5q0-18.18,1.73-35.92" transform="translate(-129.48 -136.5)"/><path class="cls-10" d="M138.45,469.07c.17-1.66.36-3.32.55-5" transform="translate(-129.48 -136.5)"/><polygon class="cls-12" points="85.05 583.81 83.5 595.7 71.61 594.15 76 599.85 87.89 601.4 89.44 589.52 85.05 583.81"/><polygon class="cls-12" points="16.84 338.47 9.4 329.07 0 336.51 0.83 329.36 10.23 321.92 17.67 331.32 16.84 338.47"/><path class="cls-10" d="M872.84,529.24c-.1,1.66-.21,3.32-.32,5" transform="translate(-129.48 -136.5)"/><path class="cls-13" d="M872.12,539.22C856,727.89,697.8,876,505,876a369,369,0,0,1-96.07-12.65" transform="translate(-129.48 -136.5)"/><path class="cls-10" d="M406.49,862.69c-1.61-.44-3.21-.9-4.81-1.36" transform="translate(-129.48 -136.5)"/><polygon class="cls-12" points="734.14 402.1 743.16 394.2 751.05 403.24 751.54 396.06 743.65 387.03 734.62 394.91 734.14 402.1"/><polygon class="cls-12" points="284.13 719.38 273.64 725.18 279.44 735.67 272.52 733.68 266.73 723.19 277.22 717.39 284.13 719.38"/><path class="cls-10" d="M270.28,223.38q1.94-1.59,3.88-3.15" transform="translate(-129.48 -136.5)"/><path class="cls-14" d="M278.09,217.1A368.55,368.55,0,0,1,780.72,263" transform="translate(-129.48 -136.5)"/><path class="cls-10" d="M782.38,264.94q1.65,1.88,3.27,3.78" transform="translate(-129.48 -136.5)"/><polygon class="cls-12" points="153.93 87.21 142 86.01 143.21 74.08 137.63 78.63 136.43 90.56 148.36 91.76 153.93 87.21"/><polygon class="cls-12" points="643.15 130.35 655.12 131.18 655.94 119.21 660.66 124.64 659.84 136.6 647.88 135.78 643.15 130.35"/></svg>