<svg xmlns="http://www.w3.org/2000/svg" xmlns:xlink="http://www.w3.org/1999/xlink" xmlns:lucid="lucid" width="1257" height="1082.24"><g transform="translate(110.50239004465897 389.11974420008306)" lucid:page-tab-id="hVvSOaa..dYv"><path d="M-86.25-85.05a6 6 0 0 1 6-6h213.5a6 6 0 0 1 6 6V6.12a6 6 0 0 1-6 6h-213.5a6 6 0 0 1-6-6z" stroke="#3a414a" stroke-width="2" fill="#fff"/><use xlink:href="#a" transform="matrix(1,0,0,1,-74.24760995534098,-79.04822454991677) translate(45.58550347222223 35.61631944444444)"/><use xlink:href="#b" transform="matrix(1,0,0,1,-74.24760995534098,-79.04822454991677) translate(54.103298611111114 61.65798611111111)"/><path d="M141.5-131.26c0 5.2-51.7 9.4-115.5 9.4s-115.5-4.2-115.5-9.4v-75.18c0-5.2 51.7-9.4 115.5-9.4s115.5 4.2 115.5 9.4z" stroke="#fff" stroke-width="2" fill="#136a7f"/><path d="M141.5-206.44c0 5.2-51.7 9.4-115.5 9.4s-115.5-4.2-115.5-9.4" stroke="#fff" stroke-width="2" fill="none"/><path d="M140.5-215.27c0 5.2-51.7 9.4-115.5 9.4s-115.5-4.2-115.5-9.4v-75.18c0-5.2 51.7-9.4 115.5-9.4s115.5 4.2 115.5 9.4z" stroke="#fff" stroke-width="2" fill="#136a7f"/><path d="M140.5-290.45c0 5.2-51.7 9.4-115.5 9.4s-115.5-4.2-115.5-9.4" stroke="#fff" stroke-width="2" fill="none"/><path d="M140.5-301.68c0 5.2-51.7 9.4-115.5 9.4s-115.5-4.2-115.5-9.4v-75.19c0-5.2 51.7-9.4 115.5-9.4s115.5 4.2 115.5 9.4z" stroke="#fff" stroke-width="2" fill="#136a7f"/><path d="M140.5-376.87c0 5.2-51.7 9.4-115.5 9.4s-115.5-4.2-115.5-9.4" stroke="#fff" stroke-width="2" fill="none"/><path d="M920-85.05a6 6 0 0 1 6-6h213.5a6 6 0 0 1 6 6V6.12a6 6 0 0 1-6 6H926a6 6 0 0 1-6-6z" stroke="#3a414a" stroke-width="2" fill="#fff"/><use xlink:href="#c" transform="matrix(1,0,0,1,932,-79.04822454991677) translate(39.02083333333334 35.61631944444444)"/><use xlink:href="#d" transform="matrix(1,0,0,1,932,-79.04822454991677) translate(54.103298611111114 61.65798611111111)"/><path d="M1141.5-133.1c0 5.18-51.7 9.38-115.5 9.38s-115.5-4.2-115.5-9.4v-75.17c0-5.18 51.7-9.4 115.5-9.4s115.5 4.22 115.5 9.4z" stroke="#fff" stroke-width="2" fill="#136a7f"/><path d="M1141.5-208.3c0 5.2-51.7 9.4-115.5 9.4s-115.5-4.2-115.5-9.4" stroke="#fff" stroke-width="2" fill="none"/><path d="M1140.5-217.13c0 5.2-51.7 9.4-115.5 9.4s-115.5-4.2-115.5-9.4v-75.18c0-5.2 51.7-9.4 115.5-9.4s115.5 4.2 115.5 9.4z" stroke="#fff" stroke-width="2" fill="#136a7f"/><path d="M1140.5-292.3c0 5.18-51.7 9.4-115.5 9.4s-115.5-4.22-115.5-9.4" stroke="#fff" stroke-width="2" fill="none"/><path d="M1140.5-303.54c0 5.2-51.7 9.4-115.5 9.4s-115.5-4.2-115.5-9.4v-75.18c0-5.2 51.7-9.4 115.5-9.4s115.5 4.2 115.5 9.4z" stroke="#fff" stroke-width="2" fill="#136a7f"/><path d="M1140.5-378.72c0 5.2-51.7 9.4-115.5 9.4s-115.5-4.2-115.5-9.4" stroke="#fff" stroke-width="2" fill="none"/><path d="M599.23-208.16c0 2.8-38.78 5.1-86.62 5.1-47.82 0-86.6-2.3-86.6-5.1v-40.72c0-2.8 38.78-5.1 86.6-5.1 47.85 0 86.63 2.3 86.63 5.1z" stroke="#fff" stroke-width="2" fill="#28495a"/><path d="M599.23-248.88c0 2.8-38.78 5.1-86.62 5.1-47.82 0-86.6-2.3-86.6-5.1" stroke="#fff" stroke-width="2" fill="none"/><path d="M598.48-253.66c0 2.8-38.78 5.1-86.62 5.1-47.83 0-86.6-2.3-86.6-5.1v-40.72c0-2.8 38.77-5.08 86.6-5.08 47.84 0 86.62 2.27 86.62 5.08z" stroke="#fff" stroke-width="2" fill="#28495a"/><path d="M598.48-294.38c0 2.82-38.78 5.1-86.62 5.1-47.83 0-86.6-2.28-86.6-5.1" stroke="#fff" stroke-width="2" fill="none"/><path d="M598.48-300.46c0 2.8-38.78 5.1-86.62 5.1-47.83 0-86.6-2.3-86.6-5.1v-40.7c0-2.82 38.77-5.1 86.6-5.1 47.84 0 86.62 2.28 86.62 5.1z" stroke="#fff" stroke-width="2" fill="#28495a"/><path d="M598.48-341.17c0 2.8-38.78 5.1-86.62 5.1-47.83 0-86.6-2.3-86.6-5.1" stroke="#fff" stroke-width="2" fill="none"/><path d="M413.75-85.05a6 6 0 0 1 6-6h213.5a6 6 0 0 1 6 6V6.12a6 6 0 0 1-6 6h-213.5a6 6 0 0 1-6-6z" stroke="#3a414a" stroke-width="2" fill="#fff"/><use xlink:href="#e" transform="matrix(1,0,0,1,425.752390044659,-79.04822454991677) translate(45.9924045138889 35.61631944444444)"/><use xlink:href="#f" transform="matrix(1,0,0,1,425.752390044659,-79.04822454991677) translate(69.70659722222223 61.65798611111111)"/><path d="M-82 594.95a6 6 0 0 1 6-6h213.5a6 6 0 0 1 6 6v91.17a6 6 0 0 1-6 6H-76a6 6 0 0 1-6-6z" stroke="#3a414a" stroke-width="2" fill="#fff"/><use xlink:href="#g" transform="matrix(1,0,0,1,-69.99760995534098,600.951775450083) translate(45.58550347222223 35.61631944444444)"/><use xlink:href="#h" transform="matrix(1,0,0,1,-69.99760995534098,600.951775450083) translate(11.259331597222229 61.65798611111111)"/><use xlink:href="#i" transform="matrix(1,0,0,1,-69.99760995534098,600.951775450083) translate(110.55403645833333 61.65798611111111)"/><path d="M145.75 548.74c0 5.2-51.7 9.4-115.5 9.4s-115.5-4.2-115.5-9.4v-75.18c0-5.2 51.7-9.4 115.5-9.4s115.5 4.2 115.5 9.4z" stroke="#fff" stroke-width="2" fill="#136a7f"/><path d="M145.75 473.56c0 5.2-51.7 9.4-115.5 9.4s-115.5-4.2-115.5-9.4" stroke="#fff" stroke-width="2" fill="none"/><path d="M144.75 464.73c0 5.2-51.7 9.4-115.5 9.4s-115.5-4.2-115.5-9.4v-75.18c0-5.2 51.7-9.4 115.5-9.4s115.5 4.2 115.5 9.4z" stroke="#fff" stroke-width="2" fill="#136a7f"/><path d="M144.75 389.55c0 5.2-51.7 9.4-115.5 9.4s-115.5-4.2-115.5-9.4" stroke="#fff" stroke-width="2" fill="none"/><path d="M144.75 378.32c0 5.2-51.7 9.4-115.5 9.4s-115.5-4.2-115.5-9.4v-75.19c0-5.2 51.7-9.4 115.5-9.4s115.5 4.2 115.5 9.4z" stroke="#fff" stroke-width="2" fill="#136a7f"/><path d="M144.75 303.13c0 5.2-51.7 9.4-115.5 9.4s-115.5-4.2-115.5-9.4" stroke="#fff" stroke-width="2" fill="none"/><path d="M209.5-312.2a6 6 0 0 1 6-6H277a6 6 0 0 0 6-6v-36.06a2.3 2.3 0 0 1 4-1.54l78.5 87.2a6.67 6.67 0 0 1 0 8.92l-78.5 87.2a2.3 2.3 0 0 1-4-1.54v-36.06a6 6 0 0 0-6-6h-61.5a6 6 0 0 1-6-6z" stroke="#3a414a" stroke-width="2" fill="#e7c568"/><use xlink:href="#j" transform="matrix(1,0,0,1,214.50239004465902,-361.2621369555832) translate(27.16362847222223 84.43402777777777)"/><use xlink:href="#k" transform="matrix(1,0,0,1,214.50239004465902,-361.2621369555832) translate(8.100694444444457 111.32204861111111)"/><path d="M676.5-312.2a6 6 0 0 1 6-6h61.48a6 6 0 0 0 6-6v-36.06a2.3 2.3 0 0 1 4-1.54l78.5 87.2a6.67 6.67 0 0 1 0 8.92l-78.5 87.2a2.3 2.3 0 0 1-4-1.54v-36.06a6 6 0 0 0-6-6h-61.5a6 6 0 0 1-6-6z" stroke="#3a414a" stroke-width="2" fill="#e7c568"/><g><use xlink:href="#j" transform="matrix(1,0,0,1,681.4891745075539,-361.2621369555832) translate(27.16362847222223 84.43402777777777)"/><use xlink:href="#k" transform="matrix(1,0,0,1,681.4891745075539,-361.2621369555832) translate(8.100694444444457 111.32204861111111)"/></g><g><path d="M88.54 54.1a6 6 0 0 1 6.03 5.96l.28 57.4a6 6 0 0 0 6.02 5.97l56.35-.27a2.3 2.3 0 0 1 1.56 4L31.56 242.8a6.67 6.67 0 0 1-8.92.04L-105.7 128.44a2.3 2.3 0 0 1 1.53-4.03l56.35-.26a6 6 0 0 0 5.97-6.02l-.27-57.4a6 6 0 0 1 5.97-6.03z" stroke="#3a414a" stroke-width="2" fill="#e7c568"/></g><g><use xlink:href="#l" transform="matrix(0.9999885753077941,-0.004780089318028116,0.004780089318028116,0.9999885753077941,-105.47376663221186,60.02073049746663) translate(87.81467881944445 84.43402777777777)"/><use xlink:href="#k" transform="matrix(0.9999885753077941,-0.004780089318028116,0.004780089318028116,0.9999885753077941,-105.47376663221186,60.02073049746663) translate(73.60569444444445 111.32204861111111)"/></g><defs><path d="M1216-1011c-1 297-202 441-512 441H361V0H169v-1456h537c297-6 510 164 510 445zm-192 2c1-178-126-288-307-289H361v571h345c196 1 318-92 318-282" id="m"/><path d="M491 20c-241-1-355-148-355-398v-704h185v699c0 164 67 246 200 246 141 0 235-53 282-158v-787h185V0H812l-4-107C736-22 630 20 491 20" id="n"/><path d="M634-1102c292 0 422 254 422 573 0 298-143 547-420 549-137 0-242-48-317-145L310 0H140v-1536h185v573c75-93 178-139 309-139zm-44 965c207 0 281-175 281-413 0-224-79-395-283-395-122 0-210 57-263 170v468c57 113 145 170 265 170" id="o"/><path d="M341 0H156v-1536h185V0" id="p"/><path d="M341 0H156v-1082h185V0zm-91-1264c-68 0-108-42-109-105 0-62 41-107 109-107s110 44 110 107-42 105-110 105" id="q"/><path d="M277-555c0 244 77 420 297 424 127 2 249-93 255-210h175C980-127 805 20 574 20 258 20 81-222 92-562c11-319 164-533 481-540 237-5 426 165 431 392H829c-7-133-115-242-256-240-209 4-296 166-296 395" id="r"/><path d="M561-1102c238-4 403 126 403 351v498c0 99 13 178 38 237V0H808c-11-21-19-59-26-114C696-25 593 20 474 20c-199 0-368-130-365-320 4-251 214-359 490-356h180v-85c-1-135-86-212-229-212-115 0-232 67-233 171H131c20-205 206-316 430-320zM294-326c0 117 90 185 207 185 122 0 239-75 278-162v-222H634c-227 0-340 66-340 199" id="s"/><path d="M456 20C285 20 205-92 206-268v-671H9v-143h197v-262h185v262h202v143H391v671c-9 125 92 149 207 118V0c-49 13-96 20-142 20" id="t"/><path d="M584 20C278 26 81-227 91-551c10-320 175-545 491-551 308-5 503 247 494 573-9 322-175 543-492 549zm-2-970c-208 0-305 185-305 421 0 216 106 398 307 398 211 0 307-186 307-420 0-214-109-399-309-399" id="u"/><path d="M589-945c-131 0-219 81-264 174V0H140v-1082h175l6 136c83-104 191-156 324-156 229 0 346 129 346 387V0H806v-716c-2-153-65-229-217-229" id="v"/><g id="a"><use transform="matrix(0.010850694444444444,0,0,0.010850694444444444,0,0)" xlink:href="#m"/><use transform="matrix(0.010850694444444444,0,0,0.010850694444444444,14.019097222222221,0)" xlink:href="#n"/><use transform="matrix(0.010850694444444444,0,0,0.010850694444444444,26.26953125,0)" xlink:href="#o"/><use transform="matrix(0.010850694444444444,0,0,0.010850694444444444,38.736979166666664,0)" xlink:href="#p"/><use transform="matrix(0.010850694444444444,0,0,0.010850694444444444,44.12977430555555,0)" xlink:href="#q"/><use transform="matrix(0.010850694444444444,0,0,0.010850694444444444,49.522569444444436,0)" xlink:href="#r"/><use transform="matrix(0.010850694444444444,0,0,0.010850694444444444,61.15451388888888,0)" xlink:href="#s"/><use transform="matrix(0.010850694444444444,0,0,0.010850694444444444,73.24218749999999,0)" xlink:href="#t"/><use transform="matrix(0.010850694444444444,0,0,0.010850694444444444,80.50130208333331,0)" xlink:href="#q"/><use transform="matrix(0.010850694444444444,0,0,0.010850694444444444,85.8940972222222,0)" xlink:href="#u"/><use transform="matrix(0.010850694444444444,0,0,0.010850694444444444,98.56770833333331,0)" xlink:href="#v"/></g><path d="M1222-777c17 480-206 763-650 777H169v-1456h411c408 9 627 269 642 679zm-190 4c3-312-149-522-447-525H361v1141h202c308 0 473-209 469-531v-85" id="w"/><path d="M538-131c121 0 232-49 232-156 0-50-20-88-56-117-73-60-334-92-420-143-92-55-162-110-162-238 0-190 192-317 400-317 223 0 414 129 413 338H759c0-108-110-186-227-186-119 0-215 53-215 159 0 45 18 78 53 101 76 52 331 90 416 139 98 57 169 115 169 251C955-92 760 20 538 20c-176 0-314-68-386-174-38-55-57-115-57-179h185c6 129 116 202 258 202" id="x"/><path d="M599-131c141 0 220-65 285-146l113 88C906-50 770 20 589 20 281 21 93-214 93-545c0-223 93-397 233-485 74-48 154-72 240-72 300 2 449 218 445 537v77H278c0 197 129 357 321 357zm227-509c-3-180-88-310-260-310-170 0-264 140-282 310h542" id="y"/><g id="b"><use transform="matrix(0.010850694444444444,0,0,0.010850694444444444,0,0)" xlink:href="#w"/><use transform="matrix(0.010850694444444444,0,0,0.010850694444444444,14.572482638888888,0)" xlink:href="#s"/><use transform="matrix(0.010850694444444444,0,0,0.010850694444444444,26.66015625,0)" xlink:href="#t"/><use transform="matrix(0.010850694444444444,0,0,0.010850694444444444,33.919270833333336,0)" xlink:href="#s"/><use transform="matrix(0.010850694444444444,0,0,0.010850694444444444,46.00694444444444,0)" xlink:href="#o"/><use transform="matrix(0.010850694444444444,0,0,0.010850694444444444,58.47439236111111,0)" xlink:href="#s"/><use transform="matrix(0.010850694444444444,0,0,0.010850694444444444,70.56206597222221,0)" xlink:href="#x"/><use transform="matrix(0.010850694444444444,0,0,0.010850694444444444,82.02039930555554,0)" xlink:href="#y"/></g><path d="M631-137c179 0 314-70 314-231 0-71-25-127-75-166s-141-77-272-115c-165-47-285-106-360-175s-112-154-112-255c0-245 231-397 495-397 206 0 369 89 449 218 43 68 65 142 65 223H942c0-184-129-283-321-283-172 0-299 76-301 236 0 59 26 109 76 150s135 78 256 113c205 59 345 116 436 256 35 53 50 119 50 193-2 256-231 398-507 390C333 12 90-129 80-422h193c0 187 160 285 358 285" id="z"/><path d="M663-916c-163-27-288 18-338 148V0H140v-1082h180l3 125c61-97 147-145 258-145 36 0 63 5 82 14v172" id="A"/><path d="M632-1102c291 0 422 251 422 573 0 297-141 548-419 549-131 0-235-42-310-125v521H140v-1498h169l9 120c75-93 180-140 314-140zm-53 971c207 0 290-180 290-419 0-218-92-395-292-395-112 0-196 50-252 149v517c55 99 140 148 254 148" id="B"/><g id="c"><use transform="matrix(0.010850694444444444,0,0,0.010850694444444444,0,0)" xlink:href="#z"/><use transform="matrix(0.010850694444444444,0,0,0.010850694444444444,13.18359375,0)" xlink:href="#n"/><use transform="matrix(0.010850694444444444,0,0,0.010850694444444444,25.43402777777778,0)" xlink:href="#o"/><use transform="matrix(0.010850694444444444,0,0,0.010850694444444444,37.90147569444444,0)" xlink:href="#x"/><use transform="matrix(0.010850694444444444,0,0,0.010850694444444444,49.35980902777778,0)" xlink:href="#r"/><use transform="matrix(0.010850694444444444,0,0,0.010850694444444444,60.99175347222221,0)" xlink:href="#A"/><use transform="matrix(0.010850694444444444,0,0,0.010850694444444444,68.51128472222221,0)" xlink:href="#q"/><use transform="matrix(0.010850694444444444,0,0,0.010850694444444444,73.9040798611111,0)" xlink:href="#B"/><use transform="matrix(0.010850694444444444,0,0,0.010850694444444444,86.37152777777777,0)" xlink:href="#t"/><use transform="matrix(0.010850694444444444,0,0,0.010850694444444444,93.63064236111111,0)" xlink:href="#q"/><use transform="matrix(0.010850694444444444,0,0,0.010850694444444444,99.02343749999997,0)" xlink:href="#u"/><use transform="matrix(0.010850694444444444,0,0,0.010850694444444444,111.6970486111111,0)" xlink:href="#v"/></g><g id="d"><use transform="matrix(0.010850694444444444,0,0,0.010850694444444444,0,0)" xlink:href="#w"/><use transform="matrix(0.010850694444444444,0,0,0.010850694444444444,14.572482638888888,0)" xlink:href="#s"/><use transform="matrix(0.010850694444444444,0,0,0.010850694444444444,26.66015625,0)" xlink:href="#t"/><use transform="matrix(0.010850694444444444,0,0,0.010850694444444444,33.919270833333336,0)" xlink:href="#s"/><use transform="matrix(0.010850694444444444,0,0,0.010850694444444444,46.00694444444444,0)" xlink:href="#o"/><use transform="matrix(0.010850694444444444,0,0,0.010850694444444444,58.47439236111111,0)" xlink:href="#s"/><use transform="matrix(0.010850694444444444,0,0,0.010850694444444444,70.56206597222221,0)" xlink:href="#x"/><use transform="matrix(0.010850694444444444,0,0,0.010850694444444444,82.02039930555554,0)" xlink:href="#y"/></g><path d="M1161-1018c0 201-122 330-278 388l342 618V0h-206L703-589H361V0H168v-1456h482c310-2 511 139 511 438zm-193 0c0-187-120-280-313-280H361v552h295c179 3 313-101 312-272" id="C"/><g id="e"><use transform="matrix(0.010850694444444444,0,0,0.010850694444444444,0,0)" xlink:href="#C"/><use transform="matrix(0.010850694444444444,0,0,0.010850694444444444,13.682725694444445,0)" xlink:href="#y"/><use transform="matrix(0.010850694444444444,0,0,0.010850694444444444,25.455729166666664,0)" xlink:href="#B"/><use transform="matrix(0.010850694444444444,0,0,0.010850694444444444,37.92317708333333,0)" xlink:href="#p"/><use transform="matrix(0.010850694444444444,0,0,0.010850694444444444,43.315972222222214,0)" xlink:href="#q"/><use transform="matrix(0.010850694444444444,0,0,0.010850694444444444,48.7087673611111,0)" xlink:href="#r"/><use transform="matrix(0.010850694444444444,0,0,0.010850694444444444,60.34071180555554,0)" xlink:href="#s"/><use transform="matrix(0.010850694444444444,0,0,0.010850694444444444,72.42838541666666,0)" xlink:href="#t"/><use transform="matrix(0.010850694444444444,0,0,0.010850694444444444,79.68749999999999,0)" xlink:href="#q"/><use transform="matrix(0.010850694444444444,0,0,0.010850694444444444,85.08029513888887,0)" xlink:href="#u"/><use transform="matrix(0.010850694444444444,0,0,0.010850694444444444,97.75390624999997,0)" xlink:href="#v"/></g><path d="M497-251l268-831h189L566 0H425L33-1082h189" id="D"/><g id="f"><use transform="matrix(0.010850694444444444,0,0,0.010850694444444444,0,0)" xlink:href="#z"/><use transform="matrix(0.010850694444444444,0,0,0.010850694444444444,13.18359375,0)" xlink:href="#y"/><use transform="matrix(0.010850694444444444,0,0,0.010850694444444444,24.95659722222222,0)" xlink:href="#A"/><use transform="matrix(0.010850694444444444,0,0,0.010850694444444444,32.67144097222222,0)" xlink:href="#D"/><use transform="matrix(0.010850694444444444,0,0,0.010850694444444444,43.29427083333333,0)" xlink:href="#y"/><use transform="matrix(0.010850694444444444,0,0,0.010850694444444444,55.06727430555556,0)" xlink:href="#A"/></g><g id="g"><use transform="matrix(0.010850694444444444,0,0,0.010850694444444444,0,0)" xlink:href="#m"/><use transform="matrix(0.010850694444444444,0,0,0.010850694444444444,14.019097222222221,0)" xlink:href="#n"/><use transform="matrix(0.010850694444444444,0,0,0.010850694444444444,26.26953125,0)" xlink:href="#o"/><use transform="matrix(0.010850694444444444,0,0,0.010850694444444444,38.736979166666664,0)" xlink:href="#p"/><use transform="matrix(0.010850694444444444,0,0,0.010850694444444444,44.12977430555555,0)" xlink:href="#q"/><use transform="matrix(0.010850694444444444,0,0,0.010850694444444444,49.522569444444436,0)" xlink:href="#r"/><use transform="matrix(0.010850694444444444,0,0,0.010850694444444444,61.15451388888888,0)" xlink:href="#s"/><use transform="matrix(0.010850694444444444,0,0,0.010850694444444444,73.24218749999999,0)" xlink:href="#t"/><use transform="matrix(0.010850694444444444,0,0,0.010850694444444444,80.50130208333331,0)" xlink:href="#q"/><use transform="matrix(0.010850694444444444,0,0,0.010850694444444444,85.8940972222222,0)" xlink:href="#u"/><use transform="matrix(0.010850694444444444,0,0,0.010850694444444444,98.56770833333331,0)" xlink:href="#v"/></g><g id="h"><use transform="matrix(0.010850694444444444,0,0,0.010850694444444444,0,0)" xlink:href="#w"/><use transform="matrix(0.010850694444444444,0,0,0.010850694444444444,14.572482638888888,0)" xlink:href="#s"/><use transform="matrix(0.010850694444444444,0,0,0.010850694444444444,26.66015625,0)" xlink:href="#t"/><use transform="matrix(0.010850694444444444,0,0,0.010850694444444444,33.919270833333336,0)" xlink:href="#s"/><use transform="matrix(0.010850694444444444,0,0,0.010850694444444444,46.00694444444444,0)" xlink:href="#o"/><use transform="matrix(0.010850694444444444,0,0,0.010850694444444444,58.47439236111111,0)" xlink:href="#s"/><use transform="matrix(0.010850694444444444,0,0,0.010850694444444444,70.56206597222221,0)" xlink:href="#x"/><use transform="matrix(0.010850694444444444,0,0,0.010850694444444444,82.02039930555554,0)" xlink:href="#y"/></g><path d="M520 20C244 20 95-247 95-550c0-298 151-550 427-552 127 0 227 43 301 130v-564h185V0H838l-9-116C755-25 652 20 520 20zm48-965c-210 0-288 177-288 416 0 218 87 392 286 392 117 0 203-53 257-158v-497c-55-102-140-153-255-153" id="E"/><path d="M494-271l252-811h198L509 167C425 381 299 474 84 421V271c167 16 242-37 283-173l41-110L22-1082h202" id="F"/><g id="i"><use transform="matrix(0.010850694444444444,0,0,0.010850694444444444,0,0)" xlink:href="#z"/><use transform="matrix(0.010850694444444444,0,0,0.010850694444444444,13.18359375,0)" xlink:href="#t"/><use transform="matrix(0.010850694444444444,0,0,0.010850694444444444,20.442708333333332,0)" xlink:href="#s"/><use transform="matrix(0.010850694444444444,0,0,0.010850694444444444,32.53038194444444,0)" xlink:href="#v"/><use transform="matrix(0.010850694444444444,0,0,0.010850694444444444,44.791666666666664,0)" xlink:href="#E"/><use transform="matrix(0.010850694444444444,0,0,0.010850694444444444,57.32421875,0)" xlink:href="#o"/><use transform="matrix(0.010850694444444444,0,0,0.010850694444444444,69.67230902777779,0)" xlink:href="#F"/></g><path d="M180 0v-1490h190v1322h690V0H180" id="G"/><path d="M613 24c-304 0-509-231-509-576 0-350 205-580 509-580 305 0 511 230 511 580 0 345-206 576-511 576zm0-161c226 0 329-195 329-415 0-222-103-419-329-419-223 0-326 196-326 419 0 220 103 415 326 415" id="H"/><path d="M611 442c-248 0-391-105-460-228l146-94c47 65 117 165 314 165 178 0 307-82 307-266v-224h-17C863-141 792-18 576-18c-268 0-472-195-472-546 0-346 197-568 476-568 216 0 288 133 326 193h17v-179h175V29c0 289-215 413-487 413zm-5-620c203 0 314-146 314-390 0-237-108-403-314-403-213 0-319 180-319 403 0 230 109 390 319 390" id="I"/><path d="M158 0v-1118h180V0H158zm91-1301c-68 0-125-53-125-119s57-119 125-119c69 0 126 53 126 119s-57 119-126 119" id="J"/><path d="M613 24c-304 0-509-231-509-576 0-350 205-580 509-580 216 0 392 114 453 309l-173 49c-33-115-133-197-280-197-223 0-326 196-326 419 0 220 103 415 326 415 150 0 252-85 285-206l172 49C1010-95 832 24 613 24" id="K"/><path d="M471 26C259 26 90-98 90-318c0-256 228-303 435-329 202-27 287-16 287-108 0-139-79-219-234-219-161 0-248 86-283 164l-173-57c86-203 278-265 451-265 150 0 419 46 419 395V0H815v-152h-12C765-73 660 26 471 26zm31-159c199 0 310-134 310-271v-155c-30 35-226 55-295 64-131 17-246 59-246 186 0 116 97 176 231 176" id="L"/><path d="M338-1490V0H158v-1490h180" id="M"/><g id="j"><use transform="matrix(0.010850694444444444,0,0,0.010850694444444444,0,0)" xlink:href="#G"/><use transform="matrix(0.010850694444444444,0,0,0.010850694444444444,12.565104166666666,0)" xlink:href="#H"/><use transform="matrix(0.010850694444444444,0,0,0.010850694444444444,25.889756944444443,0)" xlink:href="#I"/><use transform="matrix(0.010850694444444444,0,0,0.010850694444444444,39.518229166666664,0)" xlink:href="#J"/><use transform="matrix(0.010850694444444444,0,0,0.010850694444444444,44.90017361111111,0)" xlink:href="#K"/><use transform="matrix(0.010850694444444444,0,0,0.010850694444444444,57.812499999999986,0)" xlink:href="#L"/><use transform="matrix(0.010850694444444444,0,0,0.010850694444444444,70.2907986111111,0)" xlink:href="#M"/></g><path d="M180 0v-1490h510c348 0 508 194 508 460 0 198-88 351-276 417L1256 0h-220L726-579c-117 2-238 0-356 1V0H180zm190-747h312c235 0 327-108 327-283 0-177-92-293-329-293H370v576" id="N"/><path d="M628 24c-324 0-524-230-524-574 0-343 198-582 503-582 237 0 487 146 487 559v75H286c9 234 145 362 343 362 132 0 231-58 273-172l174 48C1024-91 857 24 628 24zM287-650h624c-17-190-120-322-304-322-192 0-309 151-320 322" id="O"/><path d="M158 418v-1536h174v179h20c37-59 106-193 324-193 279 0 474 222 474 576 0 356-194 580-473 580-213 0-288-135-325-197h-14v591H158zm492-555c209 0 317-186 317-421 0-232-105-413-317-413-206 0-314 166-314 413 0 249 111 421 314 421" id="P"/><path d="M598-1118v154H368v674c0 100 37 144 132 144 23 0 62-6 92-12L629-6c-37 13-88 20-134 20-193 0-307-107-307-290v-688H20v-154h168v-266h180v266h230" id="Q"/><path d="M338-670V0H158v-1118h173l1 207c72-158 192-221 342-221 226 0 378 139 378 422V0H872v-695c0-172-96-275-252-275-161 0-282 109-282 300" id="R"/><g id="k"><use transform="matrix(0.010850694444444444,0,0,0.010850694444444444,0,0)" xlink:href="#N"/><use transform="matrix(0.010850694444444444,0,0,0.010850694444444444,13.975694444444445,0)" xlink:href="#O"/><use transform="matrix(0.010850694444444444,0,0,0.010850694444444444,26.931423611111104,0)" xlink:href="#P"/><use transform="matrix(0.010850694444444444,0,0,0.010850694444444444,40.53819444444444,0)" xlink:href="#M"/><use transform="matrix(0.010850694444444444,0,0,0.010850694444444444,45.920138888888886,0)" xlink:href="#J"/><use transform="matrix(0.010850694444444444,0,0,0.010850694444444444,51.30208333333333,0)" xlink:href="#K"/><use transform="matrix(0.010850694444444444,0,0,0.010850694444444444,64.21440972222221,0)" xlink:href="#L"/><use transform="matrix(0.010850694444444444,0,0,0.010850694444444444,76.69270833333333,0)" xlink:href="#Q"/><use transform="matrix(0.010850694444444444,0,0,0.010850694444444444,83.9626736111111,0)" xlink:href="#J"/><use transform="matrix(0.010850694444444444,0,0,0.010850694444444444,89.34461805555556,0)" xlink:href="#H"/><use transform="matrix(0.010850694444444444,0,0,0.010850694444444444,102.66927083333331,0)" xlink:href="#R"/></g><path d="M180 0v-1490h510c348 0 508 209 508 474 0 266-160 477-507 477H370V0H180zm190-706h312c236 0 327-133 327-310 0-176-91-307-329-307H370v617" id="S"/><path d="M338-670V0H158v-1490h180v566c73-149 190-208 336-208 226 0 379 139 379 422V0H872v-695c0-172-96-275-252-275-161 0-282 109-282 300" id="T"/><path d="M140 405l46-156c120 36 205 19 263-150l32-93L54-1118h197c107 313 237 620 324 950 87-331 219-637 326-950h196L606 167c-68 178-176 259-334 259-64 0-113-12-132-21" id="U"/><path d="M538 24C308 24 148-78 108-271l171-41c32 123 123 178 257 178 156 0 256-77 256-169 0-77-54-128-164-154l-186-44c-203-48-300-148-300-305 0-192 176-326 414-326 230 0 351 112 402 269l-163 42c-31-80-94-158-238-158-133 0-233 69-233 162 0 83 57 129 188 160l169 40c203 48 298 149 298 302 0 196-179 339-441 339" id="V"/><g id="l"><use transform="matrix(0.010850694444444444,0,0,0.010850694444444444,0,0)" xlink:href="#S"/><use transform="matrix(0.010850694444444444,0,0,0.010850694444444444,14.192708333333332,0)" xlink:href="#T"/><use transform="matrix(0.010850694444444444,0,0,0.010850694444444444,27.00737847222222,0)" xlink:href="#U"/><use transform="matrix(0.010850694444444444,0,0,0.010850694444444444,39.49652777777778,0)" xlink:href="#V"/><use transform="matrix(0.010850694444444444,0,0,0.010850694444444444,51.22612847222222,0)" xlink:href="#J"/><use transform="matrix(0.010850694444444444,0,0,0.010850694444444444,56.608072916666664,0)" xlink:href="#K"/><use transform="matrix(0.010850694444444444,0,0,0.010850694444444444,69.52039930555554,0)" xlink:href="#L"/><use transform="matrix(0.010850694444444444,0,0,0.010850694444444444,81.99869791666666,0)" xlink:href="#M"/></g></defs></g></svg>