<svg xmlns="http://www.w3.org/2000/svg" xmlns:xlink="http://www.w3.org/1999/xlink" xmlns:lucid="lucid" width="898.36" height="862"><g transform="translate(-379 -274.83868299350127)" lucid:page-tab-id="0_0"><path d="M636.36 281.84a6 6 0 0 1 6-6h628a6 6 0 0 1 6 6v848a6 6 0 0 1-6 6h-628a6 6 0 0 1-6-6z" stroke="#000" stroke-width="2" fill="#f2f3f5"/><use xlink:href="#a" transform="matrix(1,0,0,1,641.3636363636363,280.83868299350127) translate(0 21.52777777777778)"/><use xlink:href="#b" transform="matrix(1,0,0,1,641.3636363636363,280.83868299350127) translate(78.64583333333333 21.52777777777778)"/><path d="M672.73 331a6 6 0 0 1 6-6H1234a6 6 0 0 1 6 6v208a6 6 0 0 1-6 6H678.73a6 6 0 0 1-6-6z" stroke="#000" stroke-width="2" fill="#ced4db"/><use xlink:href="#c" transform="matrix(1,0,0,1,677.7272727272727,330) translate(0 21.52777777777778)"/><path d="M672.73 586a6 6 0 0 1 6-6H1234a6 6 0 0 1 6 6v208a6 6 0 0 1-6 6H678.73a6 6 0 0 1-6-6z" stroke="#000" stroke-width="2" fill="#ced4db"/><use xlink:href="#d" transform="matrix(1,0,0,1,677.7272727272727,585) translate(0 21.52777777777778)"/><path d="M672.73 866a6 6 0 0 1 6-6H1234a6 6 0 0 1 6 6v208a6 6 0 0 1-6 6H678.73a6 6 0 0 1-6-6z" stroke="#000" stroke-width="2" fill="#ced4db"/><use xlink:href="#e" transform="matrix(1,0,0,1,677.7272727272727,865) translate(0 21.52777777777778)"/><path d="M840 376a6 6 0 0 1 6-6h188a6 6 0 0 1 6 6v118a6 6 0 0 1-6 6H846a6 6 0 0 1-6-6z" stroke="#008a0e" stroke-width="2" fill="#54c45e"/><use xlink:href="#f" transform="matrix(1,0,0,1,845,375) translate(105.81380208333334 51.52777777777778)"/><use xlink:href="#g" transform="matrix(1,0,0,1,845,375) translate(118.18901909722223 83.79340277777777)"/><path d="M840 911a6 6 0 0 1 6-6h188a6 6 0 0 1 6 6v118a6 6 0 0 1-6 6H846a6 6 0 0 1-6-6z" stroke="#000" stroke-width="2" fill="#dedeff"/><use xlink:href="#f" transform="matrix(1,0,0,1,845,910) translate(105.81380208333334 51.52777777777778)"/><use xlink:href="#h" transform="matrix(1,0,0,1,845,910) translate(115.47092013888889 83.79340277777777)"/><path d="M840 626a6 6 0 0 1 6-6h188a6 6 0 0 1 6 6v118a6 6 0 0 1-6 6H846a6 6 0 0 1-6-6z" stroke="#000" stroke-width="2" fill="#dedeff"/><use xlink:href="#f" transform="matrix(1,0,0,1,845,625) translate(105.81380208333334 51.52777777777778)"/><use xlink:href="#i" transform="matrix(1,0,0,1,845,625) translate(115.55772569444444 83.79340277777777)"/><path d="M800 381a6 6 0 0 1 6-6h28a6 6 0 0 1 6 6v108a6 6 0 0 1-6 6h-28a6 6 0 0 1-6-6z" stroke="#000" stroke-width="2" fill="#54c45e"/><use xlink:href="#j" transform="matrix(-1.8369701987210297e-16,-1,1,-1.8369701987210297e-16,812,482.9999999999999) translate(16.3700992435292 10.251615519451638)"/><use xlink:href="#k" transform="matrix(-1.8369701987210297e-16,-1,1,-1.8369701987210297e-16,812,482.9999999999999) translate(53.02840216323722 10.251615519451638)"/><path d="M800 631a6 6 0 0 1 6-6h28a6 6 0 0 1 6 6v108a6 6 0 0 1-6 6h-28a6 6 0 0 1-6-6z" stroke="#000" stroke-width="2" fill="#6db1ff"/><use xlink:href="#j" transform="matrix(-1.8369701987210297e-16,-1,1,-1.8369701987210297e-16,812,733.0000000000001) translate(16.3700992435292 10.251615519451638)"/><use xlink:href="#k" transform="matrix(-1.8369701987210297e-16,-1,1,-1.8369701987210297e-16,812,733.0000000000001) translate(53.02840216323722 10.251615519451638)"/><path d="M800 916a6 6 0 0 1 6-6h28a6 6 0 0 1 6 6v108a6 6 0 0 1-6 6h-28a6 6 0 0 1-6-6z" stroke="#000" stroke-width="2" fill="#6db1ff"/><use xlink:href="#j" transform="matrix(-1.8369701987210297e-16,-1,1,-1.8369701987210297e-16,812,1018) translate(16.3700992435292 10.251615519451638)"/><use xlink:href="#k" transform="matrix(-1.8369701987210297e-16,-1,1,-1.8369701987210297e-16,812,1018) translate(53.02840216323722 10.251615519451638)"/><path d="M380 367.33a6 6 0 0 1 6-6h148a6 6 0 0 1 6 6v108a6 6 0 0 1-6 6H386a6 6 0 0 1-6-6z" stroke="#000" stroke-width="2" fill="#d7faf5"/><use xlink:href="#l" transform="matrix(1,0,0,1,392,373.33332932095306) translate(46.72721354166667 57.52777777777778)"/><path d="M543 421.33h126.7a.3.3 0 0 1 .3.3.3.3 0 0 0 .3.32h105.96" stroke="#3a414a" stroke-width="4" fill="none"/><path d="M543.05 423.3H541v-3.94h2.05z" stroke="#3a414a" stroke-width=".05" fill="#3a414a"/><path d="M792.53 421.95l-14.27 4.64v-9.28z" stroke="#3a414a" stroke-width="4" fill="#3a414a"/><path d="M380 631a6 6 0 0 1 6-6h148a6 6 0 0 1 6 6v108a6 6 0 0 1-6 6H386a6 6 0 0 1-6-6z" stroke="#000" stroke-width="2" fill="#d7faf5"/><use xlink:href="#l" transform="matrix(1,0,0,1,392,637) translate(46.72721354166667 57.52777777777778)"/><path d="M543 684h126.98a.02.02 0 0 1 .02.02.02.02 0 0 0 .02.02h106.24" stroke="#3a414a" stroke-width="4" fill="none"/><path d="M543.05 685.98H541V682h2.05z" stroke="#3a414a" stroke-width=".05" fill="#3a414a"/><path d="M792.53 684.04l-14.27 4.64v-9.27z" stroke="#3a414a" stroke-width="4" fill="#3a414a"/><path d="M797 650.96h-31a6 6 0 0 1-6-6v-169.9a6 6 0 0 1 6-6h10.26" stroke="#6db1ff" stroke-width="4" fill="none"/><path d="M799 652.93h-2.05v-3.95H799z" stroke="#6db1ff" stroke-width=".05" fill="#6db1ff"/><path d="M792.53 469.05l-14.27 4.63v-9.27z" stroke="#6db1ff" stroke-width="4" fill="#6db1ff"/><path d="M380 916a6 6 0 0 1 6-6h148a6 6 0 0 1 6 6v108a6 6 0 0 1-6 6H386a6 6 0 0 1-6-6z" stroke="#000" stroke-width="2" fill="#d7faf5"/><use xlink:href="#l" transform="matrix(1,0,0,1,392,922) translate(46.72721354166667 57.52777777777778)"/><path d="M543 970h233.26" stroke="#3a414a" stroke-width="4" fill="none"/><path d="M543.05 971.98H541V968h2.05z" stroke="#3a414a" stroke-width=".05" fill="#3a414a"/><path d="M792.53 970l-14.27 4.63v-9.26z" stroke="#3a414a" stroke-width="4" fill="#3a414a"/><path d="M797 941.36h-51a6 6 0 0 1-6-6V454.68a6 6 0 0 1 6-6h30.26" stroke="#6db1ff" stroke-width="4" fill="none"/><path d="M799 943.34h-2.05v-3.95H799z" stroke="#6db1ff" stroke-width=".05" fill="#6db1ff"/><path d="M792.53 448.68l-14.27 4.64v-9.27z" stroke="#6db1ff" stroke-width="4" fill="#6db1ff"/><path d="M1059.64 434.47l.12.05 1.93.8 1.9.9 1.93 1 1.9 1.1 1.9 1.22 1.9 1.32 1.92 1.45 1.9 1.6 1.94 1.74 1.93 1.9 1.95 2.07 1.96 2.3 2 2.5 1.98 2.74 2 3.02 2.02 3.33 2 3.65 2.02 4.05 1.98 4.45 1.94 4.9 1.88 5.4 1.78 5.9 1.64 6.43 1.48 6.95 1.26 7.45 1 7.9.68 8.22.36 8.45v8.52l-.36 8.45-.7 8.23-.98 7.88-1.26 7.45-1.48 6.96-1.65 6.42-1.78 5.9-1.87 5.4-1.94 4.9-2 4.45-2 4.06-2 3.66-2.02 3.33-2 3.02-2 2.74-1.98 2.5-1.97 2.3-1.95 2.07-1.94 1.9-1.92 1.73-1.92 1.6-1.9 1.44-1.9 1.32-1.9 1.2-1.92 1.1-1.9 1-1.93.9-1.94.83-.12.03" stroke="#3a414a" stroke-width="4" stroke-linejoin="round" fill="none"/><path d="M1059.3 443.05l.76.35 1.6.84 1.62.94 1.62 1.02 1.63 1.14 1.65 1.24 1.65 1.38 1.68 1.5 1.7 1.67 1.73 1.84 1.75 2.02 1.77 2.23 1.8 2.47 1.82 2.75 1.84 3.04 1.86 3.36 1.86 3.74 1.84 4.15 1.82 4.6 1.77 5.07 1.68 5.58 1.56 6.1 1.4 6.63 1.2 7.12.95 7.55.67 7.9.34 8.1v8.2l-.34 8.12-.67 7.9-.95 7.55-1.2 7.12-1.4 6.6-1.58 6.12-1.68 5.58-1.76 5.07-1.82 4.6-1.85 4.14-1.84 3.75-1.86 3.37-1.84 3.04-1.82 2.74-1.8 2.48-1.77 2.23-1.74 2.04-1.73 1.83-1.7 1.67-1.67 1.5-1.66 1.38-1.64 1.25-1.63 1.13-1.62 1.03-1.62.93-1.6.84-.75.35" stroke="#3a414a" stroke-width="4" stroke-linejoin="round" fill="none"/><path d="M1044.92 435.8l14.22-4.78-2.97 14.7zM1044.92 647.2l11.25-9.92 2.97 14.7z" stroke="#3a414a" stroke-width="4" fill="#3a414a"/><path d="M1059.5 962.64l.54-.2 1.95-.82 1.94-.92 1.94-1 1.94-1.13 1.95-1.24 1.96-1.36 1.97-1.5 2-1.65 2-1.8 2.04-2 2.06-2.2 2.1-2.43 2.12-2.7 2.15-2.95 2.18-3.28 2.2-3.63 2.2-4.03 2.22-4.46 2.2-4.95 2.17-5.5 2.1-6.03 2-6.66 1.88-7.26 1.67-7.9 1.42-8.47 1.14-9 .8-9.38.4-9.67v-9.75l-.42-9.66-.78-9.4-1.14-8.98-1.43-8.48-1.7-7.9-1.85-7.26-2-6.65-2.1-6.05-2.18-5.47-2.2-4.95-2.22-4.47-2.2-4-2.2-3.64-2.18-3.28-2.16-2.96-2.1-2.68-2.1-2.43-2.07-2.18-2.03-2-2-1.8-2-1.66-1.98-1.5-1.96-1.36-1.94-1.24-1.95-1.12-1.94-1-1.95-.93-1.95-.8-.53-.2" stroke="#3a414a" stroke-width="4" stroke-linejoin="round" fill="none"/><path d="M1059.76 971.03l.94-.3 2.28-.85 2.26-.95 2.25-1.06 2.23-1.17 2.24-1.3 2.23-1.4 2.23-1.56 2.24-1.7 2.25-1.86 2.26-2.04 2.28-2.23 2.3-2.43 2.3-2.68 2.33-2.96 2.34-3.23 2.36-3.55 2.38-3.92 2.37-4.32 2.36-4.75 2.35-5.26 2.3-5.8 2.2-6.36 2.1-6.98 1.96-7.6 1.75-8.2 1.5-8.82 1.17-9.32.8-9.73.43-10v-10.1l-.42-9.98-.82-9.73-1.16-9.33-1.5-8.8-1.74-8.22-1.95-7.6-2.1-6.97-2.2-6.36-2.3-5.8-2.34-5.25-2.36-4.76-2.37-4.3-2.37-3.93-2.36-3.56-2.35-3.22-2.34-2.94-2.3-2.68-2.3-2.44-2.28-2.23-2.27-2.05-2.23-1.86-2.24-1.7-2.24-1.56-2.24-1.42-2.23-1.3-2.24-1.16-2.26-1.06-2.26-.95-2.3-.85-.92-.3" stroke="#3a414a" stroke-width="4" stroke-linejoin="round" fill="none"/><path d="M1044.95 969.34l11.56-9.56 2.5 14.8zM1044.94 718l14.06-5.24-2.5 14.8z" stroke="#3a414a" stroke-width="4" fill="#3a414a"/><path d="M1174.9 736.4l-2.05 51.3-2.87 34.6-3.26 26-3.46 20.57-3.56 16.76-3.58 13.98-3.56 11.85-3.54 10.18-3.5 8.85-3.45 7.75-3.4 6.86-3.36 6.1-3.3 5.5-3.3 4.93-3.24 4.48-3.23 4.08-3.2 3.73-3.22 3.43-3.2 3.14-3.22 2.9-3.24 2.68-3.27 2.48-3.3 2.3-3.35 2.12-3.42 1.97-3.5 1.83-3.56 1.68-3.67 1.54-3.8 1.4-3.92 1.3-4.08 1.13-4.26 1-4.45.85-1.42.2-.58-3.9 1.34-.2 4.3-.82 4.1-.96 3.9-1.1 3.78-1.22 3.63-1.35 3.53-1.48 3.43-1.6 3.34-1.76 3.27-1.9 3.2-2.03 3.18-2.2 3.14-2.38 3.1-2.57 3.1-2.8 3.08-3.02 3.1-3.3 3.1-3.6 3.13-3.94 3.17-4.35 3.2-4.8 3.22-5.34 3.26-5.97 3.33-6.7 3.38-7.6 3.43-8.7 3.5-10.02 3.52-11.7 3.54-13.8 3.52-16.6 3.43-20.4 3.25-25.85 2.85-34.43 2.06-51.17.17-17.6h3.95zm-114.1-338.3l4.9.82 4.62.98 4.4 1.13 4.2 1.26 4 1.4 3.87 1.52 3.72 1.66 3.6 1.8 3.53 1.92 3.42 2.08 3.36 2.23 3.3 2.4 3.23 2.57 3.2 2.77 3.18 2.98 3.15 3.22 3.13 3.5 3.14 3.78 3.14 4.14 3.16 4.53 3.16 4.98 3.2 5.53 3.2 6.16 3.25 6.9 3.27 7.8 3.3 8.88 3.32 10.24 3.34 11.96 3.3 14.18 3.27 17.15 3.13 21.33 2.88 27.66 2.4 38.74 1.02 56.9h-3.95l-1.03-56.75-2.37-38.56-2.87-27.5-3.1-21.17-3.23-17-3.28-14-3.3-11.8-3.26-10.1-3.23-8.73-3.2-7.64-3.2-6.75-3.12-6-3.1-5.37-3.08-4.85-3.06-4.4-3.03-4-3.03-3.67-3.03-3.36-3.02-3.1-3.06-2.87-3.08-2.65-3.1-2.47-3.17-2.3-3.22-2.13-3.28-2-3.37-1.85-3.46-1.72-3.58-1.6-3.7-1.46-3.87-1.35-4.05-1.22-4.23-1.08-4.46-.95-4.73-.8-.6-.07.5-3.92z" stroke="#3a414a" stroke-width=".05" fill="#3a414a"/><path d="M1182.9 736.6l-2.07 51.6-2.9 34.93-3.3 26.34-3.5 20.9-3.63 17.08-3.67 14.3-3.66 12.17-3.65 10.5-3.62 9.15-3.6 8.07-3.54 7.16-3.52 6.4-3.5 5.77-3.46 5.22-3.44 4.74-3.44 4.34-3.44 3.98-3.43 3.66-3.45 3.38-3.47 3.12-3.5 2.9-3.52 2.68-3.58 2.5-3.64 2.3-3.7 2.14-3.8 1.97-3.87 1.84-4 1.67-4.1 1.54-4.24 1.38-4.4 1.23-4.6 1.07-4.78.92-2.58.38-.58-3.9 2.5-.38 4.63-.88 4.43-1.04 4.24-1.18 4.1-1.33 3.94-1.46 3.83-1.6 3.72-1.76 3.63-1.9 3.57-2.06 3.5-2.22 3.44-2.4 3.4-2.58 3.37-2.8 3.34-3 3.33-3.26 3.33-3.54 3.32-3.86 3.34-4.2 3.34-4.62 3.37-5.1 3.42-5.6 3.44-6.27 3.47-7 3.52-7.93 3.56-9 3.6-10.34 3.63-12 3.62-14.15 3.6-16.93 3.48-20.73 3.28-26.18 2.9-34.76 2.06-51.46.17-17.8h3.95zM1062 390.17l5.22.9 4.95 1.04 4.72 1.22 4.5 1.36 4.34 1.5 4.2 1.66 4.02 1.8 3.92 1.94 3.8 2.1 3.72 2.24 3.63 2.42 3.56 2.6 3.5 2.77 3.46 3 3.42 3.2 3.4 3.46 3.35 3.74 3.34 4.05 3.34 4.4 3.34 4.8 3.35 5.3 3.35 5.8 3.37 6.45 3.38 7.2 3.4 8.1 3.42 9.2 3.43 10.57 3.42 12.28 3.4 14.5 3.3 17.5 3.2 21.65 2.9 28 2.4 39.08 1.05 57.22h-3.95l-1.03-57.06-2.4-38.9-2.9-27.85-3.15-21.5-3.3-17.32-3.35-14.35-3.38-12.12-3.37-10.4-3.36-9.04-3.33-7.95-3.32-7.04-3.3-6.3-3.26-5.68-3.27-5.13-3.24-4.67-3.26-4.27-3.24-3.92-3.25-3.6-3.28-3.35-3.3-3.1-3.32-2.88-3.38-2.68-3.43-2.5-3.5-2.3-3.57-2.17-3.66-2.02-3.76-1.87-3.88-1.7-4.02-1.6-4.18-1.46-4.36-1.32-4.55-1.17-4.8-1-5.05-.87-1.67-.2.5-3.93z" stroke="#3a414a" stroke-width=".05" fill="#3a414a"/><path d="M1058.5 1015.56l-13.5-6.52 12.4-8.44z" fill="#3a414a"/><path d="M1060.72 1018.83l-19.67-9.5 18.06-12.3zm-11.8-10.08l7.36 3.54-.6-8.14z" stroke="#3a414a" stroke-width=".05" fill="#3a414a"/><path d="M1057.45 403.3l-12.46-8.37 13.45-6.6z" fill="#3a414a"/><path d="M1059.2 406.83l-18.15-12.16 19.6-9.63zm-10.27-11.63l6.78 4.54.56-8.14z" stroke="#3a414a" stroke-width=".05" fill="#3a414a"/><use xlink:href="#m" transform="matrix(1,0,0,1,1136.4365075217036,683.1981081943228) translate(0 12.916666666666668)"/><use xlink:href="#n" transform="matrix(1,0,0,1,1136.4365075217036,683.1981081943228) translate(4.412552083333338 32.27604166666667)"/><path d="M916.26 997.74c0 5.13-13.27 9.3-29.63 9.3s-29.63-4.17-29.63-9.3c0-5.13 13.27-9.3 29.63-9.3s29.63 4.17 29.63 9.3z" stroke="#3a414a" stroke-width="2" fill="#fff"/><path d="M857 985.16a6 6 0 0 1 6-6h47.26a6 6 0 0 1 6 6v6.58a6 6 0 0 1-6 6H863a6 6 0 0 1-6-6z" stroke="#fff" stroke-width="2" fill="#fff"/><path d="M916.26 979.16c0 5.13-13.27 9.3-29.63 9.3s-29.63-4.17-29.63-9.3c0-5.13 13.27-9.28 29.63-9.28s29.63 4.15 29.63 9.28z" stroke="#3a414a" stroke-width="2" fill="#fff"/><path d="M857 966.6a6 6 0 0 1 6-6h47.26a6 6 0 0 1 6 6v6.56a6 6 0 0 1-6 6H863a6 6 0 0 1-6-6z" stroke="#fff" stroke-width="2" fill="#fff"/><path d="M916.26 960.6c0 5.12-13.27 9.28-29.63 9.28s-29.63-4.16-29.63-9.3c0-5.12 13.27-9.28 29.63-9.28s29.63 4.16 29.63 9.3z" stroke="#3a414a" stroke-width="2" fill="#fff"/><path d="M857 948.84a6 6 0 0 1 6-6h47.26a6 6 0 0 1 6 6v6.57a6 6 0 0 1-6 6H863a6 6 0 0 1-6-6z" stroke="#fff" stroke-width="2" fill="#fff"/><path d="M916.26 942c0 5.14-13.27 9.3-29.63 9.3S857 947.14 857 942c0-5.12 13.27-9.27 29.63-9.27s29.63 4.15 29.63 9.28z" stroke="#3a414a" stroke-width="2" fill="#fff"/><path d="M857 942.56v54.4M916.26 942.68v54.4" stroke="#3a414a" stroke-width="2" stroke-linecap="round" fill="none"/><path d="M866.17 956.7c0 1.83-1.14 3.32-2.55 3.32-1.4 0-2.55-1.5-2.55-3.32 0-1.83 1.14-3.32 2.55-3.32 1.4 0 2.55 1.5 2.55 3.32zM866.17 974.93c0 1.84-1.14 3.32-2.55 3.32-1.4 0-2.55-1.48-2.55-3.32 0-1.83 1.14-3.32 2.55-3.32 1.4 0 2.55 1.5 2.55 3.33zM866.17 994.42c0 1.83-1.14 3.32-2.55 3.32-1.4 0-2.55-1.5-2.55-3.32 0-1.83 1.14-3.32 2.55-3.32 1.4 0 2.55 1.5 2.55 3.32z" stroke="#000" stroke-width="2"/><path d="M916.26 462.74c0 5.13-13.27 9.3-29.63 9.3s-29.63-4.17-29.63-9.3c0-5.13 13.27-9.3 29.63-9.3s29.63 4.17 29.63 9.3z" stroke="#3a414a" stroke-width="2" fill="#fff"/><path d="M857 450.16a6 6 0 0 1 6-6h47.26a6 6 0 0 1 6 6v6.58a6 6 0 0 1-6 6H863a6 6 0 0 1-6-6z" stroke="#fff" stroke-width="2" fill="#fff"/><path d="M916.26 444.16c0 5.13-13.27 9.3-29.63 9.3s-29.63-4.17-29.63-9.3c0-5.13 13.27-9.28 29.63-9.28s29.63 4.16 29.63 9.28z" stroke="#3a414a" stroke-width="2" fill="#fff"/><path d="M857 431.6a6 6 0 0 1 6-6h47.26a6 6 0 0 1 6 6v6.56a6 6 0 0 1-6 6H863a6 6 0 0 1-6-6z" stroke="#fff" stroke-width="2" fill="#fff"/><path d="M916.26 425.6c0 5.12-13.27 9.28-29.63 9.28s-29.63-4.16-29.63-9.3c0-5.12 13.27-9.28 29.63-9.28s29.63 4.16 29.63 9.3z" stroke="#3a414a" stroke-width="2" fill="#fff"/><path d="M857 413.84a6 6 0 0 1 6-6h47.26a6 6 0 0 1 6 6v6.58a6 6 0 0 1-6 6H863a6 6 0 0 1-6-6z" stroke="#fff" stroke-width="2" fill="#fff"/><path d="M916.26 407c0 5.14-13.27 9.3-29.63 9.3S857 412.14 857 407c0-5.12 13.27-9.27 29.63-9.27s29.63 4.15 29.63 9.28z" stroke="#3a414a" stroke-width="2" fill="#fff"/><path d="M857 407.56v54.4M916.26 407.68v54.4" stroke="#3a414a" stroke-width="2" stroke-linecap="round" fill="none"/><path d="M866.17 421.7c0 1.84-1.14 3.32-2.55 3.32-1.4 0-2.55-1.48-2.55-3.32 0-1.83 1.14-3.32 2.55-3.32 1.4 0 2.55 1.5 2.55 3.32zM866.17 439.93c0 1.84-1.14 3.32-2.55 3.32-1.4 0-2.55-1.48-2.55-3.32 0-1.83 1.14-3.32 2.55-3.32 1.4 0 2.55 1.5 2.55 3.33zM866.17 459.42c0 1.83-1.14 3.32-2.55 3.32-1.4 0-2.55-1.5-2.55-3.32 0-1.84 1.14-3.32 2.55-3.32 1.4 0 2.55 1.48 2.55 3.32z" stroke="#000" stroke-width="2"/><path d="M916.26 715.13c0 5.13-13.27 9.28-29.63 9.28S857 720.27 857 715.14s13.27-9.3 29.63-9.3 29.63 4.17 29.63 9.3z" stroke="#3a414a" stroke-width="2" fill="#fff"/><path d="M857 702.55a6 6 0 0 1 6-6h47.26a6 6 0 0 1 6 6v6.58a6 6 0 0 1-6 6H863a6 6 0 0 1-6-6z" stroke="#fff" stroke-width="2" fill="#fff"/><path d="M916.26 696.55c0 5.13-13.27 9.3-29.63 9.3s-29.63-4.17-29.63-9.3c0-5.13 13.27-9.3 29.63-9.3s29.63 4.17 29.63 9.3z" stroke="#3a414a" stroke-width="2" fill="#fff"/><path d="M857 683.98a6 6 0 0 1 6-6h47.26a6 6 0 0 1 6 6v6.57a6 6 0 0 1-6 6H863a6 6 0 0 1-6-6z" stroke="#fff" stroke-width="2" fill="#fff"/><path d="M916.26 677.98c0 5.13-13.27 9.28-29.63 9.28S857 683.1 857 677.98c0-5.13 13.27-9.3 29.63-9.3s29.63 4.17 29.63 9.3z" stroke="#3a414a" stroke-width="2" fill="#fff"/><path d="M857 666.23a6 6 0 0 1 6-6h47.26a6 6 0 0 1 6 6v6.57a6 6 0 0 1-6 6H863a6 6 0 0 1-6-6z" stroke="#fff" stroke-width="2" fill="#fff"/><path d="M916.26 659.4c0 5.13-13.27 9.3-29.63 9.3S857 664.52 857 659.4c0-5.13 13.27-9.3 29.63-9.3s29.63 4.17 29.63 9.3z" stroke="#3a414a" stroke-width="2" fill="#fff"/><g><path d="M857 659.95v54.4" stroke="#3a414a" stroke-width="2" stroke-linecap="round" fill="none"/></g><g><path d="M916.26 660.07v54.4" stroke="#3a414a" stroke-width="2" stroke-linecap="round" fill="none"/></g><path d="M866.17 674.1c0 1.82-1.14 3.3-2.55 3.3-1.4 0-2.55-1.48-2.55-3.3 0-1.85 1.14-3.33 2.55-3.33 1.4 0 2.55 1.5 2.55 3.32zM866.17 692.32c0 1.83-1.14 3.32-2.55 3.32-1.4 0-2.55-1.5-2.55-3.32 0-1.83 1.14-3.32 2.55-3.32 1.4 0 2.55 1.5 2.55 3.32zM866.17 711.8c0 1.84-1.14 3.33-2.55 3.33-1.4 0-2.55-1.5-2.55-3.32 0-1.83 1.14-3.3 2.55-3.3 1.4 0 2.55 1.47 2.55 3.3z" stroke="#000" stroke-width="2"/><defs><path d="M180 0v-1490h510c348 0 508 194 508 460 0 198-88 351-276 417L1256 0h-220L726-579c-117 2-238 0-356 1V0H180zm190-747h312c235 0 327-108 327-283 0-177-92-293-329-293H370v576" id="o"/><path d="M628 24c-324 0-524-230-524-574 0-343 198-582 503-582 237 0 487 146 487 559v75H286c9 234 145 362 343 362 132 0 231-58 273-172l174 48C1024-91 857 24 628 24zM287-650h624c-17-190-120-322-304-322-192 0-309 151-320 322" id="p"/><path d="M611 442c-248 0-391-105-460-228l146-94c47 65 117 165 314 165 178 0 307-82 307-266v-224h-17C863-141 792-18 576-18c-268 0-472-195-472-546 0-346 197-568 476-568 216 0 288 133 326 193h17v-179h175V29c0 289-215 413-487 413zm-5-620c203 0 314-146 314-390 0-237-108-403-314-403-213 0-319 180-319 403 0 230 109 390 319 390" id="q"/><path d="M158 0v-1118h180V0H158zm91-1301c-68 0-125-53-125-119s57-119 125-119c69 0 126 53 126 119s-57 119-126 119" id="r"/><path d="M613 24c-304 0-509-231-509-576 0-350 205-580 509-580 305 0 511 230 511 580 0 345-206 576-511 576zm0-161c226 0 329-195 329-415 0-222-103-419-329-419-223 0-326 196-326 419 0 220 103 415 326 415" id="s"/><path d="M338-670V0H158v-1118h173l1 207c72-158 192-221 342-221 226 0 378 139 378 422V0H872v-695c0-172-96-275-252-275-161 0-282 109-282 300" id="t"/><g id="a"><use transform="matrix(0.010850694444444444,0,0,0.010850694444444444,0,0)" xlink:href="#o"/><use transform="matrix(0.010850694444444444,0,0,0.010850694444444444,13.975694444444445,0)" xlink:href="#p"/><use transform="matrix(0.010850694444444444,0,0,0.010850694444444444,26.931423611111104,0)" xlink:href="#q"/><use transform="matrix(0.010850694444444444,0,0,0.010850694444444444,40.55989583333333,0)" xlink:href="#r"/><use transform="matrix(0.010850694444444444,0,0,0.010850694444444444,45.94184027777778,0)" xlink:href="#s"/><use transform="matrix(0.010850694444444444,0,0,0.010850694444444444,59.26649305555555,0)" xlink:href="#t"/></g><path d="M52 0l541-1490h220L1361 0h-200l-149-416H398L254 0H52zm404-582h497c-103-290-145-390-251-756-108 377-145 460-246 756" id="u"/><use transform="matrix(0.010850694444444444,0,0,0.010850694444444444,0,0)" xlink:href="#u" id="b"/><path d="M130 0v-134l666-991c45-67 96-135 147-202-269 9-546 3-821 5v-168h1036v136L502-379c-49 72-103 145-157 216 268-9 546-3 821-5V0H130" id="v"/><path d="M653-1490V0H466v-1314h-10L96-1047v-204l324-239h233" id="w"/><g id="c"><use transform="matrix(0.010850694444444444,0,0,0.010850694444444444,0,0)" xlink:href="#u"/><use transform="matrix(0.010850694444444444,0,0,0.010850694444444444,15.33203125,0)" xlink:href="#v"/><use transform="matrix(0.010850694444444444,0,0,0.010850694444444444,29.307725694444443,0)" xlink:href="#w"/></g><path d="M154 0v-137l495-537c165-179 249-281 249-418 0-156-121-253-280-253-170 0-278 110-278 278H158c0-264 200-443 465-443 266 0 455 183 455 416 0 161-73 288-336 568L416-179v12h687V0H154" id="x"/><g id="d"><use transform="matrix(0.010850694444444444,0,0,0.010850694444444444,0,0)" xlink:href="#u"/><use transform="matrix(0.010850694444444444,0,0,0.010850694444444444,15.33203125,0)" xlink:href="#v"/><use transform="matrix(0.010850694444444444,0,0,0.010850694444444444,29.307725694444443,0)" xlink:href="#x"/></g><path d="M635 20c-292 0-500-160-510-396h192c11 142 145 229 315 229 187 0 323-105 323-260 0-161-125-274-346-274H488v-165h121c174 0 294-100 294-254 0-148-104-245-266-245-152 0-291 85-297 230H157c8-234 222-395 484-395 278 0 448 188 448 400 0 168-95 291-247 336v12c190 31 301 169 301 357 0 244-216 425-508 425" id="y"/><g id="e"><use transform="matrix(0.010850694444444444,0,0,0.010850694444444444,0,0)" xlink:href="#u"/><use transform="matrix(0.010850694444444444,0,0,0.010850694444444444,15.33203125,0)" xlink:href="#v"/><use transform="matrix(0.010850694444444444,0,0,0.010850694444444444,29.307725694444443,0)" xlink:href="#y"/></g><path d="M645 0H180v-1490h484c435 0 692 280 692 742 0 466-257 748-711 748zM370-168h263c363 0 539-218 539-580 0-358-176-574-521-574H370v1154" id="z"/><path d="M471 26C259 26 90-98 90-318c0-256 228-303 435-329 202-27 287-16 287-108 0-139-79-219-234-219-161 0-248 86-283 164l-173-57c86-203 278-265 451-265 150 0 419 46 419 395V0H815v-152h-12C765-73 660 26 471 26zm31-159c199 0 310-134 310-271v-155c-30 35-226 55-295 64-131 17-246 59-246 186 0 116 97 176 231 176" id="A"/><path d="M598-1118v154H368v674c0 100 37 144 132 144 23 0 62-6 92-12L629-6c-37 13-88 20-134 20-193 0-307-107-307-290v-688H20v-154h168v-266h180v266h230" id="B"/><g id="f"><use transform="matrix(0.010850694444444444,0,0,0.010850694444444444,0,0)" xlink:href="#z"/><use transform="matrix(0.010850694444444444,0,0,0.010850694444444444,16.03732638888889,0)" xlink:href="#A"/><use transform="matrix(0.010850694444444444,0,0,0.010850694444444444,28.515625,0)" xlink:href="#B"/><use transform="matrix(0.010850694444444444,0,0,0.010850694444444444,35.89409722222222,0)" xlink:href="#A"/></g><g id="g"><use transform="matrix(0.010850694444444444,0,0,0.010850694444444444,0,0)" xlink:href="#u"/><use transform="matrix(0.010850694444444444,0,0,0.010850694444444444,14.583333333333332,0)" xlink:href="#w"/></g><g id="h"><use transform="matrix(0.010850694444444444,0,0,0.010850694444444444,0,0)" xlink:href="#u"/><use transform="matrix(0.010850694444444444,0,0,0.010850694444444444,15.33203125,0)" xlink:href="#y"/></g><g id="i"><use transform="matrix(0.010850694444444444,0,0,0.010850694444444444,0,0)" xlink:href="#u"/><use transform="matrix(0.010850694444444444,0,0,0.010850694444444444,15.33203125,0)" xlink:href="#x"/></g><path d="M783 20c-382 0-661-292-661-764 0-473 279-766 661-766 302 0 548 182 601 489h-190c-42-204-217-313-411-313-268 0-476 208-476 590 0 381 209 588 476 588 195 0 369-110 411-313h190c-52 303-296 489-601 489" id="C"/><path d="M613 24c-304 0-509-231-509-576 0-350 205-580 509-580 216 0 392 114 453 309l-173 49c-33-115-133-197-280-197-223 0-326 196-326 419 0 220 103 415 326 415 150 0 252-85 285-206l172 49C1010-95 832 24 613 24" id="D"/><g id="j"><use transform="matrix(0.003136405109489051,0,0,0.003136405109489051,0,0)" xlink:href="#C"/><use transform="matrix(0.003136405109489051,0,0,0.003136405109489051,4.69206204379562,0)" xlink:href="#s"/><use transform="matrix(0.003136405109489051,0,0,0.003136405109489051,8.543567518248176,0)" xlink:href="#t"/><use transform="matrix(0.003136405109489051,0,0,0.003136405109489051,12.338617700729925,0)" xlink:href="#t"/><use transform="matrix(0.003136405109489051,0,0,0.003136405109489051,16.133667883211675,0)" xlink:href="#p"/><use transform="matrix(0.003136405109489051,0,0,0.003136405109489051,19.878535583941602,0)" xlink:href="#D"/><use transform="matrix(0.003136405109489051,0,0,0.003136405109489051,23.54812956204379,0)" xlink:href="#B"/><use transform="matrix(0.003136405109489051,0,0,0.003136405109489051,25.649520985401455,0)" xlink:href="#r"/><use transform="matrix(0.003136405109489051,0,0,0.003136405109489051,27.20517791970803,0)" xlink:href="#s"/><use transform="matrix(0.003136405109489051,0,0,0.003136405109489051,31.056683394160586,0)" xlink:href="#t"/></g><path d="M180 0v-1490h270l367 940c28 72 75 218 110 339 35-117 81-264 110-339l362-940h271V0h-187c2-448-5-837 7-1287-157 497-311 829-483 1287H842C666-458 514-784 354-1284c12 438 5 843 7 1284H180" id="E"/><path d="M158 0v-1118h174v172h12c41-113 157-188 290-188 26 0 70 2 91 3v181c-11-2-60-10-108-10-161 0-279 109-279 260V0H158" id="F"/><g id="k"><use transform="matrix(0.003136405109489051,0,0,0.003136405109489051,0,0)" xlink:href="#E"/><use transform="matrix(0.003136405109489051,0,0,0.003136405109489051,5.802349452554744,0)" xlink:href="#A"/><use transform="matrix(0.003136405109489051,0,0,0.003136405109489051,9.409215328467154,0)" xlink:href="#t"/><use transform="matrix(0.003136405109489051,0,0,0.003136405109489051,13.204265510948906,0)" xlink:href="#A"/><use transform="matrix(0.003136405109489051,0,0,0.003136405109489051,16.811131386861312,0)" xlink:href="#q"/><use transform="matrix(0.003136405109489051,0,0,0.003136405109489051,20.75045620437956,0)" xlink:href="#p"/><use transform="matrix(0.003136405109489051,0,0,0.003136405109489051,24.495323905109487,0)" xlink:href="#F"/></g><path d="M158 418v-1536h174v179h20c37-59 106-193 324-193 279 0 474 222 474 576 0 356-194 580-473 580-213 0-288-135-325-197h-14v591H158zm492-555c209 0 317-186 317-421 0-232-105-413-317-413-206 0-314 166-314 413 0 249 111 421 314 421" id="G"/><g id="l"><use transform="matrix(0.010850694444444444,0,0,0.010850694444444444,0,0)" xlink:href="#u"/><use transform="matrix(0.010850694444444444,0,0,0.010850694444444444,15.33203125,0)" xlink:href="#G"/><use transform="matrix(0.010850694444444444,0,0,0.010850694444444444,28.938802083333332,0)" xlink:href="#G"/></g><path fill="#333" d="M135 0v-1490h591c327 0 492 160 492 383 0 177-115 286-268 320v15c168 8 326 140 326 361 0 236-176 411-512 411H135zm305-251h264c179 0 258-76 258-189 0-125-97-215-250-215H440v404zm0-613h241c131 0 228-74 228-194 0-109-79-183-222-183H440v377" id="H"/><path fill="#333" d="M128 0v-1118h300V0H128zm150-1264c-91 0-165-68-165-154 0-85 74-154 165-154 90 0 165 69 165 154 0 86-75 154-165 154" id="I"/><path fill="#333" d="M537 19C279 19 81-185 81-557c0-382 206-575 454-575 190 0 278 113 318 202h10v-560h300V0H868v-179h-15C812-89 719 19 537 19zm92-241c153 0 240-134 240-336 0-203-86-334-240-334-158 0-240 138-240 334 0 197 84 336 240 336" id="J"/><path fill="#333" d="M128 0v-1118h290v195h12c54-169 184-238 367-200v268c-27-8-86-15-130-15-138 0-239 95-239 234V0H128" id="K"/><path fill="#333" d="M633 22C291 22 81-200 81-553c0-345 210-579 537-579 292 0 525 185 525 567v84H378c7 183 109 277 260 277 105 0 184-46 216-132l272 51C1071-99 893 22 633 22zM380-669h474c-15-146-94-237-233-237-143 0-229 99-241 237" id="L"/><path fill="#333" d="M628 22C291 22 81-210 81-554c0-346 210-578 547-578 265 0 455 142 497 372l-279 52c-25-116-99-188-215-188-160 0-244 139-244 341 0 200 84 341 244 341 116 0 193-74 217-195l279 51C1085-123 896 22 628 22" id="M"/><path fill="#333" d="M683-1118v229H474v562c0 71 29 104 102 104 23 0 73-7 95-13l43 225C647 9 580 16 520 16 296 16 174-96 174-301v-588H20v-229h154v-266h300v266h209" id="N"/><path fill="#333" d="M628 22C291 22 81-210 81-554c0-346 210-578 547-578 336 0 547 232 547 578 0 344-211 576-547 576zm0-236c160 0 242-146 242-341 0-197-82-341-242-341S387-753 387-555c0 195 81 341 241 341" id="O"/><path fill="#333" d="M428-647V0H128v-1118h283l4 231c63-156 176-245 348-245 232 0 384 159 384 421V0H847v-659c0-139-76-222-202-222-128 0-217 86-217 234" id="P"/><path fill="#333" d="M440 22C227 22 68-92 68-313c0-250 202-322 422-343 195-21 271-24 271-105 0-95-63-149-175-149-116 0-187 57-211 129l-275-46c57-194 237-305 487-305 240 0 474 108 474 379V0H777v-155h-10C713-51 605 22 440 22zm85-211c140 0 238-93 238-211v-121c-37 26-156 42-222 51-111 16-185 59-185 149 0 87 70 132 169 132" id="Q"/><path fill="#333" d="M428-1490V0H128v-1490h300" id="R"/><g id="m"><use transform="matrix(0.006510416666666667,0,0,0.006510416666666667,0,0)" xlink:href="#H"/><use transform="matrix(0.006510416666666667,0,0,0.006510416666666667,8.821614583333334,0)" xlink:href="#I"/><use transform="matrix(0.006510416666666667,0,0,0.006510416666666667,12.434895833333334,0)" xlink:href="#J"/><use transform="matrix(0.006510416666666667,0,0,0.006510416666666667,20.83984375,0)" xlink:href="#I"/><use transform="matrix(0.006510416666666667,0,0,0.006510416666666667,24.453125,0)" xlink:href="#K"/><use transform="matrix(0.006510416666666667,0,0,0.006510416666666667,29.557291666666668,0)" xlink:href="#L"/><use transform="matrix(0.006510416666666667,0,0,0.006510416666666667,37.5,0)" xlink:href="#M"/><use transform="matrix(0.006510416666666667,0,0,0.006510416666666667,45.345052083333336,0)" xlink:href="#N"/><use transform="matrix(0.006510416666666667,0,0,0.006510416666666667,50.227864583333336,0)" xlink:href="#I"/><use transform="matrix(0.006510416666666667,0,0,0.006510416666666667,53.841145833333336,0)" xlink:href="#O"/><use transform="matrix(0.006510416666666667,0,0,0.006510416666666667,62.01822916666667,0)" xlink:href="#P"/><use transform="matrix(0.006510416666666667,0,0,0.006510416666666667,70.31901041666667,0)" xlink:href="#Q"/><use transform="matrix(0.006510416666666667,0,0,0.006510416666666667,78.05989583333334,0)" xlink:href="#R"/></g><path fill="#333" d="M135 0v-1490h581c339 0 533 192 533 485 0 204-94 351-264 424L1302 0H964L680-532H440V0H135zm305-779h220c186 0 274-77 274-226 0-150-88-233-275-233H440v459" id="S"/><path fill="#333" d="M128 418v-1536h295v188h14c41-89 129-202 319-202 248 0 453 193 453 575 0 372-197 576-455 576-183 0-275-108-317-198h-9v597H128zm534-640c156 0 240-139 240-336 0-196-83-334-240-334-154 0-241 131-241 334 0 202 88 336 241 336" id="T"/><g id="n"><use transform="matrix(0.006510416666666667,0,0,0.006510416666666667,0,0)" xlink:href="#S"/><use transform="matrix(0.006510416666666667,0,0,0.006510416666666667,8.593750000000002,0)" xlink:href="#L"/><use transform="matrix(0.006510416666666667,0,0,0.006510416666666667,16.536458333333336,0)" xlink:href="#T"/><use transform="matrix(0.006510416666666667,0,0,0.006510416666666667,24.941406250000004,0)" xlink:href="#R"/><use transform="matrix(0.006510416666666667,0,0,0.006510416666666667,28.5546875,0)" xlink:href="#I"/><use transform="matrix(0.006510416666666667,0,0,0.006510416666666667,32.16796875,0)" xlink:href="#M"/><use transform="matrix(0.006510416666666667,0,0,0.006510416666666667,40.14322916666667,0)" xlink:href="#Q"/><use transform="matrix(0.006510416666666667,0,0,0.006510416666666667,47.884114583333336,0)" xlink:href="#N"/><use transform="matrix(0.006510416666666667,0,0,0.006510416666666667,52.766927083333336,0)" xlink:href="#I"/><use transform="matrix(0.006510416666666667,0,0,0.006510416666666667,56.380208333333336,0)" xlink:href="#O"/><use transform="matrix(0.006510416666666667,0,0,0.006510416666666667,64.55729166666667,0)" xlink:href="#P"/></g></defs></g></svg>