<svg xmlns="http://www.w3.org/2000/svg" xmlns:xlink="http://www.w3.org/1999/xlink" xmlns:lucid="lucid" width="2346.65" height="1269.44"><g transform="translate(681.5 167.93979071762783)" lucid:page-tab-id="onrC.WhB-Sy."><path d="M67.89-51.04a6 6 0 0 1 5.98-6H1025a6 6 0 0 1 6 6v800.8a6 6 0 0 1-6 6H73.87a6 6 0 0 1-6-6z" stroke="#000" stroke-width="3" fill="#fff"/><use xlink:href="#a" transform="matrix(1,0,0,1,75.88544030617243,-49.04264067179179) translate(282.046875 49.47916666666667)"/><use xlink:href="#b" transform="matrix(1,0,0,1,75.88544030617243,-49.04264067179179) translate(453.453125 49.47916666666667)"/><path d="M-248.15 256.2a6 6 0 0 1 6-6h226.63a6 6 0 0 1 6 6V380a6 6 0 0 1-6 6h-226.63a6 6 0 0 1-6-6z" stroke="#000" stroke-width="3" fill="#429d9e"/><path d="M-248.15 415.7a6 6 0 0 1 6-6h226.62a6 6 0 0 1 6 6v123.78a6 6 0 0 1-6 6h-226.62a6 6 0 0 1-6-6z" stroke="#000" stroke-width="3" fill="#f89e5d"/><path d="M67.89 786a6 6 0 0 1 5.98-6h329.5a6 6 0 0 1 6 6v308a6 6 0 0 1-6 6H73.88a6 6 0 0 1-6-6z" stroke="#000" stroke-width="3" fill="#fff"/><path d="M1056.3 83.36a6 6 0 0 1 6-6h226.63a6 6 0 0 1 6 6v123.78a6 6 0 0 1-6 6H1062.3a6 6 0 0 1-6-6z" stroke="#000" stroke-width="3" fill="#f89e5d"/><path d="M162.7 415.76a6 6 0 0 1 6-6h378.7a6 6 0 0 1 6 6V547.4a6 6 0 0 1-6 6H168.7a6 6 0 0 1-6-6z" stroke="#429d9e" stroke-width="3" fill="#fff"/><path d="M988.14 583.12c0 7.14-66.68 12.93-148.95 12.93-82.27 0-148.96-5.8-148.96-12.93V479.67c0-7.14 66.7-12.93 148.95-12.93 82.25 0 148.94 5.8 148.94 12.93z" stroke="#000" stroke-width="3" fill="#136a7f"/><path d="M988.14 479.67c0 7.14-66.68 12.93-148.95 12.93-82.27 0-148.96-5.8-148.96-12.93" stroke="#000" stroke-width="3" fill="none"/><path d="M-248.15-8.57a6 6 0 0 1 6-6h226.62a6 6 0 0 1 6 6V213.3a6 6 0 0 1-6 6h-226.62a6 6 0 0 1-6-6z" stroke="#000" stroke-width="3" fill="#97928c"/><path d="M986.85 467.52c0 7.14-66.7 12.93-148.95 12.93-82.26 0-148.94-5.8-148.94-12.93V364.08c0-7.14 66.68-12.93 148.94-12.93 82.26 0 148.95 5.8 148.95 12.93z" stroke="#000" stroke-width="3" fill="#136a7f"/><path d="M986.85 364.08c0 7.14-66.7 12.93-148.95 12.93-82.26 0-148.94-5.78-148.94-12.92" stroke="#000" stroke-width="3" fill="none"/><path d="M986.85 348.62c0 7.14-66.7 12.93-148.95 12.93-82.26 0-148.94-5.8-148.94-12.93V245.18c0-7.14 66.68-12.93 148.94-12.93 82.26 0 148.95 5.8 148.95 12.93z" stroke="#000" stroke-width="3" fill="#136a7f"/><path d="M986.85 245.18c0 7.14-66.7 12.93-148.95 12.93-82.26 0-148.94-5.78-148.94-12.92" stroke="#000" stroke-width="3" fill="none"/><path d="M1055.12 124.77a6 6 0 0 1 6-6h228a6 6 0 0 1 6 6v40.97a6 6 0 0 1-6 6h-228a6 6 0 0 1-6-6z" fill="none"/><use xlink:href="#c" transform="matrix(1,0,0,1,1055.1165271793984,118.76513903145838) translate(40.24739583333334 37.13368055555556)"/><use xlink:href="#d" transform="matrix(1,0,0,1,1055.1165271793984,118.76513903145838) translate(114.5920138888889 37.13368055555556)"/><path d="M-249.53 291.43a6 6 0 0 1 6-6h228a6 6 0 0 1 6 6v48a6 6 0 0 1-6 6h-228a6 6 0 0 1-6-6z" fill="none"/><use xlink:href="#e" transform="matrix(1,0,0,1,-249.52799247941812,285.42480265443527) translate(78.27799479166667 40.63368055555556)"/><path d="M-248.15 457.58a6 6 0 0 1 6-6h228a6 6 0 0 1 6 6v48a6 6 0 0 1-6 6h-228a6 6 0 0 1-6-6z" fill="none"/><use xlink:href="#c" transform="matrix(1,0,0,1,-248.1472452575481,451.58131189185104) translate(33.30512152777777 40.63368055555556)"/><use xlink:href="#f" transform="matrix(1,0,0,1,-248.1472452575481,451.58131189185104) translate(107.64973958333333 40.63368055555556)"/><path d="M180 976.65a6 6 0 0 1 6-6h198.62a6 6 0 0 1 6 6v28a6 6 0 0 1-6 6H186a6 6 0 0 1-6-6z" fill="none"/><use xlink:href="#g" transform="matrix(1,0,0,1,180,970.6457164737849) translate(0 26.46701388888889)"/><use xlink:href="#h" transform="matrix(1,0,0,1,180,970.6457164737849) translate(43.69791666666667 26.46701388888889)"/><path d="M-8.03 102.36a3 3 0 0 1 3-3 3 3 0 0 1 3 3 3 3 0 0 1-3 3 3 3 0 0 1-3-3m10.33 0a3 3 0 0 1 3-3 3 3 0 0 1 3 3 3 3 0 0 1-3 3 3 3 0 0 1-3-3m10.34 0a3 3 0 0 1 3-3 3 3 0 0 1 3 3 3 3 0 0 1-3 3 3 3 0 0 1-3-3m10.33 0a3 3 0 0 1 3-3 3 3 0 0 1 3 3 3 3 0 0 1-3 3 3 3 0 0 1-3-3m6-6a3 3 0 0 1 3-3 3 3 0 0 1 3 3 3 3 0 0 1-3 3 3 3 0 0 1-3-3m0-11.94a3 3 0 0 1 3-3 3 3 0 0 1 3 3 3 3 0 0 1-3 3 3 3 0 0 1-3-3m0-11.94a3 3 0 0 1 3-3 3 3 0 0 1 3 3 3 3 0 0 1-3 3 3 3 0 0 1-3-3m0-11.95a3 3 0 0 1 3-3 3 3 0 0 1 3 3 3 3 0 0 1-3 3 3 3 0 0 1-3-3m0-11.94a3 3 0 0 1 3-3 3 3 0 0 1 3 3 3 3 0 0 1-3 3 3 3 0 0 1-3-3m0-11.95a3 3 0 0 1 3-3 3 3 0 0 1 3 3 3 3 0 0 1-3 3 3 3 0 0 1-3-3m0-11.95a3 3 0 0 1 3-3 3 3 0 0 1 3 3 3 3 0 0 1-3 3 3 3 0 0 1-3-3m0-11.94a3 3 0 0 1 3-3 3 3 0 0 1 3 3 3 3 0 0 1-3 3 3 3 0 0 1-3-3m0-11.95a3 3 0 0 1 3-3 3 3 0 0 1 3 3.02 3 3 0 0 1-3 3 3 3 0 0 1-3-3m0-11.95a3 3 0 0 1 3-3 3 3 0 0 1 3 3 3 3 0 0 1-3 3 3 3 0 0 1-3-3m0-11.94a3 3 0 0 1 3-3 3 3 0 0 1 3 3 3 3 0 0 1-3 3 3 3 0 0 1-3-3m0-11.95a3 3 0 0 1 3-3 3 3 0 0 1 3 3 3 3 0 0 1-3 3 3 3 0 0 1-3-3m0-11.94a3 3 0 0 1 3-3 3 3 0 0 1 3 3 3 3 0 0 1-3 3 3 3 0 0 1-3-3m0-11.94a3 3 0 0 1 3-3 3 3 0 0 1 3 3 3 3 0 0 1-3 3 3 3 0 0 1-3-3m0-11.95a3 3 0 0 1 3-3 3 3 0 0 1 3 3 3 3 0 0 1-3 3 3 3 0 0 1-3-3m0-11.94a3 3 0 0 1 3-3 3 3 0 0 1 3 3 3 3 0 0 1-3 3 3 3 0 0 1-3-3m0-11.93a3 3 0 0 1 3-3 3 3 0 0 1 3 3 3 3 0 0 1-3 3 3 3 0 0 1-3-3m6-6a3 3 0 0 1 3-3 3 3 0 0 1 3 3 3 3 0 0 1-3 3 3 3 0 0 1-3-3m12 0a3 3 0 0 1 3-3 3 3 0 0 1 3 3 3 3 0 0 1-3 3 3 3 0 0 1-3-3m12.02 0a3 3 0 0 1 3-3 3 3 0 0 1 3 3 3 3 0 0 1-3 3 3 3 0 0 1-3-3m12 0a3 3 0 0 1 3-3 3 3 0 0 1 3 3 3 3 0 0 1-3 3 3 3 0 0 1-3-3m12.02 0a3 3 0 0 1 3-3 3 3 0 0 1 3 3 3 3 0 0 1-3 3 3 3 0 0 1-3-3m12 0a3 3 0 0 1 3-3 3 3 0 0 1 3 3 3 3 0 0 1-3 3 3 3 0 0 1-3-3m12.02 0a3 3 0 0 1 3-3 3 3 0 0 1 3 3 3 3 0 0 1-3 3 3 3 0 0 1-3-3m12 0a3 3 0 0 1 3-3 3 3 0 0 1 3 3 3 3 0 0 1-3 3 3 3 0 0 1-3-3m12.02 0a3 3 0 0 1 3-3 3 3 0 0 1 3 3 3 3 0 0 1-3 3 3 3 0 0 1-3-3m12 0a3 3 0 0 1 3-3 3 3 0 0 1 3 3 3 3 0 0 1-3 3 3 3 0 0 1-3-3m12.02 0a3 3 0 0 1 3-3 3 3 0 0 1 3 3 3 3 0 0 1-3 3 3 3 0 0 1-3-3m12 0a3 3 0 0 1 3-3 3 3 0 0 1 3 3 3 3 0 0 1-3 3 3 3 0 0 1-3-3m12.02 0a3 3 0 0 1 3-3 3 3 0 0 1 3 3 3 3 0 0 1-3 3 3 3 0 0 1-3-3m12.02 0a3 3 0 0 1 3-3 3 3 0 0 1 3 3 3 3 0 0 1-3 3 3 3 0 0 1-3-3m12 0a3 3 0 0 1 3-3 3 3 0 0 1 3 3 3 3 0 0 1-3 3 3 3 0 0 1-3-3m12.02 0a3 3 0 0 1 3-3 3 3 0 0 1 3 3 3 3 0 0 1-3 3 3 3 0 0 1-3-3m12 0a3 3 0 0 1 3-3 3 3 0 0 1 3 3 3 3 0 0 1-3 3 3 3 0 0 1-3-3m12.02 0a3 3 0 0 1 3-3 3 3 0 0 1 3 3 3 3 0 0 1-3 3 3 3 0 0 1-3-3m12 0a3 3 0 0 1 3-3 3 3 0 0 1 3 3 3 3 0 0 1-3 3 3 3 0 0 1-3-3m12.02 0a3 3 0 0 1 3-3 3 3 0 0 1 3 3 3 3 0 0 1-3 3 3 3 0 0 1-3-3m12 0a3 3 0 0 1 3-3 3 3 0 0 1 3 3 3 3 0 0 1-3 3 3 3 0 0 1-3-3m12.02 0a3 3 0 0 1 3-3 3 3 0 0 1 3 3 3 3 0 0 1-3 3 3 3 0 0 1-3-3m12.02 0a3 3 0 0 1 3-3 3 3 0 0 1 3 3 3 3 0 0 1-3 3 3 3 0 0 1-3-3m12 0a3 3 0 0 1 3-3 3 3 0 0 1 3 3 3 3 0 0 1-3 3 3 3 0 0 1-3-3m12.02 0a3 3 0 0 1 3-3 3 3 0 0 1 3 3 3 3 0 0 1-3 3 3 3 0 0 1-3-3m12 0a3 3 0 0 1 3-3 3 3 0 0 1 3 3 3 3 0 0 1-3 3 3 3 0 0 1-3-3m12.02 0a3 3 0 0 1 3-3 3 3 0 0 1 3 3 3 3 0 0 1-3 3 3 3 0 0 1-3-3m12 0a3 3 0 0 1 3-3 3 3 0 0 1 3 3 3 3 0 0 1-3 3 3 3 0 0 1-3-3m12.02 0a3 3 0 0 1 3-3 3 3 0 0 1 3 3 3 3 0 0 1-3 3 3 3 0 0 1-3-3m12 0a3 3 0 0 1 3-3 3 3 0 0 1 3 3 3 3 0 0 1-3 3 3 3 0 0 1-3-3m12.03 0a3 3 0 0 1 3-3 3 3 0 0 1 3 3 3 3 0 0 1-3 3 3 3 0 0 1-3-3m12.02 0a3 3 0 0 1 3-3 3 3 0 0 1 3 3 3 3 0 0 1-3 3 3 3 0 0 1-3-3m12 0a3 3 0 0 1 3-3 3 3 0 0 1 3 3 3 3 0 0 1-3 3 3 3 0 0 1-3-3m12.02 0a3 3 0 0 1 3-3 3 3 0 0 1 3 3 3 3 0 0 1-3 3 3 3 0 0 1-3-3m12 0a3 3 0 0 1 3-3 3 3 0 0 1 3 3 3 3 0 0 1-3 3 3 3 0 0 1-3-3m12.02 0a3 3 0 0 1 3-3 3 3 0 0 1 3 3 3 3 0 0 1-3 3 3 3 0 0 1-3-3m12 0a3 3 0 0 1 3-3 3 3 0 0 1 3 3 3 3 0 0 1-3 3 3 3 0 0 1-3-3m12.02 0a3 3 0 0 1 3-3 3 3 0 0 1 3 3 3 3 0 0 1-3 3 3 3 0 0 1-3-3m12 0a3 3 0 0 1 3-3 3 3 0 0 1 3 3 3 3 0 0 1-3 3 3 3 0 0 1-3-3m12.02 0a3 3 0 0 1 3-3 3 3 0 0 1 3 3 3 3 0 0 1-3 3 3 3 0 0 1-3-3m12.02 0a3 3 0 0 1 3-3 3 3 0 0 1 3 3 3 3 0 0 1-3 3 3 3 0 0 1-3-3m12 0a3 3 0 0 1 3-3 3 3 0 0 1 3 3 3 3 0 0 1-3 3 3 3 0 0 1-3-3m12.02 0a3 3 0 0 1 3-3 3 3 0 0 1 3 3 3 3 0 0 1-3 3 3 3 0 0 1-3-3m12 0a3 3 0 0 1 3-3 3 3 0 0 1 3 3 3 3 0 0 1-3 3 3 3 0 0 1-3-3m12.02 0a3 3 0 0 1 3-3 3 3 0 0 1 3 3 3 3 0 0 1-3 3 3 3 0 0 1-3-3m12 0a3 3 0 0 1 3-3 3 3 0 0 1 3 3 3 3 0 0 1-3 3 3 3 0 0 1-3-3m12.02 0a3 3 0 0 1 3-3 3 3 0 0 1 3 3 3 3 0 0 1-3 3 3 3 0 0 1-3-3m12 0a3 3 0 0 1 3-3 3 3 0 0 1 3 3 3 3 0 0 1-3 3 3 3 0 0 1-3-3m12.02 0a3 3 0 0 1 3-3 3 3 0 0 1 3 3 3 3 0 0 1-3 3 3 3 0 0 1-3-3m12.02 0a3 3 0 0 1 3-3 3 3 0 0 1 3 3 3 3 0 0 1-3 3 3 3 0 0 1-3-3m12 0a3 3 0 0 1 3-3 3 3 0 0 1 3 3 3 3 0 0 1-3 3 3 3 0 0 1-3-3m12.02 0a3 3 0 0 1 3-3 3 3 0 0 1 3 3 3 3 0 0 1-3 3 3 3 0 0 1-3-3m12 0a3 3 0 0 1 3-3 3 3 0 0 1 3 3 3 3 0 0 1-3 3 3 3 0 0 1-3-3m12.02 0a3 3 0 0 1 3-3 3 3 0 0 1 3 3 3 3 0 0 1-3 3 3 3 0 0 1-3-3m12 0a3 3 0 0 1 3-3 3 3 0 0 1 3 3 3 3 0 0 1-3 3 3 3 0 0 1-3-3m12.02 0a3 3 0 0 1 3-3 3 3 0 0 1 3 3 3 3 0 0 1-3 3 3 3 0 0 1-3-3m12 0a3 3 0 0 1 3-3 3 3 0 0 1 3 3 3 3 0 0 1-3 3 3 3 0 0 1-3-3m12.02 0a3 3 0 0 1 3-3 3 3 0 0 1 3 3 3 3 0 0 1-3 3 3 3 0 0 1-3-3m12.02 0a3 3 0 0 1 3-3 3 3 0 0 1 3 3 3 3 0 0 1-3 3 3 3 0 0 1-3-3m12 0a3 3 0 0 1 3-3 3 3 0 0 1 3 3 3 3 0 0 1-3 3 3 3 0 0 1-3-3m12.02 0a3 3 0 0 1 3-3 3 3 0 0 1 3 3 3 3 0 0 1-3 3 3 3 0 0 1-3-3m12 0a3 3 0 0 1 3-3 3 3 0 0 1 3 3 3 3 0 0 1-3 3 3 3 0 0 1-3-3m12.02 0a3 3 0 0 1 3-3 3 3 0 0 1 3 3 3 3 0 0 1-3 3 3 3 0 0 1-3-3m12 0a3 3 0 0 1 3-3 3 3 0 0 1 3 3 3 3 0 0 1-3 3 3 3 0 0 1-3-3m12.02 0a3 3 0 0 1 3-3 3 3 0 0 1 3 3 3 3 0 0 1-3 3 3 3 0 0 1-3-3m12 0a3 3 0 0 1 3-3 3 3 0 0 1 3 3 3 3 0 0 1-3 3 3 3 0 0 1-3-3m12.03 0a3 3 0 0 1 3-3 3 3 0 0 1 3 3 3 3 0 0 1-3 3 3 3 0 0 1-3-3m12.02 0a3 3 0 0 1 3-3 3 3 0 0 1 3 3 3 3 0 0 1-3 3 3 3 0 0 1-3-3m12 0a3 3 0 0 1 3-3 3 3 0 0 1 3 3 3 3 0 0 1-3 3 3 3 0 0 1-3-3m12.02 0a3 3 0 0 1 3-3 3 3 0 0 1 3 3 3 3 0 0 1-3 3 3 3 0 0 1-3-3m12 0a3 3 0 0 1 3-3 3 3 0 0 1 3 3 3 3 0 0 1-3 3 3 3 0 0 1-3-3m12.02 0a3 3 0 0 1 3-3 3 3 0 0 1 3 3 3 3 0 0 1-3 3 3 3 0 0 1-3-3m12 0a3 3 0 0 1 3-3 3 3 0 0 1 3 3 3 3 0 0 1-3 3 3 3 0 0 1-3-3m12.02 0a3 3 0 0 1 3-3 3 3 0 0 1 3 3 3 3 0 0 1-3 3 3 3 0 0 1-3-3m12 0a3 3 0 0 1 3-3 3 3 0 0 1 3 3 3 3 0 0 1-3 3 3 3 0 0 1-3-3m12.02 0a3 3 0 0 1 3-3 3 3 0 0 1 3 3 3 3 0 0 1-3 3 3 3 0 0 1-3-3m12.02 0a3 3 0 0 1 3-3 3 3 0 0 1 3 3 3 3 0 0 1-3 3 3 3 0 0 1-3-3m12 0a3 3 0 0 1 3-3 3 3 0 0 1 3 3 3 3 0 0 1-3 3 3 3 0 0 1-3-3m12.02 0a3 3 0 0 1 3-3 3 3 0 0 1 3 3 3 3 0 0 1-3 3 3 3 0 0 1-3-3m12 0a3 3 0 0 1 3-3 3 3 0 0 1 3 3 3 3 0 0 1-3 3 3 3 0 0 1-3-3m12.02 0a3 3 0 0 1 3-3 3 3 0 0 1 3 3 3 3 0 0 1-3 3 3 3 0 0 1-3-3m12 0a3 3 0 0 1 3-3 3 3 0 0 1 3 3 3 3 0 0 1-3 3 3 3 0 0 1-3-3m12.02 0a3 3 0 0 1 3-3 3 3 0 0 1 3 3 3 3 0 0 1-3 3 3 3 0 0 1-3-3m12 0a3 3 0 0 1 3-3 3 3 0 0 1 3 3 3 3 0 0 1-3 3 3 3 0 0 1-3-3m12.02 0a3 3 0 0 1 3-3 3 3 0 0 1 3 3 3 3 0 0 1-3 3 3 3 0 0 1-3-3m12.02 0a3 3 0 0 1 3-3 3 3 0 0 1 3 3 3 3 0 0 1-3 3 3 3 0 0 1-3-3m12 0a3 3 0 0 1 3-3 3 3 0 0 1 3 3 3 3 0 0 1-3 3 3 3 0 0 1-3-3m12.02 0a3 3 0 0 1 3-3 3 3 0 0 1 3 3 3 3 0 0 1-3 3 3 3 0 0 1-3-3m12 0a3 3 0 0 1 3-3 3 3 0 0 1 3 3 3 3 0 0 1-3 3 3 3 0 0 1-3-3m12.02 0a3 3 0 0 1 3-3 3 3 0 0 1 3 3 3 3 0 0 1-3 3 3 3 0 0 1-3-3m12 0a3 3 0 0 1 3-3 3 3 0 0 1 3 3 3 3 0 0 1-3 3 3 3 0 0 1-3-3m12.02 0a3 3 0 0 1 3-3 3 3 0 0 1 3 3 3 3 0 0 1-3 3 3 3 0 0 1-3-3m12 0a3 3 0 0 1 3-3 3 3 0 0 1 3 3 3 3 0 0 1-3 3 3 3 0 0 1-3-3m12.02 0a3 3 0 0 1 3-3 3 3 0 0 1 3 3 3 3 0 0 1-3 3 3 3 0 0 1-3-3m12.02 0a3 3 0 0 1 3-3 3 3 0 0 1 3 3 3 3 0 0 1-3 3 3 3 0 0 1-3-3m12 0a3 3 0 0 1 3-3 3 3 0 0 1 3 3 3 3 0 0 1-3 3 3 3 0 0 1-3-3m12.02 0a3 3 0 0 1 3-3 3 3 0 0 1 3 3 3 3 0 0 1-3 3 3 3 0 0 1-3-3m12 0a3 3 0 0 1 3-3 3 3 0 0 1 3 3 3 3 0 0 1-3 3 3 3 0 0 1-3-3m12.02 0a3 3 0 0 1 3-3 3 3 0 0 1 3 3 3 3 0 0 1-3 3 3 3 0 0 1-3-3m12 0a3 3 0 0 1 3-3 3 3 0 0 1 3 3 3 3 0 0 1-3 3 3 3 0 0 1-3-3m12.02 0a3 3 0 0 1 3-3 3 3 0 0 1 3 3 3 3 0 0 1-3 3 3 3 0 0 1-3-3m12 0a3 3 0 0 1 3-3 3 3 0 0 1 3 3 3 3 0 0 1-3 3 3 3 0 0 1-3-3m12.02 0a3 3 0 0 1 3-3 3 3 0 0 1 3 3 3 3 0 0 1-3 3 3 3 0 0 1-3-3m12.02 0a3 3 0 0 1 3-3 3 3 0 0 1 3 3 3 3 0 0 1-3 3 3 3 0 0 1-3-3m12 0a3 3 0 0 1 3-3 3 3 0 0 1 3 3 3 3 0 0 1-3 3 3 3 0 0 1-3-3m12.02 0a3 3 0 0 1 3-3 3 3 0 0 1 3 3 3 3 0 0 1-3 3 3 3 0 0 1-3-3m12 0a3 3 0 0 1 3-3 3 3 0 0 1 3 3 3 3 0 0 1-3 3 3 3 0 0 1-3-3m12.02 0a3 3 0 0 1 3-3 3 3 0 0 1 3 3 3 3 0 0 1-3 3 3 3 0 0 1-3-3m12 0a3 3 0 0 1 3-3 3 3 0 0 1 3 3 3 3 0 0 1-3 3 3 3 0 0 1-3-3" fill="#97928c"/><path d="M-4.95 105.34h-3.08V99.4h3.08z" stroke="#97928c" stroke-width=".05" fill="#97928c"/><path d="M1352.44-100.73l-14.27 4.63v-9.27z" stroke="#97928c" stroke-width="6" fill="#97928c"/><path d="M180 926a6 6 0 0 1 6-6h198.62a6 6 0 0 1 6 6v28a6 6 0 0 1-6 6H186a6 6 0 0 1-6-6z" fill="none"/><use xlink:href="#i" transform="matrix(1,0,0,1,180,920) translate(0 26.46701388888889)"/><use xlink:href="#j" transform="matrix(1,0,0,1,180,920) translate(54.85243055555556 26.46701388888889)"/><path d="M-244.8 41.1a6 6 0 0 1 6-6h219.92a6 6 0 0 1 6 6v79.78a6 6 0 0 1-6 6H-238.8a6 6 0 0 1-6-6z" fill="none"/><use xlink:href="#k" transform="matrix(1,0,0,1,-244.8004016613329,35.086930769032676) translate(48.69639756944444 28.862847222222225)"/><use xlink:href="#l" transform="matrix(1,0,0,1,-244.8004016613329,35.086930769032676) translate(68.55099826388889 72.61284722222223)"/><use xlink:href="#m" transform="matrix(1,0,0,1,-244.8004016613329,35.086930769032676) translate(22.438802083333314 116.36284722222223)"/><use xlink:href="#n" transform="matrix(1,0,0,1,-244.8004016613329,35.086930769032676) translate(70.04730902777777 116.36284722222223)"/><path d="M180 806a6 6 0 0 1 6-6h198.62a6 6 0 0 1 6 6v28a6 6 0 0 1-6 6H186a6 6 0 0 1-6-6z" fill="none"/><use xlink:href="#o" transform="matrix(1,0,0,1,180,800) translate(0 26.46701388888889)"/><use xlink:href="#h" transform="matrix(1,0,0,1,180,800) translate(72.99479166666667 26.46701388888889)"/><path d="M1663.64 190.15c0 7.26-66.86 13.14-149.35 13.14-82.5 0-149.36-5.9-149.36-13.15V85.02c0-7.26 66.87-13.14 149.35-13.14 82.48 0 149.35 5.88 149.35 13.14z" stroke="#000" stroke-width="3" fill="#429d9e"/><path d="M1663.64 85.02c0 7.26-66.86 13.14-149.35 13.14-82.5 0-149.36-5.88-149.36-13.14" stroke="#000" stroke-width="3" fill="none"/><path d="M1662.35 72.67c0 7.26-66.87 13.14-149.35 13.14-82.5 0-149.36-5.87-149.36-13.13V-32.46c0-7.26 66.87-13.14 149.36-13.14 82.48 0 149.35 5.88 149.35 13.14z" stroke="#000" stroke-width="3" fill="#429d9e"/><path d="M1662.35-32.46c0 7.26-66.87 13.14-149.35 13.14-82.5 0-149.36-5.88-149.36-13.14" stroke="#000" stroke-width="3" fill="none"/><path d="M1662.35-48.17c0 7.26-66.87 13.14-149.35 13.14-82.5 0-149.36-5.88-149.36-13.14V-153.3c0-7.26 66.87-13.14 149.36-13.14 82.48 0 149.35 5.88 149.35 13.14z" stroke="#000" stroke-width="3" fill="#429d9e"/><path d="M1662.35-153.3c0 7.26-66.87 13.14-149.35 13.14-82.5 0-149.36-5.88-149.36-13.14" stroke="#000" stroke-width="3" fill="none"/><path d="M-381.2 478.54c0 7.15-66.6 12.95-148.75 12.95-82.16 0-148.76-5.8-148.76-12.96V374.86c0-7.16 66.6-12.96 148.75-12.96s148.75 5.8 148.75 12.96z" stroke="#000" stroke-width="3" fill="#429d9e"/><path d="M-381.2 374.86c0 7.16-66.6 12.96-148.75 12.96-82.16 0-148.76-5.8-148.76-12.96" stroke="#000" stroke-width="3" fill="none"/><path d="M-382.48 362.68c0 7.16-66.6 12.96-148.76 12.96S-680 369.84-680 362.68V259c0-7.15 66.6-12.95 148.76-12.95s148.76 5.8 148.76 12.96z" stroke="#000" stroke-width="3" fill="#429d9e"/><path d="M-382.48 259c0 7.16-66.6 12.97-148.76 12.97S-680 266.17-680 259" stroke="#000" stroke-width="3" fill="none"/><path d="M-382.48 243.5c0 7.17-66.6 12.97-148.76 12.97S-680 250.67-680 243.5V139.85c0-7.16 66.6-12.96 148.76-12.96s148.76 5.8 148.76 12.96z" stroke="#000" stroke-width="3" fill="#429d9e"/><path d="M-382.48 139.84c0 7.16-66.6 12.96-148.76 12.96S-680 147-680 139.84" stroke="#000" stroke-width="3" fill="none"/><path d="M-377.98 191.68h59.1a6 6 0 0 0 6-6v-78.4a6 6 0 0 1 6-6h35.1" stroke="#97928c" stroke-width="6" fill="none"/><path d="M-377.9 194.65H-381v-5.95h3.07z" stroke="#97928c" stroke-width=".05" fill="#97928c"/><path d="M-254.5 101.3l-14.27 4.62v-9.27z" stroke="#97928c" stroke-width="6" fill="#97928c"/><path d="M-5.03 102.36h31a6 6 0 0 0 6-6v-191.1a6 6 0 0 1 6-6H831.9a6 6 0 0 1 6 6v298.5" stroke="#97928c" stroke-width="6" fill="none"/><path d="M-4.95 105.34h-3.08V99.4h3.08z" stroke="#97928c" stroke-width=".05" fill="#97928c"/><path d="M837.9 221.04l-4.63-14.26h9.27z" stroke="#97928c" stroke-width="6" fill="#97928c"/><path d="M160 225.3a6 6 0 0 1 6-6h378.7a6 6 0 0 1 6 6v89.12a6 6 0 0 1-6 6H166a6 6 0 0 1-6-6z" stroke="#429d9e" stroke-width="3" fill="#fff"/><use xlink:href="#p" transform="matrix(1,0,0,1,168.00000000000003,227.30373061530383) translate(114.21223958333333 24.739583333333336)"/><use xlink:href="#q" transform="matrix(1,0,0,1,168.00000000000003,227.30373061530383) translate(163.05338541666666 24.739583333333336)"/><use xlink:href="#r" transform="matrix(1,0,0,1,168.00000000000003,227.30373061530383) translate(88.38541666666666 62.239583333333336)"/><use xlink:href="#s" transform="matrix(1,0,0,1,168.00000000000003,227.30373061530383) translate(207.5390625 62.239583333333336)"/><path d="M102.38 820h22.77M102.42 820h-1.54" stroke="#97928c" stroke-width="3" fill="none"/><path d="M140.9 820l-14.25 4.63v-9.26z" stroke="#97928c" stroke-width="3" fill="#97928c"/><path d="M-377.98 310.84h101.36" stroke="#136a7f" stroke-width="6" fill="none"/><path d="M-377.9 313.82H-381v-5.95h3.07z" stroke="#136a7f" stroke-width=".05" fill="#136a7f"/><path d="M-259.36 310.84l-14.26 4.64v-9.27z" stroke="#136a7f" stroke-width="6" fill="#136a7f"/><path d="M-5.02 318.1h52.68a6 6 0 0 0 6-6v-36.24a6 6 0 0 1 6-6h71.87" stroke="#136a7f" stroke-width="6" fill="none"/><path d="M-4.94 321.07h-3.08v-5.95h3.08z" stroke="#136a7f" stroke-width=".05" fill="#136a7f"/><path d="M148.8 269.86l-14.27 4.63v-9.28z" stroke="#136a7f" stroke-width="6" fill="#136a7f"/><path d="M-376.7 426.7h56.78a6 6 0 0 1 6 6v41.98a6 6 0 0 0 6 6h32.8" stroke="#f89e5d" stroke-width="6" fill="none"/><path d="M-376.62 429.67h-3.08v-5.95h3.08z" stroke="#f89e5d" stroke-width=".05" fill="#f89e5d"/><path d="M-257.86 480.68l-14.26 4.64v-9.27z" stroke="#f89e5d" stroke-width="6" fill="#f89e5d"/><path d="M-5.03 477.6h81.6a.03.03 0 0 1 .02.02h-.02a.03.03 0 0 0 .03.03h57.63" stroke="#f89e5d" stroke-width="6" fill="none"/><path d="M-4.95 480.57h-3.08v-5.95h3.08z" stroke="#f89e5d" stroke-width=".05" fill="#f89e5d"/><path d="M151.5 477.65l-14.28 4.64V473z" stroke="#f89e5d" stroke-width="6" fill="#f89e5d"/><path d="M557.9 481.58H604a6 6 0 0 0 6-6V421.8a6 6 0 0 1 6-6h44.48" stroke="#f89e5d" stroke-width="6" fill="none"/><path d="M558 484.56h-3.1v-5.95h3.1z" stroke="#f89e5d" stroke-width=".05" fill="#f89e5d"/><path d="M677.75 415.8l-14.27 4.64v-9.27z" stroke="#f89e5d" stroke-width="6" fill="#f89e5d"/><path d="M554.9 481.58a3 3 0 0 1 3-3 3 3 0 0 1 3 3 3 3 0 0 1-3 3 3 3 0 0 1-3-3m11.53 0a3 3 0 0 1 3-3 3 3 0 0 1 3 3 3 3 0 0 1-3 3 3 3 0 0 1-3-3m11.53 0a3 3 0 0 1 3-3 3 3 0 0 1 3 3 3 3 0 0 1-3 3 3 3 0 0 1-3-3m11.52 0a3 3 0 0 1 3-3 3 3 0 0 1 3 3 3 3 0 0 1-3 3 3 3 0 0 1-3-3m11.52 0a3 3 0 0 1 3-3 3 3 0 0 1 3 3 3 3 0 0 1-3 3 3 3 0 0 1-3-3m6-6a3 3 0 0 1 3-3 3 3 0 0 1 3 3 3 3 0 0 1-3 3 3 3 0 0 1-3-3m0-12.14a3 3 0 0 1 3-3 3 3 0 0 1 3 3 3 3 0 0 1-3 3 3 3 0 0 1-3-3m0-12.15a3 3 0 0 1 3-3 3 3 0 0 1 3 3 3 3 0 0 1-3 3 3 3 0 0 1-3-3m0-12.16a3 3 0 0 1 3-3 3 3 0 0 1 3 3 3 3 0 0 1-3 3 3 3 0 0 1-3-3m0-12.14a3 3 0 0 1 3-3 3 3 0 0 1 3 3 3 3 0 0 1-3 3 3 3 0 0 1-3-3m0-12.15a3 3 0 0 1 3-3 3 3 0 0 1 3 3 3 3 0 0 1-3 3 3 3 0 0 1-3-3m0-12.14a3 3 0 0 1 3-3 3 3 0 0 1 3 3 3 3 0 0 1-3 3 3 3 0 0 1-3-3m0-12.14a3 3 0 0 1 3-3 3 3 0 0 1 3 3 3 3 0 0 1-3 3 3 3 0 0 1-3-3m0-12.14a3 3 0 0 1 3-3 3 3 0 0 1 3 3 3 3 0 0 1-3 3 3 3 0 0 1-3-3m0-12.15a3 3 0 0 1 3-3 3 3 0 0 1 3 3 3 3 0 0 1-3 3 3 3 0 0 1-3-3m0-12.14a3 3 0 0 1 3-3 3 3 0 0 1 3 3 3 3 0 0 1-3 3 3 3 0 0 1-3-3m0-12.15a3 3 0 0 1 3-3 3 3 0 0 1 3 3 3 3 0 0 1-3 3 3 3 0 0 1-3-3m0-12.15a3 3 0 0 1 3-3 3 3 0 0 1 3 3 3 3 0 0 1-3 3 3 3 0 0 1-3-3m0-12.14a3 3 0 0 1 3-3 3 3 0 0 1 3 3 3 3 0 0 1-3 3 3 3 0 0 1-3-3m0-12.16a3 3 0 0 1 3-3 3 3 0 0 1 3 3 3 3 0 0 1-3 3 3 3 0 0 1-3-3m0-12.14a3 3 0 0 1 3-3 3 3 0 0 1 3 3 3 3 0 0 1-3 3 3 3 0 0 1-3-3m0-12.15a3 3 0 0 1 3-3 3 3 0 0 1 3 3 3 3 0 0 1-3 3 3 3 0 0 1-3-3m0-12.14a3 3 0 0 1 3-3 3 3 0 0 1 3 3 3 3 0 0 1-3 3 3 3 0 0 1-3-3m0-12.14a3 3 0 0 1 3-3 3 3 0 0 1 3 3 3 3 0 0 1-3 3 3 3 0 0 1-3-3m0-12.14a3 3 0 0 1 3-3 3 3 0 0 1 3 3 3 3 0 0 1-3 3 3 3 0 0 1-3-3m0-12.15a3 3 0 0 1 3-3 3 3 0 0 1 3 3 3 3 0 0 1-3 3 3 3 0 0 1-3-3m0-12.15a3 3 0 0 1 3-3 3 3 0 0 1 3 3 3 3 0 0 1-3 3 3 3 0 0 1-3-3m0-12.14a3 3 0 0 1 3-3 3 3 0 0 1 3 3 3 3 0 0 1-3 3 3 3 0 0 1-3-3m0-12.15a3 3 0 0 1 3-3 3 3 0 0 1 3 3 3 3 0 0 1-3 3 3 3 0 0 1-3-3m0-12.14a3 3 0 0 1 3-3 3 3 0 0 1 3 3 3 3 0 0 1-3 3 3 3 0 0 1-3-3m0-12.16a3 3 0 0 1 3-3 3 3 0 0 1 3 3 3 3 0 0 1-3 3 3 3 0 0 1-3-3m0-12.14a3 3 0 0 1 3-3 3 3 0 0 1 3 3 3 3 0 0 1-3 3 3 3 0 0 1-3-3m0-12.15a3 3 0 0 1 3-3 3 3 0 0 1 3 3 3 3 0 0 1-3 3 3 3 0 0 1-3-3m6-6a3 3 0 0 1 3-3 3 3 0 0 1 3 3 3 3 0 0 1-3 3 3 3 0 0 1-3-3m12.12 0a3 3 0 0 1 3-3 3 3 0 0 1 3 3 3 3 0 0 1-3 3 3 3 0 0 1-3-3m12.12 0a3 3 0 0 1 3-3 3 3 0 0 1 3 3 3 3 0 0 1-3 3 3 3 0 0 1-3-3m12.13 0a3 3 0 0 1 3-3 3 3 0 0 1 3 3 3 3 0 0 1-3 3 3 3 0 0 1-3-3m12.12 0a3 3 0 0 1 3-3 3 3 0 0 1 3 3 3 3 0 0 1-3 3 3 3 0 0 1-3-3m12.1 0a3 3 0 0 1 3-3 3 3 0 0 1 3 3 3 3 0 0 1-3 3 3 3 0 0 1-3-3m12.13 0a3 3 0 0 1 3-3 3 3 0 0 1 3 3 3 3 0 0 1-3 3 3 3 0 0 1-3-3m12.12 0a3 3 0 0 1 3-3 3 3 0 0 1 3 3 3 3 0 0 1-3 3 3 3 0 0 1-3-3m12.13 0a3 3 0 0 1 3-3 3 3 0 0 1 3 3 3 3 0 0 1-3 3 3 3 0 0 1-3-3m12.12 0a3 3 0 0 1 3-3 3 3 0 0 1 3 3 3 3 0 0 1-3 3 3 3 0 0 1-3-3m12.12 0a3 3 0 0 1 3-3 3 3 0 0 1 3 3 3 3 0 0 1-3 3 3 3 0 0 1-3-3m12.12 0a3 3 0 0 1 3-3 3 3 0 0 1 3 3 3 3 0 0 1-3 3 3 3 0 0 1-3-3m12.12 0a3 3 0 0 1 3-3 3 3 0 0 1 3 3 3 3 0 0 1-3 3 3 3 0 0 1-3-3m12.12 0a3 3 0 0 1 3-3 3 3 0 0 1 3 3 3 3 0 0 1-3 3 3 3 0 0 1-3-3m12.13 0a3 3 0 0 1 3-3 3 3 0 0 1 3 3 3 3 0 0 1-3 3 3 3 0 0 1-3-3m12.13 0a3 3 0 0 1 3-3 3 3 0 0 1 3 3 3 3 0 0 1-3 3 3 3 0 0 1-3-3m12.12 0a3 3 0 0 1 3-3 3 3 0 0 1 3 3 3 3 0 0 1-3 3 3 3 0 0 1-3-3m12.12 0a3 3 0 0 1 3-3 3 3 0 0 1 3 3 3 3 0 0 1-3 3 3 3 0 0 1-3-3m12.12 0a3 3 0 0 1 3-3 3 3 0 0 1 3 3 3 3 0 0 1-3 3 3 3 0 0 1-3-3m12.12 0a3 3 0 0 1 3-3 3 3 0 0 1 3 3 3 3 0 0 1-3 3 3 3 0 0 1-3-3m12.12 0a3 3 0 0 1 3-3 3 3 0 0 1 3 3 3 3 0 0 1-3 3 3 3 0 0 1-3-3m12.12 0a3 3 0 0 1 3-3 3 3 0 0 1 3 3 3 3 0 0 1-3 3 3 3 0 0 1-3-3m12.12 0a3 3 0 0 1 3-3 3 3 0 0 1 3 3 3 3 0 0 1-3 3 3 3 0 0 1-3-3m12.12 0a3 3 0 0 1 3-3 3 3 0 0 1 3 3 3 3 0 0 1-3 3 3 3 0 0 1-3-3m12.12 0a3 3 0 0 1 3-3 3 3 0 0 1 3 3 3 3 0 0 1-3 3 3 3 0 0 1-3-3m12.13 0a3 3 0 0 1 3-3 3 3 0 0 1 3 3 3 3 0 0 1-3 3 3 3 0 0 1-3-3m12.12 0a3 3 0 0 1 3-3 3 3 0 0 1 3 3 3 3 0 0 1-3 3 3 3 0 0 1-3-3m12.12 0a3 3 0 0 1 3-3 3 3 0 0 1 3 3 3 3 0 0 1-3 3 3 3 0 0 1-3-3m12.1 0a3 3 0 0 1 3-3 3 3 0 0 1 3 3 3 3 0 0 1-3 3 3 3 0 0 1-3-3m12.13 0a3 3 0 0 1 3-3 3 3 0 0 1 3 3 3 3 0 0 1-3 3 3 3 0 0 1-3-3m12.13 0a3 3 0 0 1 3-3 3 3 0 0 1 3 3 3 3 0 0 1-3 3 3 3 0 0 1-3-3m12.12 0a3 3 0 0 1 3-3 3 3 0 0 1 3 3 3 3 0 0 1-3 3 3 3 0 0 1-3-3m12.12 0a3 3 0 0 1 3-3 3 3 0 0 1 3 3 3 3 0 0 1-3 3 3 3 0 0 1-3-3m12.12 0a3 3 0 0 1 3-3 3 3 0 0 1 3 3 3 3 0 0 1-3 3 3 3 0 0 1-3-3" fill="#f89e5d"/><path d="M558 484.56h-3.1v-5.95h3.1z" stroke="#f89e5d" stroke-width=".05" fill="#f89e5d"/><path d="M1045.4 141.65l-14.26 4.64V137z" stroke="#f89e5d" stroke-width="6" fill="#f89e5d"/><path d="M1296.43 145.25a3 3 0 0 1 3-3 3 3 0 0 1 3 3 3 3 0 0 1-3 3 3 3 0 0 1-3-3m11.93 0a3 3 0 0 1 3-3 3 3 0 0 1 3 3 3 3 0 0 1-3 3 3 3 0 0 1-3-3m11.93 0a3 3 0 0 1 3-3 3 3 0 0 1 3 3 3 3 0 0 1-3 3 3 3 0 0 1-3-3m6-6a3 3 0 0 1 3-3 3 3 0 0 1 3 3 3 3 0 0 1-3 3 3 3 0 0 1-3-3m0-12.58a3 3 0 0 1 3-3 3 3 0 0 1 3 3 3 3 0 0 1-3 3 3 3 0 0 1-3-3m0-12.6a3 3 0 0 1 3-3 3 3 0 0 1 3 3 3 3 0 0 1-3 3 3 3 0 0 1-3-3m0-12.57a3 3 0 0 1 3-3 3 3 0 0 1 3 3 3 3 0 0 1-3 3 3 3 0 0 1-3-3m0-12.6a3 3 0 0 1 3-3 3 3 0 0 1 3 3 3 3 0 0 1-3 3 3 3 0 0 1-3-3m0-12.57a3 3 0 0 1 3-3 3 3 0 0 1 3 3 3 3 0 0 1-3 3 3 3 0 0 1-3-3m0-12.6a3 3 0 0 1 3-3 3 3 0 0 1 3 3 3 3 0 0 1-3 3 3 3 0 0 1-3-3m0-12.57a3 3 0 0 1 3-3 3 3 0 0 1 3 3 3 3 0 0 1-3 3 3 3 0 0 1-3-3m0-12.6a3 3 0 0 1 3-3 3 3 0 0 1 3 3 3 3 0 0 1-3 3 3 3 0 0 1-3-3m0-12.57a3 3 0 0 1 3-3 3 3 0 0 1 3 3 3 3 0 0 1-3 3 3 3 0 0 1-3-3m5.87-5.9a3 3 0 0 1 3-3 3 3 0 0 1 3 3 3 3 0 0 1-3 3 3 3 0 0 1-3-3" fill="#f89e5d"/><path d="M1299.5 148.23h-3.07v-5.95h3.08z" stroke="#f89e5d" stroke-width=".05" fill="#f89e5d"/><path d="M1352.44 20.1l-14.27 4.64v-9.27z" stroke="#f89e5d" stroke-width="6" fill="#f89e5d"/><path d="M102.38 940h22.77M102.42 940h-1.54" stroke="#136a7f" stroke-width="3" fill="none"/><path d="M140.9 940l-14.25 4.63v-9.26z" stroke="#136a7f" stroke-width="3" fill="#136a7f"/><path d="M102.38 990.65h22.77M102.42 990.65h-1.54" stroke="#f89e5d" stroke-width="3" fill="none"/><path d="M140.9 990.65l-14.25 4.63V986z" stroke="#f89e5d" stroke-width="3" fill="#f89e5d"/><path d="M160 422.67a6 6 0 0 1 6-6h378.7a6 6 0 0 1 6 6v117.3a6 6 0 0 1-6 6H166a6 6 0 0 1-6-6z" fill="none"/><use xlink:href="#t" transform="matrix(1,0,0,1,165.00000000000003,421.67142091714925) translate(53.88541666666666 31.61458333333333)"/><use xlink:href="#u" transform="matrix(1,0,0,1,165.00000000000003,421.67142091714925) translate(115.4609375 31.61458333333333)"/><use xlink:href="#v" transform="matrix(1,0,0,1,165.00000000000003,421.67142091714925) translate(237.47916666666666 31.61458333333333)"/><use xlink:href="#w" transform="matrix(1,0,0,1,165.00000000000003,421.67142091714925) translate(14.705729166666657 69.11458333333333)"/><use xlink:href="#x" transform="matrix(1,0,0,1,165.00000000000003,421.67142091714925) translate(76.515625 69.11458333333333)"/><use xlink:href="#y" transform="matrix(1,0,0,1,165.00000000000003,421.67142091714925) translate(196.03385416666666 69.11458333333333)"/><use xlink:href="#z" transform="matrix(1,0,0,1,165.00000000000003,421.67142091714925) translate(322.03645833333337 69.11458333333333)"/><use xlink:href="#A" transform="matrix(1,0,0,1,165.00000000000003,421.67142091714925) translate(16.01432291666663 106.61458333333334)"/><use xlink:href="#B" transform="matrix(1,0,0,1,165.00000000000003,421.67142091714925) translate(151.27473958333331 106.61458333333334)"/><use xlink:href="#C" transform="matrix(1,0,0,1,165.00000000000003,421.67142091714925) translate(207.78515625 106.61458333333334)"/><use xlink:href="#D" transform="matrix(1,0,0,1,165.00000000000003,421.67142091714925) translate(294.24348958333337 106.61458333333334)"/><path d="M100.88 880a1.5 1.5 0 0 1 1.5-1.5 1.5 1.5 0 0 1 1.5 1.5 1.5 1.5 0 0 1-1.5 1.5 1.5 1.5 0 0 1-1.5-1.5m5.7 0a1.5 1.5 0 0 1 1.5-1.5 1.5 1.5 0 0 1 1.5 1.5 1.5 1.5 0 0 1-1.5 1.5 1.5 1.5 0 0 1-1.5-1.5m5.7 0a1.5 1.5 0 0 1 1.48-1.5 1.5 1.5 0 0 1 1.5 1.5 1.5 1.5 0 0 1-1.5 1.5 1.5 1.5 0 0 1-1.5-1.5m5.7 0a1.5 1.5 0 0 1 1.5-1.5 1.5 1.5 0 0 1 1.5 1.5 1.5 1.5 0 0 1-1.5 1.5 1.5 1.5 0 0 1-1.5-1.5" fill="#97928c"/><path d="M102.42 880h-1.54" stroke="#97928c" stroke-width="3" fill="none"/><path d="M140.9 880l-14.25 4.63v-9.26z" stroke="#97928c" stroke-width="3" fill="#97928c"/><path d="M180 856.65a6 6 0 0 1 6-6h198.62a6 6 0 0 1 6 6v46.7a6 6 0 0 1-6 6H186a6 6 0 0 1-6-6z" fill="none"/><g><use xlink:href="#o" transform="matrix(1,0,0,1,180,850.6457164737849) translate(0 23.060763888888893)"/><use xlink:href="#E" transform="matrix(1,0,0,1,180,850.6457164737849) translate(72.99479166666667 23.060763888888893)"/><use xlink:href="#F" transform="matrix(1,0,0,1,180,850.6457164737849) translate(156.73611111111114 23.060763888888893)"/><use xlink:href="#G" transform="matrix(1,0,0,1,180,850.6457164737849) translate(0 48.873263888888886)"/><use xlink:href="#H" transform="matrix(1,0,0,1,180,850.6457164737849) translate(72.78645833333334 48.873263888888886)"/></g><path d="M180 1036.65a6 6 0 0 1 6-6h198.62a6 6 0 0 1 6 6v28a6 6 0 0 1-6 6H186a6 6 0 0 1-6-6z" fill="none"/><g><use xlink:href="#g" transform="matrix(1,0,0,1,180,1030.645716473785) translate(0 17.22222222222222)"/><use xlink:href="#E" transform="matrix(1,0,0,1,180,1030.645716473785) translate(43.69791666666667 17.22222222222222)"/><use xlink:href="#I" transform="matrix(1,0,0,1,180,1030.645716473785) translate(127.43923611111113 17.22222222222222)"/><use xlink:href="#J" transform="matrix(1,0,0,1,180,1030.645716473785) translate(0 43.034722222222214)"/><use xlink:href="#H" transform="matrix(1,0,0,1,180,1030.645716473785) translate(72.78645833333334 43.034722222222214)"/></g><path d="M100.88 1050.65a1.5 1.5 0 0 1 1.5-1.5 1.5 1.5 0 0 1 1.5 1.5 1.5 1.5 0 0 1-1.5 1.5 1.5 1.5 0 0 1-1.5-1.5m5.7 0a1.5 1.5 0 0 1 1.5-1.5 1.5 1.5 0 0 1 1.5 1.5 1.5 1.5 0 0 1-1.5 1.5 1.5 1.5 0 0 1-1.5-1.5m5.7 0a1.5 1.5 0 0 1 1.48-1.5 1.5 1.5 0 0 1 1.5 1.5 1.5 1.5 0 0 1-1.5 1.5 1.5 1.5 0 0 1-1.5-1.5m5.7 0a1.5 1.5 0 0 1 1.5-1.5 1.5 1.5 0 0 1 1.5 1.5 1.5 1.5 0 0 1-1.5 1.5 1.5 1.5 0 0 1-1.5-1.5" fill="#f89e5d"/><path d="M102.42 1050.65h-1.54" stroke="#f89e5d" stroke-width="3" fill="none"/><path d="M140.9 1050.65l-14.25 4.63V1046z" stroke="#f89e5d" stroke-width="3" fill="#f89e5d"/><path d="M-650.6 526a6 6 0 0 1 6-6h226.7a6 6 0 0 1 6 6v108a6 6 0 0 1-6 6h-226.7a6 6 0 0 1-6-6z" stroke="#000" stroke-width="3" fill="#fff"/><g><use xlink:href="#K" transform="matrix(1,0,0,1,-638.5979897925464,532) translate(1.3411458333333286 39.739583333333336)"/><use xlink:href="#L" transform="matrix(1,0,0,1,-638.5979897925464,532) translate(106.00260416666666 39.739583333333336)"/><use xlink:href="#M" transform="matrix(1,0,0,1,-638.5979897925464,532) translate(52.467447916666664 77.23958333333334)"/></g><path d="M1400 237.3a6 6 0 0 1 6-6h226.7a6 6 0 0 1 6 6v107.85a6 6 0 0 1-6 6H1406a6 6 0 0 1-6-6z" stroke="#000" stroke-width="3" fill="#fff"/><g><use xlink:href="#K" transform="matrix(1,0,0,1,1412,243.3017097943449) translate(1.3411458333333286 39.739583333333336)"/><use xlink:href="#L" transform="matrix(1,0,0,1,1412,243.3017097943449) translate(106.00260416666666 39.739583333333336)"/><use xlink:href="#M" transform="matrix(1,0,0,1,1412,243.3017097943449) translate(52.467447916666664 77.23958333333334)"/></g><path d="M708.05 626a6 6 0 0 1 6-6h250.3a6 6 0 0 1 6 6v98.25a6 6 0 0 1-6 6h-250.3a6 6 0 0 1-6-6z" stroke="#000" stroke-width="3" fill="#fff"/><g><use xlink:href="#N" transform="matrix(1,0,0,1,720.0503612248938,632) translate(37.59244791666667 32.895833333333336)"/><use xlink:href="#O" transform="matrix(1,0,0,1,720.0503612248938,632) translate(7.319010416666657 70.39583333333334)"/><use xlink:href="#M" transform="matrix(1,0,0,1,720.0503612248938,632) translate(121.61588541666667 70.39583333333334)"/></g><defs><path d="M1315 0h-300v-624H430V0H130v-1456h300v590h585v-590h300V0" id="P"/><path d="M515-409l200-673h310L590 168c-66 202-236 321-472 250V199c127 7 198-15 230-107l34-89L3-1082h311" id="Q"/><path d="M663-1102c295 0 423 246 423 571 0 313-131 551-421 551-117 0-211-45-281-135L371 0H111v-1536h289v551c67-78 154-117 263-117zm-71 889c164 0 209-139 205-339-3-189-44-315-207-315-92 0-155 38-190 113v427c35 76 99 114 192 114" id="R"/><path d="M719-811c-143-24-279 1-319 103V0H111v-1082h273l8 129c74-124 180-175 331-136" id="S"/><path d="M416 0H126v-1082h290V0zM271-1212c-92 0-162-61-162-150s68-149 162-149c93 0 162 60 162 149s-70 150-162 150" id="T"/><path d="M488 20C204 20 66-234 66-549c0-305 140-551 424-553 105 0 192 39 261 118v-552h290V0H780l-14-115C694-25 601 20 488 20zM355-528c0 176 51 314 207 314 89 0 152-38 189-113v-427c-36-75-98-113-187-113-139 0-209 113-209 339" id="U"/><g id="a"><use transform="matrix(0.026041666666666668,0,0,0.026041666666666668,0,0)" xlink:href="#P"/><use transform="matrix(0.026041666666666668,0,0,0.026041666666666668,37.68229166666667,0)" xlink:href="#Q"/><use transform="matrix(0.026041666666666668,0,0,0.026041666666666668,64.453125,0)" xlink:href="#R"/><use transform="matrix(0.026041666666666668,0,0,0.026041666666666668,94.47916666666667,0)" xlink:href="#S"/><use transform="matrix(0.026041666666666668,0,0,0.026041666666666668,113.93229166666667,0)" xlink:href="#T"/><use transform="matrix(0.026041666666666668,0,0,0.026041666666666668,128.07291666666669,0)" xlink:href="#U"/></g><path d="M522-1456L896-400l372-1056h394V0h-301c-7-379 15-728 30-1085L998 0H792L400-1084c15 357 37 705 30 1084H130v-1456h392" id="V"/><path d="M552-1102c254-4 435 134 435 383v469c1 103 15 180 43 233V0H738c-13-26-23-58-29-97C639-19 548 20 436 20 238 20 64-113 68-304c5-258 212-357 496-357h133c11-137-29-227-160-227-90 0-156 45-156 131H92c15-231 213-342 460-345zM357-325c0 76 61 124 142 124 88 0 168-45 198-105v-186H589c-152 2-232 51-232 167" id="W"/><path d="M750-692c-1-124-48-174-173-175-81 0-142 35-183 104V0H105v-1082h272l9 125c77-97 181-145 311-145 244 0 342 151 342 403V0H750v-692" id="X"/><path d="M505 20C221 18 69-239 69-549c0-302 153-553 438-553 119 0 211 41 277 122l12-102h262V-36c-8 305-208 458-520 462-160 1-335-76-403-170L263 80c72 81 159 121 262 121 172 1 260-107 243-294C701-18 614 20 505 20zm76-887c-165 0-223 147-223 339 0 172 66 314 221 314 88 0 151-33 189-99v-455c-39-66-101-99-187-99" id="Y"/><path d="M1031-175C952-60 797 20 609 20 287 20 60-206 72-543c12-330 180-559 505-559 309 0 482 214 477 537v118H365c15 134 115 234 263 234 111 0 198-40 261-121zM770-644c5-139-62-226-194-224-130 1-191 97-208 224h402" id="Z"/><g id="b"><use transform="matrix(0.026041666666666668,0,0,0.026041666666666668,0,0)" xlink:href="#V"/><use transform="matrix(0.026041666666666668,0,0,0.026041666666666668,46.71875,0)" xlink:href="#W"/><use transform="matrix(0.026041666666666668,0,0,0.026041666666666668,75.3125,0)" xlink:href="#X"/><use transform="matrix(0.026041666666666668,0,0,0.026041666666666668,105.18229166666667,0)" xlink:href="#W"/><use transform="matrix(0.026041666666666668,0,0,0.026041666666666668,133.77604166666669,0)" xlink:href="#Y"/><use transform="matrix(0.026041666666666668,0,0,0.026041666666666668,164.21875000000003,0)" xlink:href="#Z"/><use transform="matrix(0.026041666666666668,0,0,0.026041666666666668,193.04687500000003,0)" xlink:href="#S"/></g><path fill="#fff" d="M130 0v-1456h448c435 14 673 299 665 762-5 285-130 500-319 606C822-31 708 0 581 0H130zm809-685c9-311-79-526-361-528H430v972h145c252-2 356-181 364-444" id="aa"/><path fill="#fff" d="M522-1456L896-400l372-1056h394V0h-301c-7-379 15-728 30-1085L998 0H792L400-1084c15 357 37 705 30 1084H130v-1456h392" id="ab"/><path fill="#fff" d="M658-217c127 0 227-49 227-165 0-57-21-98-60-130-79-64-370-142-463-196-162-95-248-210-248-361 0-280 246-403 537-407 213-3 383 84 467 216 45 69 68 147 68 234H886c0-139-96-211-240-211-129 0-232 55-232 169 0 47 24 87 72 119s117 62 210 90c171 51 295 115 373 191s117 171 117 284c-2 272-237 411-528 404C331 13 78-135 69-458h301c0 161 96 241 288 241" id="ac"/><g id="c"><use transform="matrix(0.015190972222222224,0,0,0.015190972222222224,0,0)" xlink:href="#aa"/><use transform="matrix(0.015190972222222224,0,0,0.015190972222222224,20.21918402777778,0)" xlink:href="#ab"/><use transform="matrix(0.015190972222222224,0,0,0.015190972222222224,47.47178819444444,0)" xlink:href="#ac"/></g><path fill="#fff" d="M1264-420l196-1036h299L1436 0h-302L897-974 660 0H358L35-1456h299L531-422l240-1034h254" id="ad"/><path fill="#fff" d="M719-811c-143-24-279 1-319 103V0H111v-1082h273l8 129c74-124 180-175 331-136" id="ae"/><path fill="#fff" d="M416 0H126v-1082h290V0zM271-1212c-92 0-162-61-162-150s68-149 162-149c93 0 162 60 162 149s-70 150-162 150" id="af"/><path fill="#fff" d="M457-330c2 83 25 111 111 112 32 0 60-2 85-7V-6c-57 17-115 26-175 26-203 0-310-102-310-307v-583H10v-212h158v-266h289v266h185v212H457v540" id="ag"/><path fill="#fff" d="M1031-175C952-60 797 20 609 20 287 20 60-206 72-543c12-330 180-559 505-559 309 0 482 214 477 537v118H365c15 134 115 234 263 234 111 0 198-40 261-121zM770-644c5-139-62-226-194-224-130 1-191 97-208 224h402" id="ah"/><g id="d"><use transform="matrix(0.015190972222222224,0,0,0.015190972222222224,0,0)" xlink:href="#ad"/><use transform="matrix(0.015190972222222224,0,0,0.015190972222222224,26.888020833333336,0)" xlink:href="#ae"/><use transform="matrix(0.015190972222222224,0,0,0.015190972222222224,38.235677083333336,0)" xlink:href="#af"/><use transform="matrix(0.015190972222222224,0,0,0.015190972222222224,46.484375,0)" xlink:href="#ag"/><use transform="matrix(0.015190972222222224,0,0,0.015190972222222224,56.99652777777778,0)" xlink:href="#ah"/><use transform="matrix(0.015190972222222224,0,0,0.015190972222222224,73.81293402777777,0)" xlink:href="#ae"/></g><path fill="#fff" d="M952-300H426L326 0H7l542-1456h278L1372 0h-319zM507-543h364l-183-545" id="ai"/><path fill="#fff" d="M505 20C221 18 69-239 69-549c0-302 153-553 438-553 119 0 211 41 277 122l12-102h262V-36c-8 305-208 458-520 462-160 1-335-76-403-170L263 80c72 81 159 121 262 121 172 1 260-107 243-294C701-18 614 20 505 20zm76-887c-165 0-223 147-223 339 0 172 66 314 221 314 88 0 151-33 189-99v-455c-39-66-101-99-187-99" id="aj"/><path fill="#fff" d="M750-692c-1-124-48-174-173-175-81 0-142 35-183 104V0H105v-1082h272l9 125c77-97 181-145 311-145 244 0 342 151 342 403V0H750v-692" id="ak"/><g id="e"><use transform="matrix(0.015190972222222224,0,0,0.015190972222222224,0,0)" xlink:href="#ai"/><use transform="matrix(0.015190972222222224,0,0,0.015190972222222224,20.933159722222225,0)" xlink:href="#aj"/><use transform="matrix(0.015190972222222224,0,0,0.015190972222222224,38.69140625,0)" xlink:href="#ah"/><use transform="matrix(0.015190972222222224,0,0,0.015190972222222224,55.5078125,0)" xlink:href="#ak"/><use transform="matrix(0.015190972222222224,0,0,0.015190972222222224,72.93185763888889,0)" xlink:href="#ag"/></g><path fill="#fff" d="M1209-1016c0 219-100 334-260 407l315 595V0H942L669-533H430V0H130v-1456h541c318-3 538 141 538 440zm-300 24c-1-144-85-221-238-221H430v437h242c144 2 238-77 237-216" id="al"/><path fill="#fff" d="M552-1102c254-4 435 134 435 383v469c1 103 15 180 43 233V0H738c-13-26-23-58-29-97C639-19 548 20 436 20 238 20 64-113 68-304c5-258 212-357 496-357h133c11-137-29-227-160-227-90 0-156 45-156 131H92c15-231 213-342 460-345zM357-325c0 76 61 124 142 124 88 0 168-45 198-105v-186H589c-152 2-232 51-232 167" id="am"/><path fill="#fff" d="M488 20C204 20 66-234 66-549c0-305 140-551 424-553 105 0 192 39 261 118v-552h290V0H780l-14-115C694-25 601 20 488 20zM355-528c0 176 51 314 207 314 89 0 152-38 189-113v-427c-36-75-98-113-187-113-139 0-209 113-209 339" id="an"/><g id="f"><use transform="matrix(0.015190972222222224,0,0,0.015190972222222224,0,0)" xlink:href="#al"/><use transform="matrix(0.015190972222222224,0,0,0.015190972222222224,19.854600694444446,0)" xlink:href="#ah"/><use transform="matrix(0.015190972222222224,0,0,0.015190972222222224,36.67100694444444,0)" xlink:href="#am"/><use transform="matrix(0.015190972222222224,0,0,0.015190972222222224,53.35069444444444,0)" xlink:href="#an"/><use transform="matrix(0.015190972222222224,0,0,0.015190972222222224,70.88107638888889,0)" xlink:href="#ah"/><use transform="matrix(0.015190972222222224,0,0,0.015190972222222224,87.69748263888889,0)" xlink:href="#ae"/></g><path d="M645 0H180v-1490h484c435 0 692 280 692 742 0 466-257 748-711 748zM370-168h263c363 0 539-218 539-580 0-358-176-574-521-574H370v1154" id="ao"/><path d="M471 26C259 26 90-98 90-318c0-256 228-303 435-329 202-27 287-16 287-108 0-139-79-219-234-219-161 0-248 86-283 164l-173-57c86-203 278-265 451-265 150 0 419 46 419 395V0H815v-152h-12C765-73 660 26 471 26zm31-159c199 0 310-134 310-271v-155c-30 35-226 55-295 64-131 17-246 59-246 186 0 116 97 176 231 176" id="ap"/><path d="M598-1118v154H368v674c0 100 37 144 132 144 23 0 62-6 92-12L629-6c-37 13-88 20-134 20-193 0-307-107-307-290v-688H20v-154h168v-266h180v266h230" id="aq"/><g id="g"><use transform="matrix(0.008680555555555556,0,0,0.008680555555555556,0,0)" xlink:href="#ao"/><use transform="matrix(0.008680555555555556,0,0,0.008680555555555556,12.829861111111112,0)" xlink:href="#ap"/><use transform="matrix(0.008680555555555556,0,0,0.008680555555555556,22.8125,0)" xlink:href="#aq"/><use transform="matrix(0.008680555555555556,0,0,0.008680555555555556,28.71527777777778,0)" xlink:href="#ap"/></g><path d="M158 0v-1118h175l1 205c55-151 181-225 313-225 147 0 245 90 285 228 53-141 190-228 352-228 194 0 352 125 352 384V0h-181v-749c0-161-105-225-225-225-151 0-243 103-243 244V0H807v-767c0-124-93-207-219-207-131 0-250 92-250 270V0H158" id="ar"/><path d="M158 0v-1118h180V0H158zm91-1301c-68 0-125-53-125-119s57-119 125-119c69 0 126 53 126 119s-57 119-126 119" id="as"/><path d="M611 442c-248 0-391-105-460-228l146-94c47 65 117 165 314 165 178 0 307-82 307-266v-224h-17C863-141 792-18 576-18c-268 0-472-195-472-546 0-346 197-568 476-568 216 0 288 133 326 193h17v-179h175V29c0 289-215 413-487 413zm-5-620c203 0 314-146 314-390 0-237-108-403-314-403-213 0-319 180-319 403 0 230 109 390 319 390" id="at"/><path d="M158 0v-1118h174v172h12c41-113 157-188 290-188 26 0 70 2 91 3v181c-11-2-60-10-108-10-161 0-279 109-279 260V0H158" id="au"/><path d="M613 24c-304 0-509-231-509-576 0-350 205-580 509-580 305 0 511 230 511 580 0 345-206 576-511 576zm0-161c226 0 329-195 329-415 0-222-103-419-329-419-223 0-326 196-326 419 0 220 103 415 326 415" id="av"/><path d="M338-670V0H158v-1118h173l1 207c72-158 192-221 342-221 226 0 378 139 378 422V0H872v-695c0-172-96-275-252-275-161 0-282 109-282 300" id="aw"/><g id="h"><use transform="matrix(0.008680555555555556,0,0,0.008680555555555556,0,0)" xlink:href="#ar"/><use transform="matrix(0.008680555555555556,0,0,0.008680555555555556,15.572916666666668,0)" xlink:href="#as"/><use transform="matrix(0.008680555555555556,0,0,0.008680555555555556,19.87847222222222,0)" xlink:href="#at"/><use transform="matrix(0.008680555555555556,0,0,0.008680555555555556,30.78125,0)" xlink:href="#au"/><use transform="matrix(0.008680555555555556,0,0,0.008680555555555556,37.473958333333336,0)" xlink:href="#ap"/><use transform="matrix(0.008680555555555556,0,0,0.008680555555555556,47.456597222222236,0)" xlink:href="#aq"/><use transform="matrix(0.008680555555555556,0,0,0.008680555555555556,53.27256944444445,0)" xlink:href="#as"/><use transform="matrix(0.008680555555555556,0,0,0.008680555555555556,57.57812500000001,0)" xlink:href="#av"/><use transform="matrix(0.008680555555555556,0,0,0.008680555555555556,68.23784722222223,0)" xlink:href="#aw"/></g><path d="M52 0l541-1490h220L1361 0h-200l-149-416H398L254 0H52zm404-582h497c-103-290-145-390-251-756-108 377-145 460-246 756" id="ax"/><path d="M628 24c-324 0-524-230-524-574 0-343 198-582 503-582 237 0 487 146 487 559v75H286c9 234 145 362 343 362 132 0 231-58 273-172l174 48C1024-91 857 24 628 24zM287-650h624c-17-190-120-322-304-322-192 0-309 151-320 322" id="ay"/><g id="i"><use transform="matrix(0.008680555555555556,0,0,0.008680555555555556,0,0)" xlink:href="#ax"/><use transform="matrix(0.008680555555555556,0,0,0.008680555555555556,12.265625,0)" xlink:href="#at"/><use transform="matrix(0.008680555555555556,0,0,0.008680555555555556,23.16840277777778,0)" xlink:href="#ay"/><use transform="matrix(0.008680555555555556,0,0,0.008680555555555556,33.532986111111114,0)" xlink:href="#aw"/><use transform="matrix(0.008680555555555556,0,0,0.008680555555555556,44.036458333333336,0)" xlink:href="#aq"/></g><path d="M538 24C308 24 148-78 108-271l171-41c32 123 123 178 257 178 156 0 256-77 256-169 0-77-54-128-164-154l-186-44c-203-48-300-148-300-305 0-192 176-326 414-326 230 0 351 112 402 269l-163 42c-31-80-94-158-238-158-133 0-233 69-233 162 0 83 57 129 188 160l169 40c203 48 298 149 298 302 0 196-179 339-441 339" id="az"/><g id="j"><use transform="matrix(0.008680555555555556,0,0,0.008680555555555556,0,0)" xlink:href="#au"/><use transform="matrix(0.008680555555555556,0,0,0.008680555555555556,6.397569444444445,0)" xlink:href="#ay"/><use transform="matrix(0.008680555555555556,0,0,0.008680555555555556,16.76215277777778,0)" xlink:href="#at"/><use transform="matrix(0.008680555555555556,0,0,0.008680555555555556,27.664930555555557,0)" xlink:href="#as"/><use transform="matrix(0.008680555555555556,0,0,0.008680555555555556,31.970486111111114,0)" xlink:href="#az"/><use transform="matrix(0.008680555555555556,0,0,0.008680555555555556,41.35416666666667,0)" xlink:href="#aq"/><use transform="matrix(0.008680555555555556,0,0,0.008680555555555556,47.17013888888889,0)" xlink:href="#au"/><use transform="matrix(0.008680555555555556,0,0,0.008680555555555556,53.86284722222222,0)" xlink:href="#ap"/><use transform="matrix(0.008680555555555556,0,0,0.008680555555555556,63.845486111111114,0)" xlink:href="#aq"/><use transform="matrix(0.008680555555555556,0,0,0.008680555555555556,69.66145833333334,0)" xlink:href="#as"/><use transform="matrix(0.008680555555555556,0,0,0.008680555555555556,73.96701388888889,0)" xlink:href="#av"/><use transform="matrix(0.008680555555555556,0,0,0.008680555555555556,84.62673611111113,0)" xlink:href="#aw"/></g><path fill="#fff" d="M579 20C257 20 58-214 66-551c8-331 182-551 511-551 324 0 514 231 514 572 0 319-198 550-512 550zm-2-888c-169 0-222 141-222 338 0 181 61 317 224 317 170 0 223-137 223-338 0-178-64-317-225-317" id="aA"/><g id="k"><use transform="matrix(0.015190972222222224,0,0,0.015190972222222224,0,0)" xlink:href="#ab"/><use transform="matrix(0.015190972222222224,0,0,0.015190972222222224,27.252604166666668,0)" xlink:href="#af"/><use transform="matrix(0.015190972222222224,0,0,0.015190972222222224,35.501302083333336,0)" xlink:href="#aj"/><use transform="matrix(0.015190972222222224,0,0,0.015190972222222224,53.259548611111114,0)" xlink:href="#ae"/><use transform="matrix(0.015190972222222224,0,0,0.015190972222222224,64.15147569444446,0)" xlink:href="#am"/><use transform="matrix(0.015190972222222224,0,0,0.015190972222222224,80.83116319444446,0)" xlink:href="#ag"/><use transform="matrix(0.015190972222222224,0,0,0.015190972222222224,91.34331597222223,0)" xlink:href="#af"/><use transform="matrix(0.015190972222222224,0,0,0.015190972222222224,99.5920138888889,0)" xlink:href="#aA"/><use transform="matrix(0.015190972222222224,0,0,0.015190972222222224,117.18315972222223,0)" xlink:href="#ak"/></g><path fill="#fff" d="M1226-1213H780V0H480v-1213H40v-243h1186v243" id="aB"/><path fill="#fff" d="M416 0H126v-1536h290V0" id="aC"/><path fill="#fff" d="M504-434L400-330V0H111v-1536h289v851c106-137 222-264 333-397h347L689-631 1114 0H782" id="aD"/><g id="l"><use transform="matrix(0.015190972222222224,0,0,0.015190972222222224,0,0)" xlink:href="#aB"/><use transform="matrix(0.015190972222222224,0,0,0.015190972222222224,16.087239583333336,0)" xlink:href="#aA"/><use transform="matrix(0.015190972222222224,0,0,0.015190972222222224,33.67838541666667,0)" xlink:href="#aA"/><use transform="matrix(0.015190972222222224,0,0,0.015190972222222224,51.26953125000001,0)" xlink:href="#aC"/><use transform="matrix(0.015190972222222224,0,0,0.015190972222222224,59.51822916666667,0)" xlink:href="#aD"/><use transform="matrix(0.015190972222222224,0,0,0.015190972222222224,76.13715277777779,0)" xlink:href="#af"/><use transform="matrix(0.015190972222222224,0,0,0.015190972222222224,84.38585069444446,0)" xlink:href="#ag"/></g><path fill="#fff" d="M369-598c0 393 97 738 310 900l-56 153c-200-92-361-334-433-572-84-277-87-628-5-911 71-244 234-495 438-588l56 156c-205 153-310 488-310 862" id="aE"/><g id="m"><use transform="matrix(0.015190972222222224,0,0,0.015190972222222224,0,0)" xlink:href="#aE"/><use transform="matrix(0.015190972222222224,0,0,0.015190972222222224,10.922309027777779,0)" xlink:href="#aA"/><use transform="matrix(0.015190972222222224,0,0,0.015190972222222224,28.513454861111114,0)" xlink:href="#ae"/></g><path fill="#fff" d="M663-1102c295 0 422 250 422 571 0 300-141 549-420 551-109 0-198-38-265-114v510H111v-1498h268l10 106c70-84 161-126 274-126zm133 550c0-175-53-315-209-315-91 0-153 35-187 104v443c35 71 98 107 189 107 138 0 207-113 207-339" id="aF"/><path fill="#fff" d="M912 226H1V0h911v226" id="aG"/><path fill="#fff" d="M463 20c-241-1-359-147-359-393v-709h289v699c0 113 51 169 154 169 98 0 165-34 202-102v-766h290V0H767l-8-110C688-23 589 20 463 20" id="aH"/><path fill="#fff" d="M741-689c-2-124-40-177-163-178-82 0-141 34-178 102V0H111v-1082h271l9 121c77-94 180-141 311-141 139 0 235 55 287 165 76-110 184-165 325-165 249 0 348 151 348 411V0h-290v-690c-2-123-39-176-163-177-87 0-147 41-180 124l1 743H741v-689" id="aI"/><path fill="#fff" d="M349-541c6-400-96-755-309-922l56-153c203 91 368 336 444 575 89 280 91 621 4 907-74 244-242 497-448 589L40 302c199-150 304-484 309-843" id="aJ"/><g id="n"><use transform="matrix(0.015190972222222224,0,0,0.015190972222222224,0,0)" xlink:href="#aF"/><use transform="matrix(0.015190972222222224,0,0,0.015190972222222224,17.515190972222225,0)" xlink:href="#aj"/><use transform="matrix(0.015190972222222224,0,0,0.015190972222222224,35.2734375,0)" xlink:href="#aG"/><use transform="matrix(0.015190972222222224,0,0,0.015190972222222224,49.157986111111114,0)" xlink:href="#an"/><use transform="matrix(0.015190972222222224,0,0,0.015190972222222224,66.68836805555556,0)" xlink:href="#aH"/><use transform="matrix(0.015190972222222224,0,0,0.015190972222222224,84.09722222222223,0)" xlink:href="#aI"/><use transform="matrix(0.015190972222222224,0,0,0.015190972222222224,111.03081597222223,0)" xlink:href="#aF"/><use transform="matrix(0.015190972222222224,0,0,0.015190972222222224,128.54600694444446,0)" xlink:href="#aJ"/></g><path d="M657 26c-323 0-524-166-541-416h195c15 169 171 246 346 246 202 0 356-106 356-265 5-203-294-238-475-293-239-73-380-191-380-389 0-252 224-419 512-419 294 0 499 171 508 396H992c-17-145-151-228-328-228-193 0-321 102-321 242 0 156 175 211 284 241l149 41c160 44 422 134 422 412 0 244-197 432-541 432" id="aK"/><path d="M613 24c-304 0-509-231-509-576 0-350 205-580 509-580 216 0 392 114 453 309l-173 49c-33-115-133-197-280-197-223 0-326 196-326 419 0 220 103 415 326 415 150 0 252-85 285-206l172 49C1010-95 832 24 613 24" id="aL"/><path d="M338-670V0H158v-1490h180v566c73-149 190-208 336-208 226 0 379 139 379 422V0H872v-695c0-172-96-275-252-275-161 0-282 109-282 300" id="aM"/><g id="o"><use transform="matrix(0.008680555555555556,0,0,0.008680555555555556,0,0)" xlink:href="#aK"/><use transform="matrix(0.008680555555555556,0,0,0.008680555555555556,11.40625,0)" xlink:href="#aL"/><use transform="matrix(0.008680555555555556,0,0,0.008680555555555556,21.5625,0)" xlink:href="#aM"/><use transform="matrix(0.008680555555555556,0,0,0.008680555555555556,32.07465277777778,0)" xlink:href="#ay"/><use transform="matrix(0.008680555555555556,0,0,0.008680555555555556,42.439236111111114,0)" xlink:href="#ar"/><use transform="matrix(0.008680555555555556,0,0,0.008680555555555556,58.012152777777786,0)" xlink:href="#ap"/></g><g id="p"><use transform="matrix(0.013020833333333334,0,0,0.013020833333333334,0,0)" xlink:href="#P"/><use transform="matrix(0.013020833333333334,0,0,0.013020833333333334,18.841145833333336,0)" xlink:href="#V"/></g><path d="M687-225c189-1 272-84 286-260h300c-19 311-251 505-586 505C296 20 86-277 86-686c0-466 174-782 605-790 340-6 557 198 584 514H975c-15-183-92-268-284-268-100 0-173 38-225 108-63 84-76 264-76 443 0 157 24 272 72 345s122 109 225 109" id="aN"/><path d="M579 20C257 20 58-214 66-551c8-331 182-551 511-551 324 0 514 231 514 572 0 319-198 550-512 550zm-2-888c-169 0-222 141-222 338 0 181 61 317 224 317 170 0 223-137 223-338 0-178-64-317-225-317" id="aO"/><path d="M529-185c94 0 168-33 168-114 0-35-18-63-53-83s-91-39-168-55C219-491 90-600 90-765c0-208 203-337 432-337 246 0 451 124 453 349H686c-2-91-62-143-165-143-86 0-151 41-153 117 0 32 16 57 46 77 63 43 257 69 335 100 151 60 229 153 229 291C978-13 554 93 282-28 162-81 60-190 56-344h274c5 106 86 159 199 159" id="aP"/><path d="M416 0H126v-1536h290V0" id="aQ"/><g id="q"><use transform="matrix(0.013020833333333334,0,0,0.013020833333333334,0,0)" xlink:href="#aN"/><use transform="matrix(0.013020833333333334,0,0,0.013020833333333334,17.447916666666668,0)" xlink:href="#aO"/><use transform="matrix(0.013020833333333334,0,0,0.013020833333333334,32.52604166666667,0)" xlink:href="#X"/><use transform="matrix(0.013020833333333334,0,0,0.013020833333333334,47.46093750000001,0)" xlink:href="#aP"/><use transform="matrix(0.013020833333333334,0,0,0.013020833333333334,61.171875,0)" xlink:href="#aO"/><use transform="matrix(0.013020833333333334,0,0,0.013020833333333334,76.25,0)" xlink:href="#aQ"/><use transform="matrix(0.013020833333333334,0,0,0.013020833333333334,83.3203125,0)" xlink:href="#Z"/></g><path d="M1222-777c17 480-206 763-650 777H169v-1456h411c408 9 627 269 642 679zm-190 4c3-312-149-522-447-525H361v1141h202c308 0 473-209 469-531v-85" id="aR"/><path d="M561-1102c238-4 403 126 403 351v498c0 99 13 178 38 237V0H808c-11-21-19-59-26-114C696-25 593 20 474 20c-199 0-368-130-365-320 4-251 214-359 490-356h180v-85c-1-135-86-212-229-212-115 0-232 67-233 171H131c20-205 206-316 430-320zM294-326c0 117 90 185 207 185 122 0 239-75 278-162v-222H634c-227 0-340 66-340 199" id="aS"/><path d="M456 20C285 20 205-92 206-268v-671H9v-143h197v-262h185v262h202v143H391v671c-9 125 92 149 207 118V0c-49 13-96 20-142 20" id="aT"/><path d="M634-1102c292 0 422 254 422 573 0 298-143 547-420 549-137 0-242-48-317-145L310 0H140v-1536h185v573c75-93 178-139 309-139zm-44 965c207 0 281-175 281-413 0-224-79-395-283-395-122 0-210 57-263 170v468c57 113 145 170 265 170" id="aU"/><path d="M538-131c121 0 232-49 232-156 0-50-20-88-56-117-73-60-334-92-420-143-92-55-162-110-162-238 0-190 192-317 400-317 223 0 414 129 413 338H759c0-108-110-186-227-186-119 0-215 53-215 159 0 45 18 78 53 101 76 52 331 90 416 139 98 57 169 115 169 251C955-92 760 20 538 20c-176 0-314-68-386-174-38-55-57-115-57-179h185c6 129 116 202 258 202" id="aV"/><path d="M599-131c141 0 220-65 285-146l113 88C906-50 770 20 589 20 281 21 93-214 93-545c0-223 93-397 233-485 74-48 154-72 240-72 300 2 449 218 445 537v77H278c0 197 129 357 321 357zm227-509c-3-180-88-310-260-310-170 0-264 140-282 310h542" id="aW"/><g id="r"><use transform="matrix(0.013020833333333334,0,0,0.013020833333333334,0,0)" xlink:href="#aR"/><use transform="matrix(0.013020833333333334,0,0,0.013020833333333334,17.486979166666668,0)" xlink:href="#aS"/><use transform="matrix(0.013020833333333334,0,0,0.013020833333333334,31.9921875,0)" xlink:href="#aT"/><use transform="matrix(0.013020833333333334,0,0,0.013020833333333334,40.703125,0)" xlink:href="#aS"/><use transform="matrix(0.013020833333333334,0,0,0.013020833333333334,55.208333333333336,0)" xlink:href="#aU"/><use transform="matrix(0.013020833333333334,0,0,0.013020833333333334,70.16927083333334,0)" xlink:href="#aS"/><use transform="matrix(0.013020833333333334,0,0,0.013020833333333334,84.67447916666667,0)" xlink:href="#aV"/><use transform="matrix(0.013020833333333334,0,0,0.013020833333333334,98.42447916666667,0)" xlink:href="#aW"/></g><path d="M520 20C244 20 95-247 95-550c0-298 151-550 427-552 127 0 227 43 301 130v-564h185V0H838l-9-116C755-25 652 20 520 20zm48-965c-210 0-288 177-288 416 0 218 87 392 286 392 117 0 203-53 257-158v-497c-55-102-140-153-255-153" id="aX"/><path d="M341 0H156v-1082h185V0zm-91-1264c-68 0-108-42-109-105 0-62 41-107 109-107s110 44 110 107-42 105-110 105" id="aY"/><path d="M341 0H156v-1536h185V0" id="aZ"/><g id="s"><use transform="matrix(0.013020833333333334,0,0,0.013020833333333334,0,0)" xlink:href="#aX"/><use transform="matrix(0.013020833333333334,0,0,0.013020833333333334,15.0390625,0)" xlink:href="#aW"/><use transform="matrix(0.013020833333333334,0,0,0.013020833333333334,29.166666666666668,0)" xlink:href="#aT"/><use transform="matrix(0.013020833333333334,0,0,0.013020833333333334,37.87760416666667,0)" xlink:href="#aS"/><use transform="matrix(0.013020833333333334,0,0,0.013020833333333334,52.38281250000001,0)" xlink:href="#aY"/><use transform="matrix(0.013020833333333334,0,0,0.013020833333333334,58.85416666666667,0)" xlink:href="#aZ"/><use transform="matrix(0.013020833333333334,0,0,0.013020833333333334,65.32552083333334,0)" xlink:href="#aV"/></g><path d="M130 0v-1456h448c435 14 673 299 665 762-5 285-130 500-319 606C822-31 708 0 581 0H130zm809-685c9-311-79-526-361-528H430v972h145c252-2 356-181 364-444" id="ba"/><path d="M457-330c2 83 25 111 111 112 32 0 60-2 85-7V-6c-57 17-115 26-175 26-203 0-310-102-310-307v-583H10v-212h158v-266h289v266h185v212H457v540" id="bb"/><g id="t"><use transform="matrix(0.013020833333333334,0,0,0.013020833333333334,0,0)" xlink:href="#ba"/><use transform="matrix(0.013020833333333334,0,0,0.013020833333333334,17.330729166666668,0)" xlink:href="#W"/><use transform="matrix(0.013020833333333334,0,0,0.013020833333333334,31.627604166666668,0)" xlink:href="#bb"/><use transform="matrix(0.013020833333333334,0,0,0.013020833333333334,40.638020833333336,0)" xlink:href="#W"/></g><g id="u"><use transform="matrix(0.013020833333333334,0,0,0.013020833333333334,0,0)" xlink:href="#V"/><use transform="matrix(0.013020833333333334,0,0,0.013020833333333334,23.359375,0)" xlink:href="#T"/><use transform="matrix(0.013020833333333334,0,0,0.013020833333333334,30.4296875,0)" xlink:href="#Y"/><use transform="matrix(0.013020833333333334,0,0,0.013020833333333334,45.65104166666667,0)" xlink:href="#S"/><use transform="matrix(0.013020833333333334,0,0,0.013020833333333334,54.98697916666667,0)" xlink:href="#W"/><use transform="matrix(0.013020833333333334,0,0,0.013020833333333334,69.28385416666667,0)" xlink:href="#bb"/><use transform="matrix(0.013020833333333334,0,0,0.013020833333333334,78.29427083333334,0)" xlink:href="#T"/><use transform="matrix(0.013020833333333334,0,0,0.013020833333333334,85.36458333333334,0)" xlink:href="#aO"/><use transform="matrix(0.013020833333333334,0,0,0.013020833333333334,100.44270833333334,0)" xlink:href="#X"/></g><path d="M658-217c127 0 227-49 227-165 0-57-21-98-60-130-79-64-370-142-463-196-162-95-248-210-248-361 0-280 246-403 537-407 213-3 383 84 467 216 45 69 68 147 68 234H886c0-139-96-211-240-211-129 0-232 55-232 169 0 47 24 87 72 119s117 62 210 90c171 51 295 115 373 191s117 171 117 284c-2 272-237 411-528 404C331 13 78-135 69-458h301c0 161 96 241 288 241" id="bc"/><path d="M516-353l201-729h302L654 0H378L13-1082h302" id="bd"/><path d="M355-556c-2 203 30 338 206 343 102 3 181-63 182-161h271C1001-128 821 17 566 20 242 24 66-212 66-554c0-320 184-548 498-548 262 0 451 167 450 423H743c-1-108-75-193-184-189-162 6-202 123-204 312" id="be"/><g id="v"><use transform="matrix(0.013020833333333334,0,0,0.013020833333333334,0,0)" xlink:href="#bc"/><use transform="matrix(0.013020833333333334,0,0,0.013020833333333334,16.393229166666668,0)" xlink:href="#Z"/><use transform="matrix(0.013020833333333334,0,0,0.013020833333333334,30.807291666666668,0)" xlink:href="#S"/><use transform="matrix(0.013020833333333334,0,0,0.013020833333333334,40.76822916666667,0)" xlink:href="#bd"/><use transform="matrix(0.013020833333333334,0,0,0.013020833333333334,54.24479166666667,0)" xlink:href="#T"/><use transform="matrix(0.013020833333333334,0,0,0.013020833333333334,61.31510416666667,0)" xlink:href="#be"/><use transform="matrix(0.013020833333333334,0,0,0.013020833333333334,75.22135416666667,0)" xlink:href="#Z"/></g><g id="w"><use transform="matrix(0.013020833333333334,0,0,0.013020833333333334,0,0)" xlink:href="#aR"/><use transform="matrix(0.013020833333333334,0,0,0.013020833333333334,17.486979166666668,0)" xlink:href="#aS"/><use transform="matrix(0.013020833333333334,0,0,0.013020833333333334,31.9921875,0)" xlink:href="#aT"/><use transform="matrix(0.013020833333333334,0,0,0.013020833333333334,40.703125,0)" xlink:href="#aS"/></g><path d="M1240-945c-141 0-250 95-250 227V0H804v-709c0-157-77-236-231-236-121 0-204 52-249 155V0H139v-1082h175l5 120c79-93 186-140 321-140 151 0 254 58 309 174 69-98 181-174 345-174 237 0 362 126 362 377V0h-185v-714c-2-159-67-231-231-231" id="bf"/><path d="M521 20C240 20 96-239 96-550c0-303 147-552 427-552 132 0 235 47 309 140l9-120h169V-26c4 277-183 454-459 452-165-1-334-81-400-187l96-111c79 98 176 147 291 147 180 1 288-109 286-290v-93C750-23 649 20 521 20zm48-965c-209 0-287 178-287 416 0 217 86 392 285 392 117 0 202-53 257-159v-494c-57-103-142-155-255-155" id="bg"/><path d="M663-916c-163-27-288 18-338 148V0H140v-1082h180l3 125c61-97 147-145 258-145 36 0 63 5 82 14v172" id="bh"/><path d="M584 20C278 26 81-227 91-551c10-320 175-545 491-551 308-5 503 247 494 573-9 322-175 543-492 549zm-2-970c-208 0-305 185-305 421 0 216 106 398 307 398 211 0 307-186 307-420 0-214-109-399-309-399" id="bi"/><path d="M589-945c-131 0-219 81-264 174V0H140v-1082h175l6 136c83-104 191-156 324-156 229 0 346 129 346 387V0H806v-716c-2-153-65-229-217-229" id="bj"/><g id="x"><use transform="matrix(0.013020833333333334,0,0,0.013020833333333334,0,0)" xlink:href="#bf"/><use transform="matrix(0.013020833333333334,0,0,0.013020833333333334,23.372395833333336,0)" xlink:href="#aY"/><use transform="matrix(0.013020833333333334,0,0,0.013020833333333334,29.84375,0)" xlink:href="#bg"/><use transform="matrix(0.013020833333333334,0,0,0.013020833333333334,44.8046875,0)" xlink:href="#bh"/><use transform="matrix(0.013020833333333334,0,0,0.013020833333333334,53.307291666666664,0)" xlink:href="#aS"/><use transform="matrix(0.013020833333333334,0,0,0.013020833333333334,67.8125,0)" xlink:href="#aT"/><use transform="matrix(0.013020833333333334,0,0,0.013020833333333334,76.5234375,0)" xlink:href="#aY"/><use transform="matrix(0.013020833333333334,0,0,0.013020833333333334,82.99479166666667,0)" xlink:href="#bi"/><use transform="matrix(0.013020833333333334,0,0,0.013020833333333334,98.203125,0)" xlink:href="#bj"/></g><path d="M319-664C304-226 428 158 661 357l-38 113c-89-49-172-133-254-248C142-97 71-578 194-1025c67-244 240-513 429-618l38 122c-201 153-330 502-342 857" id="bk"/><path d="M632-1102c291 0 422 251 422 573 0 297-141 548-419 549-131 0-235-42-310-125v521H140v-1498h169l9 120c75-93 180-140 314-140zm-53 971c207 0 290-180 290-419 0-218-92-395-292-395-112 0-196 50-252 149v517c55 99 140 148 254 148" id="bl"/><path d="M589-945c-131 0-219 81-264 174V0H140v-1536h185v585c82-101 189-151 320-151 229 0 346 129 346 387V0H806v-716c-2-153-65-229-217-229" id="bm"/><g id="y"><use transform="matrix(0.013020833333333334,0,0,0.013020833333333334,0,0)" xlink:href="#bk"/><use transform="matrix(0.013020833333333334,0,0,0.013020833333333334,9.114583333333334,0)" xlink:href="#aV"/><use transform="matrix(0.013020833333333334,0,0,0.013020833333333334,22.864583333333336,0)" xlink:href="#bj"/><use transform="matrix(0.013020833333333334,0,0,0.013020833333333334,37.578125,0)" xlink:href="#aS"/><use transform="matrix(0.013020833333333334,0,0,0.013020833333333334,52.083333333333336,0)" xlink:href="#bl"/><use transform="matrix(0.013020833333333334,0,0,0.013020833333333334,67.04427083333334,0)" xlink:href="#aV"/><use transform="matrix(0.013020833333333334,0,0,0.013020833333333334,80.79427083333334,0)" xlink:href="#bm"/><use transform="matrix(0.013020833333333334,0,0,0.013020833333333334,95.48177083333334,0)" xlink:href="#bi"/><use transform="matrix(0.013020833333333334,0,0,0.013020833333333334,110.69010416666667,0)" xlink:href="#aT"/></g><g id="z"><use transform="matrix(0.013020833333333334,0,0,0.013020833333333334,0,0)" xlink:href="#aS"/><use transform="matrix(0.013020833333333334,0,0,0.013020833333333334,14.505208333333334,0)" xlink:href="#bj"/><use transform="matrix(0.013020833333333334,0,0,0.013020833333333334,29.21875,0)" xlink:href="#aX"/></g><path d="M38 357C331 141 457-487 337-984c-53-219-157-429-299-546l39-113c190 106 362 378 431 621 75 268 76 597 0 868C440 88 266 365 77 470" id="bn"/><g id="A"><use transform="matrix(0.013020833333333334,0,0,0.013020833333333334,0,0)" xlink:href="#aV"/><use transform="matrix(0.013020833333333334,0,0,0.013020833333333334,13.75,0)" xlink:href="#aT"/><use transform="matrix(0.013020833333333334,0,0,0.013020833333333334,22.4609375,0)" xlink:href="#bh"/><use transform="matrix(0.013020833333333334,0,0,0.013020833333333334,31.236979166666668,0)" xlink:href="#aW"/><use transform="matrix(0.013020833333333334,0,0,0.013020833333333334,45.364583333333336,0)" xlink:href="#aS"/><use transform="matrix(0.013020833333333334,0,0,0.013020833333333334,59.86979166666667,0)" xlink:href="#bf"/><use transform="matrix(0.013020833333333334,0,0,0.013020833333333334,83.2421875,0)" xlink:href="#aY"/><use transform="matrix(0.013020833333333334,0,0,0.013020833333333334,89.71354166666667,0)" xlink:href="#bj"/><use transform="matrix(0.013020833333333334,0,0,0.013020833333333334,104.42708333333334,0)" xlink:href="#bg"/><use transform="matrix(0.013020833333333334,0,0,0.013020833333333334,119.38802083333334,0)" xlink:href="#bn"/></g><path d="M1098-255l208-827h185L1176 0h-150L763-820 507 0H357L43-1082h184l213 810 252-810h149" id="bo"/><g id="B"><use transform="matrix(0.013020833333333334,0,0,0.013020833333333334,0,0)" xlink:href="#bo"/><use transform="matrix(0.013020833333333334,0,0,0.013020833333333334,20.0390625,0)" xlink:href="#aY"/><use transform="matrix(0.013020833333333334,0,0,0.013020833333333334,26.510416666666668,0)" xlink:href="#aT"/><use transform="matrix(0.013020833333333334,0,0,0.013020833333333334,35.22135416666667,0)" xlink:href="#bm"/></g><path d="M491 20c-241-1-355-148-355-398v-704h185v699c0 164 67 246 200 246 141 0 235-53 282-158v-787h185V0H812l-4-107C736-22 630 20 491 20" id="bp"/><path d="M525-543H37v-151h488v151" id="bq"/><g id="C"><use transform="matrix(0.013020833333333334,0,0,0.013020833333333334,0,0)" xlink:href="#aU"/><use transform="matrix(0.013020833333333334,0,0,0.013020833333333334,14.9609375,0)" xlink:href="#bp"/><use transform="matrix(0.013020833333333334,0,0,0.013020833333333334,29.661458333333336,0)" xlink:href="#aY"/><use transform="matrix(0.013020833333333334,0,0,0.013020833333333334,36.1328125,0)" xlink:href="#aZ"/><use transform="matrix(0.013020833333333334,0,0,0.013020833333333334,42.604166666666664,0)" xlink:href="#aT"/><use transform="matrix(0.013020833333333334,0,0,0.013020833333333334,51.315104166666664,0)" xlink:href="#bq"/><use transform="matrix(0.013020833333333334,0,0,0.013020833333333334,58.671875,0)" xlink:href="#aY"/><use transform="matrix(0.013020833333333334,0,0,0.013020833333333334,65.14322916666667,0)" xlink:href="#bj"/></g><path d="M483-459l28 192 41-173 288-1016h162l281 1016 40 176 31-196 226-996h193L1420 0h-175L945-1061l-23-111-23 111L588 0H413L61-1456h192" id="br"/><g id="D"><use transform="matrix(0.013020833333333334,0,0,0.013020833333333334,0,0)" xlink:href="#br"/><use transform="matrix(0.013020833333333334,0,0,0.013020833333333334,23.385416666666668,0)" xlink:href="#bh"/><use transform="matrix(0.013020833333333334,0,0,0.013020833333333334,32.40885416666667,0)" xlink:href="#aY"/><use transform="matrix(0.013020833333333334,0,0,0.013020833333333334,38.880208333333336,0)" xlink:href="#aT"/><use transform="matrix(0.013020833333333334,0,0,0.013020833333333334,47.591145833333336,0)" xlink:href="#aW"/><use transform="matrix(0.013020833333333334,0,0,0.013020833333333334,61.71875,0)" xlink:href="#bh"/></g><g id="E"><use transform="matrix(0.008680555555555556,0,0,0.008680555555555556,0,0)" xlink:href="#ar"/><use transform="matrix(0.008680555555555556,0,0,0.008680555555555556,15.572916666666668,0)" xlink:href="#as"/><use transform="matrix(0.008680555555555556,0,0,0.008680555555555556,19.87847222222222,0)" xlink:href="#at"/><use transform="matrix(0.008680555555555556,0,0,0.008680555555555556,30.78125,0)" xlink:href="#au"/><use transform="matrix(0.008680555555555556,0,0,0.008680555555555556,37.473958333333336,0)" xlink:href="#ap"/><use transform="matrix(0.008680555555555556,0,0,0.008680555555555556,47.456597222222236,0)" xlink:href="#aq"/><use transform="matrix(0.008680555555555556,0,0,0.008680555555555556,53.27256944444445,0)" xlink:href="#as"/><use transform="matrix(0.008680555555555556,0,0,0.008680555555555556,57.57812500000001,0)" xlink:href="#av"/><use transform="matrix(0.008680555555555556,0,0,0.008680555555555556,68.23784722222223,0)" xlink:href="#aw"/></g><g id="F"><use transform="matrix(0.008680555555555556,0,0,0.008680555555555556,0,0)" xlink:href="#aq"/><use transform="matrix(0.008680555555555556,0,0,0.008680555555555556,5.642361111111112,0)" xlink:href="#av"/></g><path d="M65 0l393-574-370-544h210c88 136 192 297 267 435 67-142 176-302 264-435h206L661-564 1053 0H844c-94-144-206-310-287-458C484-308 366-142 273 0H65" id="bs"/><path d="M338-1490V0H158v-1490h180" id="bt"/><g id="G"><use transform="matrix(0.008680555555555556,0,0,0.008680555555555556,0,0)" xlink:href="#ay"/><use transform="matrix(0.008680555555555556,0,0,0.008680555555555556,9.965277777777779,0)" xlink:href="#bs"/><use transform="matrix(0.008680555555555556,0,0,0.008680555555555556,20.01736111111111,0)" xlink:href="#aq"/><use transform="matrix(0.008680555555555556,0,0,0.008680555555555556,25.659722222222225,0)" xlink:href="#ay"/><use transform="matrix(0.008680555555555556,0,0,0.008680555555555556,36.02430555555556,0)" xlink:href="#au"/><use transform="matrix(0.008680555555555556,0,0,0.008680555555555556,42.99479166666667,0)" xlink:href="#aw"/><use transform="matrix(0.008680555555555556,0,0,0.008680555555555556,53.49826388888889,0)" xlink:href="#ap"/><use transform="matrix(0.008680555555555556,0,0,0.008680555555555556,63.480902777777786,0)" xlink:href="#bt"/></g><path d="M577 24c-279 0-473-224-473-580 0-354 195-576 474-576 218 0 287 134 324 193h14v-551h180V0H922v-173h-20C865-111 790 24 577 24zm27-161c203 0 314-172 314-421 0-247-108-413-314-413-212 0-317 181-317 413 0 235 108 421 317 421" id="bu"/><path d="M677 24c-213 0-288-135-325-197h-20V0H158v-1490h180v551h14c37-59 106-193 324-193 279 0 474 222 474 576 0 356-194 580-473 580zm-27-161c209 0 317-186 317-421 0-232-105-413-317-413-206 0-314 166-314 413 0 249 111 421 314 421" id="bv"/><g id="H"><use transform="matrix(0.008680555555555556,0,0,0.008680555555555556,0,0)" xlink:href="#bu"/><use transform="matrix(0.008680555555555556,0,0,0.008680555555555556,10.885416666666668,0)" xlink:href="#ap"/><use transform="matrix(0.008680555555555556,0,0,0.008680555555555556,20.868055555555557,0)" xlink:href="#aq"/><use transform="matrix(0.008680555555555556,0,0,0.008680555555555556,26.770833333333336,0)" xlink:href="#ap"/><use transform="matrix(0.008680555555555556,0,0,0.008680555555555556,36.75347222222223,0)" xlink:href="#bv"/><use transform="matrix(0.008680555555555556,0,0,0.008680555555555556,47.81250000000002,0)" xlink:href="#ap"/><use transform="matrix(0.008680555555555556,0,0,0.008680555555555556,57.7951388888889,0)" xlink:href="#az"/><use transform="matrix(0.008680555555555556,0,0,0.008680555555555556,67.17881944444446,0)" xlink:href="#ay"/></g><g id="I"><use transform="matrix(0.008680555555555556,0,0,0.008680555555555556,0,0)" xlink:href="#aq"/><use transform="matrix(0.008680555555555556,0,0,0.008680555555555556,5.642361111111112,0)" xlink:href="#av"/></g><g id="J"><use transform="matrix(0.008680555555555556,0,0,0.008680555555555556,0,0)" xlink:href="#ay"/><use transform="matrix(0.008680555555555556,0,0,0.008680555555555556,9.965277777777779,0)" xlink:href="#bs"/><use transform="matrix(0.008680555555555556,0,0,0.008680555555555556,20.01736111111111,0)" xlink:href="#aq"/><use transform="matrix(0.008680555555555556,0,0,0.008680555555555556,25.659722222222225,0)" xlink:href="#ay"/><use transform="matrix(0.008680555555555556,0,0,0.008680555555555556,36.02430555555556,0)" xlink:href="#au"/><use transform="matrix(0.008680555555555556,0,0,0.008680555555555556,42.99479166666667,0)" xlink:href="#aw"/><use transform="matrix(0.008680555555555556,0,0,0.008680555555555556,53.49826388888889,0)" xlink:href="#ap"/><use transform="matrix(0.008680555555555556,0,0,0.008680555555555556,63.480902777777786,0)" xlink:href="#bt"/></g><path d="M1006-631H430v390h676V0H130v-1456h974v243H430v347h576v235" id="bw"/><path d="M523-759l182-323h309L706-552 1027 0H717L524-340 332 0H21l321-552-307-530h310" id="bx"/><g id="K"><use transform="matrix(0.013020833333333334,0,0,0.013020833333333334,0,0)" xlink:href="#bw"/><use transform="matrix(0.013020833333333334,0,0,0.013020833333333334,15,0)" xlink:href="#bx"/><use transform="matrix(0.013020833333333334,0,0,0.013020833333333334,28.567708333333336,0)" xlink:href="#bb"/><use transform="matrix(0.013020833333333334,0,0,0.013020833333333334,37.578125,0)" xlink:href="#Z"/><use transform="matrix(0.013020833333333334,0,0,0.013020833333333334,51.9921875,0)" xlink:href="#S"/><use transform="matrix(0.013020833333333334,0,0,0.013020833333333334,61.71875,0)" xlink:href="#X"/><use transform="matrix(0.013020833333333334,0,0,0.013020833333333334,76.65364583333333,0)" xlink:href="#W"/><use transform="matrix(0.013020833333333334,0,0,0.013020833333333334,90.95052083333333,0)" xlink:href="#aQ"/></g><path d="M1245-974c0 302-233 466-552 461H430V0H130v-1456h568c323 5 547 167 547 482zm-303 2c1-143-93-241-237-241H430v457h268c151 1 244-71 244-216" id="by"/><g id="L"><use transform="matrix(0.013020833333333334,0,0,0.013020833333333334,0,0)" xlink:href="#by"/><use transform="matrix(0.013020833333333334,0,0,0.013020833333333334,17.031250000000004,0)" xlink:href="#aO"/><use transform="matrix(0.013020833333333334,0,0,0.013020833333333334,32.109375,0)" xlink:href="#aP"/><use transform="matrix(0.013020833333333334,0,0,0.013020833333333334,45.8203125,0)" xlink:href="#bb"/><use transform="matrix(0.013020833333333334,0,0,0.013020833333333334,54.83072916666667,0)" xlink:href="#Y"/><use transform="matrix(0.013020833333333334,0,0,0.013020833333333334,70.05208333333334,0)" xlink:href="#S"/><use transform="matrix(0.013020833333333334,0,0,0.013020833333333334,79.53125000000001,0)" xlink:href="#Z"/><use transform="matrix(0.013020833333333334,0,0,0.013020833333333334,93.94531250000001,0)" xlink:href="#aP"/></g><g id="M"><use transform="matrix(0.013020833333333334,0,0,0.013020833333333334,0,0)" xlink:href="#U"/><use transform="matrix(0.013020833333333334,0,0,0.013020833333333334,15.026041666666668,0)" xlink:href="#W"/><use transform="matrix(0.013020833333333334,0,0,0.013020833333333334,29.322916666666668,0)" xlink:href="#bb"/><use transform="matrix(0.013020833333333334,0,0,0.013020833333333334,38.333333333333336,0)" xlink:href="#W"/><use transform="matrix(0.013020833333333334,0,0,0.013020833333333334,52.630208333333336,0)" xlink:href="#R"/><use transform="matrix(0.013020833333333334,0,0,0.013020833333333334,67.64322916666667,0)" xlink:href="#W"/><use transform="matrix(0.013020833333333334,0,0,0.013020833333333334,81.94010416666667,0)" xlink:href="#aP"/><use transform="matrix(0.013020833333333334,0,0,0.013020833333333334,95.65104166666667,0)" xlink:href="#Z"/></g><path d="M673-507H110v-233h563v233" id="bz"/><path d="M741-689c-2-124-40-177-163-178-82 0-141 34-178 102V0H111v-1082h271l9 121c77-94 180-141 311-141 139 0 235 55 287 165 76-110 184-165 325-165 249 0 348 151 348 411V0h-290v-690c-2-123-39-176-163-177-87 0-147 41-180 124l1 743H741v-689" id="bA"/><g id="N"><use transform="matrix(0.013020833333333334,0,0,0.013020833333333334,0,0)" xlink:href="#P"/><use transform="matrix(0.013020833333333334,0,0,0.013020833333333334,18.841145833333336,0)" xlink:href="#V"/><use transform="matrix(0.013020833333333334,0,0,0.013020833333333334,42.200520833333336,0)" xlink:href="#bz"/><use transform="matrix(0.013020833333333334,0,0,0.013020833333333334,52.5390625,0)" xlink:href="#bA"/><use transform="matrix(0.013020833333333334,0,0,0.013020833333333334,75.625,0)" xlink:href="#W"/><use transform="matrix(0.013020833333333334,0,0,0.013020833333333334,89.921875,0)" xlink:href="#X"/><use transform="matrix(0.013020833333333334,0,0,0.013020833333333334,104.85677083333333,0)" xlink:href="#W"/><use transform="matrix(0.013020833333333334,0,0,0.013020833333333334,119.15364583333334,0)" xlink:href="#Y"/><use transform="matrix(0.013020833333333334,0,0,0.013020833333333334,134.375,0)" xlink:href="#Z"/><use transform="matrix(0.013020833333333334,0,0,0.013020833333333334,148.7890625,0)" xlink:href="#U"/></g><g id="O"><use transform="matrix(0.013020833333333334,0,0,0.013020833333333334,0,0)" xlink:href="#by"/><use transform="matrix(0.013020833333333334,0,0,0.013020833333333334,17.031250000000004,0)" xlink:href="#aO"/><use transform="matrix(0.013020833333333334,0,0,0.013020833333333334,32.109375,0)" xlink:href="#aP"/><use transform="matrix(0.013020833333333334,0,0,0.013020833333333334,45.8203125,0)" xlink:href="#bb"/><use transform="matrix(0.013020833333333334,0,0,0.013020833333333334,54.83072916666667,0)" xlink:href="#Y"/><use transform="matrix(0.013020833333333334,0,0,0.013020833333333334,70.05208333333334,0)" xlink:href="#S"/><use transform="matrix(0.013020833333333334,0,0,0.013020833333333334,79.53125000000001,0)" xlink:href="#Z"/><use transform="matrix(0.013020833333333334,0,0,0.013020833333333334,93.94531250000001,0)" xlink:href="#aP"/></g></defs></g></svg>