<svg width="100" height="100" xmlns="http://www.w3.org/2000/svg" x="0px" y="0px" viewBox="0 0 50 50">
<title>announce</title>
<path d="M 47 6 C 45.628906 6 44.476563 6.953125 44.125 8.21875 L 5.6875 19.75 C 5.207031 18.726563 4.195313 18 3 18 C 1.355469 18 0 19.355469 0 21 L 0 27 C 0 28.644531 1.355469 30 3 30 C 4.175781 30 5.195313 29.308594 5.6875 28.3125 L 13.65625 31.09375 L 12.875 33.15625 C 12.875 33.167969 12.875 33.175781 12.875 33.1875 C 12.101563 35.507813 13.367188 38.039063 15.6875 38.8125 L 19.84375 40.21875 C 22.164063 40.992188 24.695313 39.726563 25.46875 37.40625 L 26.125 35.4375 L 44.125 41.75 C 44.46875 43.03125 45.621094 44 47 44 C 48.644531 44 50 42.644531 50 41 L 50 9 C 50 7.355469 48.644531 6 47 6 Z M 47 8 C 47.5625 8 48 8.4375 48 9 L 48 41 C 48 41.5625 47.5625 42 47 42 C 46.445313 42 46.015625 41.582031 46 41.03125 C 46 41.019531 46 41.011719 46 41 L 46 9 C 46 8.96875 46 8.9375 46 8.90625 C 46.046875 8.386719 46.46875 8 47 8 Z M 44 10.34375 L 44 39.59375 L 6 26.28125 L 6 21.75 Z M 3 20 C 3.53125 20 3.953125 20.386719 4 20.90625 C 4.003906 20.9375 4 20.96875 4 21 L 4 27 C 4 27.03125 4 27.0625 4 27.09375 C 3.953125 27.613281 3.53125 28 3 28 C 2.4375 28 2 27.5625 2 27 L 2 21 C 2 20.4375 2.4375 20 3 20 Z M 15.53125 31.75 L 24.21875 34.78125 L 23.5625 36.75 C 23.132813 38.046875 21.765625 38.746094 20.46875 38.3125 L 16.3125 36.9375 C 15.03125 36.507813 14.371094 35.128906 14.78125 33.84375 C 14.785156 33.832031 14.777344 33.824219 14.78125 33.8125 Z"></path></svg>