<svg width="100" height="100" xmlns="http://www.w3.org/2000/svg" x="0px" y="0px" viewBox="0 0 50 50"> 
<title>briefcase</title>
<path d="M 20 3 C 18.355469 3 17 4.355469 17 6 L 17 9 L 3 9 C 1.355469 9 0 10.355469 0 12 L 0 26.8125 C -0.0078125 26.875 -0.0078125 26.9375 0 27 L 0 44 C 0 45.644531 1.355469 47 3 47 L 47 47 C 48.644531 47 50 45.644531 50 44 L 50 12 C 50 10.355469 48.644531 9 47 9 L 33 9 L 33 6 C 33 4.355469 31.644531 3 30 3 Z M 20 5 L 30 5 C 30.5625 5 31 5.4375 31 6 L 31 9 L 19 9 L 19 6 C 19 5.4375 19.4375 5 20 5 Z M 3 11 L 47 11 C 47.5625 11 48 11.4375 48 12 L 48 26.84375 C 48 26.875 48 26.90625 48 26.9375 L 48 27 C 48 27.5625 47.5625 28 47 28 L 3 28 C 2.4375 28 2 27.5625 2 27 C 2.007813 26.9375 2.007813 26.875 2 26.8125 L 2 12 C 2 11.4375 2.4375 11 3 11 Z M 25 22 C 23.894531 22 23 22.894531 23 24 C 23 25.105469 23.894531 26 25 26 C 26.105469 26 27 25.105469 27 24 C 27 22.894531 26.105469 22 25 22 Z M 2 29.8125 C 2.316406 29.925781 2.648438 30 3 30 L 47 30 C 47.351563 30 47.683594 29.925781 48 29.8125 L 48 44 C 48 44.5625 47.5625 45 47 45 L 3 45 C 2.4375 45 2 44.5625 2 44 Z" /></svg>