<svg width="100" height="100" xmlns="http://www.w3.org/2000/svg" x="0px" y="0px" viewBox="0 0 50 50">
<title>businessman</title>
<path d="M 24.875 3.300781 C 20.183594 3.40625 17.210938 5.328125 15.933594 8.265625 C 14.714844 11.066406 14.980469 14.578125 15.855469 18.25 C 15.394531 18.796875 15.007813 19.535156 15.105469 20.683594 L 15.105469 20.707031 L 15.109375 20.734375 C 15.277344 21.953125 15.613281 22.820313 16.078125 23.433594 C 16.3125 23.734375 16.644531 23.746094 16.933594 23.910156 C 17.101563 24.988281 17.425781 26.058594 17.871094 26.9375 C 18.125 27.441406 18.394531 27.882813 18.671875 28.253906 C 18.792969 28.421875 18.960938 28.527344 19.09375 28.667969 C 19.105469 29.945313 19.160156 30.945313 19.011719 32.234375 C 18.71875 33.011719 17.976563 33.648438 16.757813 34.265625 C 15.503906 34.898438 13.859375 35.460938 12.191406 36.183594 C 10.523438 36.902344 8.820313 37.789063 7.460938 39.167969 C 6.101563 40.546875 5.140625 42.453125 5 44.945313 L 4.945313 46 L 45.058594 46 L 45 44.945313 C 44.859375 42.453125 43.90625 40.550781 42.554688 39.171875 C 41.203125 37.789063 39.503906 36.902344 37.832031 36.183594 C 36.164063 35.460938 34.511719 34.898438 33.238281 34.261719 C 32.007813 33.648438 31.230469 33.003906 30.890625 32.222656 C 30.816406 30.910156 30.808594 29.890625 30.808594 28.65625 C 30.933594 28.515625 31.105469 28.410156 31.222656 28.246094 C 31.492188 27.871094 31.75 27.425781 31.996094 26.929688 C 32.429688 26.050781 32.761719 24.988281 32.964844 23.933594 C 33.285156 23.769531 33.644531 23.757813 33.894531 23.433594 C 34.375 22.800781 34.683594 21.917969 34.796875 20.691406 L 34.796875 20.683594 C 34.886719 19.625 34.558594 18.867188 34.082031 18.289063 C 34.605469 16.6875 35.21875 14.136719 35.019531 11.511719 C 34.914063 10.074219 34.554688 8.632813 33.703125 7.441406 C 32.921875 6.355469 31.65625 5.585938 30.066406 5.253906 C 29.003906 3.859375 27.09375 3.300781 24.902344 3.300781 Z M 24.902344 5.300781 C 26.917969 5.300781 28.21875 5.886719 28.636719 6.601563 L 28.878906 7.023438 L 29.359375 7.089844 C 30.734375 7.28125 31.515625 7.828125 32.074219 8.605469 C 32.632813 9.382813 32.9375 10.464844 33.027344 11.664063 C 33.210938 14.066406 32.515625 16.882813 32.058594 18.164063 L 31.761719 19 L 32.550781 19.394531 C 32.417969 19.328125 32.878906 19.625 32.800781 20.515625 C 32.714844 21.484375 32.472656 21.996094 32.304688 22.21875 C 32.136719 22.4375 32.066406 22.402344 32.097656 22.402344 L 31.234375 22.402344 L 31.109375 23.257813 C 30.980469 24.160156 30.613281 25.214844 30.203125 26.046875 C 30 26.460938 29.78125 26.824219 29.597656 27.078125 C 29.417969 27.332031 29.222656 27.480469 29.304688 27.433594 L 28.800781 27.71875 L 28.800781 28.300781 C 28.800781 29.304688 28.8125 30.1875 28.84375 31.121094 L 25 33.253906 L 21.109375 31.09375 C 21.140625 30.128906 21.097656 29.273438 21.097656 28.300781 L 21.097656 27.71875 L 20.59375 27.433594 C 20.671875 27.472656 20.46875 27.320313 20.277344 27.0625 C 20.085938 26.808594 19.863281 26.449219 19.65625 26.035156 C 19.238281 25.210938 18.878906 24.171875 18.796875 23.304688 L 18.707031 22.402344 L 17.800781 22.402344 C 17.949219 22.402344 17.851563 22.457031 17.671875 22.21875 C 17.488281 21.980469 17.238281 21.441406 17.101563 20.496094 C 17.054688 19.6875 17.539063 19.277344 17.453125 19.332031 L 18.042969 18.9375 L 17.871094 18.253906 C 16.945313 14.609375 16.792969 11.300781 17.765625 9.0625 C 18.738281 6.824219 20.710938 5.398438 24.902344 5.300781 Z M 20.785156 33.203125 L 23.269531 34.582031 L 20.988281 37.417969 L 19.128906 35.160156 C 19.835938 34.640625 20.421875 34.007813 20.785156 33.203125 Z M 29.144531 33.238281 C 29.539063 34.035156 30.15625 34.644531 30.875 35.15625 L 29.011719 37.417969 L 26.730469 34.582031 Z M 17.375 36.179688 L 20.230469 39.636719 C 20.417969 39.867188 20.707031 40.003906 21.007813 40 C 21.308594 40 21.589844 39.859375 21.78125 39.625 L 23.742188 37.1875 L 24.5 37.800781 C 24.5 37.800781 22.746094 40.8125 22.242188 44 L 7.234375 44 C 7.511719 42.574219 8.039063 41.433594 8.886719 40.570313 C 9.949219 39.488281 11.414063 38.695313 12.984375 38.015625 C 14.457031 37.382813 15.996094 36.84375 17.375 36.179688 Z M 32.625 36.179688 C 34.015625 36.84375 35.570313 37.382813 37.042969 38.015625 C 38.609375 38.695313 40.066406 39.488281 41.125 40.566406 C 41.96875 41.429688 42.492188 42.574219 42.765625 44 L 27.765625 44 C 27.265625 40.757813 25.5 37.800781 25.5 37.800781 L 26.257813 37.1875 L 28.21875 39.625 C 28.410156 39.859375 28.691406 40 28.992188 40 C 29.292969 40.003906 29.582031 39.867188 29.769531 39.636719 Z"></path></svg>