<svg xmlns="http://www.w3.org/2000/svg" viewBox="0 0 48 48" width="50px" height="50px"><path fill="#eceff1" d="M46.63,24L40,30.63V40h-9.37L24,46.63L17.37,40H8v-9.37L1.37,24L8,17.37V8h9.37L24,1.37L30.63,8H40 v9.37L46.63,24z M25.59,24l0.7-0.71l0.3-0.29H25v-1.59l-0.29,0.3L24,22.41l-0.71-0.7L23,21.41V23h-1.59l0.3,0.29l0.7,0.71 l-0.7,0.71L21.41,25H23v1.59l0.29-0.3l0.71-0.7l0.71,0.7l0.29,0.3V25h1.59l-0.3-0.29L25.59,24z"/><polygon fill="#7cb342" points="13.21,11.79 16,9 9,9 9,16 11.79,13.21 20.59,22 22,22 22,20.59"/><polygon fill="#1a237e" points="22,26 20.59,26 11.79,34.79 9,32 9,39 16,39 13.21,36.21 22,27.41"/><polygon fill="#ffa726" points="36.21,34.79 27.41,26 26,26 26,27.41 34.79,36.21 32,39 39,39 39,32"/><polygon fill="#8e24aa" points="39,9 32,9 34.79,11.79 26,20.59 26,22 27.41,22 36.21,13.21 39,16"/><polygon fill="#7cb342" points="18,9 15,12 22,19 22,9"/><polygon fill="#8e24aa" points="30,9 33,12 26,19 26,9"/><polygon fill="#8e24aa" points="21,24 20,23 8,23 8,19 3,24 8,29 8,25 20,25"/><polygon fill="#1a237e" points="9,30 12,33 19,26 9,26"/><polygon fill="#7cb342" points="9,18 12,15 19,22 9,22"/><polygon fill="#1a237e" points="45,24 40,19 40,23 28,23 27,24 28,25 40,25 40,29"/><polygon fill="#ffa726" points="39,30 36,33 29,26 39,26"/><polygon fill="#8e24aa" points="39,18 36,15 29,22 39,22"/><polygon fill="#ffa726" points="29,8 24,3 19,8 23,8 23,20 24,21 25,20 25,8"/><polygon fill="#7cb342" points="25,40 25,28 24,27 23,28 23,40 19,40 24,45 29,40"/><polygon fill="#ffa726" points="30,39 33,36 26,29 26,39"/><polygon fill="#1a237e" points="18,39 15,36 22,29 22,39"/></svg>