<svg width="100" height="100" xmlns="http://www.w3.org/2000/svg" x="0px" y="0px" viewBox="0 0 50 50">
<title>certificate</title>
<path d="M 8.8125 4 C 8.335938 4.089844 7.992188 4.511719 8 5 L 8 45 C 8 45.550781 8.449219 46 9 46 L 15 46 L 15 44 L 10 44 L 10 6 L 40 6 L 40 44 L 27 44 L 27 46 L 41 46 C 41.550781 46 42 45.550781 42 45 L 42 5 C 42 4.449219 41.550781 4 41 4 L 9 4 C 8.96875 4 8.9375 4 8.90625 4 C 8.875 4 8.84375 4 8.8125 4 Z M 15 16 L 15 18 L 35 18 L 35 16 Z M 15 22 L 15 24 L 35 24 L 35 22 Z M 21 30 C 20.226563 30 19.589844 30.429688 19.125 31.03125 C 18.429688 30.878906 17.679688 30.914063 17.0625 31.40625 C 16.449219 31.898438 16.289063 32.65625 16.3125 33.375 C 15.664063 33.730469 15.128906 34.265625 15 35.03125 C 14.875 35.789063 15.214844 36.460938 15.6875 37 C 15.40625 37.710938 15.378906 38.503906 15.75 39.125 C 15.816406 39.238281 15.914063 39.3125 16 39.40625 L 16 48 C 15.996094 48.378906 16.207031 48.726563 16.546875 48.898438 C 16.882813 49.070313 17.289063 49.039063 17.59375 48.8125 L 21 46.25 L 24.40625 48.8125 C 24.710938 49.039063 25.117188 49.070313 25.453125 48.898438 C 25.792969 48.726563 26.003906 48.378906 26 48 L 26 39.40625 C 26.085938 39.3125 26.183594 39.238281 26.25 39.125 C 26.683594 38.402344 26.589844 37.664063 26.3125 37 C 26.785156 36.460938 27.125 35.789063 27 35.03125 C 26.871094 34.265625 26.335938 33.730469 25.6875 33.375 C 25.710938 32.65625 25.550781 31.898438 24.9375 31.40625 C 24.320313 30.914063 23.570313 30.878906 22.875 31.03125 C 22.421875 30.457031 21.785156 30 21 30 Z M 23 31.21875 C 23.042969 31.25 23.125 31.3125 23.09375 31.28125 L 23.0625 31.3125 C 23.042969 31.28125 23.019531 31.25 23 31.21875 Z M 21 32 C 21.320313 32 21.351563 32.058594 21.4375 32.3125 C 21.488281 32.464844 21.574219 32.605469 21.6875 32.71875 C 21.738281 32.769531 21.800781 32.835938 22.0625 32.96875 C 22.324219 33.101563 22.542969 33.09375 22.59375 33.09375 C 22.777344 33.101563 22.964844 33.058594 23.125 32.96875 C 23.273438 32.878906 23.542969 32.851563 23.6875 32.96875 C 23.855469 33.105469 23.855469 33.152344 23.75 33.46875 C 23.710938 33.578125 23.6875 33.695313 23.6875 33.8125 C 23.6875 33.949219 23.757813 33.96875 23.8125 34.09375 C 23.847656 34.542969 24.179688 34.917969 24.625 35 C 24.78125 35.027344 24.972656 35.21875 25 35.375 C 25.027344 35.546875 24.929688 35.753906 24.78125 35.84375 C 24.492188 36.027344 24.3125 36.34375 24.3125 36.6875 L 24.3125 37 C 24.308594 37.210938 24.375 37.421875 24.5 37.59375 C 24.527344 37.632813 24.570313 38.03125 24.53125 38.09375 C 24.441406 38.242188 24.234375 38.339844 24.0625 38.3125 C 23.695313 38.246094 23.320313 38.390625 23.09375 38.6875 C 23.09375 38.699219 23.09375 38.707031 23.09375 38.71875 C 23.058594 38.746094 23.074219 38.742188 23.03125 38.78125 C 23.019531 38.792969 23.011719 38.769531 23 38.78125 C 22.800781 38.96875 22.691406 39.226563 22.6875 39.5 C 22.6875 39.765625 22.6875 39.769531 22.46875 39.84375 C 22.425781 39.863281 22.382813 39.882813 22.34375 39.90625 C 22.335938 39.902344 22.363281 39.90625 22.3125 39.90625 C 22.246094 39.90625 22.050781 39.832031 21.90625 39.6875 C 21.714844 39.5 21.453125 39.398438 21.1875 39.40625 L 20.8125 39.40625 C 20.546875 39.398438 20.285156 39.5 20.09375 39.6875 C 19.929688 39.851563 19.75 39.917969 19.53125 39.84375 C 19.410156 39.777344 19.3125 39.640625 19.3125 39.5 C 19.3125 39.308594 19.21875 39.050781 19.09375 38.875 C 18.980469 38.714844 18.878906 38.636719 18.8125 38.59375 C 18.582031 38.363281 18.257813 38.257813 17.9375 38.3125 C 17.765625 38.339844 17.558594 38.242188 17.46875 38.09375 C 17.351563 37.894531 17.3125 37.820313 17.46875 37.625 C 17.609375 37.449219 17.6875 37.226563 17.6875 37 L 17.6875 36.6875 C 17.6875 36.34375 17.507813 36.027344 17.21875 35.84375 C 17.070313 35.753906 16.972656 35.546875 17 35.375 C 17.027344 35.21875 17.21875 35.027344 17.375 35 C 17.820313 34.917969 18.152344 34.542969 18.1875 34.09375 C 18.242188 33.96875 18.3125 33.949219 18.3125 33.8125 C 18.3125 33.695313 18.289063 33.578125 18.25 33.46875 C 18.144531 33.152344 18.144531 33.105469 18.3125 32.96875 C 18.457031 32.851563 18.726563 32.878906 18.875 32.96875 C 19.183594 33.148438 19.566406 33.148438 19.875 32.96875 C 19.886719 32.96875 19.894531 32.96875 19.90625 32.96875 C 19.917969 32.957031 19.925781 32.949219 19.9375 32.9375 C 19.957031 32.929688 19.980469 32.917969 20 32.90625 C 20.261719 32.796875 20.46875 32.582031 20.5625 32.3125 C 20.613281 32.15625 20.84375 32 21 32 Z M 18 41.0625 C 18.226563 41.351563 18.5 41.582031 18.84375 41.71875 C 18.855469 41.730469 18.863281 41.738281 18.875 41.75 C 19.632813 42.003906 20.363281 41.78125 20.96875 41.40625 C 20.976563 41.402344 20.992188 41.410156 21 41.40625 L 21.1875 41.40625 C 21.542969 41.613281 21.859375 41.90625 22.3125 41.90625 C 22.484375 41.90625 22.828125 41.832031 23.125 41.71875 C 23.140625 41.703125 23.167969 41.695313 23.1875 41.6875 C 23.207031 41.679688 23.230469 41.699219 23.25 41.6875 L 23.25 41.65625 C 23.558594 41.527344 23.804688 41.332031 24 41.09375 L 24 46 L 21.59375 44.1875 C 21.242188 43.925781 20.757813 43.925781 20.40625 44.1875 L 18 46 Z"/></svg>