<svg width="100" height="100" xmlns="http://www.w3.org/2000/svg" x="0px" y="0px" viewBox="0 0 50 50">
<title>cloud-checked</title><path d="M 29 9 C 23.675781 9 19.191406 12.28125 17.1875 16.875 C 16.21875 16.367188 15.167969 16 14 16 C 10.683594 16 7.964844 18.359375 7.25 21.46875 C 3.082031 22.675781 0 26.453125 0 31 C 0 36.511719 4.488281 41 10 41 L 41 41 C 45.957031 41 50 36.957031 50 32 C 50 27.363281 46.421875 23.664063 41.90625 23.1875 C 41.945313 22.796875 42 22.410156 42 22 C 42 14.832031 36.167969 9 29 9 Z M 29 11 C 35.085938 11 40 15.914063 40 22 C 40 22.617188 39.945313 23.230469 39.84375 23.84375 C 39.796875 24.136719 39.882813 24.429688 40.074219 24.652344 C 40.269531 24.878906 40.550781 25.003906 40.84375 25 C 40.980469 24.996094 41.027344 25 41 25 C 44.878906 25 48 28.121094 48 32 C 48 35.878906 44.878906 39 41 39 L 10 39 C 5.570313 39 2 35.429688 2 31 C 2 27.164063 4.695313 23.976563 8.28125 23.1875 C 8.695313 23.097656 9.007813 22.761719 9.0625 22.34375 C 9.382813 19.890625 11.449219 18 14 18 C 15.136719 18 16.15625 18.390625 17 19.03125 C 17.261719 19.230469 17.601563 19.289063 17.910156 19.1875 C 18.222656 19.089844 18.464844 18.84375 18.5625 18.53125 C 20.015625 14.15625 24.128906 11 29 11 Z M 33.25 20.3125 L 22.96875 31.53125 L 17.71875 26.28125 L 16.28125 27.71875 L 22.28125 33.71875 L 23.03125 34.4375 L 23.75 33.6875 L 34.75 21.6875 Z"/></svg>
