<svg width="100" height="100" xmlns="http://www.w3.org/2000/svg" x="0px" y="0px" viewBox="0 0 50 50">
<title>cloud-dba</title>
<path d="M 28.992188 9 C 23.927187 9 19.631328 11.6725 17.486328 16.0625 C 16.387328 15.3715 15.061625 15 13.640625 15 C 10.003625 15 7.2249531 17.765719 7.0019531 21.511719 C 2.5399531 23.020719 5.9211895e-16 26.561078 0 31.330078 C 0 36.662078 4.3379219 41 9.6699219 41 L 33.697266 41 C 33.427266 40.577 33.184719 40.112422 33.011719 39.607422 C 32.856719 39.427422 32.714031 39.223 32.582031 39 L 9.6699219 39 C 5.4399219 39 2 35.559078 2 31.330078 C 2 25.775078 5.9265781 23.861844 8.2675781 23.214844 L 9.0273438 23.005859 L 8.9863281 22 C 8.9863281 19.149 10.988625 17 13.640625 17 C 15.048625 17 16.306594 17.483328 17.183594 18.361328 L 18.287109 19.466797 L 18.828125 18.003906 C 20.428125 13.684906 24.322187 11 28.992188 11 C 35.164187 11 40 15.832 40 22 C 40 22.414 39.969297 22.853813 39.904297 23.382812 L 39.824219 24.501953 L 40.955078 24.501953 C 44.445078 24.501953 47.634797 27.746797 47.966797 31.466797 C 48.172797 32.560797 48.168453 33.75175 47.939453 34.96875 C 48.108453 35.53075 48.16775 36.153734 48.09375 36.802734 C 48.04975 37.188734 47.969047 37.532422 47.873047 37.857422 C 49.197047 36.302422 50 34.295609 50 32.099609 C 50 27.370609 46.386375 23.179125 41.984375 22.578125 C 41.995375 22.379125 42 22.188 42 22 C 42 14.71 36.286187 9 28.992188 9 z M 40.527344 27.001953 C 37.66269 27.001953 35.599609 27.950015 34.574219 29.636719 C 33.634713 31.182146 33.6863 33.127075 34.197266 35.140625 C 33.959828 35.51743 33.800728 35.970245 33.869141 36.560547 C 33.947831 37.24154 34.124989 37.767229 34.431641 38.175781 C 34.531611 38.308973 34.696303 38.305921 34.822266 38.404297 C 34.949015 39.120517 35.240926 39.751593 35.591797 40.230469 C 35.811036 40.52969 36.037789 40.781965 36.248047 40.986328 C 36.283227 41.020518 36.321007 41.037399 36.353516 41.068359 L 36.353516 42.458984 C 36.242745 42.714981 36.039359 42.939712 35.556641 43.205078 C 35.039701 43.489257 34.304579 43.764119 33.527344 44.132812 C 32.750109 44.501506 31.913904 44.976758 31.234375 45.75 C 30.554846 46.523242 30.07935 47.598521 30.001953 48.943359 A 1.0001 1.0001 0 0 0 31 50 L 49 50 A 1.0001 1.0001 0 0 0 49.998047 48.941406 C 49.919773 47.596784 49.443557 46.523064 48.763672 45.75 C 48.083787 44.976936 47.248105 44.501557 46.470703 44.132812 C 45.693301 43.764069 44.958477 43.489215 44.441406 43.205078 C 43.959783 42.94042 43.755556 42.717548 43.644531 42.462891 L 43.644531 41.058594 C 43.677941 41.025424 43.719391 41.00548 43.755859 40.96875 C 43.962636 40.760496 44.186296 40.503993 44.400391 40.205078 C 44.719058 39.760161 44.897107 39.123858 45.041016 38.488281 C 45.209707 38.375738 45.414457 38.366529 45.542969 38.195312 C 45.849918 37.786364 46.027369 37.259228 46.105469 36.578125 C 46.156139 36.134576 46.111869 35.72263 45.958984 35.353516 C 45.930454 35.284626 45.820342 35.253546 45.783203 35.185547 C 46.15594 33.762382 46.270153 32.217302 45.720703 30.828125 C 45.174274 29.446586 43.775259 28.470124 41.927734 28.234375 L 41.339844 27.416016 A 1.0001 1.0001 0 0 0 40.527344 27.001953 z M 40.070312 29.078125 L 40.472656 29.634766 A 1.0001 1.0001 0 0 0 41.283203 30.050781 C 42.90084 30.050781 43.493301 30.632015 43.861328 31.5625 C 44.229355 32.492985 44.175136 33.895849 43.785156 35.107422 A 1.0001 1.0001 0 0 0 44.113281 36.193359 C 44.119481 36.225389 44.131531 36.240819 44.119141 36.349609 C 44.071961 36.761068 43.983424 36.905835 43.957031 36.947266 A 1.0001 1.0001 0 0 0 43.261719 37.898438 C 43.261719 38.139935 43.065248 38.633595 42.773438 39.041016 C 42.627532 39.244726 42.467864 39.427692 42.337891 39.558594 C 42.207917 39.689496 42.055115 39.784286 42.164062 39.724609 A 1.0001 1.0001 0 0 0 41.644531 40.601562 L 41.644531 42.742188 A 1.0001 1.0001 0 0 0 41.701172 43.078125 C 42.028721 43.997104 42.765805 44.56734 43.478516 44.958984 C 44.191226 45.350628 44.942058 45.623025 45.613281 45.941406 C 46.284505 46.259787 46.858072 46.611346 47.261719 47.070312 C 47.450429 47.284886 47.483169 47.709396 47.607422 48 L 32.390625 48 C 32.514711 47.708959 32.547622 47.285043 32.736328 47.070312 C 33.139487 46.611554 33.713751 46.259713 34.384766 45.941406 C 35.055781 45.6231 35.806783 45.348852 36.519531 44.957031 C 37.232279 44.56521 37.96752 43.997456 38.294922 43.078125 A 1.0001 1.0001 0 0 0 38.353516 42.742188 L 38.353516 40.599609 A 1.0001 1.0001 0 0 0 37.830078 39.720703 C 37.921648 39.770323 37.773378 39.679873 37.642578 39.552734 C 37.511774 39.425598 37.351089 39.248107 37.205078 39.048828 C 36.913056 38.650271 36.712891 38.169753 36.712891 37.878906 A 1.0001 1.0001 0 0 0 36.019531 36.927734 C 35.992971 36.886144 35.903066 36.74198 35.855469 36.330078 C 35.845147 36.241022 35.857537 36.195139 35.871094 36.166016 A 1.0001 1.0001 0 0 0 36.195312 35.107422 C 35.628171 33.206777 35.686345 31.657578 36.283203 30.675781 C 36.831666 29.773594 37.999474 29.178841 40.070312 29.078125 z"></path></svg>