<svg width="100" height="100" xmlns="http://www.w3.org/2000/svg" x="0px" y="0px" viewBox="0 0 50 50">
<title>config-management</title><path d="M 20.09375 0 C 19.644531 0.0507813 19.285156 0.398438 19.21875 0.84375 L 18.25 6.8125 C 17.082031 7.152344 15.957031 7.585938 14.90625 8.15625 L 10 4.65625 C 9.605469 4.371094 9.066406 4.414063 8.71875 4.75 L 4.8125 8.65625 C 4.476563 9.003906 4.433594 9.542969 4.71875 9.9375 L 8.15625 14.875 C 7.574219 15.941406 7.097656 17.058594 6.75 18.25 L 0.84375 19.21875 C 0.351563 19.296875 -0.0078125 19.722656 0 20.21875 L 0 25.71875 C 0.0078125 26.195313 0.347656 26.597656 0.8125 26.6875 L 6.78125 27.75 C 7.128906 28.925781 7.578125 30.039063 8.15625 31.09375 L 4.65625 36 C 4.371094 36.394531 4.414063 36.933594 4.75 37.28125 L 8.65625 41.1875 C 9.003906 41.523438 9.542969 41.566406 9.9375 41.28125 L 14.84375 37.8125 C 15.90625 38.394531 17.035156 38.839844 18.21875 39.1875 L 19.21875 45.15625 C 19.296875 45.648438 19.722656 46.007813 20.21875 46 L 25.71875 46 C 25.816406 45.992188 25.910156 45.972656 26 45.9375 L 26 49 C 26 49.550781 26.449219 50 27 50 L 49 50 C 49.550781 50 50 49.550781 50 49 L 50 33 C 50 32.96875 50 32.9375 50 32.90625 L 50 31.84375 C 50 30.285156 48.714844 29 47.15625 29 L 38.78125 29 C 38.933594 28.585938 39.089844 28.152344 39.21875 27.75 L 45.15625 26.6875 C 45.636719 26.613281 45.992188 26.203125 46 25.71875 L 46 20.21875 C 46.007813 19.722656 45.648438 19.296875 45.15625 19.21875 L 39.15625 18.25 C 38.8125 17.09375 38.347656 15.980469 37.78125 14.9375 L 41.28125 9.9375 C 41.566406 9.542969 41.523438 9.003906 41.1875 8.65625 L 37.28125 4.75 C 36.933594 4.414063 36.394531 4.371094 36 4.65625 L 31.09375 8.1875 C 30.042969 7.609375 28.925781 7.160156 27.75 6.8125 L 26.6875 0.8125 C 26.597656 0.347656 26.195313 0.0078125 25.71875 0 L 20.21875 0 C 20.175781 -0.00390625 20.136719 -0.00390625 20.09375 0 Z M 21.0625 2 L 24.875 2 L 25.875 7.6875 C 25.945313 8.0625 26.222656 8.367188 26.59375 8.46875 C 28.054688 8.832031 29.433594 9.429688 30.6875 10.1875 C 31.027344 10.394531 31.457031 10.382813 31.78125 10.15625 L 36.46875 6.78125 L 39.15625 9.46875 L 35.84375 14.21875 C 35.605469 14.539063 35.582031 14.96875 35.78125 15.3125 C 36.53125 16.5625 37.105469 17.917969 37.46875 19.375 C 37.5625 19.765625 37.882813 20.0625 38.28125 20.125 L 44 21.0625 L 44 24.875 L 38.28125 25.875 C 37.882813 25.9375 37.5625 26.234375 37.46875 26.625 C 37.351563 27.101563 36.96875 28.160156 36.65625 29 L 28.84375 29 C 28.824219 29 28.800781 29 28.78125 29 C 30.359375 27.480469 31.34375 25.351563 31.34375 23 C 31.34375 18.410156 27.589844 14.65625 23 14.65625 C 18.410156 14.65625 14.65625 18.410156 14.65625 23 C 14.65625 27.589844 18.410156 31.34375 23 31.34375 C 24.148438 31.34375 25.253906 31.109375 26.25 30.6875 C 26.089844 31.042969 26 31.429688 26 31.84375 L 26 32.8125 C 25.996094 32.855469 25.996094 32.894531 26 32.9375 L 26 38.46875 L 24.875 44 L 21.0625 44 L 20.125 38.34375 C 20.0625 37.945313 19.765625 37.625 19.375 37.53125 C 17.910156 37.171875 16.511719 36.601563 15.25 35.84375 C 14.910156 35.636719 14.480469 35.648438 14.15625 35.875 L 9.46875 39.15625 L 6.78125 36.46875 L 10.09375 31.8125 C 10.320313 31.488281 10.332031 31.058594 10.125 30.71875 C 9.359375 29.453125 8.800781 28.09375 8.4375 26.625 C 8.34375 26.234375 8.023438 25.9375 7.625 25.875 L 2 24.875 L 2 21.0625 L 7.625 20.125 C 8.023438 20.0625 8.34375 19.765625 8.4375 19.375 C 8.804688 17.898438 9.394531 16.515625 10.15625 15.25 C 10.363281 14.910156 10.351563 14.480469 10.125 14.15625 L 6.8125 9.46875 L 9.53125 6.78125 L 14.1875 10.09375 C 14.507813 10.332031 14.9375 10.355469 15.28125 10.15625 C 16.535156 9.402344 17.910156 8.828125 19.375 8.46875 C 19.765625 8.375 20.0625 8.054688 20.125 7.65625 Z M 23 16.65625 C 26.507813 16.65625 29.34375 19.492188 29.34375 23 C 29.34375 26.507813 26.507813 29.34375 23 29.34375 C 19.492188 29.34375 16.65625 26.507813 16.65625 23 C 16.65625 19.492188 19.492188 16.65625 23 16.65625 Z M 28.84375 31 L 37.0625 31 C 37.253906 31.058594 37.464844 31.058594 37.65625 31 L 47.15625 31 C 47.636719 31 48 31.363281 48 31.84375 L 48 32 L 28 32 L 28 31.84375 C 28 31.363281 28.363281 31 28.84375 31 Z M 28 34 L 48 34 L 48 48 L 28 48 L 28 38.59375 C 28.042969 38.429688 28.042969 38.257813 28 38.09375 Z M 37 34.59375 L 36.28125 35.28125 L 32.9375 38.625 L 31.65625 37.53125 L 30.90625 36.875 L 29.59375 38.40625 L 30.34375 39.03125 L 32.34375 40.75 L 33.0625 41.375 L 37.71875 36.71875 L 38.40625 36 Z M 37 39.59375 L 36.28125 40.28125 L 32.9375 43.625 L 31.65625 42.53125 L 30.90625 41.875 L 29.59375 43.40625 L 30.34375 44.03125 L 32.34375 45.75 L 33.0625 46.375 L 37.71875 41.71875 L 38.40625 41 Z"/></svg>
