<svg width="100" height="100" xmlns="http://www.w3.org/2000/svg" x="0px" y="0px" viewBox="0 0 50 50">
<title>more-control</title><path d="M 7 8 C 4.7901961 8 3 9.7901961 3 12 L 3 34 C 3 34.745057 3.2588046 35.402873 3.6132812 36 L 1 36 A 1.0001 1.0001 0 0 0 0 37 C 0 39.745455 2.2545455 42 5 42 L 45 42 C 47.745455 42 50 39.745455 50 37 A 1.0001 1.0001 0 0 0 49 36 L 46.386719 36 C 46.741195 35.402873 47 34.745057 47 34 L 47 12 C 47 9.7901961 45.209804 8 43 8 L 7 8 z M 7 10 L 43 10 C 44.190196 10 45 10.809804 45 12 L 45 34 C 45 35.190196 44.190196 36 43 36 L 7 36 C 5.8098039 36 5 35.190196 5 34 L 5 12 C 5 10.809804 5.8098039 10 7 10 z M 35 15 A 2 2 0 0 0 33.083984 17.564453 L 25.521484 25.072266 A 2 2 0 0 0 25 25 A 2 2 0 0 0 24.484375 25.070312 L 20.931641 21.517578 A 2 2 0 0 0 19 19 A 2 2 0 0 0 17.070312 21.515625 L 9.2929688 29.292969 A 1.0001 1.0001 0 1 0 10.707031 30.707031 L 18.484375 22.929688 A 2 2 0 0 0 19 23 A 2 2 0 0 0 19.515625 22.929688 L 23.068359 26.482422 A 2 2 0 0 0 25 29 A 2 2 0 0 0 26.931641 26.490234 L 34.533203 18.943359 A 2 2 0 0 0 35 19 A 2 2 0 0 0 35.470703 18.941406 L 39.298828 22.712891 A 1.0001 1.0001 0 1 0 40.701172 21.287109 L 36.919922 17.560547 A 2 2 0 0 0 35 15 z M 2.4140625 38 L 7 38 L 43 38 L 47.585938 38 C 47.145184 39.109197 46.264565 40 45 40 L 5 40 C 3.7354346 40 2.8548159 39.109197 2.4140625 38 z"/></svg>
