<svg width="100" height="100" xmlns="http://www.w3.org/2000/svg" x="0px" y="0px" viewBox="0 0 50 50">
<title>contact</title>
<path d="M 25 2 C 23.35499 2 22 3.3549904 22 5 C 22 6.2931586 22.84267 7.3951413 24 7.8125 L 24 12 A 1.0001 1.0001 0 1 0 26 12 L 26 7.8125 C 27.15733 7.3951413 28 6.2931586 28 5 C 28 3.3549904 26.64501 2 25 2 z M 25 4 C 25.564129 4 26 4.4358706 26 5 C 26 5.5438301 25.591188 5.9584257 25.056641 5.9882812 A 1.0001 1.0001 0 0 0 24.984375 5.9863281 A 1.0001 1.0001 0 0 0 24.941406 5.9882812 C 24.407841 5.957487 24 5.543157 24 5 C 24 4.4358706 24.435871 4 25 4 z M 7 11 C 5.3549904 11 4 12.35499 4 14 C 4 15.64501 5.3549904 17 7 17 C 7.7122981 17 8.3618222 16.736097 8.8789062 16.314453 L 16.486328 20.859375 A 1.0011914 1.0011914 0 1 0 17.513672 19.140625 L 9.9355469 14.615234 C 9.9777274 14.416379 10 14.210596 10 14 C 10 12.35499 8.6450096 11 7 11 z M 43 11 C 41.35499 11 40 12.35499 40 14 C 40 14.210596 40.022273 14.416379 40.064453 14.615234 L 32.486328 19.140625 A 1.0011914 1.0011914 0 1 0 33.513672 20.859375 L 41.121094 16.314453 C 41.638178 16.736097 42.287702 17 43 17 C 44.64501 17 46 15.64501 46 14 C 46 12.35499 44.64501 11 43 11 z M 7 13 C 7.5641294 13 8 13.435871 8 14 C 8 14.564129 7.5641294 15 7 15 C 6.4358706 15 6 14.564129 6 14 C 6 13.435871 6.4358706 13 7 13 z M 43 13 C 43.564129 13 44 13.435871 44 14 C 44 14.564129 43.564129 15 43 15 C 42.435871 15 42 14.564129 42 14 C 42 13.435871 42.435871 13 43 13 z M 25.636719 15 C 23.354663 15 21.614316 15.792851 20.714844 17.207031 C 19.904723 18.480731 19.892104 20.082538 20.267578 21.726562 C 20.076255 22.061311 19.957405 22.45347 20.011719 22.945312 C 20.074859 23.514837 20.215024 23.967911 20.480469 24.335938 C 20.578209 24.471455 20.753365 24.478888 20.884766 24.578125 C 21.019831 25.110096 21.161244 25.660176 21.425781 26.017578 C 21.611532 26.268535 21.800663 26.479445 21.976562 26.650391 C 21.984163 26.657791 21.9926 26.660779 22 26.667969 L 22 27.660156 C 21.9328 27.811168 21.822992 27.951396 21.474609 28.148438 C 21.089979 28.36598 20.514864 28.588357 19.890625 28.892578 C 19.266386 29.1968 18.577834 29.594686 18.015625 30.251953 C 17.453416 30.90922 17.063913 31.825238 17.001953 32.945312 A 1.0001 1.0001 0 0 0 18 34 L 32 34 A 1.0001 1.0001 0 0 0 32.998047 32.945312 C 32.936087 31.825239 32.546551 30.909284 31.984375 30.251953 C 31.422199 29.594622 30.733635 29.196878 30.109375 28.892578 C 29.485115 28.588278 28.910089 28.364029 28.525391 28.146484 C 28.177008 27.949476 28.067147 27.810888 28 27.660156 L 28 26.65625 C 28.0097 26.64645 28.02117 26.640999 28.03125 26.630859 C 28.204238 26.456801 28.391071 26.244369 28.572266 25.994141 C 28.828242 25.640639 28.963567 25.108457 29.097656 24.59375 C 29.229448 24.49445 29.403997 24.487375 29.501953 24.351562 C 29.767766 23.983026 29.910125 23.530591 29.972656 22.960938 C 30.014736 22.579874 29.979556 22.223445 29.847656 21.892578 C 29.829946 21.848158 29.751986 21.824218 29.730469 21.779297 C 30.009576 20.634421 30.100515 19.413462 29.658203 18.292969 C 29.236023 17.223464 28.144477 16.489826 26.78125 16.224609 L 26.576172 15.658203 A 1.0001 1.0001 0 0 0 25.636719 15 z M 24.976562 17.111328 L 25.060547 17.341797 A 1.0001 1.0001 0 0 0 26 18 C 27.193111 18 27.538713 18.373344 27.796875 19.027344 C 28.055037 19.681344 28.026996 20.746091 27.730469 21.705078 A 1.0001 1.0001 0 0 0 27.986328 22.712891 C 27.986722 22.731991 27.987575 22.713251 27.984375 22.742188 C 27.953395 23.024428 27.910077 23.080602 27.898438 23.105469 A 1.0001 1.0001 0 0 0 27.316406 24.011719 C 27.316406 24.133233 27.179986 24.508972 26.953125 24.822266 C 26.839694 24.978913 26.713199 25.12212 26.613281 25.222656 C 26.513361 25.323192 26.386323 25.399101 26.503906 25.332031 A 1.0001 1.0001 0 0 0 26 26.199219 L 26 27.933594 A 1.0001 1.0001 0 0 0 26.054688 28.257812 C 26.328761 29.058571 26.956356 29.559154 27.539062 29.888672 C 28.121771 30.21819 28.715557 30.437503 29.232422 30.689453 C 29.749287 30.941403 30.173864 31.212503 30.464844 31.552734 C 30.551504 31.654067 30.555734 31.878936 30.625 32 L 19.375 32 C 19.44425 31.878963 19.4485 31.654039 19.535156 31.552734 C 19.826103 31.212595 20.250692 30.94331 20.767578 30.691406 C 21.284464 30.439503 21.878162 30.218284 22.460938 29.888672 C 23.043713 29.559059 23.671329 29.058726 23.945312 28.257812 A 1.0001 1.0001 0 0 0 24 27.933594 L 24 26.199219 A 1.0001 1.0001 0 0 0 23.492188 25.330078 C 23.59273 25.386858 23.471378 25.314258 23.371094 25.216797 C 23.270808 25.119337 23.146203 24.980793 23.033203 24.828125 C 22.807204 24.522789 22.666016 24.160996 22.666016 23.996094 A 1.0001 1.0001 0 0 0 22.085938 23.089844 C 22.074068 23.064624 22.029357 23.008975 21.998047 22.726562 C 21.993758 22.687722 22.001955 22.700371 22.007812 22.6875 A 1.0001 1.0001 0 0 0 22.257812 21.708984 C 21.829708 20.215104 21.927816 19.02732 22.402344 18.28125 C 22.803508 17.650526 23.64661 17.244575 24.976562 17.111328 z M 14.017578 30.714844 A 1.0001 1.0001 0 0 0 13.478516 30.869141 L 8.8730469 33.681641 C 8.3567923 33.262646 7.7098022 33 7 33 C 5.3549904 33 4 34.35499 4 36 C 4 37.64501 5.3549904 39 7 39 C 8.6450096 39 10 37.64501 10 36 C 10 35.787244 9.9766204 35.579655 9.9335938 35.378906 L 14.519531 32.576172 A 1.0001 1.0001 0 0 0 14.017578 30.714844 z M 35.951172 30.716797 A 1.0001 1.0001 0 0 0 35.478516 32.576172 L 40.066406 35.378906 C 40.02338 35.579655 40 35.787244 40 36 C 40 37.64501 41.35499 39 43 39 C 44.64501 39 46 37.64501 46 36 C 46 34.35499 44.64501 33 43 33 C 42.290198 33 41.643208 33.262646 41.126953 33.681641 L 36.521484 30.869141 A 1.0001 1.0001 0 0 0 35.951172 30.716797 z M 7 35 C 7.5641294 35 8 35.435871 8 36 C 8 36.564129 7.5641294 37 7 37 C 6.4358706 37 6 36.564129 6 36 C 6 35.435871 6.4358706 35 7 35 z M 43 35 C 43.564129 35 44 35.435871 44 36 C 44 36.564129 43.564129 37 43 37 C 42.435871 37 42 36.564129 42 36 C 42 35.435871 42.435871 35 43 35 z M 24.984375 35.986328 A 1.0001 1.0001 0 0 0 24 37 L 24 42.1875 C 22.84267 42.604859 22 43.706841 22 45 C 22 46.64501 23.35499 48 25 48 C 26.64501 48 28 46.64501 28 45 C 28 43.706841 27.15733 42.604859 26 42.1875 L 26 37 A 1.0001 1.0001 0 0 0 24.984375 35.986328 z M 24.943359 44.011719 A 1.0001 1.0001 0 0 0 25.058594 44.011719 C 25.592159 44.042513 26 44.456843 26 45 C 26 45.564129 25.564129 46 25 46 C 24.435871 46 24 45.564129 24 45 C 24 44.45617 24.408812 44.041574 24.943359 44.011719 z"></path></svg>