<svg width="100" height="100" xmlns="http://www.w3.org/2000/svg" x="0px" y="0px" viewBox="0 0 50 50">
<title>cubes</title>
<path d="M 49.898438 27.5 C 49.898438 27.5 49.898438 27.398438 49.800781 27.398438 L 49.699219 27.300781 C 49.699219 27.300781 49.601563 27.300781 49.601563 27.199219 C 49.601563 27.199219 49.5 27.199219 49.5 27.101563 L 38 21.398438 L 38 8 C 38 7.765625 37.910156 7.546875 37.765625 7.371094 C 37.6875 7.265625 37.601563 7.167969 37.5 7.101563 C 37.40625 7.035156 37.300781 7 37.191406 6.976563 L 25.445313 1.105469 C 25.164063 0.964844 24.835938 0.964844 24.550781 1.105469 L 12.734375 7.015625 C 12.617188 7.035156 12.503906 7.066406 12.398438 7.101563 C 12.101563 7.199219 12 7.699219 12 8 L 12 21.382813 L 0.554688 27.105469 C 0.539063 27.113281 0.53125 27.121094 0.519531 27.128906 C 0.503906 27.136719 0.488281 27.140625 0.472656 27.148438 C 0.441406 27.167969 0.417969 27.195313 0.390625 27.21875 C 0.359375 27.242188 0.328125 27.261719 0.304688 27.289063 C 0.265625 27.328125 0.234375 27.367188 0.203125 27.410156 C 0.183594 27.4375 0.160156 27.464844 0.140625 27.496094 C 0.109375 27.542969 0.0898438 27.597656 0.0703125 27.652344 C 0.0585938 27.679688 0.046875 27.707031 0.0351563 27.734375 C 0.015625 27.820313 0 27.910156 0 28 L 0 42 C 0 42.378906 0.214844 42.726563 0.554688 42.894531 L 12.554688 48.894531 C 12.566406 48.902344 12.585938 48.898438 12.597656 48.90625 C 12.726563 48.960938 12.863281 49 13 49 C 13.136719 49 13.273438 48.960938 13.402344 48.90625 C 13.414063 48.898438 13.433594 48.902344 13.445313 48.894531 L 25.019531 43.109375 L 36.601563 48.898438 C 36.699219 49 36.898438 49 37 49 C 37.101563 49 37.300781 49 37.398438 48.898438 L 44.300781 45.5 L 49.398438 42.898438 C 49.699219 42.699219 50 42.398438 50 42 L 50 28 C 50 27.898438 50 27.800781 50 27.699219 C 49.898438 27.601563 49.898438 27.5 49.898438 27.5 Z M 13 32.882813 L 3.234375 28 L 13 23.117188 L 22.765625 28 Z M 24 14.617188 L 24 26.382813 L 14 21.382813 L 14 9.617188 Z M 25 3.117188 L 34.738281 7.988281 L 29.148438 10.808594 L 25 12.882813 L 15.234375 8 Z M 2 29.617188 L 12 34.617188 L 12 46.382813 L 2 41.382813 Z M 36 36 L 36 46.398438 L 26 41.398438 L 26 29.585938 L 30.898438 32 L 36 34.5 Z M 37 32.898438 L 27.199219 28 L 37 23.101563 L 46.800781 28 Z" /></svg>