<svg width="100" height="100" xmlns="http://www.w3.org/2000/svg" x="0px" y="0px" viewBox="0 0 50 50">
<title>database-admin</title>
<path d="M 21 0 C 15.378906 0 10.265625 1.015625 6.46875 2.71875 C 4.570313 3.570313 2.984375 4.601563 1.84375 5.8125 C 0.757813 6.964844 0.0625 8.316406 0 9.78125 C -0.00390625 9.832031 -0.00390625 9.886719 0 9.9375 C 0 9.957031 0 9.980469 0 10 L 0 19.8125 C -0.0078125 19.875 -0.0078125 19.9375 0 20 L 0 29.8125 C -0.0078125 29.875 -0.0078125 29.9375 0 30 L 0 39 C 0 40.550781 0.703125 41.976563 1.84375 43.1875 C 2.984375 44.398438 4.570313 45.429688 6.46875 46.28125 C 10.265625 47.984375 15.378906 49 21 49 C 23.132813 49 25.183594 48.90625 27.15625 48.59375 C 27.53125 48.566406 27.859375 48.328125 28.003906 47.980469 C 28.148438 47.632813 28.085938 47.230469 27.839844 46.945313 C 27.59375 46.660156 27.210938 46.535156 26.84375 46.625 C 25.015625 46.914063 23.066406 47 21 47 C 15.621094 47 10.734375 46.015625 7.28125 44.46875 C 5.554688 43.695313 4.203125 42.789063 3.3125 41.84375 C 2.421875 40.898438 2 39.949219 2 39 L 2 34.34375 C 3.128906 35.488281 4.652344 36.464844 6.46875 37.28125 C 10.265625 38.984375 15.378906 40 21 40 C 21.898438 40 22.742188 40.015625 23.625 39.90625 C 24.175781 39.835938 24.570313 39.332031 24.5 38.78125 C 24.429688 38.230469 23.925781 37.835938 23.375 37.90625 C 22.65625 37.996094 21.898438 38 21 38 C 15.621094 38 10.734375 37.015625 7.28125 35.46875 C 5.554688 34.695313 4.203125 33.789063 3.3125 32.84375 C 2.421875 31.898438 2 30.949219 2 30 C 2.007813 29.9375 2.007813 29.875 2 29.8125 L 2 24.34375 C 3.128906 25.488281 4.652344 26.464844 6.46875 27.28125 C 10.265625 28.984375 15.378906 30 21 30 C 26.621094 30 31.734375 28.984375 35.53125 27.28125 C 37.347656 26.464844 38.871094 25.488281 40 24.34375 L 40 25 C 39.996094 25.359375 40.183594 25.695313 40.496094 25.878906 C 40.808594 26.058594 41.191406 26.058594 41.503906 25.878906 C 41.816406 25.695313 42.003906 25.359375 42 25 L 42 10 C 42 9.96875 42 9.9375 42 9.90625 C 42 9.875 42 9.84375 42 9.8125 C 42 9.800781 42 9.792969 42 9.78125 C 41.992188 9.761719 41.980469 9.738281 41.96875 9.71875 C 41.886719 8.28125 41.226563 6.949219 40.15625 5.8125 C 39.015625 4.601563 37.429688 3.570313 35.53125 2.71875 C 31.734375 1.015625 26.621094 0 21 0 Z M 21 2 C 26.378906 2 31.265625 2.984375 34.71875 4.53125 C 36.445313 5.304688 37.796875 6.210938 38.6875 7.15625 C 39.578125 8.101563 40 9.050781 40 10 C 40 10.949219 39.578125 11.898438 38.6875 12.84375 C 37.796875 13.789063 36.445313 14.695313 34.71875 15.46875 C 31.265625 17.015625 26.378906 18 21 18 C 15.621094 18 10.734375 17.015625 7.28125 15.46875 C 5.554688 14.695313 4.203125 13.789063 3.3125 12.84375 C 2.421875 11.898438 2 10.949219 2 10 C 2 9.96875 2 9.9375 2 9.90625 C 2.027344 8.988281 2.449219 8.070313 3.3125 7.15625 C 4.203125 6.210938 5.554688 5.304688 7.28125 4.53125 C 10.734375 2.984375 15.621094 2 21 2 Z M 2 14.34375 C 3.128906 15.488281 4.652344 16.464844 6.46875 17.28125 C 10.265625 18.984375 15.378906 20 21 20 C 26.621094 20 31.734375 18.984375 35.53125 17.28125 C 37.347656 16.464844 38.871094 15.488281 40 14.34375 L 40 20 C 40 20.949219 39.578125 21.898438 38.6875 22.84375 C 37.796875 23.789063 36.445313 24.695313 34.71875 25.46875 C 31.265625 27.015625 26.378906 28 21 28 C 15.621094 28 10.734375 27.015625 7.28125 25.46875 C 5.554688 24.695313 4.203125 23.789063 3.3125 22.84375 C 2.421875 21.898438 2 20.949219 2 20 C 2.007813 19.9375 2.007813 19.875 2 19.8125 Z M 36.9375 28 L 36.8125 28.84375 L 36.40625 31.28125 C 36.070313 31.402344 35.746094 31.546875 35.4375 31.6875 L 32.6875 29.6875 L 29.6875 32.6875 L 30.1875 33.375 L 31.59375 35.375 C 31.441406 35.675781 31.320313 35.984375 31.21875 36.3125 L 28.84375 36.71875 L 28 36.84375 L 28 41.03125 L 28.84375 41.1875 L 31.1875 41.59375 C 31.308594 41.929688 31.425781 42.257813 31.5625 42.5625 L 30.1875 44.625 L 29.71875 45.3125 L 30.28125 45.90625 L 32.09375 47.71875 L 32.6875 48.28125 L 35.4375 46.40625 C 35.769531 46.558594 36.085938 46.714844 36.40625 46.8125 L 36.8125 49.25 L 36.9375 50.09375 L 41.15625 50.09375 L 41.28125 49.25 L 41.6875 46.8125 C 42.035156 46.6875 42.371094 46.550781 42.6875 46.40625 L 45.4375 48.28125 L 47.8125 45.90625 L 48.40625 45.28125 L 47.90625 44.59375 L 46.40625 42.625 C 46.554688 42.300781 46.71875 41.996094 46.8125 41.6875 L 49.1875 41.1875 L 50 41 L 50 36.84375 L 49.15625 36.71875 L 46.71875 36.3125 C 46.59375 35.964844 46.457031 35.628906 46.3125 35.3125 L 48.1875 32.5625 L 47.59375 32 L 45.90625 30.28125 L 45.28125 29.6875 L 44.59375 30.1875 L 42.625 31.6875 C 42.300781 31.539063 41.996094 31.375 41.6875 31.28125 L 41.28125 28.84375 L 41.15625 28 Z M 38.625 30 L 39.4375 30 L 39.8125 32.15625 L 39.90625 32.78125 L 40.53125 32.96875 C 41.230469 33.167969 41.820313 33.339844 42.25 33.625 L 42.84375 34.03125 L 43.40625 33.59375 L 45.125 32.34375 L 45.59375 32.8125 L 44.375 34.625 L 44.03125 35.125 L 44.3125 35.65625 C 44.59375 36.214844 44.855469 36.851563 45.03125 37.46875 L 45.21875 38.09375 L 45.84375 38.1875 L 48 38.5625 L 48 39.375 L 45.90625 39.8125 L 45.3125 39.9375 L 45.125 40.53125 C 44.925781 41.230469 44.753906 41.820313 44.46875 42.25 L 44.0625 42.84375 L 44.5 43.40625 L 45.78125 45.125 L 45.1875 45.71875 L 43.375 44.46875 L 42.875 44.15625 L 42.34375 44.40625 C 41.785156 44.6875 41.148438 44.949219 40.53125 45.125 L 39.90625 45.3125 L 39.8125 45.9375 L 39.4375 48.09375 L 38.625 48.09375 L 38.28125 45.9375 L 38.1875 45.3125 L 37.5625 45.125 C 36.863281 44.925781 36.273438 44.753906 35.84375 44.46875 L 35.28125 44.09375 L 34.75 44.46875 L 32.9375 45.71875 L 32.28125 45.0625 L 33.53125 43.25 L 33.84375 42.78125 L 33.59375 42.25 C 33.3125 41.691406 33.050781 41.054688 32.875 40.4375 L 32.6875 39.8125 L 32.0625 39.71875 L 30 39.375 L 30 38.53125 L 32.0625 38.1875 L 32.78125 38.0625 L 32.875 37.34375 C 32.949219 36.828125 33.203125 36.242188 33.53125 35.75 L 33.90625 35.1875 L 33.53125 34.625 L 32.3125 32.90625 L 32.90625 32.3125 L 34.71875 33.625 L 35.21875 33.96875 L 35.75 33.6875 C 36.308594 33.40625 36.945313 33.144531 37.5625 32.96875 L 38.1875 32.78125 L 38.28125 32.15625 Z M 39 35 C 36.789063 35 35 36.789063 35 39 C 35 41.210938 36.789063 43 39 43 C 41.210938 43 43 41.210938 43 39 C 43 36.789063 41.210938 35 39 35 Z M 39 37 C 40.191406 37 41 37.808594 41 39 C 41 40.191406 40.191406 41 39 41 C 37.808594 41 37 40.191406 37 39 C 37 37.808594 37.808594 37 39 37 Z"></path></svg>