<svg width="100" height="100" xmlns="http://www.w3.org/2000/svg" x="0px" y="0px" viewBox="0 0 50 50">
<title>diploma</title>
<path d="M 0.8125 0 C 0.335938 0.0898438 -0.0078125 0.511719 0 1 L 0 41 C 0 41.550781 0.449219 42 1 42 L 17 42 L 17 40 L 2 40 L 2 2 L 48 2 L 48 40 L 33 40 L 33 42 L 49 42 C 49.550781 42 50 41.550781 50 41 L 50 1 C 50 0.449219 49.550781 0 49 0 L 1 0 C 0.96875 0 0.9375 0 0.90625 0 C 0.875 0 0.84375 0 0.8125 0 Z M 10 9 L 10 11 L 40 11 L 40 9 Z M 10 14 L 10 16 L 40 16 L 40 14 Z M 10 19 L 10 21 L 40 21 L 40 19 Z M 24.90625 23.90625 C 23.859375 23.90625 23.027344 24.53125 22.5 25.375 C 21.523438 25.0625 20.457031 25.15625 19.65625 25.84375 C 18.84375 26.539063 18.59375 27.570313 18.71875 28.5625 C 17.765625 28.960938 17.027344 29.71875 16.8125 30.6875 C 16.8125 30.71875 16.8125 30.75 16.8125 30.78125 C 16.691406 31.746094 17.121094 32.628906 17.8125 33.3125 C 17.359375 34.21875 17.191406 35.269531 17.71875 36.1875 C 18.015625 36.707031 18.480469 37.046875 19 37.28125 L 19 49 C 19.007813 49.351563 19.203125 49.675781 19.507813 49.847656 C 19.816406 50.023438 20.195313 50.019531 20.5 49.84375 L 25 47.15625 L 29.5 49.84375 C 29.804688 50.019531 30.183594 50.023438 30.492188 49.847656 C 30.796875 49.675781 30.992188 49.351563 31 49 L 31 36.875 C 31.234375 36.703125 31.449219 36.527344 31.625 36.28125 C 31.636719 36.25 31.648438 36.21875 31.65625 36.1875 C 32.167969 35.289063 32.050781 34.269531 31.625 33.375 C 32.519531 32.714844 33.109375 31.769531 33 30.78125 C 32.992188 30.75 32.980469 30.71875 32.96875 30.6875 C 32.742188 29.675781 31.992188 28.941406 31.0625 28.53125 C 31.175781 27.550781 30.960938 26.535156 30.15625 25.84375 C 29.324219 25.132813 28.261719 25.113281 27.3125 25.375 C 26.78125 24.558594 25.984375 23.90625 24.90625 23.90625 Z M 24.90625 25.90625 C 25.363281 25.90625 25.695313 26.179688 25.875 26.65625 C 25.984375 26.9375 26.210938 27.15625 26.5 27.25 C 26.515625 27.257813 26.648438 27.261719 26.6875 27.28125 C 26.738281 27.296875 26.699219 27.3125 26.8125 27.3125 C 26.90625 27.347656 26.910156 27.40625 27.09375 27.40625 C 27.257813 27.402344 27.417969 27.359375 27.5625 27.28125 C 28.09375 27.015625 28.464844 27.019531 28.84375 27.34375 C 29.238281 27.683594 29.320313 28.128906 29.15625 28.5625 C 29.039063 28.910156 29.125 29.292969 29.375 29.5625 C 29.414063 29.640625 29.457031 29.769531 29.59375 29.90625 C 29.730469 30.046875 29.902344 30.144531 30.09375 30.1875 C 30.652344 30.3125 30.867188 30.554688 31 31.09375 C 31.039063 31.554688 30.964844 31.804688 30.25 32.0625 C 29.855469 32.207031 29.59375 32.582031 29.59375 33 L 29.59375 33.40625 C 29.597656 33.609375 29.664063 33.804688 29.78125 33.96875 C 30.066406 34.371094 30.089844 34.839844 29.9375 35.15625 C 29.628906 35.546875 29.183594 35.765625 28.8125 35.71875 C 28.511719 35.683594 28.214844 35.789063 28 36 L 27.6875 36.28125 C 27.5 36.472656 27.398438 36.734375 27.40625 37 C 27.40625 37.53125 27.199219 37.800781 26.75 37.96875 C 26.738281 37.96875 26.730469 37.96875 26.71875 37.96875 C 26.71875 37.957031 26.554688 38 26.40625 38 C 26.140625 38 25.875 37.875 25.59375 37.59375 C 25.410156 37.414063 25.164063 37.316406 24.90625 37.3125 L 24.40625 37.3125 C 24.140625 37.304688 23.878906 37.40625 23.6875 37.59375 C 23.285156 37.996094 22.953125 38.113281 22.5625 37.96875 C 22.179688 37.824219 21.90625 37.382813 21.90625 37 C 21.902344 36.726563 21.792969 36.46875 21.59375 36.28125 L 21.3125 36 C 21.089844 35.78125 20.777344 35.675781 20.46875 35.71875 C 20.074219 35.769531 19.664063 35.5625 19.46875 35.21875 C 19.289063 34.902344 19.324219 34.390625 19.625 33.96875 C 19.742188 33.804688 19.808594 33.609375 19.8125 33.40625 L 19.8125 33 C 19.808594 32.632813 19.605469 32.296875 19.28125 32.125 C 19.015625 31.972656 18.800781 31.472656 18.8125 31.09375 C 18.949219 30.542969 19.199219 30.234375 19.625 30.1875 C 19.847656 30.164063 20.058594 30.0625 20.21875 29.90625 C 20.371094 29.753906 20.433594 29.597656 20.46875 29.53125 C 20.6875 29.257813 20.746094 28.890625 20.625 28.5625 C 20.460938 28.128906 20.542969 27.683594 20.9375 27.34375 C 21.320313 27.015625 21.84375 27.015625 22.125 27.21875 C 22.429688 27.429688 22.828125 27.453125 23.15625 27.28125 C 23.167969 27.28125 23.175781 27.28125 23.1875 27.28125 C 23.21875 27.273438 23.25 27.261719 23.28125 27.25 C 23.621094 27.148438 23.882813 26.875 23.96875 26.53125 C 24.046875 26.226563 24.449219 25.90625 24.90625 25.90625 Z M 29 38.28125 L 29 47.25 L 25.5 45.15625 C 25.191406 44.976563 24.808594 44.976563 24.5 45.15625 L 21 47.25 L 21 39.3125 C 21.234375 39.535156 21.511719 39.71875 21.84375 39.84375 C 22.835938 40.214844 23.789063 39.855469 24.5625 39.3125 C 24.570313 39.308594 24.585938 39.316406 24.59375 39.3125 C 24.601563 39.316406 24.617188 39.308594 24.625 39.3125 C 25.105469 39.679688 25.683594 40 26.40625 40 C 26.585938 40 26.972656 39.996094 27.4375 39.8125 C 27.453125 39.796875 27.480469 39.789063 27.5 39.78125 C 27.527344 39.769531 27.535156 39.796875 27.5625 39.78125 L 27.5625 39.75 C 28.222656 39.460938 28.710938 38.929688 29 38.28125 Z"/></svg>