<svg width="100" height="100" xmlns="http://www.w3.org/2000/svg" x="0px" y="0px" viewBox="0 0 50 50">
<title>easy</title>
<path d="M 19.984375 0.984375 C 19.433594 0.996094 18.992188 1.449219 19 2 L 19 8 C 18.996094 8.359375 19.183594 8.695313 19.496094 8.878906 C 19.808594 9.058594 20.191406 9.058594 20.503906 8.878906 C 20.816406 8.695313 21.003906 8.359375 21 8 L 21 2 C 21.003906 1.730469 20.898438 1.46875 20.707031 1.277344 C 20.515625 1.085938 20.253906 0.980469 19.984375 0.984375 Z M 10.988281 3.992188 C 10.582031 3.992188 10.21875 4.238281 10.0625 4.613281 C 9.910156 4.992188 10 5.421875 10.292969 5.707031 L 14.292969 9.707031 C 14.542969 9.96875 14.917969 10.074219 15.265625 9.980469 C 15.617188 9.890625 15.890625 9.617188 15.980469 9.265625 C 16.074219 8.917969 15.96875 8.542969 15.707031 8.292969 L 11.707031 4.292969 C 11.519531 4.097656 11.261719 3.992188 10.988281 3.992188 Z M 28.980469 3.992188 C 28.71875 3.996094 28.472656 4.105469 28.292969 4.292969 L 24.292969 8.292969 C 24.03125 8.542969 23.925781 8.917969 24.019531 9.265625 C 24.109375 9.617188 24.382813 9.890625 24.734375 9.980469 C 25.082031 10.074219 25.457031 9.96875 25.707031 9.707031 L 29.707031 5.707031 C 30.003906 5.417969 30.089844 4.980469 29.929688 4.601563 C 29.769531 4.21875 29.394531 3.976563 28.980469 3.992188 Z M 39.171875 5.007813 C 38.191406 5.007813 37.207031 5.378906 36.464844 6.121094 L 18.226563 24.359375 C 17.925781 23.808594 17.777344 23.515625 17.21875 22.558594 C 16.289063 20.976563 15.253906 19.261719 14.3125 18.316406 C 12.867188 16.871094 10.867188 15.871094 8.992188 15.359375 C 8.058594 15.105469 7.152344 14.972656 6.324219 15.003906 C 5.496094 15.035156 4.695313 15.210938 4.085938 15.816406 L 2.292969 17.609375 C 1.902344 18 1.902344 18.636719 2.292969 19.027344 L 7.78125 24.515625 L 12.050781 37.316406 C 12.101563 37.464844 12.183594 37.597656 12.292969 37.707031 L 20.144531 45.558594 C 23.371094 48.785156 28.628906 48.785156 31.855469 45.558594 L 33.585938 43.828125 L 33.171875 43.828125 C 33.4375 43.828125 33.691406 43.722656 33.878906 43.535156 L 42.878906 34.535156 C 44.363281 33.046875 44.363281 30.609375 42.878906 29.121094 C 42.28125 28.523438 41.523438 28.234375 40.746094 28.117188 C 41.222656 26.765625 40.953125 25.195313 39.878906 24.121094 C 39.28125 23.523438 38.523438 23.234375 37.746094 23.117188 C 38.222656 21.765625 37.953125 20.195313 36.878906 19.121094 C 36.402344 18.644531 35.816406 18.378906 35.207031 18.207031 L 41.878906 11.535156 C 43.367188 10.046875 43.367188 7.609375 41.878906 6.121094 C 41.136719 5.378906 40.152344 5.007813 39.171875 5.007813 Z M 39.171875 6.992188 C 39.636719 6.992188 40.101563 7.171875 40.464844 7.535156 C 41.1875 8.257813 41.1875 9.398438 40.464844 10.121094 L 31.464844 19.121094 C 31.085938 19.515625 31.09375 20.136719 31.480469 20.519531 C 31.863281 20.90625 32.484375 20.914063 32.878906 20.535156 C 33.601563 19.8125 34.742188 19.8125 35.464844 20.535156 C 36.1875 21.257813 36.1875 22.398438 35.464844 23.121094 L 34.464844 24.121094 C 34.085938 24.515625 34.09375 25.136719 34.480469 25.519531 C 34.863281 25.90625 35.484375 25.914063 35.878906 25.535156 C 36.601563 24.8125 37.742188 24.8125 38.464844 25.535156 C 39.1875 26.257813 39.1875 27.398438 38.464844 28.121094 L 37.464844 29.121094 C 37.085938 29.515625 37.09375 30.136719 37.480469 30.519531 C 37.863281 30.90625 38.484375 30.914063 38.878906 30.535156 C 39.601563 29.8125 40.742188 29.8125 41.464844 30.535156 C 42.1875 31.257813 42.1875 32.398438 41.464844 33.125 L 32.464844 42.121094 L 30.441406 44.144531 C 27.980469 46.605469 24.019531 46.605469 21.558594 44.144531 L 13.875 36.457031 L 9.605469 23.65625 C 9.554688 23.511719 9.472656 23.378906 9.363281 23.265625 L 4.414063 18.316406 L 5.5 17.230469 C 5.546875 17.183594 5.855469 17.023438 6.402344 17.003906 C 6.949219 16.984375 7.683594 17.078125 8.46875 17.292969 C 10.035156 17.71875 11.792969 18.625 12.902344 19.734375 C 13.425781 20.261719 14.589844 22.027344 15.492188 23.566406 C 16.394531 25.109375 17.117188 26.46875 17.117188 26.46875 C 17.265625 26.75 17.539063 26.941406 17.851563 26.988281 C 18.164063 27.035156 18.484375 26.929688 18.707031 26.707031 L 37.878906 7.535156 C 38.242188 7.171875 38.707031 6.992188 39.171875 6.992188 Z"></path></svg>