<svg width="149px" height="20px" viewBox="0 0 745 100" version="1.1" xmlns="http://www.w3.org/2000/svg" xmlns:xlink="http://www.w3.org/1999/xlink">
    <title>edb-docs-logo-dark</title>
    <g id="edb-docs-logo-dark" stroke="none" stroke-width="1" fill="none" fill-rule="evenodd">
        <g id="logo" transform="translate(4.000000, 2.000000)">
            <g id="type" transform="translate(176.000000, 0.000000)">
                <path d="M21.0754075,56.3042349 L21.0754075,78.0711069 L73.9007348,78.0711069 C74.7980494,78.0711069 75.9975684,79.3531625 75.9975684,80.3123647 L75.9975684,94.0780865 C75.9975684,95.0372887 74.7980494,96.3193443 73.9007348,96.3193443 L2.46891562,96.3193443 C1.56695175,96.3193443 0.664987881,95.3601421 0.664987881,94.3962609 L0.664987881,2.20522931 C0.664987881,1.24602709 1.56695175,0.282145826 2.46891562,0.282145826 L72.998771,0.282145826 C73.9007348,0.282145826 75.1002538,1.56420148 75.1002538,2.52340371 L75.1002538,16.2891254 C75.1002538,17.2483276 73.9007348,18.5303833 72.998771,18.5303833 L21.0754075,18.5303833 L21.0754075,38.0559974 L68.4936009,38.0559974 C69.3955648,38.0559974 70.5950837,39.3380531 70.5950837,40.2972553 L70.5950837,54.062977 C70.5950837,55.0221792 69.3955648,56.3042349 68.4936009,56.3042349 L21.0754075,56.3042349 Z" id="Fill-13" fill="#000000"></path>
                <path d="M112.16446,18.5303833 L112.16446,78.0711069 L131.821693,78.0711069 C150.879167,78.0711069 160.935599,66.546643 160.935599,48.3030846 C160.935599,30.0548471 148.628907,18.5303833 131.524138,18.5303833 L112.16446,18.5303833 Z M93.5579681,96.3193443 C92.6560042,96.3193443 91.7540403,95.3601421 91.7540403,94.4009399 L91.7540403,2.20522931 C91.7540403,1.24602709 92.6560042,0.282145826 93.5579681,0.282145826 L131.524138,0.282145826 C160.033635,0.282145826 181.346019,19.0123239 181.346019,48.3030846 C181.346019,77.2709918 163.334637,96.3193443 131.821693,96.3193443 L93.5579681,96.3193443 Z" id="Fill-15" fill="#000000"></path>
                <path d="M239.725462,78.0720427 C251.130191,78.0720427 255.630711,74.2305547 255.630711,66.5475788 C255.630711,59.5056308 250.530431,54.7049406 239.27448,54.7049406 L213.912558,54.7049406 L213.912558,78.0720427 L239.725462,78.0720427 Z M213.912558,18.5313191 L213.912558,38.0569332 L240.023017,38.0569332 C249.028708,38.0569332 252.180932,33.5744174 252.180932,28.4555529 C252.180932,23.0138349 248.131393,18.5313191 238.525943,18.5313191 L213.912558,18.5313191 Z M195.306066,96.3202801 C194.404102,96.3202801 193.506787,95.3563989 193.506787,94.3971967 L193.506787,2.20616512 C193.506787,1.24228386 194.404102,0.283081633 195.306066,0.283081633 L241.375963,0.283081633 C261.786382,0.283081633 272.591352,11.8075455 272.591352,26.6915566 C272.591352,34.3745325 269.736683,40.4572783 264.78518,44.7807069 L264.78518,45.0988813 C271.838165,49.9042505 276.041131,57.5825473 276.041131,67.5067811 C276.041131,85.9141058 263.436883,96.3202801 241.826945,96.3202801 L195.306066,96.3202801 Z" id="Fill-17" fill="#000000"></path>
                <path d="M332.205362,97 C336.279877,97 339.725876,96.4525232 342.54336,95.3575697 C345.360843,94.2626162 347.636503,92.8992917 349.370339,91.2675963 C351.104175,89.6359008 352.426225,87.9827357 353.336489,86.3081009 C354.246753,84.6334661 354.896942,83.2164675 355.287055,82.0571049 L355.287055,82.0571049 L356.327357,95.7118194 L364.324675,95.7118194 L364.324675,0 L354.051697,0 L354.051697,40.062417 C353.574892,39.0748119 352.772993,37.8939796 351.645999,36.5199203 C350.519006,35.145861 349.045245,33.7932714 347.224717,32.4621514 C345.404189,31.1310314 343.193548,30.0253431 340.592794,29.1450863 C337.99204,28.2648296 334.957827,27.8247012 331.490155,27.8247012 C325.335037,27.8247012 320.209384,29.2524347 316.113196,32.1079017 C312.017009,34.9633687 308.950286,38.9567286 306.913029,44.0879814 C304.875772,49.2192342 303.857143,55.2414785 303.857143,62.1547145 C303.857143,73.6624613 306.414551,82.3469456 311.529367,88.2081673 C316.644184,94.0693891 323.536182,97 332.205362,97 Z M333.110654,89.4415584 C326.740027,89.4415584 321.951438,87.0152224 318.744889,82.1625502 C315.53834,77.309878 313.935065,70.6080598 313.935065,62.0570956 C313.935065,53.2496025 315.729458,46.7936246 319.318245,42.6891617 C322.907032,38.5846989 327.610679,36.5324675 333.429186,36.5324675 C338.14345,36.5324675 341.912738,37.5478945 344.73705,39.5787485 C347.561362,41.6096025 349.631816,44.527619 350.948412,48.3327981 C352.265009,52.1379772 352.944542,56.712743 352.987013,62.0570956 C352.987013,71.7196852 351.479298,78.6994097 348.463867,82.9962692 C345.448437,87.2931287 340.330699,89.4415584 333.110654,89.4415584 Z M406.026142,97 C412.70141,97 418.260522,95.5484836 422.703477,92.6454509 C427.146432,89.7424182 430.494903,85.7104283 432.74889,80.5494812 C435.002877,75.3885342 436.12987,69.4104372 436.12987,62.6151902 C436.12987,55.0027933 434.883675,48.6053693 432.391286,43.4229183 C429.898897,38.2404673 426.409552,34.3267491 421.923251,31.6817638 C417.43695,29.0367784 412.159587,27.7142857 406.09116,27.7142857 C399.459238,27.7142857 393.889289,29.1658021 389.381315,32.0688348 C384.873342,34.9718675 381.459852,39.0468653 379.140846,44.2938281 C376.821841,49.540791 375.662338,55.6479117 375.662338,62.6151902 C375.662338,70.0985634 376.919369,76.3992197 379.433431,81.5171588 C381.947493,86.635098 385.491021,90.4950563 390.064013,93.0970338 C394.637006,95.6990113 399.957715,97 406.026142,97 Z M406.058914,89.4415584 C401.326578,89.4415584 397.46256,88.2829652 394.466861,85.9657787 C391.471162,83.6485923 389.267804,80.5053718 387.856786,76.5361172 C386.445769,72.5668626 385.74026,68.0504945 385.74026,62.987013 C385.74026,57.3227794 386.543454,52.516763 388.149844,48.5689639 C389.756233,44.6211647 392.068131,41.6281322 395.085538,39.5898663 C398.102945,37.5516005 401.760737,36.5324675 406.058914,36.5324675 C410.704418,36.5324675 414.503311,37.680333 417.455594,39.9760641 C420.407878,42.2717951 422.578674,45.4150156 423.967984,49.4057257 C425.357293,53.3964357 426.051948,57.9235315 426.051948,62.987013 C426.051948,68.6083357 425.259607,73.3928966 423.674926,77.3406958 C422.090245,81.288495 419.810909,84.2922552 416.836918,86.3519765 C413.862927,88.4116978 410.270259,89.4415584 406.058914,89.4415584 Z M473.900605,97 C478.452848,97 482.586371,96.1613461 486.301173,94.4840383 C490.015976,92.8067305 493.118802,90.3875366 495.609652,87.2264565 C498.100502,84.0653764 499.668019,80.2914339 500.312205,75.9046289 L500.312205,75.9046289 L491.229191,75.9046289 C490.84268,78.3130709 489.897875,80.5172253 488.394776,82.5170923 C486.891677,84.5169593 484.926911,86.1082513 482.50048,87.2909683 C480.074048,88.4736854 477.271842,89.0650439 474.093861,89.0650439 C467.265496,89.0650439 462.122749,86.64585 458.665621,81.8074621 C455.208493,76.9690742 453.479929,70.5286424 453.479929,62.4861665 C453.479929,53.4975171 455.380276,46.8420458 459.18097,42.5197526 C462.981663,38.1974594 467.909681,36.0363128 473.965024,36.0363128 C477.143005,36.0363128 479.945211,36.6169194 482.371643,37.7781325 C484.798074,38.9393456 486.762839,40.5198856 488.265939,42.5197526 C489.769038,44.5196196 490.735316,46.7667819 491.164773,49.2612397 L491.164773,49.2612397 L500.376623,49.2612397 C499.689492,44.745411 498.121975,40.8854527 495.67407,37.6813647 C493.226166,34.4772768 490.134076,32.0150749 486.397801,30.2947592 C482.661526,28.5744436 478.495794,27.7142857 473.900605,27.7142857 C467.37286,27.7142857 461.865075,29.176554 457.377251,32.1010907 C452.889426,35.0256274 449.48598,39.1006252 447.166913,44.3260841 C444.847845,49.551543 443.688312,55.6264077 443.688312,62.5506784 C443.688312,70.1200674 444.965946,76.4637315 447.521215,81.5816707 C450.076483,86.6996098 453.630239,90.5488162 458.182482,93.1292897 C462.734726,95.7097632 467.9741,97 473.900605,97 Z M537.332638,97 C542.652925,97 547.153888,96.204354 550.835527,94.613062 C554.517166,93.02177 557.315637,90.7638556 559.230941,87.839319 C561.146244,84.9147823 562.103896,81.452647 562.103896,77.452913 C562.103896,75.8186131 561.859163,74.1198014 561.369696,72.3564778 C560.88023,70.5931542 560.071546,68.9265984 558.943645,67.3568103 C557.815744,65.7870223 556.304783,64.3677618 554.41076,63.099029 C552.516738,61.8302962 550.122609,60.8088587 547.228372,60.0347167 L547.228372,60.0347167 L533.3105,56.3575419 C529.650143,55.4113683 526.862312,54.2178993 524.947008,52.7771349 C523.031705,51.3363705 522.074053,49.3257515 522.074053,46.745278 C522.074053,42.8745677 523.467969,40.0145429 526.255799,38.1652035 C529.04363,36.3158641 532.672066,35.3911945 537.141107,35.3911945 C541.482462,35.3911945 544.887446,36.391128 547.356059,38.3909949 C549.824673,40.3908619 551.271791,43.0896072 551.697414,46.4872306 L551.697414,46.4872306 L560.763184,46.4872306 C560.50781,40.2510863 558.252008,35.563226 553.995778,32.4236499 C549.739548,29.2840738 544.142606,27.7142857 537.204951,27.7142857 C531.756976,27.7142857 527.224092,28.5529396 523.606296,30.2302474 C519.988501,31.9075552 517.275154,34.2084774 515.466256,37.1330141 C513.657359,40.0575508 512.75291,43.4336703 512.75291,47.2613727 C512.795472,52.0782566 514.348996,55.8306952 517.413481,58.5186885 C520.477967,61.2066817 524.60651,63.2173007 529.799111,64.5505454 L529.799111,64.5505454 L544.0362,68.2277201 C547.015561,68.9588543 549.239441,70.1200674 550.70784,71.7113594 C552.17624,73.3026514 552.910439,75.4100381 552.910439,78.0335196 C552.910439,81.8182141 551.484602,84.624479 548.632928,86.4523144 C545.781254,88.2801499 542.014491,89.1940676 537.332638,89.1940676 C534.22559,89.1940676 531.4484,88.7102288 529.001068,87.7425512 C526.553735,86.7748736 524.542667,85.3663652 522.967862,83.5170258 C521.393056,81.6676864 520.307718,79.4097721 519.711846,76.7432828 L519.711846,76.7432828 L510.454545,76.7432828 C511.09298,81.3881351 512.657144,85.2050856 515.147039,88.1941341 C517.636934,91.1831826 520.807825,93.398089 524.659713,94.8388534 C528.511601,96.2796178 532.735909,97 537.332638,97 Z" id="docs" fill="#7B868C" fill-rule="nonzero"></path>
            </g>
            <g id="mark" fill="#FF3E00">
                <path d="M153.354571,20.9355556 L153.354571,20.9355556 C153.354571,8.6762963 143.565663,-0.24962963 131.493659,1.00592593 L113.133001,2.91333333 C111.196612,3.11333333 109.629059,4.86888889 109.629059,6.83555556 L109.629059,39.9281481 L109.629059,44.1207407 L109.629059,77.2133333 C109.629059,79.1762963 111.196612,80.6096296 113.133001,80.4059259 L131.493659,78.4985185 C143.565663,77.2466667 153.354571,66.2911111 153.354571,54.0281481 L153.354571,54.0281481 C153.354571,47.4540741 150.536664,41.8392593 146.062683,38.2392593 C150.536664,33.7096296 153.354571,27.5096296 153.354571,20.9355556" id="Fill-20"></path>
                <path d="M40.5368482,2.91518519 L22.1798786,1.00777778 C10.1041867,-0.247777778 0.315278261,8.68185185 0.315278261,20.9522222 C0.315278261,27.5337037 3.13318559,33.7374074 7.60716673,38.2707407 C3.13318559,41.8744444 0.315278261,47.492963 0.315278261,54.0744444 L0.315278261,54.0744444 C0.315278261,66.3448148 10.1041867,77.3114815 22.1798786,78.567037 L40.5368482,80.4744444 C42.4732374,80.6781481 44.0407905,79.2448148 44.0407905,77.2781481 L44.0407905,44.1559259 L44.0407905,39.9633333 L44.0407905,6.84111111 C44.0407905,4.87444444 42.4732374,3.11518519 40.5368482,2.91518519" id="Fill-23"></path>
                <path d="M76.8815825,19.9655556 L58.5283013,19.9655556 C56.5919121,19.9655556 55.0243589,21.5433333 55.0243589,23.4914815 L55.0243589,71.4581481 L55.0243589,76.3285185 C55.0243589,78.3877778 56.4333126,80.4544444 58.4692875,80.4544444 L76.8852709,80.4544444 C76.6934761,84.2988889 71.4486277,87.2025926 59.1516342,88.5766667 L57.7574339,88.7025926 C56.9275529,88.7914815 55.0243589,88.7025926 55.0243589,92.3174074 L55.0243589,93.2766667 C55.0243589,95.2248148 56.5439634,96.9359259 58.4803526,96.9359259 L76.8336338,96.9359259 C88.9093257,96.9359259 98.7498712,86.9507407 98.7498712,74.7951852 L98.7498712,41.9766667 C98.7498712,29.8211111 88.9609627,19.9655556 76.8815825,19.9655556" id="Fill-26"></path>
            </g>
        </g>
    </g>
</svg>