<?xml version="1.0" encoding="UTF-8"?>
<svg width="400px" height="100px" viewBox="0 0 400 100" version="1.1" xmlns="http://www.w3.org/2000/svg" xmlns:xlink="http://www.w3.org/1999/xlink">
    <title>edb-docs-logo-disc-dark</title>
    <g id="edb-docs-logo-disc-dark" stroke="none" stroke-width="1" fill="none" fill-rule="evenodd">
        <g id="logo" transform="translate(6.500000, 2.000000)">
            <g id="type" transform="translate(113.000000, 23.000000)" fill="#000000">
                <path d="M123.569826,40.243321 C129.448552,40.243321 131.768408,38.2631725 131.768408,34.3028757 C131.768408,30.6730056 129.139398,28.198423 123.337361,28.198423 L110.264205,28.198423 L110.264205,40.243321 L123.569826,40.243321 Z M110.264205,9.55222635 L110.264205,19.6169759 L123.723205,19.6169759 C128.365313,19.6169759 129.990171,17.3064007 129.990171,14.6678108 C129.990171,11.8628015 127.90278,9.55222635 122.951517,9.55222635 L110.264205,9.55222635 Z M100.67323,49.6496289 C100.2083,49.6496289 99.7457667,49.1527829 99.7457667,48.6583488 L99.7457667,1.13719852 C99.7457667,0.640352505 100.2083,0.145918367 100.67323,0.145918367 L124.420599,0.145918367 C134.941434,0.145918367 140.511006,6.08636364 140.511006,13.7585343 C140.511006,17.7188312 139.039527,20.8542672 136.487206,23.0828386 L136.487206,23.246846 C140.122766,25.7238404 142.289243,29.6817254 142.289243,34.7973098 C142.289243,44.2856215 135.792208,49.6496289 124.653064,49.6496289 L100.67323,49.6496289 Z" id="Fill-17"></path>
                <path d="M57.8167319,9.55174397 L57.8167319,40.2428386 L67.9493264,40.2428386 C77.7727665,40.2428386 82.9564944,34.3023933 82.9564944,24.8984972 C82.9564944,15.4921892 76.6128384,9.55174397 67.7959475,9.55174397 L57.8167319,9.55174397 Z M48.2257567,49.6491466 C47.7608269,49.6491466 47.2958971,49.1547124 47.2958971,48.6602783 L47.2958971,1.13671614 C47.2958971,0.642282004 47.7608269,0.145435993 48.2257567,0.145435993 L67.7959475,0.145435993 C82.4915646,0.145435993 93.4773293,9.80016698 93.4773293,24.8984972 C93.4773293,39.8304082 84.1931119,49.6491466 67.9493264,49.6491466 L48.2257567,49.6491466 Z" id="Fill-15"></path>
                <path d="M10.8636121,29.0228015 L10.8636121,40.2428386 L38.0931623,40.2428386 C38.5556956,40.2428386 39.1740043,40.903692 39.1740043,41.3981262 L39.1740043,48.493859 C39.1740043,48.9882931 38.5556956,49.6491466 38.0931623,49.6491466 L1.27263692,49.6491466 C0.807707089,49.6491466 0.342777258,49.1547124 0.342777258,48.6578664 L0.342777258,1.13671614 C0.342777258,0.642282004 0.807707089,0.145435993 1.27263692,0.145435993 L37.6282325,0.145435993 C38.0931623,0.145435993 38.711471,0.806289425 38.711471,1.30072356 L38.711471,8.3964564 C38.711471,8.89089054 38.0931623,9.55174397 37.6282325,9.55174397 L10.8636121,9.55174397 L10.8636121,19.6164935 L35.3059798,19.6164935 C35.7709097,19.6164935 36.3892184,20.2773469 36.3892184,20.7717811 L36.3892184,27.8675139 C36.3892184,28.3619481 35.7709097,29.0228015 35.3059798,29.0228015 L10.8636121,29.0228015 Z" id="Fill-13"></path>
            </g>
            <g id="symbol">
                <circle id="Oval" fill="#FF3E00" cx="48" cy="48" r="48"></circle>
                <path d="M78,38.5615351 L78,38.5615351 C78,33.9375556 74.1296742,30.5708514 69.3566614,31.0444251 L62.0972485,31.7638661 C61.3316415,31.8393026 60.7118644,32.5014676 60.7118644,33.2432601 L60.7118644,45.7252111 L60.7118644,47.3065841 L60.7118644,59.7885351 C60.7118644,60.5289306 61.3316415,61.069559 62.0972485,60.9927255 L69.3566614,60.2732846 C74.1296742,59.8011078 78,55.6688626 78,51.0434861 L78,51.0434861 C78,48.5638596 76.8858595,46.446049 75.1169427,45.0881915 C76.8858595,43.3796939 78,41.0411617 78,38.5615351" id="Fill-20" fill="#FFFFFF"></path>
                <path d="M33.9027515,31.7632098 L26.6447969,31.044371 C21.8703258,30.5711936 18,33.9364759 18,38.5607731 C18,41.041116 19.1141405,43.379087 20.8830573,45.0875505 C19.1141405,46.4456674 18,48.5631014 18,51.0434443 L18,51.0434443 C18,55.6677414 21.8703258,59.8007158 26.6447969,60.2738932 L33.9027515,60.992732 C34.6683585,61.0695012 35.2881356,60.5293252 35.2881356,59.7881535 L35.2881356,47.3054824 L35.2881356,45.7254327 L35.2881356,33.2427616 C35.2881356,32.5015899 34.6683585,31.8385832 33.9027515,31.7632098" id="Fill-23" fill="#FFFFFF"></path>
                <path d="M47.9978126,39 L40.7413163,39 C39.9757093,39 39.3559322,39.5944567 39.3559322,40.3284573 L39.3559322,58.4007795 L39.3559322,60.235781 C39.3559322,61.0116447 39.9130025,61.7902993 40.7179835,61.7902993 L47.9992709,61.7902993 C47.9234393,63.2387643 45.849738,64.332788 40.9877689,64.8504956 L40.4365318,64.8979405 C40.1084145,64.931431 39.3559322,64.8979405 39.3559322,66.2598884 L39.3559322,66.6213069 C39.3559322,67.3553075 39.9567514,68 40.7223584,68 L47.9788547,68 C52.7533259,68 56.6440678,64.2378982 56.6440678,59.6580695 L56.6440678,47.2930902 C56.6440678,42.7132615 52.773742,39 47.9978126,39" id="Fill-26" fill="#FFFFFF"></path>
            </g>
            <path d="M284.440964,68 C286.098422,68 287.691424,67.5856354 289.219969,66.7569061 C290.748514,65.9281768 292.065273,64.9429098 293.170245,63.801105 L293.170245,63.801105 L293.335991,63.801105 L293.722732,67.3370166 L297.479638,67.3370166 L297.479638,28 L292.949251,28 L292.949251,38.3314917 L293.170245,43.3038674 L293.0045,43.3038674 C291.825862,42.198895 290.601185,41.3425414 289.330466,40.7348066 C288.059748,40.1270718 286.614076,39.8232044 284.99345,39.8232044 C283.409656,39.8232044 281.881111,40.1546961 280.407815,40.8176796 C278.934518,41.480663 277.636176,42.4198895 276.512787,43.6353591 C275.389398,44.8508287 274.487004,46.3333333 273.805605,48.0828729 C273.124205,49.8324125 272.783505,51.7937385 272.783505,53.9668508 C272.783505,56.213628 273.059748,58.2025783 273.612234,59.9337017 C274.164721,61.664825 274.956617,63.1289134 275.987925,64.3259669 C277.019233,65.5230203 278.24391,66.4346225 279.661958,67.0607735 C281.080006,67.6869245 282.673008,68 284.440964,68 Z M285.38019,64.1878453 C282.875586,64.1878453 280.932676,63.2854512 279.551461,61.480663 C278.170245,59.6758748 277.479638,57.1528545 277.479638,53.9116022 C277.479638,52.3646409 277.700632,50.9650092 278.142621,49.7127072 C278.58461,48.4604052 279.183137,47.3830571 279.938201,46.480663 C280.693266,45.5782689 281.577244,44.878453 282.590135,44.3812155 C283.603026,43.8839779 284.698791,43.6353591 285.877428,43.6353591 C287.056065,43.6353591 288.225494,43.8747698 289.385715,44.3535912 C290.545936,44.8324125 291.733781,45.6427256 292.949251,46.7845304 L292.949251,46.7845304 L292.949251,60.1546961 C290.555144,62.8434622 288.032124,64.1878453 285.38019,64.1878453 Z M315.739306,68 C317.507262,68 319.192345,67.6869245 320.794555,67.0607735 C322.396765,66.4346225 323.805605,65.5230203 325.021074,64.3259669 C326.236544,63.1289134 327.203395,61.6556169 327.921627,59.9060773 C328.639859,58.1565378 328.998975,56.1767956 328.998975,53.9668508 C328.998975,51.7200737 328.639859,49.7219153 327.921627,47.9723757 C327.203395,46.2228361 326.236544,44.7403315 325.021074,43.5248619 C323.805605,42.3093923 322.396765,41.388582 320.794555,40.7624309 C319.192345,40.1362799 317.507262,39.8232044 315.739306,39.8232044 C313.97135,39.8232044 312.286268,40.1362799 310.684058,40.7624309 C309.081848,41.388582 307.673008,42.3093923 306.457538,43.5248619 C305.242069,44.7403315 304.275218,46.2228361 303.556986,47.9723757 C302.838754,49.7219153 302.479638,51.7200737 302.479638,53.9668508 C302.479638,56.1767956 302.838754,58.1565378 303.556986,59.9060773 C304.275218,61.6556169 305.242069,63.1289134 306.457538,64.3259669 C307.673008,65.5230203 309.081848,66.4346225 310.684058,67.0607735 C312.286268,67.6869245 313.97135,68 315.739306,68 Z M315.739306,64.2430939 C314.450172,64.2430939 313.280743,63.9944751 312.231019,63.4972376 C311.181295,63 310.278901,62.3001842 309.523837,61.3977901 C308.768772,60.4953959 308.188662,59.4180479 307.783505,58.1657459 C307.378349,56.9134438 307.17577,55.5138122 307.17577,53.9668508 C307.17577,52.4198895 307.378349,51.0110497 307.783505,49.7403315 C308.188662,48.4696133 308.768772,47.373849 309.523837,46.4530387 C310.278901,45.5322284 311.181295,44.8232044 312.231019,44.3259669 C313.280743,43.8287293 314.450172,43.5801105 315.739306,43.5801105 C317.028441,43.5801105 318.19787,43.8287293 319.247594,44.3259669 C320.297317,44.8232044 321.199711,45.5322284 321.954776,46.4530387 C322.70984,47.373849 323.289951,48.4696133 323.695107,49.7403315 C324.100264,51.0110497 324.302842,52.4198895 324.302842,53.9668508 C324.302842,55.5138122 324.100264,56.9134438 323.695107,58.1657459 C323.289951,59.4180479 322.70984,60.4953959 321.954776,61.3977901 C321.199711,62.3001842 320.297317,63 319.247594,63.4972376 C318.19787,63.9944751 317.028441,64.2430939 315.739306,64.2430939 Z M346.825862,68 C348.814813,68 350.711682,67.6316759 352.51647,66.8950276 C354.321258,66.1583794 355.978717,65.1270718 357.488846,63.801105 L357.488846,63.801105 L355.444647,60.8729282 C354.339675,61.8305709 353.096581,62.6316759 351.715365,63.2762431 C350.33415,63.9208103 348.814813,64.2430939 347.157354,64.2430939 C345.610393,64.2430939 344.201553,63.9944751 342.930835,63.4972376 C341.660117,63 340.57356,62.3001842 339.671166,61.3977901 C338.768772,60.4953959 338.068956,59.4180479 337.571719,58.1657459 C337.074481,56.9134438 336.825862,55.5138122 336.825862,53.9668508 C336.825862,52.4198895 337.083689,51.0110497 337.599343,49.7403315 C338.114997,48.4696133 338.824021,47.373849 339.726415,46.4530387 C340.628809,45.5322284 341.724573,44.8232044 343.013708,44.3259669 C344.302842,43.8287293 345.72089,43.5801105 347.267851,43.5801105 C348.667483,43.5801105 349.965826,43.8563536 351.162879,44.4088398 C352.359932,44.961326 353.510945,45.7163904 354.615918,46.6740331 L354.615918,46.6740331 L356.881111,43.7458564 C355.776139,42.6777164 354.422548,41.7569061 352.820338,40.9834254 C351.218128,40.2099448 349.31205,39.8232044 347.102106,39.8232044 C345.076323,39.8232044 343.151829,40.1362799 341.328625,40.7624309 C339.50542,41.388582 337.912419,42.3093923 336.549619,43.5248619 C335.18682,44.7403315 334.109472,46.2228361 333.317575,47.9723757 C332.525678,49.7219153 332.12973,51.7200737 332.12973,53.9668508 C332.12973,56.1767956 332.498054,58.1565378 333.234702,59.9060773 C333.97135,61.6556169 335.002658,63.1289134 336.328625,64.3259669 C337.654592,65.5230203 339.210761,66.4346225 340.997133,67.0607735 C342.783505,67.6869245 344.726415,68 346.825862,68 Z M374.533045,68 C376.44833,68 378.151829,67.7882136 379.643542,67.3646409 C381.135255,66.9410681 382.387557,66.3609576 383.400448,65.6243094 C384.413339,64.8876611 385.177612,64.0405157 385.693266,63.0828729 C386.20892,62.1252302 386.466746,61.0939227 386.466746,59.9889503 C386.466746,58.9576427 386.310209,58.0368324 385.997133,57.2265193 C385.684058,56.4162063 385.113155,55.679558 384.284426,55.0165746 C383.455697,54.3535912 382.3231,53.7550645 380.886636,53.2209945 C379.450172,52.6869245 377.608551,52.1804788 375.361774,51.7016575 C372.599343,51.1123389 370.610393,50.5138122 369.394923,49.9060773 C368.179454,49.2983425 367.571719,48.4051565 367.571719,47.2265193 C367.571719,46.1952118 368.032124,45.2928177 368.952934,44.519337 C369.873745,43.7458564 371.475955,43.359116 373.759564,43.359116 C375.490687,43.359116 377.111314,43.6169429 378.621443,44.1325967 C380.131571,44.6482505 381.512787,45.3296501 382.765089,46.1767956 L382.765089,46.1767956 L384.975034,43.2486188 C383.649067,42.3278085 382.028441,41.5267035 380.113155,40.8453039 C378.19787,40.1639042 376.20892,39.8232044 374.146304,39.8232044 C372.304684,39.8232044 370.693266,40.0165746 369.31205,40.4033149 C367.930835,40.7900552 366.770614,41.3241252 365.831387,42.0055249 C364.892161,42.6869245 364.183137,43.4972376 363.704315,44.4364641 C363.225494,45.3756906 362.986083,46.3793738 362.986083,47.4475138 C362.986083,49.4732965 363.860853,51.1031308 365.610393,52.3370166 C367.359932,53.5709024 369.984242,54.5561694 373.483321,55.2928177 C375.288109,55.6611418 376.74299,56.0294659 377.847962,56.3977901 C378.952934,56.7661142 379.809288,57.1528545 380.417023,57.558011 C381.024757,57.9631676 381.420706,58.3867403 381.604868,58.8287293 C381.78903,59.2707182 381.881111,59.7495396 381.881111,60.2651934 C381.881111,61.4069982 381.319417,62.3922652 380.196028,63.2209945 C379.07264,64.0497238 377.369141,64.4640884 375.085531,64.4640884 C372.580927,64.4640884 370.398606,64.1325967 368.53857,63.4696133 C366.678533,62.8066298 364.975034,61.9226519 363.428072,60.8176796 L363.428072,60.8176796 L361.328625,63.801105 C362.986083,64.9429098 364.938201,65.9281768 367.184978,66.7569061 C369.431756,67.5856354 371.881111,68 374.533045,68 Z" id="docs" fill="#7B868C" fill-rule="nonzero"></path>
        </g>
    </g>
</svg>
