<svg width="100" height="100" xmlns="http://www.w3.org/2000/svg" x="0px" y="0px" viewBox="0 0 50 50">
<title>edb-ark</title>
<path d="M25,2 C22.806013,2 21.005415,3.7974359 21,5.9902344 L9.9375,12.3125 C9.2044591,11.512473 8.1619822,11 7,11 C4.8027056,11 3,12.802706 3,15 C3,16.850301 4.2842135,18.405591 6,18.855469 L6,31.144531 C4.2842135,31.594409 3,33.149699 3,35 C3,37.197294 4.8027056,39 7,39 C8.1619822,39 9.2044591,38.487527 9.9375,37.6875 L21,44.009766 C21.005415,46.202564 22.806013,48 25,48 C27.193987,48 28.994585,46.202564 29,44.009766 L40.0625,37.6875 C40.795541,38.487527 41.838018,39 43,39 C45.197294,39 47,37.197294 47,35 C47,33.149699 45.715786,31.594409 44,31.144531 L44,18.855469 C45.715786,18.405591 47,16.850301 47,15 C47,12.802706 45.197294,11 43,11 C41.838018,11 40.795541,11.512473 40.0625,12.3125 L29,5.9902344 C28.994585,3.7974359 27.193987,2 25,2 Z M25,4 C26.116414,4 27,4.8835859 27,6 C27,7.1164141 26.116414,8 25,8 C23.883586,8 23,7.1164141 23,6 C23,4.8835859 23.883586,4 25,4 Z M21.548828,7.9804688 C22.242368,9.1788112 23.525281,10 25,10 C26.474719,10 27.757632,9.1788112 28.451172,7.9804688 L39.119141,14.078125 C39.047772,14.375567 39,14.68172 39,15 C39,16.850301 40.284214,18.405591 42,18.855469 L42,31.144531 C40.284214,31.594409 39,33.149699 39,35 C39,35.31828 39.047772,35.624433 39.119141,35.921875 L28.451172,42.019531 C27.757632,40.821189 26.474719,40 25,40 C23.525281,40 22.242368,40.821189 21.548828,42.019531 L10.880859,35.921875 C10.952228,35.624433 11,35.31828 11,35 C11,33.149699 9.7157865,31.594409 8,31.144531 L8,18.855469 C9.7157865,18.405591 11,16.850301 11,15 C11,14.68172 10.952228,14.375567 10.880859,14.078125 L21.548828,7.9804688 Z M7,13 C8.1164141,13 9,13.883586 9,15 C9,16.085528 8.162361,16.943181 7.0898438,16.990234 C7.05478079,16.9870766 7.01957551,16.9857728 6.984375,16.986328 C6.95894394,16.986661 6.93353483,16.9879639 6.9082031,16.990234 C5.8366323,16.94221 5,16.084864 5,15 C5,13.883586 5.8835859,13 7,13 Z M43,13 C44.116414,13 45,13.883586 45,15 C45,16.085528 44.162361,16.943181 43.089844,16.990234 C43.0547809,16.9870766 43.0195756,16.9857728 42.984375,16.986328 C42.9589439,16.986661 42.9335348,16.9879639 42.908203,16.990234 C41.836632,16.94221 41,16.084864 41,15 C41,13.883586 41.883586,13 43,13 Z M6.9101562,33.009766 C6.97057775,33.0152757 7.03137535,33.0152757 7.0917969,33.009766 C8.1633677,33.05779 9,33.915136 9,35 C9,36.116414 8.1164141,37 7,37 C5.8835859,37 5,36.116414 5,35 C5,33.914472 5.837639,33.056819 6.9101562,33.009766 Z M42.910156,33.009766 C42.9705777,33.0152757 43.0313753,33.0152757 43.091797,33.009766 C44.163368,33.05779 45,33.915136 45,35 C45,36.116414 44.116414,37 43,37 C41.883586,37 41,36.116414 41,35 C41,33.914472 41.837639,33.056819 42.910156,33.009766 Z M25,42 C26.116414,42 27,42.883586 27,44 C27,45.116414 26.116414,46 25,46 C23.883586,46 23,45.116414 23,44 C23,42.883586 23.883586,42 25,42 Z" id="Shape" fill-rule="nonzero"></path><path d="M25.019531,15.5 C24.838994,15.4962699 24.6608153,15.5414895 24.5039062,15.6308594 L17.5039062,19.6308594 L18.4960938,21.3691406 L20,20.5097656 L20,25.5 L22,25.5 L22,19.3671875 L25,17.6523438 L28,19.3671875 L28,25.5 L30,25.5 L30,20.5097656 L31.5039062,21.3691406 L32.496094,19.6308594 L25.496094,15.6308594 C25.3506881,15.5480592 25.1868311,15.5030657 25.019531,15.5 Z M17,23.4980469 L15,23.501953 C15,23.501953 15.0048862,26.322916 15.0039062,26.873047 C15.0007068,29.121377 15.923368,31.15121 17.5136719,32.388672 C17.2855619,32.457525 17.0262967,32.5 16.75,32.5 C16.1869011,32.5 15.694455,32.324995 15.3925781,32.105469 C15.0907013,31.885943 15,31.681158 15,31.5 L13,31.5 C13,32.423842 13.5234237,33.218432 14.2167969,33.722656 C14.91017,34.22688 15.7940989,34.5 16.75,34.5 C17.7059011,34.5 18.58983,34.22688 19.2832031,33.722656 C19.3611489,33.665974 19.4268517,33.593089 19.5,33.529297 C19.5731483,33.593089 19.6388511,33.665974 19.7167969,33.722656 C20.41017,34.22688 21.2940989,34.5 22.25,34.5 C23.205901,34.5 24.08983,34.22688 24.783203,33.722656 C24.861149,33.665974 24.926852,33.593089 25,33.529297 C25.073148,33.593089 25.138851,33.665974 25.216797,33.722656 C25.91017,34.22688 26.794099,34.5 27.75,34.5 C28.705901,34.5 29.58983,34.22688 30.283203,33.722656 C30.361149,33.665974 30.426852,33.593089 30.5,33.529297 C30.573148,33.593089 30.638851,33.665974 30.716797,33.722656 C31.41017,34.22688 32.294099,34.5 33.25,34.5 C34.205901,34.5 35.08983,34.22688 35.783203,33.722656 C36.476576,33.218432 37,32.423842 37,31.5 L35,31.5 C35,31.681158 34.9093,31.885943 34.607422,32.105469 C34.305545,32.324995 33.813099,32.5 33.25,32.5 C32.975113,32.5 32.717497,32.456902 32.490234,32.388672 C34.080537,31.15121 35.003197,29.121377 35,26.873047 C34.999021,26.322916 35.003906,23.501953 35.003906,23.501953 L33.003906,23.4980469 C33.003906,23.4980469 33.003148,24.582827 33.001953,25.507812 L17.0019531,25.5 C17.0007558,24.578103 17,23.4980469 17,23.4980469 Z M17.0429688,27.5 L32.960938,27.507812 C32.775706,29.594393 31.660617,31.060655 29.861328,31.5 L29.5,31.5 C29.5,31.681158 29.4093,31.885943 29.107422,32.105469 C28.805545,32.324995 28.313099,32.5 27.75,32.5 C27.186901,32.5 26.694455,32.324995 26.392578,32.105469 C26.090701,31.885943 26,31.681158 26,31.5 L24,31.5 C24,31.681158 23.9093,31.885943 23.607422,32.105469 C23.305545,32.324995 22.8130989,32.5 22.25,32.5 C21.6869011,32.5 21.194455,32.324995 20.8925781,32.105469 C20.5907013,31.885943 20.5,31.681158 20.5,31.5 L20.1425781,31.5 C18.3410365,31.060147 17.2261381,29.590697 17.0429688,27.5 Z" id="Shape" fill-rule="nonzero"></path></svg>