<svg width="100" height="100" xmlns="http://www.w3.org/2000/svg" x="0px" y="0px" viewBox="0 0 50 50">
<title>edb-migration-toolkit</title>
<path d="M25,2 C22.806013,2 21.005415,3.7974359 21,5.9902344 L9.9375,12.3125 C9.2044591,11.512473 8.1619822,11 7,11 C4.8027056,11 3,12.802706 3,15 C3,16.850301 4.2842135,18.405591 6,18.855469 L6,31.144531 C4.2842135,31.594409 3,33.149699 3,35 C3,37.197294 4.8027056,39 7,39 C8.1619822,39 9.2044591,38.487527 9.9375,37.6875 L21,44.009766 C21.005415,46.202564 22.806013,48 25,48 C27.193987,48 28.994585,46.202564 29,44.009766 L40.0625,37.6875 C40.795541,38.487527 41.838018,39 43,39 C45.197294,39 47,37.197294 47,35 C47,33.149699 45.715786,31.594409 44,31.144531 L44,18.855469 C45.715786,18.405591 47,16.850301 47,15 C47,12.802706 45.197294,11 43,11 C41.838018,11 40.795541,11.512473 40.0625,12.3125 L29,5.9902344 C28.994585,3.7974359 27.193987,2 25,2 Z M25,4 C26.116414,4 27,4.8835859 27,6 C27,7.1164141 26.116414,8 25,8 C23.883586,8 23,7.1164141 23,6 C23,4.8835859 23.883586,4 25,4 Z M21.548828,7.9804688 C22.242368,9.1788112 23.525281,10 25,10 C26.474719,10 27.757632,9.1788112 28.451172,7.9804688 L39.119141,14.078125 C39.047772,14.375567 39,14.68172 39,15 C39,16.850301 40.284214,18.405591 42,18.855469 L42,31.144531 C40.284214,31.594409 39,33.149699 39,35 C39,35.31828 39.047772,35.624433 39.119141,35.921875 L28.451172,42.019531 C27.757632,40.821189 26.474719,40 25,40 C23.525281,40 22.242368,40.821189 21.548828,42.019531 L10.880859,35.921875 C10.952228,35.624433 11,35.31828 11,35 C11,33.149699 9.7157865,31.594409 8,31.144531 L8,18.855469 C9.7157865,18.405591 11,16.850301 11,15 C11,14.68172 10.952228,14.375567 10.880859,14.078125 L21.548828,7.9804688 Z M7,13 C8.1164141,13 9,13.883586 9,15 C9,16.085528 8.162361,16.943181 7.0898438,16.990234 C7.05478079,16.9870766 7.01957551,16.9857728 6.984375,16.986328 C6.95894394,16.986661 6.93353483,16.9879639 6.9082031,16.990234 C5.8366323,16.94221 5,16.084864 5,15 C5,13.883586 5.8835859,13 7,13 Z M43,13 C44.116414,13 45,13.883586 45,15 C45,16.085528 44.162361,16.943181 43.089844,16.990234 C43.0547809,16.9870766 43.0195756,16.9857728 42.984375,16.986328 C42.9589439,16.986661 42.9335348,16.9879639 42.908203,16.990234 C41.836632,16.94221 41,16.084864 41,15 C41,13.883586 41.883586,13 43,13 Z M6.9101562,33.009766 C6.97057775,33.0152757 7.03137535,33.0152757 7.0917969,33.009766 C8.1633677,33.05779 9,33.915136 9,35 C9,36.116414 8.1164141,37 7,37 C5.8835859,37 5,36.116414 5,35 C5,33.914472 5.837639,33.056819 6.9101562,33.009766 Z M42.910156,33.009766 C42.9705777,33.0152757 43.0313753,33.0152757 43.091797,33.009766 C44.163368,33.05779 45,33.915136 45,35 C45,36.116414 44.116414,37 43,37 C41.883586,37 41,36.116414 41,35 C41,33.914472 41.837639,33.056819 42.910156,33.009766 Z M25,42 C26.116414,42 27,42.883586 27,44 C27,45.116414 26.116414,46 25,46 C23.883586,46 23,45.116414 23,44 C23,42.883586 23.883586,42 25,42 Z" id="Shape" fill-rule="nonzero"></path><path d="M16.2830189,14.2075472 L15.8160377,14.6485849 L14.6485849,15.8160377 L14.2075472,16.2830189 L14.5448113,16.8278302 L16.2830189,19.7334906 L16.5165094,20.1485849 L18.9551887,20.1485849 L22.2759434,23.4433962 C19.3086672,26.4236441 15.5339031,30.2113799 15.4009434,30.3443396 C14.1005309,31.6447522 14.0972882,33.7753542 15.4268868,35.0141509 C16.7240566,36.2951063 18.8384434,36.3275352 20.0707547,35.0141509 C20.0804837,35.004422 20.0869691,34.9979365 20.0966981,34.9882075 L25.2075472,29.8514151 L30.3443396,35.0141509 L30.4221698,35.0660377 C31.7258259,36.2951063 33.798054,36.3113208 35.0141509,35.0141509 L35.0141509,34.9882075 L35.0400943,34.9882075 C36.3113208,33.687795 36.3242925,31.5734082 35.0141509,30.3443396 L34.9882075,30.3183962 L30.6556604,26.0117925 C33.5710497,25.7393868 35.8540686,23.2780069 35.8962264,20.3042453 L35.9221698,20.3042453 C35.9254125,20.2880309 35.9221698,20.2685729 35.9221698,20.2523585 C35.9221698,20.2426295 35.9221698,20.2361441 35.9221698,20.2264151 C36.0032427,19.2665094 35.7956955,18.3487616 35.2995283,17.5542453 L34.7287736,16.6721698 L30.8632075,20.5377358 L29.6957547,19.3183962 L33.6391509,15.375 L32.4976415,14.9080189 C31.8295995,14.6226415 31.057783,14.4150943 30.1886792,14.4150943 C26.9976415,14.4150943 24.3773585,17.0353774 24.3773585,20.2264151 C24.3773585,20.5734082 24.451946,20.875 24.5070755,21.1863208 C24.1438679,21.5495283 23.8714623,21.8478774 23.4433962,22.2759434 L20.1485849,18.9811321 L20.1485849,16.5165094 L19.7334906,16.2830189 L16.8278302,14.5448113 L16.2830189,14.2075472 Z M30.1886792,16.0754717 C30.3054245,16.0754717 30.3864974,16.1435729 30.5,16.1533019 L27.3608491,19.2924528 L27.9316038,19.8891509 L30.2665094,22.3018868 L30.8372642,22.8985849 L34.1320755,19.6037736 C34.1482899,19.7951063 34.2844931,19.9345523 34.2617925,20.1485849 L34.2617925,20.2264151 C34.2617925,22.5126767 32.3971106,24.3773585 30.1108491,24.3773585 C29.8060146,24.3773585 29.4363208,24.3060146 29.0212264,24.2216981 L28.5801887,24.1438679 L28.2688679,24.4551887 L18.9033019,33.8466981 L18.8773585,33.8466981 L18.8773585,33.8726415 C18.2871466,34.5179837 17.2558962,34.5341981 16.5683962,33.8466981 L16.5683962,33.8207547 L16.5424528,33.8207547 C15.8971106,33.2305429 15.8808962,32.1992925 16.5683962,31.5117925 C16.8829597,31.197229 22.9764151,25.0518868 25.9599057,22.0683962 L26.2971698,21.7311321 L26.1674528,21.2641509 C26.0993516,20.994988 26.0377358,20.5312504 26.0377358,20.2264151 C26.0377358,17.9401535 27.9024177,16.0754717 30.1886792,16.0754717 Z M16.5424528,16.2830189 L18.4882075,17.4764151 L18.4882075,18.3066038 L18.3066038,18.4882075 L17.4764151,18.4882075 L16.2830189,16.5424528 L16.5424528,16.2830189 Z M28.6839623,26.375 L33.8466981,31.5117925 L33.8466981,31.5377358 L33.8726415,31.5377358 C34.5179837,32.1279485 34.5341981,33.1591981 33.8466981,33.8466981 L33.8207547,33.8466981 L33.8207547,33.8726415 C33.2305429,34.5179837 32.1992925,34.5341981 31.5117925,33.8466981 L26.375,28.6839623 L28.6839623,26.375 Z" id="Shape" fill-rule="nonzero"></path></svg>