<svg width="92px" height="20px" viewBox="0 0 460 100" version="1.1" xmlns="http://www.w3.org/2000/svg" xmlns:xlink="http://www.w3.org/1999/xlink">
  <title>edb-logo-dark</title>
  <g id="edb-logo-dark" stroke="none" stroke-width="1" fill="none" fill-rule="evenodd">
    <g id="logo" transform="translate(4.000000, 2.000000)">
      <g id="type" transform="translate(176.000000, 0.000000)" fill="#000000">
        <path d="M239.725462,78.0720427 C251.130191,78.0720427 255.630711,74.2305547 255.630711,66.5475788 C255.630711,59.5056308 250.530431,54.7049406 239.27448,54.7049406 L213.912558,54.7049406 L213.912558,78.0720427 L239.725462,78.0720427 Z M213.912558,18.5313191 L213.912558,38.0569332 L240.023017,38.0569332 C249.028708,38.0569332 252.180932,33.5744174 252.180932,28.4555529 C252.180932,23.0138349 248.131393,18.5313191 238.525943,18.5313191 L213.912558,18.5313191 Z M195.306066,96.3202801 C194.404102,96.3202801 193.506787,95.3563989 193.506787,94.3971967 L193.506787,2.20616512 C193.506787,1.24228386 194.404102,0.283081633 195.306066,0.283081633 L241.375963,0.283081633 C261.786382,0.283081633 272.591352,11.8075455 272.591352,26.6915566 C272.591352,34.3745325 269.736683,40.4572783 264.78518,44.7807069 L264.78518,45.0988813 C271.838165,49.9042505 276.041131,57.5825473 276.041131,67.5067811 C276.041131,85.9141058 263.436883,96.3202801 241.826945,96.3202801 L195.306066,96.3202801 Z" id="Fill-17"></path>
        <path d="M112.16446,18.5303833 L112.16446,78.0711069 L131.821693,78.0711069 C150.879167,78.0711069 160.935599,66.546643 160.935599,48.3030846 C160.935599,30.0548471 148.628907,18.5303833 131.524138,18.5303833 L112.16446,18.5303833 Z M93.5579681,96.3193443 C92.6560042,96.3193443 91.7540403,95.3601421 91.7540403,94.4009399 L91.7540403,2.20522931 C91.7540403,1.24602709 92.6560042,0.282145826 93.5579681,0.282145826 L131.524138,0.282145826 C160.033635,0.282145826 181.346019,19.0123239 181.346019,48.3030846 C181.346019,77.2709918 163.334637,96.3193443 131.821693,96.3193443 L93.5579681,96.3193443 Z" id="Fill-15"></path>
        <path d="M21.0754075,56.3042349 L21.0754075,78.0711069 L73.9007348,78.0711069 C74.7980494,78.0711069 75.9975684,79.3531625 75.9975684,80.3123647 L75.9975684,94.0780865 C75.9975684,95.0372887 74.7980494,96.3193443 73.9007348,96.3193443 L2.46891562,96.3193443 C1.56695175,96.3193443 0.664987881,95.3601421 0.664987881,94.3962609 L0.664987881,2.20522931 C0.664987881,1.24602709 1.56695175,0.282145826 2.46891562,0.282145826 L72.998771,0.282145826 C73.9007348,0.282145826 75.1002538,1.56420148 75.1002538,2.52340371 L75.1002538,16.2891254 C75.1002538,17.2483276 73.9007348,18.5303833 72.998771,18.5303833 L21.0754075,18.5303833 L21.0754075,38.0559974 L68.4936009,38.0559974 C69.3955648,38.0559974 70.5950837,39.3380531 70.5950837,40.2972553 L70.5950837,54.062977 C70.5950837,55.0221792 69.3955648,56.3042349 68.4936009,56.3042349 L21.0754075,56.3042349 Z" id="Fill-13"></path>
      </g>
      <g id="mark" fill="#FF3E00">
        <path d="M153.354571,20.9355556 L153.354571,20.9355556 C153.354571,8.6762963 143.565663,-0.24962963 131.493659,1.00592593 L113.133001,2.91333333 C111.196612,3.11333333 109.629059,4.86888889 109.629059,6.83555556 L109.629059,39.9281481 L109.629059,44.1207407 L109.629059,77.2133333 C109.629059,79.1762963 111.196612,80.6096296 113.133001,80.4059259 L131.493659,78.4985185 C143.565663,77.2466667 153.354571,66.2911111 153.354571,54.0281481 L153.354571,54.0281481 C153.354571,47.4540741 150.536664,41.8392593 146.062683,38.2392593 C150.536664,33.7096296 153.354571,27.5096296 153.354571,20.9355556" id="Fill-20"></path>
        <path d="M40.5368482,2.91518519 L22.1798786,1.00777778 C10.1041867,-0.247777778 0.315278261,8.68185185 0.315278261,20.9522222 C0.315278261,27.5337037 3.13318559,33.7374074 7.60716673,38.2707407 C3.13318559,41.8744444 0.315278261,47.492963 0.315278261,54.0744444 L0.315278261,54.0744444 C0.315278261,66.3448148 10.1041867,77.3114815 22.1798786,78.567037 L40.5368482,80.4744444 C42.4732374,80.6781481 44.0407905,79.2448148 44.0407905,77.2781481 L44.0407905,44.1559259 L44.0407905,39.9633333 L44.0407905,6.84111111 C44.0407905,4.87444444 42.4732374,3.11518519 40.5368482,2.91518519" id="Fill-23"></path>
        <path d="M76.8815825,19.9655556 L58.5283013,19.9655556 C56.5919121,19.9655556 55.0243589,21.5433333 55.0243589,23.4914815 L55.0243589,71.4581481 L55.0243589,76.3285185 C55.0243589,78.3877778 56.4333126,80.4544444 58.4692875,80.4544444 L76.8852709,80.4544444 C76.6934761,84.2988889 71.4486277,87.2025926 59.1516342,88.5766667 L57.7574339,88.7025926 C56.9275529,88.7914815 55.0243589,88.7025926 55.0243589,92.3174074 L55.0243589,93.2766667 C55.0243589,95.2248148 56.5439634,96.9359259 58.4803526,96.9359259 L76.8336338,96.9359259 C88.9093257,96.9359259 98.7498712,86.9507407 98.7498712,74.7951852 L98.7498712,41.9766667 C98.7498712,29.8211111 88.9609627,19.9655556 76.8815825,19.9655556" id="Fill-26"></path>
      </g>
    </g>
  </g>
</svg>
