<svg width="100" height="100" xmlns="http://www.w3.org/2000/svg" x="0px" y="0px" viewBox="0 0 50 50">
<title>energy</title>
<path d="M 29.875 2 C 29.59375 2.042969 29.34375 2.199219 29.1875 2.4375 L 12.1875 27.4375 C 11.980469 27.742188 11.957031 28.136719 12.128906 28.460938 C 12.296875 28.789063 12.632813 28.996094 13 29 L 21.78125 29 L 18.03125 46.78125 C 17.9375 47.25 18.1875 47.71875 18.628906 47.898438 C 19.070313 48.082031 19.578125 47.925781 19.84375 47.53125 L 35.84375 22.53125 C 36.035156 22.222656 36.046875 21.835938 35.871094 21.515625 C 35.695313 21.199219 35.363281 21 35 21 L 27.21875 21 L 30.96875 3.21875 C 31.042969 2.902344 30.957031 2.566406 30.738281 2.324219 C 30.519531 2.082031 30.199219 1.960938 29.875 2 Z M 28 7.71875 L 25.03125 21.78125 C 24.964844 22.078125 25.035156 22.386719 25.222656 22.621094 C 25.414063 22.859375 25.699219 22.996094 26 23 L 33.1875 23 L 21.09375 41.875 L 23.96875 28.21875 C 24.035156 27.921875 23.964844 27.613281 23.777344 27.378906 C 23.585938 27.140625 23.300781 27.003906 23 27 L 14.875 27 Z"></path></svg>