<svg width="100" height="100" xmlns="http://www.w3.org/2000/svg" x="0px" y="0px" viewBox="0 0 50 50">
<title>high-availability</title>
<path d="M 25 1.9277344 L 19.464844 7.4648438 A 1.0001 1.0001 0 1 0 20.878906 8.8789062 L 24 5.7578125 L 24 15 A 1.0001 1.0001 0 1 0 26 15 L 26 5.7578125 L 29.121094 8.8789062 A 1.0001 1.0001 0 1 0 30.535156 7.4648438 L 25 1.9277344 z M 40 9.9277344 L 34.464844 15.464844 A 1.0001 1.0001 0 1 0 35.878906 16.878906 L 39 13.757812 L 39 23 A 1.0001 1.0001 0 1 0 41 23 L 41 13.757812 L 44.121094 16.878906 A 1.0001 1.0001 0 1 0 45.535156 15.464844 L 40 9.9277344 z M 10 16.927734 L 4.4648438 22.464844 A 1.0001 1.0001 0 1 0 5.8789062 23.878906 L 9 20.757812 L 9 30 A 1.0001 1.0001 0 1 0 11 30 L 11 20.757812 L 14.121094 23.878906 A 1.0001 1.0001 0 1 0 15.535156 22.464844 L 10 16.927734 z M 20 18 A 1.0001 1.0001 0 0 0 19 19 L 19 46 A 1.0001 1.0001 0 0 0 20 47 L 30 47 A 1.0001 1.0001 0 0 0 31 46 L 31 19 A 1.0001 1.0001 0 0 0 30 18 L 20 18 z M 21 20 L 29 20 L 29 45 L 21 45 L 21 20 z M 35 26 A 1.0001 1.0001 0 0 0 34 27 L 34 46 A 1.0001 1.0001 0 0 0 35 47 L 45 47 A 1.0001 1.0001 0 0 0 46 46 L 46 27 A 1.0001 1.0001 0 0 0 45 26 L 35 26 z M 36 28 L 44 28 L 44 45 L 36 45 L 36 28 z M 5 33 A 1.0001 1.0001 0 0 0 4 34 L 4 46 A 1.0001 1.0001 0 0 0 5 47 L 15 47 A 1.0001 1.0001 0 0 0 16 46 L 16 34 A 1.0001 1.0001 0 0 0 15 33 L 5 33 z M 6 35 L 14 35 L 14 45 L 6 45 L 6 35 z"></path></svg>