<svg width="100" height="100" xmlns="http://www.w3.org/2000/svg" x="0px" y="0px" viewBox="0 0 50 50">
<title>install</title>
<path d="M 24.90625 1.96875 C 24.863281 1.976563 24.820313 1.988281 24.78125 2 C 24.316406 2.105469 23.988281 2.523438 24 3 L 24 23.5625 L 16.71875 16.28125 C 16.476563 16.03125 16.121094 15.925781 15.78125 16 C 15.40625 16.066406 15.105469 16.339844 15 16.703125 C 14.894531 17.070313 15.003906 17.460938 15.28125 17.71875 L 24.28125 26.71875 C 24.46875 26.914063 24.730469 27.023438 25 27.023438 C 25.269531 27.023438 25.53125 26.914063 25.71875 26.71875 L 34.71875 17.71875 C 35.117188 17.320313 35.117188 16.679688 34.71875 16.28125 C 34.320313 15.882813 33.679688 15.882813 33.28125 16.28125 L 26 23.5625 L 26 3 C 26.011719 2.710938 25.894531 2.433594 25.6875 2.238281 C 25.476563 2.039063 25.191406 1.941406 24.90625 1.96875 Z M 9.6875 7 C 8.753906 7 8.027344 7.636719 7.84375 8.53125 L 7.8125 8.53125 L 7.8125 8.59375 L 2.125 33.34375 C 2.050781 33.550781 2 33.769531 2 34 L 2 44 C 2 45.09375 2.90625 46 4 46 L 46 46 C 47.09375 46 48 45.09375 48 44 L 48 34 C 48 33.746094 47.933594 33.503906 47.84375 33.28125 L 47.84375 33.21875 C 47.839844 33.207031 47.816406 33.199219 47.8125 33.1875 L 42.1875 8.59375 L 42.1875 8.53125 L 42.15625 8.53125 C 41.972656 7.636719 41.246094 7 40.3125 7 L 29 7 L 29 9 L 40.21875 9 L 45.46875 32 L 4.46875 32 L 9.78125 9 L 21 9 L 21 7 Z M 4 34 L 46 34 L 46 44 L 4 44 Z M 40 37 C 38.894531 37 38 37.894531 38 39 C 38 40.105469 38.894531 41 40 41 C 41.105469 41 42 40.105469 42 39 C 42 37.894531 41.105469 37 40 37 Z"></path></svg>