<svg width="100" height="100" xmlns="http://www.w3.org/2000/svg" x="0px" y="0px" viewBox="0 0 50 50">
<title>laptop-config</title>
<path d="M 37 0 L 36.400391 3.1992188 C 36.100391 3.2992188 35.700391 3.3996094 35.400391 3.5996094 L 32.699219 1.6992188 L 29.699219 4.6992188 L 31.5 7.1992188 C 31.4 7.5992188 31.199609 7.9007812 31.099609 8.3007812 L 28 8.8007812 L 28 13 L 31.099609 13.5 C 31.199609 13.8 31.3 14.2 31.5 14.5 L 29.699219 17.199219 L 32.699219 20.199219 L 35.400391 18.400391 C 35.800391 18.600391 36.1 18.700781 36.5 18.800781 L 37 22 L 41.099609 22 L 41.699219 18.900391 C 41.999219 18.800391 42.299219 18.7 42.699219 18.5 L 45.400391 20.300781 L 48.400391 17.300781 L 46.5 14.699219 C 46.7 14.299219 46.800391 13.899609 46.900391 13.599609 L 50 13 L 50 8.8007812 L 46.800781 8.3007812 C 46.700781 8.0007812 46.600391 7.6007812 46.400391 7.3007812 L 48.199219 4.5996094 L 45.300781 1.6992188 L 42.699219 3.5996094 C 42.399219 3.3996094 41.999219 3.2992188 41.699219 3.1992188 L 41.199219 0 L 37 0 z M 38.699219 2 L 39.5 2 L 39.900391 4.6992188 L 40.5 4.9003906 C 41.1 5.1003906 41.699219 5.2996094 42.199219 5.5996094 L 42.800781 6 L 45.099609 4.3007812 L 45.599609 4.8007812 L 44 7.0996094 L 44.300781 7.5996094 C 44.600781 8.1996094 44.8 8.8003906 45 9.4003906 L 45.199219 10 L 48 10.400391 L 48 11.199219 L 45.300781 11.800781 L 45.099609 12.400391 C 44.899609 13.000391 44.700391 13.599609 44.400391 14.099609 L 44 14.699219 L 45.699219 17 L 45.099609 17.599609 L 42.800781 16 L 42.300781 16.300781 C 41.700781 16.600781 41.1 16.8 40.5 17 L 39.900391 17.199219 L 39.400391 20 L 38.599609 20 L 38.199219 17.300781 L 37.599609 17.099609 C 36.999609 16.899609 36.400391 16.700391 35.900391 16.400391 L 35.300781 16 L 32.900391 17.599609 L 32.300781 17 L 33.900391 14.699219 L 33.599609 14.199219 C 33.299609 13.599219 33.100391 12.900391 32.900391 12.400391 L 32.699219 11.800781 L 30 11.300781 L 30 10.5 L 32.800781 10 L 32.900391 9.3007812 C 33.000391 8.8007812 33.2 8.1992188 33.5 7.6992188 L 33.900391 7.1992188 L 32.300781 4.9003906 L 32.900391 4.3007812 L 35.199219 5.9003906 L 35.699219 5.6992188 C 36.399219 5.3992188 36.999609 5.1003906 37.599609 4.9003906 L 38.199219 4.8007812 L 38.699219 2 z M 39 6.9003906 C 36.8 6.9003906 35 8.7003906 35 10.900391 C 35 13.100391 36.8 14.900391 39 14.900391 C 41.2 14.900391 43 13.200391 43 10.900391 C 43 8.7003906 41.2 6.9003906 39 6.9003906 z M 8 8 C 5.794 8 4 9.794 4 12 L 4 34 C 4 34.732221 4.2118795 35.409099 4.5566406 36 L 2 36 A 1.0001 1.0001 0 0 0 1 37 C 1 39.749516 3.2504839 42 6 42 L 44 42 C 46.749516 42 49 39.749516 49 37 A 1.0001 1.0001 0 0 0 48 36 L 45.443359 36 C 45.788121 35.409099 46 34.732221 46 34 L 46 21.943359 C 45.367 22.349359 44.702 22.708 44 23 L 44 34 C 44 35.103 43.103 36 42 36 L 8 36 C 6.897 36 6 35.103 6 34 L 6 12 C 6 10.897 6.897 10 8 10 L 26.050781 10 C 26.102781 9.317 26.208328 8.65 26.361328 8 L 8 8 z M 39 9 C 40.1 9 41 9.8 41 11 C 41 12.1 40.1 13 39 13 C 37.9 13 37 12.1 37 11 C 37 9.9 37.9 9 39 9 z M 3.4121094 38 L 8 38 L 42 38 L 46.587891 38 C 46.150803 39.112465 45.275852 40 44 40 L 6 40 C 4.7241482 40 3.8491966 39.112465 3.4121094 38 z"></path></svg>