<svg width="100" height="100" xmlns="http://www.w3.org/2000/svg" x="0px" y="0px" viewBox="0 0 50 50">
<title>designated-technical-leads</title><path d="M 18 2 C 14.698136 2 12 4.6981361 12 8 C 12 11.301864 14.698136 14 18 14 C 21.301864 14 24 11.301864 24 8 C 24 4.6981361 21.301864 2 18 2 z M 34 2 A 1.0001 1.0001 0 0 0 33 3 L 33 9 L 33 15 L 13.5 15 C 10.474423 15 8 17.474423 8 20.5 L 8 32 C 8 33.64497 9.3550302 35 11 35 C 11.351843 35 11.685108 34.92606 12 34.8125 L 12 44.5 C 12 46.421188 13.578812 48 15.5 48 C 16.482368 48 17.371739 47.584123 18.009766 46.923828 C 18.72614 47.658224 19.746732 48.093788 20.857422 47.982422 C 22.711803 47.796204 24 46.144409 24 44.357422 L 24 21 L 33.892578 21 C 35.344401 21 36.714627 20.009361 36.960938 18.496094 C 37.201436 17.018916 36.300854 15.671456 35 15.195312 L 35 10 L 42 10 A 1.0001 1.0001 0 0 0 42.707031 8.2929688 L 40.414062 6 L 42.707031 3.7070312 A 1.0001 1.0001 0 0 0 42 2 L 34 2 z M 18 4 C 20.220984 4 22 5.7790164 22 8 C 22 10.220984 20.220984 12 18 12 C 15.779016 12 14 10.220984 14 8 C 14 5.7790164 15.779016 4 18 4 z M 35 4 L 39.585938 4 L 38.292969 5.2929688 A 1.0001 1.0001 0 0 0 38.292969 6.7070312 L 39.585938 8 L 35 8 L 35 4 z M 13.5 17 L 34 17 C 34.620761 17 35.095517 17.505126 34.986328 18.175781 C 34.912638 18.628514 34.432755 19 33.892578 19 L 24 19 C 22.906937 19 22 19.906937 22 21 L 22 44.357422 C 22 45.185809 21.406777 45.917445 20.658203 45.992188 C 19.731773 46.085078 19 45.392558 19 44.5 L 19 33 L 17 33 L 17 44.5 C 17 45.340812 16.340812 46 15.5 46 C 14.659188 46 14 45.340812 14 44.5 L 14 23 L 12 23 L 12 32 C 12 32.56503 11.56503 33 11 33 C 10.43497 33 10 32.56503 10 32 L 10 20.5 C 10 18.555577 11.555577 17 13.5 17 z"/></svg>
