<?xml version="1.0" encoding="UTF-8"?>
<svg width="50px" height="50px" viewBox="0 0 50 50" version="1.1" xmlns="http://www.w3.org/2000/svg" xmlns:xlink="http://www.w3.org/1999/xlink">
    <title>macos-color</title>
    <g id="macos-color" stroke="none" stroke-width="1" fill="none" fill-rule="evenodd">
        <g fill-rule="nonzero">
            <path d="M25,0.297619048 C11.2154762,0.297619048 0.297619048,11.2154762 0.297619048,25 C0.297619048,38.7857143 11.2154762,49.702381 25,49.702381 C38.7845238,49.702381 49.702381,38.7857143 49.702381,25 C49.702381,11.2154762 38.7857143,0.297619048 25,0.297619048 Z" id="macOS_Finder" fill="#333333"></path>
            <path d="M29.7952381,14.9392857 C29.9119048,14.6119048 30.0761905,14.3309524 30.2892857,14.097619 C30.502381,13.8642857 30.7583333,13.6845238 31.0583333,13.5583333 C31.3583333,13.4321429 31.6928571,13.3690476 32.0607143,13.3690476 C32.3928571,13.3690476 32.6928571,13.4190476 32.9595238,13.5178571 C33.227381,13.6166667 33.4559524,13.75 33.647619,13.9178571 C33.8392857,14.0857143 33.9916667,14.2809524 34.1035714,14.5047619 C34.2154762,14.7285714 34.2821429,14.9654762 34.3047619,15.2142857 L33.3130952,15.2142857 C33.2880952,15.077381 33.2428571,14.9488095 33.1785714,14.8309524 C33.1142857,14.7130952 33.0297619,14.6107143 32.925,14.5238095 C32.8190476,14.4369048 32.6952381,14.3690476 32.5535714,14.3202381 C32.4107143,14.2702381 32.2511905,14.2464286 32.0714286,14.2464286 C31.8607143,14.2464286 31.6690476,14.2892857 31.4988095,14.3738095 C31.327381,14.4583333 31.1809524,14.5785714 31.0595238,14.7333333 C30.9380952,14.8880952 30.8440476,15.077381 30.777381,15.2988095 C30.7095238,15.5214286 30.6761905,15.7678571 30.6761905,16.0392857 C30.6761905,16.3202381 30.7095238,16.572619 30.777381,16.7940476 C30.8440476,17.0166667 30.9392857,17.2035714 31.0630952,17.3571429 C31.1857143,17.5107143 31.3345238,17.6285714 31.5071429,17.7095238 C31.6797619,17.7904762 31.8702381,17.8321429 32.077381,17.8321429 C32.4166667,17.8321429 32.6928571,17.752381 32.9071429,17.5928571 C33.1214286,17.4333333 33.2595238,17.2 33.3238095,16.8928571 L34.3166667,16.8928571 C34.2880952,17.1642857 34.2130952,17.4119048 34.0916667,17.6357143 C33.9702381,17.8595238 33.8130952,18.05 33.6202381,18.2083333 C33.4261905,18.3666667 33.1988095,18.4892857 32.9369048,18.575 C32.675,18.6607143 32.3869048,18.7047619 32.0738095,18.7047619 C31.702381,18.7047619 31.3678571,18.6428571 31.0666667,18.5202381 C30.7666667,18.397619 30.5083333,18.2202381 30.2940476,17.9904762 C30.0797619,17.7607143 29.9142857,17.4809524 29.797619,17.1511905 C29.6809524,16.8214286 29.622619,16.4511905 29.622619,16.0380952 C29.6202381,15.6345238 29.6785714,15.2678571 29.7952381,14.9392857 Z" id="macOS_Finder-path" fill="#FFFFFF"></path>
            <path d="M15.6845238,13.4369048 L16.677381,13.4369048 L16.677381,14.3190476 L16.6964286,14.3190476 C16.7571429,14.172619 16.8369048,14.0404762 16.9345238,13.9261905 C17.0321429,13.8107143 17.1440476,13.7130952 17.272619,13.6309524 C17.4,13.5488095 17.5416667,13.4869048 17.6940476,13.4440476 C17.847619,13.4011905 18.0095238,13.3797619 18.1785714,13.3797619 C18.5428571,13.3797619 18.8511905,13.4666667 19.1011905,13.6404762 C19.352381,13.8142857 19.5309524,14.0642857 19.6357143,14.3904762 L19.6607143,14.3904762 C19.727381,14.2333333 19.8154762,14.0928571 19.9238095,13.9690476 C20.0321429,13.8452381 20.1571429,13.7380952 20.297619,13.65 C20.4380952,13.5619048 20.5928571,13.4952381 20.7607143,13.4488095 C20.9285714,13.402381 21.1047619,13.3797619 21.2904762,13.3797619 C21.5464286,13.3797619 21.7785714,13.4202381 21.9880952,13.502381 C22.197619,13.5845238 22.3761905,13.6988095 22.525,13.847619 C22.6738095,13.9964286 22.7880952,14.177381 22.8678571,14.3892857 C22.947619,14.6011905 22.9880952,14.8369048 22.9880952,15.0964286 L22.9880952,18.6452381 L21.952381,18.6452381 L21.952381,15.3452381 C21.952381,15.0035714 21.8642857,14.7380952 21.6880952,14.5511905 C21.5130952,14.3642857 21.2619048,14.2702381 20.9357143,14.2702381 C20.7761905,14.2702381 20.6297619,14.2988095 20.4964286,14.3547619 C20.3642857,14.4107143 20.2488095,14.4892857 20.1535714,14.5904762 C20.0571429,14.6904762 19.9821429,14.8119048 19.9285714,14.952381 C19.8738095,15.0928571 19.8464286,15.2464286 19.8464286,15.4130952 L19.8464286,18.6452381 L18.825,18.6452381 L18.825,15.2595238 C18.825,15.1095238 18.8011905,14.9738095 18.7547619,14.852381 C18.7083333,14.7309524 18.6428571,14.627381 18.5559524,14.5404762 C18.4702381,14.4535714 18.3642857,14.3880952 18.2416667,14.3416667 C18.1178571,14.2952381 17.9797619,14.2714286 17.8261905,14.2714286 C17.6666667,14.2714286 17.5190476,14.3011905 17.3821429,14.3607143 C17.2464286,14.4202381 17.1297619,14.502381 17.0321429,14.6071429 C16.9345238,14.7130952 16.8583333,14.8369048 16.8047619,14.9809524 C16.752381,15.1238095 16.6666667,15.2809524 16.6666667,15.45 L16.6666667,18.6440476 L15.6845238,18.6440476 L15.6845238,13.4369048 Z" id="macOS_Finder-path" fill="#FFFFFF"></path>
            <path d="M17.9380952,21.925 C22.4916667,21.925 25.3369048,25.1 25.3369048,30.15 C25.3369048,35.1988095 22.4916667,38.3642857 17.9380952,38.3642857 C13.3845238,38.3642857 10.5285714,35.2 10.5285714,30.15 C10.5285714,25.1 13.3845238,21.925 17.9380952,21.925 Z M17.9380952,23.952381 C14.8178571,23.952381 12.8666667,26.3452381 12.8666667,30.1488095 C12.8666667,33.9416667 14.8178571,36.3345238 17.9380952,36.3345238 C21.047619,36.3345238 23.0095244,33.9416667 23.0095244,30.1488095 C23.0107143,26.3452381 21.047619,23.952381 17.9380952,23.952381 Z" id="Combined-Shape" fill="#FFFFFF"></path>
            <path d="M26.4238095,13.3690476 C26.7404762,13.3690476 27.027381,13.4083333 27.2845238,13.4892857 C27.5416667,13.5702381 27.7619048,13.6833333 27.9440476,13.8321429 C28.1261905,13.9809524 28.2666667,14.1595238 28.3654762,14.3690476 C28.4642857,14.5785714 28.5142857,14.8130952 28.5142857,15.0714286 L28.5142857,18.6440476 L27.522619,18.6440476 L27.522619,17.7761905 L27.497619,17.7761905 C27.4238095,17.9166667 27.3309524,18.0440476 27.2178571,18.1571429 C27.1035714,18.2702381 26.9761905,18.3678571 26.8345238,18.447619 C26.6916667,18.527381 26.5369048,18.5892857 26.3690476,18.6321429 C26.2011905,18.675 26.0297619,18.6964286 25.8535714,18.6964286 C25.5940476,18.6964286 25.3571429,18.6595238 25.1416667,18.5857143 C24.925,18.5119048 24.7404762,18.4083333 24.5857143,18.2738095 C24.4309524,18.1392857 24.3095238,17.977381 24.2238095,17.7869048 C24.1369048,17.5964286 24.0940476,17.3845238 24.0940476,17.1511905 C24.0940476,16.6940476 24.2642857,16.3369048 24.6047619,16.0797619 C24.9452381,15.822619 25.4380952,15.672619 26.0845238,15.6309524 L27.4892857,15.55 L27.4892857,15.147619 C27.4892857,14.847619 27.3940476,14.6178571 27.2035714,14.4619048 C27.0130952,14.3059524 26.7440476,14.227381 26.3952381,14.227381 C26.2547619,14.227381 26.122619,14.2452381 26.0011905,14.2797619 C25.8797619,14.3154762 25.772619,14.3654762 25.6797619,14.4309524 C25.5869048,14.4964286 25.5095238,14.575 25.45,14.6666667 C25.3892857,14.7571429 25.347619,14.8595238 25.325,14.9714286 L24.3511905,14.9714286 C24.3571429,14.7416667 24.4142857,14.5285714 24.5214286,14.3333333 C24.6285714,14.1380952 24.7738095,13.9690476 24.9583333,13.825 C25.1428571,13.6809524 25.3583333,13.5690476 25.6083333,13.4892857 C25.8583333,13.4095238 26.1297619,13.3690476 26.4238095,13.3690476 Z M27.4892857,16.2809524 L26.2238095,16.3678571 C25.8654762,16.3904762 25.5964286,16.4666667 25.4154762,16.5952381 C25.2345238,16.725 25.1440476,16.9047619 25.1440476,17.1345238 C25.1440476,17.3583333 25.2333333,17.5369048 25.4130952,17.6690476 C25.5916667,17.802381 25.8321429,17.8678571 26.1321429,17.8678571 C26.3238095,17.8678571 26.5035714,17.8380952 26.6690476,17.7797619 C26.8345238,17.7214286 26.9797619,17.6392857 27.1011905,17.5345238 C27.222619,17.4309524 27.3178571,17.3071429 27.3857143,17.1630952 C27.4547619,17.0190476 27.4892857,16.8607143 27.4892857,16.6880952 L27.4892857,16.2809524 Z" id="Combined-Shape" fill="#FFFFFF"></path>
            <path d="M32.9202381,38.3642857 C29.447619,38.3642857 27.0869048,36.5452381 26.922619,33.6892857 L29.1833333,33.6892857 C29.3595238,35.3214286 30.9369048,36.402381 33.097619,36.402381 C35.1702381,36.402381 36.6595238,35.3214286 36.6595238,33.8440476 C36.6595238,32.5654762 35.7547619,31.7928571 33.6607143,31.2642857 L31.6202381,30.7571429 C28.6869048,30.0297619 27.3535714,28.6952381 27.3535714,26.5011905 C27.3535714,23.8 29.7130952,21.925 33.0761905,21.925 C36.3619048,21.925 38.6547619,23.8107143 38.7428571,26.522619 L36.5047619,26.522619 C36.35,24.8904762 35.0166667,23.8869048 33.0309524,23.8869048 C31.0571429,23.8869048 29.6904762,24.9011905 29.6904762,26.3678571 C29.6904762,27.525 30.55,28.2095238 32.6452381,28.7380952 L34.3654762,29.1678571 C37.6404762,29.9619048 38.9857143,31.252381 38.9857143,33.5678571 C38.9845238,36.522619 36.647619,38.3642857 32.9202381,38.3642857 Z" id="macOS_Finder-path" fill="#FFFFFF"></path>
        </g>
    </g>
</svg>