<svg width="100" height="100" xmlns="http://www.w3.org/2000/svg" x="0px" y="0px" viewBox="0 0 50 50">
<title>managed-operations</title><path d="M 16 10 C 7.726563 10 1 16.726563 1 25 C 1 33.273438 7.726563 40 16 40 C 24.273438 40 31 33.273438 31 25 C 31 16.726563 24.273438 10 16 10 Z M 24.34375 10.1875 C 26.121094 11.191406 27.695313 12.511719 29 14.0625 C 32.605469 16.371094 35 20.410156 35 25 C 35 29.589844 32.605469 33.628906 29 35.9375 C 27.691406 37.488281 26.121094 38.808594 24.34375 39.8125 C 31.503906 38.683594 37 32.476563 37 25 C 37 17.523438 31.503906 11.316406 24.34375 10.1875 Z M 30.34375 10.1875 C 32.121094 11.191406 33.695313 12.511719 35 14.0625 C 38.605469 16.371094 41 20.410156 41 25 C 41 29.589844 38.605469 33.628906 35 35.9375 C 33.691406 37.488281 32.121094 38.808594 30.34375 39.8125 C 37.503906 38.683594 43 32.476563 43 25 C 43 17.523438 37.503906 11.316406 30.34375 10.1875 Z M 36.34375 10.1875 C 38.121094 11.191406 39.695313 12.511719 41 14.0625 C 44.605469 16.371094 47 20.410156 47 25 C 47 29.589844 44.605469 33.628906 41 35.9375 C 39.691406 37.488281 38.121094 38.808594 36.34375 39.8125 C 43.503906 38.683594 49 32.476563 49 25 C 49 17.523438 43.503906 11.316406 36.34375 10.1875 Z M 16 12 C 23.191406 12 29 17.808594 29 25 C 29 32.191406 23.191406 38 16 38 C 8.808594 38 3 32.191406 3 25 C 3 17.808594 8.808594 12 16 12 Z M 15.90625 13.96875 C 15.863281 13.976563 15.820313 13.988281 15.78125 14 C 15.316406 14.105469 14.988281 14.523438 15 15 L 15 24.5625 L 10.28125 29.28125 C 9.882813 29.679688 9.882813 30.320313 10.28125 30.71875 C 10.679688 31.117188 11.320313 31.117188 11.71875 30.71875 L 16.71875 25.71875 C 16.90625 25.527344 17.007813 25.265625 17 25 L 17 15 C 17.011719 14.710938 16.894531 14.433594 16.6875 14.238281 C 16.476563 14.039063 16.191406 13.941406 15.90625 13.96875 Z"/></svg>
