<svg width="100" height="100" xmlns="http://www.w3.org/2000/svg" x="0px" y="0px" viewBox="0 0 50 50">
<title>migrate</title>
<path d="M 0 0 L 0 20 L 12.3125 20 C 12.117188 21.425781 12 22.773438 12 23.5 C 12 24.445313 12.179688 26.328125 12.5 28.21875 C 12.660156 29.164063 12.855469 30.070313 13.09375 30.875 C 13.328125 31.667969 13.550781 32.320313 14.09375 32.875 C 14.640625 33.460938 15.277344 33.667969 16.0625 33.90625 C 16.855469 34.144531 17.773438 34.339844 18.71875 34.5 C 20.609375 34.820313 22.511719 35 23.5 35 C 23.65625 35 23.90625 35.003906 24.15625 35 C 24.054688 35.660156 24 36.316406 24 37 C 24 40.5625 25.398438 43.835938 27.78125 46.21875 C 30.164063 48.601563 33.4375 50 37 50 C 40.5625 50 43.835938 48.601563 46.21875 46.21875 C 48.601563 43.835938 50 40.5625 50 37 C 50 33.4375 48.601563 30.164063 46.21875 27.78125 C 43.835938 25.398438 40.5625 24 37 24 C 36.316406 24 35.660156 24.054688 35 24.15625 C 35.003906 23.90625 35 23.65625 35 23.5 C 35 22.554688 34.820313 20.671875 34.5 18.78125 C 34.339844 17.835938 34.144531 16.929688 33.90625 16.125 C 33.671875 15.335938 33.472656 14.675781 32.9375 14.125 C 32.929688 14.117188 32.914063 14.132813 32.90625 14.125 C 32.355469 13.53125 31.730469 13.332031 30.9375 13.09375 C 30.136719 12.855469 29.199219 12.660156 28.25 12.5 C 26.347656 12.179688 24.445313 12 23.5 12 C 22.75 12 21.421875 12.132813 20 12.34375 L 20 0 Z M 2 2 L 18 2 L 18 12.6875 C 17.339844 12.820313 16.695313 12.960938 16.125 13.125 C 15.328125 13.355469 14.6875 13.554688 14.125 14.0625 C 13.515625 14.617188 13.332031 15.261719 13.09375 16.0625 C 12.917969 16.648438 12.789063 17.316406 12.65625 18 L 2 18 Z M 23.5 14 C 24.152344 14 26.109375 14.164063 27.90625 14.46875 C 28.804688 14.621094 29.671875 14.796875 30.34375 15 C 31.015625 15.203125 31.523438 15.527344 31.46875 15.46875 L 31.46875 15.5 L 31.5 15.5 C 31.492188 15.492188 31.796875 16.007813 32 16.6875 C 32.203125 17.367188 32.378906 18.230469 32.53125 19.125 C 32.835938 20.910156 33 22.847656 33 23.5 C 33 23.769531 32.996094 24.183594 32.96875 24.625 C 31.003906 25.253906 29.226563 26.335938 27.78125 27.78125 C 26.335938 29.226563 25.253906 31.003906 24.625 32.96875 C 24.183594 32.996094 23.769531 33 23.5 33 C 22.789063 33 20.847656 32.835938 19.0625 32.53125 C 18.171875 32.378906 17.289063 32.199219 16.625 32 C 15.960938 31.800781 15.480469 31.476563 15.53125 31.53125 L 15.53125 31.5 L 15.5 31.5 C 15.507813 31.507813 15.203125 30.992188 15 30.3125 C 14.796875 29.632813 14.621094 28.769531 14.46875 27.875 C 14.164063 26.089844 14 24.152344 14 23.5 C 14 22.847656 14.164063 20.890625 14.46875 19.09375 C 14.621094 18.195313 14.796875 17.328125 15 16.65625 C 15.203125 15.984375 15.527344 15.476563 15.46875 15.53125 C 15.457031 15.539063 16 15.261719 16.6875 15.0625 C 17.375 14.863281 18.230469 14.660156 19.125 14.5 C 20.914063 14.183594 22.867188 14 23.5 14 Z M 37 26 C 40.039063 26 42.761719 27.199219 44.78125 29.21875 C 46.800781 31.238281 48 33.960938 48 37 C 48 40.039063 46.800781 42.761719 44.78125 44.78125 C 42.761719 46.800781 40.039063 48 37 48 C 33.960938 48 31.238281 46.800781 29.21875 44.78125 C 27.199219 42.761719 26 40.039063 26 37 C 26 36.046875 26.117188 35.128906 26.34375 34.25 C 26.371094 34.191406 26.390625 34.125 26.40625 34.0625 C 26.914063 32.21875 27.878906 30.558594 29.21875 29.21875 C 30.5625 27.875 32.238281 26.910156 34.09375 26.40625 C 34.136719 26.394531 34.175781 26.386719 34.21875 26.375 C 34.25 26.367188 34.28125 26.355469 34.3125 26.34375 C 35.175781 26.128906 36.066406 26 37 26 Z"></path></svg>