<svg width="100" height="100" xmlns="http://www.w3.org/2000/svg" x="0px" y="0px" viewBox="0 0 50 50">
<title>mission</title>
<path d="M 25.03125 6 C 24.761719 5.992188 24.5 6.09375 24.304688 6.28125 C 24.109375 6.46875 24 6.730469 24 7 L 24 14.527344 C 23.984375 14.632813 23.984375 14.742188 24 14.847656 L 24 23.585938 L 15 32.585938 L 10.707031 28.292969 C 10.515625 28.101563 10.253906 27.996094 9.984375 28 C 9.722656 28.003906 9.476563 28.109375 9.292969 28.292969 L 0.292969 37.292969 C 0.03125 37.542969 -0.0742188 37.917969 0.0195313 38.265625 C 0.109375 38.617188 0.382813 38.890625 0.734375 38.980469 C 1.082031 39.074219 1.457031 38.96875 1.707031 38.707031 L 10 30.414063 L 13.585938 34 L 0.292969 47.292969 C 0.03125 47.542969 -0.0742188 47.917969 0.0195313 48.265625 C 0.109375 48.617188 0.382813 48.890625 0.734375 48.980469 C 1.082031 49.074219 1.457031 48.96875 1.707031 48.707031 L 12.585938 37.828125 L 12.550781 37.894531 L 17.105469 40.171875 L 21 37.25 L 25 40.25 L 29 37.25 L 32.894531 40.171875 L 37.449219 37.894531 L 37.414063 37.828125 L 48.292969 48.707031 C 48.542969 48.96875 48.917969 49.074219 49.265625 48.980469 C 49.617188 48.890625 49.890625 48.617188 49.980469 48.265625 C 50.074219 47.917969 49.96875 47.542969 49.707031 47.292969 L 36.414063 34 L 40 30.414063 L 48.292969 38.707031 C 48.542969 38.96875 48.917969 39.074219 49.265625 38.980469 C 49.617188 38.890625 49.890625 38.617188 49.980469 38.265625 C 50.074219 37.917969 49.96875 37.542969 49.707031 37.292969 L 40.707031 28.292969 C 40.515625 28.101563 40.253906 27.996094 39.984375 28 C 39.722656 28.003906 39.476563 28.109375 39.292969 28.292969 L 35 32.585938 L 26 23.585938 L 26 15.363281 L 34.367188 12.066406 C 34.742188 11.917969 34.988281 11.5625 35 11.164063 C 35.011719 10.761719 34.78125 10.394531 34.417969 10.226563 L 25.417969 6.09375 C 25.296875 6.035156 25.164063 6.003906 25.03125 6 Z M 26 8.5625 L 31.453125 11.0625 L 26 13.214844 Z M 25 25.414063 L 34.152344 34.5625 C 34.226563 34.679688 34.324219 34.777344 34.4375 34.855469 L 35.980469 36.390625 L 33.105469 37.828125 L 29 34.75 L 25 37.75 L 21 34.75 L 16.894531 37.828125 L 14.019531 36.390625 L 15.5625 34.847656 C 15.679688 34.773438 15.777344 34.675781 15.855469 34.5625 Z"></path></svg>