<svg width="100" height="100" xmlns="http://www.w3.org/2000/svg" x="0px" y="0px" viewBox="0 0 50 50">
<title>monitor</title><path d="M 0.8125 4 C 0.335938 4.089844 -0.0078125 4.511719 0 5 L 0 45 C 0 45.550781 0.449219 46 1 46 L 49 46 C 49.550781 46 50 45.550781 50 45 L 50 5 C 50 4.449219 49.550781 4 49 4 L 1 4 C 0.96875 4 0.9375 4 0.90625 4 C 0.875 4 0.84375 4 0.8125 4 Z M 2 6 L 48 6 L 48 44 L 2 44 L 2 26 L 9 26 C 9.265625 26.007813 9.527344 25.90625 9.71875 25.71875 L 12.625 22.8125 L 15.0625 29.34375 C 15.214844 29.753906 15.613281 30.019531 16.050781 29.996094 C 16.488281 29.976563 16.859375 29.671875 16.96875 29.25 L 20.4375 15.4375 L 22 39.0625 C 22.042969 39.53125 22.402344 39.90625 22.867188 39.964844 C 23.335938 40.027344 23.777344 39.753906 23.9375 39.3125 L 29.1875 23.59375 L 32.09375 29.4375 C 32.257813 29.789063 32.613281 30.015625 33 30.015625 C 33.386719 30.015625 33.742188 29.789063 33.90625 29.4375 L 35.625 26 L 40.28125 26 C 40.628906 26.597656 41.261719 27 42 27 C 43.105469 27 44 26.105469 44 25 C 44 23.894531 43.105469 23 42 23 C 41.261719 23 40.628906 23.402344 40.28125 24 L 35 24 C 34.613281 23.996094 34.261719 24.214844 34.09375 24.5625 L 33 26.75 L 29.90625 20.5625 C 29.726563 20.199219 29.347656 19.980469 28.941406 20.007813 C 28.539063 20.035156 28.191406 20.304688 28.0625 20.6875 L 23.65625 33.875 L 22 8.9375 C 21.984375 8.667969 21.859375 8.414063 21.652344 8.234375 C 21.445313 8.058594 21.175781 7.972656 20.90625 8 C 20.484375 8.039063 20.136719 8.339844 20.03125 8.75 L 15.8125 25.65625 L 13.9375 20.65625 C 13.824219 20.328125 13.550781 20.085938 13.214844 20.007813 C 12.875 19.933594 12.523438 20.035156 12.28125 20.28125 L 8.5625 24 L 2 24 Z" fill="#000000"/></svg>
