<svg width="100" height="100" xmlns="http://www.w3.org/2000/svg" x="0px" y="0px" viewBox="0 0 50 50">
<title>network</title>
<path d="M 25 2 C 23.75 2 22.685226 2.5047556 22.001953 3.2734375 C 21.318681 4.0421194 21 5.0277779 21 6 C 21 6.9722221 21.318681 7.9578806 22.001953 8.7265625 C 22.485551 9.2706099 23.203964 9.6027195 24 9.796875 L 24 21 A 1.0001 1.0001 0 0 0 24.017578 21.199219 C 23.228076 21.388213 22.517973 21.71703 22.03125 22.248047 A 1.0001 1.0001 0 0 0 21.789062 22.072266 L 10.867188 16.005859 C 10.946117 15.674361 11 15.337927 11 15 C 11 14.027778 10.681319 13.042119 9.9980469 12.273438 C 9.3147744 11.504755 8.2499997 11 7 11 C 5.7500003 11 4.6852256 11.504756 4.0019531 12.273438 C 3.3186806 13.042118 3 14.027778 3 15 C 3 15.972222 3.3186806 16.957881 4.0019531 17.726562 C 4.6852256 18.495244 5.7500003 19 7 19 C 8.2195743 19 9.2567585 18.514641 9.9414062 17.777344 L 20.818359 23.820312 A 1.0001 1.0001 0 0 0 21.146484 23.941406 C 21.058791 24.28966 21 24.64404 21 25 C 21 25.37054 21.061126 25.739875 21.15625 26.101562 A 1.0001 1.0001 0 0 0 20.722656 26.232422 L 9.9414062 32.220703 C 9.2567447 31.483942 8.219051 31 7 31 C 5.7500003 31 4.6852256 31.504756 4.0019531 32.273438 C 3.3186806 33.042119 3 34.027778 3 35 C 3 35.972222 3.3186806 36.957881 4.0019531 37.726562 C 4.6852256 38.495244 5.7500003 39 7 39 C 8.2499997 39 9.3147744 38.495244 9.9980469 37.726562 C 10.681319 36.957881 11 35.972222 11 35 C 11 34.66286 10.947698 34.326857 10.869141 33.996094 L 21.695312 27.980469 A 1.0001 1.0001 0 0 0 22.001953 27.726562 C 22.489074 28.274573 23.213961 28.608408 24.017578 28.800781 A 1.0001 1.0001 0 0 0 24 29 L 24 40.203125 C 23.203964 40.397281 22.485551 40.72939 22.001953 41.273438 C 21.318681 42.042119 21 43.027778 21 44 C 21 44.972222 21.318681 45.957881 22.001953 46.726562 C 22.685226 47.495244 23.75 48 25 48 C 26.25 48 27.314774 47.495245 27.998047 46.726562 C 28.681319 45.957881 29 44.972222 29 44 C 29 43.027778 28.681319 42.042118 27.998047 41.273438 C 27.514449 40.72939 26.796036 40.397281 26 40.203125 L 26 29 A 1.0001 1.0001 0 0 0 25.982422 28.800781 C 26.78202 28.60937 27.503187 28.277516 27.990234 27.734375 A 1.0001 1.0001 0 0 0 28.273438 27.962891 L 39.132812 33.994141 C 39.053883 34.325639 39 34.662073 39 35 C 39 35.972222 39.318681 36.957881 40.001953 37.726562 C 40.685226 38.495244 41.75 39 43 39 C 44.25 39 45.314774 38.495244 45.998047 37.726562 C 46.681319 36.957881 47 35.972222 47 35 C 47 34.027778 46.681319 33.042119 45.998047 32.273438 C 45.314774 31.504756 44.25 31 43 31 C 41.781529 31 40.745224 31.484537 40.060547 32.220703 L 29.244141 26.214844 A 1.0001 1.0001 0 0 0 28.845703 26.087891 C 28.938478 25.730378 29 25.365997 29 25 C 29 24.652036 28.943124 24.305686 28.859375 23.964844 A 1.0001 1.0001 0 0 0 29.111328 23.859375 L 40.058594 17.779297 C 40.743256 18.516058 41.780949 19 43 19 C 44.25 19 45.314774 18.495244 45.998047 17.726562 C 46.681319 16.957881 47 15.972222 47 15 C 47 14.027778 46.681319 13.042119 45.998047 12.273438 C 45.314774 11.504755 44.25 11 43 11 C 41.75 11 40.685226 11.504756 40.001953 12.273438 C 39.318681 13.042118 39 14.027778 39 15 C 39 15.337927 39.053883 15.674361 39.132812 16.005859 L 28.140625 22.111328 A 1.0001 1.0001 0 0 0 27.957031 22.236328 C 27.470597 21.712476 26.765896 21.38677 25.982422 21.199219 A 1.0001 1.0001 0 0 0 26 21 L 26 9.796875 C 26.796036 9.6027195 27.514449 9.2706099 27.998047 8.7265625 C 28.681319 7.9578806 29 6.9722221 29 6 C 29 5.0277779 28.681319 4.0421194 27.998047 3.2734375 C 27.314774 2.5047556 26.25 2 25 2 z M 25 4 C 25.749999 4 26.185226 4.2452444 26.501953 4.6015625 C 26.81868 4.9578806 27 5.4722221 27 6 C 27 6.5277779 26.81868 7.0421194 26.501953 7.3984375 C 26.191403 7.7478065 25.752728 7.9789409 25.029297 7.9882812 A 1.0001 1.0001 0 0 0 24.96875 7.9863281 C 24.247433 7.9762535 23.8081 7.7472473 23.498047 7.3984375 C 23.18132 7.0421194 23 6.5277779 23 6 C 23 5.4722221 23.18132 4.9578806 23.498047 4.6015625 C 23.814774 4.2452444 24.250001 4 25 4 z M 7 13 C 7.7499995 13 8.1852261 13.245244 8.5019531 13.601562 C 8.8186802 13.957882 9 14.472222 9 15 C 9 15.527778 8.8186802 16.042119 8.5019531 16.398438 C 8.1852261 16.754756 7.7499995 17 7 17 C 6.2500005 17 5.8147739 16.754756 5.4980469 16.398438 C 5.1813198 16.042119 5 15.527778 5 15 C 5 14.472222 5.1813198 13.957881 5.4980469 13.601562 C 5.8147739 13.245245 6.2500005 13 7 13 z M 43 13 C 43.749999 13 44.185226 13.245244 44.501953 13.601562 C 44.81868 13.957882 45 14.472222 45 15 C 45 15.527778 44.81868 16.042119 44.501953 16.398438 C 44.185226 16.754756 43.749999 17 43 17 C 42.250001 17 41.814774 16.754756 41.498047 16.398438 C 41.18132 16.042119 41 15.527778 41 15 C 41 14.472222 41.18132 13.957881 41.498047 13.601562 C 41.814774 13.245245 42.250001 13 43 13 z M 25 23 C 25.749999 23 26.185226 23.245244 26.501953 23.601562 C 26.81868 23.957881 27 24.472222 27 25 C 27 25.527778 26.81868 26.042118 26.501953 26.398438 C 26.185226 26.754756 25.749999 27 25 27 C 24.250001 27 23.814774 26.754756 23.498047 26.398438 C 23.18132 26.042119 23 25.527778 23 25 C 23 24.472222 23.18132 23.957882 23.498047 23.601562 C 23.814774 23.245244 24.250001 23 25 23 z M 7 33 C 7.7499995 33 8.1852261 33.245244 8.5019531 33.601562 C 8.8186802 33.957881 9 34.472222 9 35 C 9 35.527778 8.8186802 36.042119 8.5019531 36.398438 C 8.1852261 36.754756 7.7499995 37 7 37 C 6.2500005 37 5.8147739 36.754756 5.4980469 36.398438 C 5.1813198 36.042119 5 35.527778 5 35 C 5 34.472222 5.1813198 33.957881 5.4980469 33.601562 C 5.8147739 33.245244 6.2500005 33 7 33 z M 43 33 C 43.749999 33 44.185226 33.245244 44.501953 33.601562 C 44.81868 33.957881 45 34.472222 45 35 C 45 35.527778 44.81868 36.042119 44.501953 36.398438 C 44.185226 36.754756 43.749999 37 43 37 C 42.250001 37 41.814774 36.754756 41.498047 36.398438 C 41.18132 36.042119 41 35.527778 41 35 C 41 34.472222 41.18132 33.957881 41.498047 33.601562 C 41.814774 33.245244 42.250001 33 43 33 z M 24.970703 42.011719 A 1.0001 1.0001 0 0 0 25.03125 42.013672 C 25.75257 42.023742 26.1919 42.252753 26.501953 42.601562 C 26.818677 42.957834 27 43.472222 27 44 C 27 44.527778 26.81868 45.042119 26.501953 45.398438 C 26.185226 45.754756 25.749999 46 25 46 C 24.250001 46 23.814774 45.754755 23.498047 45.398438 C 23.18132 45.042119 23 44.527778 23 44 C 23 43.472222 23.18132 42.957881 23.498047 42.601562 C 23.808597 42.252193 24.247272 42.021059 24.970703 42.011719 z"></path></svg>