<svg class="img-fluid fill-green" width="100%" viewBox="0 0 220 80" version="1.1" xmlns="http://www.w3.org/2000/svg" xmlns:xlink="http://www.w3.org/1999/xlink">
  <title>404</title>
    <path d="M12.5477707,15.8067941 L12.5477707,15.1380042 L10,15.1380042 L10,15.8067941 L12.5477707,15.8067941 Z M15.7324841,15.8067941 L15.7324841,15.1380042 L13.1847134,15.1380042 L13.1847134,15.8067941 L15.7324841,15.8067941 Z M18.9171975,15.8067941 L18.9171975,15.1380042 L16.3694268,15.1380042 L16.3694268,15.8067941 L18.9171975,15.8067941 Z M22.1019108,15.8067941 L22.1019108,15.1380042 L19.5541401,15.1380042 L19.5541401,15.8067941 L22.1019108,15.8067941 Z M25.2866242,15.8067941 L25.2866242,15.1380042 L22.7388535,15.1380042 L22.7388535,15.8067941 L25.2866242,15.8067941 Z M28.4713376,15.8067941 L28.4713376,15.1380042 L25.9235669,15.1380042 L25.9235669,15.8067941 L28.4713376,15.8067941 Z M31.656051,15.8067941 L31.656051,15.1380042 L29.1082803,15.1380042 L29.1082803,15.8067941 L31.656051,15.8067941 Z M34.8407643,15.8067941 L34.8407643,15.1380042 L32.2929936,15.1380042 L32.2929936,15.8067941 L34.8407643,15.8067941 Z M38.0254777,15.8067941 L38.0254777,15.1380042 L35.477707,15.1380042 L35.477707,15.8067941 L38.0254777,15.8067941 Z M41.2101911,15.8067941 L41.2101911,15.1380042 L38.6624204,15.1380042 L38.6624204,15.8067941 L41.2101911,15.8067941 Z M44.3949045,15.8067941 L44.3949045,15.1380042 L41.8471338,15.1380042 L41.8471338,15.8067941 L44.3949045,15.8067941 Z M47.5796178,15.8067941 L47.5796178,15.1380042 L45.0318471,15.1380042 L45.0318471,15.8067941 L47.5796178,15.8067941 Z M48.9915074,15.7324841 L50.7430998,11.1146497 L49.9893843,11.1146497 L48.2377919,15.7324841 L48.9915074,15.7324841 Z M53.9278132,15.7324841 L52.1762208,11.1146497 L51.4225053,11.1146497 L53.1740977,15.7324841 L53.9278132,15.7324841 Z M57.1125265,15.7324841 L55.3609342,11.1146497 L54.6072187,11.1146497 L56.358811,15.7324841 L57.1125265,15.7324841 Z M60.2972399,15.7324841 L58.5456476,11.1146497 L57.7919321,11.1146497 L59.5435244,15.7324841 L60.2972399,15.7324841 Z M63.5031847,15.8067941 L63.5031847,15.1380042 L60.955414,15.1380042 L60.955414,15.8067941 L63.5031847,15.8067941 Z M66.6878981,15.8067941 L66.6878981,15.1380042 L64.1401274,15.1380042 L64.1401274,15.8067941 L66.6878981,15.8067941 Z M69.8726115,15.8067941 L69.8726115,15.1380042 L67.3248408,15.1380042 L67.3248408,15.8067941 L69.8726115,15.8067941 Z M73.0573248,15.8067941 L73.0573248,15.1380042 L70.5095541,15.1380042 L70.5095541,15.8067941 L73.0573248,15.8067941 Z M76.2420382,15.8067941 L76.2420382,15.1380042 L73.6942675,15.1380042 L73.6942675,15.8067941 L76.2420382,15.8067941 Z M79.4267516,15.8067941 L79.4267516,15.1380042 L76.8789809,15.1380042 L76.8789809,15.8067941 L79.4267516,15.8067941 Z M82.611465,15.8067941 L82.611465,15.1380042 L80.0636943,15.1380042 L80.0636943,15.8067941 L82.611465,15.8067941 Z M85.7961783,15.8067941 L85.7961783,15.1380042 L83.2484076,15.1380042 L83.2484076,15.8067941 L85.7961783,15.8067941 Z M87.2080679,15.7324841 L88.9596603,11.1146497 L88.2059448,11.1146497 L86.4543524,15.7324841 L87.2080679,15.7324841 Z M92.1443737,15.7324841 L90.3927813,11.1146497 L89.6390658,11.1146497 L91.3906582,15.7324841 L92.1443737,15.7324841 Z M95.329087,15.7324841 L93.5774947,11.1146497 L92.8237792,11.1146497 L94.5753715,15.7324841 L95.329087,15.7324841 Z M98.5138004,15.7324841 L96.7622081,11.1146497 L96.0084926,11.1146497 L97.7600849,15.7324841 L98.5138004,15.7324841 Z M101.698514,15.7324841 L99.9469214,11.1146497 L99.1932059,11.1146497 L100.944798,15.7324841 L101.698514,15.7324841 Z M104.883227,15.7324841 L103.131635,11.1146497 L102.377919,11.1146497 L104.129512,15.7324841 L104.883227,15.7324841 Z M108.067941,15.7324841 L106.316348,11.1146497 L105.562633,11.1146497 L107.314225,15.7324841 L108.067941,15.7324841 Z M111.252654,15.7324841 L109.501062,11.1146497 L108.747346,11.1146497 L110.498938,15.7324841 L111.252654,15.7324841 Z M114.458599,15.8067941 L114.458599,15.1380042 L111.910828,15.1380042 L111.910828,15.8067941 L114.458599,15.8067941 Z M117.643312,15.8067941 L117.643312,15.1380042 L115.095541,15.1380042 L115.095541,15.8067941 L117.643312,15.8067941 Z M120.828025,15.8067941 L120.828025,15.1380042 L118.280255,15.1380042 L118.280255,15.8067941 L120.828025,15.8067941 Z M124.012739,15.8067941 L124.012739,15.1380042 L121.464968,15.1380042 L121.464968,15.8067941 L124.012739,15.8067941 Z M127.197452,15.8067941 L127.197452,15.1380042 L124.649682,15.1380042 L124.649682,15.8067941 L127.197452,15.8067941 Z M130.382166,15.8067941 L130.382166,15.1380042 L127.834395,15.1380042 L127.834395,15.8067941 L130.382166,15.8067941 Z M133.566879,15.8067941 L133.566879,15.1380042 L131.019108,15.1380042 L131.019108,15.8067941 L133.566879,15.8067941 Z M136.751592,15.8067941 L136.751592,15.1380042 L134.203822,15.1380042 L134.203822,15.8067941 L136.751592,15.8067941 Z M139.936306,15.8067941 L139.936306,15.1380042 L137.388535,15.1380042 L137.388535,15.8067941 L139.936306,15.8067941 Z M143.121019,15.8067941 L143.121019,15.1380042 L140.573248,15.1380042 L140.573248,15.8067941 L143.121019,15.8067941 Z M146.305732,15.8067941 L146.305732,15.1380042 L143.757962,15.1380042 L143.757962,15.8067941 L146.305732,15.8067941 Z M149.490446,15.8067941 L149.490446,15.1380042 L146.942675,15.1380042 L146.942675,15.8067941 L149.490446,15.8067941 Z M152.675159,15.8067941 L152.675159,15.1380042 L150.127389,15.1380042 L150.127389,15.8067941 L152.675159,15.8067941 Z M155.859873,15.8067941 L155.859873,15.1380042 L153.312102,15.1380042 L153.312102,15.8067941 L155.859873,15.8067941 Z M159.044586,15.8067941 L159.044586,15.1380042 L156.496815,15.1380042 L156.496815,15.8067941 L159.044586,15.8067941 Z M160.456476,15.7324841 L162.208068,11.1146497 L161.454352,11.1146497 L159.70276,15.7324841 L160.456476,15.7324841 Z M165.392781,15.7324841 L163.641189,11.1146497 L162.887473,11.1146497 L164.639066,15.7324841 L165.392781,15.7324841 Z M168.577495,15.7324841 L166.825902,11.1146497 L166.072187,11.1146497 L167.823779,15.7324841 L168.577495,15.7324841 Z M171.762208,15.7324841 L170.010616,11.1146497 L169.2569,11.1146497 L171.008493,15.7324841 L171.762208,15.7324841 Z M174.968153,15.8067941 L174.968153,15.1380042 L172.420382,15.1380042 L172.420382,15.8067941 L174.968153,15.8067941 Z M178.152866,15.8067941 L178.152866,15.1380042 L175.605096,15.1380042 L175.605096,15.8067941 L178.152866,15.8067941 Z M181.33758,15.8067941 L181.33758,15.1380042 L178.789809,15.1380042 L178.789809,15.8067941 L181.33758,15.8067941 Z M184.522293,15.8067941 L184.522293,15.1380042 L181.974522,15.1380042 L181.974522,15.8067941 L184.522293,15.8067941 Z M15.7324841,22.4416136 L15.7324841,21.7728238 L13.1847134,21.7728238 L13.1847134,22.4416136 L15.7324841,22.4416136 Z M18.9171975,22.4416136 L18.9171975,21.7728238 L16.3694268,21.7728238 L16.3694268,22.4416136 L18.9171975,22.4416136 Z M22.1019108,22.4416136 L22.1019108,21.7728238 L19.5541401,21.7728238 L19.5541401,22.4416136 L22.1019108,22.4416136 Z M25.2866242,22.4416136 L25.2866242,21.7728238 L22.7388535,21.7728238 L22.7388535,22.4416136 L25.2866242,22.4416136 Z M28.4713376,22.4416136 L28.4713376,21.7728238 L25.9235669,21.7728238 L25.9235669,22.4416136 L28.4713376,22.4416136 Z M31.656051,22.4416136 L31.656051,21.7728238 L29.1082803,21.7728238 L29.1082803,22.4416136 L31.656051,22.4416136 Z M34.8407643,22.4416136 L34.8407643,21.7728238 L32.2929936,21.7728238 L32.2929936,22.4416136 L34.8407643,22.4416136 Z M38.0254777,22.4416136 L38.0254777,21.7728238 L35.477707,21.7728238 L35.477707,22.4416136 L38.0254777,22.4416136 Z M41.2101911,22.4416136 L41.2101911,21.7728238 L38.6624204,21.7728238 L38.6624204,22.4416136 L41.2101911,22.4416136 Z M44.3949045,22.4416136 L44.3949045,21.7728238 L41.8471338,21.7728238 L41.8471338,22.4416136 L44.3949045,22.4416136 Z M45.8067941,22.3673036 L47.5583864,17.7494692 L46.8046709,17.7494692 L45.0530786,22.3673036 L45.8067941,22.3673036 Z M50.7430998,22.3673036 L48.9915074,17.7494692 L48.2377919,17.7494692 L49.9893843,22.3673036 L50.7430998,22.3673036 Z M53.9278132,22.3673036 L52.1762208,17.7494692 L51.4225053,17.7494692 L53.1740977,22.3673036 L53.9278132,22.3673036 Z M57.1125265,22.3673036 L55.3609342,17.7494692 L54.6072187,17.7494692 L56.358811,22.3673036 L57.1125265,22.3673036 Z M60.2972399,22.3673036 L58.5456476,17.7494692 L57.7919321,17.7494692 L59.5435244,22.3673036 L60.2972399,22.3673036 Z M63.4819533,22.3673036 L61.7303609,17.7494692 L60.9766454,17.7494692 L62.7282378,22.3673036 L63.4819533,22.3673036 Z M66.6878981,22.4416136 L66.6878981,21.7728238 L64.1401274,21.7728238 L64.1401274,22.4416136 L66.6878981,22.4416136 Z M69.8726115,22.4416136 L69.8726115,21.7728238 L67.3248408,21.7728238 L67.3248408,22.4416136 L69.8726115,22.4416136 Z M73.0573248,22.4416136 L73.0573248,21.7728238 L70.5095541,21.7728238 L70.5095541,22.4416136 L73.0573248,22.4416136 Z M76.2420382,22.4416136 L76.2420382,21.7728238 L73.6942675,21.7728238 L73.6942675,22.4416136 L76.2420382,22.4416136 Z M79.4267516,22.4416136 L79.4267516,21.7728238 L76.8789809,21.7728238 L76.8789809,22.4416136 L79.4267516,22.4416136 Z M82.611465,22.4416136 L82.611465,21.7728238 L80.0636943,21.7728238 L80.0636943,22.4416136 L82.611465,22.4416136 Z M84.0233546,22.3673036 L85.7749469,17.7494692 L85.0212314,17.7494692 L83.2696391,22.3673036 L84.0233546,22.3673036 Z M88.9596603,22.3673036 L87.2080679,17.7494692 L86.4543524,17.7494692 L88.2059448,22.3673036 L88.9596603,22.3673036 Z M92.1443737,22.3673036 L90.3927813,17.7494692 L89.6390658,17.7494692 L91.3906582,22.3673036 L92.1443737,22.3673036 Z M95.329087,22.3673036 L93.5774947,17.7494692 L92.8237792,17.7494692 L94.5753715,22.3673036 L95.329087,22.3673036 Z M96.7622081,22.3673036 L98.5138004,17.7494692 L97.7600849,17.7494692 L96.0084926,22.3673036 L96.7622081,22.3673036 Z M99.9469214,22.3673036 L101.698514,17.7494692 L100.944798,17.7494692 L99.1932059,22.3673036 L99.9469214,22.3673036 Z M103.131635,22.3673036 L104.883227,17.7494692 L104.129512,17.7494692 L102.377919,22.3673036 L103.131635,22.3673036 Z M106.316348,22.3673036 L108.067941,17.7494692 L107.314225,17.7494692 L105.562633,22.3673036 L106.316348,22.3673036 Z M109.501062,22.3673036 L111.252654,17.7494692 L110.498938,17.7494692 L108.747346,22.3673036 L109.501062,22.3673036 Z M114.437367,22.3673036 L112.685775,17.7494692 L111.932059,17.7494692 L113.683652,22.3673036 L114.437367,22.3673036 Z M117.622081,22.3673036 L115.870488,17.7494692 L115.116773,17.7494692 L116.868365,22.3673036 L117.622081,22.3673036 Z M120.806794,22.3673036 L119.055202,17.7494692 L118.301486,17.7494692 L120.053079,22.3673036 L120.806794,22.3673036 Z M124.012739,22.4416136 L124.012739,21.7728238 L121.464968,21.7728238 L121.464968,22.4416136 L124.012739,22.4416136 Z M127.197452,22.4416136 L127.197452,21.7728238 L124.649682,21.7728238 L124.649682,22.4416136 L127.197452,22.4416136 Z M130.382166,22.4416136 L130.382166,21.7728238 L127.834395,21.7728238 L127.834395,22.4416136 L130.382166,22.4416136 Z M133.566879,22.4416136 L133.566879,21.7728238 L131.019108,21.7728238 L131.019108,22.4416136 L133.566879,22.4416136 Z M136.751592,22.4416136 L136.751592,21.7728238 L134.203822,21.7728238 L134.203822,22.4416136 L136.751592,22.4416136 Z M139.936306,22.4416136 L139.936306,21.7728238 L137.388535,21.7728238 L137.388535,22.4416136 L139.936306,22.4416136 Z M143.121019,22.4416136 L143.121019,21.7728238 L140.573248,21.7728238 L140.573248,22.4416136 L143.121019,22.4416136 Z M146.305732,22.4416136 L146.305732,21.7728238 L143.757962,21.7728238 L143.757962,22.4416136 L146.305732,22.4416136 Z M149.490446,22.4416136 L149.490446,21.7728238 L146.942675,21.7728238 L146.942675,22.4416136 L149.490446,22.4416136 Z M152.675159,22.4416136 L152.675159,21.7728238 L150.127389,21.7728238 L150.127389,22.4416136 L152.675159,22.4416136 Z M155.859873,22.4416136 L155.859873,21.7728238 L153.312102,21.7728238 L153.312102,22.4416136 L155.859873,22.4416136 Z M157.271762,22.3673036 L159.023355,17.7494692 L158.269639,17.7494692 L156.518047,22.3673036 L157.271762,22.3673036 Z M162.208068,22.3673036 L160.456476,17.7494692 L159.70276,17.7494692 L161.454352,22.3673036 L162.208068,22.3673036 Z M165.392781,22.3673036 L163.641189,17.7494692 L162.887473,17.7494692 L164.639066,22.3673036 L165.392781,22.3673036 Z M168.577495,22.3673036 L166.825902,17.7494692 L166.072187,17.7494692 L167.823779,22.3673036 L168.577495,22.3673036 Z M171.762208,22.3673036 L170.010616,17.7494692 L169.2569,17.7494692 L171.008493,22.3673036 L171.762208,22.3673036 Z M174.946921,22.3673036 L173.195329,17.7494692 L172.441614,17.7494692 L174.193206,22.3673036 L174.946921,22.3673036 Z M178.152866,22.4416136 L178.152866,21.7728238 L175.605096,21.7728238 L175.605096,22.4416136 L178.152866,22.4416136 Z M181.33758,22.4416136 L181.33758,21.7728238 L178.789809,21.7728238 L178.789809,22.4416136 L181.33758,22.4416136 Z M184.522293,22.4416136 L184.522293,21.7728238 L181.974522,21.7728238 L181.974522,22.4416136 L184.522293,22.4416136 Z M187.707006,22.4416136 L187.707006,21.7728238 L185.159236,21.7728238 L185.159236,22.4416136 L187.707006,22.4416136 Z M18.9171975,29.0764331 L18.9171975,28.4076433 L16.3694268,28.4076433 L16.3694268,29.0764331 L18.9171975,29.0764331 Z M22.1019108,29.0764331 L22.1019108,28.4076433 L19.5541401,28.4076433 L19.5541401,29.0764331 L22.1019108,29.0764331 Z M25.2866242,29.0764331 L25.2866242,28.4076433 L22.7388535,28.4076433 L22.7388535,29.0764331 L25.2866242,29.0764331 Z M28.4713376,29.0764331 L28.4713376,28.4076433 L25.9235669,28.4076433 L25.9235669,29.0764331 L28.4713376,29.0764331 Z M31.656051,29.0764331 L31.656051,28.4076433 L29.1082803,28.4076433 L29.1082803,29.0764331 L31.656051,29.0764331 Z M34.8407643,29.0764331 L34.8407643,28.4076433 L32.2929936,28.4076433 L32.2929936,29.0764331 L34.8407643,29.0764331 Z M38.0254777,29.0764331 L38.0254777,28.4076433 L35.477707,28.4076433 L35.477707,29.0764331 L38.0254777,29.0764331 Z M41.2101911,29.0764331 L41.2101911,28.4076433 L38.6624204,28.4076433 L38.6624204,29.0764331 L41.2101911,29.0764331 Z M42.6220807,29.0021231 L44.373673,24.3842887 L43.6199575,24.3842887 L41.8683652,29.0021231 L42.6220807,29.0021231 Z M47.5583864,29.0021231 L45.8067941,24.3842887 L45.0530786,24.3842887 L46.8046709,29.0021231 L47.5583864,29.0021231 Z M50.7430998,29.0021231 L48.9915074,24.3842887 L48.2377919,24.3842887 L49.9893843,29.0021231 L50.7430998,29.0021231 Z M53.9278132,29.0021231 L52.1762208,24.3842887 L51.4225053,24.3842887 L53.1740977,29.0021231 L53.9278132,29.0021231 Z M55.3609342,29.0021231 L57.1125265,24.3842887 L56.358811,24.3842887 L54.6072187,29.0021231 L55.3609342,29.0021231 Z M60.2972399,29.0021231 L58.5456476,24.3842887 L57.7919321,24.3842887 L59.5435244,29.0021231 L60.2972399,29.0021231 Z M63.4819533,29.0021231 L61.7303609,24.3842887 L60.9766454,24.3842887 L62.7282378,29.0021231 L63.4819533,29.0021231 Z M66.6666667,29.0021231 L64.9150743,24.3842887 L64.1613588,24.3842887 L65.9129512,29.0021231 L66.6666667,29.0021231 Z M69.8726115,29.0764331 L69.8726115,28.4076433 L67.3248408,28.4076433 L67.3248408,29.0764331 L69.8726115,29.0764331 Z M73.0573248,29.0764331 L73.0573248,28.4076433 L70.5095541,28.4076433 L70.5095541,29.0764331 L73.0573248,29.0764331 Z M76.2420382,29.0764331 L76.2420382,28.4076433 L73.6942675,28.4076433 L73.6942675,29.0764331 L76.2420382,29.0764331 Z M79.4267516,29.0764331 L79.4267516,28.4076433 L76.8789809,28.4076433 L76.8789809,29.0764331 L79.4267516,29.0764331 Z M82.611465,29.0764331 L82.611465,28.4076433 L80.0636943,28.4076433 L80.0636943,29.0764331 L82.611465,29.0764331 Z M84.0233546,29.0021231 L85.7749469,24.3842887 L85.0212314,24.3842887 L83.2696391,29.0021231 L84.0233546,29.0021231 Z M88.9596603,29.0021231 L87.2080679,24.3842887 L86.4543524,24.3842887 L88.2059448,29.0021231 L88.9596603,29.0021231 Z M92.1443737,29.0021231 L90.3927813,24.3842887 L89.6390658,24.3842887 L91.3906582,29.0021231 L92.1443737,29.0021231 Z M95.329087,29.0021231 L93.5774947,24.3842887 L92.8237792,24.3842887 L94.5753715,29.0021231 L95.329087,29.0021231 Z M98.5350318,29.0764331 L98.5350318,28.4076433 L95.9872611,28.4076433 L95.9872611,29.0764331 L98.5350318,29.0764331 Z M101.719745,29.0764331 L101.719745,28.4076433 L99.1719745,28.4076433 L99.1719745,29.0764331 L101.719745,29.0764331 Z M104.904459,29.0764331 L104.904459,28.4076433 L102.356688,28.4076433 L102.356688,29.0764331 L104.904459,29.0764331 Z M108.089172,29.0764331 L108.089172,28.4076433 L105.541401,28.4076433 L105.541401,29.0764331 L108.089172,29.0764331 Z M111.252654,29.0021231 L109.501062,24.3842887 L108.747346,24.3842887 L110.498938,29.0021231 L111.252654,29.0021231 Z M112.685775,29.0021231 L114.437367,24.3842887 L113.683652,24.3842887 L111.932059,29.0021231 L112.685775,29.0021231 Z M115.870488,29.0021231 L117.622081,24.3842887 L116.868365,24.3842887 L115.116773,29.0021231 L115.870488,29.0021231 Z M120.806794,29.0021231 L119.055202,24.3842887 L118.301486,24.3842887 L120.053079,29.0021231 L120.806794,29.0021231 Z M123.991507,29.0021231 L122.239915,24.3842887 L121.4862,24.3842887 L123.237792,29.0021231 L123.991507,29.0021231 Z M127.176221,29.0021231 L125.424628,24.3842887 L124.670913,24.3842887 L126.422505,29.0021231 L127.176221,29.0021231 Z M130.382166,29.0764331 L130.382166,28.4076433 L127.834395,28.4076433 L127.834395,29.0764331 L130.382166,29.0764331 Z M133.566879,29.0764331 L133.566879,28.4076433 L131.019108,28.4076433 L131.019108,29.0764331 L133.566879,29.0764331 Z M136.751592,29.0764331 L136.751592,28.4076433 L134.203822,28.4076433 L134.203822,29.0764331 L136.751592,29.0764331 Z M139.936306,29.0764331 L139.936306,28.4076433 L137.388535,28.4076433 L137.388535,29.0764331 L139.936306,29.0764331 Z M143.121019,29.0764331 L143.121019,28.4076433 L140.573248,28.4076433 L140.573248,29.0764331 L143.121019,29.0764331 Z M146.305732,29.0764331 L146.305732,28.4076433 L143.757962,28.4076433 L143.757962,29.0764331 L146.305732,29.0764331 Z M149.490446,29.0764331 L149.490446,28.4076433 L146.942675,28.4076433 L146.942675,29.0764331 L149.490446,29.0764331 Z M152.675159,29.0764331 L152.675159,28.4076433 L150.127389,28.4076433 L150.127389,29.0764331 L152.675159,29.0764331 Z M154.087049,29.0021231 L155.838641,24.3842887 L155.084926,24.3842887 L153.333333,29.0021231 L154.087049,29.0021231 Z M159.023355,29.0021231 L157.271762,24.3842887 L156.518047,24.3842887 L158.269639,29.0021231 L159.023355,29.0021231 Z M162.208068,29.0021231 L160.456476,24.3842887 L159.70276,24.3842887 L161.454352,29.0021231 L162.208068,29.0021231 Z M165.392781,29.0021231 L163.641189,24.3842887 L162.887473,24.3842887 L164.639066,29.0021231 L165.392781,29.0021231 Z M166.825902,29.0021231 L168.577495,24.3842887 L167.823779,24.3842887 L166.072187,29.0021231 L166.825902,29.0021231 Z M171.762208,29.0021231 L170.010616,24.3842887 L169.2569,24.3842887 L171.008493,29.0021231 L171.762208,29.0021231 Z M174.946921,29.0021231 L173.195329,24.3842887 L172.441614,24.3842887 L174.193206,29.0021231 L174.946921,29.0021231 Z M178.131635,29.0021231 L176.380042,24.3842887 L175.626327,24.3842887 L177.377919,29.0021231 L178.131635,29.0021231 Z M181.33758,29.0764331 L181.33758,28.4076433 L178.789809,28.4076433 L178.789809,29.0764331 L181.33758,29.0764331 Z M184.522293,29.0764331 L184.522293,28.4076433 L181.974522,28.4076433 L181.974522,29.0764331 L184.522293,29.0764331 Z M187.707006,29.0764331 L187.707006,28.4076433 L185.159236,28.4076433 L185.159236,29.0764331 L187.707006,29.0764331 Z M190.89172,29.0764331 L190.89172,28.4076433 L188.343949,28.4076433 L188.343949,29.0764331 L190.89172,29.0764331 Z M22.1019108,35.7112527 L22.1019108,35.0424628 L19.5541401,35.0424628 L19.5541401,35.7112527 L22.1019108,35.7112527 Z M25.2866242,35.7112527 L25.2866242,35.0424628 L22.7388535,35.0424628 L22.7388535,35.7112527 L25.2866242,35.7112527 Z M28.4713376,35.7112527 L28.4713376,35.0424628 L25.9235669,35.0424628 L25.9235669,35.7112527 L28.4713376,35.7112527 Z M31.656051,35.7112527 L31.656051,35.0424628 L29.1082803,35.0424628 L29.1082803,35.7112527 L31.656051,35.7112527 Z M34.8407643,35.7112527 L34.8407643,35.0424628 L32.2929936,35.0424628 L32.2929936,35.7112527 L34.8407643,35.7112527 Z M38.0254777,35.7112527 L38.0254777,35.0424628 L35.477707,35.0424628 L35.477707,35.7112527 L38.0254777,35.7112527 Z M39.4373673,35.6369427 L41.1889597,31.0191083 L40.4352442,31.0191083 L38.6836518,35.6369427 L39.4373673,35.6369427 Z M44.373673,35.6369427 L42.6220807,31.0191083 L41.8683652,31.0191083 L43.6199575,35.6369427 L44.373673,35.6369427 Z M47.5583864,35.6369427 L45.8067941,31.0191083 L45.0530786,31.0191083 L46.8046709,35.6369427 L47.5583864,35.6369427 Z M50.7430998,35.6369427 L48.9915074,31.0191083 L48.2377919,31.0191083 L49.9893843,35.6369427 L50.7430998,35.6369427 Z M52.1762208,35.6369427 L53.9278132,31.0191083 L53.1740977,31.0191083 L51.4225053,35.6369427 L52.1762208,35.6369427 Z M57.1125265,35.6369427 L55.3609342,31.0191083 L54.6072187,31.0191083 L56.358811,35.6369427 L57.1125265,35.6369427 Z M58.5456476,35.6369427 L60.2972399,31.0191083 L59.5435244,31.0191083 L57.7919321,35.6369427 L58.5456476,35.6369427 Z M63.4819533,35.6369427 L61.7303609,31.0191083 L60.9766454,31.0191083 L62.7282378,35.6369427 L63.4819533,35.6369427 Z M66.6666667,35.6369427 L64.9150743,31.0191083 L64.1613588,31.0191083 L65.9129512,35.6369427 L66.6666667,35.6369427 Z M69.85138,35.6369427 L68.0997877,31.0191083 L67.3460722,31.0191083 L69.0976645,35.6369427 L69.85138,35.6369427 Z M73.0573248,35.7112527 L73.0573248,35.0424628 L70.5095541,35.0424628 L70.5095541,35.7112527 L73.0573248,35.7112527 Z M76.2420382,35.7112527 L76.2420382,35.0424628 L73.6942675,35.0424628 L73.6942675,35.7112527 L76.2420382,35.7112527 Z M79.4267516,35.7112527 L79.4267516,35.0424628 L76.8789809,35.0424628 L76.8789809,35.7112527 L79.4267516,35.7112527 Z M82.611465,35.7112527 L82.611465,35.0424628 L80.0636943,35.0424628 L80.0636943,35.7112527 L82.611465,35.7112527 Z M85.7749469,35.6369427 L84.0233546,31.0191083 L83.2696391,31.0191083 L85.0212314,35.6369427 L85.7749469,35.6369427 Z M87.2080679,35.6369427 L88.9596603,31.0191083 L88.2059448,31.0191083 L86.4543524,35.6369427 L87.2080679,35.6369427 Z M92.1443737,35.6369427 L90.3927813,31.0191083 L89.6390658,31.0191083 L91.3906582,35.6369427 L92.1443737,35.6369427 Z M95.329087,35.6369427 L93.5774947,31.0191083 L92.8237792,31.0191083 L94.5753715,35.6369427 L95.329087,35.6369427 Z M98.5138004,35.6369427 L96.7622081,31.0191083 L96.0084926,31.0191083 L97.7600849,35.6369427 L98.5138004,35.6369427 Z M101.719745,35.7112527 L101.719745,35.0424628 L99.1719745,35.0424628 L99.1719745,35.7112527 L101.719745,35.7112527 Z M104.904459,35.7112527 L104.904459,35.0424628 L102.356688,35.0424628 L102.356688,35.7112527 L104.904459,35.7112527 Z M108.089172,35.7112527 L108.089172,35.0424628 L105.541401,35.0424628 L105.541401,35.7112527 L108.089172,35.7112527 Z M111.273885,35.7112527 L111.273885,35.0424628 L108.726115,35.0424628 L108.726115,35.7112527 L111.273885,35.7112527 Z M114.458599,35.7112527 L114.458599,35.0424628 L111.910828,35.0424628 L111.910828,35.7112527 L114.458599,35.7112527 Z M117.622081,35.6369427 L115.870488,31.0191083 L115.116773,31.0191083 L116.868365,35.6369427 L117.622081,35.6369427 Z M119.055202,35.6369427 L120.806794,31.0191083 L120.053079,31.0191083 L118.301486,35.6369427 L119.055202,35.6369427 Z M123.991507,35.6369427 L122.239915,31.0191083 L121.4862,31.0191083 L123.237792,35.6369427 L123.991507,35.6369427 Z M127.176221,35.6369427 L125.424628,31.0191083 L124.670913,31.0191083 L126.422505,35.6369427 L127.176221,35.6369427 Z M130.360934,35.6369427 L128.609342,31.0191083 L127.855626,31.0191083 L129.607219,35.6369427 L130.360934,35.6369427 Z M133.566879,35.7112527 L133.566879,35.0424628 L131.019108,35.0424628 L131.019108,35.7112527 L133.566879,35.7112527 Z M136.751592,35.7112527 L136.751592,35.0424628 L134.203822,35.0424628 L134.203822,35.7112527 L136.751592,35.7112527 Z M139.936306,35.7112527 L139.936306,35.0424628 L137.388535,35.0424628 L137.388535,35.7112527 L139.936306,35.7112527 Z M143.121019,35.7112527 L143.121019,35.0424628 L140.573248,35.0424628 L140.573248,35.7112527 L143.121019,35.7112527 Z M146.305732,35.7112527 L146.305732,35.0424628 L143.757962,35.0424628 L143.757962,35.7112527 L146.305732,35.7112527 Z M149.490446,35.7112527 L149.490446,35.0424628 L146.942675,35.0424628 L146.942675,35.7112527 L149.490446,35.7112527 Z M150.902335,35.6369427 L152.653928,31.0191083 L151.900212,31.0191083 L150.14862,35.6369427 L150.902335,35.6369427 Z M155.838641,35.6369427 L154.087049,31.0191083 L153.333333,31.0191083 L155.084926,35.6369427 L155.838641,35.6369427 Z M159.023355,35.6369427 L157.271762,31.0191083 L156.518047,31.0191083 L158.269639,35.6369427 L159.023355,35.6369427 Z M162.208068,35.6369427 L160.456476,31.0191083 L159.70276,31.0191083 L161.454352,35.6369427 L162.208068,35.6369427 Z M163.641189,35.6369427 L165.392781,31.0191083 L164.639066,31.0191083 L162.887473,35.6369427 L163.641189,35.6369427 Z M168.577495,35.6369427 L166.825902,31.0191083 L166.072187,31.0191083 L167.823779,35.6369427 L168.577495,35.6369427 Z M170.010616,35.6369427 L171.762208,31.0191083 L171.008493,31.0191083 L169.2569,35.6369427 L170.010616,35.6369427 Z M174.946921,35.6369427 L173.195329,31.0191083 L172.441614,31.0191083 L174.193206,35.6369427 L174.946921,35.6369427 Z M178.131635,35.6369427 L176.380042,31.0191083 L175.626327,31.0191083 L177.377919,35.6369427 L178.131635,35.6369427 Z M181.316348,35.6369427 L179.564756,31.0191083 L178.81104,31.0191083 L180.562633,35.6369427 L181.316348,35.6369427 Z M184.522293,35.7112527 L184.522293,35.0424628 L181.974522,35.0424628 L181.974522,35.7112527 L184.522293,35.7112527 Z M187.707006,35.7112527 L187.707006,35.0424628 L185.159236,35.0424628 L185.159236,35.7112527 L187.707006,35.7112527 Z M190.89172,35.7112527 L190.89172,35.0424628 L188.343949,35.0424628 L188.343949,35.7112527 L190.89172,35.7112527 Z M194.076433,35.7112527 L194.076433,35.0424628 L191.528662,35.0424628 L191.528662,35.7112527 L194.076433,35.7112527 Z M25.2866242,42.3460722 L25.2866242,41.6772824 L22.7388535,41.6772824 L22.7388535,42.3460722 L25.2866242,42.3460722 Z M28.4713376,42.3460722 L28.4713376,41.6772824 L25.9235669,41.6772824 L25.9235669,42.3460722 L28.4713376,42.3460722 Z M31.656051,42.3460722 L31.656051,41.6772824 L29.1082803,41.6772824 L29.1082803,42.3460722 L31.656051,42.3460722 Z M34.8407643,42.3460722 L34.8407643,41.6772824 L32.2929936,41.6772824 L32.2929936,42.3460722 L34.8407643,42.3460722 Z M36.2526539,42.2717622 L38.0042463,37.6539278 L37.2505308,37.6539278 L35.4989384,42.2717622 L36.2526539,42.2717622 Z M41.1889597,42.2717622 L39.4373673,37.6539278 L38.6836518,37.6539278 L40.4352442,42.2717622 L41.1889597,42.2717622 Z M44.373673,42.2717622 L42.6220807,37.6539278 L41.8683652,37.6539278 L43.6199575,42.2717622 L44.373673,42.2717622 Z M47.5583864,42.2717622 L45.8067941,37.6539278 L45.0530786,37.6539278 L46.8046709,42.2717622 L47.5583864,42.2717622 Z M48.9915074,42.2717622 L50.7430998,37.6539278 L49.9893843,37.6539278 L48.2377919,42.2717622 L48.9915074,42.2717622 Z M53.9490446,42.3460722 L53.9490446,41.6772824 L51.4012739,41.6772824 L51.4012739,42.3460722 L53.9490446,42.3460722 Z M57.133758,42.3460722 L57.133758,41.6772824 L54.5859873,41.6772824 L54.5859873,42.3460722 L57.133758,42.3460722 Z M60.2972399,42.2717622 L58.5456476,37.6539278 L57.7919321,37.6539278 L59.5435244,42.2717622 L60.2972399,42.2717622 Z M61.7303609,42.2717622 L63.4819533,37.6539278 L62.7282378,37.6539278 L60.9766454,42.2717622 L61.7303609,42.2717622 Z M66.6666667,42.2717622 L64.9150743,37.6539278 L64.1613588,37.6539278 L65.9129512,42.2717622 L66.6666667,42.2717622 Z M69.85138,42.2717622 L68.0997877,37.6539278 L67.3460722,37.6539278 L69.0976645,42.2717622 L69.85138,42.2717622 Z M73.0360934,42.2717622 L71.2845011,37.6539278 L70.5307856,37.6539278 L72.2823779,42.2717622 L73.0360934,42.2717622 Z M76.2420382,42.3460722 L76.2420382,41.6772824 L73.6942675,41.6772824 L73.6942675,42.3460722 L76.2420382,42.3460722 Z M79.4267516,42.3460722 L79.4267516,41.6772824 L76.8789809,41.6772824 L76.8789809,42.3460722 L79.4267516,42.3460722 Z M82.611465,42.3460722 L82.611465,41.6772824 L80.0636943,41.6772824 L80.0636943,42.3460722 L82.611465,42.3460722 Z M85.7961783,42.3460722 L85.7961783,41.6772824 L83.2484076,41.6772824 L83.2484076,42.3460722 L85.7961783,42.3460722 Z M88.9596603,42.2717622 L87.2080679,37.6539278 L86.4543524,37.6539278 L88.2059448,42.2717622 L88.9596603,42.2717622 Z M90.3927813,42.2717622 L92.1443737,37.6539278 L91.3906582,37.6539278 L89.6390658,42.2717622 L90.3927813,42.2717622 Z M95.329087,42.2717622 L93.5774947,37.6539278 L92.8237792,37.6539278 L94.5753715,42.2717622 L95.329087,42.2717622 Z M98.5138004,42.2717622 L96.7622081,37.6539278 L96.0084926,37.6539278 L97.7600849,42.2717622 L98.5138004,42.2717622 Z M101.698514,42.2717622 L99.9469214,37.6539278 L99.1932059,37.6539278 L100.944798,42.2717622 L101.698514,42.2717622 Z M104.904459,42.3460722 L104.904459,41.6772824 L102.356688,41.6772824 L102.356688,42.3460722 L104.904459,42.3460722 Z M108.089172,42.3460722 L108.089172,41.6772824 L105.541401,41.6772824 L105.541401,42.3460722 L108.089172,42.3460722 Z M111.273885,42.3460722 L111.273885,41.6772824 L108.726115,41.6772824 L108.726115,42.3460722 L111.273885,42.3460722 Z M114.458599,42.3460722 L114.458599,41.6772824 L111.910828,41.6772824 L111.910828,42.3460722 L114.458599,42.3460722 Z M117.643312,42.3460722 L117.643312,41.6772824 L115.095541,41.6772824 L115.095541,42.3460722 L117.643312,42.3460722 Z M120.806794,42.2717622 L119.055202,37.6539278 L118.301486,37.6539278 L120.053079,42.2717622 L120.806794,42.2717622 Z M122.239915,42.2717622 L123.991507,37.6539278 L123.237792,37.6539278 L121.4862,42.2717622 L122.239915,42.2717622 Z M127.176221,42.2717622 L125.424628,37.6539278 L124.670913,37.6539278 L126.422505,42.2717622 L127.176221,42.2717622 Z M130.360934,42.2717622 L128.609342,37.6539278 L127.855626,37.6539278 L129.607219,42.2717622 L130.360934,42.2717622 Z M133.545648,42.2717622 L131.794055,37.6539278 L131.04034,37.6539278 L132.791932,42.2717622 L133.545648,42.2717622 Z M136.751592,42.3460722 L136.751592,41.6772824 L134.203822,41.6772824 L134.203822,42.3460722 L136.751592,42.3460722 Z M139.936306,42.3460722 L139.936306,41.6772824 L137.388535,41.6772824 L137.388535,42.3460722 L139.936306,42.3460722 Z M143.121019,42.3460722 L143.121019,41.6772824 L140.573248,41.6772824 L140.573248,42.3460722 L143.121019,42.3460722 Z M146.305732,42.3460722 L146.305732,41.6772824 L143.757962,41.6772824 L143.757962,42.3460722 L146.305732,42.3460722 Z M147.717622,42.2717622 L149.469214,37.6539278 L148.715499,37.6539278 L146.963907,42.2717622 L147.717622,42.2717622 Z M152.653928,42.2717622 L150.902335,37.6539278 L150.14862,37.6539278 L151.900212,42.2717622 L152.653928,42.2717622 Z M155.838641,42.2717622 L154.087049,37.6539278 L153.333333,37.6539278 L155.084926,42.2717622 L155.838641,42.2717622 Z M159.023355,42.2717622 L157.271762,37.6539278 L156.518047,37.6539278 L158.269639,42.2717622 L159.023355,42.2717622 Z M160.456476,42.2717622 L162.208068,37.6539278 L161.454352,37.6539278 L159.70276,42.2717622 L160.456476,42.2717622 Z M165.414013,42.3460722 L165.414013,41.6772824 L162.866242,41.6772824 L162.866242,42.3460722 L165.414013,42.3460722 Z M168.598726,42.3460722 L168.598726,41.6772824 L166.050955,41.6772824 L166.050955,42.3460722 L168.598726,42.3460722 Z M171.762208,42.2717622 L170.010616,37.6539278 L169.2569,37.6539278 L171.008493,42.2717622 L171.762208,42.2717622 Z M173.195329,42.2717622 L174.946921,37.6539278 L174.193206,37.6539278 L172.441614,42.2717622 L173.195329,42.2717622 Z M178.131635,42.2717622 L176.380042,37.6539278 L175.626327,37.6539278 L177.377919,42.2717622 L178.131635,42.2717622 Z M181.316348,42.2717622 L179.564756,37.6539278 L178.81104,37.6539278 L180.562633,42.2717622 L181.316348,42.2717622 Z M184.501062,42.2717622 L182.749469,37.6539278 L181.995754,37.6539278 L183.747346,42.2717622 L184.501062,42.2717622 Z M187.707006,42.3460722 L187.707006,41.6772824 L185.159236,41.6772824 L185.159236,42.3460722 L187.707006,42.3460722 Z M190.89172,42.3460722 L190.89172,41.6772824 L188.343949,41.6772824 L188.343949,42.3460722 L190.89172,42.3460722 Z M194.076433,42.3460722 L194.076433,41.6772824 L191.528662,41.6772824 L191.528662,42.3460722 L194.076433,42.3460722 Z M197.261146,42.3460722 L197.261146,41.6772824 L194.713376,41.6772824 L194.713376,42.3460722 L197.261146,42.3460722 Z M28.4713376,48.9808917 L28.4713376,48.3121019 L25.9235669,48.3121019 L25.9235669,48.9808917 L28.4713376,48.9808917 Z M31.656051,48.9808917 L31.656051,48.3121019 L29.1082803,48.3121019 L29.1082803,48.9808917 L31.656051,48.9808917 Z M33.0679406,48.9065817 L34.8195329,44.2887473 L34.0658174,44.2887473 L32.3142251,48.9065817 L33.0679406,48.9065817 Z M38.0042463,48.9065817 L36.2526539,44.2887473 L35.4989384,44.2887473 L37.2505308,48.9065817 L38.0042463,48.9065817 Z M41.1889597,48.9065817 L39.4373673,44.2887473 L38.6836518,44.2887473 L40.4352442,48.9065817 L41.1889597,48.9065817 Z M44.373673,48.9065817 L42.6220807,44.2887473 L41.8683652,44.2887473 L43.6199575,48.9065817 L44.373673,48.9065817 Z M47.5583864,48.9065817 L45.8067941,44.2887473 L45.0530786,44.2887473 L46.8046709,48.9065817 L47.5583864,48.9065817 Z M50.7430998,48.9065817 L48.9915074,44.2887473 L48.2377919,44.2887473 L49.9893843,48.9065817 L50.7430998,48.9065817 Z M53.9278132,48.9065817 L52.1762208,44.2887473 L51.4225053,44.2887473 L53.1740977,48.9065817 L53.9278132,48.9065817 Z M57.1125265,48.9065817 L55.3609342,44.2887473 L54.6072187,44.2887473 L56.358811,48.9065817 L57.1125265,48.9065817 Z M60.2972399,48.9065817 L58.5456476,44.2887473 L57.7919321,44.2887473 L59.5435244,48.9065817 L60.2972399,48.9065817 Z M63.4819533,48.9065817 L61.7303609,44.2887473 L60.9766454,44.2887473 L62.7282378,48.9065817 L63.4819533,48.9065817 Z M66.6666667,48.9065817 L64.9150743,44.2887473 L64.1613588,44.2887473 L65.9129512,48.9065817 L66.6666667,48.9065817 Z M69.85138,48.9065817 L68.0997877,44.2887473 L67.3460722,44.2887473 L69.0976645,48.9065817 L69.85138,48.9065817 Z M73.0360934,48.9065817 L71.2845011,44.2887473 L70.5307856,44.2887473 L72.2823779,48.9065817 L73.0360934,48.9065817 Z M76.2208068,48.9065817 L74.4692144,44.2887473 L73.7154989,44.2887473 L75.4670913,48.9065817 L76.2208068,48.9065817 Z M79.4055202,48.9065817 L77.6539278,44.2887473 L76.9002123,44.2887473 L78.6518047,48.9065817 L79.4055202,48.9065817 Z M82.5902335,48.9065817 L80.8386412,44.2887473 L80.0849257,44.2887473 L81.836518,48.9065817 L82.5902335,48.9065817 Z M85.7749469,48.9065817 L84.0233546,44.2887473 L83.2696391,44.2887473 L85.0212314,48.9065817 L85.7749469,48.9065817 Z M88.9808917,48.9808917 L88.9808917,48.3121019 L86.433121,48.3121019 L86.433121,48.9808917 L88.9808917,48.9808917 Z M92.1443737,48.9065817 L90.3927813,44.2887473 L89.6390658,44.2887473 L91.3906582,48.9065817 L92.1443737,48.9065817 Z M93.5774947,48.9065817 L95.329087,44.2887473 L94.5753715,44.2887473 L92.8237792,48.9065817 L93.5774947,48.9065817 Z M98.5138004,48.9065817 L96.7622081,44.2887473 L96.0084926,44.2887473 L97.7600849,48.9065817 L98.5138004,48.9065817 Z M101.698514,48.9065817 L99.9469214,44.2887473 L99.1932059,44.2887473 L100.944798,48.9065817 L101.698514,48.9065817 Z M104.883227,48.9065817 L103.131635,44.2887473 L102.377919,44.2887473 L104.129512,48.9065817 L104.883227,48.9065817 Z M108.089172,48.9808917 L108.089172,48.3121019 L105.541401,48.3121019 L105.541401,48.9808917 L108.089172,48.9808917 Z M111.273885,48.9808917 L111.273885,48.3121019 L108.726115,48.3121019 L108.726115,48.9808917 L111.273885,48.9808917 Z M114.458599,48.9808917 L114.458599,48.3121019 L111.910828,48.3121019 L111.910828,48.9808917 L114.458599,48.9808917 Z M117.643312,48.9808917 L117.643312,48.3121019 L115.095541,48.3121019 L115.095541,48.9808917 L117.643312,48.9808917 Z M120.828025,48.9808917 L120.828025,48.3121019 L118.280255,48.3121019 L118.280255,48.9808917 L120.828025,48.9808917 Z M123.991507,48.9065817 L122.239915,44.2887473 L121.4862,44.2887473 L123.237792,48.9065817 L123.991507,48.9065817 Z M125.424628,48.9065817 L127.176221,44.2887473 L126.422505,44.2887473 L124.670913,48.9065817 L125.424628,48.9065817 Z M130.360934,48.9065817 L128.609342,44.2887473 L127.855626,44.2887473 L129.607219,48.9065817 L130.360934,48.9065817 Z M133.545648,48.9065817 L131.794055,44.2887473 L131.04034,44.2887473 L132.791932,48.9065817 L133.545648,48.9065817 Z M136.730361,48.9065817 L134.978769,44.2887473 L134.225053,44.2887473 L135.976645,48.9065817 L136.730361,48.9065817 Z M139.936306,48.9808917 L139.936306,48.3121019 L137.388535,48.3121019 L137.388535,48.9808917 L139.936306,48.9808917 Z M143.121019,48.9808917 L143.121019,48.3121019 L140.573248,48.3121019 L140.573248,48.9808917 L143.121019,48.9808917 Z M144.532909,48.9065817 L146.284501,44.2887473 L145.530786,44.2887473 L143.779193,48.9065817 L144.532909,48.9065817 Z M149.469214,48.9065817 L147.717622,44.2887473 L146.963907,44.2887473 L148.715499,48.9065817 L149.469214,48.9065817 Z M152.653928,48.9065817 L150.902335,44.2887473 L150.14862,44.2887473 L151.900212,48.9065817 L152.653928,48.9065817 Z M155.838641,48.9065817 L154.087049,44.2887473 L153.333333,44.2887473 L155.084926,48.9065817 L155.838641,48.9065817 Z M159.023355,48.9065817 L157.271762,44.2887473 L156.518047,44.2887473 L158.269639,48.9065817 L159.023355,48.9065817 Z M162.208068,48.9065817 L160.456476,44.2887473 L159.70276,44.2887473 L161.454352,48.9065817 L162.208068,48.9065817 Z M165.392781,48.9065817 L163.641189,44.2887473 L162.887473,44.2887473 L164.639066,48.9065817 L165.392781,48.9065817 Z M168.577495,48.9065817 L166.825902,44.2887473 L166.072187,44.2887473 L167.823779,48.9065817 L168.577495,48.9065817 Z M171.762208,48.9065817 L170.010616,44.2887473 L169.2569,44.2887473 L171.008493,48.9065817 L171.762208,48.9065817 Z M174.946921,48.9065817 L173.195329,44.2887473 L172.441614,44.2887473 L174.193206,48.9065817 L174.946921,48.9065817 Z M178.131635,48.9065817 L176.380042,44.2887473 L175.626327,44.2887473 L177.377919,48.9065817 L178.131635,48.9065817 Z M181.316348,48.9065817 L179.564756,44.2887473 L178.81104,44.2887473 L180.562633,48.9065817 L181.316348,48.9065817 Z M184.501062,48.9065817 L182.749469,44.2887473 L181.995754,44.2887473 L183.747346,48.9065817 L184.501062,48.9065817 Z M187.685775,48.9065817 L185.934183,44.2887473 L185.180467,44.2887473 L186.932059,48.9065817 L187.685775,48.9065817 Z M190.870488,48.9065817 L189.118896,44.2887473 L188.36518,44.2887473 L190.116773,48.9065817 L190.870488,48.9065817 Z M194.055202,48.9065817 L192.303609,44.2887473 L191.549894,44.2887473 L193.301486,48.9065817 L194.055202,48.9065817 Z M197.239915,48.9065817 L195.488323,44.2887473 L194.734607,44.2887473 L196.4862,48.9065817 L197.239915,48.9065817 Z M200.44586,48.9808917 L200.44586,48.3121019 L197.898089,48.3121019 L197.898089,48.9808917 L200.44586,48.9808917 Z M31.656051,55.6157113 L31.656051,54.9469214 L29.1082803,54.9469214 L29.1082803,55.6157113 L31.656051,55.6157113 Z M34.8195329,55.5414013 L33.0679406,50.9235669 L32.3142251,50.9235669 L34.0658174,55.5414013 L34.8195329,55.5414013 Z M36.2526539,55.5414013 L38.0042463,50.9235669 L37.2505308,50.9235669 L35.4989384,55.5414013 L36.2526539,55.5414013 Z M39.4373673,55.5414013 L41.1889597,50.9235669 L40.4352442,50.9235669 L38.6836518,55.5414013 L39.4373673,55.5414013 Z M42.6220807,55.5414013 L44.373673,50.9235669 L43.6199575,50.9235669 L41.8683652,55.5414013 L42.6220807,55.5414013 Z M45.8067941,55.5414013 L47.5583864,50.9235669 L46.8046709,50.9235669 L45.0530786,55.5414013 L45.8067941,55.5414013 Z M48.9915074,55.5414013 L50.7430998,50.9235669 L49.9893843,50.9235669 L48.2377919,55.5414013 L48.9915074,55.5414013 Z M52.1762208,55.5414013 L53.9278132,50.9235669 L53.1740977,50.9235669 L51.4225053,55.5414013 L52.1762208,55.5414013 Z M55.3609342,55.5414013 L57.1125265,50.9235669 L56.358811,50.9235669 L54.6072187,55.5414013 L55.3609342,55.5414013 Z M58.5456476,55.5414013 L60.2972399,50.9235669 L59.5435244,50.9235669 L57.7919321,55.5414013 L58.5456476,55.5414013 Z M61.7303609,55.5414013 L63.4819533,50.9235669 L62.7282378,50.9235669 L60.9766454,55.5414013 L61.7303609,55.5414013 Z M64.9150743,55.5414013 L66.6666667,50.9235669 L65.9129512,50.9235669 L64.1613588,55.5414013 L64.9150743,55.5414013 Z M68.0997877,55.5414013 L69.85138,50.9235669 L69.0976645,50.9235669 L67.3460722,55.5414013 L68.0997877,55.5414013 Z M73.0360934,55.5414013 L71.2845011,50.9235669 L70.5307856,50.9235669 L72.2823779,55.5414013 L73.0360934,55.5414013 Z M76.2208068,55.5414013 L74.4692144,50.9235669 L73.7154989,50.9235669 L75.4670913,55.5414013 L76.2208068,55.5414013 Z M79.4055202,55.5414013 L77.6539278,50.9235669 L76.9002123,50.9235669 L78.6518047,55.5414013 L79.4055202,55.5414013 Z M80.8386412,55.5414013 L82.5902335,50.9235669 L81.836518,50.9235669 L80.0849257,55.5414013 L80.8386412,55.5414013 Z M84.0233546,55.5414013 L85.7749469,50.9235669 L85.0212314,50.9235669 L83.2696391,55.5414013 L84.0233546,55.5414013 Z M88.9808917,55.6157113 L88.9808917,54.9469214 L86.433121,54.9469214 L86.433121,55.6157113 L88.9808917,55.6157113 Z M92.1656051,55.6157113 L92.1656051,54.9469214 L89.6178344,54.9469214 L89.6178344,55.6157113 L92.1656051,55.6157113 Z M95.329087,55.5414013 L93.5774947,50.9235669 L92.8237792,50.9235669 L94.5753715,55.5414013 L95.329087,55.5414013 Z M96.7622081,55.5414013 L98.5138004,50.9235669 L97.7600849,50.9235669 L96.0084926,55.5414013 L96.7622081,55.5414013 Z M99.9469214,55.5414013 L101.698514,50.9235669 L100.944798,50.9235669 L99.1932059,55.5414013 L99.9469214,55.5414013 Z M104.883227,55.5414013 L103.131635,50.9235669 L102.377919,50.9235669 L104.129512,55.5414013 L104.883227,55.5414013 Z M108.067941,55.5414013 L106.316348,50.9235669 L105.562633,50.9235669 L107.314225,55.5414013 L108.067941,55.5414013 Z M111.252654,55.5414013 L109.501062,50.9235669 L108.747346,50.9235669 L110.498938,55.5414013 L111.252654,55.5414013 Z M114.458599,55.6157113 L114.458599,54.9469214 L111.910828,54.9469214 L111.910828,55.6157113 L114.458599,55.6157113 Z M117.643312,55.6157113 L117.643312,54.9469214 L115.095541,54.9469214 L115.095541,55.6157113 L117.643312,55.6157113 Z M120.828025,55.6157113 L120.828025,54.9469214 L118.280255,54.9469214 L118.280255,55.6157113 L120.828025,55.6157113 Z M124.012739,55.6157113 L124.012739,54.9469214 L121.464968,54.9469214 L121.464968,55.6157113 L124.012739,55.6157113 Z M125.424628,55.5414013 L127.176221,50.9235669 L126.422505,50.9235669 L124.670913,55.5414013 L125.424628,55.5414013 Z M130.360934,55.5414013 L128.609342,50.9235669 L127.855626,50.9235669 L129.607219,55.5414013 L130.360934,55.5414013 Z M133.545648,55.5414013 L131.794055,50.9235669 L131.04034,50.9235669 L132.791932,55.5414013 L133.545648,55.5414013 Z M136.730361,55.5414013 L134.978769,50.9235669 L134.225053,50.9235669 L135.976645,55.5414013 L136.730361,55.5414013 Z M139.936306,55.6157113 L139.936306,54.9469214 L137.388535,54.9469214 L137.388535,55.6157113 L139.936306,55.6157113 Z M143.121019,55.6157113 L143.121019,54.9469214 L140.573248,54.9469214 L140.573248,55.6157113 L143.121019,55.6157113 Z M146.284501,55.5414013 L144.532909,50.9235669 L143.779193,50.9235669 L145.530786,55.5414013 L146.284501,55.5414013 Z M147.717622,55.5414013 L149.469214,50.9235669 L148.715499,50.9235669 L146.963907,55.5414013 L147.717622,55.5414013 Z M150.902335,55.5414013 L152.653928,50.9235669 L151.900212,50.9235669 L150.14862,55.5414013 L150.902335,55.5414013 Z M154.087049,55.5414013 L155.838641,50.9235669 L155.084926,50.9235669 L153.333333,55.5414013 L154.087049,55.5414013 Z M157.271762,55.5414013 L159.023355,50.9235669 L158.269639,50.9235669 L156.518047,55.5414013 L157.271762,55.5414013 Z M160.456476,55.5414013 L162.208068,50.9235669 L161.454352,50.9235669 L159.70276,55.5414013 L160.456476,55.5414013 Z M163.641189,55.5414013 L165.392781,50.9235669 L164.639066,50.9235669 L162.887473,55.5414013 L163.641189,55.5414013 Z M166.825902,55.5414013 L168.577495,50.9235669 L167.823779,50.9235669 L166.072187,55.5414013 L166.825902,55.5414013 Z M170.010616,55.5414013 L171.762208,50.9235669 L171.008493,50.9235669 L169.2569,55.5414013 L170.010616,55.5414013 Z M173.195329,55.5414013 L174.946921,50.9235669 L174.193206,50.9235669 L172.441614,55.5414013 L173.195329,55.5414013 Z M176.380042,55.5414013 L178.131635,50.9235669 L177.377919,50.9235669 L175.626327,55.5414013 L176.380042,55.5414013 Z M179.564756,55.5414013 L181.316348,50.9235669 L180.562633,50.9235669 L178.81104,55.5414013 L179.564756,55.5414013 Z M184.501062,55.5414013 L182.749469,50.9235669 L181.995754,50.9235669 L183.747346,55.5414013 L184.501062,55.5414013 Z M187.685775,55.5414013 L185.934183,50.9235669 L185.180467,50.9235669 L186.932059,55.5414013 L187.685775,55.5414013 Z M190.870488,55.5414013 L189.118896,50.9235669 L188.36518,50.9235669 L190.116773,55.5414013 L190.870488,55.5414013 Z M192.303609,55.5414013 L194.055202,50.9235669 L193.301486,50.9235669 L191.549894,55.5414013 L192.303609,55.5414013 Z M195.488323,55.5414013 L197.239915,50.9235669 L196.4862,50.9235669 L194.734607,55.5414013 L195.488323,55.5414013 Z M200.44586,55.6157113 L200.44586,54.9469214 L197.898089,54.9469214 L197.898089,55.6157113 L200.44586,55.6157113 Z M203.630573,55.6157113 L203.630573,54.9469214 L201.082803,54.9469214 L201.082803,55.6157113 L203.630573,55.6157113 Z M34.8407643,62.2505308 L34.8407643,61.581741 L32.2929936,61.581741 L32.2929936,62.2505308 L34.8407643,62.2505308 Z M38.0254777,62.2505308 L38.0254777,61.581741 L35.477707,61.581741 L35.477707,62.2505308 L38.0254777,62.2505308 Z M41.2101911,62.2505308 L41.2101911,61.581741 L38.6624204,61.581741 L38.6624204,62.2505308 L41.2101911,62.2505308 Z M44.3949045,62.2505308 L44.3949045,61.581741 L41.8471338,61.581741 L41.8471338,62.2505308 L44.3949045,62.2505308 Z M47.5796178,62.2505308 L47.5796178,61.581741 L45.0318471,61.581741 L45.0318471,62.2505308 L47.5796178,62.2505308 Z M50.7643312,62.2505308 L50.7643312,61.581741 L48.2165605,61.581741 L48.2165605,62.2505308 L50.7643312,62.2505308 Z M53.9490446,62.2505308 L53.9490446,61.581741 L51.4012739,61.581741 L51.4012739,62.2505308 L53.9490446,62.2505308 Z M57.133758,62.2505308 L57.133758,61.581741 L54.5859873,61.581741 L54.5859873,62.2505308 L57.133758,62.2505308 Z M60.3184713,62.2505308 L60.3184713,61.581741 L57.7707006,61.581741 L57.7707006,62.2505308 L60.3184713,62.2505308 Z M63.5031847,62.2505308 L63.5031847,61.581741 L60.955414,61.581741 L60.955414,62.2505308 L63.5031847,62.2505308 Z M66.6878981,62.2505308 L66.6878981,61.581741 L64.1401274,61.581741 L64.1401274,62.2505308 L66.6878981,62.2505308 Z M69.85138,62.1762208 L68.0997877,57.5583864 L67.3460722,57.5583864 L69.0976645,62.1762208 L69.85138,62.1762208 Z M71.2845011,62.1762208 L73.0360934,57.5583864 L72.2823779,57.5583864 L70.5307856,62.1762208 L71.2845011,62.1762208 Z M76.2208068,62.1762208 L74.4692144,57.5583864 L73.7154989,57.5583864 L75.4670913,62.1762208 L76.2208068,62.1762208 Z M79.4055202,62.1762208 L77.6539278,57.5583864 L76.9002123,57.5583864 L78.6518047,62.1762208 L79.4055202,62.1762208 Z M82.5902335,62.1762208 L80.8386412,57.5583864 L80.0849257,57.5583864 L81.836518,62.1762208 L82.5902335,62.1762208 Z M85.7961783,62.2505308 L85.7961783,61.581741 L83.2484076,61.581741 L83.2484076,62.2505308 L85.7961783,62.2505308 Z M88.9808917,62.2505308 L88.9808917,61.581741 L86.433121,61.581741 L86.433121,62.2505308 L88.9808917,62.2505308 Z M92.1656051,62.2505308 L92.1656051,61.581741 L89.6178344,61.581741 L89.6178344,62.2505308 L92.1656051,62.2505308 Z M95.3503185,62.2505308 L95.3503185,61.581741 L92.8025478,61.581741 L92.8025478,62.2505308 L95.3503185,62.2505308 Z M98.5350318,62.2505308 L98.5350318,61.581741 L95.9872611,61.581741 L95.9872611,62.2505308 L98.5350318,62.2505308 Z M101.698514,62.1762208 L99.9469214,57.5583864 L99.1932059,57.5583864 L100.944798,62.1762208 L101.698514,62.1762208 Z M103.131635,62.1762208 L104.883227,57.5583864 L104.129512,57.5583864 L102.377919,62.1762208 L103.131635,62.1762208 Z M106.316348,62.1762208 L108.067941,57.5583864 L107.314225,57.5583864 L105.562633,62.1762208 L106.316348,62.1762208 Z M109.501062,62.1762208 L111.252654,57.5583864 L110.498938,57.5583864 L108.747346,62.1762208 L109.501062,62.1762208 Z M114.437367,62.1762208 L112.685775,57.5583864 L111.932059,57.5583864 L113.683652,62.1762208 L114.437367,62.1762208 Z M117.622081,62.1762208 L115.870488,57.5583864 L115.116773,57.5583864 L116.868365,62.1762208 L117.622081,62.1762208 Z M120.806794,62.1762208 L119.055202,57.5583864 L118.301486,57.5583864 L120.053079,62.1762208 L120.806794,62.1762208 Z M123.991507,62.1762208 L122.239915,57.5583864 L121.4862,57.5583864 L123.237792,62.1762208 L123.991507,62.1762208 Z M127.176221,62.1762208 L125.424628,57.5583864 L124.670913,57.5583864 L126.422505,62.1762208 L127.176221,62.1762208 Z M130.360934,62.1762208 L128.609342,57.5583864 L127.855626,57.5583864 L129.607219,62.1762208 L130.360934,62.1762208 Z M133.545648,62.1762208 L131.794055,57.5583864 L131.04034,57.5583864 L132.791932,62.1762208 L133.545648,62.1762208 Z M134.978769,62.1762208 L136.730361,57.5583864 L135.976645,57.5583864 L134.225053,62.1762208 L134.978769,62.1762208 Z M139.936306,62.2505308 L139.936306,61.581741 L137.388535,61.581741 L137.388535,62.2505308 L139.936306,62.2505308 Z M143.121019,62.2505308 L143.121019,61.581741 L140.573248,61.581741 L140.573248,62.2505308 L143.121019,62.2505308 Z M146.305732,62.2505308 L146.305732,61.581741 L143.757962,61.581741 L143.757962,62.2505308 L146.305732,62.2505308 Z M149.490446,62.2505308 L149.490446,61.581741 L146.942675,61.581741 L146.942675,62.2505308 L149.490446,62.2505308 Z M152.675159,62.2505308 L152.675159,61.581741 L150.127389,61.581741 L150.127389,62.2505308 L152.675159,62.2505308 Z M155.859873,62.2505308 L155.859873,61.581741 L153.312102,61.581741 L153.312102,62.2505308 L155.859873,62.2505308 Z M159.044586,62.2505308 L159.044586,61.581741 L156.496815,61.581741 L156.496815,62.2505308 L159.044586,62.2505308 Z M162.229299,62.2505308 L162.229299,61.581741 L159.681529,61.581741 L159.681529,62.2505308 L162.229299,62.2505308 Z M165.414013,62.2505308 L165.414013,61.581741 L162.866242,61.581741 L162.866242,62.2505308 L165.414013,62.2505308 Z M168.598726,62.2505308 L168.598726,61.581741 L166.050955,61.581741 L166.050955,62.2505308 L168.598726,62.2505308 Z M171.783439,62.2505308 L171.783439,61.581741 L169.235669,61.581741 L169.235669,62.2505308 L171.783439,62.2505308 Z M174.968153,62.2505308 L174.968153,61.581741 L172.420382,61.581741 L172.420382,62.2505308 L174.968153,62.2505308 Z M178.152866,62.2505308 L178.152866,61.581741 L175.605096,61.581741 L175.605096,62.2505308 L178.152866,62.2505308 Z M181.316348,62.1762208 L179.564756,57.5583864 L178.81104,57.5583864 L180.562633,62.1762208 L181.316348,62.1762208 Z M182.749469,62.1762208 L184.501062,57.5583864 L183.747346,57.5583864 L181.995754,62.1762208 L182.749469,62.1762208 Z M187.685775,62.1762208 L185.934183,57.5583864 L185.180467,57.5583864 L186.932059,62.1762208 L187.685775,62.1762208 Z M190.870488,62.1762208 L189.118896,57.5583864 L188.36518,57.5583864 L190.116773,62.1762208 L190.870488,62.1762208 Z M194.055202,62.1762208 L192.303609,57.5583864 L191.549894,57.5583864 L193.301486,62.1762208 L194.055202,62.1762208 Z M197.261146,62.2505308 L197.261146,61.581741 L194.713376,61.581741 L194.713376,62.2505308 L197.261146,62.2505308 Z M200.44586,62.2505308 L200.44586,61.581741 L197.898089,61.581741 L197.898089,62.2505308 L200.44586,62.2505308 Z M203.630573,62.2505308 L203.630573,61.581741 L201.082803,61.581741 L201.082803,62.2505308 L203.630573,62.2505308 Z M206.815287,62.2505308 L206.815287,61.581741 L204.267516,61.581741 L204.267516,62.2505308 L206.815287,62.2505308 Z M38.0254777,68.8853503 L38.0254777,68.2165605 L35.477707,68.2165605 L35.477707,68.8853503 L38.0254777,68.8853503 Z M41.2101911,68.8853503 L41.2101911,68.2165605 L38.6624204,68.2165605 L38.6624204,68.8853503 L41.2101911,68.8853503 Z M44.3949045,68.8853503 L44.3949045,68.2165605 L41.8471338,68.2165605 L41.8471338,68.8853503 L44.3949045,68.8853503 Z M47.5796178,68.8853503 L47.5796178,68.2165605 L45.0318471,68.2165605 L45.0318471,68.8853503 L47.5796178,68.8853503 Z M50.7643312,68.8853503 L50.7643312,68.2165605 L48.2165605,68.2165605 L48.2165605,68.8853503 L50.7643312,68.8853503 Z M53.9490446,68.8853503 L53.9490446,68.2165605 L51.4012739,68.2165605 L51.4012739,68.8853503 L53.9490446,68.8853503 Z M57.133758,68.8853503 L57.133758,68.2165605 L54.5859873,68.2165605 L54.5859873,68.8853503 L57.133758,68.8853503 Z M60.3184713,68.8853503 L60.3184713,68.2165605 L57.7707006,68.2165605 L57.7707006,68.8853503 L60.3184713,68.8853503 Z M63.5031847,68.8853503 L63.5031847,68.2165605 L60.955414,68.2165605 L60.955414,68.8853503 L63.5031847,68.8853503 Z M66.6878981,68.8853503 L66.6878981,68.2165605 L64.1401274,68.2165605 L64.1401274,68.8853503 L66.6878981,68.8853503 Z M69.8726115,68.8853503 L69.8726115,68.2165605 L67.3248408,68.2165605 L67.3248408,68.8853503 L69.8726115,68.8853503 Z M73.0360934,68.8110403 L71.2845011,64.1932059 L70.5307856,64.1932059 L72.2823779,68.8110403 L73.0360934,68.8110403 Z M74.4692144,68.8110403 L76.2208068,64.1932059 L75.4670913,64.1932059 L73.7154989,68.8110403 L74.4692144,68.8110403 Z M77.6539278,68.8110403 L79.4055202,64.1932059 L78.6518047,64.1932059 L76.9002123,68.8110403 L77.6539278,68.8110403 Z M80.8386412,68.8110403 L82.5902335,64.1932059 L81.836518,64.1932059 L80.0849257,68.8110403 L80.8386412,68.8110403 Z M85.7961783,68.8853503 L85.7961783,68.2165605 L83.2484076,68.2165605 L83.2484076,68.8853503 L85.7961783,68.8853503 Z M88.9808917,68.8853503 L88.9808917,68.2165605 L86.433121,68.2165605 L86.433121,68.8853503 L88.9808917,68.8853503 Z M92.1656051,68.8853503 L92.1656051,68.2165605 L89.6178344,68.2165605 L89.6178344,68.8853503 L92.1656051,68.8853503 Z M95.3503185,68.8853503 L95.3503185,68.2165605 L92.8025478,68.2165605 L92.8025478,68.8853503 L95.3503185,68.8853503 Z M98.5350318,68.8853503 L98.5350318,68.2165605 L95.9872611,68.2165605 L95.9872611,68.8853503 L98.5350318,68.8853503 Z M101.719745,68.8853503 L101.719745,68.2165605 L99.1719745,68.2165605 L99.1719745,68.8853503 L101.719745,68.8853503 Z M104.904459,68.8853503 L104.904459,68.2165605 L102.356688,68.2165605 L102.356688,68.8853503 L104.904459,68.8853503 Z M108.089172,68.8853503 L108.089172,68.2165605 L105.541401,68.2165605 L105.541401,68.8853503 L108.089172,68.8853503 Z M111.252654,68.8110403 L109.501062,64.1932059 L108.747346,64.1932059 L110.498938,68.8110403 L111.252654,68.8110403 Z M112.685775,68.8110403 L114.437367,64.1932059 L113.683652,64.1932059 L111.932059,68.8110403 L112.685775,68.8110403 Z M115.870488,68.8110403 L117.622081,64.1932059 L116.868365,64.1932059 L115.116773,68.8110403 L115.870488,68.8110403 Z M119.055202,68.8110403 L120.806794,64.1932059 L120.053079,64.1932059 L118.301486,68.8110403 L119.055202,68.8110403 Z M122.239915,68.8110403 L123.991507,64.1932059 L123.237792,64.1932059 L121.4862,68.8110403 L122.239915,68.8110403 Z M125.424628,68.8110403 L127.176221,64.1932059 L126.422505,64.1932059 L124.670913,68.8110403 L125.424628,68.8110403 Z M128.609342,68.8110403 L130.360934,64.1932059 L129.607219,64.1932059 L127.855626,68.8110403 L128.609342,68.8110403 Z M131.794055,68.8110403 L133.545648,64.1932059 L132.791932,64.1932059 L131.04034,68.8110403 L131.794055,68.8110403 Z M136.751592,68.8853503 L136.751592,68.2165605 L134.203822,68.2165605 L134.203822,68.8853503 L136.751592,68.8853503 Z M139.936306,68.8853503 L139.936306,68.2165605 L137.388535,68.2165605 L137.388535,68.8853503 L139.936306,68.8853503 Z M143.121019,68.8853503 L143.121019,68.2165605 L140.573248,68.2165605 L140.573248,68.8853503 L143.121019,68.8853503 Z M146.305732,68.8853503 L146.305732,68.2165605 L143.757962,68.2165605 L143.757962,68.8853503 L146.305732,68.8853503 Z M149.490446,68.8853503 L149.490446,68.2165605 L146.942675,68.2165605 L146.942675,68.8853503 L149.490446,68.8853503 Z M152.675159,68.8853503 L152.675159,68.2165605 L150.127389,68.2165605 L150.127389,68.8853503 L152.675159,68.8853503 Z M155.859873,68.8853503 L155.859873,68.2165605 L153.312102,68.2165605 L153.312102,68.8853503 L155.859873,68.8853503 Z M159.044586,68.8853503 L159.044586,68.2165605 L156.496815,68.2165605 L156.496815,68.8853503 L159.044586,68.8853503 Z M162.229299,68.8853503 L162.229299,68.2165605 L159.681529,68.2165605 L159.681529,68.8853503 L162.229299,68.8853503 Z M165.414013,68.8853503 L165.414013,68.2165605 L162.866242,68.2165605 L162.866242,68.8853503 L165.414013,68.8853503 Z M168.598726,68.8853503 L168.598726,68.2165605 L166.050955,68.2165605 L166.050955,68.8853503 L168.598726,68.8853503 Z M171.783439,68.8853503 L171.783439,68.2165605 L169.235669,68.2165605 L169.235669,68.8853503 L171.783439,68.8853503 Z M174.968153,68.8853503 L174.968153,68.2165605 L172.420382,68.2165605 L172.420382,68.8853503 L174.968153,68.8853503 Z M178.152866,68.8853503 L178.152866,68.2165605 L175.605096,68.2165605 L175.605096,68.8853503 L178.152866,68.8853503 Z M181.33758,68.8853503 L181.33758,68.2165605 L178.789809,68.2165605 L178.789809,68.8853503 L181.33758,68.8853503 Z M184.501062,68.8110403 L182.749469,64.1932059 L181.995754,64.1932059 L183.747346,68.8110403 L184.501062,68.8110403 Z M185.934183,68.8110403 L187.685775,64.1932059 L186.932059,64.1932059 L185.180467,68.8110403 L185.934183,68.8110403 Z M189.118896,68.8110403 L190.870488,64.1932059 L190.116773,64.1932059 L188.36518,68.8110403 L189.118896,68.8110403 Z M192.303609,68.8110403 L194.055202,64.1932059 L193.301486,64.1932059 L191.549894,68.8110403 L192.303609,68.8110403 Z M197.261146,68.8853503 L197.261146,68.2165605 L194.713376,68.2165605 L194.713376,68.8853503 L197.261146,68.8853503 Z M200.44586,68.8853503 L200.44586,68.2165605 L197.898089,68.2165605 L197.898089,68.8853503 L200.44586,68.8853503 Z M203.630573,68.8853503 L203.630573,68.2165605 L201.082803,68.2165605 L201.082803,68.8853503 L203.630573,68.8853503 Z M206.815287,68.8853503 L206.815287,68.2165605 L204.267516,68.2165605 L204.267516,68.8853503 L206.815287,68.8853503 Z M210,68.8853503 L210,68.2165605 L207.452229,68.2165605 L207.452229,68.8853503 L210,68.8853503 Z" fill-rule="nonzero"></path>
  </svg>