<svg width="100" height="100" xmlns="http://www.w3.org/2000/svg" x="0px" y="0px" viewBox="0 0 50 50">
<title>partner</title>
<path d="M 7 2 L 7 4 L 2 4 L 2 38 L 20 38 L 20 36 L 4 36 L 4 6 L 9 6 L 9 4 L 21 4 L 21 6 L 26 6 L 26 9.921875 L 28 9.921875 L 28 4 L 23 4 L 23 2 Z M 36 2 L 33 5 L 36 8 L 36 6 L 40 6 C 40.566406 6 41 6.433594 41 7 L 41 10 L 43 10 L 43 7 C 43 5.355469 41.644531 4 40 4 L 36 4 Z M 6 8 L 6 10 L 9 10 L 9 8 Z M 11 8 L 11 10 L 14 10 L 14 8 Z M 16 8 L 16 10 L 19 10 L 19 8 Z M 21 8 L 21 10 L 24 10 L 24 8 Z M 6 12 L 6 14 L 9 14 L 9 12 Z M 11 12 L 11 14 L 14 14 L 14 12 Z M 16 12 L 16 14 L 19 14 L 19 12 Z M 27 12 L 27 14 L 22 14 L 22 48 L 48 48 L 48 14 L 43 14 L 43 12 Z M 29 14 L 41 14 L 41 16 L 46 16 L 46 46 L 24 46 L 24 16 L 29 16 Z M 6 16 L 6 18 L 9 18 L 9 16 Z M 11 16 L 11 18 L 14 18 L 14 16 Z M 16 16 L 16 18 L 19 18 L 19 16 Z M 26 18 L 26 20 L 29 20 L 29 18 Z M 31 18 L 31 20 L 34 20 L 34 18 Z M 36 18 L 36 20 L 39 20 L 39 18 Z M 41 18 L 41 20 L 44 20 L 44 18 Z M 6 20 L 6 22 L 9 22 L 9 20 Z M 11 20 L 11 22 L 14 22 L 14 20 Z M 16 20 L 16 22 L 19 22 L 19 20 Z M 26 22 L 26 24 L 29 24 L 29 22 Z M 31 22 L 31 24 L 34 24 L 34 22 Z M 36 22 L 36 24 L 39 24 L 39 22 Z M 41 22 L 41 24 L 44 24 L 44 22 Z M 6 24 L 6 26 L 9 26 L 9 24 Z M 11 24 L 11 26 L 14 26 L 14 24 Z M 16 24 L 16 26 L 19 26 L 19 24 Z M 26 26 L 26 28 L 29 28 L 29 26 Z M 31 26 L 31 28 L 34 28 L 34 26 Z M 36 26 L 36 28 L 39 28 L 39 26 Z M 41 26 L 41 28 L 44 28 L 44 26 Z M 6 28 L 6 30 L 9 30 L 9 28 Z M 11 28 L 11 30 L 14 30 L 14 28 Z M 16 28 L 16 30 L 19 30 L 19 28 Z M 26 30 L 26 32 L 29 32 L 29 30 Z M 31 30 L 31 32 L 34 32 L 34 30 Z M 36 30 L 36 32 L 39 32 L 39 30 Z M 41 30 L 41 32 L 44 32 L 44 30 Z M 6 32 L 6 34 L 9 34 L 9 32 Z M 11 32 L 11 34 L 14 34 L 14 32 Z M 16 32 L 16 34 L 19 34 L 19 32 Z M 26 34 L 26 36 L 29 36 L 29 34 Z M 31 34 L 31 36 L 34 36 L 34 34 Z M 36 34 L 36 36 L 39 36 L 39 34 Z M 41 34 L 41 36 L 44 36 L 44 34 Z M 26 38 L 26 40 L 29 40 L 29 38 Z M 31 38 L 31 40 L 34 40 L 34 38 Z M 36 38 L 36 40 L 39 40 L 39 38 Z M 41 38 L 41 40 L 44 40 L 44 38 Z M 7 40 L 7 43 C 7 44.644531 8.355469 46 10 46 L 14 46 L 14 48 L 17 45 L 14 42 L 14 44 L 10 44 C 9.433594 44 9 43.566406 9 43 L 9 40 Z M 26 42 L 26 44 L 29 44 L 29 42 Z M 31 42 L 31 44 L 34 44 L 34 42 Z M 36 42 L 36 44 L 39 44 L 39 42 Z M 41 42 L 41 44 L 44 44 L 44 42 Z"></path></svg>