<?xml version="1.0" encoding="UTF-8"?>
<svg width="50px" height="50px" viewBox="0 0 50 50" version="1.1" xmlns="http://www.w3.org/2000/svg" xmlns:xlink="http://www.w3.org/1999/xlink">
    <title>php-color</title>
    <g id="php-color" stroke="none" stroke-width="1" fill="none" fill-rule="evenodd">
        <g transform="translate(0.000000, 12.321429)" fill-rule="nonzero">
            <ellipse id="Oval" fill="#6181B6" cx="25" cy="12.7435714" rx="24.8896429" ry="12.6089286"></ellipse>
            <path d="M30.0396429,16.8185714 L31.2764286,10.4671429 C31.5575,9.03392857 31.3232143,7.96607143 30.5832143,7.29142857 C29.8710714,6.63571429 28.6628571,6.31714286 26.8828571,6.31714286 L24.7475,6.31714286 L25.3560714,3.16964286 C25.375,3.04785714 25.3471429,2.92607143 25.2721429,2.8325 C25.1971429,2.73892857 25.085,2.6825 24.9628571,2.6825 L22.0121429,2.6825 C21.8153571,2.6825 21.6560714,2.82321429 21.6185714,3.01035714 L20.3071429,9.755 C20.1853571,8.99607143 19.895,8.34035714 19.4267857,7.80642857 C18.565,6.81357143 17.1878571,6.31714286 15.3610714,6.31714286 L9.6375,6.31714286 C9.44071429,6.31714286 9.28142857,6.45785714 9.24392857,6.645 L6.58357143,20.2935714 C6.565,20.4157143 6.59285714,20.5375 6.66785714,20.6310714 C6.74285714,20.7246429 6.855,20.7810714 6.97714286,20.7810714 L9.95607143,20.7810714 C10.1528571,20.7810714 10.3121429,20.64 10.3496429,20.4532143 L10.9960714,17.1460714 L13.2067857,17.1460714 C14.3682143,17.1460714 15.3425,17.0242857 16.1107143,16.7714286 C16.8882143,16.5182143 17.6092857,16.0875 18.2371429,15.4975 C18.7521429,15.0289286 19.1739286,14.5046429 19.4925,13.9332143 L18.9585714,16.6592857 C18.9396429,16.7807143 18.9678571,16.9028571 19.0428571,16.9960714 C19.1178571,17.09 19.2303571,17.1460714 19.3521429,17.1460714 L22.3028571,17.1460714 C22.4996429,17.1460714 22.6589286,17.0053571 22.6964286,16.8182143 L24.1485714,9.32428571 L26.1721429,9.32428571 C27.0335714,9.32428571 27.2867857,9.49285714 27.3525,9.56785714 C27.4182143,9.63357143 27.5492857,9.87714286 27.3992857,10.6171429 L26.2467857,16.6685714 C26.2278571,16.7907143 26.2560714,16.9121429 26.3310714,17.0057143 C26.4060714,17.0992857 26.5182143,17.1557143 26.64,17.1557143 L29.6378571,17.1557143 C29.8339286,17.1464286 30.0021429,17.0153571 30.0396429,16.8185714 Z M38.5921429,6.3175 C40.4189286,6.3175 41.7960714,6.81392857 42.6578571,7.80678571 C43.5292857,8.80928571 43.8010714,10.1953571 43.4728571,11.9378571 C43.3321429,12.6407143 43.0982143,13.2964286 42.7703571,13.8864286 C42.4425,14.4767857 42.0021429,15.02 41.4775,15.5071429 C40.85,16.0971429 40.1289286,16.5282143 39.3510714,16.7807143 C38.5828571,17.0339286 37.6085714,17.1557143 36.4471429,17.1557143 L36.4471429,17.1557143 L34.2364286,17.1557143 L33.59,20.4625 C33.5521429,20.65 33.3932143,20.7903571 33.1964286,20.7903571 L33.1964286,20.7903571 L30.2171429,20.7903571 C30.0957143,20.7903571 29.9832143,20.7342857 29.9082143,20.6403571 C29.8335714,20.5471429 29.805,20.425 29.8239286,20.3035714 L29.8239286,20.3035714 L32.4753571,6.64535714 C32.5128571,6.45821429 32.6721429,6.3175 32.8689286,6.3175 L32.8689286,6.3175 Z M14.2267857,9.27714286 C15.4821429,9.27714286 15.9878571,9.54892857 16.1846429,9.77357143 C16.4660714,10.0832143 16.5317857,10.7014286 16.3628571,11.5725 C16.1757143,12.5278571 15.8289286,13.2021429 15.3228571,13.5957143 C14.8078571,13.9892857 13.9925,14.1857143 12.8875,14.1857143 L11.5664286,14.1857143 L12.5221429,9.27714286 L14.2267857,9.27714286 Z M37.4407143,9.27714286 L35.7357143,9.27714286 L34.7803571,14.1857143 L36.1010714,14.1857143 C37.2064286,14.1857143 38.0214286,13.9892857 38.5367857,13.5957143 C39.0425,13.2021429 39.3892857,12.5278571 39.5760714,11.5725 C39.7446429,10.7014286 39.6885714,10.0832143 39.3982143,9.77357143 C39.2017857,9.54892857 38.6960714,9.27714286 37.4407143,9.27714286 L37.4407143,9.27714286 Z" id="Shape" fill="#FFFFFF"></path>
        </g>
    </g>
</svg>