<svg width="100" height="100" xmlns="http://www.w3.org/2000/svg" x="0px" y="0px" viewBox="0 0 50 50">
<title>php</title>
<path d="M 25 12 C 18.507813 12 12.621094 13.359375 8.273438 15.628906 C 3.925781 17.898438 1 21.167969 1 25 C 1 28.832031 3.925781 32.101563 8.273438 34.371094 C 12.621094 36.640625 18.507813 38 25 38 C 31.492188 38 37.378906 36.640625 41.726563 34.371094 C 46.074219 32.101563 49 28.832031 49 25 C 49 21.167969 46.074219 17.898438 41.726563 15.628906 C 37.378906 13.359375 31.492188 12 25 12 Z M 25 14 C 31.210938 14 36.824219 15.324219 40.800781 17.402344 C 44.777344 19.476563 47 22.203125 47 25 C 47 27.796875 44.777344 30.523438 40.800781 32.597656 C 36.824219 34.675781 31.210938 36 25 36 C 18.789063 36 13.175781 34.675781 9.199219 32.597656 C 5.222656 30.523438 3 27.796875 3 25 C 3 22.203125 5.222656 19.476563 9.199219 17.402344 C 13.175781 15.324219 18.789063 14 25 14 Z M 22.507813 16 L 20 28 L 22.625 28 L 23.890625 22 L 25.988281 22 C 26.65625 22 27.101563 22.109375 27.308594 22.332031 C 27.511719 22.554688 27.554688 22.976563 27.4375 23.582031 L 26.480469 28 L 29.144531 28 L 30.183594 23.222656 C 30.40625 22.078125 30.238281 21.238281 29.683594 20.726563 C 29.117188 20.207031 28.121094 20 26.636719 20 L 24.296875 20 L 25.128906 16 Z M 11 20 L 8.972656 31 L 11.617188 31 L 12.144531 28 L 13.792969 28 C 17.238281 28 19.113281 27.203125 19.8125 24.246094 C 20.414063 21.703125 18.875 20 16.332031 20 Z M 32 20 L 29.972656 31 L 32.617188 31 L 33.144531 28 L 34.792969 28 C 38.238281 28 40.113281 27.203125 40.8125 24.246094 C 41.414063 21.703125 39.875 20 37.332031 20 Z M 13.273438 22 L 15.332031 22 C 17.042969 22 17.402344 22.769531 17.3125 23.625 C 17.082031 25.832031 15.707031 26 14.230469 26 L 12.515625 26 Z M 34.273438 22 L 36.332031 22 C 38.042969 22 38.402344 22.769531 38.3125 23.625 C 38.082031 25.832031 36.707031 26 35.230469 26 L 33.515625 26 Z"></path></svg>