<svg width="100" height="100" xmlns="http://www.w3.org/2000/svg" x="0px" y="0px" viewBox="0 0 50 50">
<title>planner</title><path d="M 12 0 C 10.90625 0 10 0.90625 10 2 L 10 4 L 4 4 C 3.476563 4 2.945313 4.191406 2.570313 4.570313 C 2.191406 4.945313 2 5.476563 2 6 L 2 46 C 2 46.523438 2.191406 47.054688 2.570313 47.433594 C 2.945313 47.808594 3.476563 48 4 48 L 46 48 C 46.523438 48 47.054688 47.808594 47.433594 47.433594 C 47.808594 47.054688 48 46.523438 48 46 L 48 6 C 48 5.476563 47.808594 4.945313 47.433594 4.570313 C 47.054688 4.191406 46.523438 4 46 4 L 40 4 L 40 2 C 40 0.90625 39.09375 0 38 0 L 36 0 C 34.90625 0 34 0.90625 34 2 L 34 4 L 16 4 L 16 2 C 16 0.90625 15.09375 0 14 0 Z M 12 2 L 14 2 L 14 8 L 12 8 Z M 36 2 L 38 2 L 38 8 L 36 8 Z M 4 6 L 10 6 L 10 8 C 10 9.09375 10.90625 10 12 10 L 14 10 C 15.09375 10 16 9.09375 16 8 L 16 6 L 34 6 L 34 8 C 34 9.09375 34.90625 10 36 10 L 38 10 C 39.09375 10 40 9.09375 40 8 L 40 6 L 46 6 L 46 13 L 4 13 Z M 4 15 L 46 15 L 46 46 L 4 46 Z M 30.1875 29 C 28.992188 29 28 29.992188 28 31.1875 L 28 38.8125 C 28 40.007813 28.992188 41 30.1875 41 L 37.8125 41 C 39.007813 41 40 40.007813 40 38.8125 L 40 31.1875 C 40 29.992188 39.007813 29 37.8125 29 Z M 30.1875 31 L 37.8125 31 C 37.929688 31 38 31.070313 38 31.1875 L 38 38.8125 C 38 38.925781 37.929688 39 37.8125 39 L 30.1875 39 C 30.074219 39 30 38.925781 30 38.8125 L 30 31.1875 C 30 31.070313 30.074219 31 30.1875 31 Z"/></svg>
