<svg width="100" height="100" xmlns="http://www.w3.org/2000/svg" x="0px" y="0px" viewBox="0 0 50 50">
<title>postgres-support</title>
<path d="M8,8 C5.8026661,8 4,9.8026661 4,12 L4,34 C4,34.730688 4.2136476,35.40837 4.5605469,36 L2,36 C1.44773812,36.0000552 1,36.4477381 1,37 C1,39.749516 3.2504839,42 6,42 L44,42 C46.749516,42 49,39.749516 49,37 C49,36.4477381 48.5522619,36.0000552 48,36 L45.439453,36 C45.786352,35.40837 46,34.730688 46,34 L46,12 C46,9.8026661 44.197334,8 42,8 L8,8 Z M8,10 L42,10 C43.116666,10 44,10.883334 44,12 L44,34 C44,35.116666 43.116666,36 42,36 L8,36 C6.8833339,36 6,35.116666 6,34 L6,12 C6,10.883334 6.8833339,10 8,10 Z M3.4121094,38 L8,38 L42,38 L46.587891,38 C46.150803,39.112465 45.275852,40 44,40 L6,40 C4.7241482,40 3.8491966,39.112465 3.4121094,38 Z" id="Shape" fill-rule="nonzero"></path><path d="M29.1033056,14 C28.8541684,14 28.7641193,14.0120066 28.6530576,14.0210117 C28.6470547,14.0210117 28.6440532,14.0210117 28.6380496,14.0210117 C26.4288345,14.0210117 25.5643591,14.7894344 25.5643591,14.7894344 C25.5703627,14.7954381 25.5793671,14.7984395 25.5853708,14.8044424 C25.4773114,14.7984395 25.3782571,14.7894344 25.2671954,14.7864329 C25.2581911,14.7864329 25.2491859,14.7864329 25.2401808,14.7864329 C24.5588058,14.7864329 23.8984426,14.8944923 23.2771015,15.0835965 C22.7157926,14.7864329 21.8333068,14.4262348 20.6656648,14.2131174 C20.1553846,14.0960528 19.567061,14.0150088 18.8976926,14.0150088 C18.8166479,14.0150088 18.7356031,14.0180103 18.6545591,14.0210117 C18.6515569,14.0210117 18.6515569,14.0210117 18.6485554,14.0210117 C18.6305459,14.0210117 18.6125356,14.0210117 18.5945261,14.0210117 C17.4298856,14.0630352 16.1061569,14.2461358 15.1366243,15.3057183 C14.2991635,16.2182202 13.9389654,17.5839715 14.0380197,19.4810149 C14.077041,20.1623898 14.3381848,22.3686027 14.8844856,24.4817649 C15.4277842,26.5889242 16.4123257,29.3894642 18.6485554,29.3894642 C19.7141417,29.3894642 21.31102,29.0892992 22.4846656,28.4169294 C22.4876671,28.4169294 22.4906686,28.4139279 22.4906686,28.4139279 C22.49367,28.7110915 22.49367,28.9031972 22.4906686,29.3774576 C22.4906686,29.4164789 22.4906686,29.4585024 22.49367,29.4975237 L22.5296898,29.9897944 C22.5627082,30.3890138 22.5957265,30.8062435 22.5957265,31.028366 C22.5957265,32.5832208 24.171593,34 25.900544,34 C27.5874721,34 29.4064722,32.7032868 29.4064722,29.8607232 L29.4064722,28.65406 C29.5205353,28.6510585 29.7006344,28.6510585 29.7006344,28.6510585 C30.2709476,28.6810746 31.0213607,28.4949727 31.4596014,28.2608435 C32.4051216,27.7505633 32.9214056,26.9581274 31.9878919,27.1802492 C31.5376447,27.2883086 31.2014598,27.3183255 30.9163028,27.321327 C31.5706623,26.8860878 32.2580409,26.1266696 32.8313556,24.8089454 C33.9749852,22.1794992 34.4522471,17.5779678 33.3716528,15.9570764 C32.2400306,14.2551409 30.2109146,14 29.1033056,14 Z M29.1033056,15.5368453 C29.8597217,15.5368453 31.351542,15.6899296 32.0959514,16.8065438 C32.8733791,17.9801894 32.3721033,23.4822153 30.6071325,25.5443497 C30.775225,25.2261743 30.8982925,24.7549153 30.9433174,24.0105059 C30.9433174,23.3711544 30.9072976,21.2309775 30.9433174,20.9368154 C30.9913438,20.537596 30.9583255,19.8232027 30.9433174,19.3999701 C30.955324,19.3429386 30.955324,19.2829055 30.955324,19.2138682 C30.955324,18.5024763 30.7001839,17.8781329 30.3670005,17.3438395 C30.3399858,17.2928116 30.3099689,17.2417829 30.2769513,17.1907551 C30.2469344,17.1457301 30.2199198,17.1007059 30.1899029,17.0586824 C29.9467693,16.6924814 29.6345976,16.3442899 29.2413812,16.029116 C28.9021948,15.7319531 28.6380496,15.557857 28.6380496,15.557857 C28.6380496,15.557857 28.8181486,15.5368453 29.1033056,15.5368453 Z M18.8976926,15.5518541 C19.9032459,15.5518541 20.6776714,15.7709744 21.3650493,16.0261145 C21.2780016,16.089149 21.1879525,16.1551857 21.1069077,16.2242239 C20.3895129,16.6594631 19.9602767,17.2778028 19.7171431,18.0012012 C19.5250375,18.4454455 19.4169781,18.9167045 19.4169781,19.3999701 C19.4169781,19.4570017 19.4259832,19.511031 19.4319861,19.5680626 C19.4229817,19.7661719 19.4169781,19.9672819 19.4169781,20.1683927 C19.4169781,20.1683927 19.4169781,20.1713942 19.4169781,20.1713942 C19.4169781,20.1773979 19.4169781,20.1803994 19.4169781,20.1834008 C19.4169781,20.252439 19.4409913,20.372505 19.4409913,20.537596 C19.4409913,21.3210267 19.4169781,23.0199615 19.4169781,24.0105059 C19.4169781,25.7004355 21.2239723,27.0871978 21.6952313,27.0871978 C21.7042364,27.0871978 21.7132408,27.0871978 21.7222459,27.0841964 C20.8247521,27.5974789 19.4800125,27.852619 18.6485554,27.852619 C16.6104343,27.852619 15.6409016,20.657662 15.5748649,19.3999701 C15.3977673,16.0471263 16.8385598,15.6208915 18.6485554,15.557857 C18.7326017,15.5548555 18.8166479,15.5518541 18.8976926,15.5518541 Z M25.2401808,16.3232782 C26.5879218,16.3442899 27.5214354,16.6744711 28.1577854,17.1307221 C28.4219307,17.3468409 28.7641193,17.6800244 29.0372689,18.097254 C29.2984128,18.5625093 29.4064722,19.0337691 29.4064722,19.3999701 C28.439941,19.4810149 27.6354985,19.5230376 27.2783019,20.0903502 C26.4648543,21.3870634 27.0741896,23.5782681 27.6445029,24.5628096 C27.7045359,24.6708691 28.3709028,25.2982139 28.6380496,25.5473511 C28.7341024,25.637401 28.2838551,25.7604685 28.1938052,25.8565214 C27.9356636,26.1236681 27.9386651,26.931112 27.884635,27.8406124 C27.8756306,27.8496175 27.8696269,27.852619 27.8696269,27.852619 C27.8696269,27.852619 27.8726284,27.9366652 27.8786321,28.0537298 C27.8756306,28.1407775 27.8696269,28.2188208 27.8696269,28.3118714 L27.8696269,29.8607232 C27.8696269,31.790785 26.7950363,32.4631547 25.900544,32.4631547 C24.9490208,32.4631547 24.1325718,31.685727 24.1325718,31.028366 C24.1325718,30.6411525 24.0695373,29.9807893 24.0275138,29.3894642 C24.036519,28.0237129 24.0275138,27.5284407 24.0275138,27.0841964 C24.0275138,26.6549601 23.2590912,26.3157737 23.2590912,26.3157737 C23.355144,26.0906497 23.6673157,25.6313973 23.6673157,25.6313973 C23.8984426,25.0490775 24.0215109,24.4967737 24.0275138,23.2420832 C24.0305153,22.6687677 23.9524727,22.0444244 23.7903832,21.3300318 C23.5682614,20.3544955 22.8298549,19.4089753 21.7222459,19.3999701 L20.9898431,19.3999701 C21.01986,19.0877984 21.0678864,18.8296568 21.1339224,18.6105358 C21.3320317,18.157287 21.6952313,17.7310522 22.1604873,17.3708541 C22.2685468,17.3078197 22.3706025,17.2447852 22.4576502,17.160739 C23.2290751,16.6594631 24.2076129,16.3232782 25.2401808,16.3232782 Z M29.4064722,20.9428191 L29.4094736,20.9428191 C29.3914641,21.2309775 29.3854604,21.7232483 29.4004693,23.1910554 C29.4034707,23.5332432 29.4064722,23.8304068 29.4064722,24.0105059 C29.4064722,24.0765426 29.4154773,24.1095602 29.4214802,24.1665917 C29.2263731,23.9834912 29.0072528,23.7763775 28.9112,23.6773224 C28.626043,23.1280209 28.4339373,22.3295814 28.4309358,21.6932314 C28.499974,21.705238 28.5720136,21.7082395 28.6470547,21.6962329 C29.0882976,21.6361998 29.4274839,21.1769474 29.4064722,21.0058535 C29.4034707,20.9818403 29.3794575,20.9668323 29.3644495,20.948822 C29.3794575,20.9458205 29.3914641,20.9428191 29.4064722,20.9428191 Z M20.9748351,21.0418733 C20.980838,21.2309775 21.2990133,21.645205 21.7222459,21.705238 C21.9293597,21.7352549 22.1094587,21.660213 22.2595416,21.5671624 C22.2685468,21.60018 22.2835548,21.6361998 22.2895578,21.6692182 C22.4276341,22.2665469 22.49367,22.7798294 22.4906686,23.2360803 C22.4876671,24.2116167 22.4036209,24.6078346 22.2895578,24.9230077 C22.1784969,25.0971039 22.0494257,25.3162242 21.9413663,25.5233379 C21.5901733,25.2772029 20.9538233,24.6168397 20.9538233,24.0105059 C20.9538233,23.488219 20.959827,22.7708243 20.9658299,22.095453 C20.9688314,21.6812248 20.9718336,21.3690531 20.9748351,21.0418733 Z" id="Shape" fill-rule="nonzero"></path></svg>