<svg width="100" height="100" xmlns="http://www.w3.org/2000/svg" x="0px" y="0px" viewBox="0 0 50 50">
<title>process-improvement</title>
<path d="M 25 4 C 17.362687 4 10.674203 8.0905894 7 14.197266 L 7 10 A 1.0001 1.0001 0 0 0 5.984375 8.9863281 A 1.0001 1.0001 0 0 0 5 10 L 5 18 L 13 18 A 1.0001 1.0001 0 1 0 13 16 L 8.2753906 16 C 11.48307 10.051325 17.756826 6 25 6 A 1.0001 1.0001 0 1 0 25 4 z M 32 5 L 32 6.5 A 1.0001 1.0001 0 0 0 32 6.8125 L 32.001953 13 A 1.0001 1.0001 0 1 0 34.001953 13 L 34 8.2695312 C 39.950631 11.476598 44 17.756361 44 25 A 1.0001 1.0001 0 1 0 46 25 C 46 17.363808 41.913394 10.674811 35.806641 7 L 40 7 A 1.0001 1.0001 0 1 0 40 5 L 32 5 z M 25 15 C 19.488997 15 15 19.488997 15 25 C 15 30.511003 19.488997 35 25 35 C 30.511003 35 35 30.511003 35 25 C 35 19.488997 30.511003 15 25 15 z M 25 17 C 29.430123 17 33 20.569877 33 25 C 33 29.430123 29.430123 33 25 33 C 20.569877 33 17 29.430123 17 25 C 17 20.569877 20.569877 17 25 17 z M 24.984375 19.035156 A 1.0001 1.0001 0 0 0 24 20.050781 L 24 24 L 20.050781 24 A 1.0001 1.0001 0 1 0 20.050781 26 L 24 26 L 24 29.949219 A 1.0001 1.0001 0 1 0 26 29.949219 L 26 26 L 29.949219 26 A 1.0001 1.0001 0 1 0 29.949219 24 L 26 24 L 26 20.050781 A 1.0001 1.0001 0 0 0 24.984375 19.035156 z M 4.984375 23.986328 A 1.0001 1.0001 0 0 0 4 25 C 4 32.637313 8.0905894 39.325797 14.197266 43 L 10 43 A 1.0001 1.0001 0 1 0 10 45 L 18 45 L 18 37 A 1.0001 1.0001 0 0 0 16.984375 35.986328 A 1.0001 1.0001 0 0 0 16 37 L 16 41.724609 C 10.051325 38.516931 6 32.243174 6 25 A 1.0001 1.0001 0 0 0 4.984375 23.986328 z M 43.337891 31.986328 A 1.0001 1.0001 0 0 0 43.185547 32 L 37 32.001953 A 1.0001 1.0001 0 1 0 37 34.001953 L 41.730469 34 C 38.523402 39.950631 32.243639 44 25 44 A 1.0001 1.0001 0 1 0 25 46 C 32.636192 46 39.325189 41.913394 43 35.806641 L 43 40 A 1.0001 1.0001 0 1 0 45 40 L 45 32 L 43.501953 32 A 1.0001 1.0001 0 0 0 43.337891 31.986328 z"></path></svg>