<svg width="50px" height="50px" viewBox="0 0 50 50" version="1.1" xmlns="http://www.w3.org/2000/svg" xmlns:xlink="http://www.w3.org/1999/xlink">
    <title>redhat</title>
    <path d="M25.4254545,7.37324673 C25.7903977,7.37324673 26.3479943,7.47630799 27.0222214,7.65231857 L27.5485721,7.79753401 C27.7305199,7.85018482 27.9185692,7.90692447 28.1115321,7.96728244 L28.7039743,8.15874089 C28.9055768,8.22586504 29.1109051,8.29613702 29.3187714,8.36908635 L29.9487964,8.59549582 L30.5869222,8.83514632 L31.2260215,9.08521485 C31.3322232,9.12760428 31.4381686,9.17031016 31.543709,9.2132737 L32.1709053,9.47367616 C32.2742323,9.51743503 32.3768574,9.56133393 32.4786323,9.60531403 L33.0778894,9.86969869 C33.2734486,9.95783808 33.4644186,10.0458318 33.6496116,10.1332094 L34.1866717,10.3930232 L34.4399761,10.5206615 C37.2135591,11.907453 38.0014245,12.7555045 38.5273342,14.7875391 L38.5791158,14.994753 L40.309069,22.5093666 C40.3816921,22.8445816 40.4127719,23.1874622 40.4021016,23.4998962 C40.4021016,23.7003936 40.3920526,23.8939445 40.3722651,24.0807042 L40.2907463,24.0444913 C44.9073393,26.0513009 47.8663555,29.5252458 47.9955875,32.9618469 L48,33.1960851 C48,38.7643712 43.3946181,42.6267533 33.9206329,42.6267533 C19.7196121,42.6267533 2,33.3448896 2,25.3987911 C2,22.9452534 3.30143089,21.2520869 5.57450372,20.2707039 C7.11369936,19.6061671 8.94170238,19.2911776 11.3712555,19.1455604 L11.8789053,19.1174914 C11.7911643,18.8736133 11.7455083,18.6429804 11.7456061,18.4289669 C11.735863,18.1823842 11.7638308,17.9357595 11.8387338,17.6628041 L12.2284624,16.5131349 L13.1214439,13.9615586 L14.0511031,11.3297538 C14.885384,9.00647467 16.0960601,7.81377181 17.9272539,7.81377181 C18.5674469,7.81377181 19.1079727,7.96775638 19.8354826,8.29984436 L20.7374347,8.73179795 C21.3492591,9.01517023 21.686538,9.11216152 22.0751453,9.11216152 C22.4212845,9.11216152 22.6537738,8.99530359 23.0885741,8.60551519 L23.3811035,8.33543181 C24.0944011,7.67650744 24.6191584,7.37324673 25.4254545,7.37324673 Z M10.6431527,21.0696165 L10.3382861,21.097401 L9.74964532,21.1607279 C5.82334024,21.6295001 3.86634247,22.8466127 3.86634247,25.3987911 C3.86634247,29.1542542 9.30787496,33.6194796 16.4517636,36.7651883 L17.2098779,37.0913543 C20.3935396,38.4293423 23.8794399,39.499802 27.3520991,40.1315201 L28.1851216,40.274621 C30.1274936,40.5884583 32.0577985,40.7604108 33.9206329,40.7604108 C42.4294142,40.7604108 46.1336575,37.6537839 46.1336575,33.1960851 C46.1336575,30.924663 44.3371219,28.4270762 41.2800092,26.6342792 L41.1914463,26.5837254 L41.2157537,26.7522926 C41.229456,26.8615422 41.2380846,26.9553975 41.242999,27.0416018 L41.2483735,27.2489965 C41.2483735,31.0203979 37.3466441,33.2296577 31.8693121,33.2296575 C29.3478569,33.2312752 26.8022745,32.87359 24.3916022,32.2547416 L23.7376105,32.0795633 C23.5208079,32.0190614 23.3052398,31.9564748 23.0910255,31.8918773 L22.4525641,31.6921258 C21.3956298,31.3493978 20.375531,30.9582406 19.4072037,30.5278709 L18.8325394,30.2650172 C18.4537309,30.0867428 18.0836837,29.9024892 17.7233539,29.7128465 L17.1902666,29.4244142 C13.2485637,27.2319639 10.597195,24.3947703 10.5971952,21.7527078 C10.5970044,21.5747158 10.6059327,21.397186 10.6238403,21.2207978 L10.6431527,21.0696165 Z M25.4254545,9.2395892 C25.2390187,9.2395892 25.0786621,9.3214861 24.7598963,9.60442807 L24.4829488,9.85942559 C23.6493386,10.6341563 23.0492554,10.978504 22.0751453,10.978504 C21.3038664,10.978504 20.7464668,10.8044151 19.7985615,10.3528089 L19.2757066,10.098772 C18.6510631,9.79804088 18.2861383,9.68011428 17.9272539,9.68011428 C17.071123,9.68011428 16.459516,10.2459711 15.8867705,11.7465239 L15.2659655,13.4919711 L14.0277398,17.0204769 L13.6295735,18.1870288 C13.6146861,18.2418146 13.6082519,18.2985525 13.611221,18.3921238 C13.611221,18.8499492 14.5125544,19.9058317 15.9606929,21.0607536 L16.3689306,21.3778129 L16.5827178,21.5374813 L16.5827178,21.5374813 L17.0286304,21.8576893 L17.4976617,22.1771846 C17.8977102,22.4425089 18.3201759,22.7047475 18.7608972,22.9580422 C22.562782,25.1430911 27.1172313,26.5058288 31.8457604,26.6003802 L32.3718395,26.6056443 L32.3711118,26.61452 L32.654372,26.613094 C36.1984874,26.5668258 38.4197776,25.6388465 38.5318058,23.6303355 L38.5362536,23.4695204 C38.5403728,23.3430429 38.5341014,23.216548 38.518334,23.0947934 L38.4876726,22.9163114 L36.7626541,15.4232392 L36.6818844,15.1068619 C36.3680511,13.9537399 35.9760656,13.4583865 34.4824327,12.6447107 L34.0671263,12.4245847 L33.5978018,12.1861661 C33.4521805,12.1117041 33.2992616,12.0358066 33.1401811,11.9589 L32.6455909,11.72558 L32.1208475,11.4887652 C32.0312561,11.4491471 31.9406924,11.4094899 31.8492984,11.3698471 L31.2921055,11.1325889 L30.7218001,10.8982341 L30.1451983,10.6693419 L29.2834006,10.3418443 L28.7208791,10.1378054 L28.1759182,9.94818644 L27.6553342,9.7755467 L27.1659433,9.62244541 C27.0087692,9.57495241 26.85793,9.53114237 26.7145617,9.49144181 L26.3080058,9.38509516 C25.9261348,9.29193005 25.6217266,9.2395892 25.4254545,9.2395892 Z"></path>
</svg>