<svg width="50px" height="50px" viewBox="0 0 50 50" version="1.1" xmlns="http://www.w3.org/2000/svg" xmlns:xlink="http://www.w3.org/1999/xlink"><g id="Artboard" stroke="none" stroke-width="1" fill="none" fill-rule="evenodd"><g id="redhat" transform="translate(0.000000, 6.730769)" fill-rule="nonzero"><path d="M32.8177798,20.6196581 C35.9260087,20.6196581 40.4231266,19.9786325 40.4231266,16.2815544 C40.4324194,15.996223 40.4065507,15.7108327 40.3461042,15.4318227 L38.4950805,7.39167164 C38.0677301,5.62263963 37.6925562,4.82011529 34.5868118,3.26724309 C32.1767541,2.03488372 26.9268038,0 25.3739316,0 C23.927897,0 23.5080004,1.86344663 21.7836911,1.86344663 C20.1239813,1.86344663 18.8916219,0.472073146 17.3387498,0.472073146 C15.8479924,0.472073146 14.8765156,1.48827271 14.1261678,3.57781753 C14.1261678,3.57781753 12.0366229,9.47127808 11.7682866,10.3259789 C11.7256369,10.4829304 11.7072041,10.6454743 11.7136255,10.8079905 C11.7136255,13.0987875 20.7327072,20.6097197 32.8177798,20.6097197 M40.900169,17.78225 C41.330004,19.8171338 41.330004,20.030809 41.330004,20.2991453 C41.330004,23.777579 37.4192506,25.7081097 32.2786225,25.7081097 C20.6606539,25.7155635 10.4837507,18.9077718 10.4837507,14.4081694 C10.4830791,13.7818444 10.6107635,13.1620256 10.8589247,12.5869608 C6.67983502,12.7956669 1.2708706,13.5410455 1.2708706,18.3164381 C1.2708706,26.1379447 19.8034685,35.7781753 34.4774896,35.7781753 C45.727738,35.7781753 48.5651461,30.6897237 48.5651461,26.6721328 C48.5651461,23.5117273 45.832091,19.9239714 40.9051381,17.78225" id="Shape" fill="#EE0000"></path><path d="M40.900169,17.78225 C41.330004,19.8171338 41.330004,20.030809 41.330004,20.2991453 C41.330004,23.777579 37.4192506,25.7081158 32.2786225,25.7081158 C20.6606539,25.7155635 10.4837481,18.9077718 10.4837481,14.4081694 C10.4830791,13.7818444 10.6107635,13.1620256 10.8589247,12.5869608 L11.7682866,10.3359173 C11.7266331,10.4896699 11.708209,10.6487876 11.7136255,10.8079905 C11.7136255,13.0987875 20.7327072,20.6097197 32.8177798,20.6097197 C35.9260087,20.6097197 40.4231266,19.9686941 40.4231266,16.271616 C40.4324194,15.9862846 40.4065507,15.7008943 40.3461042,15.4218843 L40.900169,17.78225 L40.900169,17.78225 Z" id="Path" fill="#000000"></path></g></g></svg>