<svg xmlns="http://www.w3.org/2000/svg" x="0px" y="0px" width="100" height="100" viewBox="0 0 50 50"> 
<title>security-config</title>
<path d="M 25 0.09765625 C 22.547958 0.09765625 20.476261 1.4626493 17.404297 3.0429688 C 14.332333 4.6232881 10.218879 6.5308264 3.7851562 7.9433594 L 3 8.1152344 L 3 8.9199219 C 3 24.240387 8.3569062 34.470001 13.736328 40.818359 C 19.11575 47.166718 24.580078 49.699219 24.580078 49.699219 L 25.021484 49.902344 L 25.453125 49.681641 C 25.453125 49.681641 47 38.576752 47 8.9199219 L 47 8.1152344 L 46.214844 7.9433594 C 39.781121 6.5308264 35.667667 4.6232881 32.595703 3.0429688 C 29.523739 1.4626492 27.452042 0.09765625 25 0.09765625 z M 25 2.0976562 C 26.645958 2.0976562 28.543854 3.208085 31.681641 4.8222656 C 34.659993 6.3544283 38.861465 8.2123285 44.935547 9.6445312 C 44.581274 36.77605 26.277963 46.936655 24.984375 47.619141 C 24.359733 47.315673 20.031171 45.151607 15.263672 39.525391 C 10.23404 33.589826 5.2403214 24.057953 5.0625 9.6445312 C 11.137725 8.2122689 15.33967 6.3546016 18.318359 4.8222656 C 21.456146 3.208085 23.354042 2.0976562 25 2.0976562 z M 23 12 L 22.400391 15.199219 C 22.100391 15.299219 21.700391 15.399609 21.400391 15.599609 L 18.699219 13.699219 L 15.699219 16.699219 L 17.5 19.199219 C 17.4 19.599219 17.199609 19.900781 17.099609 20.300781 L 14 20.800781 L 14 25 L 17.099609 25.5 C 17.199609 25.8 17.3 26.2 17.5 26.5 L 15.699219 29.199219 L 18.699219 32.199219 L 21.400391 30.400391 C 21.800391 30.600391 22.1 30.700781 22.5 30.800781 L 23 34 L 27.099609 34 L 27.699219 30.900391 C 27.999219 30.800391 28.299219 30.7 28.699219 30.5 L 31.400391 32.300781 L 34.400391 29.300781 L 32.5 26.699219 C 32.7 26.299219 32.800391 25.899609 32.900391 25.599609 L 36 25 L 36 20.800781 L 32.800781 20.300781 C 32.700781 20.000781 32.600391 19.600781 32.400391 19.300781 L 34.199219 16.599609 L 31.300781 13.699219 L 28.699219 15.599609 C 28.399219 15.399609 27.999219 15.299219 27.699219 15.199219 L 27.199219 12 L 23 12 z M 24.699219 14 L 25.5 14 L 25.900391 16.699219 L 26.5 16.900391 C 27.1 17.100391 27.699219 17.299609 28.199219 17.599609 L 28.800781 18 L 31.099609 16.300781 L 31.599609 16.800781 L 30 19.099609 L 30.300781 19.599609 C 30.600781 20.199609 30.8 20.800391 31 21.400391 L 31.199219 22 L 34 22.400391 L 34 23.199219 L 31.300781 23.800781 L 31.099609 24.400391 C 30.899609 25.000391 30.700391 25.599609 30.400391 26.099609 L 30 26.699219 L 31.699219 29 L 31.099609 29.599609 L 28.800781 28 L 28.300781 28.300781 C 27.700781 28.600781 27.1 28.8 26.5 29 L 25.900391 29.199219 L 25.400391 32 L 24.599609 32 L 24.199219 29.300781 L 23.599609 29.099609 C 22.999609 28.899609 22.400391 28.700391 21.900391 28.400391 L 21.300781 28 L 18.900391 29.599609 L 18.300781 29 L 19.900391 26.699219 L 19.599609 26.199219 C 19.299609 25.599219 19.100391 24.900391 18.900391 24.400391 L 18.699219 23.800781 L 16 23.300781 L 16 22.5 L 18.800781 22 L 18.900391 21.300781 C 19.000391 20.800781 19.2 20.199219 19.5 19.699219 L 19.900391 19.199219 L 18.300781 16.900391 L 18.900391 16.300781 L 21.199219 17.900391 L 21.699219 17.699219 C 22.399219 17.399219 22.999609 17.100391 23.599609 16.900391 L 24.199219 16.800781 L 24.699219 14 z M 25 18.900391 C 22.8 18.900391 21 20.700391 21 22.900391 C 21 25.100391 22.8 26.900391 25 26.900391 C 27.2 26.900391 29 25.200391 29 22.900391 C 29 20.700391 27.2 18.900391 25 18.900391 z M 25 21 C 26.1 21 27 21.8 27 23 C 27 24.1 26.1 25 25 25 C 23.9 25 23 24.1 23 23 C 23 21.9 23.9 21 25 21 z"/></svg>