<svg width="100" height="100" xmlns="http://www.w3.org/2000/svg" x="0px" y="0px" viewBox="0 0 50 50">
<title>speed</title>
<path d="M 24.984375 6.984375 C 24.921875 6.988281 24.863281 6.992188 24.800781 7.007813 C 20.605469 7.042969 16.675781 8.203125 13.296875 10.203125 C 13.214844 10.238281 13.136719 10.285156 13.0625 10.339844 C 9.628906 12.429688 6.789063 15.402344 4.84375 18.933594 C 4.792969 19.003906 4.75 19.078125 4.71875 19.160156 C 3.015625 22.335938 2.039063 25.957031 2.007813 29.796875 C 1.980469 29.929688 1.980469 30.0625 2.007813 30.191406 C 2.039063 34.417969 3.09375 38.128906 5.144531 41.53125 C 5.382813 41.925781 5.863281 42.105469 6.304688 41.964844 C 6.746094 41.824219 7.035156 41.398438 7 40.9375 L 7.046875 41.550781 L 10.800781 39.375 C 11.121094 39.203125 11.320313 38.871094 11.320313 38.507813 C 11.324219 38.144531 11.128906 37.808594 10.8125 37.628906 C 10.496094 37.449219 10.109375 37.457031 9.796875 37.644531 L 6.460938 39.578125 C 5.039063 36.945313 4.179688 34.183594 4.03125 31 L 8 31 C 8.359375 31.003906 8.695313 30.816406 8.878906 30.503906 C 9.058594 30.191406 9.058594 29.808594 8.878906 29.496094 C 8.695313 29.183594 8.359375 28.996094 8 29 L 4.03125 29 C 4.167969 26.101563 4.902344 23.367188 6.09375 20.894531 C 6.65625 21.199219 7.554688 21.683594 9.574219 22.78125 C 9.890625 22.960938 10.277344 22.957031 10.589844 22.769531 C 10.898438 22.582031 11.085938 22.238281 11.070313 21.878906 C 11.058594 21.515625 10.851563 21.1875 10.527344 21.019531 C 8.507813 19.925781 7.613281 19.441406 7.046875 19.136719 C 8.648438 16.5 10.789063 14.234375 13.347656 12.527344 L 15.40625 15.953125 C 15.585938 16.261719 15.921875 16.453125 16.28125 16.449219 C 16.644531 16.441406 16.972656 16.246094 17.148438 15.929688 C 17.320313 15.613281 17.308594 15.226563 17.121094 14.921875 L 15.0625 11.496094 C 17.746094 10.054688 20.777344 9.183594 24 9.03125 L 24 13 C 23.996094 13.359375 24.183594 13.695313 24.496094 13.878906 C 24.808594 14.058594 25.191406 14.058594 25.503906 13.878906 C 25.816406 13.695313 26.003906 13.359375 26 13 L 26 9.03125 C 28.898438 9.167969 31.640625 9.886719 34.113281 11.078125 L 32.21875 14.574219 C 32.039063 14.890625 32.042969 15.277344 32.230469 15.589844 C 32.417969 15.898438 32.761719 16.085938 33.121094 16.070313 C 33.484375 16.058594 33.8125 15.851563 33.980469 15.527344 L 35.871094 12.035156 C 38.507813 13.632813 40.765625 15.789063 42.472656 18.347656 L 39.046875 20.40625 C 38.738281 20.585938 38.546875 20.921875 38.550781 21.28125 C 38.558594 21.644531 38.753906 21.972656 39.070313 22.148438 C 39.386719 22.320313 39.773438 22.308594 40.078125 22.121094 L 43.503906 20.0625 C 44.945313 22.746094 45.816406 25.777344 45.96875 29 L 42 29 C 41.640625 28.996094 41.304688 29.183594 41.121094 29.496094 C 40.941406 29.808594 40.941406 30.191406 41.121094 30.503906 C 41.304688 30.816406 41.640625 31.003906 42 31 L 45.96875 31 C 45.820313 34.183594 44.960938 36.945313 43.542969 39.578125 L 40.203125 37.644531 C 39.890625 37.457031 39.503906 37.449219 39.1875 37.628906 C 38.871094 37.808594 38.675781 38.144531 38.679688 38.507813 C 38.679688 38.871094 38.878906 39.203125 39.199219 39.375 L 42.953125 41.550781 L 43 40.9375 C 42.964844 41.398438 43.253906 41.824219 43.695313 41.964844 C 44.136719 42.105469 44.617188 41.925781 44.855469 41.53125 C 46.90625 38.132813 47.960938 34.421875 47.996094 30.203125 C 48.019531 30.070313 48.019531 29.933594 47.996094 29.804688 C 47.957031 25.601563 46.792969 21.664063 44.785156 18.285156 C 44.757813 18.210938 44.71875 18.144531 44.671875 18.078125 C 44.667969 18.078125 44.667969 18.078125 44.667969 18.078125 C 44.667969 18.074219 44.664063 18.074219 44.660156 18.070313 C 42.574219 14.640625 39.609375 11.804688 36.085938 9.859375 C 36 9.792969 35.90625 9.746094 35.808594 9.710938 C 32.636719 8.015625 29.027344 7.039063 25.191406 7.007813 C 25.125 6.992188 25.054688 6.984375 24.984375 6.984375 Z M 36.558594 22.179688 C 36.367188 22.175781 36.179688 22.226563 36.015625 22.328125 L 26.90625 27.710938 C 26.386719 27.273438 25.726563 27 25 27 C 23.355469 27 22 28.355469 22 30 C 22 31.644531 23.355469 33 25 33 C 26.644531 33 28 31.644531 28 30 C 28 29.804688 27.976563 29.609375 27.941406 29.421875 L 37.03125 24.046875 C 37.421875 23.824219 37.613281 23.367188 37.503906 22.933594 C 37.394531 22.5 37.007813 22.191406 36.558594 22.179688 Z M 25 29 C 25.316406 29 25.582031 29.144531 25.761719 29.363281 C 25.800781 29.46875 25.859375 29.5625 25.933594 29.648438 C 25.972656 29.757813 26 29.875 26 30 C 26 30.5625 25.5625 31 25 31 C 24.4375 31 24 30.5625 24 30 C 24 29.4375 24.4375 29 25 29 Z M 19 38 C 18.640625 37.996094 18.304688 38.183594 18.121094 38.496094 C 17.941406 38.808594 17.941406 39.191406 18.121094 39.503906 C 18.304688 39.816406 18.640625 40.003906 19 40 L 31 40 C 31.359375 40.003906 31.695313 39.816406 31.878906 39.503906 C 32.058594 39.191406 32.058594 38.808594 31.878906 38.496094 C 31.695313 38.183594 31.359375 37.996094 31 38 Z"/></svg>