<svg fill="#000000" xmlns="http://www.w3.org/2000/svg" viewBox="0 0 50 50" width="50px" height="50px"><path d="M 6.667969 4 C 5.207031 4 4 5.207031 4 6.667969 L 4 43.332031 C 4 44.792969 5.207031 46 6.667969 46 L 43.332031 46 C 44.792969 46 46 44.796875 46 43.332031 L 46 6.667969 C 46 5.207031 44.796875 4 43.332031 4 Z M 6.667969 6 L 43.332031 6 C 43.703125 6 44 6.296875 44 6.667969 L 44 43.332031 C 44 43.703125 43.703125 44 43.332031 44 L 6.667969 44 C 6.296875 44 6 43.703125 6 43.332031 L 6 6.667969 C 6 6.296875 6.296875 6 6.667969 6 Z M 25.21875 19.769531 C 22.96875 19.769531 21.875 22.199219 21.875 24.914063 C 21.875 28.214844 23.070313 30.121094 25.035156 30.121094 C 25.125 30.121094 25.292969 30.210938 25.515625 30.328125 C 26.265625 30.78125 27.242188 31.289063 28.109375 31.652344 L 28.800781 30.164063 C 28.171875 29.925781 27.46875 29.699219 26.824219 29.414063 L 26.824219 29.339844 C 27.769531 28.828125 28.339844 27.269531 28.339844 24.765625 C 28.339844 22.457031 27.664063 19.769531 25.21875 19.769531 Z M 19.261719 19.800781 C 17.148438 19.800781 16.066406 21.152344 16.066406 22.769531 C 16.066406 23.6875 16.59375 24.75 17.972656 25.59375 C 18.828125 26.144531 19.277344 26.507813 19.277344 27.238281 C 19.277344 27.902344 18.828125 28.378906 17.894531 28.378906 C 17.328125 28.378906 16.636719 28.214844 16.234375 27.988281 L 15.949219 29.6875 C 16.277344 29.878906 17.070313 30.089844 17.882813 30.089844 C 19.863281 30.089844 21.230469 28.875 21.230469 27.03125 C 21.230469 25.964844 20.734375 24.945313 19.398438 24.136719 C 18.304688 23.476563 18.003906 23.160156 18.003906 22.5625 C 18.003906 22.019531 18.40625 21.511719 19.246094 21.511719 C 19.816406 21.511719 20.253906 21.675781 20.535156 21.855469 L 20.851563 20.160156 C 20.550781 19.980469 19.921875 19.800781 19.261719 19.800781 Z M 29.582031 19.890625 L 29.582031 30 L 34.140625 30 L 34.140625 28.335938 L 31.546875 28.335938 L 31.546875 19.890625 Z M 25.128906 21.480469 C 26 21.480469 26.28125 22.964844 26.28125 24.855469 C 26.28125 26.957031 25.953125 28.410156 25.128906 28.410156 C 24.257813 28.410156 23.894531 26.957031 23.910156 24.902344 C 23.910156 22.996094 24.316406 21.480469 25.128906 21.480469 Z"/></svg>