<svg width="100" height="100" xmlns="http://www.w3.org/2000/svg" x="0px" y="0px" viewBox="0 0 50 50">
<title>replication-of-a-subset-of-data</title><path d="M 6 2 A 1.0001 1.0001 0 0 0 5 3 L 5 13 A 1.0001 1.0001 0 0 0 6 14 L 13 14 L 13 24.832031 A 1.0001 1.0001 0 0 0 13 25.158203 L 13 42 A 1.0001 1.0001 0 0 0 14 43 L 27 43 L 27 47 A 1.0001 1.0001 0 0 0 28 48 L 44 48 A 1.0001 1.0001 0 0 0 45 47 L 45 37 A 1.0001 1.0001 0 0 0 44 36 L 28 36 A 1.0001 1.0001 0 0 0 27 37 L 27 41 L 15 41 L 15 26 L 27 26 L 27 30 C 27 30.552 27.447 31 28 31 L 44 31 C 44.553 31 45 30.552 45 30 L 45 20 C 45 19.448 44.553 19 44 19 L 28 19 C 27.447 19 27 19.448 27 20 L 27 24 L 15 24 L 15 14 L 22 14 A 1.0001 1.0001 0 0 0 23 13 L 23 3 A 1.0001 1.0001 0 0 0 22 2 L 6 2 z M 7 4 L 21 4 L 21 12 L 14.154297 12 A 1.0001 1.0001 0 0 0 13.984375 11.986328 A 1.0001 1.0001 0 0 0 13.839844 12 L 7 12 L 7 4 z M 29 38 L 43 38 L 43 46 L 29 46 L 29 42.167969 A 1.0001 1.0001 0 0 0 29 41.841797 L 29 38 z"/></svg>
