<svg width="100" height="100" xmlns="http://www.w3.org/2000/svg" x="0px" y="0px" viewBox="0 0 50 50">
<title>ten-years</title>
<path d="M 12 0 C 10.90625 0 10 0.90625 10 2 L 10 4 L 4 4 C 3.59375 4 3.148438 4.0625 2.722656 4.359375 C 2.296875 4.65625 2 5.246094 2 5.792969 L 2 46.042969 C 2 46.542969 2.171875 47.054688 2.53125 47.425781 C 2.886719 47.800781 3.410156 48 3.917969 48 L 46.082031 48 C 46.589844 48 47.113281 47.800781 47.46875 47.425781 C 47.828125 47.054688 48 46.542969 48 46.042969 L 48 5.792969 C 48 5.246094 47.703125 4.65625 47.277344 4.359375 C 46.851563 4.0625 46.40625 4 46 4 L 40 4 L 40 2 C 40 0.90625 39.09375 0 38 0 L 36 0 C 34.90625 0 34 0.90625 34 2 L 34 4 L 16 4 L 16 2 C 16 0.90625 15.09375 0 14 0 Z M 12 2 L 14 2 L 14 8 L 12 8 Z M 36 2 L 38 2 L 38 8 L 36 8 Z M 4 6 L 10 6 L 10 8 C 10 9.09375 10.90625 10 12 10 L 14 10 C 15.09375 10 16 9.09375 16 8 L 16 6 L 34 6 L 34 8 C 34 9.09375 34.90625 10 36 10 L 38 10 C 39.09375 10 40 9.09375 40 8 L 40 6 L 46 6 L 46 13 L 4 13 Z M 4 15 L 46 15 L 46 46 L 4 46 Z M 29.011719 23.171875 C 28.113281 23.171875 27.375 23.382813 26.808594 23.796875 C 26.238281 24.207031 25.792969 24.738281 25.472656 25.378906 C 25.15625 26.019531 24.941406 26.726563 24.828125 27.496094 C 24.710938 28.261719 24.65625 29.007813 24.65625 29.726563 C 24.65625 30.445313 24.710938 31.1875 24.828125 31.957031 C 24.941406 32.726563 25.15625 33.429688 25.472656 34.074219 C 25.792969 34.714844 26.238281 35.242188 26.808594 35.65625 C 27.375 36.070313 28.113281 36.277344 29.011719 36.277344 C 29.910156 36.277344 30.648438 36.070313 31.21875 35.65625 C 31.785156 35.242188 32.230469 34.714844 32.546875 34.074219 C 32.867188 33.429688 33.082031 32.726563 33.199219 31.957031 C 33.3125 31.1875 33.367188 30.445313 33.367188 29.726563 C 33.367188 29.007813 33.3125 28.261719 33.199219 27.496094 C 33.082031 26.726563 32.867188 26.019531 32.546875 25.378906 C 32.230469 24.738281 31.785156 24.207031 31.21875 23.796875 C 30.648438 23.382813 29.910156 23.171875 29.011719 23.171875 Z M 18.625 23.425781 C 18.554688 23.808594 18.402344 24.132813 18.167969 24.398438 C 17.933594 24.664063 17.648438 24.878906 17.320313 25.046875 C 16.992188 25.214844 16.621094 25.335938 16.214844 25.40625 C 15.808594 25.476563 15.386719 25.515625 14.953125 25.515625 L 14.953125 27.136719 L 18.050781 27.136719 L 18.050781 36.027344 L 20.300781 36.027344 L 20.300781 23.425781 Z M 29.011719 24.886719 C 29.457031 24.886719 29.828125 25.011719 30.128906 25.269531 C 30.429688 25.53125 30.664063 25.878906 30.839844 26.324219 C 31.015625 26.769531 31.136719 27.28125 31.207031 27.863281 C 31.277344 28.445313 31.316406 29.066406 31.316406 29.726563 C 31.316406 30.386719 31.277344 31.011719 31.207031 31.597656 C 31.136719 32.1875 31.015625 32.699219 30.839844 33.136719 C 30.664063 33.574219 30.429688 33.921875 30.128906 34.183594 C 29.828125 34.441406 29.457031 34.566406 29.011719 34.566406 C 28.554688 34.566406 28.179688 34.441406 27.886719 34.183594 C 27.59375 33.921875 27.359375 33.574219 27.1875 33.136719 C 27.011719 32.699219 26.886719 32.1875 26.816406 31.597656 C 26.746094 31.007813 26.707031 30.386719 26.707031 29.726563 C 26.707031 29.066406 26.746094 28.445313 26.816406 27.863281 C 26.886719 27.28125 27.011719 26.769531 27.1875 26.324219 C 27.359375 25.878906 27.59375 25.53125 27.886719 25.269531 C 28.179688 25.011719 28.554688 24.886719 29.011719 24.886719 Z"></path></svg>