<svg width="100" height="100" xmlns="http://www.w3.org/2000/svg" x="0px" y="0px" viewBox="0 0 50 50">
<title>ticket</title>
<path d="M 33.65625 4 C 33.148438 4 32.660156 4.183594 32.28125 4.5625 L 29.65625 7.1875 L 28.0625 5.5625 C 27.683594 5.183594 27.164063 5 26.65625 5 C 26.148438 5 25.660156 5.183594 25.28125 5.5625 L 1.5625 29.28125 C 0.800781 30.042969 0.800781 31.300781 1.5625 32.0625 L 5.78125 36.25 C 6.105469 36.574219 6.605469 36.640625 7 36.40625 C 7.734375 35.964844 8.675781 36.050781 9.3125 36.6875 C 9.949219 37.324219 10.035156 38.265625 9.59375 39 C 9.359375 39.394531 9.425781 39.894531 9.75 40.21875 L 13.9375 44.4375 C 14.699219 45.199219 15.957031 45.199219 16.71875 44.4375 L 19.3125 41.8125 L 20.9375 43.4375 C 21.699219 44.199219 22.957031 44.199219 23.71875 43.4375 L 47.4375 19.71875 C 48.199219 18.957031 48.199219 17.699219 47.4375 16.9375 L 43.21875 12.75 C 42.894531 12.425781 42.394531 12.359375 42 12.59375 C 41.265625 13.035156 40.324219 12.949219 39.6875 12.3125 C 39.050781 11.675781 38.964844 10.734375 39.40625 10 C 39.640625 9.605469 39.574219 9.105469 39.25 8.78125 L 35.0625 4.5625 C 34.683594 4.183594 34.164063 4 33.65625 4 Z M 33.65625 6 L 33.6875 6 L 37.5 9.84375 C 37.078125 11.1875 37.21875 12.65625 38.28125 13.71875 C 39.34375 14.78125 40.8125 14.921875 42.15625 14.5 L 46 18.3125 L 46 18.34375 L 22.34375 42 L 22.3125 42 L 20.75 40.40625 L 37.5 23.65625 L 37.8125 23.96875 C 38.199219 24.367188 38.835938 24.371094 39.234375 23.984375 C 39.632813 23.597656 39.636719 22.960938 39.25 22.5625 L 38.9375 22.25 L 40.4375 20.71875 C 41.195313 19.957031 41.199219 18.699219 40.4375 17.9375 L 36.21875 13.75 C 35.894531 13.425781 35.394531 13.359375 35 13.59375 C 34.265625 14.035156 33.324219 13.949219 32.6875 13.3125 C 32.050781 12.675781 31.964844 11.734375 32.40625 11 C 32.640625 10.605469 32.574219 10.105469 32.25 9.78125 L 31.09375 8.59375 Z M 26.65625 7 L 26.6875 7 L 28.65625 8.96875 C 28.753906 9.300781 29.011719 9.558594 29.34375 9.65625 L 30.5 10.84375 C 30.078125 12.1875 30.21875 13.65625 31.28125 14.71875 C 32.34375 15.78125 33.8125 15.921875 35.15625 15.5 L 39 19.34375 L 36.96875 21.40625 C 36.945313 21.425781 36.925781 21.445313 36.90625 21.46875 L 36.8125 21.53125 C 36.765625 21.578125 36.722656 21.632813 36.6875 21.6875 L 18.9375 39.375 C 18.617188 39.480469 18.371094 39.738281 18.28125 40.0625 L 15.34375 43 L 11.5 39.15625 C 11.921875 37.8125 11.78125 36.34375 10.71875 35.28125 C 9.65625 34.21875 8.1875 34.078125 6.84375 34.5 L 3 30.6875 L 3 30.65625 L 21.625 12.03125 L 22.46875 12.34375 L 23.21875 11.8125 L 23.25 10.90625 L 23.03125 10.625 Z M 24.3125 12.46875 L 23.59375 12.96875 L 23.5625 13.875 L 23.75 14.15625 L 24.46875 14.875 L 25.3125 15.15625 L 26.03125 14.65625 L 26.0625 13.75 L 25.875 13.46875 L 25.15625 12.75 Z M 27.15625 15.3125 L 26.40625 15.8125 L 26.375 16.71875 L 26.59375 17 L 27.28125 17.6875 L 28.125 18 L 28.875 17.46875 L 28.90625 16.5625 L 28.6875 16.28125 L 28 15.59375 Z M 29.96875 18.125 L 29.25 18.625 L 29.21875 19.53125 L 29.40625 19.8125 L 30.125 20.53125 L 30.96875 20.8125 L 31.6875 20.3125 L 31.71875 19.40625 L 31.53125 19.125 L 30.8125 18.40625 Z M 32.8125 20.96875 L 32.0625 21.46875 L 32.03125 22.375 L 32.25 22.65625 L 32.9375 23.375 L 33.78125 23.65625 L 34.53125 23.125 L 34.5625 22.25 L 34.375 21.9375 L 33.65625 21.25 Z"></path></svg>