<svg width="100" height="100" xmlns="http://www.w3.org/2000/svg" x="0px" y="0px" viewBox="0 0 50 50">
<title>venn</title>
<path d="M 15 4 C 7.28125 4 1 10.28125 1 18 C 1 24.363281 5.269531 29.738281 11.09375 31.433594 C 11.035156 31.949219 11 32.46875 11 33 C 11 40.71875 17.28125 47 25 47 C 32.71875 47 39 40.71875 39 33 C 39 32.46875 38.964844 31.949219 38.90625 31.433594 C 44.730469 29.738281 49 24.363281 49 18 C 49 10.28125 42.71875 4 35 4 C 31.082031 4 27.542969 5.621094 25 8.21875 C 22.457031 5.621094 18.917969 4 15 4 Z M 15 6 C 18.4375 6 21.527344 7.445313 23.710938 9.753906 C 22.015625 12.070313 21 14.914063 21 18 C 21 18.53125 21.035156 19.050781 21.09375 19.566406 C 16.386719 20.9375 12.710938 24.710938 11.46875 29.46875 C 6.558594 27.964844 3 23.410156 3 18 C 3 11.359375 8.359375 6 15 6 Z M 35 6 C 41.640625 6 47 11.359375 47 18 C 47 23.410156 43.441406 27.964844 38.53125 29.46875 C 37.289063 24.710938 33.613281 20.9375 28.90625 19.566406 C 28.964844 19.050781 29 18.53125 29 18 C 29 14.914063 27.984375 12.070313 26.289063 9.753906 C 28.472656 7.445313 31.5625 6 35 6 Z M 25 11.363281 C 26.261719 13.261719 27 15.542969 27 18 C 27 18.386719 26.976563 18.769531 26.941406 19.152344 C 26.304688 19.0625 25.660156 19 25 19 C 24.339844 19 23.695313 19.0625 23.058594 19.152344 C 23.023438 18.769531 23 18.386719 23 18 C 23 15.542969 23.738281 13.261719 25 11.363281 Z M 25 21 C 25.535156 21 26.058594 21.046875 26.578125 21.113281 C 26.238281 22.382813 25.707031 23.570313 25 24.636719 C 24.292969 23.570313 23.761719 22.382813 23.421875 21.113281 C 23.941406 21.046875 24.464844 21 25 21 Z M 21.46875 21.53125 C 21.917969 23.253906 22.6875 24.847656 23.710938 26.246094 C 21.527344 28.554688 18.4375 30 15 30 C 14.464844 30 13.941406 29.953125 13.421875 29.886719 C 14.488281 25.898438 17.539063 22.734375 21.46875 21.53125 Z M 28.53125 21.53125 C 32.460938 22.734375 35.511719 25.898438 36.578125 29.886719 C 36.058594 29.953125 35.535156 30 35 30 C 31.5625 30 28.472656 28.554688 26.289063 26.246094 C 27.3125 24.847656 28.082031 23.253906 28.53125 21.53125 Z M 25 27.78125 C 27.542969 30.378906 31.082031 32 35 32 C 35.660156 32 36.304688 31.9375 36.941406 31.847656 C 36.976563 32.230469 37 32.613281 37 33 C 37 39.640625 31.640625 45 25 45 C 18.359375 45 13 39.640625 13 33 C 13 32.613281 13.023438 32.230469 13.058594 31.847656 C 13.695313 31.9375 14.339844 32 15 32 C 18.917969 32 22.457031 30.378906 25 27.78125 Z"></path></svg>