<svg width="100" height="100" xmlns="http://www.w3.org/2000/svg" x="0px" y="0px" viewBox="0 0 50 50">
<title>web-security</title>
<path d="M 8 7 C 6.346 7 5 8.346 5 10 L 5 40 C 5 41.654 6.346 43 8 43 L 30.476562 43 C 30.160563 42.373 29.869609 41.704 29.599609 41 L 8 41 C 7.448 41 7 40.551 7 40 L 7 15 L 45 15 L 45 27.509766 C 45.567 27.783766 46.205 28.060031 47 28.332031 L 47 10 C 47 8.346 45.654 7 44 7 L 8 7 z M 8 9 L 44 9 C 44.552 9 45 9.449 45 10 L 45 13 L 7 13 L 7 10 C 7 9.449 7.448 9 8 9 z M 9 10 A 1 1 0 0 0 9 12 A 1 1 0 0 0 9 10 z M 12 10 A 1 1 0 0 0 12 12 A 1 1 0 0 0 12 10 z M 15 10 A 1 1 0 0 0 15 12 A 1 1 0 0 0 15 10 z M 40 28 C 38.5 28 37.500781 28.499609 36.300781 29.099609 C 35.100781 29.699609 33.600781 30.4 30.800781 31 L 30 31.199219 L 30 32 C 30 45 39.2 49.700391 39.5 49.900391 L 40 50.099609 L 40.5 49.900391 C 40.9 49.700391 50 44.6 50 32 L 50 31.199219 L 49.199219 31 C 46.399219 30.4 44.899219 29.699609 43.699219 29.099609 C 42.499219 28.499609 41.5 28 40 28 z M 40 30 C 41.1 30 41.700781 30.300391 42.800781 30.900391 C 44.000781 31.400391 45.5 32.200781 48 32.800781 C 47.7 42.100781 41.7 46.700781 40 47.800781 C 38.2 46.800781 32.3 42.500781 32 32.800781 C 34.6 32.200781 36.099219 31.400391 37.199219 30.900391 C 38.299219 30.300391 38.9 30 40 30 z"/></svg>