<svg xmlns="http://www.w3.org/2000/svg" xmlns:xlink="http://www.w3.org/1999/xlink" xmlns:lucid="lucid" width="1117.8" height="1147.02"><g transform="translate(-29.337345252009754 -65.60368239702825)" lucid:page-tab-id="_.BflUfYowg4"><path d="M263.14 890.55a6 6 0 0 1 6-6h229a6 6 0 0 1 6 6v108a6 6 0 0 1-6 6h-229a6 6 0 0 1-6-6z" stroke="#429d9e" stroke-width="3" fill="#429d9e"/><path d="M525.27 890.55a6 6 0 0 1 6-6h229a6 6 0 0 1 6 6v108a6 6 0 0 1-6 6h-229a6 6 0 0 1-6-6z" stroke="#e96f4c" stroke-width="3" fill="#e96f4c"/><path d="M30.84 556.68a6 6 0 0 1 6-6h294.24a6 6 0 0 1 6 6V821.1a6 6 0 0 1-6 6H36.84a6 6 0 0 1-6-6z" stroke="#136a7f" stroke-width="3" fill="#fff"/><path d="M30.84 502.64a6 6 0 0 1 6-6h233.8a6 6 0 0 1 6 6v30.04a6 6 0 0 1-6 6H36.84a6 6 0 0 1-6-6z" fill="#136a7f"/><use xlink:href="#a" transform="matrix(1,0,0,1,38.837345252009754,504.63812774801346) translate(0 21.09548611111111)"/><use xlink:href="#b" transform="matrix(1,0,0,1,38.837345252009754,504.63812774801346) translate(149.4140625 21.09548611111111)"/><path d="M385.64 73.1a6 6 0 0 1 6-6h748a6 6 0 0 1 6 6v748a6 6 0 0 1-6 6h-748a6 6 0 0 1-6-6z" stroke="#000" stroke-width="3" fill="#fff"/><use xlink:href="#c" transform="matrix(1,0,0,1,393.63799180373394,75.10368239702825) translate(216.64952256944446 28.862847222222225)"/><use xlink:href="#d" transform="matrix(1,0,0,1,393.63799180373394,75.10368239702825) translate(265.65559895833337 28.862847222222225)"/><use xlink:href="#e" transform="matrix(1,0,0,1,393.63799180373394,75.10368239702825) translate(303.40516493055554 28.862847222222225)"/><use xlink:href="#f" transform="matrix(1,0,0,1,393.63799180373394,75.10368239702825) translate(403.39214409722223 28.862847222222225)"/><use xlink:href="#g" transform="matrix(1,0,0,1,393.63799180373394,75.10368239702825) translate(295.5286458333333 72.61284722222223)"/><path d="M425.64 253.1a6 6 0 0 1 6-6h308a6 6 0 0 1 6 6v488a6 6 0 0 1-6 6h-308a6 6 0 0 1-6-6z" stroke="#429d9e" stroke-width="3" fill="#429d9e"/><path d="M425.64 199.06a6 6 0 0 1 6-6H634.3a6 6 0 0 1 6 6v30.04a6 6 0 0 1-6 6H431.64a6 6 0 0 1-6-6z" fill="#429d9e"/><use xlink:href="#h" transform="matrix(1,0,0,1,433.63799180373394,201.0620157303616) translate(0 21.09548611111111)"/><use xlink:href="#i" transform="matrix(1,0,0,1,433.63799180373394,201.0620157303616) translate(114.77864583333333 21.09548611111111)"/><path d="M455.64 599.17a6 6 0 0 1 6-6h248a6 6 0 0 1 6 6v91a6 6 0 0 1-6 6h-248a6 6 0 0 1-6-6z" stroke="#136a7f" stroke-width="3" fill="#fff"/><use xlink:href="#j" transform="matrix(1,0,0,1,463.6379918037339,601.1686399868631) translate(122 20.616319444444443)"/><use xlink:href="#k" transform="matrix(1,0,0,1,463.6379918037339,601.1686399868631) translate(50.7109375 51.86631944444444)"/><use xlink:href="#l" transform="matrix(1,0,0,1,463.6379918037339,601.1686399868631) translate(106.41840277777777 51.86631944444444)"/><path d="M455.64 458.1a6 6 0 0 1 6-6h248a6 6 0 0 1 6 6v91a6 6 0 0 1-6 6h-248a6 6 0 0 1-6-6z" stroke="#136a7f" stroke-width="3" fill="#fff"/><use xlink:href="#j" transform="matrix(1,0,0,1,463.6379918037339,460.10635220219825) translate(122 20.616319444444443)"/><use xlink:href="#m" transform="matrix(1,0,0,1,463.6379918037339,460.10635220219825) translate(101.75802951388889 51.86631944444444)"/><path d="M785.64 253.1a6 6 0 0 1 6-6h313.2a6 6 0 0 1 6 6v488a6 6 0 0 1-6 6h-313.2a6 6 0 0 1-6-6z" stroke="#136a7f" stroke-width="3" fill-opacity="0"/><path d="M785.64 199.06a6 6 0 0 1 6-6h226.44a6 6 0 0 1 6 6v30.04a6 6 0 0 1-6 6H791.64a6 6 0 0 1-6-6z" fill="#136a7f"/><use xlink:href="#n" transform="matrix(1,0,0,1,793.6379918037339,201.0620157303616) translate(0 21.09548611111111)"/><use xlink:href="#b" transform="matrix(1,0,0,1,793.6379918037339,201.0620157303616) translate(142.0464409722222 21.09548611111111)"/><path d="M455.64 286.48a6 6 0 0 1 6-6h248a6 6 0 0 1 6 6v100.25a6 6 0 0 1-6 6h-248a6 6 0 0 1-6-6z" stroke="#136a7f" stroke-width="3" fill="#fff"/><use xlink:href="#j" transform="matrix(1,0,0,1,463.6379918037339,288.47628401963425) translate(122 20.616319444444443)"/><use xlink:href="#o" transform="matrix(1,0,0,1,463.6379918037339,288.47628401963425) translate(15.348524305555543 51.86631944444444)"/><use xlink:href="#p" transform="matrix(1,0,0,1,463.6379918037339,288.47628401963425) translate(138.47135416666669 51.86631944444444)"/><use xlink:href="#q" transform="matrix(1,0,0,1,463.6379918037339,288.47628401963425) translate(156.24479166666669 51.86631944444444)"/><path d="M30.84 195.02a6 6 0 0 1 6-6h294.24a6 6 0 0 1 6 6V471.9a6 6 0 0 1-6 6H36.84a6 6 0 0 1-6-6z" stroke="#136a7f" stroke-width="3" fill="#fff"/><path d="M30.84 140.98a6 6 0 0 1 6-6h230.8a6 6 0 0 1 6 6v30.04a6 6 0 0 1-6 6H36.84a6 6 0 0 1-6-6z" fill="#136a7f"/><use xlink:href="#r" transform="matrix(1,0,0,1,38.837345252009754,142.97806702876196) translate(0 21.09548611111111)"/><use xlink:href="#b" transform="matrix(1,0,0,1,38.837345252009754,142.97806702876196) translate(146.40842013888886 21.09548611111111)"/><path d="M804.14 886a6 6 0 0 1 6-6h329.5a6 6 0 0 1 6 6v319.13a6 6 0 0 1-6 6h-329.5a6 6 0 0 1-6-6z" stroke="#000" stroke-width="3" fill="#fff"/><path d="M900.3 384.06c0 1.68-16.64 3.04-37.17 3.04s-37.17-1.36-37.17-3.04v-24.32c0-1.68 16.64-3.04 37.17-3.04s37.17 1.36 37.17 3.04z" stroke="#fff" stroke-width="3" fill="#136a7f"/><path d="M900.3 359.74c0 1.68-16.64 3.04-37.17 3.04s-37.17-1.36-37.17-3.04" stroke="#fff" stroke-width="3" fill="none"/><path d="M899.98 356.9c0 1.66-16.64 3.03-37.17 3.03-20.52 0-37.16-1.37-37.16-3.05v-24.32c0-1.68 16.64-3.04 37.17-3.04 20.54 0 37.18 1.37 37.18 3.04z" stroke="#fff" stroke-width="3" fill="#136a7f"/><path d="M899.98 332.56c0 1.68-16.64 3.05-37.17 3.05-20.52 0-37.16-1.36-37.16-3.04" stroke="#fff" stroke-width="3" fill="none"/><path d="M899.98 328.93c0 1.68-16.64 3.04-37.17 3.04-20.52 0-37.16-1.36-37.16-3.04V304.6c0-1.67 16.64-3.03 37.17-3.03 20.54 0 37.18 1.36 37.18 3.04z" stroke="#fff" stroke-width="3" fill="#136a7f"/><path d="M899.98 304.6c0 1.7-16.64 3.05-37.17 3.05-20.52 0-37.16-1.36-37.16-3.04" stroke="#fff" stroke-width="3" fill="none"/><path d="M1060.3 479.47c0 1.68-16.64 3.04-37.17 3.04s-37.17-1.35-37.17-3.03v-24.32c0-1.68 16.64-3.04 37.17-3.04s37.18 1.37 37.18 3.05z" stroke="#fff" stroke-width="3" fill="#136a7f"/><path d="M1060.3 455.15c0 1.68-16.64 3.04-37.17 3.04s-37.17-1.38-37.17-3.05" stroke="#fff" stroke-width="3" fill="none"/><path d="M1059.98 452.3c0 1.67-16.64 3.03-37.17 3.03-20.52 0-37.16-1.36-37.16-3.04v-24.33c0-1.68 16.64-3.04 37.17-3.04 20.54 0 37.18 1.36 37.18 3.04z" stroke="#fff" stroke-width="3" fill="#136a7f"/><path d="M1059.98 427.97c0 1.68-16.64 3.04-37.17 3.04-20.52 0-37.16-1.35-37.16-3.03" stroke="#fff" stroke-width="3" fill="none"/><path d="M1059.98 424.33c0 1.68-16.64 3.04-37.17 3.04-20.52 0-37.16-1.36-37.16-3.04V400c0-1.67 16.64-3.03 37.17-3.03 20.54 0 37.18 1.36 37.18 3.04z" stroke="#fff" stroke-width="3" fill="#136a7f"/><path d="M1059.98 400c0 1.7-16.64 3.05-37.17 3.05-20.52 0-37.16-1.36-37.16-3.04" stroke="#fff" stroke-width="3" fill="none"/><path d="M899.98 596.83c0 1.68-16.64 3.04-37.17 3.04-20.52 0-37.16-1.36-37.16-3.04V572.5c0-1.67 16.64-3.03 37.17-3.03 20.54 0 37.18 1.36 37.18 3.04z" stroke="#fff" stroke-width="3" fill="#136a7f"/><path d="M899.98 572.5c0 1.7-16.64 3.05-37.17 3.05-20.52 0-37.16-1.36-37.16-3.04" stroke="#fff" stroke-width="3" fill="none"/><path d="M899.66 569.65c0 1.68-16.64 3.04-37.17 3.04-20.54 0-37.18-1.37-37.18-3.05v-24.32c0-1.68 16.64-3.04 37.17-3.04 20.52 0 37.16 1.35 37.16 3.03z" stroke="#fff" stroke-width="3" fill="#136a7f"/><path d="M899.66 545.33c0 1.68-16.64 3.04-37.17 3.04-20.54 0-37.18-1.36-37.18-3.04" stroke="#fff" stroke-width="3" fill="none"/><path d="M899.66 541.7c0 1.68-16.64 3.04-37.17 3.04-20.54 0-37.18-1.36-37.18-3.04v-24.32c0-1.68 16.64-3.04 37.17-3.04 20.52 0 37.16 1.36 37.16 3.04z" stroke="#fff" stroke-width="3" fill="#136a7f"/><path d="M899.66 517.38c0 1.67-16.64 3.04-37.17 3.04-20.54 0-37.18-1.37-37.18-3.04" stroke="#fff" stroke-width="3" fill="none"/><path d="M1060.63 689.6c0 1.68-16.65 3.04-37.18 3.04s-37.17-1.36-37.17-3.04v-24.32c0-1.68 16.64-3.04 37.17-3.04s37.18 1.36 37.18 3.04z" stroke="#fff" stroke-width="3" fill="#136a7f"/><path d="M1060.63 665.28c0 1.68-16.65 3.04-37.18 3.04s-37.17-1.36-37.17-3.04" stroke="#fff" stroke-width="3" fill="none"/><path d="M1060.3 662.42c0 1.68-16.64 3.04-37.17 3.04s-37.17-1.36-37.17-3.04V638.1c0-1.68 16.64-3.04 37.17-3.04s37.18 1.36 37.18 3.04z" stroke="#fff" stroke-width="3" fill="#136a7f"/><path d="M1060.3 638.1c0 1.68-16.64 3.04-37.17 3.04s-37.17-1.36-37.17-3.04" stroke="#fff" stroke-width="3" fill="none"/><path d="M1060.3 634.47c0 1.67-16.64 3.03-37.17 3.03s-37.17-1.36-37.17-3.03v-24.33c0-1.67 16.64-3.04 37.17-3.04s37.18 1.37 37.18 3.04z" stroke="#fff" stroke-width="3" fill="#136a7f"/><path d="M1060.3 610.14c0 1.68-16.64 3.04-37.17 3.04s-37.17-1.36-37.17-3.04" stroke="#fff" stroke-width="3" fill="none"/><path d="M773.07 346.05a6 6 0 0 0 0 8.5l28.33 28.3a2.48 2.48 0 0 1-1.76 4.25h-33.28a14.48 14.48 0 0 1-10.25-4.24l-28.3-28.32a6 6 0 0 1 0-8.5l28.3-28.3a14.48 14.48 0 0 1 10.26-4.25h33.28a2.48 2.48 0 0 1 1.76 4.23zM935.16 435.5a6 6 0 0 0 0 8.48l28.32 28.32a2.48 2.48 0 0 1-1.75 4.25h-33.3a14.48 14.48 0 0 1-10.23-4.25l-28.32-28.32a6 6 0 0 1 0-8.48l28.32-28.32a14.48 14.48 0 0 1 10.24-4.25h33.3a2.48 2.48 0 0 1 1.74 4.25zM774.12 553.25a6 6 0 0 0 0 8.48l28.32 28.33a2.48 2.48 0 0 1-1.76 4.24H767.4a14.48 14.48 0 0 1-10.24-4.24l-28.32-28.33a6 6 0 0 1 0-8.48l28.32-28.32a14.48 14.48 0 0 1 10.24-4.24h33.28a2.48 2.48 0 0 1 1.76 4.23zM935.16 646.02a6 6 0 0 0 0 8.48l28.32 28.32a2.48 2.48 0 0 1-1.75 4.25h-33.3a14.48 14.48 0 0 1-10.23-4.25l-28.32-28.32a6 6 0 0 1 0-8.48l28.32-28.32a14.48 14.48 0 0 1 10.24-4.25h33.3a2.48 2.48 0 0 1 1.74 4.25z" stroke="#97928c" stroke-width="3" fill="#fff"/><path d="M278.35 668.57c0 1.66-13.52 3-30.2 3s-30.2-1.34-30.2-3V644.5c0-1.66 13.52-3 30.2-3s30.2 1.34 30.2 3z" stroke="#fff" stroke-width="3" fill="#f89e5d"/><path d="M278.35 644.5c0 1.66-13.52 3-30.2 3s-30.2-1.34-30.2-3" stroke="#fff" stroke-width="3" fill="none"/><path d="M278.1 641.67c0 1.66-13.53 3-30.2 3-16.7 0-30.22-1.34-30.22-3V617.6c0-1.66 13.53-3 30.2-3 16.7 0 30.2 1.34 30.2 3z" stroke="#fff" stroke-width="3" fill="#f89e5d"/><path d="M278.1 617.6c0 1.66-13.53 3-30.2 3-16.7 0-30.22-1.34-30.22-3" stroke="#fff" stroke-width="3" fill="none"/><path d="M278.1 614c0 1.67-13.53 3-30.2 3-16.7 0-30.22-1.33-30.22-3v-24.06c0-1.66 13.53-3 30.2-3 16.7 0 30.2 1.34 30.2 3z" stroke="#fff" stroke-width="3" fill="#f89e5d"/><path d="M278.1 589.94c0 1.66-13.53 3-30.2 3-16.7 0-30.22-1.34-30.22-3" stroke="#fff" stroke-width="3" fill="none"/><path d="M147.12 789.17c0 1.67-13.53 3-30.2 3-16.7 0-30.2-1.33-30.2-3V765.1c0-1.66 13.5-3 30.2-3 16.67 0 30.2 1.34 30.2 3z" stroke="#fff" stroke-width="3" fill="#f89e5d"/><path d="M147.12 765.1c0 1.67-13.53 3-30.2 3-16.7 0-30.2-1.33-30.2-3" stroke="#fff" stroke-width="3" fill="none"/><path d="M146.85 762.28c0 1.66-13.52 3-30.2 3s-30.2-1.34-30.2-3V738.2c0-1.65 13.52-3 30.2-3s30.2 1.35 30.2 3z" stroke="#fff" stroke-width="3" fill="#f89e5d"/><path d="M146.85 738.2c0 1.67-13.52 3.02-30.2 3.02s-30.2-1.35-30.2-3" stroke="#fff" stroke-width="3" fill="none"/><path d="M146.85 734.6c0 1.67-13.52 3.02-30.2 3.02s-30.2-1.35-30.2-3v-24.08c0-1.66 13.52-3 30.2-3s30.2 1.34 30.2 3z" stroke="#fff" stroke-width="3" fill="#f89e5d"/><path d="M146.85 710.54c0 1.67-13.52 3-30.2 3s-30.2-1.33-30.2-3" stroke="#fff" stroke-width="3" fill="none"/><path d="M278.1 319.05c0 1.66-13.53 3-30.2 3-16.7 0-30.22-1.34-30.22-3v-24.07c0-1.66 13.53-3 30.2-3 16.7 0 30.2 1.34 30.2 3z" stroke="#fff" stroke-width="3" fill="#e7c568"/><path d="M278.1 294.98c0 1.66-13.53 3-30.2 3-16.7 0-30.22-1.34-30.22-3" stroke="#fff" stroke-width="3" fill="none"/><path d="M277.83 292.15c0 1.66-13.52 3-30.2 3-16.7 0-30.2-1.34-30.2-3v-24.07c0-1.66 13.5-3 30.2-3 16.68 0 30.2 1.34 30.2 3z" stroke="#fff" stroke-width="3" fill="#e7c568"/><path d="M277.83 268.08c0 1.67-13.52 3-30.2 3-16.7 0-30.2-1.33-30.2-3" stroke="#fff" stroke-width="3" fill="none"/><path d="M277.83 264.5c0 1.65-13.52 3-30.2 3-16.7 0-30.2-1.35-30.2-3V240.4c0-1.66 13.5-3 30.2-3 16.68 0 30.2 1.34 30.2 3z" stroke="#fff" stroke-width="3" fill="#e7c568"/><path d="M277.83 240.42c0 1.66-13.52 3-30.2 3-16.7 0-30.2-1.34-30.2-3" stroke="#fff" stroke-width="3" fill="none"/><path d="M141.04 444.88c0 1.67-13.52 3-30.2 3-16.7 0-30.2-1.33-30.2-3v-24.06c0-1.67 13.52-3 30.2-3s30.2 1.33 30.2 3z" stroke="#fff" stroke-width="3" fill="#e7c568"/><path d="M141.04 420.8c0 1.68-13.52 3.02-30.2 3.02-16.7 0-30.2-1.34-30.2-3" stroke="#fff" stroke-width="3" fill="none"/><path d="M140.78 418c0 1.65-13.53 3-30.2 3-16.7 0-30.2-1.35-30.2-3V393.9c0-1.66 13.5-3 30.2-3 16.67 0 30.2 1.34 30.2 3z" stroke="#fff" stroke-width="3" fill="#e7c568"/><path d="M140.78 393.92c0 1.66-13.53 3-30.2 3-16.7 0-30.2-1.34-30.2-3" stroke="#fff" stroke-width="3" fill="none"/><path d="M140.78 390.32c0 1.67-13.53 3-30.2 3-16.7 0-30.2-1.33-30.2-3v-24.06c0-1.67 13.5-3 30.2-3 16.67 0 30.2 1.33 30.2 3z" stroke="#fff" stroke-width="3" fill="#e7c568"/><path d="M140.78 366.25c0 1.67-13.53 3-30.2 3-16.7 0-30.2-1.33-30.2-3" stroke="#fff" stroke-width="3" fill="none"/><path d="M239.4 753.38a6 6 0 0 0 0-8.48l-28.32-28.32a2.48 2.48 0 0 1 1.76-4.25h33.28a14.48 14.48 0 0 1 10.25 4.25l28.32 28.32a6 6 0 0 1 0 8.48l-28.33 28.32a14.48 14.48 0 0 1-10.25 4.25h-33.28a2.48 2.48 0 0 1-1.76-4.25zM243.4 408.62a6 6 0 0 0 0-8.5l-28.32-28.3a2.48 2.48 0 0 1 1.76-4.25h33.28a14.48 14.48 0 0 1 10.24 4.24l28.32 28.33a6 6 0 0 1 0 8.5l-28.32 28.3a14.48 14.48 0 0 1-10.24 4.25h-33.28a2.48 2.48 0 0 1-1.76-4.24zM358.95 632.9a6 6 0 0 0 0-8.5l-28.32-28.3a2.48 2.48 0 0 1 1.75-4.25h33.3a14.48 14.48 0 0 1 10.23 4.24l28.33 28.3a6 6 0 0 1 0 8.5l-28.32 28.32a14.48 14.48 0 0 1-10.23 4.24h-33.3a2.48 2.48 0 0 1-1.74-4.24zM358.95 280.93a6 6 0 0 0 0-8.5l-28.32-28.3a2.48 2.48 0 0 1 1.75-4.25h33.3a14.48 14.48 0 0 1 10.23 4.24l28.33 28.32a6 6 0 0 1 0 8.5l-28.32 28.3a14.48 14.48 0 0 1-10.23 4.25h-33.3a2.48 2.48 0 0 1-1.74-4.25zM860.63 916.9a6 6 0 0 0 0 8.5L871 935.75a2.48 2.48 0 0 1-1.76 4.24H857.5a14.48 14.48 0 0 1-10.23-4.24L836.9 925.4a6 6 0 0 1 0-8.5l10.37-10.35a14.48 14.48 0 0 1 10.24-4.25h11.74a2.48 2.48 0 0 1 1.76 4.25z" stroke="#97928c" stroke-width="3" fill="#fff"/><path d="M868.03 1002.94c0 .77-6.86 1.4-15.32 1.4s-15.32-.63-15.32-1.4v-11.16c0-.77 6.86-1.4 15.33-1.4 8.47 0 15.33.63 15.33 1.4z" stroke="#fff" stroke-width="3" fill="#136a7f"/><path d="M868.03 991.78c0 .77-6.86 1.4-15.32 1.4s-15.32-.63-15.32-1.4" stroke="#fff" stroke-width="3" fill="none"/><path d="M867.9 990.47c0 .77-6.87 1.4-15.33 1.4s-15.32-.63-15.32-1.4v-11.15c0-.77 6.86-1.4 15.32-1.4s15.32.63 15.32 1.4z" stroke="#fff" stroke-width="3" fill="#136a7f"/><path d="M867.9 979.32c0 .77-6.87 1.4-15.33 1.4s-15.32-.63-15.32-1.4" stroke="#fff" stroke-width="3" fill="none"/><path d="M867.9 977.65c0 .77-6.87 1.4-15.33 1.4s-15.32-.63-15.32-1.4V966.5c0-.77 6.86-1.4 15.32-1.4s15.32.63 15.32 1.4z" stroke="#fff" stroke-width="3" fill="#136a7f"/><path d="M867.9 966.5c0 .77-6.87 1.4-15.33 1.4s-15.32-.63-15.32-1.4" stroke="#fff" stroke-width="3" fill="none"/><path d="M887.13 895.7a6 6 0 0 1 6-6h228a6 6 0 0 1 6 6v48a6 6 0 0 1-6 6h-228a6 6 0 0 1-6-6z" fill="none"/><use xlink:href="#s" transform="matrix(1,0,0,1,887.1346607478488,889.7139143720444) translate(0 36.467013888888886)"/><use xlink:href="#t" transform="matrix(1,0,0,1,887.1346607478488,889.7139143720444) translate(43.69791666666667 36.467013888888886)"/><path d="M887.13 963.4a6 6 0 0 1 6-6h228a6 6 0 0 1 6 6v48a6 6 0 0 1-6 6h-228a6 6 0 0 1-6-6z" fill="none"/><use xlink:href="#u" transform="matrix(1,0,0,1,887.1346607478488,957.4077547034929) translate(0 23.560763888888893)"/><use xlink:href="#v" transform="matrix(1,0,0,1,887.1346607478488,957.4077547034929) translate(74.27083333333333 23.560763888888893)"/><use xlink:href="#w" transform="matrix(1,0,0,1,887.1346607478488,957.4077547034929) translate(157.46527777777777 23.560763888888893)"/><use xlink:href="#x" transform="matrix(1,0,0,1,887.1346607478488,957.4077547034929) translate(0 49.37326388888889)"/><use xlink:href="#y" transform="matrix(1,0,0,1,887.1346607478488,957.4077547034929) translate(31.692708333333336 49.37326388888889)"/><use xlink:href="#z" transform="matrix(1,0,0,1,887.1346607478488,957.4077547034929) translate(93.11631944444446 49.37326388888889)"/><path d="M889 1121.1a6 6 0 0 1 6-6h228a6 6 0 0 1 6 6v48a6 6 0 0 1-6 6H895a6 6 0 0 1-6-6z" fill="none"/><use xlink:href="#A" transform="matrix(1,0,0,1,889.0100610295017,1115.1015950349415) translate(0 17.22222222222222)"/><use xlink:href="#B" transform="matrix(1,0,0,1,889.0100610295017,1115.1015950349415) translate(126.31076388888889 17.22222222222222)"/><use xlink:href="#C" transform="matrix(1,0,0,1,889.0100610295017,1115.1015950349415) translate(0 43.034722222222214)"/><use xlink:href="#D" transform="matrix(1,0,0,1,889.0100610295017,1115.1015950349415) translate(94.23611111111111 43.034722222222214)"/><use xlink:href="#E" transform="matrix(1,0,0,1,889.0100610295017,1115.1015950349415) translate(115.53819444444446 43.034722222222214)"/><use xlink:href="#F" transform="matrix(1,0,0,1,889.0100610295017,1115.1015950349415) translate(0 68.84722222222221)"/><use xlink:href="#z" transform="matrix(1,0,0,1,889.0100610295017,1115.1015950349415) translate(61.423611111111114 68.84722222222221)"/><path d="M887.13 1042.26a6 6 0 0 1 6-6h228a6 6 0 0 1 6 6v48a6 6 0 0 1-6 6h-228a6 6 0 0 1-6-6z" fill="none"/><use xlink:href="#G" transform="matrix(1,0,0,1,887.1346607478488,1036.254674869217) translate(0 23.560763888888893)"/><use xlink:href="#B" transform="matrix(1,0,0,1,887.1346607478488,1036.254674869217) translate(123.52430555555557 23.560763888888893)"/><use xlink:href="#H" transform="matrix(1,0,0,1,887.1346607478488,1036.254674869217) translate(0 49.37326388888889)"/><use xlink:href="#I" transform="matrix(1,0,0,1,887.1346607478488,1036.254674869217) translate(90.00868055555557 49.37326388888889)"/><use xlink:href="#J" transform="matrix(1,0,0,1,887.1346607478488,1036.254674869217) translate(130.19097222222223 49.37326388888889)"/><use xlink:href="#K" transform="matrix(1,0,0,1,887.1346607478488,1036.254674869217) translate(159.80902777777777 49.37326388888889)"/><use xlink:href="#L" transform="matrix(1,0,0,1,887.1346607478488,1036.254674869217) translate(181.84895833333331 49.37326388888889)"/><path d="M255.5 291.97h40v40h-40z" fill-opacity="0"/><path d="M275.5 291.97c13.33 0 20 6.68 20 20s-6.67 20-20 20c-13.3 0-20-6.68-20-20s6.7-20 20-20z" stroke="#000" stroke-opacity="0" stroke-width=".33" fill="#e7c568"/><path d="M275.53 304.46c1.73 0 3.13 1.4 3.13 3.13 0 1.72-1.4 3.12-3.13 3.12-1.72 0-3.13-1.4-3.13-3.13 0-1.74 1.4-3.14 3.13-3.14m0-1.25c-2.42 0-4.38 1.97-4.38 4.4 0 2.4 1.96 4.37 4.38 4.37s4.38-1.96 4.38-4.38c0-1.18-.45-2.3-1.27-3.1-.82-.83-1.93-1.3-3.1-1.3zM281.8 320.73h-1.26v-3.14c0-.83-.33-1.63-.92-2.22-.58-.58-1.38-.9-2.2-.9h-3.77c-1.72 0-3.13 1.38-3.13 3.1v3.15h-1.25v-3.14c0-2.43 1.97-4.4 4.38-4.4h3.76c2.43 0 4.4 1.97 4.4 4.4v3.13z" stroke="#000" stroke-opacity="0" stroke-width=".33" fill="#fff"/><path d="M265.5 301.97h20v20h-20v-20z" stroke="#000" stroke-opacity="0" stroke-width=".33" fill-opacity="0"/><path d="M117.77 415.33h40v40h-40z" fill-opacity="0"/><path d="M137.77 415.33c13.32 0 20 6.68 20 20s-6.68 20-20 20-20-6.68-20-20 6.68-20 20-20z" stroke="#000" stroke-opacity="0" stroke-width=".33" fill="#e7c568"/><path d="M137.8 427.82c1.72 0 3.12 1.4 3.12 3.13s-1.4 3.13-3.13 3.13-3.14-1.4-3.14-3.13 1.4-3.13 3.13-3.13m0-1.25c-2.43 0-4.4 1.96-4.4 4.38s1.97 4.38 4.4 4.38c2.4 0 4.37-1.96 4.37-4.38 0-1.17-.46-2.28-1.28-3.1-.83-.82-1.94-1.28-3.1-1.28zM144.05 444.1h-1.25v-3.15c0-.82-.33-1.62-.9-2.2-.6-.6-1.4-.93-2.23-.93h-3.76c-1.7 0-3.12 1.4-3.12 3.13v3.14h-1.25v-3.15c0-2.42 1.97-4.38 4.38-4.38h3.77c2.42 0 4.38 1.96 4.38 4.38v3.14z" stroke="#000" stroke-opacity="0" stroke-width=".33" fill="#fff"/><path d="M127.77 425.33h20v20h-20v-20z" stroke="#000" stroke-opacity="0" stroke-width=".33" fill-opacity="0"/><path d="M261.46 920.55a6 6 0 0 1 6-6h228a6 6 0 0 1 6 6v48a6 6 0 0 1-6 6h-228a6 6 0 0 1-6-6z" fill="none"/><use xlink:href="#M" transform="matrix(1,0,0,1,261.45632365012216,914.5516640837465) translate(19.61046006944443 40.63368055555556)"/><use xlink:href="#N" transform="matrix(1,0,0,1,261.45632365012216,914.5516640837465) translate(68.61653645833331 40.63368055555556)"/><use xlink:href="#O" transform="matrix(1,0,0,1,261.45632365012216,914.5516640837465) translate(106.36610243055554 40.63368055555556)"/><path d="M525.27 920.55a6 6 0 0 1 6-6h228a6 6 0 0 1 6 6v48a6 6 0 0 1-6 6h-228a6 6 0 0 1-6-6z" fill="none"/><use xlink:href="#M" transform="matrix(1,0,0,1,525.268704651239,914.5516640837465) translate(21.27387152777777 40.63368055555556)"/><use xlink:href="#N" transform="matrix(1,0,0,1,525.268704651239,914.5516640837465) translate(70.27994791666666 40.63368055555556)"/><use xlink:href="#P" transform="matrix(1,0,0,1,525.268704651239,914.5516640837465) translate(108.02951388888889 40.63368055555556)"/><path d="M719.64 731.07a6 6 0 0 1 6 6v112a6 6 0 0 0 6 6h8a2.3 2.3 0 0 1 1.54 4l-31.08 27.98a6.67 6.67 0 0 1-8.92 0l-31.08-27.97a2.3 2.3 0 0 1 1.54-4h8a6 6 0 0 0 6-6v-112a6 6 0 0 1 6-6z" stroke="#e96f4c" stroke-width="3" fill="#fff"/><path d="M485.48 731.07a6 6 0 0 1 6 6v112a6 6 0 0 0 6 6h8a2.3 2.3 0 0 1 1.54 4l-31.08 27.98a6.67 6.67 0 0 1-8.92 0l-31.08-27.97a2.3 2.3 0 0 1 1.54-4h8a6 6 0 0 0 6-6v-112a6 6 0 0 1 6-6z" stroke="#429d9e" stroke-width="3" fill="#fff"/><path d="M261.46 648.54h29.85v32.27h-29.84z" fill-opacity="0"/><path d="M277.5 680.8h-2.22c-.75 0-1.46-.25-2.1-.73-.56-.46-.95-1.13-1.07-1.84l-.43-2.1-2.7-1.6-1.9.8c-.4.12-.78.2-1.2.2-.6 0-1.16-.17-1.7-.46-.53-.3-.95-.78-1.2-1.33l-1.2-2.32c-.2-.45-.3-.9-.3-1.4 0-1.1.43-1.96 1.3-2.64l1.46-1.06v-3.3l-1.52-1.12c-.83-.65-1.24-1.5-1.24-2.58 0-.42.12-.88.33-1.4l1.18-2.32c.3-.58.7-1.03 1.2-1.32.53-.3 1.1-.45 1.7-.45.47 0 .86.1 1.2.26l1.9.73 2.7-1.6.43-2.1c.2-.75.58-1.37 1.15-1.85.6-.5 1.28-.74 2.03-.74h2.2c.75 0 1.44.25 2.04.74.56.48.95 1.1 1.13 1.84l.36 2.1 2.8 1.6 1.9-.73c.32-.17.7-.27 1.2-.27.6 0 1.13.16 1.63.45.54.3.96.74 1.26 1.32l1.12 2.33c.27.42.4.9.4 1.45 0 1.03-.46 1.9-1.32 2.52l-1.53 1.13v3.3l1.52 1.05c.86.68 1.3 1.55 1.3 2.6 0 .5-.1 1-.38 1.44l-1.13 2.32c-.3.58-.73 1.03-1.27 1.33-.5.28-1.04.45-1.64.45-.43 0-.82-.07-1.2-.2l-1.9-.8-2.8 1.6-.35 2.1c-.18.75-.57 1.36-1.13 1.85-.6.48-1.3.74-2.03.74zm-8.52-9.5c.54 0 1.07.15 1.64.5l2.78 1.62c.83.5 1.3 1.23 1.43 2.1l.45 2.06h2.2l.4-2.06c.2-.94.7-1.62 1.5-2.1l2.7-1.62c.54-.32 1.17-.5 1.77-.5.23 0 .4.02.6.05.14.04.35.1.56.2l1.9.74 1.13-2.33-1.47-1.07c-.86-.68-1.3-1.55-1.3-2.58v-3.3c0-1.03.44-1.9 1.3-2.57l1.46-1.07-1.13-2.32-1.9.8c-.38.13-.8.2-1.2.2-.67 0-1.24-.16-1.72-.45l-2.7-1.7c-.4-.2-.73-.5-1-.88-.24-.35-.42-.74-.5-1.2l-.4-2.06h-2.2l-.45 2.07c-.12.87-.6 1.58-1.43 2.06l-2.72 1.7c-.48.3-1.04.46-1.7.46-.4 0-.8-.07-1.3-.2l-1.87-.8-1.12 2.32 1.52 1.07c.87.67 1.32 1.54 1.32 2.58v3.3c0 1.02-.45 1.9-1.32 2.57l-1.52 1.07 1.2 2.32 1.88-.75c.35-.16.74-.26 1.22-.26zm7.37-.2c-.9 0-1.73-.17-2.54-.5-.73-.34-1.42-.8-2-1.38-.58-.58-1.06-1.3-1.4-2.03-.32-.82-.5-1.66-.5-2.53 0-.87.18-1.7.5-2.45.34-.8.82-1.48 1.42-2.1.56-.58 1.25-1.03 2-1.38.8-.33 1.64-.5 2.53-.5.9 0 1.73.17 2.54.5.77.35 1.48.8 2.05 1.38.6.62 1.05 1.3 1.4 2.1.33.74.5 1.58.5 2.45 0 .87-.17 1.7-.5 2.52-.33.73-.8 1.44-1.4 2.02-.57.58-1.28 1.04-2.06 1.4-.82.3-1.65.48-2.55.48zm0-9.65c-.9 0-1.64.32-2.27.96-.3.3-.53.66-.7 1.05-.16.38-.25.8-.25 1.22 0 .87.33 1.65.95 2.26.63.65 1.38.97 2.27.97.93 0 1.7-.32 2.33-.97.63-.6.96-1.4.96-2.26 0-.87-.33-1.64-.96-2.26-.3-.3-.66-.53-1.07-.7-.38-.16-.83-.25-1.25-.25z" fill="url(#Q)"/><path d="M130.75 767.14h29.85v32.27h-29.85z" fill-opacity="0"/><path d="M146.78 799.4h-2.2c-.75 0-1.47-.25-2.1-.73-.56-.45-.95-1.13-1.07-1.84l-.44-2.1-2.68-1.6-1.9.8c-.4.12-.8.2-1.2.2-.6 0-1.17-.17-1.7-.47-.55-.28-.97-.77-1.2-1.32l-1.2-2.32c-.2-.45-.33-.9-.33-1.4 0-1.1.45-1.96 1.32-2.64l1.46-1.06v-3.3L132 780.5c-.83-.65-1.25-1.5-1.25-2.58 0-.42.12-.88.33-1.4l1.2-2.3c.3-.6.68-1.05 1.2-1.34.53-.3 1.1-.45 1.7-.45.47 0 .86.1 1.2.26l1.9.73 2.68-1.6.45-2.1c.2-.75.58-1.37 1.14-1.85.6-.5 1.3-.74 2.03-.74h2.2c.76 0 1.45.25 2.04.74.58.48.97 1.1 1.15 1.84l.36 2.1 2.78 1.6 1.9-.73c.34-.17.73-.27 1.2-.27.6 0 1.14.16 1.65.45.54.3.95.74 1.25 1.33l1.14 2.33c.27.42.38.9.38 1.45 0 1.03-.44 1.9-1.3 2.52l-1.53 1.13v3.3l1.52 1.05c.86.68 1.3 1.55 1.3 2.6 0 .5-.1 1-.38 1.44l-1.14 2.32c-.3.58-.7 1.03-1.25 1.32-.5.3-1.05.46-1.64.46-.43 0-.82-.07-1.2-.2l-1.92-.8-2.77 1.6-.35 2.1c-.18.75-.57 1.36-1.14 1.85-.58.48-1.27.74-2.02.74zm-8.5-9.5c.53 0 1.07.15 1.64.5l2.77 1.62c.83.52 1.3 1.23 1.43 2.1l.44 2.06h2.2l.4-2.06c.2-.94.72-1.62 1.5-2.1l2.7-1.6c.55-.34 1.17-.53 1.77-.53.24 0 .42.02.6.05.15.04.36.1.57.2l1.9.74 1.12-2.33-1.46-1.07c-.87-.68-1.32-1.55-1.32-2.58v-3.3c0-1.02.45-1.9 1.32-2.57l1.46-1.07-1.13-2.32-1.9.8c-.38.13-.8.2-1.22.2-.65 0-1.22-.16-1.7-.45l-2.72-1.7c-.38-.2-.7-.5-.98-.88-.24-.35-.42-.74-.5-1.2l-.4-2.06h-2.2l-.45 2.07c-.12.87-.6 1.58-1.44 2.07l-2.72 1.7c-.48.3-1.05.46-1.7.46-.4 0-.8-.07-1.3-.2l-1.87-.8-1.12 2.32 1.52 1.07c.87.67 1.3 1.55 1.3 2.58v3.3c0 1.02-.44 1.9-1.3 2.57l-1.52 1.07 1.2 2.32 1.87-.75c.36-.16.75-.26 1.23-.26zm7.37-.2c-.9 0-1.73-.17-2.54-.5-.73-.34-1.42-.8-2-1.38-.6-.58-1.06-1.3-1.4-2.03-.32-.82-.5-1.65-.5-2.53 0-.87.18-1.7.5-2.45.34-.8.8-1.48 1.4-2.1.58-.58 1.27-1.03 2-1.38.82-.33 1.65-.5 2.55-.5.9 0 1.73.17 2.54.5.76.35 1.48.8 2.05 1.38.6.62 1.04 1.3 1.4 2.1.33.74.5 1.58.5 2.45 0 .88-.17 1.7-.5 2.52-.33.73-.8 1.44-1.4 2.02-.57.58-1.3 1.04-2.06 1.4-.82.3-1.66.48-2.55.48zm0-9.65c-.9 0-1.64.32-2.27.96-.3.3-.54.66-.72 1.05-.15.38-.23.8-.23 1.22 0 .88.32 1.65.95 2.26.63.65 1.37.97 2.27.97.92 0 1.7-.32 2.33-.97.63-.6.95-1.38.95-2.26 0-.87-.33-1.64-.95-2.26-.3-.3-.66-.53-1.08-.7-.4-.16-.83-.25-1.25-.25z" fill="url(#R)"/><path d="M864.8 1090.75c0 .88-7.14 1.6-15.93 1.6-8.8 0-15.9-.72-15.9-1.6v-12.68c0-.88 7.1-1.6 15.9-1.6s15.92.72 15.92 1.6z" stroke="#fff" stroke-width="3" fill="#e7c568"/><path d="M864.8 1078.07c0 .87-7.14 1.58-15.93 1.58-8.8 0-15.9-.7-15.9-1.58" stroke="#fff" stroke-width="3" fill="none"/><path d="M864.65 1076.58c0 .87-7.13 1.58-15.9 1.58-8.8 0-15.93-.7-15.93-1.58v-12.68c0-.88 7.13-1.6 15.9-1.6 8.8 0 15.93.72 15.93 1.6z" stroke="#fff" stroke-width="3" fill="#e7c568"/><path d="M864.65 1063.9c0 .87-7.13 1.58-15.9 1.58-8.8 0-15.93-.7-15.93-1.58" stroke="#fff" stroke-width="3" fill="none"/><path d="M864.65 1062c0 .88-7.13 1.6-15.9 1.6-8.8 0-15.93-.72-15.93-1.6v-12.68c0-.88 7.13-1.6 15.9-1.6 8.8 0 15.93.72 15.93 1.6z" stroke="#fff" stroke-width="3" fill="#e7c568"/><path d="M864.65 1049.32c0 .87-7.13 1.58-15.9 1.58-8.8 0-15.93-.7-15.93-1.58" stroke="#fff" stroke-width="3" fill="none"/><path d="M852.53 1075.18h21.08v21.08h-21.07z" fill-opacity="0"/><path d="M863.07 1075.18c7 0 10.53 3.52 10.53 10.54 0 7-3.5 10.54-10.53 10.54-7.02 0-10.54-3.53-10.54-10.54 0-7.02 3.52-10.54 10.54-10.54z" stroke="#000" stroke-opacity="0" stroke-width=".18" fill="#e7c568"/><path d="M863.08 1081.76c.9 0 1.64.74 1.64 1.65 0 .92-.73 1.66-1.64 1.66-.9 0-1.65-.74-1.65-1.65 0-.9.74-1.64 1.65-1.64m0-.66c-1.28 0-2.3 1.03-2.3 2.3 0 1.28 1.02 2.32 2.3 2.32 1.27 0 2.3-1.04 2.3-2.3 0-.63-.24-1.2-.67-1.65-.42-.42-1-.67-1.62-.67zM866.38 1090.33h-.66v-1.65c0-.44-.18-.86-.5-1.17-.3-.3-.72-.47-1.15-.47h-1.98c-.92 0-1.66.74-1.66 1.65v1.65h-.66v-1.65c0-1.28 1.03-2.3 2.3-2.3h2c1.26 0 2.3 1.02 2.3 2.3v1.65z" stroke="#000" stroke-opacity="0" stroke-width=".18" fill="#fff"/><path d="M857.8 1080.45h10.54v10.53H857.8v-10.53z" stroke="#000" stroke-opacity="0" stroke-width=".18" fill-opacity="0"/><path d="M866.46 1174.23c0 .8-6.48 1.44-14.48 1.44s-14.47-.64-14.47-1.44v-11.54c0-.8 6.5-1.45 14.48-1.45 8 0 14.48.65 14.48 1.44z" stroke="#fff" stroke-width="3" fill="#f89e5d"/><path d="M866.46 1162.7c0 .8-6.48 1.44-14.48 1.44s-14.47-.65-14.47-1.45" stroke="#fff" stroke-width="3" fill="none"/><path d="M866.33 1161.34c0 .8-6.48 1.44-14.47 1.44-8 0-14.48-.64-14.48-1.44v-11.54c0-.8 6.48-1.44 14.48-1.44s14.47.65 14.47 1.44z" stroke="#fff" stroke-width="3" fill="#f89e5d"/><path d="M866.33 1149.8c0 .8-6.48 1.44-14.47 1.44-8 0-14.48-.64-14.48-1.44" stroke="#fff" stroke-width="3" fill="none"/><path d="M866.33 1148.08c0 .8-6.48 1.44-14.47 1.44-8 0-14.48-.64-14.48-1.44v-11.54c0-.8 6.48-1.44 14.48-1.44s14.47.65 14.47 1.44z" stroke="#fff" stroke-width="3" fill="#f89e5d"/><path d="M866.33 1136.54c0 .8-6.48 1.45-14.47 1.45-8 0-14.48-.66-14.48-1.46" stroke="#fff" stroke-width="3" fill="none"/><path d="M858.62 1163.67h14.3v15.47h-14.3z" fill-opacity="0"/><path d="M866.3 1179.14h-1.06c-.36 0-.7-.13-1-.36-.27-.22-.46-.54-.5-.88l-.23-1-1.28-.78-.9.4c-.2.05-.4.08-.6.08-.27 0-.54-.08-.8-.22s-.46-.37-.57-.63l-.58-1.12c-.1-.2-.15-.43-.15-.66 0-.53.2-.94.63-1.27l.7-.5v-1.6l-.73-.53c-.4-.3-.6-.7-.6-1.24 0-.2.05-.4.15-.66l.58-1.12c.14-.27.33-.5.57-.63.26-.14.53-.22.82-.22.22 0 .4.05.57.13l.92.35 1.3-.77.2-1c.1-.35.28-.64.55-.88.28-.23.6-.35.97-.35h1.06c.36 0 .7.12.97.35.28.24.46.53.55.88l.17 1 1.32.78.92-.35c.15-.08.34-.13.57-.13.3 0 .55.08.8.22s.45.36.6.63l.54 1.12c.13.2.2.43.2.7 0 .5-.23.9-.64 1.2l-.73.54v1.6l.73.5c.4.33.63.74.63 1.24 0 .25-.06.48-.2.7l-.53 1.1c-.15.3-.35.5-.6.64s-.5.22-.8.22c-.2 0-.38-.03-.56-.1l-.92-.38-1.33.77-.18 1c-.1.35-.27.65-.55.88-.28.23-.6.36-.97.36zm-4.08-4.57c.26 0 .52.08.8.25l1.32.77c.4.24.63.58.7 1l.2 1h1.06l.2-1c.1-.45.33-.77.7-1l1.3-.78c.26-.15.56-.25.85-.25.1 0 .2.02.28.03.08.02.18.05.28.1l.9.35.55-1.1-.7-.52c-.4-.33-.63-.74-.63-1.24v-1.6c0-.48.22-.9.63-1.22l.7-.52-.54-1.1-.9.38c-.18.06-.38.1-.58.1-.32 0-.6-.1-.82-.23l-1.3-.8c-.18-.1-.34-.24-.47-.42-.1-.17-.2-.36-.24-.58l-.2-1h-1.06l-.2 1c-.07.42-.3.76-.7 1l-1.3.8c-.23.15-.5.23-.82.23-.18 0-.38-.03-.6-.1l-.9-.38-.56 1.12.73.5c.4.33.62.75.62 1.24v1.6c0 .5-.2.9-.63 1.23l-.74.5.58 1.12.9-.35c.17-.08.35-.13.58-.13zm3.54-.1c-.43 0-.83-.07-1.22-.22-.36-.17-.7-.4-.96-.67-.28-.27-.5-.62-.67-.97-.15-.38-.23-.78-.23-1.2 0-.42.08-.82.24-1.17.17-.4.4-.7.68-1 .27-.3.6-.5.96-.67.4-.16.8-.24 1.22-.24.43 0 .83.08 1.2.24.38.17.73.38 1 .66.3.3.5.62.67 1 .16.36.25.76.25 1.18 0 .42-.1.82-.25 1.2-.15.36-.38.7-.67.98-.27.28-.62.5-1 .67-.37.15-.77.23-1.2.23zm0-4.62c-.43 0-.8.16-1.1.47-.13.14-.25.3-.33.5-.08.18-.12.38-.12.58 0 .42.17.8.47 1.08.3.3.66.47 1.1.47.43 0 .8-.16 1.1-.47.3-.3.46-.66.46-1.08 0-.42-.16-.8-.46-1.08-.14-.15-.3-.26-.5-.34-.2-.08-.4-.13-.6-.13z" fill="url(#S)"/><path d="M143.18 316.6c0 1.66-13.52 3-30.2 3s-30.2-1.34-30.2-3v-24.07c0-1.66 13.52-3 30.2-3s30.2 1.34 30.2 3z" stroke="#fff" stroke-width="3" fill="#e7c568"/><path d="M143.18 292.53c0 1.66-13.52 3-30.2 3s-30.2-1.34-30.2-3" stroke="#fff" stroke-width="3" fill="none"/><path d="M142.92 289.7c0 1.67-13.52 3-30.2 3s-30.2-1.33-30.2-3v-24.06c0-1.66 13.52-3 30.2-3s30.2 1.34 30.2 3z" stroke="#fff" stroke-width="3" fill="#e7c568"/><path d="M142.92 265.64c0 1.66-13.52 3-30.2 3s-30.2-1.34-30.2-3" stroke="#fff" stroke-width="3" fill="none"/><path d="M142.92 262.04c0 1.66-13.52 3-30.2 3s-30.2-1.34-30.2-3v-24.07c0-1.66 13.52-3 30.2-3s30.2 1.34 30.2 3z" stroke="#fff" stroke-width="3" fill="#e7c568"/><path d="M142.92 237.97c0 1.66-13.52 3-30.2 3s-30.2-1.34-30.2-3" stroke="#fff" stroke-width="3" fill="none"/><path d="M120.6 289.52h40v40h-40z" fill-opacity="0"/><path d="M140.6 289.52c13.33 0 20 6.68 20 20s-6.67 20-20 20c-13.3 0-20-6.68-20-20s6.7-20 20-20z" stroke="#000" stroke-opacity="0" stroke-width=".33" fill="#e7c568"/><path d="M140.63 302.02c1.72 0 3.12 1.4 3.12 3.12 0 1.73-1.4 3.13-3.13 3.13-1.72 0-3.12-1.4-3.12-3.13 0-1.72 1.4-3.12 3.13-3.12m0-1.26c-2.42 0-4.38 1.97-4.38 4.38 0 2.42 1.96 4.38 4.38 4.38 2.4 0 4.38-1.96 4.38-4.38 0-1.16-.46-2.27-1.27-3.1-.83-.8-1.94-1.28-3.1-1.28zM146.88 318.28h-1.25v-3.13c0-.83-.32-1.63-.9-2.2-.6-.6-1.4-.93-2.23-.93h-3.75c-1.73 0-3.13 1.4-3.13 3.13v3.13h-1.25v-3.13c0-2.42 1.96-4.4 4.38-4.4h3.75c2.42 0 4.38 1.98 4.38 4.4v3.13z" stroke="#000" stroke-opacity="0" stroke-width=".33" fill="#fff"/><path d="M130.6 299.52h20v20h-20v-20z" stroke="#000" stroke-opacity="0" stroke-width=".33" fill-opacity="0"/><path d="M143.18 668.57c0 1.66-13.52 3-30.2 3s-30.2-1.34-30.2-3V644.5c0-1.66 13.52-3 30.2-3s30.2 1.34 30.2 3z" stroke="#fff" stroke-width="3" fill="#f89e5d"/><path d="M143.18 644.5c0 1.66-13.52 3-30.2 3s-30.2-1.34-30.2-3" stroke="#fff" stroke-width="3" fill="none"/><path d="M142.92 641.67c0 1.66-13.52 3-30.2 3s-30.2-1.34-30.2-3V617.6c0-1.66 13.52-3 30.2-3s30.2 1.34 30.2 3z" stroke="#fff" stroke-width="3" fill="#f89e5d"/><path d="M142.92 617.6c0 1.66-13.52 3-30.2 3s-30.2-1.34-30.2-3" stroke="#fff" stroke-width="3" fill="none"/><path d="M142.92 614c0 1.67-13.52 3-30.2 3s-30.2-1.33-30.2-3v-24.06c0-1.66 13.52-3 30.2-3s30.2 1.34 30.2 3z" stroke="#fff" stroke-width="3" fill="#f89e5d"/><path d="M142.92 589.94c0 1.66-13.52 3-30.2 3s-30.2-1.34-30.2-3" stroke="#fff" stroke-width="3" fill="none"/><path d="M126.82 646.53h29.85v32.27h-29.85z" fill-opacity="0"/><path d="M142.85 678.8h-2.2c-.75 0-1.47-.26-2.1-.74-.56-.45-.95-1.13-1.07-1.84l-.45-2.1-2.7-1.6-1.9.8c-.4.13-.77.2-1.2.2-.6 0-1.16-.17-1.7-.46-.53-.3-.95-.78-1.2-1.33l-1.18-2.32c-.2-.44-.33-.9-.33-1.38 0-1.1.45-1.97 1.3-2.64l1.48-1.07v-3.28l-1.53-1.13c-.83-.65-1.25-1.5-1.25-2.6 0-.4.12-.86.33-1.38l1.2-2.32c.3-.58.68-1.04 1.2-1.33.52-.3 1.1-.45 1.7-.45.47 0 .85.1 1.18.26l1.9.74 2.7-1.6.45-2.1c.18-.75.56-1.37 1.13-1.85.6-.48 1.3-.74 2.04-.74h2.2c.76 0 1.44.26 2.04.74.57.5.96 1.1 1.14 1.84l.35 2.1 2.78 1.62 1.9-.74c.34-.16.73-.26 1.2-.26.6 0 1.14.16 1.65.45.53.3.95.75 1.25 1.33l1.13 2.32c.27.42.4.9.4 1.45 0 1.03-.46 1.9-1.32 2.52l-1.52 1.12v3.3l1.52 1.06c.86.67 1.3 1.54 1.3 2.58 0 .5-.1 1-.38 1.45l-1.13 2.33c-.3.6-.72 1.04-1.25 1.33-.5.3-1.05.45-1.65.45-.4 0-.8-.05-1.2-.18l-1.9-.8-2.78 1.6-.35 2.1c-.18.74-.57 1.36-1.14 1.84-.6.48-1.28.74-2.03.74zm-8.5-9.52c.53 0 1.07.16 1.64.52l2.76 1.6c.84.53 1.3 1.24 1.43 2.1l.44 2.08h2.2l.4-2.07c.2-.93.72-1.6 1.5-2.1l2.7-1.6c.55-.32 1.17-.52 1.77-.52.25 0 .43.03.6.07.16.03.36.1.57.2l1.88.73 1.14-2.32-1.47-1.07c-.87-.68-1.32-1.56-1.32-2.6v-3.28c0-1.03.46-1.9 1.33-2.58l1.46-1.07-1.15-2.32-1.88.8c-.38.13-.8.2-1.22.2-.66 0-1.22-.16-1.7-.45l-2.72-1.7c-.4-.2-.7-.5-.98-.88-.24-.36-.42-.75-.5-1.2l-.4-2.06h-2.2l-.46 2.06c-.13.87-.6 1.58-1.44 2.07l-2.72 1.7c-.47.3-1.04.45-1.7.45-.38 0-.8-.06-1.28-.2l-1.88-.8-1.14 2.32 1.53 1.07c.86.67 1.3 1.55 1.3 2.58v3.3c0 1.02-.44 1.9-1.3 2.57l-1.53 1.06 1.2 2.32 1.88-.74c.36-.16.75-.26 1.22-.26zm7.37-.2c-.9 0-1.73-.15-2.54-.48-.75-.35-1.43-.8-2-1.38-.6-.6-1.08-1.3-1.4-2.04-.33-.8-.5-1.64-.5-2.5 0-.9.17-1.72.5-2.47.32-.8.8-1.47 1.4-2.1.57-.57 1.25-1.02 2-1.37.8-.33 1.64-.5 2.54-.5.9 0 1.73.17 2.53.5.78.35 1.5.8 2.06 1.38.6.63 1.06 1.3 1.42 2.1.33.75.5 1.6.5 2.46 0 .88-.17 1.72-.5 2.52-.33.75-.8 1.46-1.4 2.04-.57.58-1.3 1.03-2.07 1.38-.8.33-1.64.5-2.53.5zm0-9.64c-.9 0-1.65.32-2.27.97-.3.3-.54.65-.72 1.04-.15.4-.24.8-.24 1.22 0 .88.32 1.65.95 2.26.63.65 1.37.97 2.27.97.92 0 1.7-.33 2.32-.98.63-.6.96-1.38.96-2.25 0-.88-.33-1.65-.96-2.26-.3-.32-.65-.54-1.07-.7-.4-.17-.84-.26-1.25-.26z" fill="url(#T)"/><defs><path fill="#fff" d="M687-225c189-1 272-84 286-260h300c-19 311-251 505-586 505C296 20 86-277 86-686c0-466 174-782 605-790 340-6 557 198 584 514H975c-15-183-92-268-284-268-100 0-173 38-225 108-63 84-76 264-76 443 0 157 24 272 72 345s122 109 225 109" id="U"/><path fill="#fff" d="M658-217c127 0 227-49 227-165 0-57-21-98-60-130-79-64-370-142-463-196-162-95-248-210-248-361 0-280 246-403 537-407 213-3 383 84 467 216 45 69 68 147 68 234H886c0-139-96-211-240-211-129 0-232 55-232 169 0 47 24 87 72 119s117 62 210 90c171 51 295 115 373 191s117 171 117 284c-2 272-237 411-528 404C331 13 78-135 69-458h301c0 161 96 241 288 241" id="V"/><path fill="#fff" d="M1245-974c0 302-233 466-552 461H430V0H130v-1456h568c323 5 547 167 547 482zm-303 2c1-143-93-241-237-241H430v457h268c151 1 244-71 244-216" id="W"/><path fill="#fff" d="M673-507H110v-233h563v233" id="X"/><path fill="#fff" d="M741-689c-2-124-40-177-163-178-82 0-141 34-178 102V0H111v-1082h271l9 121c77-94 180-141 311-141 139 0 235 55 287 165 76-110 184-165 325-165 249 0 348 151 348 411V0h-290v-690c-2-123-39-176-163-177-87 0-147 41-180 124l1 743H741v-689" id="Y"/><path fill="#fff" d="M552-1102c254-4 435 134 435 383v469c1 103 15 180 43 233V0H738c-13-26-23-58-29-97C639-19 548 20 436 20 238 20 64-113 68-304c5-258 212-357 496-357h133c11-137-29-227-160-227-90 0-156 45-156 131H92c15-231 213-342 460-345zM357-325c0 76 61 124 142 124 88 0 168-45 198-105v-186H589c-152 2-232 51-232 167" id="Z"/><path fill="#fff" d="M750-692c-1-124-48-174-173-175-81 0-142 35-183 104V0H105v-1082h272l9 125c77-97 181-145 311-145 244 0 342 151 342 403V0H750v-692" id="aa"/><path fill="#fff" d="M505 20C221 18 69-239 69-549c0-302 153-553 438-553 119 0 211 41 277 122l12-102h262V-36c-8 305-208 458-520 462-160 1-335-76-403-170L263 80c72 81 159 121 262 121 172 1 260-107 243-294C701-18 614 20 505 20zm76-887c-165 0-223 147-223 339 0 172 66 314 221 314 88 0 151-33 189-99v-455c-39-66-101-99-187-99" id="ab"/><path fill="#fff" d="M1031-175C952-60 797 20 609 20 287 20 60-206 72-543c12-330 180-559 505-559 309 0 482 214 477 537v118H365c15 134 115 234 263 234 111 0 198-40 261-121zM770-644c5-139-62-226-194-224-130 1-191 97-208 224h402" id="ac"/><path fill="#fff" d="M488 20C204 20 66-234 66-549c0-305 140-551 424-553 105 0 192 39 261 118v-552h290V0H780l-14-115C694-25 601 20 488 20zM355-528c0 176 51 314 207 314 89 0 152-38 189-113v-427c-36-75-98-113-187-113-139 0-209 113-209 339" id="ad"/><g id="a"><use transform="matrix(0.010850694444444444,0,0,0.010850694444444444,0,0)" xlink:href="#U"/><use transform="matrix(0.010850694444444444,0,0,0.010850694444444444,14.539930555555555,0)" xlink:href="#V"/><use transform="matrix(0.010850694444444444,0,0,0.010850694444444444,28.20095486111111,0)" xlink:href="#W"/><use transform="matrix(0.010850694444444444,0,0,0.010850694444444444,42.53472222222222,0)" xlink:href="#X"/><use transform="matrix(0.010850694444444444,0,0,0.010850694444444444,51.15017361111112,0)" xlink:href="#Y"/><use transform="matrix(0.010850694444444444,0,0,0.010850694444444444,70.38845486111111,0)" xlink:href="#Z"/><use transform="matrix(0.010850694444444444,0,0,0.010850694444444444,82.30251736111111,0)" xlink:href="#aa"/><use transform="matrix(0.010850694444444444,0,0,0.010850694444444444,94.74826388888889,0)" xlink:href="#Z"/><use transform="matrix(0.010850694444444444,0,0,0.010850694444444444,106.66232638888889,0)" xlink:href="#ab"/><use transform="matrix(0.010850694444444444,0,0,0.010850694444444444,119.34678819444444,0)" xlink:href="#ac"/><use transform="matrix(0.010850694444444444,0,0,0.010850694444444444,131.35850694444446,0)" xlink:href="#ad"/></g><path fill="#fff" d="M355-556c-2 203 30 338 206 343 102 3 181-63 182-161h271C1001-128 821 17 566 20 242 24 66-212 66-554c0-320 184-548 498-548 262 0 451 167 450 423H743c-1-108-75-193-184-189-162 6-202 123-204 312" id="ae"/><path fill="#fff" d="M416 0H126v-1536h290V0" id="af"/><path fill="#fff" d="M463 20c-241-1-359-147-359-393v-709h289v699c0 113 51 169 154 169 98 0 165-34 202-102v-766h290V0H767l-8-110C688-23 589 20 463 20" id="ag"/><path fill="#fff" d="M529-185c94 0 168-33 168-114 0-35-18-63-53-83s-91-39-168-55C219-491 90-600 90-765c0-208 203-337 432-337 246 0 451 124 453 349H686c-2-91-62-143-165-143-86 0-151 41-153 117 0 32 16 57 46 77 63 43 257 69 335 100 151 60 229 153 229 291C978-13 554 93 282-28 162-81 60-190 56-344h274c5 106 86 159 199 159" id="ah"/><path fill="#fff" d="M457-330c2 83 25 111 111 112 32 0 60-2 85-7V-6c-57 17-115 26-175 26-203 0-310-102-310-307v-583H10v-212h158v-266h289v266h185v212H457v540" id="ai"/><path fill="#fff" d="M719-811c-143-24-279 1-319 103V0H111v-1082h273l8 129c74-124 180-175 331-136" id="aj"/><g id="b"><use transform="matrix(0.010850694444444444,0,0,0.010850694444444444,0,0)" xlink:href="#ae"/><use transform="matrix(0.010850694444444444,0,0,0.010850694444444444,11.588541666666666,0)" xlink:href="#af"/><use transform="matrix(0.010850694444444444,0,0,0.010850694444444444,17.48046875,0)" xlink:href="#ag"/><use transform="matrix(0.010850694444444444,0,0,0.010850694444444444,29.915364583333332,0)" xlink:href="#ah"/><use transform="matrix(0.010850694444444444,0,0,0.010850694444444444,41.34114583333333,0)" xlink:href="#ai"/><use transform="matrix(0.010850694444444444,0,0,0.010850694444444444,48.849826388888886,0)" xlink:href="#ac"/><use transform="matrix(0.010850694444444444,0,0,0.010850694444444444,60.861545138888886,0)" xlink:href="#aj"/><use transform="matrix(0.010850694444444444,0,0,0.010850694444444444,68.96701388888889,0)" xlink:href="#ah"/></g><path d="M1245-974c0 302-233 466-552 461H430V0H130v-1456h568c323 5 547 167 547 482zm-303 2c1-143-93-241-237-241H430v457h268c151 1 244-71 244-216" id="ak"/><path d="M399-777c-11 316 60 556 342 556 113 0 193-24 241-72v-251H709v-221h573v581C1177-55 960 24 725 20 280 12 81-292 94-770c11-421 200-700 610-706 347-5 543 171 578 483H990c-25-157-105-241-277-241-102 0-180 38-233 115s-76 191-81 342" id="al"/><g id="c"><use transform="matrix(0.015190972222222224,0,0,0.015190972222222224,0,0)" xlink:href="#ak"/><use transform="matrix(0.015190972222222224,0,0,0.015190972222222224,20.067274305555557,0)" xlink:href="#al"/></g><path d="M952-300H426L326 0H7l542-1456h278L1372 0h-319zM507-543h364l-183-545" id="am"/><path d="M449 0H149v-1456h300V0" id="an"/><g id="d"><use transform="matrix(0.015190972222222224,0,0,0.015190972222222224,0,0)" xlink:href="#am"/><use transform="matrix(0.015190972222222224,0,0,0.015190972222222224,20.933159722222225,0)" xlink:href="#an"/></g><path d="M1315 0h-300v-624H430V0H130v-1456h300v590h585v-590h300V0" id="ao"/><path d="M515-409l200-673h310L590 168c-66 202-236 321-472 250V199c127 7 198-15 230-107l34-89L3-1082h311" id="ap"/><path d="M663-1102c295 0 423 246 423 571 0 313-131 551-421 551-117 0-211-45-281-135L371 0H111v-1536h289v551c67-78 154-117 263-117zm-71 889c164 0 209-139 205-339-3-189-44-315-207-315-92 0-155 38-190 113v427c35 76 99 114 192 114" id="aq"/><path d="M719-811c-143-24-279 1-319 103V0H111v-1082h273l8 129c74-124 180-175 331-136" id="ar"/><path d="M416 0H126v-1082h290V0zM271-1212c-92 0-162-61-162-150s68-149 162-149c93 0 162 60 162 149s-70 150-162 150" id="as"/><path d="M488 20C204 20 66-234 66-549c0-305 140-551 424-553 105 0 192 39 261 118v-552h290V0H780l-14-115C694-25 601 20 488 20zM355-528c0 176 51 314 207 314 89 0 152-38 189-113v-427c-36-75-98-113-187-113-139 0-209 113-209 339" id="at"/><g id="e"><use transform="matrix(0.015190972222222224,0,0,0.015190972222222224,0,0)" xlink:href="#ao"/><use transform="matrix(0.015190972222222224,0,0,0.015190972222222224,21.981336805555557,0)" xlink:href="#ap"/><use transform="matrix(0.015190972222222224,0,0,0.015190972222222224,37.59765625,0)" xlink:href="#aq"/><use transform="matrix(0.015190972222222224,0,0,0.015190972222222224,55.11284722222223,0)" xlink:href="#ar"/><use transform="matrix(0.015190972222222224,0,0,0.015190972222222224,66.46050347222223,0)" xlink:href="#as"/><use transform="matrix(0.015190972222222224,0,0,0.015190972222222224,74.7092013888889,0)" xlink:href="#at"/></g><path d="M522-1456L896-400l372-1056h394V0h-301c-7-379 15-728 30-1085L998 0H792L400-1084c15 357 37 705 30 1084H130v-1456h392" id="au"/><path d="M552-1102c254-4 435 134 435 383v469c1 103 15 180 43 233V0H738c-13-26-23-58-29-97C639-19 548 20 436 20 238 20 64-113 68-304c5-258 212-357 496-357h133c11-137-29-227-160-227-90 0-156 45-156 131H92c15-231 213-342 460-345zM357-325c0 76 61 124 142 124 88 0 168-45 198-105v-186H589c-152 2-232 51-232 167" id="av"/><path d="M750-692c-1-124-48-174-173-175-81 0-142 35-183 104V0H105v-1082h272l9 125c77-97 181-145 311-145 244 0 342 151 342 403V0H750v-692" id="aw"/><path d="M505 20C221 18 69-239 69-549c0-302 153-553 438-553 119 0 211 41 277 122l12-102h262V-36c-8 305-208 458-520 462-160 1-335-76-403-170L263 80c72 81 159 121 262 121 172 1 260-107 243-294C701-18 614 20 505 20zm76-887c-165 0-223 147-223 339 0 172 66 314 221 314 88 0 151-33 189-99v-455c-39-66-101-99-187-99" id="ax"/><path d="M1031-175C952-60 797 20 609 20 287 20 60-206 72-543c12-330 180-559 505-559 309 0 482 214 477 537v118H365c15 134 115 234 263 234 111 0 198-40 261-121zM770-644c5-139-62-226-194-224-130 1-191 97-208 224h402" id="ay"/><g id="f"><use transform="matrix(0.015190972222222224,0,0,0.015190972222222224,0,0)" xlink:href="#au"/><use transform="matrix(0.015190972222222224,0,0,0.015190972222222224,27.252604166666668,0)" xlink:href="#av"/><use transform="matrix(0.015190972222222224,0,0,0.015190972222222224,43.93229166666667,0)" xlink:href="#aw"/><use transform="matrix(0.015190972222222224,0,0,0.015190972222222224,61.35633680555556,0)" xlink:href="#av"/><use transform="matrix(0.015190972222222224,0,0,0.015190972222222224,78.03602430555556,0)" xlink:href="#ax"/><use transform="matrix(0.015190972222222224,0,0,0.015190972222222224,95.79427083333334,0)" xlink:href="#ay"/><use transform="matrix(0.015190972222222224,0,0,0.015190972222222224,112.61067708333334,0)" xlink:href="#ar"/></g><path d="M579 20C257 20 58-214 66-551c8-331 182-551 511-551 324 0 514 231 514 572 0 319-198 550-512 550zm-2-888c-169 0-222 141-222 338 0 181 61 317 224 317 170 0 223-137 223-338 0-178-64-317-225-317" id="az"/><path d="M457-330c2 83 25 111 111 112 32 0 60-2 85-7V-6c-57 17-115 26-175 26-203 0-310-102-310-307v-583H10v-212h158v-266h289v266h185v212H457v540" id="aA"/><g id="g"><use transform="matrix(0.015190972222222224,0,0,0.015190972222222224,0,0)" xlink:href="#au"/><use transform="matrix(0.015190972222222224,0,0,0.015190972222222224,27.252604166666668,0)" xlink:href="#az"/><use transform="matrix(0.015190972222222224,0,0,0.015190972222222224,44.84375,0)" xlink:href="#aw"/><use transform="matrix(0.015190972222222224,0,0,0.015190972222222224,62.26779513888888,0)" xlink:href="#as"/><use transform="matrix(0.015190972222222224,0,0,0.015190972222222224,70.51649305555556,0)" xlink:href="#aA"/><use transform="matrix(0.015190972222222224,0,0,0.015190972222222224,80.57291666666666,0)" xlink:href="#az"/><use transform="matrix(0.015190972222222224,0,0,0.015190972222222224,98.1640625,0)" xlink:href="#ar"/><use transform="matrix(0.015190972222222224,0,0,0.015190972222222224,109.51171875,0)" xlink:href="#as"/><use transform="matrix(0.015190972222222224,0,0,0.015190972222222224,117.76041666666667,0)" xlink:href="#aw"/><use transform="matrix(0.015190972222222224,0,0,0.015190972222222224,135.18446180555557,0)" xlink:href="#ax"/></g><path fill="#fff" d="M522-1456L896-400l372-1056h394V0h-301c-7-379 15-728 30-1085L998 0H792L400-1084c15 357 37 705 30 1084H130v-1456h392" id="aB"/><path fill="#fff" d="M579 20C257 20 58-214 66-551c8-331 182-551 511-551 324 0 514 231 514 572 0 319-198 550-512 550zm-2-888c-169 0-222 141-222 338 0 181 61 317 224 317 170 0 223-137 223-338 0-178-64-317-225-317" id="aC"/><path fill="#fff" d="M416 0H126v-1082h290V0zM271-1212c-92 0-162-61-162-150s68-149 162-149c93 0 162 60 162 149s-70 150-162 150" id="aD"/><g id="h"><use transform="matrix(0.010850694444444444,0,0,0.010850694444444444,0,0)" xlink:href="#aB"/><use transform="matrix(0.010850694444444444,0,0,0.010850694444444444,19.466145833333332,0)" xlink:href="#aC"/><use transform="matrix(0.010850694444444444,0,0,0.010850694444444444,32.03125,0)" xlink:href="#aa"/><use transform="matrix(0.010850694444444444,0,0,0.010850694444444444,44.47699652777778,0)" xlink:href="#aD"/><use transform="matrix(0.010850694444444444,0,0,0.010850694444444444,50.36892361111112,0)" xlink:href="#ai"/><use transform="matrix(0.010850694444444444,0,0,0.010850694444444444,57.55208333333333,0)" xlink:href="#aC"/><use transform="matrix(0.010850694444444444,0,0,0.010850694444444444,70.1171875,0)" xlink:href="#aj"/><use transform="matrix(0.010850694444444444,0,0,0.010850694444444444,78.22265625,0)" xlink:href="#aD"/><use transform="matrix(0.010850694444444444,0,0,0.010850694444444444,84.11458333333333,0)" xlink:href="#aa"/><use transform="matrix(0.010850694444444444,0,0,0.010850694444444444,96.56032986111111,0)" xlink:href="#ab"/></g><path fill="#fff" d="M516-353l201-729h302L654 0H378L13-1082h302" id="aE"/><g id="i"><use transform="matrix(0.010850694444444444,0,0,0.010850694444444444,0,0)" xlink:href="#ah"/><use transform="matrix(0.010850694444444444,0,0,0.010850694444444444,11.42578125,0)" xlink:href="#ac"/><use transform="matrix(0.010850694444444444,0,0,0.010850694444444444,23.4375,0)" xlink:href="#aj"/><use transform="matrix(0.010850694444444444,0,0,0.010850694444444444,31.73828125,0)" xlink:href="#aE"/><use transform="matrix(0.010850694444444444,0,0,0.010850694444444444,42.96875,0)" xlink:href="#aD"/><use transform="matrix(0.010850694444444444,0,0,0.010850694444444444,48.86067708333333,0)" xlink:href="#ae"/><use transform="matrix(0.010850694444444444,0,0,0.010850694444444444,60.44921875,0)" xlink:href="#ac"/><use transform="matrix(0.010850694444444444,0,0,0.010850694444444444,72.4609375,0)" xlink:href="#ah"/></g><path d="M234-422c-13 180 114 285 295 285s328-86 348-238c15-107-40-185-166-234-77-30-158-55-231-88-195-89-289-214-273-374 26-261 247-405 533-405 268 0 447 166 441 442l-189-1c15-178-89-280-260-283-175-3-317 91-335 244-12 100 47 175 183 226 75 28 154 52 224 85 188 87 278 216 261 386-26 266-254 397-544 397C245 20 38-139 46-423" id="aF"/><path d="M509-1344l-46 262h197l-25 143H439L326-266c-10 74 15 129 84 126 22 0 51-3 88-10L484 1C371 33 244 25 190-60c-34-53-56-122-42-209l110-670H67l25-143h191l46-262h180" id="aG"/><path d="M693 0c-10-37-6-74-4-114C590-22 484 20 373 20 194 20 47-112 59-292c17-247 243-368 520-365l189 1c15-84 22-185-26-240-65-75-223-71-306-12-47 33-77 73-88 125l-182 1c29-208 221-321 452-321 215 0 378 144 342 364l-88 536c-5 65-10 126 7 186l-2 17H693zM280-192c64 73 206 62 294 10 51-30 96-69 133-120l39-223c-244-11-476 9-502 206-6 51 6 93 36 127" id="aH"/><path d="M231-333c-1 124 89 201 217 201 122 0 240-56 253-161 9-75-30-131-123-158l-188-55c-159-55-234-145-230-272 6-193 214-324 421-324 206 0 374 135 365 339l-180-1c4-110-81-185-192-185-115 0-223 63-235 164-8 63 29 112 115 137 217 64 438 103 427 341C871-88 677 18 442 20 228 22 41-122 50-334" id="aI"/><g id="k"><use transform="matrix(0.010850694444444444,0,0,0.010850694444444444,0,0)" xlink:href="#aF"/><use transform="matrix(0.010850694444444444,0,0,0.010850694444444444,12.901475694444445,0)" xlink:href="#aG"/><use transform="matrix(0.010850694444444444,0,0,0.010850694444444444,20.052083333333332,0)" xlink:href="#aH"/><use transform="matrix(0.010850694444444444,0,0,0.010850694444444444,31.89019097222222,0)" xlink:href="#aG"/><use transform="matrix(0.010850694444444444,0,0,0.010850694444444444,39.04079861111111,0)" xlink:href="#aI"/></g><path d="M1169-464C1124-185 892 29 575 20 229 9 88-284 127-654c28-268 101-490 247-638 124-125 272-187 447-184 282 5 447 200 452 489h-187c-12-217-93-327-273-332-126-3-229 46-315 141-126 140-178 379-192 636-12 223 75 401 278 405 238 4 341-122 403-324" id="aJ"/><path d="M368-1032c145-90 364-94 497 4 125 92 200 279 173 497-26 214-136 393-288 484-146 88-361 90-494-7C135-143 64-314 82-523c19-226 133-414 286-509zm19 191c-89 104-138 255-123 450 11 144 88 261 232 261 228 0 333-194 361-401 31-227-34-407-232-420-93-6-173 35-238 110" id="aK"/><path d="M227 0H47l266-1536h181" id="aL"/><path d="M267-488c-26 188 71 355 247 357 107 1 205-45 296-144l104 88C832-68 690 21 499 20 214 19 51-235 92-543c28-211 142-407 287-495 158-96 394-79 506 47 97 108 124 311 89 503H267zm509-376c-76-117-261-108-358-11-54 54-99 131-132 235l526 1c18-84 2-166-36-225" id="aM"/><path d="M326-201c75 91 241 91 337 15 51-40 86-91 102-154l171-1C897-129 721 20 480 20 176 20 48-242 89-567c26-210 129-382 279-471 164-98 412-83 528 50 66 75 102 166 102 279l-169-1c-1-136-82-241-213-241-267 0-370 265-356 565 4 78 28 139 66 185" id="aN"/><path d="M704-917c-165-30-276 20-359 148L212 0H31l188-1082 175-1-27 126c100-123 200-175 357-132" id="aO"/><g id="l"><use transform="matrix(0.010850694444444444,0,0,0.010850694444444444,0,0)" xlink:href="#aJ"/><use transform="matrix(0.010850694444444444,0,0,0.010850694444444444,14.13845486111111,0)" xlink:href="#aK"/><use transform="matrix(0.010850694444444444,0,0,0.010850694444444444,26.54079861111111,0)" xlink:href="#aL"/><use transform="matrix(0.010850694444444444,0,0,0.010850694444444444,31.879340277777775,0)" xlink:href="#aL"/><use transform="matrix(0.010850694444444444,0,0,0.010850694444444444,37.21788194444444,0)" xlink:href="#aM"/><use transform="matrix(0.010850694444444444,0,0,0.010850694444444444,48.74131944444444,0)" xlink:href="#aN"/><use transform="matrix(0.010850694444444444,0,0,0.010850694444444444,60.13454861111111,0)" xlink:href="#aG"/><use transform="matrix(0.010850694444444444,0,0,0.010850694444444444,67.06814236111111,0)" xlink:href="#aK"/><use transform="matrix(0.010850694444444444,0,0,0.010850694444444444,79.47048611111111,0)" xlink:href="#aO"/></g><path d="M275-157h670L917 0H59l253-1456h189" id="aP"/><path d="M419-499L277-372 213 0H32l267-1536h181L320-618c157-163 330-309 495-464h235L553-621 895 0H697" id="aQ"/><path d="M227 0H47l188-1082h180zm73-1444c36-38 112-44 152-6 39 38 38 117 0 155-36 37-114 43-153 5s-35-116 1-154" id="aR"/><g id="m"><use transform="matrix(0.010850694444444444,0,0,0.010850694444444444,0,0)" xlink:href="#aP"/><use transform="matrix(0.010850694444444444,0,0,0.010850694444444444,11.707899305555555,0)" xlink:href="#aK"/><use transform="matrix(0.010850694444444444,0,0,0.010850694444444444,24.110243055555554,0)" xlink:href="#aQ"/><use transform="matrix(0.010850694444444444,0,0,0.010850694444444444,35.14539930555556,0)" xlink:href="#aR"/></g><path fill="#fff" d="M1315 0h-300v-624H430V0H130v-1456h300v590h585v-590h300V0" id="aS"/><g id="n"><use transform="matrix(0.010850694444444444,0,0,0.010850694444444444,0,0)" xlink:href="#aS"/><use transform="matrix(0.010850694444444444,0,0,0.010850694444444444,15.70095486111111,0)" xlink:href="#aB"/><use transform="matrix(0.010850694444444444,0,0,0.010850694444444444,35.16710069444444,0)" xlink:href="#X"/><use transform="matrix(0.010850694444444444,0,0,0.010850694444444444,43.78255208333333,0)" xlink:href="#Y"/><use transform="matrix(0.010850694444444444,0,0,0.010850694444444444,63.02083333333333,0)" xlink:href="#Z"/><use transform="matrix(0.010850694444444444,0,0,0.010850694444444444,74.93489583333333,0)" xlink:href="#aa"/><use transform="matrix(0.010850694444444444,0,0,0.010850694444444444,87.3806423611111,0)" xlink:href="#Z"/><use transform="matrix(0.010850694444444444,0,0,0.010850694444444444,99.29470486111111,0)" xlink:href="#ab"/><use transform="matrix(0.010850694444444444,0,0,0.010850694444444444,111.97916666666666,0)" xlink:href="#ac"/><use transform="matrix(0.010850694444444444,0,0,0.010850694444444444,123.99088541666666,0)" xlink:href="#ad"/></g><path d="M798-1455c280-6 475 162 452 437-24 282-246 450-558 449l-346-1L247 0H59l253-1456zM373-727l324 1c202 2 344-111 366-291 21-169-84-279-246-280l-345-1" id="aT"/><path d="M388-1083l-23 121c91-96 200-143 329-140 138 2 239 67 273 174 101-119 221-177 359-174 217 3 334 162 296 391L1503 0h-180l118-713c18-149-38-232-178-234-141-2-262 104-283 228L857 0H675l120-712c18-144-45-231-178-233-113-3-202 49-269 154L211 0H30l188-1082" id="aU"/><path d="M369-950c95-103 204-154 327-151 212 3 318 162 280 392L858 0H677l119-712c18-142-34-234-164-234-111 0-206 55-286 174L212 0H31l267-1536h181" id="aV"/><path d="M718-107C633-20 526 23 395 20 181 15 71-151 110-383l116-699h181L290-380c-17 133 23 239 147 243 129 4 229-48 300-157l136-788h181L866 0H695" id="aW"/><g id="o"><use transform="matrix(0.010850694444444444,0,0,0.010850694444444444,0,0)" xlink:href="#aT"/><use transform="matrix(0.010850694444444444,0,0,0.010850694444444444,13.704427083333332,0)" xlink:href="#aO"/><use transform="matrix(0.010850694444444444,0,0,0.010850694444444444,20.887586805555554,0)" xlink:href="#aK"/><use transform="matrix(0.010850694444444444,0,0,0.010850694444444444,33.28993055555556,0)" xlink:href="#aU"/><use transform="matrix(0.010850694444444444,0,0,0.010850694444444444,52.28949652777778,0)" xlink:href="#aM"/><use transform="matrix(0.010850694444444444,0,0,0.010850694444444444,63.81293402777778,0)" xlink:href="#aG"/><use transform="matrix(0.010850694444444444,0,0,0.010850694444444444,70.96354166666667,0)" xlink:href="#aV"/><use transform="matrix(0.010850694444444444,0,0,0.010850694444444444,82.94270833333334,0)" xlink:href="#aM"/><use transform="matrix(0.010850694444444444,0,0,0.010850694444444444,94.46614583333334,0)" xlink:href="#aW"/><use transform="matrix(0.010850694444444444,0,0,0.010850694444444444,106.45616319444446,0)" xlink:href="#aI"/></g><path d="M682-781h394l-31 175H652l-80 460H390l80-460H76l31-175h393l74-425h182" id="aX"/><use transform="matrix(0.010850694444444444,0,0,0.010850694444444444,0,0)" xlink:href="#aX" id="p"/><path d="M1261-1298H808L583 0H396l225-1298H168l28-158h1093" id="aY"/><path d="M390-1083l-26 137c97-107 208-159 332-156 212 6 319 161 280 393L858 0H677l119-712c18-142-34-234-164-234-109 0-204 56-286 174L212 0H31l188-1082" id="aZ"/><g id="q"><use transform="matrix(0.010850694444444444,0,0,0.010850694444444444,0,0)" xlink:href="#aY"/><use transform="matrix(0.010850694444444444,0,0,0.010850694444444444,12.96657986111111,0)" xlink:href="#aV"/><use transform="matrix(0.010850694444444444,0,0,0.010850694444444444,24.94574652777778,0)" xlink:href="#aH"/><use transform="matrix(0.010850694444444444,0,0,0.010850694444444444,36.78385416666667,0)" xlink:href="#aZ"/><use transform="matrix(0.010850694444444444,0,0,0.010850694444444444,48.78472222222223,0)" xlink:href="#aK"/><use transform="matrix(0.010850694444444444,0,0,0.010850694444444444,61.18706597222223,0)" xlink:href="#aI"/></g><path fill="#fff" d="M190-1174c-11-296 244-440 544-363l-3 224c-24-6-53-9-88-9-109 0-163 51-163 153v87h215v212H480V0H190v-870H29v-212h161v-92" id="ba"/><g id="r"><use transform="matrix(0.010850694444444444,0,0,0.010850694444444444,0,0)" xlink:href="#V"/><use transform="matrix(0.010850694444444444,0,0,0.010850694444444444,13.661024305555555,0)" xlink:href="#ac"/><use transform="matrix(0.010850694444444444,0,0,0.010850694444444444,25.67274305555556,0)" xlink:href="#af"/><use transform="matrix(0.010850694444444444,0,0,0.010850694444444444,31.56467013888889,0)" xlink:href="#ba"/><use transform="matrix(0.010850694444444444,0,0,0.010850694444444444,39.529079861111114,0)" xlink:href="#X"/><use transform="matrix(0.010850694444444444,0,0,0.010850694444444444,48.14453125,0)" xlink:href="#Y"/><use transform="matrix(0.010850694444444444,0,0,0.010850694444444444,67.3828125,0)" xlink:href="#Z"/><use transform="matrix(0.010850694444444444,0,0,0.010850694444444444,79.296875,0)" xlink:href="#aa"/><use transform="matrix(0.010850694444444444,0,0,0.010850694444444444,91.74262152777777,0)" xlink:href="#Z"/><use transform="matrix(0.010850694444444444,0,0,0.010850694444444444,103.65668402777777,0)" xlink:href="#ab"/><use transform="matrix(0.010850694444444444,0,0,0.010850694444444444,116.34114583333333,0)" xlink:href="#ac"/><use transform="matrix(0.010850694444444444,0,0,0.010850694444444444,128.35286458333331,0)" xlink:href="#ad"/></g><path d="M645 0H180v-1490h484c435 0 692 280 692 742 0 466-257 748-711 748zM370-168h263c363 0 539-218 539-580 0-358-176-574-521-574H370v1154" id="bb"/><path d="M471 26C259 26 90-98 90-318c0-256 228-303 435-329 202-27 287-16 287-108 0-139-79-219-234-219-161 0-248 86-283 164l-173-57c86-203 278-265 451-265 150 0 419 46 419 395V0H815v-152h-12C765-73 660 26 471 26zm31-159c199 0 310-134 310-271v-155c-30 35-226 55-295 64-131 17-246 59-246 186 0 116 97 176 231 176" id="bc"/><path d="M598-1118v154H368v674c0 100 37 144 132 144 23 0 62-6 92-12L629-6c-37 13-88 20-134 20-193 0-307-107-307-290v-688H20v-154h168v-266h180v266h230" id="bd"/><g id="s"><use transform="matrix(0.008680555555555556,0,0,0.008680555555555556,0,0)" xlink:href="#bb"/><use transform="matrix(0.008680555555555556,0,0,0.008680555555555556,12.829861111111112,0)" xlink:href="#bc"/><use transform="matrix(0.008680555555555556,0,0,0.008680555555555556,22.8125,0)" xlink:href="#bd"/><use transform="matrix(0.008680555555555556,0,0,0.008680555555555556,28.71527777777778,0)" xlink:href="#bc"/></g><path d="M158 0v-1118h180V0H158zm91-1301c-68 0-125-53-125-119s57-119 125-119c69 0 126 53 126 119s-57 119-126 119" id="be"/><path d="M338-670V0H158v-1118h173l1 207c72-158 192-221 342-221 226 0 378 139 378 422V0H872v-695c0-172-96-275-252-275-161 0-282 109-282 300" id="bf"/><path d="M611 442c-248 0-391-105-460-228l146-94c47 65 117 165 314 165 178 0 307-82 307-266v-224h-17C863-141 792-18 576-18c-268 0-472-195-472-546 0-346 197-568 476-568 216 0 288 133 326 193h17v-179h175V29c0 289-215 413-487 413zm-5-620c203 0 314-146 314-390 0-237-108-403-314-403-213 0-319 180-319 403 0 230 109 390 319 390" id="bg"/><path d="M628 24c-324 0-524-230-524-574 0-343 198-582 503-582 237 0 487 146 487 559v75H286c9 234 145 362 343 362 132 0 231-58 273-172l174 48C1024-91 857 24 628 24zM287-650h624c-17-190-120-322-304-322-192 0-309 151-320 322" id="bh"/><path d="M538 24C308 24 148-78 108-271l171-41c32 123 123 178 257 178 156 0 256-77 256-169 0-77-54-128-164-154l-186-44c-203-48-300-148-300-305 0-192 176-326 414-326 230 0 351 112 402 269l-163 42c-31-80-94-158-238-158-133 0-233 69-233 162 0 83 57 129 188 160l169 40c203 48 298 149 298 302 0 196-179 339-441 339" id="bi"/><path d="M613 24c-304 0-509-231-509-576 0-350 205-580 509-580 305 0 511 230 511 580 0 345-206 576-511 576zm0-161c226 0 329-195 329-415 0-222-103-419-329-419-223 0-326 196-326 419 0 220 103 415 326 415" id="bj"/><g id="t"><use transform="matrix(0.008680555555555556,0,0,0.008680555555555556,0,0)" xlink:href="#be"/><use transform="matrix(0.008680555555555556,0,0,0.008680555555555556,4.305555555555555,0)" xlink:href="#bf"/><use transform="matrix(0.008680555555555556,0,0,0.008680555555555556,14.809027777777779,0)" xlink:href="#bg"/><use transform="matrix(0.008680555555555556,0,0,0.008680555555555556,25.711805555555557,0)" xlink:href="#bh"/><use transform="matrix(0.008680555555555556,0,0,0.008680555555555556,36.07638888888889,0)" xlink:href="#bi"/><use transform="matrix(0.008680555555555556,0,0,0.008680555555555556,45.46006944444445,0)" xlink:href="#bd"/><use transform="matrix(0.008680555555555556,0,0,0.008680555555555556,51.27604166666667,0)" xlink:href="#be"/><use transform="matrix(0.008680555555555556,0,0,0.008680555555555556,55.58159722222222,0)" xlink:href="#bj"/><use transform="matrix(0.008680555555555556,0,0,0.008680555555555556,66.24131944444446,0)" xlink:href="#bf"/></g><path d="M783 20c-382 0-661-292-661-764 0-473 279-766 661-766 302 0 548 182 601 489h-190c-42-204-217-313-411-313-268 0-476 208-476 590 0 381 209 588 476 588 195 0 369-110 411-313h190c-52 303-296 489-601 489" id="bk"/><path d="M338-1490V0H158v-1490h180" id="bl"/><path d="M537 14c-226 0-379-139-379-422v-710h180v695c0 172 97 275 253 275 160 0 281-109 281-300v-670h181V0H879v-209C806-46 684 14 537 14" id="bm"/><path d="M158 0v-1118h174v172h12c41-113 157-188 290-188 26 0 70 2 91 3v181c-11-2-60-10-108-10-161 0-279 109-279 260V0H158" id="bn"/><g id="u"><use transform="matrix(0.008680555555555556,0,0,0.008680555555555556,0,0)" xlink:href="#bk"/><use transform="matrix(0.008680555555555556,0,0,0.008680555555555556,12.986111111111112,0)" xlink:href="#bl"/><use transform="matrix(0.008680555555555556,0,0,0.008680555555555556,17.291666666666668,0)" xlink:href="#bm"/><use transform="matrix(0.008680555555555556,0,0,0.008680555555555556,27.803819444444446,0)" xlink:href="#bi"/><use transform="matrix(0.008680555555555556,0,0,0.008680555555555556,37.1875,0)" xlink:href="#bd"/><use transform="matrix(0.008680555555555556,0,0,0.008680555555555556,42.82986111111111,0)" xlink:href="#bh"/><use transform="matrix(0.008680555555555556,0,0,0.008680555555555556,53.19444444444445,0)" xlink:href="#bn"/><use transform="matrix(0.008680555555555556,0,0,0.008680555555555556,59.88715277777778,0)" xlink:href="#bi"/></g><path d="M158 0v-1118h175l1 205c55-151 181-225 313-225 147 0 245 90 285 228 53-141 190-228 352-228 194 0 352 125 352 384V0h-181v-749c0-161-105-225-225-225-151 0-243 103-243 244V0H807v-767c0-124-93-207-219-207-131 0-250 92-250 270V0H158" id="bo"/><path d="M577 24c-279 0-473-224-473-580 0-354 195-576 474-576 218 0 287 134 324 193h14v-551h180V0H922v-173h-20C865-111 790 24 577 24zm27-161c203 0 314-172 314-421 0-247-108-413-314-413-212 0-317 181-317 413 0 235 108 421 317 421" id="bp"/><g id="v"><use transform="matrix(0.008680555555555556,0,0,0.008680555555555556,0,0)" xlink:href="#bo"/><use transform="matrix(0.008680555555555556,0,0,0.008680555555555556,15.572916666666668,0)" xlink:href="#bc"/><use transform="matrix(0.008680555555555556,0,0,0.008680555555555556,25.555555555555557,0)" xlink:href="#bf"/><use transform="matrix(0.008680555555555556,0,0,0.008680555555555556,36.05902777777778,0)" xlink:href="#bc"/><use transform="matrix(0.008680555555555556,0,0,0.008680555555555556,46.04166666666667,0)" xlink:href="#bg"/><use transform="matrix(0.008680555555555556,0,0,0.008680555555555556,56.94444444444445,0)" xlink:href="#bh"/><use transform="matrix(0.008680555555555556,0,0,0.008680555555555556,67.30902777777779,0)" xlink:href="#bp"/></g><path d="M677 24c-213 0-288-135-325-197h-20V0H158v-1490h180v551h14c37-59 106-193 324-193 279 0 474 222 474 576 0 356-194 580-473 580zm-27-161c209 0 317-186 317-421 0-232-105-413-317-413-206 0-314 166-314 413 0 249 111 421 314 421" id="bq"/><path d="M140 405l46-156c120 36 205 19 263-150l32-93L54-1118h197c107 313 237 620 324 950 87-331 219-637 326-950h196L606 167c-68 178-176 259-334 259-64 0-113-12-132-21" id="br"/><g id="w"><use transform="matrix(0.008680555555555556,0,0,0.008680555555555556,0,0)" xlink:href="#bq"/><use transform="matrix(0.008680555555555556,0,0,0.008680555555555556,10.538194444444446,0)" xlink:href="#br"/></g><path d="M338-670V0H158v-1490h180v566c73-149 190-208 336-208 226 0 379 139 379 422V0H872v-695c0-172-96-275-252-275-161 0-282 109-282 300" id="bs"/><g id="x"><use transform="matrix(0.008680555555555556,0,0,0.008680555555555556,0,0)" xlink:href="#bd"/><use transform="matrix(0.008680555555555556,0,0,0.008680555555555556,5.815972222222222,0)" xlink:href="#bs"/><use transform="matrix(0.008680555555555556,0,0,0.008680555555555556,16.328125,0)" xlink:href="#bh"/></g><path d="M180 0v-1490h190v644h782v-644h190V0h-190v-678H370V0H180" id="bt"/><g id="y"><use transform="matrix(0.008680555555555556,0,0,0.008680555555555556,0,0)" xlink:href="#bt"/><use transform="matrix(0.008680555555555556,0,0,0.008680555555555556,13.298611111111112,0)" xlink:href="#br"/><use transform="matrix(0.008680555555555556,0,0,0.008680555555555556,23.37673611111111,0)" xlink:href="#bq"/><use transform="matrix(0.008680555555555556,0,0,0.008680555555555556,34.26215277777778,0)" xlink:href="#bn"/><use transform="matrix(0.008680555555555556,0,0,0.008680555555555556,41.23263888888889,0)" xlink:href="#be"/><use transform="matrix(0.008680555555555556,0,0,0.008680555555555556,45.53819444444445,0)" xlink:href="#bp"/></g><path d="M180 0v-1490h270l367 940c28 72 75 218 110 339 35-117 81-264 110-339l362-940h271V0h-187c2-448-5-837 7-1287-157 497-311 829-483 1287H842C666-458 514-784 354-1284c12 438 5 843 7 1284H180" id="bu"/><g id="z"><use transform="matrix(0.008680555555555556,0,0,0.008680555555555556,0,0)" xlink:href="#bu"/><use transform="matrix(0.008680555555555556,0,0,0.008680555555555556,16.05902777777778,0)" xlink:href="#bc"/><use transform="matrix(0.008680555555555556,0,0,0.008680555555555556,26.041666666666668,0)" xlink:href="#bf"/><use transform="matrix(0.008680555555555556,0,0,0.008680555555555556,36.54513888888889,0)" xlink:href="#bc"/><use transform="matrix(0.008680555555555556,0,0,0.008680555555555556,46.527777777777786,0)" xlink:href="#bg"/><use transform="matrix(0.008680555555555556,0,0,0.008680555555555556,57.430555555555564,0)" xlink:href="#bh"/><use transform="matrix(0.008680555555555556,0,0,0.008680555555555556,67.7951388888889,0)" xlink:href="#bn"/></g><path d="M657 26c-323 0-524-166-541-416h195c15 169 171 246 346 246 202 0 356-106 356-265 5-203-294-238-475-293-239-73-380-191-380-389 0-252 224-419 512-419 294 0 499 171 508 396H992c-17-145-151-228-328-228-193 0-321 102-321 242 0 156 175 211 284 241l149 41c160 44 422 134 422 412 0 244-197 432-541 432" id="bv"/><path d="M180 0v-1490h510c348 0 508 209 508 474 0 266-160 477-507 477H370V0H180zm190-706h312c236 0 327-133 327-310 0-176-91-307-329-307H370v617" id="bw"/><path d="M798-719v166H144v-166h654" id="bx"/><g id="A"><use transform="matrix(0.008680555555555556,0,0,0.008680555555555556,0,0)" xlink:href="#bk"/><use transform="matrix(0.008680555555555556,0,0,0.008680555555555556,12.986111111111112,0)" xlink:href="#bv"/><use transform="matrix(0.008680555555555556,0,0,0.008680555555555556,24.392361111111118,0)" xlink:href="#bw"/><use transform="matrix(0.008680555555555556,0,0,0.008680555555555556,34.939236111111114,0)" xlink:href="#bx"/><use transform="matrix(0.008680555555555556,0,0,0.008680555555555556,43.11631944444444,0)" xlink:href="#bo"/><use transform="matrix(0.008680555555555556,0,0,0.008680555555555556,58.689236111111114,0)" xlink:href="#bc"/><use transform="matrix(0.008680555555555556,0,0,0.008680555555555556,68.671875,0)" xlink:href="#bf"/><use transform="matrix(0.008680555555555556,0,0,0.008680555555555556,79.17534722222223,0)" xlink:href="#bc"/><use transform="matrix(0.008680555555555556,0,0,0.008680555555555556,89.15798611111111,0)" xlink:href="#bg"/><use transform="matrix(0.008680555555555556,0,0,0.008680555555555556,100.0607638888889,0)" xlink:href="#bh"/><use transform="matrix(0.008680555555555556,0,0,0.008680555555555556,110.42534722222221,0)" xlink:href="#bp"/></g><path d="M613 24c-304 0-509-231-509-576 0-350 205-580 509-580 216 0 392 114 453 309l-173 49c-33-115-133-197-280-197-223 0-326 196-326 419 0 220 103 415 326 415 150 0 252-85 285-206l172 49C1010-95 832 24 613 24" id="by"/><path d="M128 359l88-567h206L266 359H128" id="bz"/><g id="B"><use transform="matrix(0.008680555555555556,0,0,0.008680555555555556,0,0)" xlink:href="#by"/><use transform="matrix(0.008680555555555556,0,0,0.008680555555555556,10.15625,0)" xlink:href="#bl"/><use transform="matrix(0.008680555555555556,0,0,0.008680555555555556,14.461805555555555,0)" xlink:href="#bm"/><use transform="matrix(0.008680555555555556,0,0,0.008680555555555556,24.973958333333336,0)" xlink:href="#bi"/><use transform="matrix(0.008680555555555556,0,0,0.008680555555555556,34.35763888888889,0)" xlink:href="#bd"/><use transform="matrix(0.008680555555555556,0,0,0.008680555555555556,40,0)" xlink:href="#bh"/><use transform="matrix(0.008680555555555556,0,0,0.008680555555555556,50.364583333333336,0)" xlink:href="#bn"/><use transform="matrix(0.008680555555555556,0,0,0.008680555555555556,57.05729166666667,0)" xlink:href="#bi"/><use transform="matrix(0.008680555555555556,0,0,0.008680555555555556,66.44097222222223,0)" xlink:href="#bz"/></g><g id="C"><use transform="matrix(0.008680555555555556,0,0,0.008680555555555556,0,0)" xlink:href="#by"/><use transform="matrix(0.008680555555555556,0,0,0.008680555555555556,10.15625,0)" xlink:href="#bj"/><use transform="matrix(0.008680555555555556,0,0,0.008680555555555556,20.81597222222222,0)" xlink:href="#bf"/><use transform="matrix(0.008680555555555556,0,0,0.008680555555555556,31.319444444444443,0)" xlink:href="#bf"/><use transform="matrix(0.008680555555555556,0,0,0.008680555555555556,41.82291666666666,0)" xlink:href="#bh"/><use transform="matrix(0.008680555555555556,0,0,0.008680555555555556,52.1875,0)" xlink:href="#by"/><use transform="matrix(0.008680555555555556,0,0,0.008680555555555556,62.34375,0)" xlink:href="#bd"/><use transform="matrix(0.008680555555555556,0,0,0.008680555555555556,67.98611111111111,0)" xlink:href="#bh"/><use transform="matrix(0.008680555555555556,0,0,0.008680555555555556,78.35069444444444,0)" xlink:href="#bp"/></g><g id="D"><use transform="matrix(0.008680555555555556,0,0,0.008680555555555556,0,0)" xlink:href="#bd"/><use transform="matrix(0.008680555555555556,0,0,0.008680555555555556,5.642361111111112,0)" xlink:href="#bj"/></g><g id="E"><use transform="matrix(0.008680555555555556,0,0,0.008680555555555556,0,0)" xlink:href="#bd"/><use transform="matrix(0.008680555555555556,0,0,0.008680555555555556,5.815972222222222,0)" xlink:href="#bs"/><use transform="matrix(0.008680555555555556,0,0,0.008680555555555556,16.328125,0)" xlink:href="#bh"/></g><g id="F"><use transform="matrix(0.008680555555555556,0,0,0.008680555555555556,0,0)" xlink:href="#bt"/><use transform="matrix(0.008680555555555556,0,0,0.008680555555555556,13.298611111111112,0)" xlink:href="#br"/><use transform="matrix(0.008680555555555556,0,0,0.008680555555555556,23.37673611111111,0)" xlink:href="#bq"/><use transform="matrix(0.008680555555555556,0,0,0.008680555555555556,34.26215277777778,0)" xlink:href="#bn"/><use transform="matrix(0.008680555555555556,0,0,0.008680555555555556,41.23263888888889,0)" xlink:href="#be"/><use transform="matrix(0.008680555555555556,0,0,0.008680555555555556,45.53819444444445,0)" xlink:href="#bp"/></g><path d="M678-1118v154H420V0H240v-964H20v-154h220v-149c0-194 155-293 318-293 85 0 141 18 168 30l-50 154c-19-6-47-17-97-17-111 0-159 58-159 166v109h258" id="bA"/><g id="G"><use transform="matrix(0.008680555555555556,0,0,0.008680555555555556,0,0)" xlink:href="#bv"/><use transform="matrix(0.008680555555555556,0,0,0.008680555555555556,11.40625,0)" xlink:href="#bh"/><use transform="matrix(0.008680555555555556,0,0,0.008680555555555556,21.770833333333336,0)" xlink:href="#bl"/><use transform="matrix(0.008680555555555556,0,0,0.008680555555555556,26.076388888888893,0)" xlink:href="#bA"/><use transform="matrix(0.008680555555555556,0,0,0.008680555555555556,32.152777777777786,0)" xlink:href="#bx"/><use transform="matrix(0.008680555555555556,0,0,0.008680555555555556,40.32986111111112,0)" xlink:href="#bo"/><use transform="matrix(0.008680555555555556,0,0,0.008680555555555556,55.902777777777786,0)" xlink:href="#bc"/><use transform="matrix(0.008680555555555556,0,0,0.008680555555555556,65.88541666666667,0)" xlink:href="#bf"/><use transform="matrix(0.008680555555555556,0,0,0.008680555555555556,76.38888888888889,0)" xlink:href="#bc"/><use transform="matrix(0.008680555555555556,0,0,0.008680555555555556,86.37152777777779,0)" xlink:href="#bg"/><use transform="matrix(0.008680555555555556,0,0,0.008680555555555556,97.27430555555557,0)" xlink:href="#bh"/><use transform="matrix(0.008680555555555556,0,0,0.008680555555555556,107.6388888888889,0)" xlink:href="#bp"/></g><g id="H"><use transform="matrix(0.008680555555555556,0,0,0.008680555555555556,0,0)" xlink:href="#bn"/><use transform="matrix(0.008680555555555556,0,0,0.008680555555555556,6.397569444444445,0)" xlink:href="#bh"/><use transform="matrix(0.008680555555555556,0,0,0.008680555555555556,16.76215277777778,0)" xlink:href="#bg"/><use transform="matrix(0.008680555555555556,0,0,0.008680555555555556,27.664930555555557,0)" xlink:href="#be"/><use transform="matrix(0.008680555555555556,0,0,0.008680555555555556,31.970486111111114,0)" xlink:href="#bi"/><use transform="matrix(0.008680555555555556,0,0,0.008680555555555556,41.35416666666667,0)" xlink:href="#bd"/><use transform="matrix(0.008680555555555556,0,0,0.008680555555555556,46.99652777777778,0)" xlink:href="#bh"/><use transform="matrix(0.008680555555555556,0,0,0.008680555555555556,57.361111111111114,0)" xlink:href="#bn"/><use transform="matrix(0.008680555555555556,0,0,0.008680555555555556,63.758680555555564,0)" xlink:href="#bh"/><use transform="matrix(0.008680555555555556,0,0,0.008680555555555556,74.12326388888889,0)" xlink:href="#bp"/></g><path d="M409 0L70-1118h191c89 329 165 560 243 925 75-353 154-601 240-925h192c85 325 161 564 235 922 77-354 157-598 244-922h191L1267 0h-179c-86-307-176-590-250-913C763-588 675-308 588 0H409" id="bB"/><g id="I"><use transform="matrix(0.008680555555555556,0,0,0.008680555555555556,0,0)" xlink:href="#bB"/><use transform="matrix(0.008680555555555556,0,0,0.008680555555555556,14.548611111111112,0)" xlink:href="#be"/><use transform="matrix(0.008680555555555556,0,0,0.008680555555555556,18.854166666666668,0)" xlink:href="#bd"/><use transform="matrix(0.008680555555555556,0,0,0.008680555555555556,24.67013888888889,0)" xlink:href="#bs"/></g><path d="M789 20c-398 0-667-293-667-764 0-473 273-766 655-766 315 0 558 198 612 487h-196c-61-191-204-311-415-311-262 0-471 207-471 590 0 380 208 588 482 588 249 0 420-165 425-427H828v-166h572v163c0 370-256 606-611 606" id="bC"/><g id="J"><use transform="matrix(0.008680555555555556,0,0,0.008680555555555556,0,0)" xlink:href="#bw"/><use transform="matrix(0.008680555555555556,0,0,0.008680555555555556,11.354166666666668,0)" xlink:href="#bC"/></g><path d="M52 0l541-1490h220L1361 0h-200l-149-416H398L254 0H52zm404-582h497c-103-290-145-390-251-756-108 377-145 460-246 756" id="bD"/><path d="M370-1490V0H180v-1490h190" id="bE"/><g id="K"><use transform="matrix(0.008680555555555556,0,0,0.008680555555555556,0,0)" xlink:href="#bD"/><use transform="matrix(0.008680555555555556,0,0,0.008680555555555556,12.265625,0)" xlink:href="#bE"/></g><g id="L"><use transform="matrix(0.008680555555555556,0,0,0.008680555555555556,0,0)" xlink:href="#bD"/><use transform="matrix(0.008680555555555556,0,0,0.008680555555555556,12.265625,0)" xlink:href="#bg"/><use transform="matrix(0.008680555555555556,0,0,0.008680555555555556,23.16840277777778,0)" xlink:href="#bh"/><use transform="matrix(0.008680555555555556,0,0,0.008680555555555556,33.532986111111114,0)" xlink:href="#bf"/><use transform="matrix(0.008680555555555556,0,0,0.008680555555555556,44.036458333333336,0)" xlink:href="#bd"/></g><path fill="#fff" d="M399-777c-11 316 60 556 342 556 113 0 193-24 241-72v-251H709v-221h573v581C1177-55 960 24 725 20 280 12 81-292 94-770c11-421 200-700 610-706 347-5 543 171 578 483H990c-25-157-105-241-277-241-102 0-180 38-233 115s-76 191-81 342" id="bF"/><g id="M"><use transform="matrix(0.015190972222222224,0,0,0.015190972222222224,0,0)" xlink:href="#W"/><use transform="matrix(0.015190972222222224,0,0,0.015190972222222224,20.067274305555557,0)" xlink:href="#bF"/></g><path fill="#fff" d="M952-300H426L326 0H7l542-1456h278L1372 0h-319zM507-543h364l-183-545" id="bG"/><path fill="#fff" d="M449 0H149v-1456h300V0" id="bH"/><g id="N"><use transform="matrix(0.015190972222222224,0,0,0.015190972222222224,0,0)" xlink:href="#bG"/><use transform="matrix(0.015190972222222224,0,0,0.015190972222222224,20.933159722222225,0)" xlink:href="#bH"/></g><g id="O"><use transform="matrix(0.015190972222222224,0,0,0.015190972222222224,0,0)" xlink:href="#U"/><use transform="matrix(0.015190972222222224,0,0,0.015190972222222224,20.35590277777778,0)" xlink:href="#aC"/><use transform="matrix(0.015190972222222224,0,0,0.015190972222222224,37.947048611111114,0)" xlink:href="#aa"/><use transform="matrix(0.015190972222222224,0,0,0.015190972222222224,55.37109375,0)" xlink:href="#ah"/><use transform="matrix(0.015190972222222224,0,0,0.015190972222222224,71.3671875,0)" xlink:href="#aC"/><use transform="matrix(0.015190972222222224,0,0,0.015190972222222224,88.95833333333334,0)" xlink:href="#af"/><use transform="matrix(0.015190972222222224,0,0,0.015190972222222224,97.20703125000001,0)" xlink:href="#ac"/></g><g id="P"><use transform="matrix(0.015190972222222224,0,0,0.015190972222222224,0,0)" xlink:href="#bF"/><use transform="matrix(0.015190972222222224,0,0,0.015190972222222224,21.191406250000004,0)" xlink:href="#aj"/><use transform="matrix(0.015190972222222224,0,0,0.015190972222222224,32.083333333333336,0)" xlink:href="#Z"/><use transform="matrix(0.015190972222222224,0,0,0.015190972222222224,48.763020833333336,0)" xlink:href="#ba"/><use transform="matrix(0.015190972222222224,0,0,0.015190972222222224,59.91319444444445,0)" xlink:href="#Z"/><use transform="matrix(0.015190972222222224,0,0,0.015190972222222224,76.59288194444446,0)" xlink:href="#aa"/><use transform="matrix(0.015190972222222224,0,0,0.015190972222222224,94.01692708333334,0)" xlink:href="#Z"/></g><linearGradient gradientUnits="userSpaceOnUse" id="Q" x1="261.46" y1="648.54" x2="291.31" y2="680.81"><stop offset="0%" stop-color="#5b738b"/><stop offset="100%" stop-color="#223548"/></linearGradient><linearGradient gradientUnits="userSpaceOnUse" id="R" x1="130.75" y1="767.14" x2="160.61" y2="799.41"><stop offset="0%" stop-color="#5b738b"/><stop offset="100%" stop-color="#223548"/></linearGradient><linearGradient gradientUnits="userSpaceOnUse" id="S" x1="858.62" y1="1163.67" x2="872.93" y2="1179.14"><stop offset="0%" stop-color="#5b738b"/><stop offset="100%" stop-color="#223548"/></linearGradient><linearGradient gradientUnits="userSpaceOnUse" id="T" x1="126.82" y1="646.53" x2="156.67" y2="678.8"><stop offset="0%" stop-color="#5b738b"/><stop offset="100%" stop-color="#223548"/></linearGradient></defs></g></svg>