<?xml version="1.0" encoding="UTF-8"?>
<svg xmlns="http://www.w3.org/2000/svg" xmlns:xlink="http://www.w3.org/1999/xlink" width="1343px" height="1037px" viewBox="0 0 1007 778" version="1.1">
<g id="surface1">
<path style="fill-rule:nonzero;fill:rgb(100%,100%,100%);fill-opacity:1;stroke-width:3;stroke-linecap:butt;stroke-linejoin:miter;stroke:rgb(0%,0%,0%);stroke-opacity:1;stroke-miterlimit:4;" d="M -239.999628 -288.478667 C -239.999628 -291.79531 -237.31146 -294.481946 -233.998138 -294.481946 L 173.99896 -294.481946 C 177.312283 -294.481946 180.00045 -291.79531 180.00045 -288.478667 L 180.00045 393.999873 C 180.00045 397.311309 177.312283 399.997945 173.99896 399.997945 L -233.998138 399.997945 C -237.31146 399.997945 -239.999628 397.311309 -239.999628 393.999873 Z M -239.999628 -288.478667 " transform="matrix(0.749814,0,0,0.750241,181.080045,222.053547)"/>
<path style=" stroke:none;fill-rule:nonzero;fill:rgb(0%,0%,0%);fill-opacity:1;" d="M 75.53125 25.21875 C 75.53125 31.121094 70.980469 34.324219 64.75 34.226562 L 59.617188 34.226562 L 59.617188 44.25 L 53.757812 44.25 L 53.757812 15.800781 L 64.847656 15.800781 C 71.15625 15.898438 75.53125 19.066406 75.53125 25.21875 Z M 69.613281 25.257812 C 69.632812 22.464844 67.796875 20.550781 64.984375 20.550781 L 59.617188 20.550781 L 59.617188 29.476562 L 64.847656 29.476562 C 67.796875 29.496094 69.613281 28.089844 69.613281 25.257812 "/>
<path style=" stroke:none;fill-rule:nonzero;fill:rgb(0%,0%,0%);fill-opacity:1;" d="M 88.066406 44.640625 C 81.777344 44.640625 77.894531 40.066406 78.050781 33.484375 C 78.207031 27.015625 81.601562 22.71875 88.027344 22.71875 C 94.355469 22.71875 98.0625 27.230469 98.0625 33.894531 C 98.0625 40.125 94.199219 44.640625 88.066406 44.640625 Z M 88.027344 27.289062 C 84.726562 27.289062 83.691406 30.042969 83.691406 33.894531 C 83.691406 37.429688 84.882812 40.085938 88.066406 40.085938 C 91.386719 40.085938 92.421875 37.410156 92.421875 33.484375 C 92.421875 30.003906 91.171875 27.289062 88.027344 27.289062 "/>
<path style=" stroke:none;fill-rule:nonzero;fill:rgb(0%,0%,0%);fill-opacity:1;" d="M 109.703125 40.632812 C 111.535156 40.632812 112.980469 39.988281 112.980469 38.40625 C 112.980469 37.722656 112.628906 37.175781 111.945312 36.785156 C 111.261719 36.394531 110.167969 36.023438 108.667969 35.710938 C 103.648438 34.65625 101.128906 32.527344 101.128906 29.300781 C 101.128906 25.238281 105.09375 22.71875 109.566406 22.71875 C 114.367188 22.71875 118.371094 25.140625 118.410156 29.535156 L 112.765625 29.535156 C 112.726562 27.757812 111.554688 26.742188 109.546875 26.742188 C 107.867188 26.742188 106.597656 27.542969 106.558594 29.027344 C 106.558594 29.652344 106.871094 30.140625 107.457031 30.535156 C 108.6875 31.375 112.472656 31.882812 113.996094 32.488281 C 116.945312 33.660156 118.46875 35.476562 118.46875 38.171875 C 118.46875 43.996094 110.1875 46.066406 104.878906 43.703125 C 102.535156 42.667969 100.542969 40.535156 100.464844 37.527344 L 105.816406 37.527344 C 105.914062 39.597656 107.496094 40.632812 109.703125 40.632812 "/>
<path style=" stroke:none;fill-rule:nonzero;fill:rgb(0%,0%,0%);fill-opacity:1;" d="M 128.855469 37.800781 C 128.894531 39.421875 129.34375 39.96875 131.023438 39.988281 C 131.648438 39.988281 132.195312 39.949219 132.683594 39.851562 L 132.683594 44.132812 C 131.570312 44.464844 130.4375 44.640625 129.265625 44.640625 C 125.304688 44.640625 123.214844 42.648438 123.214844 38.640625 L 123.214844 27.25 L 120.128906 27.25 L 120.128906 23.109375 L 123.214844 23.109375 L 123.214844 17.910156 L 128.855469 17.910156 L 128.855469 23.109375 L 132.46875 23.109375 L 132.46875 27.25 L 128.855469 27.25 L 128.855469 37.800781 "/>
<path style=" stroke:none;fill-rule:nonzero;fill:rgb(0%,0%,0%);fill-opacity:1;" d="M 143.304688 44.640625 C 137.761719 44.601562 134.792969 39.578125 134.792969 33.523438 C 134.792969 27.621094 137.78125 22.71875 143.34375 22.71875 C 145.667969 22.71875 147.464844 23.519531 148.753906 25.101562 L 148.988281 23.109375 L 154.105469 23.109375 L 154.105469 43.546875 C 153.949219 49.503906 150.042969 52.492188 143.949219 52.570312 C 140.828125 52.589844 137.410156 51.085938 136.082031 49.25 L 138.582031 45.8125 C 139.988281 47.394531 141.683594 48.175781 143.695312 48.175781 C 147.054688 48.195312 148.773438 46.085938 148.441406 42.429688 C 147.132812 43.898438 145.433594 44.640625 143.304688 44.640625 Z M 144.789062 27.308594 C 141.570312 27.308594 140.4375 30.179688 140.4375 33.933594 C 140.4375 37.292969 141.722656 40.066406 144.75 40.066406 C 146.46875 40.066406 147.699219 39.421875 148.441406 38.132812 L 148.441406 29.242188 C 147.679688 27.953125 146.46875 27.308594 144.789062 27.308594 "/>
<path style=" stroke:none;fill-rule:nonzero;fill:rgb(0%,0%,0%);fill-opacity:1;" d="M 170.3125 28.402344 C 167.519531 27.933594 164.863281 28.421875 164.082031 30.417969 L 164.082031 44.25 L 158.4375 44.25 L 158.4375 23.109375 L 163.769531 23.109375 L 163.925781 25.628906 C 165.371094 23.207031 167.441406 22.210938 170.390625 22.972656 "/>
<path style=" stroke:none;fill-rule:nonzero;fill:rgb(0%,0%,0%);fill-opacity:1;" d="M 190.617188 40.828125 C 189.074219 43.078125 186.050781 44.640625 182.378906 44.640625 C 176.089844 44.640625 171.660156 40.222656 171.894531 33.640625 C 172.128906 27.191406 175.40625 22.71875 181.753906 22.71875 C 187.789062 22.71875 191.164062 26.898438 191.066406 33.210938 L 191.066406 35.515625 L 177.613281 35.515625 C 177.90625 38.132812 179.859375 40.085938 182.75 40.085938 C 184.917969 40.085938 186.617188 39.304688 187.847656 37.722656 Z M 185.523438 31.667969 C 185.621094 28.949219 184.3125 27.25 181.734375 27.289062 C 179.195312 27.308594 178.003906 29.183594 177.671875 31.667969 L 185.523438 31.667969 "/>
<path style=" stroke:none;fill-rule:nonzero;fill:rgb(0%,0%,0%);fill-opacity:1;" d="M 204.949219 40.007812 C 207.429688 40.007812 209.382812 39.050781 209.382812 36.785156 C 209.382812 35.671875 208.972656 34.871094 208.210938 34.246094 C 206.667969 32.996094 200.988281 31.472656 199.171875 30.417969 C 196.007812 28.558594 194.328125 26.3125 194.328125 23.363281 C 194.328125 17.890625 199.132812 15.488281 204.8125 15.410156 C 208.972656 15.351562 212.292969 17.050781 213.933594 19.632812 C 214.8125 20.980469 215.261719 22.503906 215.261719 24.203125 L 209.402344 24.203125 C 209.402344 21.488281 207.527344 20.082031 204.714844 20.082031 C 202.199219 20.082031 200.1875 21.15625 200.1875 23.382812 C 200.1875 24.300781 200.65625 25.082031 201.59375 25.707031 C 202.53125 26.332031 203.878906 26.917969 205.691406 27.464844 C 209.03125 28.460938 211.453125 29.710938 212.976562 31.199219 C 214.5 32.683594 215.261719 34.539062 215.261719 36.746094 C 215.222656 42.058594 210.632812 44.777344 204.949219 44.640625 C 198.566406 44.503906 193.625 41.609375 193.449219 35.300781 L 199.328125 35.300781 C 199.328125 38.445312 201.203125 40.007812 204.949219 40.007812 "/>
<path style=" stroke:none;fill-rule:nonzero;fill:rgb(0%,0%,0%);fill-opacity:1;" d="M 242.539062 29.398438 C 242.695312 35.417969 240.917969 39.792969 237.675781 42.3125 L 242.402344 46.027344 L 238.671875 49.328125 L 232.621094 44.464844 C 226.449219 45.382812 221.917969 42.351562 219.871094 38.074219 C 217.839844 33.816406 217.800781 26.371094 219.851562 22.015625 C 221.644531 18.183594 225.179688 15.410156 230.433594 15.410156 C 238.398438 15.410156 242.324219 21.234375 242.539062 29.398438 Z M 235.003906 37.527344 C 237.167969 34.539062 237.148438 25.472656 235.003906 22.582031 C 233.890625 21.078125 232.40625 20.257812 230.433594 20.257812 C 228.460938 20.257812 226.976562 21.058594 225.882812 22.5625 C 224.632812 24.28125 224.261719 27.25 224.261719 30.671875 C 224.261719 33.582031 224.789062 35.828125 225.863281 37.429688 C 226.9375 39.03125 228.460938 39.832031 230.472656 39.832031 C 232.445312 39.832031 233.910156 39.050781 235.003906 37.527344 "/>
<path style=" stroke:none;fill-rule:nonzero;fill:rgb(0%,0%,0%);fill-opacity:1;" d="M 252.691406 39.539062 L 265.132812 39.539062 L 265.132812 44.25 L 246.835938 44.25 L 246.835938 15.800781 L 252.691406 15.800781 L 252.691406 39.539062 "/>
<path style="fill-rule:nonzero;fill:rgb(97.254902%,61.960787%,36.470589%);fill-opacity:1;stroke-width:3;stroke-linecap:butt;stroke-linejoin:miter;stroke:rgb(0%,0%,0%);stroke-opacity:1;stroke-miterlimit:4;" d="M -128.899136 28.898482 C -128.899136 25.587046 -126.216178 22.90041 -122.897646 22.90041 L 106.1019 22.90041 C 109.415222 22.90041 112.09818 25.587046 112.09818 28.898482 L 112.09818 136.900224 C 112.09818 140.211659 109.415222 142.898296 106.1019 142.898296 L -122.897646 142.898296 C -126.216178 142.898296 -128.899136 140.211659 -128.899136 136.900224 Z M -128.899136 28.898482 " transform="matrix(0.749814,0,0,0.750241,181.080045,222.053547)"/>
<path style="fill-rule:nonzero;fill:rgb(100%,100%,100%);fill-opacity:1;stroke-width:3;stroke-linecap:butt;stroke-linejoin:miter;stroke:rgb(0%,0%,0%);stroke-opacity:1;stroke-miterlimit:4;" d="M 540.001261 -288.478667 C 540.001261 -291.79531 542.684218 -294.481946 545.997541 -294.481946 L 1093.998138 -294.481946 C 1097.31146 -294.481946 1099.999628 -291.79531 1099.999628 -288.478667 L 1099.999628 393.999873 C 1099.999628 397.311309 1097.31146 399.997945 1093.998138 399.997945 L 545.997541 399.997945 C 542.684218 399.997945 540.001261 397.311309 540.001261 393.999873 Z M 540.001261 -288.478667 " transform="matrix(0.749814,0,0,0.750241,181.080045,222.053547)"/>
<path style=" stroke:none;fill-rule:nonzero;fill:rgb(0%,0%,0%);fill-opacity:1;" d="M 689.5 40.007812 C 691.980469 40.007812 693.929688 39.050781 693.929688 36.785156 C 693.929688 35.671875 693.519531 34.871094 692.757812 34.246094 C 691.21875 32.996094 685.535156 31.472656 683.71875 30.417969 C 680.554688 28.558594 678.875 26.3125 678.875 23.363281 C 678.875 17.890625 683.679688 15.488281 689.363281 15.410156 C 693.519531 15.351562 696.839844 17.050781 698.480469 19.632812 C 699.359375 20.980469 699.808594 22.503906 699.808594 24.203125 L 693.949219 24.203125 C 693.949219 21.488281 692.078125 20.082031 689.265625 20.082031 C 686.746094 20.082031 684.734375 21.15625 684.734375 23.382812 C 684.734375 24.300781 685.203125 25.082031 686.140625 25.707031 C 687.078125 26.332031 688.425781 26.917969 690.242188 27.464844 C 693.578125 28.460938 696 29.710938 697.523438 31.199219 C 699.046875 32.683594 699.808594 34.539062 699.808594 36.746094 C 699.769531 42.058594 695.179688 44.777344 689.5 44.640625 C 683.113281 44.503906 678.171875 41.609375 677.996094 35.300781 L 683.875 35.300781 C 683.875 38.445312 685.75 40.007812 689.5 40.007812 "/>
<path style=" stroke:none;fill-rule:nonzero;fill:rgb(0%,0%,0%);fill-opacity:1;" d="M 714.179688 22.71875 C 719.941406 22.71875 722.421875 27.601562 722.421875 33.875 C 722.421875 39.734375 719.667969 44.601562 714.21875 44.640625 C 712.089844 44.640625 710.351562 43.898438 709.042969 42.410156 L 709.042969 52.375 L 703.402344 52.375 L 703.402344 23.109375 L 708.632812 23.109375 L 708.828125 25.179688 C 710.195312 23.539062 711.972656 22.71875 714.179688 22.71875 Z M 716.777344 33.464844 C 716.777344 30.042969 715.742188 27.308594 712.695312 27.308594 C 710.917969 27.308594 709.707031 27.992188 709.042969 29.339844 L 709.042969 37.996094 C 709.726562 39.382812 710.957031 40.085938 712.734375 40.085938 C 715.429688 40.085938 716.777344 37.878906 716.777344 33.464844 "/>
<path style=" stroke:none;fill-rule:nonzero;fill:rgb(0%,0%,0%);fill-opacity:1;" d="M 734.527344 22.71875 C 739.488281 22.640625 743.019531 25.335938 743.019531 30.199219 L 743.019531 39.363281 C 743.039062 41.375 743.3125 42.882812 743.859375 43.917969 L 743.859375 44.25 L 738.160156 44.25 C 737.90625 43.742188 737.710938 43.117188 737.59375 42.351562 C 736.226562 43.878906 734.449219 44.640625 732.261719 44.640625 C 728.394531 44.640625 724.996094 42.039062 725.074219 38.308594 C 725.171875 33.269531 729.214844 31.335938 734.761719 31.335938 L 737.359375 31.335938 C 737.574219 28.65625 736.792969 26.898438 734.234375 26.898438 C 732.476562 26.898438 731.1875 27.777344 731.1875 29.457031 L 725.542969 29.457031 C 725.835938 24.945312 729.703125 22.777344 734.527344 22.71875 Z M 730.71875 37.898438 C 730.71875 39.382812 731.910156 40.320312 733.492188 40.320312 C 735.210938 40.320312 736.773438 39.441406 737.359375 38.269531 L 737.359375 34.636719 L 735.25 34.636719 C 732.28125 34.675781 730.71875 35.632812 730.71875 37.898438 "/>
<path style=" stroke:none;fill-rule:nonzero;fill:rgb(0%,0%,0%);fill-opacity:1;" d="M 759.226562 28.402344 C 756.433594 27.933594 753.78125 28.421875 753 30.417969 L 753 44.25 L 747.355469 44.25 L 747.355469 23.109375 L 752.6875 23.109375 L 752.84375 25.628906 C 754.289062 23.207031 756.355469 22.210938 759.304688 22.972656 "/>
<path style=" stroke:none;fill-rule:nonzero;fill:rgb(0%,0%,0%);fill-opacity:1;" d="M 769.617188 35.769531 L 767.585938 37.800781 L 767.585938 44.25 L 761.941406 44.25 L 761.941406 14.238281 L 767.585938 14.238281 L 767.585938 30.867188 C 769.65625 28.1875 771.917969 25.707031 774.085938 23.109375 L 780.863281 23.109375 L 773.226562 31.921875 L 781.527344 44.25 L 775.042969 44.25 "/>
<path style=" stroke:none;fill-rule:nonzero;fill:rgb(0%,0%,0%);fill-opacity:1;" d="M 798.027344 33.386719 C 797.988281 37.351562 798.613281 39.988281 802.050781 40.085938 C 804.039062 40.144531 805.582031 38.855469 805.601562 36.941406 L 810.894531 36.941406 C 810.640625 41.746094 807.125 44.582031 802.148438 44.640625 C 795.820312 44.71875 792.382812 40.105469 792.382812 33.425781 C 792.382812 27.171875 795.976562 22.71875 802.109375 22.71875 C 807.222656 22.71875 810.914062 25.980469 810.894531 30.984375 L 805.601562 30.984375 C 805.582031 28.871094 804.136719 27.210938 802.011719 27.289062 C 798.847656 27.40625 798.066406 29.691406 798.027344 33.386719 "/>
<path style=" stroke:none;fill-rule:nonzero;fill:rgb(0%,0%,0%);fill-opacity:1;" d="M 820.070312 44.25 L 814.410156 44.25 L 814.410156 14.238281 L 820.070312 14.238281 L 820.070312 44.25 "/>
<path style=" stroke:none;fill-rule:nonzero;fill:rgb(0%,0%,0%);fill-opacity:1;" d="M 831.59375 44.640625 C 826.886719 44.621094 824.582031 41.765625 824.582031 36.960938 L 824.582031 23.109375 L 830.226562 23.109375 L 830.226562 36.765625 C 830.226562 38.972656 831.222656 40.066406 833.234375 40.066406 C 835.144531 40.066406 836.453125 39.402344 837.175781 38.074219 L 837.175781 23.109375 L 842.839844 23.109375 L 842.839844 44.25 L 837.527344 44.25 L 837.371094 42.097656 C 835.984375 43.800781 834.050781 44.640625 831.59375 44.640625 "/>
<path style=" stroke:none;fill-rule:nonzero;fill:rgb(0%,0%,0%);fill-opacity:1;" d="M 855.257812 40.632812 C 857.09375 40.632812 858.539062 39.988281 858.539062 38.40625 C 858.539062 37.722656 858.1875 37.175781 857.503906 36.785156 C 856.820312 36.394531 855.726562 36.023438 854.222656 35.710938 C 849.207031 34.65625 846.6875 32.527344 846.6875 29.300781 C 846.6875 25.238281 850.648438 22.71875 855.121094 22.71875 C 859.925781 22.71875 863.929688 25.140625 863.96875 29.535156 L 858.324219 29.535156 C 858.285156 27.757812 857.113281 26.742188 855.101562 26.742188 C 853.421875 26.742188 852.152344 27.542969 852.113281 29.027344 C 852.113281 29.652344 852.425781 30.140625 853.011719 30.535156 C 854.242188 31.375 858.03125 31.882812 859.554688 32.488281 C 862.503906 33.660156 864.027344 35.476562 864.027344 38.171875 C 864.027344 43.996094 855.746094 46.066406 850.433594 43.703125 C 848.09375 42.667969 846.101562 40.535156 846.023438 37.527344 L 851.371094 37.527344 C 851.46875 39.597656 853.050781 40.632812 855.257812 40.632812 "/>
<path style=" stroke:none;fill-rule:nonzero;fill:rgb(0%,0%,0%);fill-opacity:1;" d="M 874.414062 37.800781 C 874.453125 39.421875 874.902344 39.96875 876.582031 39.988281 C 877.207031 39.988281 877.753906 39.949219 878.242188 39.851562 L 878.242188 44.132812 C 877.128906 44.464844 875.996094 44.640625 874.824219 44.640625 C 870.859375 44.640625 868.769531 42.648438 868.769531 38.640625 L 868.769531 27.25 L 865.683594 27.25 L 865.683594 23.109375 L 868.769531 23.109375 L 868.769531 17.910156 L 874.414062 17.910156 L 874.414062 23.109375 L 878.027344 23.109375 L 878.027344 27.25 L 874.414062 27.25 L 874.414062 37.800781 "/>
<path style=" stroke:none;fill-rule:nonzero;fill:rgb(0%,0%,0%);fill-opacity:1;" d="M 899.132812 40.828125 C 897.589844 43.078125 894.566406 44.640625 890.894531 44.640625 C 884.605469 44.640625 880.175781 40.222656 880.410156 33.640625 C 880.644531 27.191406 883.921875 22.71875 890.269531 22.71875 C 896.304688 22.71875 899.679688 26.898438 899.582031 33.210938 L 899.582031 35.515625 L 886.128906 35.515625 C 886.421875 38.132812 888.375 40.085938 891.265625 40.085938 C 893.433594 40.085938 895.132812 39.304688 896.363281 37.722656 Z M 894.039062 31.667969 C 894.136719 28.949219 892.828125 27.25 890.25 27.289062 C 887.710938 27.308594 886.519531 29.183594 886.1875 31.667969 L 894.039062 31.667969 "/>
<path style=" stroke:none;fill-rule:nonzero;fill:rgb(0%,0%,0%);fill-opacity:1;" d="M 914.65625 28.402344 C 911.867188 27.933594 909.210938 28.421875 908.429688 30.417969 L 908.429688 44.25 L 902.785156 44.25 L 902.785156 23.109375 L 908.117188 23.109375 L 908.273438 25.628906 C 909.71875 23.207031 911.789062 22.210938 914.734375 22.972656 "/>
<path style="fill-rule:nonzero;fill:rgb(100%,100%,100%);fill-opacity:1;stroke-width:3;stroke-linecap:butt;stroke-linejoin:miter;stroke:rgb(25.882354%,61.56863%,61.960787%);stroke-opacity:1;stroke-miterlimit:4;" d="M 620.000283 -107.828402 C 620.000283 -111.145044 622.68845 -113.831681 626.001773 -113.831681 L 1071.79992 -113.831681 C 1075.113242 -113.831681 1077.80141 -111.145044 1077.80141 -107.828402 L 1077.80141 41.748518 C 1077.80141 45.06516 1075.113242 47.751796 1071.79992 47.751796 L 626.001773 47.751796 C 622.68845 47.751796 620.000283 45.06516 620.000283 41.748518 Z M 620.000283 -107.828402 " transform="matrix(0.749814,0,0,0.750241,181.080045,222.053547)"/>
<path style="fill-rule:nonzero;fill:rgb(97.254902%,61.960787%,36.470589%);fill-opacity:1;stroke-width:3;stroke-linecap:butt;stroke-linejoin:miter;stroke:rgb(0%,0%,0%);stroke-opacity:1;stroke-miterlimit:4;" d="M 634.998797 156.669911 C 634.998797 153.358475 637.686965 150.671839 641.000287 150.671839 L 698.999057 150.671839 C 702.31238 150.671839 705.000547 153.358475 705.000547 156.669911 L 705.000547 194.001661 C 705.000547 197.313096 702.31238 199.999733 698.999057 199.999733 L 641.000287 199.999733 C 637.686965 199.999733 634.998797 197.313096 634.998797 194.001661 Z M 634.998797 156.669911 " transform="matrix(0.749814,0,0,0.750241,181.080045,222.053547)"/>
<path style=" stroke:none;fill-rule:nonzero;fill:rgb(0%,0%,0%);fill-opacity:1;" d="M 672.175781 357.449219 C 668.773438 357.449219 666.472656 355.074219 666.472656 351.238281 C 666.472656 347.304688 668.929688 344.996094 672.117188 344.996094 C 674.84375 344.996094 676.941406 346.671875 677.285156 349.066406 L 674.761719 349.066406 C 674.421875 347.910156 673.507812 347.199219 672.160156 347.199219 C 670.289062 347.199219 668.992188 348.640625 668.992188 351.214844 C 668.992188 353.785156 670.246094 355.242188 672.191406 355.242188 C 673.914062 355.242188 674.957031 354.265625 674.996094 352.710938 L 672.363281 352.710938 L 672.363281 350.824219 L 677.40625 350.824219 L 677.40625 352.335938 C 677.40625 355.519531 675.21875 357.449219 672.175781 357.449219 "/>
<path style=" stroke:none;fill-rule:nonzero;fill:rgb(0%,0%,0%);fill-opacity:1;" d="M 679.308594 357.285156 L 679.308594 345.15625 L 684.035156 345.15625 C 686.796875 345.15625 688.375 346.867188 688.375 349.253906 C 688.375 351.652344 686.769531 353.324219 683.980469 353.324219 L 681.792969 353.324219 L 681.792969 357.285156 Z M 681.792969 351.320312 L 683.582031 351.320312 C 685.09375 351.320312 685.8125 350.472656 685.8125 349.253906 C 685.8125 348.03125 685.09375 347.207031 683.574219 347.207031 L 681.792969 347.207031 L 681.792969 351.320312 "/>
<path style=" stroke:none;fill-rule:nonzero;fill:rgb(0%,0%,0%);fill-opacity:1;" d="M 695.109375 357.457031 C 692.089844 357.457031 690.105469 355.683594 690.105469 353.027344 L 690.105469 345.15625 L 692.589844 345.15625 L 692.589844 352.824219 C 692.589844 354.242188 693.589844 355.261719 695.109375 355.261719 C 696.632812 355.261719 697.625 354.242188 697.625 352.824219 L 697.625 345.15625 L 700.113281 345.15625 L 700.113281 353.027344 C 700.113281 355.683594 698.105469 357.457031 695.109375 357.457031 "/>
<path style="fill-rule:nonzero;fill:rgb(97.254902%,61.960787%,36.470589%);fill-opacity:1;stroke-width:3;stroke-linecap:butt;stroke-linejoin:miter;stroke:rgb(0%,0%,0%);stroke-opacity:1;stroke-miterlimit:4;" d="M 734.997576 156.669911 C 734.997576 153.358475 737.685743 150.671839 740.999065 150.671839 L 798.997835 150.671839 C 802.311158 150.671839 804.999325 153.358475 804.999325 156.669911 L 804.999325 194.001661 C 804.999325 197.313096 802.311158 199.999733 798.997835 199.999733 L 740.999065 199.999733 C 737.685743 199.999733 734.997576 197.313096 734.997576 194.001661 Z M 734.997576 156.669911 " transform="matrix(0.749814,0,0,0.750241,181.080045,222.053547)"/>
<path style=" stroke:none;fill-rule:nonzero;fill:rgb(0%,0%,0%);fill-opacity:1;" d="M 747.15625 357.449219 C 743.753906 357.449219 741.453125 355.074219 741.453125 351.238281 C 741.453125 347.304688 743.910156 344.996094 747.097656 344.996094 C 749.824219 344.996094 751.925781 346.671875 752.265625 349.066406 L 749.742188 349.066406 C 749.402344 347.910156 748.492188 347.199219 747.140625 347.199219 C 745.269531 347.199219 743.976562 348.640625 743.976562 351.214844 C 743.976562 353.785156 745.226562 355.242188 747.171875 355.242188 C 748.898438 355.242188 749.9375 354.265625 749.980469 352.710938 L 747.34375 352.710938 L 747.34375 350.824219 L 752.386719 350.824219 L 752.386719 352.335938 C 752.386719 355.519531 750.199219 357.449219 747.15625 357.449219 "/>
<path style=" stroke:none;fill-rule:nonzero;fill:rgb(0%,0%,0%);fill-opacity:1;" d="M 754.292969 357.285156 L 754.292969 345.15625 L 759.019531 345.15625 C 761.777344 345.15625 763.355469 346.867188 763.355469 349.253906 C 763.355469 351.652344 761.753906 353.324219 758.960938 353.324219 L 756.773438 353.324219 L 756.773438 357.285156 Z M 756.773438 351.320312 L 758.5625 351.320312 C 760.074219 351.320312 760.792969 350.472656 760.792969 349.253906 C 760.792969 348.03125 760.074219 347.207031 758.554688 347.207031 L 756.773438 347.207031 L 756.773438 351.320312 "/>
<path style=" stroke:none;fill-rule:nonzero;fill:rgb(0%,0%,0%);fill-opacity:1;" d="M 770.089844 357.457031 C 767.074219 357.457031 765.085938 355.683594 765.085938 353.027344 L 765.085938 345.15625 L 767.570312 345.15625 L 767.570312 352.824219 C 767.570312 354.242188 768.570312 355.261719 770.089844 355.261719 C 771.613281 355.261719 772.605469 354.242188 772.605469 352.824219 L 772.605469 345.15625 L 775.09375 345.15625 L 775.09375 353.027344 C 775.09375 355.683594 773.085938 357.457031 770.089844 357.457031 "/>
<path style="fill-rule:nonzero;fill:rgb(97.254902%,61.960787%,36.470589%);fill-opacity:1;stroke-width:3;stroke-linecap:butt;stroke-linejoin:miter;stroke:rgb(0%,0%,0%);stroke-opacity:1;stroke-miterlimit:4;" d="M 835.001563 156.669911 C 835.001563 153.358475 837.684521 150.671839 840.997843 150.671839 L 899.001823 150.671839 C 902.315146 150.671839 904.998103 153.358475 904.998103 156.669911 L 904.998103 194.001661 C 904.998103 197.313096 902.315146 199.999733 899.001823 199.999733 L 840.997843 199.999733 C 837.684521 199.999733 835.001563 197.313096 835.001563 194.001661 Z M 835.001563 156.669911 " transform="matrix(0.749814,0,0,0.750241,181.080045,222.053547)"/>
<path style=" stroke:none;fill-rule:nonzero;fill:rgb(0%,0%,0%);fill-opacity:1;" d="M 822.136719 357.449219 C 818.738281 357.449219 816.433594 355.074219 816.433594 351.238281 C 816.433594 347.304688 818.890625 344.996094 822.082031 344.996094 C 824.804688 344.996094 826.90625 346.671875 827.246094 349.066406 L 824.726562 349.066406 C 824.382812 347.910156 823.472656 347.199219 822.121094 347.199219 C 820.25 347.199219 818.957031 348.640625 818.957031 351.214844 C 818.957031 353.785156 820.210938 355.242188 822.152344 355.242188 C 823.878906 355.242188 824.921875 354.265625 824.960938 352.710938 L 822.324219 352.710938 L 822.324219 350.824219 L 827.367188 350.824219 L 827.367188 352.335938 C 827.367188 355.519531 825.179688 357.449219 822.136719 357.449219 "/>
<path style=" stroke:none;fill-rule:nonzero;fill:rgb(0%,0%,0%);fill-opacity:1;" d="M 829.273438 357.285156 L 829.273438 345.15625 L 834 345.15625 C 836.757812 345.15625 838.335938 346.867188 838.335938 349.253906 C 838.335938 351.652344 836.734375 353.324219 833.941406 353.324219 L 831.753906 353.324219 L 831.753906 357.285156 Z M 831.753906 351.320312 L 833.542969 351.320312 C 835.058594 351.320312 835.773438 350.472656 835.773438 349.253906 C 835.773438 348.03125 835.058594 347.207031 833.535156 347.207031 L 831.753906 347.207031 L 831.753906 351.320312 "/>
<path style=" stroke:none;fill-rule:nonzero;fill:rgb(0%,0%,0%);fill-opacity:1;" d="M 845.074219 357.457031 C 842.054688 357.457031 840.070312 355.683594 840.070312 353.027344 L 840.070312 345.15625 L 842.550781 345.15625 L 842.550781 352.824219 C 842.550781 354.242188 843.550781 355.261719 845.074219 355.261719 C 846.59375 355.261719 847.585938 354.242188 847.585938 352.824219 L 847.585938 345.15625 L 850.078125 345.15625 L 850.078125 353.027344 C 850.078125 355.683594 848.066406 357.457031 845.074219 357.457031 "/>
<path style="fill-rule:nonzero;fill:rgb(97.254902%,61.960787%,36.470589%);fill-opacity:1;stroke-width:3;stroke-linecap:butt;stroke-linejoin:miter;stroke:rgb(0%,0%,0%);stroke-opacity:1;stroke-miterlimit:4;" d="M 935.000341 156.669911 C 935.000341 153.358475 937.688509 150.671839 941.001831 150.671839 L 999.000601 150.671839 C 1002.313924 150.671839 1005.002091 153.358475 1005.002091 156.669911 L 1005.002091 194.001661 C 1005.002091 197.313096 1002.313924 199.999733 999.000601 199.999733 L 941.001831 199.999733 C 937.688509 199.999733 935.000341 197.313096 935.000341 194.001661 Z M 935.000341 156.669911 " transform="matrix(0.749814,0,0,0.750241,181.080045,222.053547)"/>
<path style=" stroke:none;fill-rule:nonzero;fill:rgb(0%,0%,0%);fill-opacity:1;" d="M 897.117188 357.449219 C 893.71875 357.449219 891.414062 355.074219 891.414062 351.238281 C 891.414062 347.304688 893.871094 344.996094 897.0625 344.996094 C 899.789062 344.996094 901.886719 346.671875 902.226562 349.066406 L 899.707031 349.066406 C 899.363281 347.910156 898.453125 347.199219 897.101562 347.199219 C 895.230469 347.199219 893.9375 348.640625 893.9375 351.214844 C 893.9375 353.785156 895.191406 355.242188 897.136719 355.242188 C 898.859375 355.242188 899.902344 354.265625 899.941406 352.710938 L 897.304688 352.710938 L 897.304688 350.824219 L 902.351562 350.824219 L 902.351562 352.335938 C 902.351562 355.519531 900.160156 357.449219 897.117188 357.449219 "/>
<path style=" stroke:none;fill-rule:nonzero;fill:rgb(0%,0%,0%);fill-opacity:1;" d="M 904.253906 357.285156 L 904.253906 345.15625 L 908.980469 345.15625 C 911.738281 345.15625 913.316406 346.867188 913.316406 349.253906 C 913.316406 351.652344 911.714844 353.324219 908.925781 353.324219 L 906.734375 353.324219 L 906.734375 357.285156 Z M 906.734375 351.320312 L 908.527344 351.320312 C 910.039062 351.320312 910.753906 350.472656 910.753906 349.253906 C 910.753906 348.03125 910.039062 347.207031 908.515625 347.207031 L 906.734375 347.207031 L 906.734375 351.320312 "/>
<path style=" stroke:none;fill-rule:nonzero;fill:rgb(0%,0%,0%);fill-opacity:1;" d="M 920.054688 357.457031 C 917.035156 357.457031 915.050781 355.683594 915.050781 353.027344 L 915.050781 345.15625 L 917.53125 345.15625 L 917.53125 352.824219 C 917.53125 354.242188 918.53125 355.261719 920.054688 355.261719 C 921.574219 355.261719 922.566406 354.242188 922.566406 352.824219 L 922.566406 345.15625 L 925.058594 345.15625 L 925.058594 353.027344 C 925.058594 355.683594 923.046875 357.457031 920.054688 357.457031 "/>
<path style="fill-rule:nonzero;fill:rgb(97.254902%,61.960787%,36.470589%);fill-opacity:1;stroke-width:3;stroke-linecap:butt;stroke-linejoin:miter;stroke:rgb(0%,0%,0%);stroke-opacity:1;stroke-miterlimit:4;" d="M 634.998797 246.000571 C 634.998797 242.683929 637.686965 240.002499 641.000287 240.002499 L 698.999057 240.002499 C 702.31238 240.002499 705.000547 242.683929 705.000547 246.000571 L 705.000547 283.332321 C 705.000547 286.643757 702.31238 289.330393 698.999057 289.330393 L 641.000287 289.330393 C 637.686965 289.330393 634.998797 286.643757 634.998797 283.332321 Z M 634.998797 246.000571 " transform="matrix(0.749814,0,0,0.750241,181.080045,222.053547)"/>
<path style=" stroke:none;fill-rule:nonzero;fill:rgb(0%,0%,0%);fill-opacity:1;" d="M 672.175781 424.46875 C 668.773438 424.46875 666.472656 422.09375 666.472656 418.257812 C 666.472656 414.324219 668.929688 412.015625 672.117188 412.015625 C 674.84375 412.015625 676.941406 413.691406 677.285156 416.085938 L 674.761719 416.085938 C 674.421875 414.929688 673.507812 414.21875 672.160156 414.21875 C 670.289062 414.21875 668.992188 415.660156 668.992188 418.234375 C 668.992188 420.804688 670.246094 422.261719 672.191406 422.261719 C 673.914062 422.261719 674.957031 421.285156 674.996094 419.730469 L 672.363281 419.730469 L 672.363281 417.84375 L 677.40625 417.84375 L 677.40625 419.355469 C 677.40625 422.539062 675.21875 424.46875 672.175781 424.46875 "/>
<path style=" stroke:none;fill-rule:nonzero;fill:rgb(0%,0%,0%);fill-opacity:1;" d="M 679.308594 424.304688 L 679.308594 412.175781 L 684.035156 412.175781 C 686.796875 412.175781 688.375 413.886719 688.375 416.273438 C 688.375 418.671875 686.769531 420.34375 683.980469 420.34375 L 681.792969 420.34375 L 681.792969 424.304688 Z M 681.792969 418.339844 L 683.582031 418.339844 C 685.09375 418.339844 685.8125 417.492188 685.8125 416.273438 C 685.8125 415.050781 685.09375 414.226562 683.574219 414.226562 L 681.792969 414.226562 L 681.792969 418.339844 "/>
<path style=" stroke:none;fill-rule:nonzero;fill:rgb(0%,0%,0%);fill-opacity:1;" d="M 695.109375 424.476562 C 692.089844 424.476562 690.105469 422.703125 690.105469 420.046875 L 690.105469 412.175781 L 692.589844 412.175781 L 692.589844 419.84375 C 692.589844 421.261719 693.589844 422.28125 695.109375 422.28125 C 696.632812 422.28125 697.625 421.261719 697.625 419.84375 L 697.625 412.175781 L 700.113281 412.175781 L 700.113281 420.046875 C 700.113281 422.703125 698.105469 424.476562 695.109375 424.476562 "/>
<path style="fill-rule:nonzero;fill:rgb(97.254902%,61.960787%,36.470589%);fill-opacity:1;stroke-width:3;stroke-linecap:butt;stroke-linejoin:miter;stroke:rgb(0%,0%,0%);stroke-opacity:1;stroke-miterlimit:4;" d="M 734.997576 246.000571 C 734.997576 242.683929 737.685743 240.002499 740.999065 240.002499 L 798.997835 240.002499 C 802.311158 240.002499 804.999325 242.683929 804.999325 246.000571 L 804.999325 283.332321 C 804.999325 286.643757 802.311158 289.330393 798.997835 289.330393 L 740.999065 289.330393 C 737.685743 289.330393 734.997576 286.643757 734.997576 283.332321 Z M 734.997576 246.000571 " transform="matrix(0.749814,0,0,0.750241,181.080045,222.053547)"/>
<path style=" stroke:none;fill-rule:nonzero;fill:rgb(0%,0%,0%);fill-opacity:1;" d="M 747.15625 424.46875 C 743.753906 424.46875 741.453125 422.09375 741.453125 418.257812 C 741.453125 414.324219 743.910156 412.015625 747.097656 412.015625 C 749.824219 412.015625 751.925781 413.691406 752.265625 416.085938 L 749.742188 416.085938 C 749.402344 414.929688 748.492188 414.21875 747.140625 414.21875 C 745.269531 414.21875 743.976562 415.660156 743.976562 418.234375 C 743.976562 420.804688 745.226562 422.261719 747.171875 422.261719 C 748.898438 422.261719 749.9375 421.285156 749.980469 419.730469 L 747.34375 419.730469 L 747.34375 417.84375 L 752.386719 417.84375 L 752.386719 419.355469 C 752.386719 422.539062 750.199219 424.46875 747.15625 424.46875 "/>
<path style=" stroke:none;fill-rule:nonzero;fill:rgb(0%,0%,0%);fill-opacity:1;" d="M 754.292969 424.304688 L 754.292969 412.175781 L 759.019531 412.175781 C 761.777344 412.175781 763.355469 413.886719 763.355469 416.273438 C 763.355469 418.671875 761.753906 420.34375 758.960938 420.34375 L 756.773438 420.34375 L 756.773438 424.304688 Z M 756.773438 418.339844 L 758.5625 418.339844 C 760.074219 418.339844 760.792969 417.492188 760.792969 416.273438 C 760.792969 415.050781 760.074219 414.226562 758.554688 414.226562 L 756.773438 414.226562 L 756.773438 418.339844 "/>
<path style=" stroke:none;fill-rule:nonzero;fill:rgb(0%,0%,0%);fill-opacity:1;" d="M 770.089844 424.476562 C 767.074219 424.476562 765.085938 422.703125 765.085938 420.046875 L 765.085938 412.175781 L 767.570312 412.175781 L 767.570312 419.84375 C 767.570312 421.261719 768.570312 422.28125 770.089844 422.28125 C 771.613281 422.28125 772.605469 421.261719 772.605469 419.84375 L 772.605469 412.175781 L 775.09375 412.175781 L 775.09375 420.046875 C 775.09375 422.703125 773.085938 424.476562 770.089844 424.476562 "/>
<path style="fill-rule:nonzero;fill:rgb(97.254902%,61.960787%,36.470589%);fill-opacity:1;stroke-width:3;stroke-linecap:butt;stroke-linejoin:miter;stroke:rgb(0%,0%,0%);stroke-opacity:1;stroke-miterlimit:4;" d="M 835.001563 246.000571 C 835.001563 242.683929 837.684521 240.002499 840.997843 240.002499 L 899.001823 240.002499 C 902.315146 240.002499 904.998103 242.683929 904.998103 246.000571 L 904.998103 283.332321 C 904.998103 286.643757 902.315146 289.330393 899.001823 289.330393 L 840.997843 289.330393 C 837.684521 289.330393 835.001563 286.643757 835.001563 283.332321 Z M 835.001563 246.000571 " transform="matrix(0.749814,0,0,0.750241,181.080045,222.053547)"/>
<path style=" stroke:none;fill-rule:nonzero;fill:rgb(0%,0%,0%);fill-opacity:1;" d="M 822.136719 424.46875 C 818.738281 424.46875 816.433594 422.09375 816.433594 418.257812 C 816.433594 414.324219 818.890625 412.015625 822.082031 412.015625 C 824.804688 412.015625 826.90625 413.691406 827.246094 416.085938 L 824.726562 416.085938 C 824.382812 414.929688 823.472656 414.21875 822.121094 414.21875 C 820.25 414.21875 818.957031 415.660156 818.957031 418.234375 C 818.957031 420.804688 820.210938 422.261719 822.152344 422.261719 C 823.878906 422.261719 824.921875 421.285156 824.960938 419.730469 L 822.324219 419.730469 L 822.324219 417.84375 L 827.367188 417.84375 L 827.367188 419.355469 C 827.367188 422.539062 825.179688 424.46875 822.136719 424.46875 "/>
<path style=" stroke:none;fill-rule:nonzero;fill:rgb(0%,0%,0%);fill-opacity:1;" d="M 829.273438 424.304688 L 829.273438 412.175781 L 834 412.175781 C 836.757812 412.175781 838.335938 413.886719 838.335938 416.273438 C 838.335938 418.671875 836.734375 420.34375 833.941406 420.34375 L 831.753906 420.34375 L 831.753906 424.304688 Z M 831.753906 418.339844 L 833.542969 418.339844 C 835.058594 418.339844 835.773438 417.492188 835.773438 416.273438 C 835.773438 415.050781 835.058594 414.226562 833.535156 414.226562 L 831.753906 414.226562 L 831.753906 418.339844 "/>
<path style=" stroke:none;fill-rule:nonzero;fill:rgb(0%,0%,0%);fill-opacity:1;" d="M 845.074219 424.476562 C 842.054688 424.476562 840.070312 422.703125 840.070312 420.046875 L 840.070312 412.175781 L 842.550781 412.175781 L 842.550781 419.84375 C 842.550781 421.261719 843.550781 422.28125 845.074219 422.28125 C 846.59375 422.28125 847.585938 421.261719 847.585938 419.84375 L 847.585938 412.175781 L 850.078125 412.175781 L 850.078125 420.046875 C 850.078125 422.703125 848.066406 424.476562 845.074219 424.476562 "/>
<path style="fill-rule:nonzero;fill:rgb(97.254902%,61.960787%,36.470589%);fill-opacity:1;stroke-width:3;stroke-linecap:butt;stroke-linejoin:miter;stroke:rgb(0%,0%,0%);stroke-opacity:1;stroke-miterlimit:4;" d="M 935.000341 246.000571 C 935.000341 242.683929 937.688509 240.002499 941.001831 240.002499 L 999.000601 240.002499 C 1002.313924 240.002499 1005.002091 242.683929 1005.002091 246.000571 L 1005.002091 283.332321 C 1005.002091 286.643757 1002.313924 289.330393 999.000601 289.330393 L 941.001831 289.330393 C 937.688509 289.330393 935.000341 286.643757 935.000341 283.332321 Z M 935.000341 246.000571 " transform="matrix(0.749814,0,0,0.750241,181.080045,222.053547)"/>
<path style=" stroke:none;fill-rule:nonzero;fill:rgb(0%,0%,0%);fill-opacity:1;" d="M 897.117188 424.46875 C 893.71875 424.46875 891.414062 422.09375 891.414062 418.257812 C 891.414062 414.324219 893.871094 412.015625 897.0625 412.015625 C 899.789062 412.015625 901.886719 413.691406 902.226562 416.085938 L 899.707031 416.085938 C 899.363281 414.929688 898.453125 414.21875 897.101562 414.21875 C 895.230469 414.21875 893.9375 415.660156 893.9375 418.234375 C 893.9375 420.804688 895.191406 422.261719 897.136719 422.261719 C 898.859375 422.261719 899.902344 421.285156 899.941406 419.730469 L 897.304688 419.730469 L 897.304688 417.84375 L 902.351562 417.84375 L 902.351562 419.355469 C 902.351562 422.539062 900.160156 424.46875 897.117188 424.46875 "/>
<path style=" stroke:none;fill-rule:nonzero;fill:rgb(0%,0%,0%);fill-opacity:1;" d="M 904.253906 424.304688 L 904.253906 412.175781 L 908.980469 412.175781 C 911.738281 412.175781 913.316406 413.886719 913.316406 416.273438 C 913.316406 418.671875 911.714844 420.34375 908.925781 420.34375 L 906.734375 420.34375 L 906.734375 424.304688 Z M 906.734375 418.339844 L 908.527344 418.339844 C 910.039062 418.339844 910.753906 417.492188 910.753906 416.273438 C 910.753906 415.050781 910.039062 414.226562 908.515625 414.226562 L 906.734375 414.226562 L 906.734375 418.339844 "/>
<path style=" stroke:none;fill-rule:nonzero;fill:rgb(0%,0%,0%);fill-opacity:1;" d="M 920.054688 424.476562 C 917.035156 424.476562 915.050781 422.703125 915.050781 420.046875 L 915.050781 412.175781 L 917.53125 412.175781 L 917.53125 419.84375 C 917.53125 421.261719 918.53125 422.28125 920.054688 422.28125 C 921.574219 422.28125 922.566406 421.261719 922.566406 419.84375 L 922.566406 412.175781 L 925.058594 412.175781 L 925.058594 420.046875 C 925.058594 422.703125 923.046875 424.476562 920.054688 424.476562 "/>
<path style="fill-rule:nonzero;fill:rgb(100%,100%,100%);fill-opacity:1;stroke-width:3;stroke-linecap:butt;stroke-linejoin:miter;stroke:rgb(25.882354%,61.56863%,61.960787%);stroke-opacity:1;stroke-miterlimit:4;" d="M 600.000528 -79.46252 C 600.000528 -82.773956 602.688695 -85.460592 606.002017 -85.460592 L 1051.800164 -85.460592 C 1055.113487 -85.460592 1057.801654 -82.773956 1057.801654 -79.46252 L 1057.801654 70.140433 C 1057.801654 73.451869 1055.113487 76.138505 1051.800164 76.138505 L 606.002017 76.138505 C 602.688695 76.138505 600.000528 73.451869 600.000528 70.140433 Z M 600.000528 -79.46252 " transform="matrix(0.749814,0,0,0.750241,181.080045,222.053547)"/>
<path style="fill-rule:nonzero;fill:rgb(7.450981%,41.568628%,49.803922%);fill-opacity:1;stroke-width:3;stroke-linecap:butt;stroke-linejoin:miter;stroke:rgb(0%,0%,0%);stroke-opacity:1;stroke-miterlimit:4;" d="M 122.621625 183.942394 C 122.621625 191.221305 56.079068 197.12045 -26.009015 197.12045 C -108.107517 197.12045 -174.650074 191.221305 -174.650074 183.942394 L -174.650074 78.502329 C -174.650074 71.228625 -108.107517 65.32948 -26.019434 65.32948 C 56.058229 65.32948 122.600787 71.228625 122.600787 78.507535 Z M 122.621625 183.942394 " transform="matrix(0.749814,0,0,0.750241,181.080045,222.053547)"/>
<path style="fill:none;stroke-width:3;stroke-linecap:butt;stroke-linejoin:miter;stroke:rgb(0%,0%,0%);stroke-opacity:1;stroke-miterlimit:4;" d="M 122.621625 78.502329 C 122.621625 85.802065 56.079068 91.701211 -26.009015 91.701211 C -108.107517 91.701211 -174.650074 85.802065 -174.650074 78.502329 " transform="matrix(0.749814,0,0,0.750241,181.080045,222.053547)"/>
<path style="fill-rule:nonzero;fill:rgb(7.450981%,41.568628%,49.803922%);fill-opacity:1;stroke-width:3;stroke-linecap:butt;stroke-linejoin:miter;stroke:rgb(0%,0%,0%);stroke-opacity:1;stroke-miterlimit:4;" d="M 121.329638 66.131305 C 121.329638 73.410215 54.79229 79.309361 -27.301002 79.309361 C -109.378666 79.309361 -175.931643 73.410215 -175.931643 66.141718 L -175.931643 -39.298347 C -175.931643 -46.582464 -109.378666 -52.48161 -27.301002 -52.48161 C 54.7975 -52.48161 121.329638 -46.582464 121.329638 -39.308761 Z M 121.329638 66.131305 " transform="matrix(0.749814,0,0,0.750241,181.080045,222.053547)"/>
<path style="fill:none;stroke-width:3;stroke-linecap:butt;stroke-linejoin:miter;stroke:rgb(0%,0%,0%);stroke-opacity:1;stroke-miterlimit:4;" d="M 121.329638 -39.298347 C 121.329638 -32.02985 54.79229 -26.130705 -27.301002 -26.130705 C -109.378666 -26.130705 -175.931643 -32.02985 -175.931643 -39.308761 " transform="matrix(0.749814,0,0,0.750241,181.080045,222.053547)"/>
<path style="fill-rule:nonzero;fill:rgb(7.450981%,41.568628%,49.803922%);fill-opacity:1;stroke-width:3;stroke-linecap:butt;stroke-linejoin:miter;stroke:rgb(0%,0%,0%);stroke-opacity:1;stroke-miterlimit:4;" d="M 121.329638 -55.058906 C 121.329638 -47.779996 54.79229 -41.88085 -27.301002 -41.88085 C -109.378666 -41.88085 -175.931643 -47.779996 -175.931643 -55.058906 L -175.931643 -160.498972 C -175.931643 -167.767469 -109.378666 -173.671821 -27.301002 -173.671821 C 54.7975 -173.671821 121.329638 -167.767469 121.329638 -160.488558 Z M 121.329638 -55.058906 " transform="matrix(0.749814,0,0,0.750241,181.080045,222.053547)"/>
<path style="fill:none;stroke-width:3;stroke-linecap:butt;stroke-linejoin:miter;stroke:rgb(0%,0%,0%);stroke-opacity:1;stroke-miterlimit:4;" d="M 121.329638 -160.498972 C 121.329638 -153.199235 54.79229 -147.300089 -27.301002 -147.300089 C -109.378666 -147.300089 -175.931643 -153.199235 -175.931643 -160.498972 " transform="matrix(0.749814,0,0,0.750241,181.080045,222.053547)"/>
<path style="fill:none;stroke-width:6;stroke-linecap:butt;stroke-linejoin:miter;stroke:rgb(7.450981%,41.568628%,49.803922%);stroke-opacity:1;stroke-miterlimit:4;" d="M 819.997839 531.528583 L 819.997839 428.467961 " transform="matrix(0.749814,0,0,0.750241,181.080045,222.053547)"/>
<path style="fill-rule:nonzero;fill:rgb(7.450981%,41.568628%,49.803922%);fill-opacity:1;stroke-width:6;stroke-linecap:butt;stroke-linejoin:miter;stroke:rgb(7.450981%,41.568628%,49.803922%);stroke-opacity:1;stroke-miterlimit:4;" d="M 819.997839 548.799073 L 815.371691 534.527619 L 824.629197 534.527619 Z M 819.997839 411.19747 L 824.629197 425.468925 L 815.371691 425.468925 Z M 819.997839 411.19747 " transform="matrix(0.749814,0,0,0.750241,181.080045,222.053547)"/>
<path style="fill:none;stroke-width:6;stroke-linecap:butt;stroke-linejoin:miter;stroke:rgb(7.450981%,41.568628%,49.803922%);stroke-opacity:1;stroke-miterlimit:4;" d="M 589.029054 650.000918 L -20.002316 650.000918 C -23.315638 650.000918 -25.998596 647.314281 -25.998596 643.997639 L -25.998596 341.35013 " transform="matrix(0.749814,0,0,0.750241,181.080045,222.053547)"/>
<path style="fill-rule:nonzero;fill:rgb(7.450981%,41.568628%,49.803922%);fill-opacity:1;stroke-width:6;stroke-linecap:butt;stroke-linejoin:miter;stroke:rgb(7.450981%,41.568628%,49.803922%);stroke-opacity:1;stroke-miterlimit:4;" d="M 606.298966 650.000918 L 592.029799 654.629638 L 592.029799 645.372197 Z M -25.998596 324.07964 L -21.372448 338.351094 L -30.640373 338.351094 Z M -25.998596 324.07964 " transform="matrix(0.749814,0,0,0.750241,181.080045,222.053547)"/>
<path style="fill-rule:nonzero;fill:rgb(100%,100%,100%);fill-opacity:1;stroke-width:3;stroke-linecap:butt;stroke-linejoin:miter;stroke:rgb(0%,0%,0%);stroke-opacity:1;stroke-miterlimit:4;" d="M -145.371974 220.998191 C -145.371974 217.686756 -142.683807 215.000119 -139.370485 215.000119 L 87.352455 215.000119 C 90.665777 215.000119 93.348735 217.686756 93.348735 220.998191 L 93.348735 306.882043 C 93.348735 310.193479 90.665777 312.880115 87.352455 312.880115 L -139.370485 312.880115 C -142.683807 312.880115 -145.371974 310.193479 -145.371974 306.882043 Z M -145.371974 220.998191 " transform="matrix(0.749814,0,0,0.750241,181.080045,222.053547)"/>
<path style=" stroke:none;fill-rule:nonzero;fill:rgb(0%,0%,0%);fill-opacity:1;" d="M 147.128906 417.019531 C 147.128906 419.96875 144.855469 421.570312 141.738281 421.523438 L 139.171875 421.523438 L 139.171875 426.53125 L 136.242188 426.53125 L 136.242188 412.308594 L 141.789062 412.308594 C 144.941406 412.359375 147.128906 413.941406 147.128906 417.019531 Z M 144.171875 417.039062 C 144.179688 415.640625 143.261719 414.683594 141.855469 414.683594 L 139.171875 414.683594 L 139.171875 419.148438 L 141.789062 419.148438 C 143.261719 419.15625 144.171875 418.453125 144.171875 417.039062 "/>
<path style=" stroke:none;fill-rule:nonzero;fill:rgb(0%,0%,0%);fill-opacity:1;" d="M 151.765625 418.941406 C 151.660156 422.03125 152.351562 424.375 155.105469 424.375 C 156.207031 424.375 156.988281 424.140625 157.457031 423.671875 L 157.457031 421.21875 L 154.792969 421.21875 L 154.792969 419.058594 L 160.386719 419.058594 L 160.386719 424.734375 C 159.363281 425.996094 157.242188 426.765625 154.949219 426.726562 C 150.605469 426.648438 148.660156 423.679688 148.789062 419.011719 C 148.894531 414.898438 150.742188 412.171875 154.742188 412.113281 C 158.132812 412.066406 160.046875 413.785156 160.386719 416.832031 L 157.535156 416.832031 C 157.292969 415.300781 156.511719 414.476562 154.832031 414.476562 C 153.835938 414.476562 153.074219 414.851562 152.558594 415.601562 C 152.039062 416.355469 151.816406 417.46875 151.765625 418.941406 "/>
<path style=" stroke:none;fill-rule:nonzero;fill:rgb(0%,0%,0%);fill-opacity:1;" d="M 170.785156 423.601562 L 165.648438 423.601562 L 164.671875 426.53125 L 161.558594 426.53125 L 166.851562 412.308594 L 169.5625 412.308594 L 174.886719 426.53125 L 171.769531 426.53125 Z M 166.441406 421.230469 L 169.992188 421.230469 L 168.207031 415.90625 "/>
<path style=" stroke:none;fill-rule:nonzero;fill:rgb(0%,0%,0%);fill-opacity:1;" d="M 184.238281 423.601562 L 179.101562 423.601562 L 178.125 426.53125 L 175.011719 426.53125 L 180.304688 412.308594 L 183.019531 412.308594 L 188.339844 426.53125 L 185.222656 426.53125 Z M 179.894531 421.230469 L 183.449219 421.230469 L 181.660156 415.90625 "/>
<path style="fill:none;stroke-width:6;stroke-linecap:butt;stroke-linejoin:miter;stroke:rgb(7.450981%,41.568628%,49.803922%);stroke-opacity:1;stroke-miterlimit:4;" d="M 121.819343 263.937514 L 310.668298 263.937514 C 313.981621 263.937514 316.669788 261.256084 316.669788 257.939442 L 316.669788 -170.927911 C 316.669788 -174.244553 319.357955 -176.93119 322.671278 -176.93119 L 511.530653 -176.93119 " transform="matrix(0.749814,0,0,0.750241,181.080045,222.053547)"/>
<path style="fill-rule:nonzero;fill:rgb(7.450981%,41.568628%,49.803922%);fill-opacity:1;stroke-width:6;stroke-linecap:butt;stroke-linejoin:miter;stroke:rgb(7.450981%,41.568628%,49.803922%);stroke-opacity:1;stroke-miterlimit:4;" d="M 104.549431 263.937514 L 118.818598 259.29838 L 118.818598 268.571441 Z M 528.800564 -176.93119 L 514.531397 -172.302469 L 514.531397 -181.570324 Z M 528.800564 -176.93119 " transform="matrix(0.749814,0,0,0.750241,181.080045,222.053547)"/>
<path style="fill-rule:nonzero;fill:rgb(100%,100%,100%);fill-opacity:1;stroke-width:3;stroke-linecap:butt;stroke-linejoin:miter;stroke:rgb(0%,0%,0%);stroke-opacity:1;stroke-miterlimit:4;" d="M 540.001261 -193.99862 C 540.001261 -197.315263 542.684218 -200.001899 545.997541 -200.001899 L 774.002048 -200.001899 C 777.315371 -200.001899 779.998328 -197.315263 779.998328 -193.99862 L 779.998328 -145.878671 C 779.998328 -142.567236 777.315371 -139.880599 774.002048 -139.880599 L 545.997541 -139.880599 C 542.684218 -139.880599 540.001261 -142.567236 540.001261 -145.878671 Z M 540.001261 -193.99862 " transform="matrix(0.749814,0,0,0.750241,181.080045,222.053547)"/>
<path style=" stroke:none;fill-rule:nonzero;fill:rgb(0%,0%,0%);fill-opacity:1;" d="M 618.085938 99.183594 C 619.324219 99.183594 620.300781 98.707031 620.300781 97.570312 C 620.300781 97.015625 620.097656 96.613281 619.714844 96.300781 C 618.945312 95.675781 616.101562 94.914062 615.195312 94.386719 C 613.613281 93.460938 612.773438 92.335938 612.773438 90.859375 C 612.773438 88.125 615.175781 86.925781 618.015625 86.886719 C 620.097656 86.855469 621.753906 87.707031 622.574219 88.996094 C 623.015625 89.667969 623.238281 90.429688 623.238281 91.28125 L 620.3125 91.28125 C 620.3125 89.921875 619.375 89.21875 617.96875 89.21875 C 616.707031 89.21875 615.703125 89.757812 615.703125 90.871094 C 615.703125 91.328125 615.9375 91.71875 616.40625 92.035156 C 616.875 92.347656 617.546875 92.640625 618.457031 92.914062 C 620.125 93.410156 621.335938 94.035156 622.097656 94.777344 C 622.859375 95.519531 623.238281 96.449219 623.238281 97.550781 C 623.21875 100.210938 620.925781 101.566406 618.085938 101.5 C 614.890625 101.429688 612.421875 99.984375 612.335938 96.828125 L 615.273438 96.828125 C 615.273438 98.402344 616.210938 99.183594 618.085938 99.183594 "/>
<path style=" stroke:none;fill-rule:nonzero;fill:rgb(0%,0%,0%);fill-opacity:1;" d="M 630.425781 90.539062 C 633.304688 90.539062 634.546875 92.980469 634.546875 96.117188 C 634.546875 99.046875 633.167969 101.480469 630.445312 101.5 C 629.378906 101.5 628.511719 101.128906 627.859375 100.386719 L 627.859375 105.367188 L 625.035156 105.367188 L 625.035156 90.734375 L 627.652344 90.734375 L 627.75 91.769531 C 628.433594 90.949219 629.324219 90.539062 630.425781 90.539062 Z M 631.722656 95.910156 C 631.722656 94.203125 631.207031 92.835938 629.683594 92.835938 C 628.796875 92.835938 628.191406 93.175781 627.859375 93.851562 L 627.859375 98.179688 C 628.199219 98.871094 628.816406 99.222656 629.703125 99.222656 C 631.050781 99.222656 631.722656 98.121094 631.722656 95.910156 "/>
<path style=" stroke:none;fill-rule:nonzero;fill:rgb(0%,0%,0%);fill-opacity:1;" d="M 640.597656 90.539062 C 643.078125 90.5 644.847656 91.847656 644.847656 94.28125 L 644.847656 98.863281 C 644.855469 99.867188 644.992188 100.621094 645.265625 101.136719 L 645.265625 101.304688 L 642.414062 101.304688 C 642.289062 101.050781 642.191406 100.738281 642.132812 100.355469 C 641.449219 101.117188 640.558594 101.5 639.464844 101.5 C 637.53125 101.5 635.835938 100.199219 635.875 98.335938 C 635.921875 95.8125 637.941406 94.847656 640.714844 94.847656 L 642.015625 94.847656 C 642.121094 93.507812 641.730469 92.628906 640.453125 92.628906 C 639.574219 92.628906 638.929688 93.070312 638.929688 93.910156 L 636.109375 93.910156 C 636.253906 91.652344 638.1875 90.566406 640.597656 90.539062 Z M 638.695312 98.128906 C 638.695312 98.871094 639.289062 99.339844 640.082031 99.339844 C 640.941406 99.339844 641.722656 98.902344 642.015625 98.316406 L 642.015625 96.496094 L 640.960938 96.496094 C 639.476562 96.515625 638.695312 96.996094 638.695312 98.128906 "/>
<path style=" stroke:none;fill-rule:nonzero;fill:rgb(0%,0%,0%);fill-opacity:1;" d="M 652.949219 93.382812 C 651.554688 93.148438 650.226562 93.390625 649.835938 94.386719 L 649.835938 101.304688 L 647.011719 101.304688 L 647.011719 90.734375 L 649.679688 90.734375 L 649.757812 91.996094 C 650.480469 90.78125 651.515625 90.285156 652.988281 90.664062 "/>
<path style=" stroke:none;fill-rule:nonzero;fill:rgb(0%,0%,0%);fill-opacity:1;" d="M 658.144531 97.0625 L 657.128906 98.082031 L 657.128906 101.304688 L 654.304688 101.304688 L 654.304688 86.300781 L 657.128906 86.300781 L 657.128906 94.613281 C 658.164062 93.273438 659.296875 92.035156 660.378906 90.734375 L 663.765625 90.734375 L 659.949219 95.140625 L 664.097656 101.304688 L 660.855469 101.304688 "/>
<path style=" stroke:none;fill-rule:nonzero;fill:rgb(0%,0%,0%);fill-opacity:1;" d="M 672.347656 95.871094 C 672.328125 97.855469 672.640625 99.175781 674.359375 99.222656 C 675.355469 99.253906 676.128906 98.609375 676.136719 97.648438 L 678.78125 97.648438 C 678.65625 100.054688 676.898438 101.46875 674.410156 101.5 C 671.246094 101.539062 669.527344 99.234375 669.527344 95.890625 C 669.527344 92.765625 671.324219 90.539062 674.390625 90.539062 C 676.945312 90.539062 678.792969 92.171875 678.78125 94.671875 L 676.136719 94.671875 C 676.128906 93.617188 675.40625 92.785156 674.339844 92.824219 C 672.757812 92.882812 672.367188 94.027344 672.347656 95.871094 "/>
<path style=" stroke:none;fill-rule:nonzero;fill:rgb(0%,0%,0%);fill-opacity:1;" d="M 684.960938 101.5 C 681.820312 101.5 679.875 99.214844 679.953125 95.921875 C 680.03125 92.6875 681.730469 90.539062 684.941406 90.539062 C 688.105469 90.539062 689.960938 92.796875 689.960938 96.125 C 689.960938 99.242188 688.027344 101.5 684.960938 101.5 Z M 684.941406 92.824219 C 683.292969 92.824219 682.777344 94.203125 682.777344 96.125 C 682.777344 97.894531 683.371094 99.222656 684.960938 99.222656 C 686.621094 99.222656 687.140625 97.882812 687.140625 95.921875 C 687.140625 94.183594 686.515625 92.824219 684.941406 92.824219 "/>
<path style=" stroke:none;fill-rule:nonzero;fill:rgb(0%,0%,0%);fill-opacity:1;" d="M 697.9375 94.542969 C 697.929688 93.332031 697.46875 92.84375 696.25 92.835938 C 695.457031 92.835938 694.863281 93.175781 694.460938 93.851562 L 694.460938 101.304688 L 691.640625 101.304688 L 691.640625 90.734375 L 694.296875 90.734375 L 694.382812 91.957031 C 695.136719 91.007812 696.152344 90.539062 697.421875 90.539062 C 699.804688 90.539062 700.757812 92.015625 700.757812 94.476562 L 700.757812 101.304688 L 697.9375 101.304688 L 697.9375 94.542969 "/>
<path style=" stroke:none;fill-rule:nonzero;fill:rgb(0%,0%,0%);fill-opacity:1;" d="M 709.136719 94.542969 C 709.125 93.332031 708.667969 92.84375 707.449219 92.835938 C 706.65625 92.835938 706.0625 93.175781 705.660156 93.851562 L 705.660156 101.304688 L 702.839844 101.304688 L 702.839844 90.734375 L 705.496094 90.734375 L 705.582031 91.957031 C 706.335938 91.007812 707.351562 90.539062 708.617188 90.539062 C 711 90.539062 711.957031 92.015625 711.957031 94.476562 L 711.957031 101.304688 L 709.136719 101.304688 L 709.136719 94.542969 "/>
<path style=" stroke:none;fill-rule:nonzero;fill:rgb(0%,0%,0%);fill-opacity:1;" d="M 723.078125 99.59375 C 722.308594 100.71875 720.792969 101.5 718.957031 101.5 C 715.816406 101.5 713.597656 99.292969 713.714844 96 C 713.832031 92.777344 715.472656 90.539062 718.644531 90.539062 C 721.664062 90.539062 723.351562 92.628906 723.304688 95.785156 L 723.304688 96.9375 L 716.574219 96.9375 C 716.722656 98.246094 717.699219 99.222656 719.144531 99.222656 C 720.226562 99.222656 721.078125 98.832031 721.691406 98.042969 Z M 720.53125 95.011719 C 720.578125 93.65625 719.925781 92.804688 718.636719 92.824219 C 717.367188 92.835938 716.769531 93.773438 716.605469 95.011719 L 720.53125 95.011719 "/>
<path style=" stroke:none;fill-rule:nonzero;fill:rgb(0%,0%,0%);fill-opacity:1;" d="M 727.285156 95.871094 C 727.265625 97.855469 727.578125 99.175781 729.296875 99.222656 C 730.292969 99.253906 731.066406 98.609375 731.074219 97.648438 L 733.71875 97.648438 C 733.59375 100.054688 731.835938 101.46875 729.347656 101.5 C 726.183594 101.539062 724.464844 99.234375 724.464844 95.890625 C 724.464844 92.765625 726.261719 90.539062 729.328125 90.539062 C 731.882812 90.539062 733.730469 92.171875 733.71875 94.671875 L 731.074219 94.671875 C 731.066406 93.617188 730.34375 92.785156 729.277344 92.824219 C 727.695312 92.882812 727.304688 94.027344 727.285156 95.871094 "/>
<path style=" stroke:none;fill-rule:nonzero;fill:rgb(0%,0%,0%);fill-opacity:1;" d="M 738.710938 98.082031 C 738.730469 98.890625 738.953125 99.164062 739.792969 99.175781 C 740.105469 99.175781 740.378906 99.15625 740.621094 99.105469 L 740.621094 101.246094 C 740.066406 101.410156 739.5 101.5 738.914062 101.5 C 736.933594 101.5 735.886719 100.503906 735.886719 98.5 L 735.886719 92.804688 L 734.34375 92.804688 L 734.34375 90.734375 L 735.886719 90.734375 L 735.886719 88.136719 L 738.710938 88.136719 L 738.710938 90.734375 L 740.515625 90.734375 L 740.515625 92.804688 L 738.710938 92.804688 L 738.710938 98.082031 "/>
<path style="fill-rule:nonzero;fill:rgb(100%,100%,100%);fill-opacity:1;stroke-width:3;stroke-linecap:butt;stroke-linejoin:miter;stroke:rgb(25.882354%,61.56863%,61.960787%);stroke-opacity:1;stroke-miterlimit:4;" d="M 580.000772 -57.198843 C 580.000772 -60.515486 582.68373 -63.202122 586.002262 -63.202122 L 1031.800409 -63.202122 C 1035.113731 -63.202122 1037.801898 -60.515486 1037.801898 -57.198843 L 1037.801898 92.378077 C 1037.801898 95.694719 1035.113731 98.381355 1031.800409 98.381355 L 586.002262 98.381355 C 582.68373 98.381355 580.000772 95.694719 580.000772 92.378077 Z M 580.000772 -57.198843 " transform="matrix(0.749814,0,0,0.750241,181.080045,222.053547)"/>
<path style=" stroke:none;fill-rule:nonzero;fill:rgb(0%,0%,0%);fill-opacity:1;" d="M 721.214844 197.078125 C 722.457031 197.078125 723.433594 196.601562 723.433594 195.46875 C 723.433594 194.910156 723.226562 194.511719 722.847656 194.199219 C 722.074219 193.574219 719.234375 192.8125 718.328125 192.285156 C 716.746094 191.355469 715.90625 190.230469 715.90625 188.757812 C 715.90625 186.019531 718.308594 184.820312 721.148438 184.78125 C 723.226562 184.75 724.886719 185.601562 725.707031 186.890625 C 726.148438 187.566406 726.371094 188.328125 726.371094 189.175781 L 723.441406 189.175781 C 723.441406 187.820312 722.503906 187.117188 721.097656 187.117188 C 719.839844 187.117188 718.835938 187.652344 718.835938 188.765625 C 718.835938 189.226562 719.070312 189.617188 719.539062 189.929688 C 720.003906 190.242188 720.679688 190.535156 721.585938 190.808594 C 723.257812 191.304688 724.46875 191.929688 725.230469 192.675781 C 725.992188 193.417969 726.371094 194.34375 726.371094 195.449219 C 726.351562 198.105469 724.058594 199.464844 721.214844 199.394531 C 718.023438 199.328125 715.554688 197.878906 715.464844 194.726562 L 718.40625 194.726562 C 718.40625 196.296875 719.34375 197.078125 721.214844 197.078125 "/>
<path style=" stroke:none;fill-rule:nonzero;fill:rgb(0%,0%,0%);fill-opacity:1;" d="M 733.558594 188.433594 C 736.4375 188.433594 737.675781 190.875 737.675781 194.011719 C 737.675781 196.941406 736.300781 199.375 733.578125 199.394531 C 732.511719 199.394531 731.644531 199.023438 730.988281 198.28125 L 730.988281 203.261719 L 728.167969 203.261719 L 728.167969 188.628906 L 730.785156 188.628906 L 730.882812 189.664062 C 731.566406 188.84375 732.453125 188.433594 733.558594 188.433594 Z M 734.855469 193.808594 C 734.855469 192.097656 734.339844 190.730469 732.816406 190.730469 C 731.925781 190.730469 731.320312 191.070312 730.988281 191.746094 L 730.988281 196.074219 C 731.332031 196.765625 731.945312 197.117188 732.835938 197.117188 C 734.183594 197.117188 734.855469 196.015625 734.855469 193.808594 "/>
<path style=" stroke:none;fill-rule:nonzero;fill:rgb(0%,0%,0%);fill-opacity:1;" d="M 743.730469 188.433594 C 746.210938 188.394531 747.976562 189.742188 747.976562 192.175781 L 747.976562 196.757812 C 747.988281 197.761719 748.125 198.515625 748.398438 199.035156 L 748.398438 199.199219 L 745.546875 199.199219 C 745.417969 198.945312 745.320312 198.632812 745.261719 198.25 C 744.578125 199.015625 743.691406 199.394531 742.597656 199.394531 C 740.664062 199.394531 738.964844 198.09375 739.003906 196.230469 C 739.054688 193.710938 741.074219 192.742188 743.847656 192.742188 L 745.144531 192.742188 C 745.253906 191.402344 744.863281 190.523438 743.582031 190.523438 C 742.707031 190.523438 742.0625 190.964844 742.0625 191.804688 L 739.238281 191.804688 C 739.386719 189.546875 741.320312 188.464844 743.730469 188.433594 Z M 741.828125 196.023438 C 741.828125 196.765625 742.421875 197.234375 743.214844 197.234375 C 744.070312 197.234375 744.851562 196.796875 745.144531 196.210938 L 745.144531 194.394531 L 744.089844 194.394531 C 742.609375 194.414062 741.828125 194.890625 741.828125 196.023438 "/>
<path style=" stroke:none;fill-rule:nonzero;fill:rgb(0%,0%,0%);fill-opacity:1;" d="M 756.082031 191.277344 C 754.683594 191.042969 753.355469 191.285156 752.964844 192.285156 L 752.964844 199.199219 L 750.144531 199.199219 L 750.144531 188.628906 L 752.808594 188.628906 L 752.886719 189.890625 C 753.609375 188.679688 754.644531 188.179688 756.121094 188.5625 "/>
<path style=" stroke:none;fill-rule:nonzero;fill:rgb(0%,0%,0%);fill-opacity:1;" d="M 761.273438 194.960938 L 760.257812 195.976562 L 760.257812 199.199219 L 757.4375 199.199219 L 757.4375 184.195312 L 760.257812 184.195312 L 760.257812 192.507812 C 761.292969 191.167969 762.425781 189.929688 763.511719 188.628906 L 766.898438 188.628906 L 763.082031 193.035156 L 767.230469 199.199219 L 763.988281 199.199219 "/>
<path style=" stroke:none;fill-rule:nonzero;fill:rgb(0%,0%,0%);fill-opacity:1;" d="M 782.082031 197.488281 C 781.308594 198.613281 779.796875 199.394531 777.960938 199.394531 C 774.816406 199.394531 772.601562 197.1875 772.71875 193.894531 C 772.835938 190.671875 774.476562 188.433594 777.648438 188.433594 C 780.664062 188.433594 782.355469 190.523438 782.304688 193.679688 L 782.304688 194.832031 L 775.578125 194.832031 C 775.722656 196.140625 776.699219 197.117188 778.144531 197.117188 C 779.230469 197.117188 780.078125 196.726562 780.695312 195.9375 Z M 779.53125 192.910156 C 779.582031 191.550781 778.925781 190.699219 777.636719 190.71875 C 776.367188 190.730469 775.773438 191.667969 775.605469 192.910156 L 779.53125 192.910156 "/>
<path style=" stroke:none;fill-rule:nonzero;fill:rgb(0%,0%,0%);fill-opacity:1;" d="M 787.929688 191.785156 L 789.707031 188.628906 L 792.722656 188.628906 L 789.714844 193.808594 L 792.847656 199.199219 L 789.824219 199.199219 L 787.9375 195.878906 L 786.0625 199.199219 L 783.027344 199.199219 L 786.160156 193.808594 L 783.164062 188.628906 L 786.191406 188.628906 "/>
<path style=" stroke:none;fill-rule:nonzero;fill:rgb(0%,0%,0%);fill-opacity:1;" d="M 802.867188 197.488281 C 802.09375 198.613281 800.582031 199.394531 798.746094 199.394531 C 795.601562 199.394531 793.386719 197.1875 793.503906 193.894531 C 793.621094 190.671875 795.261719 188.433594 798.433594 188.433594 C 801.449219 188.433594 803.140625 190.523438 803.089844 193.679688 L 803.089844 194.832031 L 796.363281 194.832031 C 796.511719 196.140625 797.488281 197.117188 798.929688 197.117188 C 800.015625 197.117188 800.863281 196.726562 801.480469 195.9375 Z M 800.316406 192.910156 C 800.367188 191.550781 799.710938 190.699219 798.425781 190.71875 C 797.15625 190.730469 796.558594 191.667969 796.394531 192.910156 L 800.316406 192.910156 "/>
<path style=" stroke:none;fill-rule:nonzero;fill:rgb(0%,0%,0%);fill-opacity:1;" d="M 807.074219 193.769531 C 807.054688 195.75 807.367188 197.070312 809.085938 197.117188 C 810.082031 197.148438 810.851562 196.503906 810.863281 195.546875 L 813.507812 195.546875 C 813.382812 197.949219 811.625 199.367188 809.132812 199.394531 C 805.972656 199.433594 804.253906 197.128906 804.253906 193.789062 C 804.253906 190.660156 806.050781 188.433594 809.113281 188.433594 C 811.671875 188.433594 813.519531 190.066406 813.507812 192.566406 L 810.863281 192.566406 C 810.851562 191.511719 810.128906 190.679688 809.066406 190.71875 C 807.484375 190.777344 807.09375 191.921875 807.074219 193.769531 "/>
<path style=" stroke:none;fill-rule:nonzero;fill:rgb(0%,0%,0%);fill-opacity:1;" d="M 818.554688 199.394531 C 816.203125 199.386719 815.050781 197.957031 815.050781 195.554688 L 815.050781 188.628906 L 817.871094 188.628906 L 817.871094 195.457031 C 817.871094 196.5625 818.371094 197.109375 819.375 197.109375 C 820.332031 197.109375 820.988281 196.777344 821.347656 196.113281 L 821.347656 188.628906 L 824.179688 188.628906 L 824.179688 199.199219 L 821.523438 199.199219 L 821.445312 198.125 C 820.753906 198.976562 819.785156 199.394531 818.554688 199.394531 "/>
<path style=" stroke:none;fill-rule:nonzero;fill:rgb(0%,0%,0%);fill-opacity:1;" d="M 829.6875 195.976562 C 829.707031 196.785156 829.929688 197.058594 830.769531 197.070312 C 831.082031 197.070312 831.355469 197.050781 831.597656 197 L 831.597656 199.140625 C 831.042969 199.308594 830.476562 199.394531 829.890625 199.394531 C 827.910156 199.394531 826.863281 198.398438 826.863281 196.394531 L 826.863281 190.699219 L 825.320312 190.699219 L 825.320312 188.628906 L 826.863281 188.628906 L 826.863281 186.03125 L 829.6875 186.03125 L 829.6875 188.628906 L 831.492188 188.628906 L 831.492188 190.699219 L 829.6875 190.699219 L 829.6875 195.976562 "/>
<path style=" stroke:none;fill-rule:nonzero;fill:rgb(0%,0%,0%);fill-opacity:1;" d="M 837.339844 199.394531 C 834.195312 199.394531 832.253906 197.109375 832.332031 193.816406 C 832.410156 190.582031 834.109375 188.433594 837.320312 188.433594 C 840.484375 188.433594 842.339844 190.691406 842.339844 194.023438 C 842.339844 197.136719 840.40625 199.394531 837.339844 199.394531 Z M 837.320312 190.71875 C 835.671875 190.71875 835.152344 192.097656 835.152344 194.023438 C 835.152344 195.789062 835.75 197.117188 837.339844 197.117188 C 839 197.117188 839.515625 195.78125 839.515625 193.816406 C 839.515625 192.078125 838.890625 190.71875 837.320312 190.71875 "/>
<path style=" stroke:none;fill-rule:nonzero;fill:rgb(0%,0%,0%);fill-opacity:1;" d="M 850.011719 191.277344 C 848.617188 191.042969 847.289062 191.285156 846.898438 192.285156 L 846.898438 199.199219 L 844.078125 199.199219 L 844.078125 188.628906 L 846.742188 188.628906 L 846.820312 189.890625 C 847.542969 188.679688 848.578125 188.179688 850.050781 188.5625 "/>
<path style=" stroke:none;fill-rule:nonzero;fill:rgb(0%,0%,0%);fill-opacity:1;" d="M 855.449219 197.390625 C 856.367188 197.390625 857.089844 197.070312 857.089844 196.277344 C 857.089844 195.9375 856.914062 195.664062 856.574219 195.46875 C 856.230469 195.273438 855.683594 195.085938 854.933594 194.929688 C 852.425781 194.402344 851.164062 193.339844 851.164062 191.726562 C 851.164062 189.695312 853.148438 188.433594 855.382812 188.433594 C 857.785156 188.433594 859.785156 189.644531 859.804688 191.84375 L 856.984375 191.84375 C 856.964844 190.953125 856.378906 190.445312 855.371094 190.445312 C 854.53125 190.445312 853.898438 190.847656 853.878906 191.589844 C 853.878906 191.902344 854.035156 192.144531 854.328125 192.34375 C 854.941406 192.761719 856.835938 193.015625 857.597656 193.320312 C 859.074219 193.90625 859.835938 194.8125 859.835938 196.160156 C 859.835938 199.074219 855.695312 200.109375 853.039062 198.925781 C 851.867188 198.410156 850.871094 197.34375 850.832031 195.839844 L 853.507812 195.839844 C 853.558594 196.875 854.347656 197.390625 855.449219 197.390625 "/>
<path style="fill-rule:nonzero;fill:rgb(25.882354%,61.56863%,61.960787%);fill-opacity:1;stroke-width:3;stroke-linecap:butt;stroke-linejoin:miter;stroke:rgb(0%,0%,0%);stroke-opacity:1;stroke-miterlimit:4;" d="M 719.999061 -2.549743 C 719.999061 -5.861179 722.687228 -8.547815 726.000551 -8.547815 L 914.000337 -8.547815 C 917.31366 -8.547815 920.001827 -5.861179 920.001827 -2.549743 L 920.001827 75.451226 C 920.001827 78.762662 917.31366 81.449298 914.000337 81.449298 L 726.000551 81.449298 C 722.687228 81.449298 719.999061 78.762662 719.999061 75.451226 Z M 719.999061 -2.549743 " transform="matrix(0.749814,0,0,0.750241,181.080045,222.053547)"/>
<path style=" stroke:none;fill-rule:nonzero;fill:rgb(0%,0%,0%);fill-opacity:1;" d="M 736.761719 255.464844 L 736.761719 243.335938 L 738.585938 243.335938 L 743.515625 251.09375 C 743.839844 251.609375 744.394531 252.535156 744.945312 253.636719 C 744.726562 250.078125 744.890625 246.953125 744.839844 243.335938 L 746.386719 243.335938 L 746.386719 255.464844 L 744.546875 255.464844 C 742.292969 251.820312 740.359375 249.132812 738.195312 245.191406 C 738.414062 249.066406 738.285156 251.640625 738.316406 255.464844 L 736.761719 255.464844 "/>
<path style=" stroke:none;fill-rule:nonzero;fill:rgb(0%,0%,0%);fill-opacity:1;" d="M 752.734375 255.464844 L 748.273438 243.335938 L 749.902344 243.335938 C 751.253906 247.285156 752.375 249.898438 753.628906 254.214844 C 754.898438 249.875 755.945312 247.324219 757.28125 243.335938 L 758.925781 243.335938 L 754.515625 255.464844 L 752.734375 255.464844 "/>
<path style=" stroke:none;fill-rule:nonzero;fill:rgb(0%,0%,0%);fill-opacity:1;" d="M 762.359375 243.335938 L 762.359375 255.464844 L 760.8125 255.464844 L 760.8125 243.335938 L 762.359375 243.335938 "/>
<path style=" stroke:none;fill-rule:nonzero;fill:rgb(0%,0%,0%);fill-opacity:1;" d="M 769.070312 255.464844 L 765.289062 255.464844 L 765.289062 243.335938 L 769.226562 243.335938 C 772.765625 243.335938 774.855469 245.617188 774.855469 249.378906 C 774.855469 253.171875 772.765625 255.464844 769.070312 255.464844 Z M 766.832031 254.097656 L 768.972656 254.097656 C 771.925781 254.097656 773.359375 252.324219 773.359375 249.378906 C 773.359375 246.464844 771.925781 244.703125 769.121094 244.703125 L 766.832031 244.703125 L 766.832031 254.097656 "/>
<path style=" stroke:none;fill-rule:nonzero;fill:rgb(0%,0%,0%);fill-opacity:1;" d="M 778.859375 243.335938 L 778.859375 255.464844 L 777.3125 255.464844 L 777.3125 243.335938 L 778.859375 243.335938 "/>
<path style=" stroke:none;fill-rule:nonzero;fill:rgb(0%,0%,0%);fill-opacity:1;" d="M 780.746094 255.464844 L 785.148438 243.335938 L 786.9375 243.335938 L 791.394531 255.464844 L 789.769531 255.464844 L 788.554688 252.082031 L 783.5625 252.082031 L 782.390625 255.464844 Z M 784.03125 250.730469 L 788.074219 250.730469 C 787.238281 248.367188 786.894531 247.554688 786.035156 244.574219 C 785.15625 247.644531 784.855469 248.320312 784.03125 250.730469 "/>
<path style=" stroke:none;fill-rule:nonzero;fill:rgb(0%,0%,0%);fill-opacity:1;" d="M 797.96875 255.464844 L 797.96875 243.335938 L 802.117188 243.335938 C 804.949219 243.335938 806.253906 244.917969 806.253906 247.082031 C 806.253906 248.695312 805.535156 249.9375 804.007812 250.476562 L 806.722656 255.464844 L 804.933594 255.464844 L 802.410156 250.753906 C 801.460938 250.769531 800.476562 250.753906 799.515625 250.761719 L 799.515625 255.464844 Z M 799.515625 249.386719 L 802.054688 249.386719 C 803.964844 249.386719 804.714844 248.507812 804.714844 247.082031 C 804.714844 245.640625 803.964844 244.695312 802.039062 244.695312 L 799.515625 244.695312 L 799.515625 249.386719 "/>
<path style=" stroke:none;fill-rule:nonzero;fill:rgb(0%,0%,0%);fill-opacity:1;" d="M 807.652344 255.464844 L 812.054688 243.335938 L 813.84375 243.335938 L 818.300781 255.464844 L 816.675781 255.464844 L 815.460938 252.082031 L 810.464844 252.082031 L 809.292969 255.464844 Z M 810.9375 250.730469 L 814.980469 250.730469 C 814.144531 248.367188 813.800781 247.554688 812.941406 244.574219 C 812.0625 247.644531 811.761719 248.320312 810.9375 250.730469 "/>
<path style=" stroke:none;fill-rule:nonzero;fill:rgb(0%,0%,0%);fill-opacity:1;" d="M 820.1875 255.464844 L 820.1875 243.335938 L 824.339844 243.335938 C 827.167969 243.335938 828.472656 245.039062 828.472656 247.195312 C 828.472656 249.359375 827.167969 251.078125 824.347656 251.078125 L 821.734375 251.078125 L 821.734375 255.464844 Z M 821.734375 249.71875 L 824.273438 249.71875 C 826.191406 249.71875 826.933594 248.636719 826.933594 247.195312 C 826.933594 245.761719 826.191406 244.695312 824.257812 244.695312 L 821.734375 244.695312 L 821.734375 249.71875 "/>
<path style=" stroke:none;fill-rule:nonzero;fill:rgb(0%,0%,0%);fill-opacity:1;" d="M 832.375 243.335938 L 832.375 255.464844 L 830.832031 255.464844 L 830.832031 243.335938 L 832.375 243.335938 "/>
<path style=" stroke:none;fill-rule:nonzero;fill:rgb(0%,0%,0%);fill-opacity:1;" d="M 839.089844 255.464844 L 835.304688 255.464844 L 835.304688 243.335938 L 839.242188 243.335938 C 842.78125 243.335938 844.875 245.617188 844.875 249.378906 C 844.875 253.171875 842.78125 255.464844 839.089844 255.464844 Z M 836.851562 254.097656 L 838.992188 254.097656 C 841.945312 254.097656 843.375 252.324219 843.375 249.378906 C 843.375 246.464844 841.945312 244.703125 839.136719 244.703125 L 836.851562 244.703125 L 836.851562 254.097656 "/>
<path style=" stroke:none;fill-rule:nonzero;fill:rgb(0%,0%,0%);fill-opacity:1;" d="M 851.210938 255.679688 C 848.582031 255.679688 846.949219 254.328125 846.808594 252.292969 L 848.394531 252.292969 C 848.519531 253.667969 849.789062 254.292969 851.210938 254.292969 C 852.855469 254.292969 854.109375 253.429688 854.109375 252.136719 C 854.148438 250.484375 851.714844 250.199219 850.242188 249.75 C 848.300781 249.15625 847.152344 248.195312 847.152344 246.585938 C 847.152344 244.535156 848.972656 243.175781 851.316406 243.175781 C 853.710938 243.175781 855.378906 244.566406 855.449219 246.398438 L 853.9375 246.398438 C 853.796875 245.21875 852.707031 244.542969 851.269531 244.542969 C 849.699219 244.542969 848.65625 245.371094 848.65625 246.511719 C 848.65625 247.78125 850.082031 248.230469 850.96875 248.472656 L 852.179688 248.808594 C 853.480469 249.164062 855.613281 249.898438 855.613281 252.160156 C 855.613281 254.148438 854.011719 255.679688 851.210938 255.679688 "/>
<path style="fill-rule:nonzero;fill:rgb(100%,100%,100%);fill-opacity:1;stroke-width:3;stroke-linecap:butt;stroke-linejoin:miter;stroke:rgb(0%,0%,0%);stroke-opacity:1;stroke-miterlimit:4;" d="M 617.499663 566.001877 C 617.499663 562.685234 620.18783 559.998598 623.501152 559.998598 L 1016.499736 559.998598 C 1019.813059 559.998598 1022.501226 562.685234 1022.501226 566.001877 L 1022.501226 733.999959 C 1022.501226 737.311394 1019.813059 739.998031 1016.499736 739.998031 L 623.501152 739.998031 C 620.18783 739.998031 617.499663 737.311394 617.499663 733.999959 Z M 617.499663 566.001877 " transform="matrix(0.749814,0,0,0.750241,181.080045,222.053547)"/>
<path style=" stroke:none;fill-rule:nonzero;fill:rgb(0%,0%,0%);fill-opacity:1;" d="M 715.792969 702.589844 C 717.34375 705.8125 717.3125 711.425781 715.820312 714.605469 C 714.488281 717.460938 711.808594 719.558594 707.882812 719.558594 C 701.628906 719.558594 698.773438 714.867188 698.773438 708.140625 C 698.773438 703.878906 700.457031 700.597656 703.109375 698.925781 C 705.773438 697.253906 709.949219 697.242188 712.597656 698.925781 C 713.976562 699.804688 715.03125 700.992188 715.792969 702.589844 Z M 711.28125 714.222656 C 712.90625 711.980469 712.890625 705.183594 711.28125 703.015625 C 710.445312 701.886719 709.332031 701.269531 707.855469 701.269531 C 706.375 701.269531 705.261719 701.871094 704.441406 703 C 703.503906 704.289062 703.226562 706.515625 703.226562 709.082031 C 703.226562 711.261719 703.621094 712.949219 704.425781 714.148438 C 705.230469 715.351562 706.375 715.953125 707.882812 715.953125 C 709.363281 715.953125 710.460938 715.367188 711.28125 714.222656 "/>
<path style=" stroke:none;fill-rule:nonzero;fill:rgb(0%,0%,0%);fill-opacity:1;" d="M 727.929688 703.117188 C 732.25 703.117188 734.125 706.722656 734.125 711.484375 C 734.125 716.070312 732.207031 719.558594 727.960938 719.558594 C 726.246094 719.558594 724.871094 718.898438 723.84375 717.578125 L 723.65625 719.265625 L 719.847656 719.265625 L 719.847656 696.757812 L 724.078125 696.757812 L 724.078125 704.832031 C 725.0625 703.6875 726.335938 703.117188 727.929688 703.117188 Z M 726.890625 716.144531 C 729.292969 716.144531 729.953125 714.105469 729.894531 711.175781 C 729.851562 708.40625 729.25 706.558594 726.863281 706.558594 C 725.515625 706.558594 724.59375 707.117188 724.078125 708.214844 L 724.078125 714.472656 C 724.59375 715.585938 725.53125 716.144531 726.890625 716.144531 "/>
<path style=" stroke:none;fill-rule:nonzero;fill:rgb(0%,0%,0%);fill-opacity:1;" d="M 741.214844 720.128906 C 741.230469 723.601562 739.28125 725.695312 735.808594 725.667969 C 735.078125 725.667969 734.375 725.578125 733.714844 725.417969 L 733.714844 722.0625 C 735.503906 722.457031 736.96875 722.078125 736.96875 720.15625 L 736.96875 703.410156 L 741.214844 703.410156 Z M 739.003906 701.503906 C 737.65625 701.503906 736.628906 700.609375 736.628906 699.304688 C 736.628906 698.003906 737.625 697.125 739.003906 697.125 C 740.378906 697.125 741.375 698.003906 741.375 699.304688 C 741.375 700.609375 740.351562 701.503906 739.003906 701.503906 "/>
<path style=" stroke:none;fill-rule:nonzero;fill:rgb(0%,0%,0%);fill-opacity:1;" d="M 757.996094 716.699219 C 756.839844 718.386719 754.570312 719.558594 751.816406 719.558594 C 747.101562 719.558594 743.777344 716.246094 743.953125 711.308594 C 744.128906 706.472656 746.589844 703.117188 751.347656 703.117188 C 755.875 703.117188 758.40625 706.253906 758.335938 710.984375 L 758.335938 712.714844 L 748.242188 712.714844 C 748.464844 714.675781 749.929688 716.144531 752.09375 716.144531 C 753.722656 716.144531 754.996094 715.558594 755.917969 714.371094 Z M 754.175781 709.828125 C 754.25 707.789062 753.265625 706.515625 751.332031 706.546875 C 749.429688 706.558594 748.535156 707.964844 748.289062 709.828125 L 754.175781 709.828125 "/>
<path style=" stroke:none;fill-rule:nonzero;fill:rgb(0%,0%,0%);fill-opacity:1;" d="M 764.308594 711.117188 C 764.28125 714.089844 764.75 716.070312 767.324219 716.144531 C 768.820312 716.1875 769.976562 715.21875 769.992188 713.785156 L 773.960938 713.785156 C 773.769531 717.386719 771.132812 719.511719 767.398438 719.558594 C 762.65625 719.617188 760.078125 716.15625 760.078125 711.144531 C 760.078125 706.457031 762.773438 703.117188 767.371094 703.117188 C 771.207031 703.117188 773.976562 705.5625 773.960938 709.316406 L 769.992188 709.316406 C 769.976562 707.730469 768.894531 706.488281 767.296875 706.546875 C 764.925781 706.632812 764.339844 708.347656 764.308594 711.117188 "/>
<path style=" stroke:none;fill-rule:nonzero;fill:rgb(0%,0%,0%);fill-opacity:1;" d="M 781.445312 714.429688 C 781.472656 715.644531 781.808594 716.054688 783.070312 716.070312 C 783.539062 716.070312 783.949219 716.039062 784.3125 715.96875 L 784.3125 719.175781 C 783.480469 719.425781 782.628906 719.558594 781.75 719.558594 C 778.777344 719.558594 777.210938 718.0625 777.210938 715.058594 L 777.210938 706.515625 L 774.898438 706.515625 L 774.898438 703.410156 L 777.210938 703.410156 L 777.210938 699.511719 L 781.445312 699.511719 L 781.445312 703.410156 L 784.152344 703.410156 L 784.152344 706.515625 L 781.445312 706.515625 L 781.445312 714.429688 "/>
<path style=" stroke:none;fill-rule:nonzero;fill:rgb(0%,0%,0%);fill-opacity:1;" d="M 800.101562 716.554688 C 801.476562 716.554688 802.5625 716.070312 802.5625 714.882812 C 802.5625 714.371094 802.296875 713.960938 801.785156 713.667969 C 801.273438 713.375 800.453125 713.09375 799.324219 712.859375 C 795.5625 712.070312 793.671875 710.472656 793.671875 708.054688 C 793.671875 705.007812 796.644531 703.117188 800 703.117188 C 803.601562 703.117188 806.601562 704.933594 806.632812 708.230469 L 802.402344 708.230469 C 802.371094 706.898438 801.492188 706.136719 799.984375 706.136719 C 798.722656 706.136719 797.773438 706.734375 797.742188 707.847656 C 797.742188 708.316406 797.976562 708.683594 798.417969 708.976562 C 799.339844 709.609375 802.179688 709.988281 803.324219 710.441406 C 805.535156 711.320312 806.675781 712.683594 806.675781 714.707031 C 806.675781 719.074219 800.46875 720.625 796.484375 718.855469 C 794.726562 718.078125 793.234375 716.480469 793.175781 714.222656 L 797.1875 714.222656 C 797.261719 715.777344 798.445312 716.554688 800.101562 716.554688 "/>
<path style=" stroke:none;fill-rule:nonzero;fill:rgb(0%,0%,0%);fill-opacity:1;" d="M 814.46875 714.429688 C 814.496094 715.644531 814.832031 716.054688 816.09375 716.070312 C 816.5625 716.070312 816.972656 716.039062 817.339844 715.96875 L 817.339844 719.175781 C 816.503906 719.425781 815.652344 719.558594 814.773438 719.558594 C 811.800781 719.558594 810.234375 718.0625 810.234375 715.058594 L 810.234375 706.515625 L 807.921875 706.515625 L 807.921875 703.410156 L 810.234375 703.410156 L 810.234375 699.511719 L 814.46875 699.511719 L 814.46875 703.410156 L 817.175781 703.410156 L 817.175781 706.515625 L 814.46875 706.515625 L 814.46875 714.429688 "/>
<path style=" stroke:none;fill-rule:nonzero;fill:rgb(0%,0%,0%);fill-opacity:1;" d="M 825.949219 719.558594 C 821.234375 719.558594 818.320312 716.128906 818.4375 711.191406 C 818.554688 706.339844 821.101562 703.117188 825.921875 703.117188 C 830.664062 703.117188 833.449219 706.5 833.449219 711.496094 C 833.449219 716.171875 830.546875 719.558594 825.949219 719.558594 Z M 825.921875 706.546875 C 823.445312 706.546875 822.667969 708.609375 822.667969 711.496094 C 822.667969 714.148438 823.5625 716.144531 825.949219 716.144531 C 828.4375 716.144531 829.214844 714.136719 829.214844 711.191406 C 829.214844 708.582031 828.277344 706.546875 825.921875 706.546875 "/>
<path style=" stroke:none;fill-rule:nonzero;fill:rgb(0%,0%,0%);fill-opacity:1;" d="M 844.957031 707.378906 C 842.863281 707.027344 840.871094 707.394531 840.285156 708.890625 L 840.285156 719.265625 L 836.054688 719.265625 L 836.054688 703.410156 L 840.050781 703.410156 L 840.167969 705.300781 C 841.253906 703.484375 842.804688 702.734375 845.015625 703.308594 "/>
<path style=" stroke:none;fill-rule:nonzero;fill:rgb(0%,0%,0%);fill-opacity:1;" d="M 853.011719 703.117188 C 856.734375 703.058594 859.382812 705.078125 859.382812 708.726562 L 859.382812 715.601562 C 859.398438 717.109375 859.601562 718.238281 860.011719 719.015625 L 860.011719 719.265625 L 855.738281 719.265625 C 855.546875 718.882812 855.398438 718.414062 855.3125 717.84375 C 854.285156 718.984375 852.953125 719.558594 851.3125 719.558594 C 848.414062 719.558594 845.867188 717.609375 845.925781 714.808594 C 845.996094 711.027344 849.03125 709.578125 853.1875 709.578125 L 855.136719 709.578125 C 855.296875 707.570312 854.710938 706.253906 852.792969 706.253906 C 851.476562 706.253906 850.507812 706.910156 850.507812 708.171875 L 846.277344 708.171875 C 846.496094 704.785156 849.394531 703.160156 853.011719 703.117188 Z M 850.15625 714.5 C 850.15625 715.617188 851.050781 716.320312 852.238281 716.320312 C 853.527344 716.320312 854.695312 715.660156 855.136719 714.78125 L 855.136719 712.054688 L 853.554688 712.054688 C 851.328125 712.085938 850.15625 712.800781 850.15625 714.5 "/>
<path style=" stroke:none;fill-rule:nonzero;fill:rgb(0%,0%,0%);fill-opacity:1;" d="M 868.40625 719.558594 C 864.246094 719.527344 862.019531 715.761719 862.019531 711.21875 C 862.019531 706.792969 864.261719 703.117188 868.433594 703.117188 C 870.175781 703.117188 871.523438 703.71875 872.492188 704.902344 L 872.667969 703.410156 L 876.503906 703.410156 L 876.503906 718.738281 C 876.386719 723.207031 873.457031 725.449219 868.886719 725.507812 C 866.542969 725.519531 863.980469 724.394531 862.984375 723.015625 L 864.859375 720.4375 C 865.914062 721.625 867.1875 722.210938 868.699219 722.210938 C 871.214844 722.222656 872.503906 720.640625 872.257812 717.902344 C 871.273438 719 870 719.558594 868.40625 719.558594 Z M 869.515625 706.558594 C 867.101562 706.558594 866.25 708.714844 866.25 711.527344 C 866.25 714.046875 867.21875 716.128906 869.488281 716.128906 C 870.777344 716.128906 871.699219 715.644531 872.257812 714.675781 L 872.257812 708.011719 C 871.683594 707.042969 870.777344 706.558594 869.515625 706.558594 "/>
<path style=" stroke:none;fill-rule:nonzero;fill:rgb(0%,0%,0%);fill-opacity:1;" d="M 893.226562 716.699219 C 892.070312 718.386719 889.800781 719.558594 887.046875 719.558594 C 882.332031 719.558594 879.007812 716.246094 879.183594 711.308594 C 879.359375 706.472656 881.820312 703.117188 886.578125 703.117188 C 891.105469 703.117188 893.636719 706.253906 893.5625 710.984375 L 893.5625 712.714844 L 883.472656 712.714844 C 883.695312 714.675781 885.15625 716.144531 887.324219 716.144531 C 888.953125 716.144531 890.226562 715.558594 891.148438 714.371094 Z M 889.40625 709.828125 C 889.476562 707.789062 888.496094 706.515625 886.5625 706.546875 C 884.660156 706.558594 883.765625 707.964844 883.519531 709.828125 L 889.40625 709.828125 "/>
</g>
</svg>
