<svg xmlns="http://www.w3.org/2000/svg" xmlns:xlink="http://www.w3.org/1999/xlink" xmlns:lucid="lucid" width="1343" height="1037.48"><g transform="translate(241.5 295.9762636756036)" lucid:page-tab-id="0_0"><path d="M-240-288.48a6 6 0 0 1 6-6h408a6 6 0 0 1 6 6V394a6 6 0 0 1-6 6h-408a6 6 0 0 1-6-6z" stroke="#000" stroke-width="3" fill="#fff"/><use xlink:href="#a" transform="matrix(1,0,0,1,-232,-286.4762636756036) translate(58.809895833333314 49.47916666666667)"/><path d="M-128.9 28.9a6 6 0 0 1 6-6h229a6 6 0 0 1 6 6v108a6 6 0 0 1-6 6h-229a6 6 0 0 1-6-6z" stroke="#000" stroke-width="3" fill="#f89e5d"/><path d="M540-288.48a6 6 0 0 1 6-6h548a6 6 0 0 1 6 6V394a6 6 0 0 1-6 6H546a6 6 0 0 1-6-6z" stroke="#000" stroke-width="3" fill="#fff"/><use xlink:href="#b" transform="matrix(1,0,0,1,548,-286.4762636756036) translate(112.92447916666666 49.47916666666667)"/><use xlink:href="#c" transform="matrix(1,0,0,1,548,-286.4762636756036) translate(265.5546875 49.47916666666667)"/><path d="M620-107.83a6 6 0 0 1 6-6h445.8a6 6 0 0 1 6 6V41.75a6 6 0 0 1-6 6H626a6 6 0 0 1-6-6z" stroke="#429d9e" stroke-width="3" fill="#fff"/><path d="M635 156.67a6 6 0 0 1 6-6h58a6 6 0 0 1 6 6V194a6 6 0 0 1-6 6h-58a6 6 0 0 1-6-6z" stroke="#000" stroke-width="3" fill="#f89e5d"/><use xlink:href="#d" transform="matrix(1,0,0,1,643,158.66928357396716) translate(3.3292100694444464 21.58376736111111)"/><path d="M735 156.67a6 6 0 0 1 6-6h58a6 6 0 0 1 6 6V194a6 6 0 0 1-6 6h-58a6 6 0 0 1-6-6z" stroke="#000" stroke-width="3" fill="#f89e5d"/><use xlink:href="#d" transform="matrix(1,0,0,1,743,158.66928357396716) translate(3.3292100694444464 21.58376736111111)"/><path d="M835 156.67a6 6 0 0 1 6-6h58a6 6 0 0 1 6 6V194a6 6 0 0 1-6 6h-58a6 6 0 0 1-6-6z" stroke="#000" stroke-width="3" fill="#f89e5d"/><use xlink:href="#d" transform="matrix(1,0,0,1,843,158.66928357396716) translate(3.3292100694444464 21.58376736111111)"/><path d="M935 156.67a6 6 0 0 1 6-6h58a6 6 0 0 1 6 6V194a6 6 0 0 1-6 6h-58a6 6 0 0 1-6-6z" stroke="#000" stroke-width="3" fill="#f89e5d"/><use xlink:href="#d" transform="matrix(1,0,0,1,943,158.66928357396716) translate(3.3292100694444464 21.58376736111111)"/><path d="M635 246a6 6 0 0 1 6-6h58a6 6 0 0 1 6 6v37.33a6 6 0 0 1-6 6h-58a6 6 0 0 1-6-6z" stroke="#000" stroke-width="3" fill="#f89e5d"/><use xlink:href="#d" transform="matrix(1,0,0,1,643,248) translate(3.3292100694444464 21.58376736111111)"/><path d="M735 246a6 6 0 0 1 6-6h58a6 6 0 0 1 6 6v37.33a6 6 0 0 1-6 6h-58a6 6 0 0 1-6-6z" stroke="#000" stroke-width="3" fill="#f89e5d"/><use xlink:href="#d" transform="matrix(1,0,0,1,743,248) translate(3.3292100694444464 21.58376736111111)"/><path d="M835 246a6 6 0 0 1 6-6h58a6 6 0 0 1 6 6v37.33a6 6 0 0 1-6 6h-58a6 6 0 0 1-6-6z" stroke="#000" stroke-width="3" fill="#f89e5d"/><use xlink:href="#d" transform="matrix(1,0,0,1,843,248) translate(3.3292100694444464 21.58376736111111)"/><path d="M935 246a6 6 0 0 1 6-6h58a6 6 0 0 1 6 6v37.33a6 6 0 0 1-6 6h-58a6 6 0 0 1-6-6z" stroke="#000" stroke-width="3" fill="#f89e5d"/><use xlink:href="#d" transform="matrix(1,0,0,1,943,248) translate(3.3292100694444464 21.58376736111111)"/><path d="M600-79.46a6 6 0 0 1 6-6h445.8a6 6 0 0 1 6 6v149.6a6 6 0 0 1-6 6H606a6 6 0 0 1-6-6z" stroke="#429d9e" stroke-width="3" fill="#fff"/><path d="M122.62 183.94c0 7.28-66.54 13.18-148.63 13.18-82.1 0-148.64-5.9-148.64-13.18V78.5c0-7.27 66.54-13.17 148.63-13.17 82.08 0 148.62 5.9 148.62 13.18z" stroke="#000" stroke-width="3" fill="#136a7f"/><path d="M122.62 78.5c0 7.3-66.54 13.2-148.63 13.2-82.1 0-148.64-5.9-148.64-13.2" stroke="#000" stroke-width="3" fill="none"/><path d="M121.33 66.13c0 7.28-66.54 13.18-148.63 13.18-82.08 0-148.63-5.9-148.63-13.17V-39.3c0-7.28 66.55-13.18 148.63-13.18 82.1 0 148.63 5.9 148.63 13.17z" stroke="#000" stroke-width="3" fill="#136a7f"/><path d="M121.33-39.3c0 7.27-66.54 13.17-148.63 13.17-82.08 0-148.63-5.9-148.63-13.18" stroke="#000" stroke-width="3" fill="none"/><path d="M121.33-55.06c0 7.28-66.54 13.18-148.63 13.18-82.08 0-148.63-5.9-148.63-13.18V-160.5c0-7.27 66.55-13.17 148.63-13.17 82.1 0 148.63 5.9 148.63 13.18z" stroke="#000" stroke-width="3" fill="#136a7f"/><path d="M121.33-160.5c0 7.3-66.54 13.2-148.63 13.2-82.08 0-148.63-5.9-148.63-13.2" stroke="#000" stroke-width="3" fill="none"/><path d="M820 531.53V428.47" stroke="#136a7f" stroke-width="6" fill="none"/><path d="M820 548.8l-4.63-14.27h9.26zM820 411.2l4.63 14.27h-9.26z" stroke="#136a7f" stroke-width="6" fill="#136a7f"/><path d="M589.03 650H-20a6 6 0 0 1-6-6V341.35" stroke="#136a7f" stroke-width="6" fill="none"/><path d="M606.3 650l-14.27 4.63v-9.26zM-26 324.08l4.63 14.27h-9.27z" stroke="#136a7f" stroke-width="6" fill="#136a7f"/><path d="M-145.37 221a6 6 0 0 1 6-6H87.35a6 6 0 0 1 6 6v85.88a6 6 0 0 1-6 6h-226.72a6 6 0 0 1-6-6z" stroke="#000" stroke-width="3" fill="#fff"/><use xlink:href="#e" transform="matrix(1,0,0,1,-133.36587458557415,226.9996559511162) translate(71.875 45.552083333333336)"/><path d="M121.82 263.94h188.85a6 6 0 0 0 6-6v-428.87a6 6 0 0 1 6-6h188.86" stroke="#136a7f" stroke-width="6" fill="none"/><path d="M104.55 263.94l14.27-4.64v9.27zM528.8-176.93l-14.27 4.63v-9.27z" stroke="#136a7f" stroke-width="6" fill="#136a7f"/><path d="M540-194a6 6 0 0 1 6-6h228a6 6 0 0 1 6 6v48.12a6 6 0 0 1-6 6H546a6 6 0 0 1-6-6z" stroke="#000" stroke-width="3" fill="#fff"/><use xlink:href="#f" transform="matrix(1,0,0,1,552,-188) translate(20.479166666666657 27.052083333333336)"/><use xlink:href="#g" transform="matrix(1,0,0,1,552,-188) translate(96.79427083333333 27.052083333333336)"/><path d="M580-57.2a6 6 0 0 1 6-6h445.8a6 6 0 0 1 6 6V92.38a6 6 0 0 1-6 6H586a6 6 0 0 1-6-6z" stroke="#429d9e" stroke-width="3" fill="#fff"/><use xlink:href="#h" transform="matrix(1,0,0,1,588,-55.20184596783142) translate(123.79296875 24.739583333333336)"/><use xlink:href="#i" transform="matrix(1,0,0,1,588,-55.20184596783142) translate(200.10807291666669 24.739583333333336)"/><path d="M720-2.55a6 6 0 0 1 6-6h188a6 6 0 0 1 6 6v78a6 6 0 0 1-6 6H726a6 6 0 0 1-6-6z" stroke="#000" stroke-width="3" fill="#429d9e"/><path d="M700 12.45a6 6 0 0 1 6-6h228a6 6 0 0 1 6 6v48a6 6 0 0 1-6 6H706a6 6 0 0 1-6-6z" fill="none"/><use xlink:href="#j" transform="matrix(1,0,0,1,700,6.45269937564899) translate(39.140625 38.083767361111114)"/><use xlink:href="#k" transform="matrix(1,0,0,1,700,6.45269937564899) translate(120.77039930555556 38.083767361111114)"/><path d="M617.5 566a6 6 0 0 1 6-6h393a6 6 0 0 1 6 6v168a6 6 0 0 1-6 6h-393a6 6 0 0 1-6-6z" stroke="#000" stroke-width="3" fill="#fff"/><g><use xlink:href="#l" transform="matrix(1,0,0,1,629.5,572) translate(59.25 90.734375)"/><use xlink:href="#m" transform="matrix(1,0,0,1,629.5,572) translate(185.734375 90.734375)"/></g><defs><path d="M1245-974c0 302-233 466-552 461H430V0H130v-1456h568c323 5 547 167 547 482zm-303 2c1-143-93-241-237-241H430v457h268c151 1 244-71 244-216" id="n"/><path d="M579 20C257 20 58-214 66-551c8-331 182-551 511-551 324 0 514 231 514 572 0 319-198 550-512 550zm-2-888c-169 0-222 141-222 338 0 181 61 317 224 317 170 0 223-137 223-338 0-178-64-317-225-317" id="o"/><path d="M529-185c94 0 168-33 168-114 0-35-18-63-53-83s-91-39-168-55C219-491 90-600 90-765c0-208 203-337 432-337 246 0 451 124 453 349H686c-2-91-62-143-165-143-86 0-151 41-153 117 0 32 16 57 46 77 63 43 257 69 335 100 151 60 229 153 229 291C978-13 554 93 282-28 162-81 60-190 56-344h274c5 106 86 159 199 159" id="p"/><path d="M457-330c2 83 25 111 111 112 32 0 60-2 85-7V-6c-57 17-115 26-175 26-203 0-310-102-310-307v-583H10v-212h158v-266h289v266h185v212H457v540" id="q"/><path d="M505 20C221 18 69-239 69-549c0-302 153-553 438-553 119 0 211 41 277 122l12-102h262V-36c-8 305-208 458-520 462-160 1-335-76-403-170L263 80c72 81 159 121 262 121 172 1 260-107 243-294C701-18 614 20 505 20zm76-887c-165 0-223 147-223 339 0 172 66 314 221 314 88 0 151-33 189-99v-455c-39-66-101-99-187-99" id="r"/><path d="M719-811c-143-24-279 1-319 103V0H111v-1082h273l8 129c74-124 180-175 331-136" id="s"/><path d="M1031-175C952-60 797 20 609 20 287 20 60-206 72-543c12-330 180-559 505-559 309 0 482 214 477 537v118H365c15 134 115 234 263 234 111 0 198-40 261-121zM770-644c5-139-62-226-194-224-130 1-191 97-208 224h402" id="t"/><path d="M658-217c127 0 227-49 227-165 0-57-21-98-60-130-79-64-370-142-463-196-162-95-248-210-248-361 0-280 246-403 537-407 213-3 383 84 467 216 45 69 68 147 68 234H886c0-139-96-211-240-211-129 0-232 55-232 169 0 47 24 87 72 119s117 62 210 90c171 51 295 115 373 191s117 171 117 284c-2 272-237 411-528 404C331 13 78-135 69-458h301c0 161 96 241 288 241" id="u"/><path d="M1324-760c8 308-83 532-249 661l242 190-191 169L816 11C500 58 268-97 163-316c-104-218-106-599-1-822 92-196 273-338 542-338 408 0 609 298 620 716zM938-344c111-153 110-617 0-765-57-77-133-119-234-119s-177 41-233 118c-64 88-83 240-83 415 0 149 27 264 82 346s133 123 236 123c101 0 176-40 232-118" id="v"/><path d="M430-241h637V0H130v-1456h300v1215" id="w"/><g id="a"><use transform="matrix(0.026041666666666668,0,0,0.026041666666666668,0,0)" xlink:href="#n"/><use transform="matrix(0.026041666666666668,0,0,0.026041666666666668,34.06250000000001,0)" xlink:href="#o"/><use transform="matrix(0.026041666666666668,0,0,0.026041666666666668,64.21875,0)" xlink:href="#p"/><use transform="matrix(0.026041666666666668,0,0,0.026041666666666668,91.640625,0)" xlink:href="#q"/><use transform="matrix(0.026041666666666668,0,0,0.026041666666666668,109.66145833333334,0)" xlink:href="#r"/><use transform="matrix(0.026041666666666668,0,0,0.026041666666666668,140.10416666666669,0)" xlink:href="#s"/><use transform="matrix(0.026041666666666668,0,0,0.026041666666666668,159.06250000000003,0)" xlink:href="#t"/><use transform="matrix(0.026041666666666668,0,0,0.026041666666666668,187.89062500000003,0)" xlink:href="#u"/><use transform="matrix(0.026041666666666668,0,0,0.026041666666666668,220.6770833333334,0)" xlink:href="#v"/><use transform="matrix(0.026041666666666668,0,0,0.026041666666666668,257.50000000000006,0)" xlink:href="#w"/></g><path d="M663-1102c295 0 422 250 422 571 0 300-141 549-420 551-109 0-198-38-265-114v510H111v-1498h268l10 106c70-84 161-126 274-126zm133 550c0-175-53-315-209-315-91 0-153 35-187 104v443c35 71 98 107 189 107 138 0 207-113 207-339" id="x"/><path d="M552-1102c254-4 435 134 435 383v469c1 103 15 180 43 233V0H738c-13-26-23-58-29-97C639-19 548 20 436 20 238 20 64-113 68-304c5-258 212-357 496-357h133c11-137-29-227-160-227-90 0-156 45-156 131H92c15-231 213-342 460-345zM357-325c0 76 61 124 142 124 88 0 168-45 198-105v-186H589c-152 2-232 51-232 167" id="y"/><path d="M504-434L400-330V0H111v-1536h289v851c106-137 222-264 333-397h347L689-631 1114 0H782" id="z"/><g id="b"><use transform="matrix(0.026041666666666668,0,0,0.026041666666666668,0,0)" xlink:href="#u"/><use transform="matrix(0.026041666666666668,0,0,0.026041666666666668,32.786458333333336,0)" xlink:href="#x"/><use transform="matrix(0.026041666666666668,0,0,0.026041666666666668,62.8125,0)" xlink:href="#y"/><use transform="matrix(0.026041666666666668,0,0,0.026041666666666668,91.40625,0)" xlink:href="#s"/><use transform="matrix(0.026041666666666668,0,0,0.026041666666666668,110.859375,0)" xlink:href="#z"/></g><path d="M355-556c-2 203 30 338 206 343 102 3 181-63 182-161h271C1001-128 821 17 566 20 242 24 66-212 66-554c0-320 184-548 498-548 262 0 451 167 450 423H743c-1-108-75-193-184-189-162 6-202 123-204 312" id="A"/><path d="M416 0H126v-1536h290V0" id="B"/><path d="M463 20c-241-1-359-147-359-393v-709h289v699c0 113 51 169 154 169 98 0 165-34 202-102v-766h290V0H767l-8-110C688-23 589 20 463 20" id="C"/><g id="c"><use transform="matrix(0.026041666666666668,0,0,0.026041666666666668,0,0)" xlink:href="#A"/><use transform="matrix(0.026041666666666668,0,0,0.026041666666666668,27.8125,0)" xlink:href="#B"/><use transform="matrix(0.026041666666666668,0,0,0.026041666666666668,41.953125,0)" xlink:href="#C"/><use transform="matrix(0.026041666666666668,0,0,0.026041666666666668,71.796875,0)" xlink:href="#p"/><use transform="matrix(0.026041666666666668,0,0,0.026041666666666668,99.21875,0)" xlink:href="#q"/><use transform="matrix(0.026041666666666668,0,0,0.026041666666666668,117.23958333333334,0)" xlink:href="#t"/><use transform="matrix(0.026041666666666668,0,0,0.026041666666666668,146.06770833333334,0)" xlink:href="#s"/></g><path d="M795 20C377 20 94-272 94-743c0-483 302-767 694-767 335 0 593 206 635 500h-310c-42-142-154-229-320-229-230 0-389 177-389 493s154 495 393 495c212 0 340-120 345-311H818v-232h620v186c0 391-269 628-643 628" id="D"/><path d="M135 0v-1490h581c339 0 533 210 533 503 0 295-197 500-540 500H440V0H135zm305-733h220c186 0 274-104 274-254s-88-251-275-251H440v505" id="E"/><path d="M750 21c-371 0-615-218-615-544v-967h305v942c0 174 123 299 310 299s309-125 309-299v-942h306v967c0 326-247 544-615 544" id="F"/><g id="d"><use transform="matrix(0.010850694444444444,0,0,0.010850694444444444,0,0)" xlink:href="#D"/><use transform="matrix(0.010850694444444444,0,0,0.010850694444444444,16.67751736111111,0)" xlink:href="#E"/><use transform="matrix(0.010850694444444444,0,0,0.010850694444444444,31.07638888888889,0)" xlink:href="#F"/></g><path d="M399-777c-11 316 60 556 342 556 113 0 193-24 241-72v-251H709v-221h573v581C1177-55 960 24 725 20 280 12 81-292 94-770c11-421 200-700 610-706 347-5 543 171 578 483H990c-25-157-105-241-277-241-102 0-180 38-233 115s-76 191-81 342" id="G"/><path d="M952-300H426L326 0H7l542-1456h278L1372 0h-319zM507-543h364l-183-545" id="H"/><g id="e"><use transform="matrix(0.013020833333333334,0,0,0.013020833333333334,0,0)" xlink:href="#n"/><use transform="matrix(0.013020833333333334,0,0,0.013020833333333334,17.200520833333336,0)" xlink:href="#G"/><use transform="matrix(0.013020833333333334,0,0,0.013020833333333334,35.364583333333336,0)" xlink:href="#H"/><use transform="matrix(0.013020833333333334,0,0,0.013020833333333334,53.30729166666667,0)" xlink:href="#H"/></g><g id="f"><use transform="matrix(0.013020833333333334,0,0,0.013020833333333334,0,0)" xlink:href="#u"/><use transform="matrix(0.013020833333333334,0,0,0.013020833333333334,16.393229166666668,0)" xlink:href="#x"/><use transform="matrix(0.013020833333333334,0,0,0.013020833333333334,31.40625,0)" xlink:href="#y"/><use transform="matrix(0.013020833333333334,0,0,0.013020833333333334,45.703125,0)" xlink:href="#s"/><use transform="matrix(0.013020833333333334,0,0,0.013020833333333334,55.4296875,0)" xlink:href="#z"/></g><path d="M687-225c189-1 272-84 286-260h300c-19 311-251 505-586 505C296 20 86-277 86-686c0-466 174-782 605-790 340-6 557 198 584 514H975c-15-183-92-268-284-268-100 0-173 38-225 108-63 84-76 264-76 443 0 157 24 272 72 345s122 109 225 109" id="I"/><path d="M750-692c-1-124-48-174-173-175-81 0-142 35-183 104V0H105v-1082h272l9 125c77-97 181-145 311-145 244 0 342 151 342 403V0H750v-692" id="J"/><g id="g"><use transform="matrix(0.013020833333333334,0,0,0.013020833333333334,0,0)" xlink:href="#I"/><use transform="matrix(0.013020833333333334,0,0,0.013020833333333334,17.447916666666668,0)" xlink:href="#o"/><use transform="matrix(0.013020833333333334,0,0,0.013020833333333334,32.52604166666667,0)" xlink:href="#J"/><use transform="matrix(0.013020833333333334,0,0,0.013020833333333334,47.46093750000001,0)" xlink:href="#J"/><use transform="matrix(0.013020833333333334,0,0,0.013020833333333334,62.39583333333335,0)" xlink:href="#t"/><use transform="matrix(0.013020833333333334,0,0,0.013020833333333334,76.80989583333334,0)" xlink:href="#A"/><use transform="matrix(0.013020833333333334,0,0,0.013020833333333334,90.71614583333334,0)" xlink:href="#q"/></g><g id="h"><use transform="matrix(0.013020833333333334,0,0,0.013020833333333334,0,0)" xlink:href="#u"/><use transform="matrix(0.013020833333333334,0,0,0.013020833333333334,16.393229166666668,0)" xlink:href="#x"/><use transform="matrix(0.013020833333333334,0,0,0.013020833333333334,31.40625,0)" xlink:href="#y"/><use transform="matrix(0.013020833333333334,0,0,0.013020833333333334,45.703125,0)" xlink:href="#s"/><use transform="matrix(0.013020833333333334,0,0,0.013020833333333334,55.4296875,0)" xlink:href="#z"/></g><path d="M523-759l182-323h309L706-552 1027 0H717L524-340 332 0H21l321-552-307-530h310" id="K"/><g id="i"><use transform="matrix(0.013020833333333334,0,0,0.013020833333333334,0,0)" xlink:href="#t"/><use transform="matrix(0.013020833333333334,0,0,0.013020833333333334,14.4140625,0)" xlink:href="#K"/><use transform="matrix(0.013020833333333334,0,0,0.013020833333333334,27.721354166666668,0)" xlink:href="#t"/><use transform="matrix(0.013020833333333334,0,0,0.013020833333333334,42.13541666666667,0)" xlink:href="#A"/><use transform="matrix(0.013020833333333334,0,0,0.013020833333333334,56.04166666666667,0)" xlink:href="#C"/><use transform="matrix(0.013020833333333334,0,0,0.013020833333333334,70.96354166666667,0)" xlink:href="#q"/><use transform="matrix(0.013020833333333334,0,0,0.013020833333333334,79.58333333333334,0)" xlink:href="#o"/><use transform="matrix(0.013020833333333334,0,0,0.013020833333333334,94.66145833333334,0)" xlink:href="#s"/><use transform="matrix(0.013020833333333334,0,0,0.013020833333333334,104.38802083333334,0)" xlink:href="#p"/></g><path d="M180 0v-1490h224l606 953c40 63 108 177 176 312-27-437-7-821-13-1265h190V0h-226C860-448 622-778 356-1262c27 476 11 792 15 1262H180" id="L"/><path d="M600 0L52-1490h200c166 485 304 806 458 1336 156-533 285-846 449-1336h202L819 0H600" id="M"/><path d="M370-1490V0H180v-1490h190" id="N"/><path d="M645 0H180v-1490h484c435 0 692 280 692 742 0 466-257 748-711 748zM370-168h263c363 0 539-218 539-580 0-358-176-574-521-574H370v1154" id="O"/><path d="M52 0l541-1490h220L1361 0h-200l-149-416H398L254 0H52zm404-582h497c-103-290-145-390-251-756-108 377-145 460-246 756" id="P"/><g id="j"><use transform="matrix(0.010850694444444444,0,0,0.010850694444444444,0,0)" xlink:href="#L"/><use transform="matrix(0.010850694444444444,0,0,0.010850694444444444,16.74262152777778,0)" xlink:href="#M"/><use transform="matrix(0.010850694444444444,0,0,0.010850694444444444,32.07465277777778,0)" xlink:href="#N"/><use transform="matrix(0.010850694444444444,0,0,0.010850694444444444,38.04253472222222,0)" xlink:href="#O"/><use transform="matrix(0.010850694444444444,0,0,0.010850694444444444,54.07986111111112,0)" xlink:href="#N"/><use transform="matrix(0.010850694444444444,0,0,0.010850694444444444,60.04774305555555,0)" xlink:href="#P"/></g><path d="M180 0v-1490h510c348 0 508 194 508 460 0 198-88 351-276 417L1256 0h-220L726-579c-117 2-238 0-356 1V0H180zm190-747h312c235 0 327-108 327-283 0-177-92-293-329-293H370v576" id="Q"/><path d="M180 0v-1490h510c348 0 508 209 508 474 0 266-160 477-507 477H370V0H180zm190-706h312c236 0 327-133 327-310 0-176-91-307-329-307H370v617" id="R"/><path d="M657 26c-323 0-524-166-541-416h195c15 169 171 246 346 246 202 0 356-106 356-265 5-203-294-238-475-293-239-73-380-191-380-389 0-252 224-419 512-419 294 0 499 171 508 396H992c-17-145-151-228-328-228-193 0-321 102-321 242 0 156 175 211 284 241l149 41c160 44 422 134 422 412 0 244-197 432-541 432" id="S"/><g id="k"><use transform="matrix(0.010850694444444444,0,0,0.010850694444444444,0,0)" xlink:href="#Q"/><use transform="matrix(0.010850694444444444,0,0,0.010850694444444444,14.301215277777777,0)" xlink:href="#P"/><use transform="matrix(0.010850694444444444,0,0,0.010850694444444444,29.633246527777775,0)" xlink:href="#R"/><use transform="matrix(0.010850694444444444,0,0,0.010850694444444444,43.825954861111114,0)" xlink:href="#N"/><use transform="matrix(0.010850694444444444,0,0,0.010850694444444444,49.79383680555556,0)" xlink:href="#O"/><use transform="matrix(0.010850694444444444,0,0,0.010850694444444444,65.83116319444444,0)" xlink:href="#S"/></g><path d="M1248-1138c106 220 104 603 2 820-91 195-274 338-542 338C281 20 86-300 86-759c0-291 115-515 296-629 182-114 467-115 648 0 94 60 166 141 218 250zM940-344c111-153 110-617 0-765-57-77-133-119-234-119s-177 41-233 118c-64 88-83 240-83 415 0 149 27 264 82 346s133 123 236 123c101 0 176-40 232-118" id="T"/><path d="M663-1102c295 0 423 246 423 571 0 313-131 551-421 551-117 0-211-45-281-135L371 0H111v-1536h289v551c67-78 154-117 263-117zm-71 889c164 0 209-139 205-339-3-189-44-315-207-315-92 0-155 38-190 113v427c35 76 99 114 192 114" id="U"/><path d="M417 59c1 237-132 380-369 378-50 0-98-6-143-17V191c122 27 222 1 222-130v-1143h290V59zM266-1212c-92 0-162-61-162-150s68-149 162-149 162 60 162 149-70 150-162 150" id="V"/><g id="l"><use transform="matrix(0.01953125,0,0,0.01953125,0,0)" xlink:href="#T"/><use transform="matrix(0.01953125,0,0,0.01953125,27.6171875,0)" xlink:href="#U"/><use transform="matrix(0.01953125,0,0,0.01953125,50.13671875,0)" xlink:href="#V"/><use transform="matrix(0.01953125,0,0,0.01953125,60.52734375,0)" xlink:href="#t"/><use transform="matrix(0.01953125,0,0,0.01953125,82.1484375,0)" xlink:href="#A"/><use transform="matrix(0.01953125,0,0,0.01953125,103.0078125,0)" xlink:href="#q"/></g><g id="m"><use transform="matrix(0.01953125,0,0,0.01953125,0,0)" xlink:href="#p"/><use transform="matrix(0.01953125,0,0,0.01953125,20.56640625,0)" xlink:href="#q"/><use transform="matrix(0.01953125,0,0,0.01953125,33.49609375,0)" xlink:href="#o"/><use transform="matrix(0.01953125,0,0,0.01953125,56.11328125,0)" xlink:href="#s"/><use transform="matrix(0.01953125,0,0,0.01953125,70.1171875,0)" xlink:href="#y"/><use transform="matrix(0.01953125,0,0,0.01953125,91.5625,0)" xlink:href="#r"/><use transform="matrix(0.01953125,0,0,0.01953125,114.39453125,0)" xlink:href="#t"/></g></defs></g></svg>