<svg version="1.1" viewBox="0.0 0.0 960.0 540.0" fill="none" stroke="none" stroke-linecap="square" stroke-miterlimit="10" xmlns:xlink="http://www.w3.org/1999/xlink" xmlns="http://www.w3.org/2000/svg"><clipPath id="g272f3478e41_0_17.0"><path d="m0 0l960.0 0l0 540.0l-960.0 0l0 -540.0z" clip-rule="nonzero"/></clipPath><g clip-path="url(#g272f3478e41_0_17.0)"><path fill="#000000" fill-opacity="0.0" d="m0 0l960.0 0l0 540.0l-960.0 0z" fill-rule="evenodd"/><path fill="#ffffff" d="m24.466505 158.56032l0 0c0 -15.543381 12.600393 -28.143768 28.143766 -28.143768l278.83713 0c7.4641724 0 14.62265 2.9651337 19.900635 8.243118c5.2779846 5.2779694 8.243134 12.436447 8.243134 19.90065l0 281.86145c0 15.5433655 -12.600403 28.143768 -28.143768 28.143768l-278.83713 0c-15.543373 0 -28.143766 -12.600403 -28.143766 -28.143768z" fill-rule="evenodd"/><path stroke="#000000" stroke-width="1.0" stroke-linejoin="round" stroke-linecap="butt" d="m24.466505 158.56032l0 0c0 -15.543381 12.600393 -28.143768 28.143766 -28.143768l278.83713 0c7.4641724 0 14.62265 2.9651337 19.900635 8.243118c5.2779846 5.2779694 8.243134 12.436447 8.243134 19.90065l0 281.86145c0 15.5433655 -12.600403 28.143768 -28.143768 28.143768l-278.83713 0c-15.543373 0 -28.143766 -12.600403 -28.143766 -28.143768z" fill-rule="evenodd"/><g filter="url(#shadowFilter-g272f3478e41_0_17.1)"><use xlink:href="#g272f3478e41_0_17.1" transform="matrix(1.0 0.0 0.0 1.0 1.999695275590553 -0.03490472440948536)"/></g><defs><filter id="shadowFilter-g272f3478e41_0_17.1" filterUnits="userSpaceOnUse"><feGaussianBlur in="SourceAlpha" stdDeviation="2.0" result="blur"/><feComponentTransfer in="blur" color-interpolation-filters="sRGB"><feFuncR type="linear" slope="0" intercept="0.07450981"/><feFuncG type="linear" slope="0" intercept="0.41568628"/><feFuncB type="linear" slope="0" intercept="0.49803922"/><feFuncA type="linear" slope="0.6941" intercept="0"/></feComponentTransfer></filter></defs><g id="g272f3478e41_0_17.1"><path fill="#ffffff" d="m24.466505 280.18802l0 0c0 -8.898743 7.213852 -16.11258 16.112589 -16.11258l170.16885 0c4.2733154 0 8.371613 1.6975708 11.393311 4.719269c3.021698 3.021698 4.719269 7.119995 4.719269 11.393311l0 171.99536c0 8.898743 -7.213852 16.11258 -16.11258 16.11258l-170.16885 0c-8.898737 0 -16.112589 -7.2138367 -16.112589 -16.11258z" fill-rule="evenodd"/><path stroke="#000000" stroke-width="1.0" stroke-linejoin="round" stroke-linecap="butt" d="m24.466505 280.18802l0 0c0 -8.898743 7.213852 -16.11258 16.112589 -16.11258l170.16885 0c4.2733154 0 8.371613 1.6975708 11.393311 4.719269c3.021698 3.021698 4.719269 7.119995 4.719269 11.393311l0 171.99536c0 8.898743 -7.213852 16.11258 -16.11258 16.11258l-170.16885 0c-8.898737 0 -16.112589 -7.2138367 -16.112589 -16.11258z" fill-rule="evenodd"/></g><g filter="url(#shadowFilter-g272f3478e41_0_17.2)"><use xlink:href="#g272f3478e41_0_17.2" transform="matrix(1.0 0.0 0.0 1.0 1.999695275590553 -0.03490472440948536)"/></g><defs><filter id="shadowFilter-g272f3478e41_0_17.2" filterUnits="userSpaceOnUse"><feGaussianBlur in="SourceAlpha" stdDeviation="2.0" result="blur"/><feComponentTransfer in="blur" color-interpolation-filters="sRGB"><feFuncR type="linear" slope="0" intercept="0.07450981"/><feFuncG type="linear" slope="0" intercept="0.41568628"/><feFuncB type="linear" slope="0" intercept="0.49803922"/><feFuncA type="linear" slope="0.6941" intercept="0"/></feComponentTransfer></filter></defs><g id="g272f3478e41_0_17.2"><path fill="#ffffff" d="m24.466505 383.06204l0 0c0 -9.316803 7.552759 -16.869568 16.869562 -16.869568l67.47622 0l0 0c4.474083 0 8.764923 1.7773132 11.928581 4.940979c3.1636505 3.1636658 4.940979 7.4544983 4.940979 11.928589l0 68.35266c0 9.316803 -7.552765 16.869537 -16.86956 16.869537l-67.47622 0l0 0c-9.316803 0 -16.869562 -7.5527344 -16.869562 -16.869537z" fill-rule="evenodd"/><path stroke="#000000" stroke-width="1.0" stroke-linejoin="round" stroke-linecap="butt" d="m24.466505 383.06204l0 0c0 -9.316803 7.552759 -16.869568 16.869562 -16.869568l67.47622 0l0 0c4.474083 0 8.764923 1.7773132 11.928581 4.940979c3.1636505 3.1636658 4.940979 7.4544983 4.940979 11.928589l0 68.35266c0 9.316803 -7.552765 16.869537 -16.86956 16.869537l-67.47622 0l0 0c-9.316803 0 -16.869562 -7.5527344 -16.869562 -16.869537z" fill-rule="evenodd"/></g><path fill="#000000" fill-opacity="0.0" d="m125.6645 366.18927l225.51746 -227.55263" fill-rule="evenodd"/><path stroke="#136a7f" stroke-width="1.0" stroke-linejoin="round" stroke-linecap="butt" stroke-dasharray="1.0,3.0" d="m127.405334 364.4327l221.36423 -223.3619" fill-rule="evenodd"/><path fill="#136a7f" stroke="#136a7f" stroke-width="1.0" stroke-linecap="butt" d="m127.405334 364.4327l-0.0036773682 -0.81829834l-0.7080841 1.536499l1.5300598 -0.7218628z" fill-rule="evenodd"/><path fill="#136a7f" stroke="#136a7f" stroke-width="1.0" stroke-linecap="butt" d="m348.76956 141.07082l0.0071411133 1.5903778l1.3761902 -2.986206l-2.9737244 1.4029694z" fill-rule="evenodd"/><path fill="#136a7f" d="m87.44047 194.23804l-4.9286804 -2.4431152c-0.7213135 0.59724426 -1.5084534 1.0853424 -2.342041 1.4520264l-0.3950348 5.6586l-2.8341217 0.3715973l-1.7739182 -5.24469c-0.90597534 -0.08956909 -1.8037567 -0.30073547 -2.6692505 -0.64450073l-4.248581 3.7236176l-2.2643585 -1.7586975l2.419876 -4.9711c-0.59194946 -0.72776794 -1.076889 -1.521286 -1.4394379 -2.3619537l-5.608757 -0.39744568l-0.36828613 -2.8595734l5.198105 -1.7898102c0.088768005 -0.91407776 0.3004532 -1.8170929 0.64042664 -2.6915436l-3.6888695 -4.284973l1.7431297 -2.2846985l4.9253616 2.440033c0.72132874 -0.59724426 1.5068054 -1.0868073 2.3404083 -1.453598l0.39421082 -5.659958l2.8341217 -0.3715973l1.7730331 5.244339c0.90587616 0.089538574 1.802742 0.3004303 2.6695404 0.6434784l4.248459 -3.7235565l2.26445 1.758728l-2.4198685 4.9711c0.59184265 0.7277374 1.0768738 1.5213013 1.4394302 2.3619537l5.6087265 0.3975525l0.36831665 2.8594666l-5.1982193 1.7897949c-0.088653564 0.9141083 -0.29602814 1.8204651 -0.63610077 2.6948853l3.6922913 4.2880554l-1.7443619 2.2855835zm-7.8700867 -7.6142273c1.4521866 -1.9025269 1.0996933 -4.6324615 -0.78585815 -6.0976257c-1.885643 -1.4651794 -4.5914 -1.1095123 -6.0435867 0.792984c-1.4521713 1.9024048 -1.0996628 4.63237 0.78598785 6.0975494c1.8868484 1.4644165 4.592308 1.109787 6.043457 -0.7929077z" fill-rule="evenodd"/><path fill="#136a7f" d="m111.54086 171.89441l-2.4214478 4.972748c0.59194946 0.72776794 1.0757141 1.5219574 1.439148 2.3629913l5.6084366 0.39857483l0.36830902 2.8594666l-5.198204 1.7897797c-0.088768005 0.91407776 -0.29805756 1.8199005 -0.6387863 2.6931305l3.6906204 4.2865753l-1.7431107 2.284607l-4.9270325 -2.4415283c-0.7213135 0.59724426 -1.5078049 1.0865326 -2.3410263 1.4523163l-0.3939209 5.6589203l-2.834221 0.37158203l-1.7739487 -5.2445984c-0.90597534 -0.08955383 -1.8009872 -0.3031311 -2.6676865 -0.6461487l-4.2469864 3.7218628l-2.2644577 -1.7587128l2.4184113 -4.9694214c-0.59194183 -0.72776794 -1.0771713 -1.5202789 -1.440712 -2.3613434l-5.6097794 -0.3977356l-0.3683014 -2.8594666l5.1978455 -1.7888947c0.08873749 -0.91397095 0.29776764 -1.8188629 0.6377716 -2.6934052l-3.6905518 -4.2864532l1.7431412 -2.2847137l4.9270325 2.441513c0.72128296 -0.59713745 1.5078125 -1.0865021 2.3410187 -1.452301l0.39403534 -5.65889l2.8341217 -0.37161255l1.7739182 5.244705c0.90600586 0.08946228 1.8043213 0.29867554 2.6710052 0.6417999l4.250038 -3.7253113l2.2653198 1.759964zm-7.54673 7.9404755c-1.8856506 -1.4651794 -4.5913925 -1.1095428 -6.0435715 0.7928772c-1.4521866 1.9025116 -1.099678 4.6324615 0.78595734 6.097641c1.8855438 1.4651489 4.591301 1.1094971 6.0434875 -0.7930145c1.4514389 -1.9037323 1.0999603 -4.6333923 -0.7858734 -6.0975037z" fill-rule="evenodd"/><path fill="#136a7f" d="m137.1292 171.6214l-2.4214478 4.972748c0.59194946 0.72776794 1.0757141 1.5219574 1.439148 2.3629913l5.608444 0.39857483l0.3683014 2.8594666l-5.1982117 1.7897797c-0.088760376 0.91407776 -0.29804993 1.8198853 -0.6387787 2.6931305l3.6906128 4.2865753l-1.743103 2.284607l-4.9270325 -2.4415283c-0.7213135 0.59724426 -1.5078125 1.0865326 -2.3410187 1.4523163l-0.39393616 5.6589203l-2.8342133 0.37158203l-1.7739487 -5.2445984c-0.90597534 -0.08955383 -1.8009872 -0.3031311 -2.6676865 -0.6461487l-4.2469864 3.7218628l-2.2644577 -1.7587128l2.4184113 -4.9694214c-0.59194183 -0.7277832 -1.0771713 -1.5202789 -1.440712 -2.3613434l-5.6097794 -0.3977356l-0.3683014 -2.8594666l5.1978455 -1.7888947c0.08873749 -0.91397095 0.29776764 -1.8188629 0.6377716 -2.6934052l-3.6905518 -4.2864532l1.7431412 -2.2847137l4.9270325 2.441513c0.72128296 -0.59713745 1.5078125 -1.0865021 2.3410187 -1.452301l0.39403534 -5.65889l2.8341217 -0.37161255l1.7739182 5.244705c0.90599823 0.08946228 1.8043289 0.29867554 2.6710129 0.6417999l4.2500305 -3.7253113l2.2653198 1.759964zm-7.5467377 7.94046c-1.885643 -1.4651794 -4.591385 -1.1095276 -6.043564 0.79289246c-1.4521866 1.9025116 -1.099678 4.6324615 0.78595734 6.097641c1.8855438 1.4651489 4.591301 1.1094971 6.043495 -0.7930145c1.4514313 -1.9037323 1.0999451 -4.6333923 -0.7858887 -6.097519z" fill-rule="evenodd"/><path fill="#136a7f" d="m112.76856 168.22438l-4.928673 -2.4431c-0.7213135 0.59724426 -1.508461 1.0853424 -2.342041 1.4520264l-0.3950348 5.6586l-2.8341217 0.3715973l-1.7739182 -5.24469c-0.90597534 -0.08956909 -1.8037643 -0.30073547 -2.6692505 -0.64450073l-4.248581 3.7236176l-2.2643585 -1.7586975l2.419876 -4.9711c-0.59194946 -0.72776794 -1.076889 -1.521286 -1.4394379 -2.3619537l-5.608757 -0.39744568l-0.36828613 -2.8595734l5.198105 -1.7898102c0.088768005 -0.91407776 0.3004532 -1.8170929 0.64042664 -2.6915436l-3.6888733 -4.284973l1.7431259 -2.2847137l4.9253693 2.4400482c0.72132874 -0.59724426 1.5067978 -1.0868073 2.3404083 -1.453598l0.39421082 -5.659958l2.8341217 -0.3715973l1.7730331 5.244339c0.90587616 0.089538574 1.802742 0.3004303 2.6695404 0.6434784l4.248459 -3.7235565l2.26445 1.758728l-2.4198685 4.9711c0.59184265 0.7277374 1.0768738 1.5213013 1.4394302 2.3619537l5.6087265 0.3975525l0.36831665 2.8594666l-5.1982193 1.7897949c-0.088661194 0.9141083 -0.29602814 1.8204651 -0.63610077 2.6948853l3.6922913 4.2880554l-1.7443695 2.2855682zm-7.870079 -7.614212c1.4521866 -1.9025269 1.0996933 -4.6324615 -0.78585815 -6.0976257c-1.885643 -1.4651794 -4.5914 -1.1095123 -6.0435867 0.792984c-1.4521713 1.9024048 -1.0996628 4.63237 0.78598785 6.0975494c1.8868484 1.4644165 4.592308 1.109787 6.043457 -0.7929077z" fill-rule="evenodd"/><path fill="#136a7f" d="m60.08446 146.65338l-2.421444 4.972748c0.59194946 0.72776794 1.0757103 1.5219574 1.439148 2.3629913l5.6084366 0.39857483l0.36830902 2.8594666l-5.198208 1.7897797c-0.08876419 0.91407776 -0.29805756 1.8198853 -0.6387825 2.6931305l3.6906166 4.2865753l-1.7431107 2.284607l-4.9270325 -2.4415283c-0.7213135 0.59724426 -1.5078049 1.0865326 -2.3410225 1.4523163l-0.3939247 5.6589203l-2.834217 0.37158203l-1.7739487 -5.2445984c-0.90597534 -0.08955383 -1.8009872 -0.3031311 -2.6676865 -0.6461487l-4.2469864 3.7218628l-2.2644577 -1.7587128l2.418415 -4.9694214c-0.59194946 -0.7277832 -1.077179 -1.5202789 -1.4407158 -2.3613434l-5.6097794 -0.3977356l-0.3683052 -2.8594666l5.1978493 -1.7888947c0.08873749 -0.91397095 0.29776764 -1.8188629 0.6377678 -2.6934052l-3.690548 -4.2864532l1.7431374 -2.2847137l4.9270363 2.441513c0.72128296 -0.59713745 1.5078125 -1.0865021 2.3410187 -1.452301l0.39403152 -5.65889l2.8341217 -0.37161255l1.7739182 5.244705c0.90600586 0.08944702 1.8043289 0.29867554 2.671009 0.6417999l4.250038 -3.7253113l2.265316 1.759964zm-7.54673 7.94046c-1.8856506 -1.4651794 -4.5913925 -1.1095276 -6.0435677 0.79289246c-1.4521866 1.9025116 -1.0996819 4.6324615 0.78595734 6.097641c1.8855438 1.4651489 4.591297 1.1094971 6.0434875 -0.7930145c1.4514389 -1.9037323 1.0999565 -4.6333923 -0.7858772 -6.097519z" fill-rule="evenodd"/><path fill="#136a7f" d="m85.673096 146.38005l-2.4214401 4.972763c0.59194946 0.72776794 1.0757065 1.5219421 1.439148 2.3629913l5.6084366 0.39855957l0.36830902 2.8594666l-5.1982117 1.7897949c-0.088760376 0.91407776 -0.29805756 1.8198853 -0.6387787 2.6931152l3.6906128 4.2865753l-1.743103 2.2846222l-4.9270325 -2.4415283c-0.7213211 0.59724426 -1.5078049 1.0865173 -2.3410263 1.4523163l-0.3939209 5.6589203l-2.834221 0.37158203l-1.7739487 -5.2445984c-0.90597534 -0.08956909 -1.8009872 -0.30314636 -2.6676865 -0.6461487l-4.2469864 3.7218475l-2.2644577 -1.7587128l2.4184113 -4.969406c-0.59194183 -0.7277832 -1.0771713 -1.5202789 -1.440712 -2.3613434l-5.6097794 -0.3977356l-0.3683052 -2.8594666l5.1978493 -1.7888947c0.08873749 -0.9139862 0.29776764 -1.8188629 0.637764 -2.6934204l-3.6905441 -4.2864532l1.7431335 -2.2846985l4.92704 2.441513c0.72128296 -0.59713745 1.5078125 -1.0865173 2.3410187 -1.4523163l0.3940277 -5.6588745l2.8341217 -0.37161255l1.7739258 5.244705c0.90600586 0.08944702 1.8043213 0.29867554 2.6710052 0.64178467l4.250038 -3.7253113l2.2653122 1.759964zm-7.54673 7.9404755c-1.8856506 -1.4651794 -4.5913925 -1.1095276 -6.043564 0.79289246c-1.4521866 1.9024963 -1.0996857 4.6324615 0.78595734 6.0976257c1.8855438 1.4651642 4.591301 1.1095123 6.0434875 -0.7930145c1.4514389 -1.903717 1.0999527 -4.633377 -0.78588104 -6.0975037z" fill-rule="evenodd"/><path fill="#136a7f" d="m60.228897 172.48102l-2.421444 4.972748c0.59194946 0.72776794 1.0757103 1.5219574 1.4391518 2.3629913l5.6084366 0.39857483l0.36830902 2.8594666l-5.198208 1.7897797c-0.088768005 0.91407776 -0.29806137 1.8198853 -0.6387825 2.6931305l3.6906166 4.2865753l-1.7431107 2.284607l-4.9270325 -2.4415283c-0.7213173 0.59724426 -1.5078049 1.0865326 -2.3410225 1.4523163l-0.3939247 5.6589203l-2.834221 0.37158203l-1.7739487 -5.2445984c-0.90597534 -0.08955383 -1.8009872 -0.3031311 -2.6676826 -0.6461487l-4.2469864 3.7218628l-2.2644577 -1.7587128l2.4184113 -4.9694214c-0.59194565 -0.7277832 -1.0771751 -1.5202789 -1.4407158 -2.3613434l-5.6097755 -0.3977356l-0.36830902 -2.8594666l5.1978493 -1.7888947c0.08873749 -0.91397095 0.29776764 -1.8188629 0.6377678 -2.6934052l-3.6905441 -4.2864532l1.7431335 -2.2847137l4.9270363 2.441513c0.7212868 -0.59713745 1.5078125 -1.0865021 2.3410225 -1.452301l0.3940277 -5.65889l2.8341255 -0.37161255l1.7739182 5.244705c0.90600586 0.08946228 1.8043251 0.29867554 2.6710052 0.6417999l4.250042 -3.7253113l2.2653122 1.759964zm-7.546726 7.94046c-1.8856544 -1.4651642 -4.5913963 -1.1095276 -6.0435677 0.79289246c-1.4521904 1.9025116 -1.0996857 4.6324615 0.78595734 6.097641c1.88554 1.4651489 4.591297 1.1094971 6.0434875 -0.7930145c1.4514351 -1.9037323 1.0999565 -4.6333923 -0.7858772 -6.097519z" fill-rule="evenodd"/><path fill="#136a7f" d="m137.0719 145.62097l-2.4214325 4.972748c0.59194946 0.72776794 1.0756989 1.5219574 1.439148 2.3630066l5.608429 0.39855957l0.36831665 2.8594666l-5.1982117 1.7897797c-0.088760376 0.91407776 -0.2980652 1.8199005 -0.6387787 2.6931305l3.6906128 4.2865753l-1.743103 2.284607l-4.9270477 -2.441513c-0.7213135 0.59724426 -1.5077972 1.0865173 -2.3410187 1.4523163l-0.3939209 5.658905l-2.834221 0.37158203l-1.7739487 -5.2445984c-0.90597534 -0.08955383 -1.8009872 -0.3031311 -2.6676865 -0.6461487l-4.2469788 3.7218628l-2.2644577 -1.7587128l2.4184113 -4.9694214c-0.59194946 -0.72776794 -1.077179 -1.5202789 -1.4407196 -2.3613281l-5.6097794 -0.39775085l-0.3683014 -2.8594666l5.1978455 -1.7888794c0.08873749 -0.9139862 0.29776764 -1.8188782 0.6377716 -2.6934204l-3.6905518 -4.2864532l1.7431412 -2.2847137l4.9270325 2.441513c0.7212906 -0.59713745 1.5078125 -1.0865021 2.3410187 -1.452301l0.39403534 -5.65889l2.8341217 -0.37161255l1.7739182 5.2447205c0.90600586 0.08944702 1.8043213 0.29867554 2.6710052 0.64178467l4.250046 -3.7253113l2.2653046 1.759964zm-7.5467224 7.9404755c-1.8856506 -1.4651794 -4.5913925 -1.1095276 -6.0435715 0.7928772c-1.4521866 1.9025116 -1.099678 4.6324615 0.78595734 6.097641c1.8855438 1.4651642 4.5913086 1.1094971 6.0434875 -0.7930145c1.4514465 -1.903717 1.0999603 -4.633377 -0.7858734 -6.0975037z" fill-rule="evenodd"/><path fill="#136a7f" d="m86.00549 377.52222l-2.4214401 4.972748c0.59194183 0.7277527 1.0757065 1.5219421 1.439148 2.3630066l5.6084366 0.39855957l0.3683014 2.8594666l-5.198204 1.7897949c-0.088760376 0.9140625 -0.29805756 1.8198853 -0.6387787 2.6931152l3.6906128 4.28656l-1.7431107 2.284607l-4.9270325 -2.4414978c-0.7213135 0.597229 -1.5078049 1.0865173 -2.3410187 1.452301l-0.39392853 5.6589355l-2.8342133 0.37158203l-1.7739487 -5.2445984c-0.90597534 -0.08956909 -1.8009872 -0.30316162 -2.6676865 -0.6461792l-4.2469864 3.7218628l-2.2644577 -1.7586975l2.4184113 -4.9694214c-0.59194946 -0.7277832 -1.077179 -1.5202942 -1.440712 -2.3613281l-5.609783 -0.3977661l-0.3683052 -2.8594666l5.1978455 -1.7888794c0.08874512 -0.91397095 0.29777527 -1.8188782 0.6377716 -2.6934204l-3.690548 -4.286438l1.7431374 -2.2846985l4.92704 2.4414978c0.72128296 -0.59713745 1.5078125 -1.0865173 2.3410187 -1.452301l0.3940277 -5.658905l2.8341217 -0.37158203l1.7739182 5.24469c0.90600586 0.08944702 1.8043289 0.29867554 2.6710129 0.64178467l4.250038 -3.7253113l2.2653122 1.7599792zm-7.54673 7.94046c-1.8856506 -1.4651794 -4.5913925 -1.1095276 -6.043564 0.7928772c-1.4521866 1.9025269 -1.0996857 4.632477 0.78595734 6.0976562c1.8855438 1.4651489 4.5912933 1.1094971 6.0434875 -0.7930298c1.4514389 -1.903717 1.0999527 -4.633362 -0.78588104 -6.0975037z" fill-rule="evenodd"/><path fill="#136a7f" d="m60.41442 377.79306l-2.4214478 4.9727783c0.59194946 0.7277527 1.0757103 1.5219421 1.4391518 2.362976l5.6084404 0.39855957l0.3683014 2.8594666l-5.198204 1.7897949c-0.088768005 0.914093 -0.29806137 1.8198853 -0.6387825 2.6931152l3.6906166 4.2865906l-1.7431107 2.284607l-4.9270325 -2.4415283c-0.7213173 0.5972595 -1.5078049 1.0865173 -2.3410225 1.4523315l-0.3939247 5.658905l-2.834221 0.37158203l-1.7739487 -5.2445984c-0.90597534 -0.08956909 -1.8009872 -0.3031311 -2.6676826 -0.6461487l-4.2469864 3.7218628l-2.2644577 -1.758728l2.4184113 -4.969391c-0.59194565 -0.7277832 -1.0771751 -1.5202942 -1.4407158 -2.3613586l-5.6097755 -0.3977356l-0.36830902 -2.8594666l5.1978493 -1.7888794c0.08873749 -0.91400146 0.29776764 -1.8188782 0.6377678 -2.6934204l-3.6905441 -4.2864685l1.7431335 -2.2846985l4.9270363 2.4415283c0.7212868 -0.59713745 1.5078125 -1.0865173 2.3410225 -1.4523315l0.3940277 -5.6588745l2.8341255 -0.37161255l1.7739182 5.2447205c0.90600586 0.08944702 1.8043251 0.29867554 2.6710052 0.64178467l4.250042 -3.7253113l2.265316 1.7599487zm-7.54673 7.9404907c-1.8856544 -1.4651794 -4.5913963 -1.1095276 -6.0435677 0.7928772c-1.4521904 1.9024963 -1.0996857 4.632477 0.78595734 6.0976257c1.88554 1.4651794 4.591297 1.1094971 6.0434875 -0.79299927c1.4514351 -1.903717 1.0999565 -4.6333923 -0.7858772 -6.0975037z" fill-rule="evenodd"/><path fill="#136a7f" d="m60.090565 275.2827l-2.421444 4.972748c0.59194946 0.7277527 1.0757103 1.5219421 1.439148 2.362976l5.6084366 0.3985901l0.36830902 2.8594666l-5.198208 1.7897644c-0.08876419 0.914093 -0.29805756 1.8199158 -0.6387825 2.6931458l3.6906166 4.28656l-1.7431068 2.284607l-4.9270363 -2.4414978c-0.7213135 0.597229 -1.5078049 1.0865173 -2.3410225 1.452301l-0.3939209 5.658905l-2.834221 0.37158203l-1.7739487 -5.2445984c-0.90597534 -0.089538574 -1.8009872 -0.3031311 -2.6676865 -0.6461487l-4.2469826 3.7218628l-2.2644577 -1.7586975l2.4184113 -4.9694214c-0.59194946 -0.7277832 -1.077179 -1.5202942 -1.4407158 -2.3613281l-5.6097794 -0.3977661l-0.3683052 -2.8594666l5.1978493 -1.7888794c0.08873749 -0.91397095 0.29776764 -1.8188782 0.6377678 -2.6934204l-3.690548 -4.286438l1.7431374 -2.284729l4.9270363 2.4415283c0.72128296 -0.59713745 1.5078125 -1.0865173 2.3410187 -1.452301l0.39403152 -5.658905l2.8341217 -0.37161255l1.773922 5.2447205c0.90600204 0.08944702 1.8043251 0.29867554 2.6710052 0.64178467l4.250038 -3.7253113l2.265316 1.7599792zm-7.54673 7.94046c-1.8856506 -1.4651794 -4.5913925 -1.1095276 -6.0435677 0.7928772c-1.4521866 1.9025269 -1.0996819 4.632477 0.78595734 6.0976562c1.8855438 1.4651489 4.591297 1.1094971 6.0434875 -0.7930298c1.4514389 -1.903717 1.0999565 -4.633362 -0.7858772 -6.0975037z" fill-rule="evenodd"/><path fill="#136a7f" d="m85.681946 275.01184l-2.4214478 4.972748c0.59194946 0.7277832 1.0757141 1.5219727 1.439148 2.3630066l5.608444 0.39855957l0.3683014 2.8594666l-5.198204 1.7897949c-0.088768005 0.9140625 -0.29805756 1.8198853 -0.6387787 2.6931152l3.6906128 4.2865906l-1.7431107 2.284607l-4.9270325 -2.4415283c-0.7213135 0.597229 -1.5078049 1.0865173 -2.3410263 1.452301l-0.3939209 5.6589355l-2.834221 0.37158203l-1.7739487 -5.2445984c-0.90597534 -0.08956909 -1.8009872 -0.3031311 -2.6676788 -0.6461487l-4.2469864 3.7218628l-2.2644577 -1.758728l2.4184113 -4.9694214c-0.59194946 -0.7277527 -1.077179 -1.5202637 -1.4407196 -2.3613281l-5.6097755 -0.3977356l-0.3683052 -2.8594666l5.1978455 -1.7889099c0.08873749 -0.91397095 0.29776764 -1.8188477 0.6377716 -2.69339l-3.690548 -4.2864685l1.7431374 -2.2846985l4.9270325 2.4414978c0.7212906 -0.59713745 1.5078125 -1.0864868 2.3410263 -1.452301l0.3940277 -5.6588745l2.8341217 -0.37161255l1.7739182 5.24469c0.90600586 0.08947754 1.8043289 0.29867554 2.6710052 0.6418152l4.250038 -3.7253113l2.2653198 1.7599487zm-7.54673 7.9404907c-1.8856506 -1.4651794 -4.5913925 -1.1095581 -6.0435715 0.7928772c-1.4521866 1.9024963 -1.099678 4.6324463 0.78596497 6.0976257c1.8855362 1.4651489 4.5912933 1.1094971 6.0434875 -0.79299927c1.4514313 -1.9037476 1.0999527 -4.6333923 -0.78588104 -6.0975037z" fill-rule="evenodd"/><path fill="#136a7f" d="m60.232567 301.1128l-2.4214478 4.9727783c0.59194946 0.7277527 1.0757103 1.5219421 1.4391518 2.362976l5.6084404 0.39855957l0.3683014 2.8594666l-5.198204 1.7897949c-0.088768005 0.914093 -0.29806137 1.8198853 -0.6387825 2.6931152l3.6906166 4.2865906l-1.7431107 2.284607l-4.9270325 -2.4415283c-0.7213173 0.5972595 -1.5078049 1.0865173 -2.3410225 1.4523315l-0.3939247 5.658905l-2.834217 0.37158203l-1.7739525 -5.2445984c-0.90597534 -0.08956909 -1.8009872 -0.3031311 -2.6676826 -0.6461487l-4.2469864 3.7218628l-2.2644577 -1.758728l2.4184113 -4.9694214c-0.59194565 -0.7277527 -1.0771751 -1.5202637 -1.4407158 -2.3613281l-5.6097755 -0.3977356l-0.3683052 -2.8594666l5.1978455 -1.7888794c0.08873749 -0.91400146 0.29776764 -1.8188782 0.6377678 -2.6934204l-3.6905441 -4.2864685l1.7431335 -2.2846985l4.9270363 2.4415283c0.7212868 -0.59713745 1.5078125 -1.0865173 2.3410225 -1.4523315l0.3940277 -5.6588745l2.8341255 -0.37161255l1.7739182 5.2447205c0.90600586 0.08944702 1.8043251 0.29867554 2.6710052 0.64178467l4.250042 -3.7253113l2.265316 1.7599487zm-7.54673 7.9404907c-1.8856544 -1.4651794 -4.5913963 -1.1095276 -6.0435677 0.7928772c-1.4521866 1.9024963 -1.0996857 4.6324463 0.78595734 6.0976257c1.88554 1.4651794 4.591297 1.1094971 6.0434875 -0.79299927c1.4514351 -1.903717 1.0999565 -4.6333923 -0.7858772 -6.0975037z" fill-rule="evenodd"/><path fill="#136a7f" d="m87.443214 322.87442l-4.928673 -2.4430847c-0.7213135 0.597229 -1.508461 1.0853271 -2.3420486 1.4520264l-0.39502716 5.6586l-2.8341217 0.37158203l-1.7739258 -5.24469c-0.90597534 -0.08956909 -1.8037567 -0.3007202 -2.6692429 -0.64450073l-4.248581 3.7236328l-2.2643585 -1.7586975l2.419876 -4.9711c-0.59194946 -0.7277832 -1.076889 -1.5213013 -1.4394379 -2.361969l-5.608757 -0.39743042l-0.36828995 -2.8595886l5.1981087 -1.7897949c0.088768005 -0.914093 0.3004532 -1.8171082 0.64042664 -2.6915588l-3.6888695 -4.284973l1.7431221 -2.2846985l4.9253693 2.440033c0.7213211 -0.597229 1.5067978 -1.086792 2.3404007 -1.4535828l0.39421844 -5.659973l2.8341217 -0.37158203l1.7730331 5.2443237c0.90587616 0.089538574 1.802742 0.30044556 2.6695404 0.64346313l4.248451 -3.7235413l2.2644577 1.758728l-2.4198685 4.9711c0.59184265 0.72772217 1.0768738 1.5213013 1.4394302 2.361969l5.6087265 0.3975525l0.36831665 2.8594666l-5.1982193 1.7897644c-0.088661194 0.91412354 -0.29602814 1.8204651 -0.63610077 2.6949158l3.6922836 4.2880554l-1.7443619 2.285553zm-7.870079 -7.6142273c1.4521866 -1.9024963 1.0996933 -4.6324463 -0.78585815 -6.097595c-1.885643 -1.4651794 -4.5914 -1.1095276 -6.0435867 0.79296875c-1.4521713 1.9024048 -1.0996704 4.6323547 0.78598785 6.097534c1.8868408 1.4644165 4.592308 1.1098022 6.043457 -0.7929077z" fill-rule="evenodd"/><path fill="#000000" fill-opacity="0.0" d="m618.9377 36.333332l-1.6377563 439.37006" fill-rule="evenodd"/><path stroke="#45728a" stroke-width="1.0" stroke-linejoin="round" stroke-linecap="butt" stroke-dasharray="1.0,3.0" d="m618.9377 36.333332l-1.6377563 439.37006" fill-rule="evenodd"/><path fill="#ffffff" d="m685.0472 188.78473l0 0c0 -30.905075 55.709045 -55.958588 124.42963 -55.958588c68.72064 0 124.42969 25.053513 124.42969 55.958588l0 223.83438c0 30.90509 -55.709045 55.95862 -124.42969 55.95862c-68.72058 0 -124.42963 -25.053528 -124.42963 -55.95862z" fill-rule="evenodd"/><path fill="#000000" fill-opacity="0.0" d="m933.9065 188.78473l0 0c0 30.90509 -55.709045 55.958603 -124.42969 55.958603c-68.72058 0 -124.42963 -25.053513 -124.42963 -55.958603" fill-rule="evenodd"/><path fill="#000000" fill-opacity="0.0" d="m685.0472 188.78473l0 0c0 -30.905075 55.709045 -55.958588 124.42963 -55.958588c68.72064 0 124.42969 25.053513 124.42969 55.958588l0 223.83438c0 30.90509 -55.709045 55.95862 -124.42969 55.95862c-68.72058 0 -124.42963 -25.053528 -124.42963 -55.95862z" fill-rule="evenodd"/><path stroke="#000000" stroke-width="1.0" stroke-linejoin="round" stroke-linecap="butt" d="m933.9065 188.78473l0 0c0 30.90509 -55.709045 55.958603 -124.42969 55.958603c-68.72058 0 -124.42963 -25.053513 -124.42963 -55.958603" fill-rule="evenodd"/><path stroke="#000000" stroke-width="1.0" stroke-linejoin="round" stroke-linecap="butt" d="m685.0472 188.78473l0 0c0 -30.905075 55.709045 -55.958588 124.42963 -55.958588c68.72064 0 124.42969 25.053513 124.42969 55.958588l0 223.83438c0 30.90509 -55.709045 55.95862 -124.42969 55.95862c-68.72058 0 -124.42963 -25.053528 -124.42963 -55.95862z" fill-rule="evenodd"/><g filter="url(#shadowFilter-g272f3478e41_0_17.3)"><use xlink:href="#g272f3478e41_0_17.3" transform="matrix(1.0 0.0 0.0 1.0 0.0 2.0)"/></g><defs><filter id="shadowFilter-g272f3478e41_0_17.3" filterUnits="userSpaceOnUse"><feGaussianBlur in="SourceAlpha" stdDeviation="2.0" result="blur"/><feComponentTransfer in="blur" color-interpolation-filters="sRGB"><feFuncR type="linear" slope="0" intercept="0.07450981"/><feFuncG type="linear" slope="0" intercept="0.41568628"/><feFuncB type="linear" slope="0" intercept="0.49803922"/><feFuncA type="linear" slope="0.4941" intercept="0"/></feComponentTransfer></filter></defs><g id="g272f3478e41_0_17.3"><path fill="#136a7f" d="m810.7987 168.41138l79.91986 0l0 105.40634c-39.957764 0 -39.957764 40.555023 -79.91986 20.277496zm6.5844116 0l0 -13.665268l79.37402 0l0 106.06755c-3.0171509 0 -6.038574 0.7346802 -6.038574 0.7346802l0 -93.13696zm6.189026 -13.665268l0 -13.334671l80.06171 0l0 105.73694c-3.4383545 0 -6.876709 0.5510254 -6.876709 0.5510254l0 -92.95329z" fill-rule="evenodd"/><path fill="#000000" fill-opacity="0.0" d="m810.7987 168.41138l79.91986 0l0 105.40634c-39.957764 0 -39.957764 40.555023 -79.91986 20.277496zm6.5844116 0l0 -13.665268l79.37402 0l0 106.06755c-3.0171509 0 -6.038574 0.7346802 -6.038574 0.7346802m-67.14642 -106.80223l0 -13.334671l80.06171 0l0 105.73694c-3.4383545 0 -6.876709 0.5510254 -6.876709 0.5510254" fill-rule="evenodd"/><path fill="#000000" fill-opacity="0.0" d="m810.7987 294.0952c39.962097 20.277527 39.962097 -20.277496 79.91986 -20.277496l0 -12.269379c0 0 3.0214233 -0.7346802 6.038574 -0.7346802l0 -13.114258c0 0 3.4383545 -0.5510254 6.876709 -0.5510254l0 -105.73694l-80.06171 0l0 13.334671l-6.189026 0l0 13.665268l-6.5844116 0z" fill-rule="evenodd"/><path stroke="#ffffff" stroke-width="1.0" stroke-linejoin="round" stroke-linecap="butt" d="m810.7987 168.41138l79.91986 0l0 105.40634c-39.957764 0 -39.957764 40.555023 -79.91986 20.277496zm6.5844116 0l0 -13.665268l79.37402 0l0 106.06755c-3.0171509 0 -6.038574 0.7346802 -6.038574 0.7346802m-67.14642 -106.80223l0 -13.334671l80.06171 0l0 105.73694c-3.4383545 0 -6.876709 0.5510254 -6.876709 0.5510254" fill-rule="evenodd"/></g><g filter="url(#shadowFilter-g272f3478e41_0_17.4)"><use xlink:href="#g272f3478e41_0_17.4" transform="matrix(1.0 0.0 0.0 1.0 0.0 2.0)"/></g><defs><filter id="shadowFilter-g272f3478e41_0_17.4" filterUnits="userSpaceOnUse"><feGaussianBlur in="SourceAlpha" stdDeviation="2.0" result="blur"/><feComponentTransfer in="blur" color-interpolation-filters="sRGB"><feFuncR type="linear" slope="0" intercept="0.07450981"/><feFuncG type="linear" slope="0" intercept="0.41568628"/><feFuncB type="linear" slope="0" intercept="0.49803922"/><feFuncA type="linear" slope="0.4941" intercept="0"/></feComponentTransfer></filter></defs><g id="g272f3478e41_0_17.4"><path fill="#136a7f" d="m710.36536 155.89178l79.91986 0l0 105.40634c-39.957764 0 -39.957764 40.555023 -79.91986 20.277496zm6.5844116 0l0 -13.665268l79.37402 0l0 106.06755c-3.0171509 0 -6.038574 0.73469543 -6.038574 0.73469543l0 -93.13698zm6.189026 -13.665268l0 -13.334671l80.06171 0l0 105.73694c-3.4383545 0 -6.876709 0.5510254 -6.876709 0.5510254l0 -92.95329z" fill-rule="evenodd"/><path fill="#000000" fill-opacity="0.0" d="m710.36536 155.89178l79.91986 0l0 105.40634c-39.957764 0 -39.957764 40.555023 -79.91986 20.277496zm6.5844116 0l0 -13.665268l79.37402 0l0 106.06755c-3.0171509 0 -6.038574 0.73469543 -6.038574 0.73469543m-67.14642 -106.802246l0 -13.334671l80.06171 0l0 105.73694c-3.4383545 0 -6.876709 0.5510254 -6.876709 0.5510254" fill-rule="evenodd"/><path fill="#000000" fill-opacity="0.0" d="m710.36536 281.57562c39.962097 20.277527 39.962097 -20.277496 79.91986 -20.277496l0 -12.269363c0 0 3.0214233 -0.73469543 6.038574 -0.73469543l0 -13.114258c0 0 3.4383545 -0.5510254 6.876709 -0.5510254l0 -105.73694l-80.06171 0l0 13.334671l-6.189026 0l0 13.665268l-6.5844116 0z" fill-rule="evenodd"/><path stroke="#ffffff" stroke-width="1.0" stroke-linejoin="round" stroke-linecap="butt" d="m710.36536 155.89178l79.91986 0l0 105.40634c-39.957764 0 -39.957764 40.555023 -79.91986 20.277496zm6.5844116 0l0 -13.665268l79.37402 0l0 106.06755c-3.0171509 0 -6.038574 0.73469543 -6.038574 0.73469543m-67.14642 -106.802246l0 -13.334671l80.06171 0l0 105.73694c-3.4383545 0 -6.876709 0.5510254 -6.876709 0.5510254" fill-rule="evenodd"/></g><path fill="#ffffff" d="m692.2406 209.38716c-3.7598267 -3.7433014 -4.807312 -9.820648 -5.786255 -8.543518c-0.9789429 1.2771149 -0.97265625 3.0638428 -0.09350586 16.19368c0.8791504 13.129852 0.69207764 44.347046 5.3622437 62.591675c4.6763916 18.244629 -8.3302 37.57135 22.67743 46.888702c31.00763 9.317352 130.36554 8.065399 163.35602 9.002777c32.990417 0.93740845 27.946106 -1.1261292 34.574158 -3.3783875c6.6279907 -2.2522583 2.8494873 -6.0647583 5.20636 -10.128937c2.3569336 -4.064148 6.8026123 -3.510498 8.922607 -14.249664c2.119934 -10.739166 2.7122803 -32.821472 3.7910156 -50.17276c1.0786743 -17.351257 2.793335 -45.29071 2.6686401 -53.928604c-0.124694824 -8.637894 -1.0599976 -0.17616272 -3.4106445 2.094986c-2.350708 2.2711334 -5.2250977 7.492874 -10.693359 11.538162c-5.4682617 4.045273 -13.561584 9.015366 -22.122498 12.73349c-8.560913 3.7181244 -17.414917 6.970703 -29.249329 9.587875c-11.834412 2.6234436 -26.97345 5.3664246 -41.769592 6.133957c-14.796143 0.76753235 -31.494019 0.4655609 -47.019653 -1.5224762c-15.525635 -1.9880371 -34.54297 -6.932968 -46.14673 -10.41832c-11.603699 -3.4853516 -16.77887 -6.4233704 -23.487976 -10.493805c-6.7090454 -4.0704346 -13.019104 -10.185532 -16.77893 -13.928833z" fill-rule="evenodd"/><path fill="#000000" fill-opacity="0.0" d="m686.16327 196.58194c2.2696533 3.2337036 8.542236 14.394394 13.605225 19.395935c5.0629883 5.007843 11.023865 7.731949 16.77893 10.632217c5.755066 2.9002686 10.356689 4.523407 17.751587 6.781967c7.401184 2.2585602 17.42743 4.9197693 26.63678 6.7756805c9.209412 1.8622131 20.170898 3.6489258 28.613342 4.378723c8.442444 0.7297821 14.147644 0.2642212 22.02893 0c7.8813477 -0.26423645 15.500732 -0.4466858 25.25885 -1.5791168c9.758057 -1.1324158 23.855835 -3.2148285 33.283447 -5.215439c9.427612 -2.0006256 16.373657 -3.9949493 23.276001 -6.781967c6.902405 -2.787033 13.69873 -7.31044 18.138184 -9.933899c4.439514 -2.6234436 5.2438354 -2.4976196 8.498596 -5.8068237c3.2547607 -3.309204 9.196899 -11.701736 11.036316 -14.0420685" fill-rule="evenodd"/><path stroke="#000000" stroke-width="1.0" stroke-linejoin="round" stroke-linecap="butt" d="m686.16327 196.58194c2.2696533 3.2337036 8.542236 14.394394 13.605225 19.395935c5.0629883 5.007843 11.023865 7.731949 16.77893 10.632217c5.755066 2.9002686 10.356689 4.523407 17.751587 6.781967c7.401184 2.2585602 17.42743 4.9197693 26.63678 6.7756805c9.209412 1.8622131 20.170898 3.6489258 28.613342 4.378723c8.442444 0.7297821 14.147644 0.2642212 22.02893 0c7.8813477 -0.26423645 15.500732 -0.4466858 25.25885 -1.5791168c9.758057 -1.1324158 23.855835 -3.2148285 33.283447 -5.215439c9.427612 -2.0006256 16.373657 -3.9949493 23.276001 -6.781967c6.902405 -2.787033 13.69873 -7.31044 18.138184 -9.933899c4.439514 -2.6234436 5.2438354 -2.4976196 8.498596 -5.8068237c3.2547607 -3.309204 9.196899 -11.701736 11.036316 -14.0420685" fill-rule="evenodd"/><path fill="#000000" fill-opacity="0.0" d="m694.1381 278.06625l230.67743 0l0 90.518555l-230.67743 0z" fill-rule="evenodd"/><path fill="#136a7f" d="m760.12305 298.7831q0 1.953125 -0.65625 3.40625q-0.640625 1.453125 -1.84375 2.21875q-1.203125 0.765625 -2.8125 0.765625q-1.5625 0 -2.78125 -0.765625q-1.203125 -0.78125 -1.875 -2.203125q-0.671875 -1.421875 -0.6875 -3.296875l0 -0.96875q0 -1.90625 0.65625 -3.375q0.671875 -1.46875 1.890625 -2.25q1.21875 -0.78125 2.78125 -0.78125q1.59375 0 2.8125 0.78125q1.21875 0.765625 1.859375 2.234375q0.65625 1.453125 0.65625 3.390625l0 0.84375zm-1.734375 -0.859375q0 -2.359375 -0.953125 -3.609375q-0.9375 -1.265625 -2.640625 -1.265625q-1.65625 0 -2.609375 1.265625q-0.953125 1.25 -0.984375 3.5l0 0.96875q0 2.28125 0.953125 3.59375q0.96875 1.3125 2.65625 1.3125q1.6875 0 2.609375 -1.234375q0.9375 -1.234375 0.96875 -3.546875l0 -0.984375zm12.451172 2.25q0 2.25 -1.046875 3.625q-1.03125 1.375 -2.78125 1.375q-1.875 0 -2.890625 -1.328125l-0.078125 1.140625l-1.546875 0l0 -14.0l1.671875 0l0 5.234375q1.03125 -1.265625 2.8125 -1.265625q1.796875 0 2.828125 1.359375q1.03125 1.34375 1.03125 3.703125l0 0.15625zm-1.6875 -0.203125q0 -1.71875 -0.671875 -2.65625q-0.65625 -0.9375 -1.90625 -0.9375q-1.671875 0 -2.40625 1.546875l0 4.265625q0.78125 1.546875 2.421875 1.546875q1.21875 0 1.890625 -0.9375q0.671875 -0.9375 0.671875 -2.828125zm5.544983 -4.84375l0 11.0q0 2.84375 -2.578125 2.84375q-0.5625 0 -1.03125 -0.171875l0 -1.34375q0.296875 0.078125 0.765625 0.078125q0.5625 0 0.859375 -0.3125q0.296875 -0.296875 0.296875 -1.0625l0 -11.03125l1.6875 0zm-1.859375 -2.609375q0 -0.40625 0.25 -0.6875q0.25 -0.296875 0.734375 -0.296875q0.484375 0 0.734375 0.296875q0.265625 0.28125 0.265625 0.6875q0 0.40625 -0.265625 0.6875q-0.25 0.265625 -0.734375 0.265625q-0.484375 0 -0.734375 -0.265625q-0.25 -0.28125 -0.25 -0.6875zm8.657654 12.65625q-2.0 0 -3.265625 -1.3125q-1.25 -1.328125 -1.25 -3.53125l0 -0.3125q0 -1.46875 0.5625 -2.609375q0.5625 -1.15625 1.5625 -1.796875q1.015625 -0.65625 2.1875 -0.65625q1.921875 0 2.984375 1.265625q1.0625 1.265625 1.0625 3.625l0 0.6875l-6.671875 0q0.03125 1.46875 0.84375 2.375q0.828125 0.890625 2.078125 0.890625q0.890625 0 1.515625 -0.359375q0.625 -0.375 1.078125 -0.96875l1.03125 0.796875q-1.234375 1.90625 -3.71875 1.90625zm-0.203125 -8.84375q-1.015625 0 -1.71875 0.75q-0.6875 0.734375 -0.84375 2.078125l4.9375 0l0 -0.125q-0.078125 -1.28125 -0.703125 -1.984375q-0.609375 -0.71875 -1.671875 -0.71875zm9.961914 7.46875q0.890625 0 1.5625 -0.546875q0.6875 -0.546875 0.75 -1.375l1.59375 0q-0.046875 0.84375 -0.578125 1.609375q-0.53125 0.765625 -1.4375 1.234375q-0.890625 0.453125 -1.890625 0.453125q-2.015625 0 -3.203125 -1.34375q-1.1875 -1.34375 -1.1875 -3.6875l0 -0.28125q0 -1.4375 0.515625 -2.546875q0.53125 -1.125 1.515625 -1.734375q1.0 -0.625 2.34375 -0.625q1.65625 0 2.75 1.0q1.109375 0.984375 1.171875 2.5625l-1.59375 0q-0.0625 -0.953125 -0.71875 -1.5625q-0.65625 -0.625 -1.609375 -0.625q-1.28125 0 -2.0 0.921875q-0.703125 0.921875 -0.703125 2.671875l0 0.328125q0 1.703125 0.703125 2.625q0.703125 0.921875 2.015625 0.921875zm8.093506 -11.0625l0 2.390625l1.84375 0l0 1.3125l-1.84375 0l0 6.109375q0 0.59375 0.234375 0.890625q0.25 0.296875 0.84375 0.296875q0.296875 0 0.8125 -0.109375l0 1.359375q-0.671875 0.1875 -1.296875 0.1875q-1.125 0 -1.703125 -0.6875q-0.578125 -0.6875 -0.578125 -1.9375l0 -6.109375l-1.796875 0l0 -1.3125l1.796875 0l0 -2.390625l1.6875 0zm12.603394 6.34375q-2.25 -0.65625 -3.28125 -1.59375q-1.03125 -0.9375 -1.03125 -2.328125q0 -1.5625 1.25 -2.59375q1.265625 -1.03125 3.265625 -1.03125q1.359375 0 2.4375 0.53125q1.078125 0.53125 1.65625 1.46875q0.59375 0.921875 0.59375 2.03125l-1.765625 0q0 -1.203125 -0.765625 -1.890625q-0.765625 -0.6875 -2.15625 -0.6875q-1.296875 0 -2.015625 0.5625q-0.71875 0.5625 -0.71875 1.578125q0 0.8125 0.6875 1.375q0.6875 0.5625 2.328125 1.03125q1.65625 0.453125 2.59375 1.015625q0.9375 0.5625 1.375 1.3125q0.453125 0.75 0.453125 1.75q0 1.609375 -1.25 2.59375q-1.25 0.96875 -3.359375 0.96875q-1.375 0 -2.5625 -0.515625q-1.171875 -0.53125 -1.8125 -1.4375q-0.640625 -0.921875 -0.640625 -2.078125l1.75 0q0 1.203125 0.890625 1.90625q0.890625 0.6875 2.375 0.6875q1.375 0 2.109375 -0.5625q0.75 -0.5625 0.75 -1.53125q0 -0.984375 -0.6875 -1.515625q-0.6875 -0.53125 -2.46875 -1.046875zm9.177429 -6.34375l0 2.390625l1.84375 0l0 1.3125l-1.84375 0l0 6.109375q0 0.59375 0.234375 0.890625q0.25 0.296875 0.84375 0.296875q0.296875 0 0.8125 -0.109375l0 1.359375q-0.671875 0.1875 -1.296875 0.1875q-1.125 0 -1.703125 -0.6875q-0.578125 -0.6875 -0.578125 -1.9375l0 -6.109375l-1.796875 0l0 -1.3125l1.796875 0l0 -2.390625l1.6875 0zm3.1775513 7.234375q0 -1.453125 0.5625 -2.609375q0.578125 -1.15625 1.59375 -1.78125q1.015625 -0.625 2.3125 -0.625q2.015625 0 3.25 1.390625q1.25 1.390625 1.25 3.703125l0 0.125q0 1.4375 -0.546875 2.578125q-0.546875 1.140625 -1.578125 1.78125q-1.015625 0.640625 -2.359375 0.640625q-2.0 0 -3.25 -1.390625q-1.234375 -1.40625 -1.234375 -3.703125l0 -0.109375zm1.6875 0.203125q0 1.640625 0.765625 2.640625q0.765625 0.984375 2.03125 0.984375q1.296875 0 2.046875 -1.0q0.75 -1.015625 0.75 -2.828125q0 -1.625 -0.765625 -2.625q-0.765625 -1.015625 -2.046875 -1.015625q-1.25 0 -2.015625 1.0q-0.765625 0.984375 -0.765625 2.84375zm14.171143 -3.53125q-0.390625 -0.0625 -0.84375 -0.0625q-1.65625 0 -2.25 1.40625l0 7.0l-1.671875 0l0 -9.859375l1.640625 0l0.015625 1.140625q0.828125 -1.3125 2.359375 -1.3125q0.484375 0 0.75 0.125l0 1.5625zm7.260803 8.34375q-0.140625 -0.296875 -0.234375 -1.03125q-1.171875 1.21875 -2.8125 1.21875q-1.453125 0 -2.390625 -0.828125q-0.921875 -0.828125 -0.921875 -2.09375q0 -1.53125 1.15625 -2.375q1.171875 -0.859375 3.296875 -0.859375l1.640625 0l0 -0.78125q0 -0.890625 -0.53125 -1.40625q-0.515625 -0.53125 -1.546875 -0.53125q-0.90625 0 -1.515625 0.46875q-0.609375 0.453125 -0.609375 1.09375l-1.703125 0q0 -0.734375 0.515625 -1.421875q0.53125 -0.6875 1.421875 -1.078125q0.90625 -0.40625 1.984375 -0.40625q1.703125 0 2.671875 0.859375q0.96875 0.84375 1.0 2.328125l0 4.53125q0 1.359375 0.34375 2.171875l0 0.140625l-1.765625 0zm-2.796875 -1.28125q0.796875 0 1.5 -0.40625q0.71875 -0.421875 1.03125 -1.078125l0 -2.015625l-1.3125 0q-3.109375 0 -3.109375 1.8125q0 0.796875 0.53125 1.25q0.53125 0.4375 1.359375 0.4375zm6.4605103 -3.734375q0 -2.296875 1.0625 -3.65625q1.0625 -1.359375 2.828125 -1.359375q1.796875 0 2.8125 1.265625l0.078125 -1.09375l1.546875 0l0 9.625q0 1.90625 -1.140625 3.0q-1.125 1.109375 -3.046875 1.109375q-1.0625 0 -2.09375 -0.453125q-1.015625 -0.453125 -1.546875 -1.25l0.875 -1.0q1.078125 1.328125 2.65625 1.328125q1.21875 0 1.90625 -0.6875q0.6875 -0.6875 0.6875 -1.953125l0 -0.84375q-1.0 1.171875 -2.75 1.171875q-1.734375 0 -2.8125 -1.390625q-1.0625 -1.40625 -1.0625 -3.8125zm1.6875 0.203125q0 1.65625 0.6875 2.609375q0.6875 0.953125 1.921875 0.953125q1.59375 0 2.328125 -1.453125l0 -4.5q-0.765625 -1.40625 -2.3125 -1.40625q-1.234375 0 -1.9375 0.953125q-0.6875 0.953125 -0.6875 2.84375zm13.263672 5.0q-2.0 0 -3.265625 -1.3125q-1.25 -1.328125 -1.25 -3.53125l0 -0.3125q0 -1.46875 0.5625 -2.609375q0.5625 -1.15625 1.5625 -1.796875q1.015625 -0.65625 2.1875 -0.65625q1.921875 0 2.984375 1.265625q1.0625 1.265625 1.0625 3.625l0 0.6875l-6.671875 0q0.03125 1.46875 0.84375 2.375q0.828125 0.890625 2.078125 0.890625q0.890625 0 1.515625 -0.359375q0.625 -0.375 1.078125 -0.96875l1.03125 0.796875q-1.234375 1.90625 -3.71875 1.90625zm-0.203125 -8.84375q-1.015625 0 -1.71875 0.75q-0.6875 0.734375 -0.84375 2.078125l4.9375 0l0 -0.125q-0.078125 -1.28125 -0.703125 -1.984375q-0.609375 -0.71875 -1.671875 -0.71875z" fill-rule="nonzero"/><path fill="#136a7f" d="m779.6711 337.2506l4.484375 0l0 1.015625l-5.75 0l0 -9.46875l1.265625 0l0 8.453125zm10.077881 1.015625q-0.109375 -0.203125 -0.171875 -0.734375q-0.84375 0.859375 -2.015625 0.859375q-1.03125 0 -1.703125 -0.578125q-0.671875 -0.59375 -0.671875 -1.5q0 -1.09375 0.828125 -1.703125q0.84375 -0.609375 2.359375 -0.609375l1.171875 0l0 -0.5625q0 -0.625 -0.375 -1.0q-0.375 -0.375 -1.109375 -0.375q-0.640625 0 -1.078125 0.328125q-0.4375 0.328125 -0.4375 0.78125l-1.203125 0q0 -0.515625 0.359375 -1.0q0.375 -0.5 1.015625 -0.78125q0.65625 -0.296875 1.421875 -0.296875q1.21875 0 1.90625 0.609375q0.6875 0.609375 0.71875 1.671875l0 3.25q0 0.96875 0.234375 1.53125l0 0.109375l-1.25 0zm-2.0 -0.921875q0.5625 0 1.0625 -0.28125q0.515625 -0.296875 0.734375 -0.765625l0 -1.453125l-0.9375 0q-2.21875 0 -2.21875 1.296875q0 0.5625 0.375 0.890625q0.390625 0.3125 0.984375 0.3125zm6.859192 -2.34375l-0.75 0.796875l0 2.46875l-1.203125 0l0 -10.0l1.203125 0l0 6.046875l0.640625 -0.765625l2.1875 -2.328125l1.46875 0l-2.734375 2.953125l3.046875 4.09375l-1.40625 0l-2.453125 -3.265625zm7.578064 3.390625q-1.421875 0 -2.328125 -0.9375q-0.890625 -0.9375 -0.890625 -2.515625l0 -0.21875q0 -1.046875 0.390625 -1.859375q0.40625 -0.828125 1.125 -1.296875q0.71875 -0.46875 1.5625 -0.46875q1.375 0 2.125 0.90625q0.765625 0.90625 0.765625 2.59375l0 0.5l-4.765625 0q0.015625 1.03125 0.59375 1.671875q0.59375 0.640625 1.484375 0.640625q0.640625 0 1.078125 -0.25q0.453125 -0.265625 0.78125 -0.6875l0.734375 0.5625q-0.875 1.359375 -2.65625 1.359375zm-0.140625 -6.3125q-0.734375 0 -1.234375 0.53125q-0.484375 0.53125 -0.609375 1.484375l3.53125 0l0 -0.078125q-0.046875 -0.921875 -0.5 -1.421875q-0.4375 -0.515625 -1.1875 -0.515625zm5.48291 0q0.8125 -0.984375 2.09375 -0.984375q2.234375 0 2.25 2.515625l0 4.65625l-1.203125 0l0 -4.65625q-0.015625 -0.765625 -0.359375 -1.125q-0.328125 -0.375 -1.0625 -0.375q-0.578125 0 -1.03125 0.3125q-0.4375 0.3125 -0.6875 0.828125l0 5.015625l-1.203125 0l0 -10.0l1.203125 0l0 3.8125zm5.8252563 2.609375q0 -1.046875 0.40625 -1.875q0.40625 -0.828125 1.125 -1.265625q0.734375 -0.453125 1.65625 -0.453125q1.4375 0 2.328125 1.0q0.890625 0.984375 0.890625 2.640625l0 0.09375q0 1.015625 -0.390625 1.84375q-0.390625 0.8125 -1.125 1.265625q-0.734375 0.453125 -1.6875 0.453125q-1.421875 0 -2.3125 -0.984375q-0.890625 -1.0 -0.890625 -2.640625l0 -0.078125zm1.203125 0.140625q0 1.171875 0.546875 1.875q0.546875 0.703125 1.453125 0.703125q0.921875 0 1.453125 -0.71875q0.546875 -0.71875 0.546875 -2.0q0 -1.171875 -0.546875 -1.890625q-0.546875 -0.71875 -1.46875 -0.71875q-0.890625 0 -1.4375 0.71875q-0.546875 0.703125 -0.546875 2.03125zm11.069946 2.734375q-0.703125 0.828125 -2.0625 0.828125q-1.140625 0 -1.734375 -0.640625q-0.578125 -0.65625 -0.578125 -1.9375l0 -4.59375l1.203125 0l0 4.546875q0 1.609375 1.296875 1.609375q1.375 0 1.828125 -1.03125l0 -5.125l1.21875 0l0 7.046875l-1.15625 0l-0.015625 -0.703125zm7.097412 -1.171875q0 -0.484375 -0.375 -0.75q-0.359375 -0.265625 -1.28125 -0.453125q-0.90625 -0.203125 -1.453125 -0.46875q-0.53125 -0.28125 -0.796875 -0.65625q-0.25 -0.390625 -0.25 -0.90625q0 -0.859375 0.734375 -1.453125q0.734375 -0.609375 1.875 -0.609375q1.1875 0 1.9375 0.625q0.75 0.609375 0.75 1.578125l-1.21875 0q0 -0.5 -0.421875 -0.859375q-0.421875 -0.359375 -1.046875 -0.359375q-0.65625 0 -1.03125 0.296875q-0.375 0.28125 -0.375 0.75q0 0.421875 0.34375 0.65625q0.34375 0.21875 1.25 0.421875q0.90625 0.203125 1.453125 0.484375q0.5625 0.265625 0.828125 0.671875q0.28125 0.390625 0.28125 0.953125q0 0.9375 -0.765625 1.515625q-0.75 0.5625 -1.953125 0.5625q-0.84375 0 -1.5 -0.296875q-0.640625 -0.296875 -1.015625 -0.828125q-0.359375 -0.546875 -0.359375 -1.171875l1.203125 0q0.03125 0.609375 0.484375 0.96875q0.453125 0.34375 1.1875 0.34375q0.6875 0 1.09375 -0.265625q0.421875 -0.28125 0.421875 -0.75zm5.6848145 2.0q-1.421875 0 -2.328125 -0.9375q-0.890625 -0.9375 -0.890625 -2.515625l0 -0.21875q0 -1.046875 0.390625 -1.859375q0.40625 -0.828125 1.125 -1.296875q0.71875 -0.46875 1.5625 -0.46875q1.375 0 2.125 0.90625q0.765625 0.90625 0.765625 2.59375l0 0.5l-4.765625 0q0.015625 1.03125 0.59375 1.671875q0.59375 0.640625 1.484375 0.640625q0.640625 0 1.078125 -0.25q0.453125 -0.265625 0.78125 -0.6875l0.734375 0.5625q-0.875 1.359375 -2.65625 1.359375zm-0.140625 -6.3125q-0.734375 0 -1.234375 0.53125q-0.484375 0.53125 -0.609375 1.484375l3.53125 0l0 -0.078125q-0.046875 -0.921875 -0.5 -1.421875q-0.4375 -0.515625 -1.1875 -0.515625z" fill-rule="nonzero"/><path fill="#136a7f" d="m797.5614 345.8131l-3.046875 0l0 8.453125l-1.234375 0l0 -8.453125l-3.046875 0l0 -1.015625l7.328125 0l0 1.015625zm4.84198 8.453125q-0.109375 -0.203125 -0.171875 -0.734375q-0.84375 0.859375 -2.015625 0.859375q-1.03125 0 -1.703125 -0.578125q-0.671875 -0.59375 -0.671875 -1.5q0 -1.09375 0.828125 -1.703125q0.84375 -0.609375 2.359375 -0.609375l1.171875 0l0 -0.5625q0 -0.625 -0.375 -1.0q-0.375 -0.375 -1.109375 -0.375q-0.640625 0 -1.078125 0.328125q-0.4375 0.328125 -0.4375 0.78125l-1.203125 0q0 -0.515625 0.359375 -1.0q0.375 -0.5 1.015625 -0.78125q0.65625 -0.296875 1.421875 -0.296875q1.21875 0 1.90625 0.609375q0.6875 0.609375 0.71875 1.671875l0 3.25q0 0.96875 0.234375 1.53125l0 0.109375l-1.25 0zm-2.0 -0.921875q0.5625 0 1.0625 -0.28125q0.515625 -0.296875 0.734375 -0.765625l0 -1.453125l-0.9375 0q-2.21875 0 -2.21875 1.296875q0 0.5625 0.375 0.890625q0.390625 0.3125 0.984375 0.3125zm10.859131 -2.515625q0 1.609375 -0.75 2.59375q-0.734375 0.96875 -1.984375 0.96875q-1.328125 0 -2.0625 -0.9375l-0.0625 0.8125l-1.109375 0l0 -10.0l1.203125 0l0 3.734375q0.734375 -0.90625 2.015625 -0.90625q1.28125 0 2.015625 0.96875q0.734375 0.96875 0.734375 2.65625l0 0.109375zm-1.203125 -0.140625q0 -1.234375 -0.484375 -1.90625q-0.46875 -0.671875 -1.359375 -0.671875q-1.1875 0 -1.71875 1.109375l0 3.046875q0.5625 1.109375 1.734375 1.109375q0.859375 0 1.34375 -0.671875q0.484375 -0.671875 0.484375 -2.015625zm4.024414 3.578125l-1.203125 0l0 -10.0l1.203125 0l0 10.0zm4.843811 0.125q-1.421875 0 -2.328125 -0.9375q-0.890625 -0.9375 -0.890625 -2.515625l0 -0.21875q0 -1.046875 0.390625 -1.859375q0.40625 -0.828125 1.125 -1.296875q0.71875 -0.46875 1.5625 -0.46875q1.375 0 2.125 0.90625q0.765625 0.90625 0.765625 2.59375l0 0.5l-4.765625 0q0.015625 1.03125 0.59375 1.671875q0.59375 0.640625 1.484375 0.640625q0.640625 0 1.078125 -0.25q0.453125 -0.265625 0.78125 -0.6875l0.734375 0.5625q-0.875 1.359375 -2.65625 1.359375zm-0.140625 -6.3125q-0.734375 0 -1.234375 0.53125q-0.484375 0.53125 -0.609375 1.484375l3.53125 0l0 -0.078125q-0.046875 -0.921875 -0.5 -1.421875q-0.4375 -0.515625 -1.1875 -0.515625zm8.38916 4.3125q0 -0.484375 -0.375 -0.75q-0.359375 -0.265625 -1.28125 -0.453125q-0.90625 -0.203125 -1.453125 -0.46875q-0.53125 -0.28125 -0.796875 -0.65625q-0.25 -0.390625 -0.25 -0.90625q0 -0.859375 0.734375 -1.453125q0.734375 -0.609375 1.875 -0.609375q1.1875 0 1.9375 0.625q0.75 0.609375 0.75 1.578125l-1.21875 0q0 -0.5 -0.421875 -0.859375q-0.421875 -0.359375 -1.046875 -0.359375q-0.65625 0 -1.03125 0.296875q-0.375 0.28125 -0.375 0.75q0 0.421875 0.34375 0.65625q0.34375 0.21875 1.25 0.421875q0.90625 0.203125 1.453125 0.484375q0.5625 0.265625 0.828125 0.671875q0.28125 0.390625 0.28125 0.953125q0 0.9375 -0.765625 1.515625q-0.75 0.5625 -1.953125 0.5625q-0.84375 0 -1.5 -0.296875q-0.640625 -0.296875 -1.015625 -0.828125q-0.359375 -0.546875 -0.359375 -1.171875l1.203125 0q0.03125 0.609375 0.484375 0.96875q0.453125 0.34375 1.1875 0.34375q0.6875 0 1.09375 -0.265625q0.421875 -0.28125 0.421875 -0.75z" fill-rule="nonzero"/><path fill="#000000" fill-opacity="0.0" d="m685.0553 458.89954l248.83759 0l0 9.678864l-248.83759 0z" fill-rule="evenodd"/><path fill="#28495a" d="m685.0737 281.66913l-46.502686 46.502716l0 -23.251343l-79.066345 0l0 -46.502716l79.066345 0l0 -23.251358z" fill-rule="evenodd"/><path stroke="#f89e5d" stroke-width="1.0" stroke-linejoin="round" stroke-linecap="butt" d="m685.0737 281.66913l-46.502686 46.502716l0 -23.251343l-79.066345 0l0 -46.502716l79.066345 0l0 -23.251358z" fill-rule="evenodd"/><path fill="#000000" fill-opacity="0.0" d="m563.9407 265.69852l102.934265 0l0 31.941254l-102.934265 0z" fill-rule="evenodd"/><path fill="#f89e5d" d="m604.71246 282.101q0 1.65625 -0.53125 2.84375q-0.515625 1.1875 -1.46875 1.859375l2.03125 1.609375l-1.015625 0.9375l-2.40625 -1.90625q-0.5625 0.140625 -1.1875 0.140625q-1.34375 0 -2.390625 -0.65625q-1.03125 -0.671875 -1.609375 -1.890625q-0.5625 -1.21875 -0.578125 -2.828125l0 -0.828125q0 -1.640625 0.5625 -2.890625q0.578125 -1.265625 1.609375 -1.921875q1.046875 -0.671875 2.390625 -0.671875q1.375 0 2.421875 0.671875q1.046875 0.65625 1.609375 1.90625q0.5625 1.234375 0.5625 2.90625l0 0.71875zm-1.5 -0.734375q0 -2.0 -0.8125 -3.09375q-0.796875 -1.09375 -2.28125 -1.09375q-1.40625 0 -2.234375 1.09375q-0.8125 1.078125 -0.828125 3.0l0 0.828125q0 1.953125 0.8125 3.078125q0.8125 1.125 2.265625 1.125q1.453125 0 2.25 -1.046875q0.796875 -1.0625 0.828125 -3.046875l0 -0.84375zm8.796875 5.21875q-0.84375 1.0 -2.46875 1.0q-1.359375 0 -2.0625 -0.78125q-0.703125 -0.796875 -0.71875 -2.328125l0 -5.5l1.453125 0l0 5.453125q0 1.921875 1.5625 1.921875q1.65625 0 2.203125 -1.234375l0 -6.140625l1.4375 0l0 8.453125l-1.375 0l-0.03125 -0.84375zm7.1171875 1.0q-1.71875 0 -2.796875 -1.125q-1.078125 -1.140625 -1.078125 -3.03125l0 -0.265625q0 -1.25 0.46875 -2.234375q0.484375 -1.0 1.34375 -1.546875q0.875 -0.5625 1.875 -0.5625q1.65625 0 2.5625 1.09375q0.921875 1.078125 0.921875 3.09375l0 0.609375l-5.734375 0q0.03125 1.25 0.734375 2.015625q0.703125 0.765625 1.78125 0.765625q0.765625 0 1.296875 -0.3125q0.53125 -0.3125 0.921875 -0.828125l0.890625 0.6875q-1.0625 1.640625 -3.1875 1.640625zm-0.1875 -7.578125q-0.875 0 -1.46875 0.640625q-0.59375 0.625 -0.734375 1.78125l4.234375 0l0 -0.109375q-0.0625 -1.109375 -0.59375 -1.703125q-0.53125 -0.609375 -1.4375 -0.609375zm9.2421875 0.265625q-0.328125 -0.0625 -0.71875 -0.0625q-1.421875 0 -1.921875 1.21875l0 6.0l-1.453125 0l0 -8.453125l1.40625 0l0.03125 0.96875q0.703125 -1.125 2.015625 -1.125q0.421875 0 0.640625 0.109375l0 1.34375zm4.2265625 5.03125l1.96875 -6.328125l1.546875 0l-3.390625 9.765625q-0.796875 2.109375 -2.515625 2.109375l-0.265625 -0.03125l-0.546875 -0.09375l0 -1.171875l0.390625 0.03125q0.734375 0 1.140625 -0.296875q0.421875 -0.296875 0.6875 -1.09375l0.3125 -0.859375l-3.015625 -8.359375l1.578125 0l2.109375 6.328125z" fill-rule="nonzero"/><path fill="#ffffff" d="m151.85043 328.6359l0 0c-1.3800201 -1.4119263 -1.3695679 -3.6907654 0.023345947 -5.0899353l134.60938 -135.21655c0.6689148 -0.6719208 1.5736694 -1.0469666 2.5152588 -1.0426483c0.94158936 0.0043182373 1.842865 0.38764954 2.5055542 1.0656738l9.994659 10.225616c1.3800049 1.4118958 1.3695679 3.6907501 -0.023345947 5.0899353l-134.60938 135.21654c-1.3929138 1.3992004 -3.640808 1.3888855 -5.0208282 -0.023010254z" fill-rule="evenodd"/><path fill="#136a7f" d="m179.60493 312.0423q-2.0461578 1.1252136 -3.4290771 1.1855469q-1.3829193 0.060333252 -2.3550415 -0.9342346q-1.0922546 -1.1175232 -0.93125916 -2.7409363q0.17201233 -1.634491 1.5830383 -3.05188q0.95906067 -0.9634094 2.0910645 -1.3475037q1.1320038 -0.38412476 2.1952362 -0.12332153q1.0633392 0.23852539 1.8388367 1.0319519l-1.2456665 1.2513123q-0.8410492 -0.86047363 -1.8618011 -0.80960083q-1.020752 0.05090332 -2.0018616 1.036438q-0.91496277 0.9190979 -1.0288391 1.8307495q-0.113861084 0.9116821 0.59609985 1.6380615q0.5679779 0.5811157 1.4462433 0.4961853q0.8782501 -0.08493042 2.3634186 -0.91238403q1.48526 -0.8497009 2.5399017 -1.1117859q1.0546265 -0.26211548 1.8875732 -0.0357666q0.8439789 0.215271 1.5430298 0.93048096q1.1250305 1.1510315 0.93125916 2.7409363q-0.2046814 1.5787048 -1.6928711 3.073639q-0.9700928 0.9744568 -2.168335 1.4472351q-1.1981354 0.45056152 -2.2836304 0.2564087q-1.096405 -0.20532227 -1.9046783 -1.0322571l1.2346497 -1.2402344q0.8410492 0.86047363 1.960907 0.73217773q1.1089478 -0.13946533 2.1562042 -1.1914368q0.9700775 -0.9744568 1.0949707 -1.8972168q0.1359253 -0.9338379 -0.541275 -1.6266785q-0.68814087 -0.7040405 -1.5445404 -0.59677124q-0.8564148 0.107299805 -2.4735565 1.000885zm10.952957 -4.3139954q0.62835693 -0.63116455 0.7200775 -1.4984436q0.102752686 -0.87835693 -0.4320526 -1.5149536l1.1244049 -1.1294861q0.55674744 0.63668823 0.7171631 1.5607605q0.16040039 0.92407227 -0.1512909 1.9015808q-0.31158447 0.95526123 -1.0171051 1.663971q-1.4220581 1.4284363 -3.1992035 1.30896q-1.7771454 -0.11947632 -3.4155426 -1.7957153l-0.19659424 -0.20117188q-1.0048981 -1.0281067 -1.4166107 -2.1869507q-0.41163635 -1.1810913 -0.14312744 -2.3145447q0.26861572 -1.1557007 1.2166443 -2.1080017q1.1685028 -1.1737976 2.639206 -1.2337036q1.4708099 -0.08218384 2.6180878 1.0021973l-1.1244049 1.1294861q-0.7103729 -0.63739014 -1.59935 -0.6081238q-0.89990234 0.018066406 -1.5723419 0.6935425q-0.9039459 0.90802 -0.76660156 2.0767212q0.14837646 1.1576233 1.3717194 2.4092407l0.22937012 0.23468018q1.190567 1.2180786 2.33107 1.3790894q1.1405029 0.16104126 2.0664825 -0.7691345zm9.218948 -7.577362q-0.30673218 -0.1126709 -0.8862457 -0.57144165q0.02519226 1.7021484 -1.1322937 2.8648682q-1.0251923 1.0298157 -2.2655182 1.1019287q-1.2292938 0.061065674 -2.114029 -0.8441162q-1.0704193 -1.0951538 -0.8444977 -2.518036q0.22602844 -1.4451294 1.7252502 -2.9511108l1.157486 -1.1627197l-0.5461273 -0.55874634q-0.62260437 -0.6369629 -1.3578491 -0.62927246q-0.7351532 -0.014526367 -1.4627075 0.7163391q-0.6393738 0.64224243 -0.7416229 1.4093628q-0.11315918 0.7559204 0.33467102 1.2141113l-1.2015839 1.2070007q-0.5133667 -0.52523804 -0.6301727 -1.3823547q-0.10580444 -0.8681946 0.2494812 -1.7787476q0.35539246 -0.9328308 1.1160126 -1.6968689q1.2015839 -1.2070007 2.485794 -1.2789307q1.2732849 -0.083099365 2.3329926 0.9563904l3.167572 3.2407532q0.95025635 0.972229 1.7607574 1.3097229l0.09831238 0.10058594l-1.2456818 1.2512817zm-2.8688812 1.0657959q0.5621948 -0.5647583 0.77427673 -1.3536072q0.21217346 -0.8110962 -0.026107788 -1.5019226l-1.4090118 -1.4415894l-0.9259949 0.9301758q-2.1937103 2.2036133 -0.9266815 3.4999084q0.5570679 0.5699158 1.2486267 0.5175171q0.68063354 -0.06359863 1.2648926 -0.6504822zm7.029999 -5.2456665l-1.190567 1.1959229l-9.786682 -10.012848l1.1905518 -1.1959229l9.786697 10.012848zm4.912628 -4.669037q-1.411026 1.4173889 -3.2214508 1.3756409q-1.810318 -0.06399536 -3.3504028 -1.639679l-0.21846008 -0.22351074q-1.0267181 -1.0504761 -1.4272308 -2.2648926q-0.41142273 -1.2255859 -0.1537323 -2.392456q0.25778198 -1.1891174 1.0845642 -2.0196228q1.355896 -1.36203 2.9902496 -1.2098389q1.6343384 0.15219116 3.283661 1.8396301l0.48059082 0.49169922l-4.7070923 4.7283325q1.0487671 1.0282898 2.2555237 1.100647q1.2068329 0.050079346 2.0887299 -0.8357849q0.6283417 -0.63119507 0.81806946 -1.3311462q0.17880249 -0.7111206 0.08343506 -1.4569092l1.2846069 -0.16091919q0.46170044 2.2381592 -1.2910614 3.9988098zm-6.325531 -6.181122q-0.7165375 0.7197571 -0.6883087 1.7544861q0.028320312 1.0124512 0.85743713 2.0842285l3.4834747 -3.499176l-0.087387085 -0.089416504q-0.95077515 -0.86099243 -1.8832397 -0.92092896q-0.9323578 -0.08218384 -1.6819763 0.6708069zm11.044067 -17.627228l6.302368 6.447998q1.3107147 1.3410034 1.3249817 3.0319824q0.0033569336 1.6798096 -1.3203888 3.2088623l-0.29785156 0.34347534q-1.5433044 1.5502625 -3.2774658 1.6312256q-1.7340546 0.05871582 -3.1868744 -1.405304l-6.3132935 -6.459198l1.2126007 -1.2180786l6.280533 6.425659q1.0048828 1.0281067 2.1241455 1.0332947q1.1192474 0.0051879883 2.1554718 -1.0357056q1.0472565 -1.0519714 1.0523071 -2.1643982q0.005142212 -1.1346741 -0.9997406 -2.1627808l-6.291443 -6.4368286l1.2346497 -1.2402039zm13.5401 -1.6196594q1.5728607 1.6091919 1.8065033 3.3234558q0.24464417 1.7031555 -1.0010223 2.9544678q-1.2677155 1.2734375 -2.792633 1.1884766l3.3204803 3.3972168l-1.1795197 1.1848755l-9.546402 -9.767029l1.0803223 -1.0851746l0.81970215 0.7268982q-0.15718079 -1.6360474 1.1325989 -2.93161q1.2566833 -1.2623901 2.9235992 -1.0321655q1.6559906 0.21905518 3.3271484 1.928833l0.10922241 0.11175537zm-1.321518 1.0395508q-1.1578064 -1.1845398 -2.342102 -1.3680115q-1.1732635 -0.19454956 -2.0551605 0.6913147q-1.080307 1.0851746 -0.67019653 2.600006l3.2877197 3.3637085q1.4904175 0.42962646 2.5927887 -0.67770386q0.8488159 -0.85266113 0.689621 -2.0437012q-0.17010498 -1.20224 -1.5026703 -2.5656128zm5.6381683 -5.663574q-1.0158081 -1.0393066 -1.4272308 -2.2648926q-0.40040588 -1.2366638 -0.120773315 -2.4034424q0.27963257 -1.1667633 1.1945953 -2.0858612q1.4220581 -1.4284668 3.2650452 -1.3086853q1.8540039 0.10871887 3.4705505 1.762619l0.087387085 0.089401245q1.0048828 1.028122 1.4164124 2.2314606q0.41151428 1.2033386 0.13179016 2.3923645q-0.26870728 1.177948 -1.2167511 2.130249q-1.411026 1.4173889 -3.26503 1.3086853q-1.8539124 -0.13095093 -3.4595337 -1.7736816l-0.07646179 -0.07821655zm1.33255 -1.0506592q1.1468811 1.1733704 2.386078 1.3459778q1.2282867 0.16143799 2.1212006 -0.73550415q0.914978 -0.9190979 0.74505615 -2.165802q-0.18083191 -1.257904 -1.4478607 -2.5542297q-1.1359558 -1.1622009 -2.3751678 -1.3348083q-1.2501373 -0.18377686 -2.154068 0.72424316q-0.881897 0.88586426 -0.7230072 2.1436768q0.14796448 1.2466125 1.4477692 2.5764465zm7.529419 -12.5686035q-0.31929016 0.23213196 -0.63897705 0.55326843q-1.1685028 1.1737671 -0.60435486 2.6003113l4.893341 5.006439l-1.1795349 1.1848602l-6.8921814 -7.051483l1.1574707 -1.1627045l0.8083801 0.804718q-0.33325195 -1.5256042 0.7470703 -2.610794q0.34173584 -0.34327698 0.6165161 -0.4421234l1.0922699 1.1175079zm10.370132 1.4095764l-9.273331 -9.487625l2.6346588 -2.6465302q1.2236176 -1.2291565 2.6958466 -1.622818q1.4722137 -0.39364624 2.9732666 0.11390686q1.5011444 0.4853058 2.7790985 1.7927856l0.5898285 0.6034546q1.3107147 1.3410034 1.7975769 2.8673096q0.47595215 1.5151367 0.06312561 3.01503q-0.42373657 1.4887085 -1.680542 2.7733154l-2.5795288 2.5911713zm-7.044815 -9.68866l7.26355 7.4314117l1.3007965 -1.3066559q1.433075 -1.4395447 1.3529663 -3.1308289q-0.08010864 -1.6912842 -1.7075806 -3.356369l-0.5461426 -0.5587616q-1.5728607 -1.6092072 -3.1962738 -1.7502136q-1.6343384 -0.15219116 -3.0232239 1.2207947l-1.4440918 1.4506226zm11.662857 -2.0593872q-1.0158081 -1.0392761 -1.4272308 -2.2648773q-0.40040588 -1.2366638 -0.120773315 -2.4034424q0.27963257 -1.1667633 1.1945953 -2.0858612q1.4220581 -1.4284668 3.2650452 -1.3086853q1.8540039 0.10871887 3.4705505 1.762619l0.087371826 0.089401245q1.0048828 1.0281067 1.4164124 2.2314606q0.41152954 1.2033539 0.13180542 2.3923645q-0.26870728 1.177948 -1.2167664 2.1302643q-1.4110107 1.4173889 -3.2650146 1.3086853q-1.8539124 -0.13096619 -3.459549 -1.7736969l-0.07644653 -0.07823181zm1.3325348 -1.0506439q1.1468811 1.1733856 2.3861084 1.345993q1.2282715 0.16142273 2.1211853 -0.7355194q0.914978 -0.91908264 0.74505615 -2.1658173q-0.18084717 -1.2578888 -1.447876 -2.5541992q-1.1359558 -1.1622162 -2.3751526 -1.3348236q-1.2501221 -0.18377686 -2.154068 0.72424316q-0.881897 0.88586426 -0.7230072 2.1436615q0.14796448 1.2466278 1.4477539 2.5764618zm14.523621 -11.067764l-3.9308472 -6.7262573l1.1905518 -1.1959229l4.874878 9.077881l-0.9700928 0.9744568l-6.907654 -3.6474457l3.5785217 6.9916077l-0.9700928 0.9744568l-8.909515 -5.0250244l1.1795349 -1.1848602l6.5334473 3.8904572l-3.546051 -6.891342l0.9590759 -0.9633789l6.9182434 3.7253723zm-0.4005432 -10.272491l0.8959656 0.8496094q-0.18933105 -1.8030396 1.1004333 -3.0986328q2.2047424 -2.214676 4.684387 0.27757263l4.5547485 4.6600037l-1.1905518 1.1959229l-4.5547485 -4.6600037q-0.7647095 -0.76000977 -1.4559631 -0.77433777q-0.6911621 -0.036575317 -1.4076843 0.683197q-0.5732422 0.5758209 -0.7083435 1.3316498q-0.12408447 0.74476624 0.124816895 1.513504l4.9042664 5.0176086l-1.1795349 1.184845l-6.8921814 -7.051468l1.1243896 -1.1294708z" fill-rule="nonzero"/><path fill="#ffffff" d="m376.2255 160.96283l0 0c0 -16.870392 13.676147 -30.54654 30.54654 -30.54654l122.182495 0l0 0c8.10144 0 15.871094 3.2182922 21.59967 8.946884c5.7285767 5.7285767 8.946899 13.498215 8.946899 21.599655l0 277.11163c0 16.870392 -13.676147 30.54654 -30.54657 30.54654l-122.182495 0c-16.870392 0 -30.54654 -13.676147 -30.54654 -30.54654z" fill-rule="evenodd"/><path stroke="#000000" stroke-width="1.0" stroke-linejoin="round" stroke-linecap="butt" d="m376.2255 160.96283l0 0c0 -16.870392 13.676147 -30.54654 30.54654 -30.54654l122.182495 0l0 0c8.10144 0 15.871094 3.2182922 21.59967 8.946884c5.7285767 5.7285767 8.946899 13.498215 8.946899 21.599655l0 277.11163c0 16.870392 -13.676147 30.54654 -30.54657 30.54654l-122.182495 0c-16.870392 0 -30.54654 -13.676147 -30.54654 -30.54654z" fill-rule="evenodd"/><path fill="#136a7f" d="m429.793 241.51053l3.78125 -10.9375l1.921875 0l-4.921875 13.265625l-1.546875 0l-4.921875 -13.265625l1.90625 0l3.78125 10.9375zm10.890503 2.515625q-2.0 0 -3.265625 -1.3125q-1.25 -1.328125 -1.25 -3.53125l0 -0.3125q0 -1.46875 0.5625 -2.609375q0.5625 -1.15625 1.5625 -1.796875q1.015625 -0.65625 2.1875 -0.65625q1.921875 0 2.984375 1.265625q1.0625 1.265625 1.0625 3.625l0 0.6875l-6.671875 0q0.03125 1.46875 0.84375 2.375q0.828125 0.890625 2.078125 0.890625q0.890625 0 1.515625 -0.359375q0.625 -0.375 1.078125 -0.96875l1.03125 0.796875q-1.234375 1.90625 -3.71875 1.90625zm-0.203125 -8.84375q-1.015625 0 -1.71875 0.75q-0.6875 0.734375 -0.84375 2.078125l4.9375 0l0 -0.125q-0.078125 -1.28125 -0.703125 -1.984375q-0.609375 -0.71875 -1.671875 -0.71875zm9.961945 7.46875q0.890625 0 1.5625 -0.546875q0.6875 -0.546875 0.75 -1.375l1.59375 0q-0.046875 0.84375 -0.578125 1.609375q-0.53125 0.765625 -1.4375 1.234375q-0.890625 0.453125 -1.890625 0.453125q-2.015625 0 -3.203125 -1.34375q-1.1875 -1.34375 -1.1875 -3.6875l0 -0.28125q0 -1.4375 0.515625 -2.546875q0.53125 -1.125 1.515625 -1.734375q1.0 -0.625 2.34375 -0.625q1.65625 0 2.75 1.0q1.109375 0.984375 1.171875 2.5625l-1.59375 0q-0.0625 -0.953125 -0.71875 -1.5625q-0.65625 -0.625 -1.609375 -0.625q-1.28125 0 -2.0 0.921875q-0.703125 0.921875 -0.703125 2.671875l0 0.328125q0 1.703125 0.703125 2.625q0.703125 0.921875 2.015625 0.921875zm8.093506 -11.0625l0 2.390625l1.84375 0l0 1.3125l-1.84375 0l0 6.109375q0 0.59375 0.234375 0.890625q0.25 0.296875 0.84375 0.296875q0.296875 0 0.8125 -0.109375l0 1.359375q-0.671875 0.1875 -1.296875 0.1875q-1.125 0 -1.703125 -0.6875q-0.578125 -0.6875 -0.578125 -1.9375l0 -6.109375l-1.796875 0l0 -1.3125l1.796875 0l0 -2.390625l1.6875 0zm3.1775818 7.234375q0 -1.453125 0.5625 -2.609375q0.578125 -1.15625 1.59375 -1.78125q1.015625 -0.625 2.3125 -0.625q2.015625 0 3.25 1.390625q1.25 1.390625 1.25 3.703125l0 0.125q0 1.4375 -0.546875 2.578125q-0.546875 1.140625 -1.578125 1.78125q-1.015625 0.640625 -2.359375 0.640625q-2.0 0 -3.25 -1.390625q-1.234375 -1.40625 -1.234375 -3.703125l0 -0.109375zm1.6875 0.203125q0 1.640625 0.765625 2.640625q0.765625 0.984375 2.03125 0.984375q1.296875 0 2.046875 -1.0q0.75 -1.015625 0.75 -2.828125q0 -1.625 -0.765625 -2.625q-0.765625 -1.015625 -2.046875 -1.015625q-1.25 0 -2.015625 1.0q-0.765625 0.984375 -0.765625 2.84375zm14.171143 -3.53125q-0.390625 -0.0625 -0.84375 -0.0625q-1.65625 0 -2.25 1.40625l0 7.0l-1.671875 0l0 -9.859375l1.640625 0l0.015625 1.140625q0.828125 -1.3125 2.359375 -1.3125q0.484375 0 0.75 0.125l0 1.5625zm3.3753662 8.34375l-1.6875 0l0 -9.859375l1.6875 0l0 9.859375zm-1.828125 -12.46875q0 -0.40625 0.25 -0.6875q0.25 -0.296875 0.734375 -0.296875q0.5 0 0.75 0.296875q0.265625 0.28125 0.265625 0.6875q0 0.40625 -0.265625 0.6875q-0.25 0.265625 -0.75 0.265625q-0.484375 0 -0.734375 -0.265625q-0.25 -0.28125 -0.25 -0.6875zm6.1055603 11.09375l5.765625 0l0 1.375l-7.828125 0l0 -1.234375l5.4375 -7.234375l-5.34375 0l0 -1.390625l7.46875 0l0 1.203125l-5.5 7.28125zm11.600311 1.5625q-2.0 0 -3.265625 -1.3125q-1.25 -1.328125 -1.25 -3.53125l0 -0.3125q0 -1.46875 0.5625 -2.609375q0.5625 -1.15625 1.5625 -1.796875q1.015625 -0.65625 2.1875 -0.65625q1.921875 0 2.984375 1.265625q1.0625 1.265625 1.0625 3.625l0 0.6875l-6.671875 0q0.03125 1.46875 0.84375 2.375q0.828125 0.890625 2.078125 0.890625q0.890625 0 1.515625 -0.359375q0.625 -0.375 1.078125 -0.96875l1.03125 0.796875q-1.234375 1.90625 -3.71875 1.90625zm-0.203125 -8.84375q-1.015625 0 -1.71875 0.75q-0.6875 0.734375 -0.84375 2.078125l4.9375 0l0 -0.125q-0.078125 -1.28125 -0.703125 -1.984375q-0.609375 -0.71875 -1.671875 -0.71875zm5.586914 3.640625q0 -2.265625 1.078125 -3.640625q1.078125 -1.375 2.8125 -1.375q1.734375 0 2.75 1.171875l0 -5.140625l1.6875 0l0 14.0l-1.546875 0l-0.09375 -1.0625q-1.0 1.25 -2.8125 1.25q-1.703125 0 -2.796875 -1.40625q-1.078125 -1.40625 -1.078125 -3.65625l0 -0.140625zm1.6875 0.203125q0 1.671875 0.6875 2.625q0.703125 0.9375 1.921875 0.9375q1.609375 0 2.34375 -1.4375l0 -4.53125q-0.765625 -1.390625 -2.328125 -1.390625q-1.234375 0 -1.9375 0.953125q-0.6875 0.953125 -0.6875 2.84375z" fill-rule="nonzero"/><path fill="#136a7f" d="m455.38583 260.03552q0 1.921875 -0.609375 3.3125q-0.609375 1.390625 -1.71875 2.171875l2.375 1.859375l-1.203125 1.09375l-2.796875 -2.21875q-0.65625 0.171875 -1.375 0.171875q-1.578125 0 -2.796875 -0.765625q-1.203125 -0.78125 -1.875 -2.203125q-0.65625 -1.421875 -0.671875 -3.296875l0 -0.96875q0 -1.90625 0.65625 -3.375q0.671875 -1.46875 1.875 -2.25q1.21875 -0.78125 2.796875 -0.78125q1.59375 0 2.8125 0.78125q1.21875 0.78125 1.875 2.234375q0.65625 1.453125 0.65625 3.390625l0 0.84375zm-1.75 -0.859375q0 -2.34375 -0.9375 -3.609375q-0.9375 -1.265625 -2.65625 -1.265625q-1.65625 0 -2.609375 1.265625q-0.953125 1.25 -0.984375 3.5l0 0.96875q0 2.28125 0.953125 3.59375q0.953125 1.3125 2.640625 1.3125q1.703125 0 2.625 -1.234375q0.9375 -1.234375 0.96875 -3.546875l0 -0.984375zm10.263672 6.09375q-0.984375 1.15625 -2.890625 1.15625q-1.578125 0 -2.40625 -0.921875q-0.8125 -0.921875 -0.828125 -2.703125l0 -6.421875l1.6875 0l0 6.375q0 2.234375 1.828125 2.234375q1.921875 0 2.5625 -1.4375l0 -7.171875l1.6875 0l0 9.859375l-1.609375 0l-0.03125 -0.96875zm8.284607 1.15625q-2.0 0 -3.265625 -1.3125q-1.25 -1.328125 -1.25 -3.53125l0 -0.3125q0 -1.46875 0.5625 -2.609375q0.5625 -1.15625 1.5625 -1.796875q1.015625 -0.65625 2.1875 -0.65625q1.921875 0 2.984375 1.265625q1.0625 1.265625 1.0625 3.625l0 0.6875l-6.671875 0q0.03125 1.46875 0.84375 2.375q0.828125 0.890625 2.078125 0.890625q0.890625 0 1.515625 -0.359375q0.625 -0.375 1.078125 -0.96875l1.03125 0.796875q-1.234375 1.90625 -3.71875 1.90625zm-0.203125 -8.84375q-1.015625 0 -1.71875 0.75q-0.6875 0.734375 -0.84375 2.078125l4.9375 0l0 -0.125q-0.078125 -1.28125 -0.703125 -1.984375q-0.609375 -0.71875 -1.671875 -0.71875zm10.774445 0.3125q-0.390625 -0.0625 -0.84375 -0.0625q-1.65625 0 -2.25 1.40625l0 7.0l-1.671875 0l0 -9.859375l1.640625 0l0.015625 1.140625q0.828125 -1.3125 2.359375 -1.3125q0.484375 0 0.75 0.125l0 1.5625zm4.9300537 5.875l2.296875 -7.390625l1.796875 0l-3.953125 11.375q-0.921875 2.46875 -2.921875 2.46875l-0.328125 -0.03125l-0.625 -0.125l0 -1.359375l0.453125 0.03125q0.859375 0 1.328125 -0.34375q0.484375 -0.34375 0.796875 -1.265625l0.375 -1.0l-3.515625 -9.75l1.84375 0l2.453125 7.390625z" fill-rule="nonzero"/><path fill="#136a7f" d="m448.86005 282.51364l-5.75 0l0 4.6875l6.6875 0l0 1.4375l-8.421875 0l0 -13.265625l8.328125 0l0 1.4375l-6.59375 0l0 4.265625l5.75 0l0 1.4375zm4.4472046 -3.734375l0.046875 1.234375q1.125 -1.40625 2.953125 -1.40625q3.125 0 3.15625 3.515625l0 6.515625l-1.6875 0l0 -6.515625q-0.015625 -1.078125 -0.5 -1.578125q-0.46875 -0.515625 -1.484375 -0.515625q-0.8125 0 -1.4375 0.4375q-0.609375 0.4375 -0.96875 1.15625l0 7.015625l-1.671875 0l0 -9.859375l1.59375 0zm8.293732 4.84375q0 -2.296875 1.0625 -3.65625q1.0625 -1.359375 2.828125 -1.359375q1.796875 0 2.8125 1.265625l0.078125 -1.09375l1.546875 0l0 9.625q0 1.90625 -1.140625 3.0q-1.125 1.109375 -3.046875 1.109375q-1.0625 0 -2.09375 -0.453125q-1.015625 -0.453125 -1.546875 -1.25l0.875 -1.0q1.078125 1.328125 2.65625 1.328125q1.21875 0 1.90625 -0.6875q0.6875 -0.6875 0.6875 -1.953125l0 -0.84375q-1.0 1.171875 -2.75 1.171875q-1.734375 0 -2.8125 -1.390625q-1.0625 -1.40625 -1.0625 -3.8125zm1.6875 0.203125q0 1.65625 0.6875 2.609375q0.6875 0.953125 1.921875 0.953125q1.59375 0 2.328125 -1.453125l0 -4.5q-0.765625 -1.40625 -2.3125 -1.40625q-1.234375 0 -1.9375 0.953125q-0.6875 0.953125 -0.6875 2.84375zm11.013702 4.8125l-1.6875 0l0 -9.859375l1.6875 0l0 9.859375zm-1.828125 -12.46875q0 -0.40625 0.25 -0.6875q0.25 -0.296875 0.734375 -0.296875q0.5 0 0.75 0.296875q0.265625 0.28125 0.265625 0.6875q0 0.40625 -0.265625 0.6875q-0.25 0.265625 -0.75 0.265625q-0.484375 0 -0.734375 -0.265625q-0.25 -0.28125 -0.25 -0.6875zm6.121155 2.609375l0.046875 1.234375q1.125 -1.40625 2.953125 -1.40625q3.125 0 3.15625 3.515625l0 6.515625l-1.6875 0l0 -6.515625q-0.015625 -1.078125 -0.5 -1.578125q-0.46875 -0.515625 -1.484375 -0.515625q-0.8125 0 -1.4375 0.4375q-0.609375 0.4375 -0.96875 1.15625l0 7.015625l-1.671875 0l0 -9.859375l1.59375 0zm12.778107 10.046875q-2.0 0 -3.265625 -1.3125q-1.25 -1.328125 -1.25 -3.53125l0 -0.3125q0 -1.46875 0.5625 -2.609375q0.5625 -1.15625 1.5625 -1.796875q1.015625 -0.65625 2.1875 -0.65625q1.921875 0 2.984375 1.265625q1.0625 1.265625 1.0625 3.625l0 0.6875l-6.671875 0q0.03125 1.46875 0.84375 2.375q0.828125 0.890625 2.078125 0.890625q0.890625 0 1.515625 -0.359375q0.625 -0.375 1.078125 -0.96875l1.03125 0.796875q-1.234375 1.90625 -3.71875 1.90625zm-0.203125 -8.84375q-1.015625 0 -1.71875 0.75q-0.6875 0.734375 -0.84375 2.078125l4.9375 0l0 -0.125q-0.078125 -1.28125 -0.703125 -1.984375q-0.609375 -0.71875 -1.671875 -0.71875z" fill-rule="nonzero"/><path fill="#136a7f" d="m435.34387 337.91864l0 -9.46875l2.6875 0q1.234375 0 2.171875 0.546875q0.953125 0.546875 1.46875 1.5625q0.53125 1.0 0.53125 2.296875l0 0.609375q0 1.34375 -0.515625 2.359375q-0.515625 1.0 -1.484375 1.546875q-0.953125 0.53125 -2.234375 0.546875l-2.625 0zm1.25 -8.453125l0 7.4375l1.3125 0q1.453125 0 2.25 -0.890625q0.8125 -0.90625 0.8125 -2.578125l0 -0.546875q0 -1.609375 -0.765625 -2.5q-0.75 -0.90625 -2.140625 -0.921875l-1.46875 0zm11.661957 8.453125q-0.109375 -0.203125 -0.171875 -0.734375q-0.84375 0.859375 -2.015625 0.859375q-1.03125 0 -1.703125 -0.578125q-0.671875 -0.59375 -0.671875 -1.5q0 -1.09375 0.828125 -1.703125q0.84375 -0.609375 2.359375 -0.609375l1.171875 0l0 -0.5625q0 -0.625 -0.375 -1.0q-0.375 -0.375 -1.109375 -0.375q-0.640625 0 -1.078125 0.328125q-0.4375 0.328125 -0.4375 0.78125l-1.203125 0q0 -0.515625 0.359375 -1.0q0.375 -0.5 1.015625 -0.78125q0.65625 -0.296875 1.421875 -0.296875q1.21875 0 1.90625 0.609375q0.6875 0.609375 0.71875 1.671875l0 3.25q0 0.96875 0.234375 1.53125l0 0.109375l-1.25 0zm-2.0 -0.921875q0.5625 0 1.0625 -0.28125q0.515625 -0.296875 0.734375 -0.765625l0 -1.453125l-0.9375 0q-2.21875 0 -2.21875 1.296875q0 0.5625 0.375 0.890625q0.390625 0.3125 0.984375 0.3125zm6.5310364 -7.828125l0 1.703125l1.3125 0l0 0.9375l-1.3125 0l0 4.359375q0 0.421875 0.171875 0.640625q0.171875 0.21875 0.59375 0.21875q0.21875 0 0.578125 -0.078125l0 0.96875q-0.46875 0.125 -0.921875 0.125q-0.8125 0 -1.21875 -0.484375q-0.40625 -0.484375 -0.40625 -1.390625l0 -4.359375l-1.28125 0l0 -0.9375l1.28125 0l0 -1.703125l1.203125 0zm7.07251 8.75q-0.109375 -0.203125 -0.171875 -0.734375q-0.84375 0.859375 -2.015625 0.859375q-1.03125 0 -1.703125 -0.578125q-0.671875 -0.59375 -0.671875 -1.5q0 -1.09375 0.828125 -1.703125q0.84375 -0.609375 2.359375 -0.609375l1.171875 0l0 -0.5625q0 -0.625 -0.375 -1.0q-0.375 -0.375 -1.109375 -0.375q-0.640625 0 -1.078125 0.328125q-0.4375 0.328125 -0.4375 0.78125l-1.203125 0q0 -0.515625 0.359375 -1.0q0.375 -0.5 1.015625 -0.78125q0.65625 -0.296875 1.421875 -0.296875q1.21875 0 1.90625 0.609375q0.6875 0.609375 0.71875 1.671875l0 3.25q0 0.96875 0.234375 1.53125l0 0.109375l-1.25 0zm-2.0 -0.921875q0.5625 0 1.0625 -0.28125q0.515625 -0.296875 0.734375 -0.765625l0 -1.453125l-0.9375 0q-2.21875 0 -2.21875 1.296875q0 0.5625 0.375 0.890625q0.390625 0.3125 0.984375 0.3125zm10.312286 -3.265625l-3.984375 0l0 4.1875l-1.25 0l0 -9.46875l5.875 0l0 1.015625l-4.625 0l0 3.25l3.984375 0l0 1.015625zm6.1611633 3.484375q-0.703125 0.828125 -2.0625 0.828125q-1.140625 0 -1.734375 -0.640625q-0.578125 -0.65625 -0.578125 -1.9375l0 -4.59375l1.203125 0l0 4.546875q0 1.609375 1.296875 1.609375q1.375 0 1.828125 -1.03125l0 -5.125l1.21875 0l0 7.046875l-1.15625 0l-0.015625 -0.703125zm7.097412 -1.171875q0 -0.484375 -0.375 -0.75q-0.359375 -0.265625 -1.28125 -0.453125q-0.90625 -0.203125 -1.453125 -0.46875q-0.53125 -0.28125 -0.796875 -0.65625q-0.25 -0.390625 -0.25 -0.90625q0 -0.859375 0.734375 -1.453125q0.734375 -0.609375 1.875 -0.609375q1.1875 0 1.9375 0.625q0.75 0.609375 0.75 1.578125l-1.21875 0q0 -0.5 -0.421875 -0.859375q-0.421875 -0.359375 -1.046875 -0.359375q-0.65625 0 -1.03125 0.296875q-0.375 0.28125 -0.375 0.75q0 0.421875 0.34375 0.65625q0.34375 0.21875 1.25 0.421875q0.90625 0.203125 1.453125 0.484375q0.5625 0.265625 0.828125 0.671875q0.28125 0.390625 0.28125 0.953125q0 0.9375 -0.765625 1.515625q-0.75 0.5625 -1.953125 0.5625q-0.84375 0 -1.5 -0.296875q-0.640625 -0.296875 -1.015625 -0.828125q-0.359375 -0.546875 -0.359375 -1.171875l1.203125 0q0.03125 0.609375 0.484375 0.96875q0.453125 0.34375 1.1875 0.34375q0.6875 0 1.09375 -0.265625q0.421875 -0.28125 0.421875 -0.75zm4.0754395 1.875l-1.203125 0l0 -7.046875l1.203125 0l0 7.046875zm-1.296875 -8.90625q0 -0.296875 0.171875 -0.5q0.1875 -0.203125 0.53125 -0.203125q0.359375 0 0.53125 0.203125q0.1875 0.203125 0.1875 0.5q0 0.296875 -0.1875 0.5q-0.171875 0.1875 -0.53125 0.1875q-0.34375 0 -0.53125 -0.1875q-0.171875 -0.203125 -0.171875 -0.5zm2.9062805 5.328125q0 -1.046875 0.40625 -1.875q0.40625 -0.828125 1.125 -1.265625q0.734375 -0.453125 1.65625 -0.453125q1.4375 0 2.328125 1.0q0.890625 0.984375 0.890625 2.640625l0 0.09375q0 1.015625 -0.390625 1.84375q-0.390625 0.8125 -1.125 1.265625q-0.734375 0.453125 -1.6875 0.453125q-1.421875 0 -2.3125 -0.984375q-0.890625 -1.0 -0.890625 -2.640625l0 -0.078125zm1.203125 0.140625q0 1.171875 0.546875 1.875q0.546875 0.703125 1.453125 0.703125q0.921875 0 1.453125 -0.71875q0.546875 -0.71875 0.546875 -2.0q0 -1.171875 -0.546875 -1.890625q-0.546875 -0.71875 -1.46875 -0.71875q-0.890625 0 -1.4375 0.71875q-0.546875 0.703125 -0.546875 2.03125zm7.8511963 -3.609375l0.046875 0.890625q0.796875 -1.015625 2.109375 -1.015625q2.234375 0 2.25 2.515625l0 4.65625l-1.203125 0l0 -4.65625q-0.015625 -0.765625 -0.359375 -1.125q-0.328125 -0.375 -1.0625 -0.375q-0.578125 0 -1.03125 0.3125q-0.4375 0.3125 -0.6875 0.828125l0 5.015625l-1.203125 0l0 -7.046875l1.140625 0z" fill-rule="nonzero"/><path fill="#136a7f" d="m437.1298 352.278l1.75 -5.40625l1.21875 0l-2.515625 7.046875l-0.921875 0l-2.546875 -7.046875l1.21875 0l1.796875 5.40625zm5.4401855 1.640625l-1.203125 0l0 -7.046875l1.203125 0l0 7.046875zm-1.296875 -8.90625q0 -0.296875 0.171875 -0.5q0.1875 -0.203125 0.53125 -0.203125q0.359375 0 0.53125 0.203125q0.1875 0.203125 0.1875 0.5q0 0.296875 -0.1875 0.5q-0.171875 0.1875 -0.53125 0.1875q-0.34375 0 -0.53125 -0.1875q-0.171875 -0.203125 -0.171875 -0.5zm7.5781555 8.90625q-0.109375 -0.203125 -0.171875 -0.734375q-0.84375 0.859375 -2.015625 0.859375q-1.03125 0 -1.703125 -0.578125q-0.671875 -0.59375 -0.671875 -1.5q0 -1.09375 0.828125 -1.703125q0.84375 -0.609375 2.359375 -0.609375l1.171875 0l0 -0.5625q0 -0.625 -0.375 -1.0q-0.375 -0.375 -1.109375 -0.375q-0.640625 0 -1.078125 0.328125q-0.4375 0.328125 -0.4375 0.78125l-1.203125 0q0 -0.515625 0.359375 -1.0q0.375 -0.5 1.015625 -0.78125q0.65625 -0.296875 1.421875 -0.296875q1.21875 0 1.90625 0.609375q0.6875 0.609375 0.71875 1.671875l0 3.25q0 0.96875 0.234375 1.53125l0 0.109375l-1.25 0zm-2.0 -0.921875q0.5625 0 1.0625 -0.28125q0.515625 -0.296875 0.734375 -0.765625l0 -1.453125l-0.9375 0q-2.21875 0 -2.21875 1.296875q0 0.5625 0.375 0.890625q0.390625 0.3125 0.984375 0.3125zm11.174286 -3.296875q-1.609375 -0.46875 -2.34375 -1.140625q-0.734375 -0.671875 -0.734375 -1.65625q0 -1.125 0.890625 -1.859375q0.90625 -0.734375 2.34375 -0.734375q0.96875 0 1.734375 0.390625q0.765625 0.375 1.1875 1.046875q0.421875 0.65625 0.421875 1.4375l-1.265625 0q0 -0.859375 -0.546875 -1.34375q-0.546875 -0.5 -1.53125 -0.5q-0.921875 0 -1.453125 0.40625q-0.515625 0.40625 -0.515625 1.125q0 0.578125 0.484375 0.984375q0.5 0.40625 1.671875 0.734375q1.1875 0.328125 1.859375 0.734375q0.671875 0.390625 0.984375 0.9375q0.328125 0.53125 0.328125 1.25q0 1.15625 -0.90625 1.84375q-0.890625 0.6875 -2.390625 0.6875q-0.984375 0 -1.828125 -0.375q-0.84375 -0.375 -1.3125 -1.015625q-0.453125 -0.65625 -0.453125 -1.484375l1.265625 0q0 0.859375 0.625 1.359375q0.640625 0.5 1.703125 0.5q0.984375 0 1.515625 -0.40625q0.53125 -0.40625 0.53125 -1.09375q0 -0.703125 -0.5 -1.078125q-0.484375 -0.390625 -1.765625 -0.75zm7.844574 4.34375q-1.421875 0 -2.328125 -0.9375q-0.890625 -0.9375 -0.890625 -2.515625l0 -0.21875q0 -1.046875 0.390625 -1.859375q0.40625 -0.828125 1.125 -1.296875q0.71875 -0.46875 1.5625 -0.46875q1.375 0 2.125 0.90625q0.765625 0.90625 0.765625 2.59375l0 0.5l-4.765625 0q0.015625 1.03125 0.59375 1.671875q0.59375 0.640625 1.484375 0.640625q0.640625 0 1.078125 -0.25q0.453125 -0.265625 0.78125 -0.6875l0.734375 0.5625q-0.875 1.359375 -2.65625 1.359375zm-0.140625 -6.3125q-0.734375 0 -1.234375 0.53125q-0.484375 0.53125 -0.609375 1.484375l3.53125 0l0 -0.078125q-0.046875 -0.921875 -0.5 -1.421875q-0.4375 -0.515625 -1.1875 -0.515625zm8.63916 6.1875q-0.109375 -0.203125 -0.171875 -0.734375q-0.84375 0.859375 -2.015625 0.859375q-1.03125 0 -1.703125 -0.578125q-0.671875 -0.59375 -0.671875 -1.5q0 -1.09375 0.828125 -1.703125q0.84375 -0.609375 2.359375 -0.609375l1.171875 0l0 -0.5625q0 -0.625 -0.375 -1.0q-0.375 -0.375 -1.109375 -0.375q-0.640625 0 -1.078125 0.328125q-0.4375 0.328125 -0.4375 0.78125l-1.203125 0q0 -0.515625 0.359375 -1.0q0.375 -0.5 1.015625 -0.78125q0.65625 -0.296875 1.421875 -0.296875q1.21875 0 1.90625 0.609375q0.6875 0.609375 0.71875 1.671875l0 3.25q0 0.96875 0.234375 1.53125l0 0.109375l-1.25 0zm-2.0 -0.921875q0.5625 0 1.0625 -0.28125q0.515625 -0.296875 0.734375 -0.765625l0 -1.453125l-0.9375 0q-2.21875 0 -2.21875 1.296875q0 0.5625 0.375 0.890625q0.390625 0.3125 0.984375 0.3125zm5.4841614 0.921875l0 -6.109375l-1.109375 0l0 -0.9375l1.109375 0l0 -0.71875q0 -1.125 0.609375 -1.734375q0.609375 -0.625 1.703125 -0.625q0.421875 0 0.828125 0.109375l-0.0625 0.96875q-0.296875 -0.0625 -0.640625 -0.0625q-0.59375 0 -0.921875 0.34375q-0.3125 0.34375 -0.3125 0.984375l0 0.734375l1.5 0l0 0.9375l-1.5 0l0 6.109375l-1.203125 0zm3.7208557 -3.578125q0 -1.046875 0.40625 -1.875q0.40625 -0.828125 1.125 -1.265625q0.734375 -0.453125 1.65625 -0.453125q1.4375 0 2.328125 1.0q0.890625 0.984375 0.890625 2.640625l0 0.09375q0 1.015625 -0.390625 1.84375q-0.390625 0.8125 -1.125 1.265625q-0.734375 0.453125 -1.6875 0.453125q-1.421875 0 -2.3125 -0.984375q-0.890625 -1.0 -0.890625 -2.640625l0 -0.078125zm1.203125 0.140625q0 1.171875 0.546875 1.875q0.546875 0.703125 1.453125 0.703125q0.921875 0 1.453125 -0.71875q0.546875 -0.71875 0.546875 -2.0q0 -1.171875 -0.546875 -1.890625q-0.546875 -0.71875 -1.46875 -0.71875q-0.890625 0 -1.4375 0.71875q-0.546875 0.703125 -0.546875 2.03125zm12.944946 1.78125l1.359375 -5.390625l1.203125 0l-2.046875 7.046875l-0.984375 0l-1.703125 -5.34375l-1.671875 5.34375l-0.96875 0l-2.046875 -7.046875l1.203125 0l1.375 5.28125l1.640625 -5.28125l0.96875 0l1.671875 5.390625zm5.09375 1.65625l-1.203125 0l0 -10.0l1.203125 0l0 10.0z" fill-rule="nonzero"/><path fill="#136a7f" d="m434.12683 366.0749q0 -1.46875 0.390625 -2.828125q0.40625 -1.359375 1.1875 -2.453125q0.78125 -1.109375 1.609375 -1.5625l0.25 0.78125q-0.953125 0.734375 -1.5625 2.234375q-0.59375 1.5 -0.65625 3.34375l-0.015625 0.5625q0 2.515625 0.921875 4.359375q0.5625 1.109375 1.3125 1.734375l-0.25 0.734375q-0.859375 -0.484375 -1.640625 -1.625q-1.546875 -2.203125 -1.546875 -5.28125zm7.5867615 -0.375q-1.609375 -0.46875 -2.34375 -1.140625q-0.734375 -0.671875 -0.734375 -1.65625q0 -1.125 0.890625 -1.859375q0.90625 -0.734375 2.34375 -0.734375q0.96875 0 1.734375 0.390625q0.765625 0.375 1.1875 1.046875q0.421875 0.65625 0.421875 1.4375l-1.265625 0q0 -0.859375 -0.546875 -1.34375q-0.546875 -0.5 -1.53125 -0.5q-0.921875 0 -1.453125 0.40625q-0.515625 0.40625 -0.515625 1.125q0 0.578125 0.484375 0.984375q0.5 0.40625 1.671875 0.734375q1.1875 0.328125 1.859375 0.734375q0.671875 0.390625 0.984375 0.9375q0.328125 0.53125 0.328125 1.25q0 1.15625 -0.90625 1.84375q-0.890625 0.6875 -2.390625 0.6875q-0.984375 0 -1.828125 -0.375q-0.84375 -0.375 -1.3125 -1.015625q-0.453125 -0.65625 -0.453125 -1.484375l1.265625 0q0 0.859375 0.625 1.359375q0.640625 0.5 1.703125 0.5q0.984375 0 1.515625 -0.40625q0.53125 -0.40625 0.53125 -1.09375q0 -0.703125 -0.5 -1.078125q-0.484375 -0.390625 -1.765625 -0.75zm10.875824 0.78125q0 1.609375 -0.734375 2.59375q-0.734375 0.96875 -2.0 0.96875q-1.28125 0 -2.015625 -0.8125l0 3.390625l-1.203125 0l0 -9.75l1.109375 0l0.046875 0.78125q0.75 -0.90625 2.046875 -0.90625q1.265625 0 2.0 0.953125q0.75 0.953125 0.75 2.671875l0 0.109375zm-1.203125 -0.140625q0 -1.1875 -0.515625 -1.875q-0.5 -0.703125 -1.390625 -0.703125q-1.09375 0 -1.640625 0.96875l0 3.375q0.546875 0.953125 1.65625 0.953125q0.875 0 1.375 -0.671875q0.515625 -0.6875 0.515625 -2.046875zm4.040039 3.578125l-1.203125 0l0 -10.0l1.203125 0l0 10.0zm3.234436 0l-1.203125 0l0 -7.046875l1.203125 0l0 7.046875zm-1.296875 -8.90625q0 -0.296875 0.171875 -0.5q0.1875 -0.203125 0.53125 -0.203125q0.359375 0 0.53125 0.203125q0.1875 0.203125 0.1875 0.5q0 0.296875 -0.1875 0.5q-0.171875 0.1875 -0.53125 0.1875q-0.34375 0 -0.53125 -0.1875q-0.171875 -0.203125 -0.171875 -0.5zm4.8594055 0.15625l0 1.703125l1.3125 0l0 0.9375l-1.3125 0l0 4.359375q0 0.421875 0.171875 0.640625q0.171875 0.21875 0.59375 0.21875q0.21875 0 0.578125 -0.078125l0 0.96875q-0.46875 0.125 -0.921875 0.125q-0.8125 0 -1.21875 -0.484375q-0.40625 -0.484375 -0.40625 -1.390625l0 -4.359375l-1.28125 0l0 -0.9375l1.28125 0l0 -1.703125l1.203125 0zm2.4319153 5.171875q0 -1.640625 0.75 -2.609375q0.765625 -0.984375 2.03125 -0.984375q1.28125 0 2.015625 0.90625l0.046875 -0.78125l1.109375 0l0 6.875q0 1.375 -0.8125 2.15625q-0.8125 0.78125 -2.1875 0.78125q-0.75 0 -1.484375 -0.328125q-0.734375 -0.3125 -1.109375 -0.875l0.625 -0.734375q0.765625 0.96875 1.890625 0.96875q0.875 0 1.359375 -0.5q0.5 -0.5 0.5 -1.390625l0 -0.609375q-0.71875 0.828125 -1.96875 0.828125q-1.234375 0 -2.0 -0.984375q-0.765625 -1.0 -0.765625 -2.71875zm1.203125 0.140625q0 1.1875 0.484375 1.875q0.5 0.671875 1.375 0.671875q1.140625 0 1.671875 -1.03125l0 -3.21875q-0.546875 -1.015625 -1.65625 -1.015625q-0.875 0 -1.375 0.6875q-0.5 0.6875 -0.5 2.03125zm9.961914 -2.53125q-0.265625 -0.03125 -0.59375 -0.03125q-1.1875 0 -1.609375 1.0l0 5.0l-1.203125 0l0 -7.046875l1.171875 0l0.03125 0.8125q0.578125 -0.9375 1.671875 -0.9375q0.34375 0 0.53125 0.09375l0 1.109375zm5.202667 5.96875q-0.109375 -0.203125 -0.171875 -0.734375q-0.84375 0.859375 -2.015625 0.859375q-1.03125 0 -1.703125 -0.578125q-0.671875 -0.59375 -0.671875 -1.5q0 -1.09375 0.828125 -1.703125q0.84375 -0.609375 2.359375 -0.609375l1.171875 0l0 -0.5625q0 -0.625 -0.375 -1.0q-0.375 -0.375 -1.109375 -0.375q-0.640625 0 -1.078125 0.328125q-0.4375 0.328125 -0.4375 0.78125l-1.203125 0q0 -0.515625 0.359375 -1.0q0.375 -0.5 1.015625 -0.78125q0.65625 -0.296875 1.421875 -0.296875q1.21875 0 1.90625 0.609375q0.6875 0.609375 0.71875 1.671875l0 3.25q0 0.96875 0.234375 1.53125l0 0.109375l-1.25 0zm-2.0 -0.921875q0.5625 0 1.0625 -0.28125q0.515625 -0.296875 0.734375 -0.765625l0 -1.453125l-0.9375 0q-2.21875 0 -2.21875 1.296875q0 0.5625 0.375 0.890625q0.390625 0.3125 0.984375 0.3125zm10.843536 -2.515625q0 1.609375 -0.734375 2.59375q-0.734375 0.96875 -2.0 0.96875q-1.28125 0 -2.015625 -0.8125l0 3.390625l-1.203125 0l0 -9.75l1.109375 0l0.046875 0.78125q0.75 -0.90625 2.046875 -0.90625q1.265625 0 2.0 0.953125q0.75 0.953125 0.75 2.671875l0 0.109375zm-1.203125 -0.140625q0 -1.1875 -0.515625 -1.875q-0.5 -0.703125 -1.390625 -0.703125q-1.09375 0 -1.640625 0.96875l0 3.375q0.546875 0.953125 1.65625 0.953125q0.875 0 1.375 -0.671875q0.515625 -0.6875 0.515625 -2.046875zm3.930664 -2.609375q0.8125 -0.984375 2.09375 -0.984375q2.234375 0 2.25 2.515625l0 4.65625l-1.203125 0l0 -4.65625q-0.015625 -0.765625 -0.359375 -1.125q-0.328125 -0.375 -1.0625 -0.375q-0.578125 0 -1.03125 0.3125q-0.4375 0.3125 -0.6875 0.828125l0 5.015625l-1.203125 0l0 -10.0l1.203125 0l0 3.8125zm8.919006 2.40625q0 1.453125 -0.390625 2.78125q-0.375 1.328125 -1.15625 2.453125q-0.78125 1.125 -1.640625 1.609375l-0.25 -0.734375q1.0 -0.765625 1.609375 -2.375q0.609375 -1.625 0.625 -3.609375l0 -0.203125q0 -1.359375 -0.296875 -2.53125q-0.28125 -1.1875 -0.796875 -2.109375q-0.5 -0.9375 -1.140625 -1.453125l0.25 -0.734375q0.859375 0.46875 1.640625 1.59375q0.78125 1.109375 1.15625 2.453125q0.390625 1.328125 0.390625 2.859375z" fill-rule="nonzero"/><path fill="#000000" fill-opacity="0.0" d="m508.66995 66.49426l209.73227 0l0 21.480316l-209.73227 0z" fill-rule="evenodd"/><path fill="#e7c56b" d="m543.61707 78.830765l1.765625 0.453125q-0.5625 2.171875 -2.0 3.328125q-1.4375 1.140625 -3.53125 1.140625q-2.15625 0 -3.515625 -0.875q-1.34375 -0.890625 -2.0625 -2.546875q-0.703125 -1.671875 -0.703125 -3.59375q0 -2.078125 0.796875 -3.625q0.796875 -1.5625 2.265625 -2.359375q1.484375 -0.8125 3.25 -0.8125q2.0 0 3.359375 1.015625q1.375 1.015625 1.90625 2.875l-1.734375 0.40625q-0.46875 -1.453125 -1.359375 -2.109375q-0.875 -0.671875 -2.203125 -0.671875q-1.546875 0 -2.578125 0.734375q-1.03125 0.734375 -1.453125 1.984375q-0.421875 1.234375 -0.421875 2.5625q0 1.703125 0.5 2.96875q0.5 1.265625 1.546875 1.90625q1.046875 0.625 2.265625 0.625q1.484375 0 2.515625 -0.859375q1.03125 -0.859375 1.390625 -2.546875zm3.1292114 -0.15625q0 -2.6875 1.484375 -3.96875q1.25 -1.078125 3.046875 -1.078125q2.0 0 3.265625 1.3125q1.265625 1.296875 1.265625 3.609375q0 1.859375 -0.5625 2.9375q-0.5625 1.0625 -1.640625 1.65625q-1.0625 0.59375 -2.328125 0.59375q-2.03125 0 -3.28125 -1.296875q-1.25 -1.3125 -1.25 -3.765625zm1.6875 0q0 1.859375 0.796875 2.796875q0.8125 0.921875 2.046875 0.921875q1.21875 0 2.03125 -0.921875q0.8125 -0.9375 0.8125 -2.84375q0 -1.796875 -0.8125 -2.71875q-0.8125 -0.921875 -2.03125 -0.921875q-1.234375 0 -2.046875 0.921875q-0.796875 0.90625 -0.796875 2.765625zm9.297607 4.84375l0 -9.671875l1.46875 0l0 1.359375q0.453125 -0.71875 1.203125 -1.140625q0.765625 -0.4375 1.71875 -0.4375q1.078125 0 1.765625 0.453125q0.6875 0.4375 0.96875 1.234375q1.15625 -1.6875 2.984375 -1.6875q1.453125 0 2.21875 0.796875q0.78125 0.796875 0.78125 2.453125l0 6.640625l-1.640625 0l0 -6.09375q0 -0.984375 -0.15625 -1.40625q-0.15625 -0.4375 -0.578125 -0.703125q-0.421875 -0.265625 -0.984375 -0.265625q-1.015625 0 -1.6875 0.6875q-0.671875 0.671875 -0.671875 2.15625l0 5.625l-1.640625 0l0 -6.28125q0 -1.09375 -0.40625 -1.640625q-0.40625 -0.546875 -1.3125 -0.546875q-0.6875 0 -1.28125 0.359375q-0.59375 0.359375 -0.859375 1.0625q-0.25 0.703125 -0.25 2.03125l0 5.015625l-1.640625 0zm15.5407715 3.703125l0 -13.375l1.484375 0l0 1.25q0.53125 -0.734375 1.1875 -1.09375q0.671875 -0.375 1.625 -0.375q1.234375 0 2.171875 0.640625q0.953125 0.625 1.4375 1.796875q0.484375 1.15625 0.484375 2.546875q0 1.484375 -0.53125 2.671875q-0.53125 1.1875 -1.546875 1.828125q-1.015625 0.625 -2.140625 0.625q-0.8125 0 -1.46875 -0.34375q-0.65625 -0.34375 -1.0625 -0.875l0 4.703125l-1.640625 0zm1.484375 -8.484375q0 1.859375 0.75 2.765625q0.765625 0.890625 1.828125 0.890625q1.09375 0 1.875 -0.921875q0.78125 -0.9375 0.78125 -2.875q0 -1.84375 -0.765625 -2.765625q-0.75 -0.921875 -1.8125 -0.921875q-1.046875 0 -1.859375 0.984375q-0.796875 0.96875 -0.796875 2.84375zm15.219482 4.78125l0 -1.421875q-1.125 1.640625 -3.0625 1.640625q-0.859375 0 -1.609375 -0.328125q-0.734375 -0.328125 -1.09375 -0.828125q-0.359375 -0.5 -0.5 -1.21875q-0.109375 -0.46875 -0.109375 -1.53125l0 -5.984375l1.640625 0l0 5.359375q0 1.28125 0.109375 1.734375q0.15625 0.640625 0.65625 1.015625q0.5 0.375 1.234375 0.375q0.734375 0 1.375 -0.375q0.65625 -0.390625 0.921875 -1.03125q0.265625 -0.65625 0.265625 -1.890625l0 -5.1875l1.640625 0l0 9.671875l-1.46875 0zm7.6257324 -1.46875l0.234375 1.453125q-0.6875 0.140625 -1.234375 0.140625q-0.890625 0 -1.390625 -0.28125q-0.484375 -0.28125 -0.6875 -0.734375q-0.203125 -0.46875 -0.203125 -1.9375l0 -5.578125l-1.203125 0l0 -1.265625l1.203125 0l0 -2.390625l1.625 -0.984375l0 3.375l1.65625 0l0 1.265625l-1.65625 0l0 5.671875q0 0.6875 0.078125 0.890625q0.09375 0.203125 0.28125 0.328125q0.203125 0.109375 0.578125 0.109375q0.265625 0 0.71875 -0.0625zm8.230164 -1.640625l1.6875 0.203125q-0.40625 1.484375 -1.484375 2.3125q-1.078125 0.8125 -2.765625 0.8125q-2.125 0 -3.375 -1.296875q-1.234375 -1.3125 -1.234375 -3.671875q0 -2.453125 1.25 -3.796875q1.265625 -1.34375 3.265625 -1.34375q1.9375 0 3.15625 1.328125q1.234375 1.3125 1.234375 3.703125q0 0.15625 0 0.4375l-7.21875 0q0.09375 1.59375 0.90625 2.453125q0.8125 0.84375 2.015625 0.84375q0.90625 0 1.546875 -0.46875q0.640625 -0.484375 1.015625 -1.515625zm-5.390625 -2.65625l5.40625 0q-0.109375 -1.21875 -0.625 -1.828125q-0.78125 -0.953125 -2.03125 -0.953125q-1.125 0 -1.90625 0.765625q-0.765625 0.75 -0.84375 2.015625zm29.483948 1.46875l1.65625 -0.140625q0.125 1.0 0.546875 1.640625q0.4375 0.640625 1.34375 1.046875q0.921875 0.390625 2.0625 0.390625q1.0 0 1.78125 -0.296875q0.78125 -0.296875 1.15625 -0.8125q0.375 -0.53125 0.375 -1.15625q0 -0.625 -0.375 -1.09375q-0.359375 -0.46875 -1.1875 -0.796875q-0.546875 -0.203125 -2.390625 -0.640625q-1.828125 -0.453125 -2.5625 -0.84375q-0.96875 -0.5 -1.4375 -1.234375q-0.46875 -0.75 -0.46875 -1.671875q0 -1.0 0.578125 -1.875q0.578125 -0.890625 1.671875 -1.34375q1.109375 -0.453125 2.453125 -0.453125q1.484375 0 2.609375 0.484375q1.140625 0.46875 1.75 1.40625q0.609375 0.921875 0.65625 2.09375l-1.6875 0.125q-0.140625 -1.265625 -0.9375 -1.90625q-0.78125 -0.65625 -2.3125 -0.65625q-1.609375 0 -2.34375 0.59375q-0.734375 0.59375 -0.734375 1.421875q0 0.71875 0.53125 1.171875q0.5 0.46875 2.65625 0.96875q2.15625 0.484375 2.953125 0.84375q1.171875 0.53125 1.71875 1.359375q0.5625 0.828125 0.5625 1.90625q0 1.0625 -0.609375 2.015625q-0.609375 0.9375 -1.75 1.46875q-1.140625 0.515625 -2.578125 0.515625q-1.8125 0 -3.046875 -0.53125q-1.21875 -0.53125 -1.921875 -1.59375q-0.6875 -1.0625 -0.71875 -2.40625zm16.412292 2.828125l0.234375 1.453125q-0.6875 0.140625 -1.234375 0.140625q-0.890625 0 -1.390625 -0.28125q-0.484375 -0.28125 -0.6875 -0.734375q-0.203125 -0.46875 -0.203125 -1.9375l0 -5.578125l-1.203125 0l0 -1.265625l1.203125 0l0 -2.390625l1.625 -0.984375l0 3.375l1.65625 0l0 1.265625l-1.65625 0l0 5.671875q0 0.6875 0.078125 0.890625q0.09375 0.203125 0.28125 0.328125q0.203125 0.109375 0.578125 0.109375q0.265625 0 0.71875 -0.0625zm0.9957886 -3.375q0 -2.6875 1.484375 -3.96875q1.25 -1.078125 3.046875 -1.078125q2.0 0 3.265625 1.3125q1.265625 1.296875 1.265625 3.609375q0 1.859375 -0.5625 2.9375q-0.5625 1.0625 -1.640625 1.65625q-1.0625 0.59375 -2.328125 0.59375q-2.03125 0 -3.28125 -1.296875q-1.25 -1.3125 -1.25 -3.765625zm1.6875 0q0 1.859375 0.796875 2.796875q0.8125 0.921875 2.046875 0.921875q1.21875 0 2.03125 -0.921875q0.8125 -0.9375 0.8125 -2.84375q0 -1.796875 -0.8125 -2.71875q-0.8125 -0.921875 -2.03125 -0.921875q-1.234375 0 -2.046875 0.921875q-0.796875 0.90625 -0.796875 2.765625zm9.281982 4.84375l0 -9.671875l1.46875 0l0 1.46875q0.5625 -1.03125 1.03125 -1.359375q0.484375 -0.328125 1.0625 -0.328125q0.828125 0 1.6875 0.53125l-0.5625 1.515625q-0.609375 -0.359375 -1.203125 -0.359375q-0.546875 0 -0.96875 0.328125q-0.421875 0.328125 -0.609375 0.890625q-0.28125 0.875 -0.28125 1.921875l0 5.0625l-1.625 0zm12.5408325 -1.1875q-0.921875 0.765625 -1.765625 1.09375q-0.828125 0.3125 -1.796875 0.3125q-1.59375 0 -2.453125 -0.78125q-0.859375 -0.78125 -0.859375 -1.984375q0 -0.71875 0.328125 -1.296875q0.328125 -0.59375 0.84375 -0.9375q0.53125 -0.359375 1.1875 -0.546875q0.46875 -0.125 1.453125 -0.25q1.984375 -0.234375 2.921875 -0.5625q0.015625 -0.34375 0.015625 -0.421875q0 -1.0 -0.46875 -1.421875q-0.625 -0.546875 -1.875 -0.546875q-1.15625 0 -1.703125 0.40625q-0.546875 0.40625 -0.8125 1.421875l-1.609375 -0.21875q0.21875 -1.015625 0.71875 -1.640625q0.5 -0.640625 1.453125 -0.984375q0.953125 -0.34375 2.1875 -0.34375q1.25 0 2.015625 0.296875q0.78125 0.28125 1.140625 0.734375q0.375 0.4375 0.515625 1.109375q0.078125 0.421875 0.078125 1.515625l0 2.1875q0 2.28125 0.109375 2.890625q0.109375 0.59375 0.40625 1.15625l-1.703125 0q-0.265625 -0.515625 -0.328125 -1.1875zm-0.140625 -3.671875q-0.890625 0.375 -2.671875 0.625q-1.015625 0.140625 -1.4375 0.328125q-0.421875 0.1875 -0.65625 0.53125q-0.21875 0.34375 -0.21875 0.78125q0 0.65625 0.5 1.09375q0.5 0.4375 1.453125 0.4375q0.9375 0 1.671875 -0.40625q0.75 -0.421875 1.09375 -1.140625q0.265625 -0.5625 0.265625 -1.640625l0 -0.609375zm3.8912964 5.65625l1.59375 0.234375q0.109375 0.75 0.5625 1.078125q0.609375 0.453125 1.671875 0.453125q1.140625 0 1.75 -0.453125q0.625 -0.453125 0.84375 -1.265625q0.125 -0.5 0.109375 -2.109375q-1.0625 1.265625 -2.671875 1.265625q-2.0 0 -3.09375 -1.4375q-1.09375 -1.4375 -1.09375 -3.453125q0 -1.390625 0.5 -2.5625q0.515625 -1.171875 1.453125 -1.796875q0.953125 -0.640625 2.25 -0.640625q1.703125 0 2.8125 1.375l0 -1.15625l1.515625 0l0 8.359375q0 2.265625 -0.46875 3.203125q-0.453125 0.9375 -1.453125 1.484375q-0.984375 0.546875 -2.453125 0.546875q-1.71875 0 -2.796875 -0.78125q-1.0625 -0.765625 -1.03125 -2.34375zm1.359375 -5.8125q0 1.90625 0.75 2.78125q0.765625 0.875 1.90625 0.875q1.125 0 1.890625 -0.859375q0.765625 -0.875 0.765625 -2.734375q0 -1.78125 -0.796875 -2.671875q-0.78125 -0.90625 -1.890625 -0.90625q-1.09375 0 -1.859375 0.890625q-0.765625 0.875 -0.765625 2.625zm15.953857 1.90625l1.6875 0.203125q-0.40625 1.484375 -1.484375 2.3125q-1.078125 0.8125 -2.765625 0.8125q-2.125 0 -3.375 -1.296875q-1.234375 -1.3125 -1.234375 -3.671875q0 -2.453125 1.25 -3.796875q1.265625 -1.34375 3.265625 -1.34375q1.9375 0 3.15625 1.328125q1.234375 1.3125 1.234375 3.703125q0 0.15625 0 0.4375l-7.21875 0q0.09375 1.59375 0.90625 2.453125q0.8125 0.84375 2.015625 0.84375q0.90625 0 1.546875 -0.46875q0.640625 -0.484375 1.015625 -1.515625zm-5.390625 -2.65625l5.40625 0q-0.109375 -1.21875 -0.625 -1.828125q-0.78125 -0.953125 -2.03125 -0.953125q-1.125 0 -1.90625 0.765625q-0.765625 0.75 -0.84375 2.015625z" fill-rule="nonzero"/></g></svg>