<?xml version="1.0" encoding="utf-8"?>
<!-- Generator: Adobe Illustrator 23.0.2, SVG Export Plug-In . SVG Version: 6.00 Build 0)  -->
<svg version="1.1" id="Layer_1" xmlns="http://www.w3.org/2000/svg" xmlns:xlink="http://www.w3.org/1999/xlink" x="0px" y="0px"
	 viewBox="0 0 682 80.1" style="enable-background:new 0 0 682 80.1;" xml:space="preserve">
<style type="text/css">
	.st0{fill:#FAA31A;}
	.st1{fill:#EC7224;}
	.st2{fill:#E74B24;}
	.st3{opacity:0.1;fill:#FFFFFF;enable-background:new    ;}
</style>
<title>logo_base</title>
<path class="st0" d="M0,0.1h23c4.5,16,8.7,28.7,11.7,34.8c-12.2,4.7-23,9.5-34.7,15.2V0.1z"/>
<path class="st1" d="M59,80.1c-9-14.6-17.1-29.6-24.3-45.2C29.2,23.4,24.5,12.1,20,0.1h622l40,40c-6.5,6.5-3.2,2.8-40,40H59z"/>
<path class="st1" d="M0,50.1c11.6-5.6,22.5-10.5,34.7-15.2C41.8,49.9,59,80.1,59,80.1H0V50.1z"/>
<path class="st2" d="M59,80.1c-9-14.6-17.1-29.7-24.3-45.2C123.5,0.8,220.9-4.4,312.9,20.2c47.6,12.7,88.9,33.2,129.1,59.9H59z"/>
<path class="st1" d="M482,40.1c0,0-3.2,2.8-40,40"/>
<polygon class="st3" points="372.5,80.1 406.4,0 0,0.1 0,80.1 "/>
</svg>
