<?xml version="1.0" encoding="utf-8"?>
<!-- Generator: Adobe Illustrator 23.1.1, SVG Export Plug-In . SVG Version: 6.00 Build 0)  -->
<svg version="1.1" id="Layer_1" xmlns="http://www.w3.org/2000/svg" xmlns:xlink="http://www.w3.org/1999/xlink" x="0px" y="0px"
	 viewBox="0 0 178.9 84" style="enable-background:new 0 0 178.9 84;" xml:space="preserve">
<style type="text/css">
	.st0{fill:url(#SVGID_1_);}
	.st1{clip-path:url(#SVGID_3_);}
	.st2{fill:#FAA31A;}
	.st3{fill:#EC7224;}
	.st4{fill:#E74B24;}
	.st5{opacity:0.1;fill:#FFFFFF;enable-background:new    ;}
</style>
<title>logo</title>
<g>
	<g id="color">
		
			<linearGradient id="SVGID_1_" gradientUnits="userSpaceOnUse" x1="61.1324" y1="718.8934" x2="124.0624" y2="812.4034" gradientTransform="matrix(1 0 0 1 0 -750.0358)">
			<stop  offset="0" style="stop-color:#676767"/>
			<stop  offset="1" style="stop-color:#010101"/>
		</linearGradient>
		<path class="st0" d="M52.9,81.5V0.3h28.8c28.8,0,43.3,13.2,43.3,39.6c0,12.7-3.9,22.8-11.8,30.3S94.8,81.5,81.7,81.5H52.9z
			 M71.2,15.2v51.5h9.1c7.9,0,14.1-2.4,18.7-7.1c4.5-4.8,6.8-11.2,6.8-19.4c0-7.7-2.2-13.8-6.7-18.3s-10.7-6.7-18.8-6.7
			C80.3,15.2,71.2,15.2,71.2,15.2z M117.7,81.5V0.3h29.6c9.1,0,16,1.7,20.9,5c4.7,3.1,7.5,8.4,7.3,14c0,4.3-1.5,8.4-4.4,11.5
			c-3,3.3-7,5.7-11.4,6.9V38c5.8,0.7,10.4,2.9,13.8,6.4c3.4,3.4,5.3,8.1,5.2,13c0,7.4-2.7,13.3-8,17.7s-12.6,6.5-21.8,6.5
			L117.7,81.5z M136,13.8V33h8c3.8,0,6.8-0.9,8.9-2.8c2.2-1.9,3.4-4.7,3.3-7.5c0-6-4.5-9-13.4-9L136,13.8z M136,46.6V68h9.9
			c4.2,0,7.5-1,9.9-3c2.4-2,3.7-4.9,3.6-8c0.1-3-1.2-5.8-3.5-7.6c-2.4-1.9-5.7-2.8-9.9-2.8L136,46.6z"/>
		<g>
			<g>
				<defs>
					<polygon id="SVGID_2_" points="47.4,81.5 0.4,81.5 0.4,0.3 47.2,0.3 47.2,15.2 18.7,15.2 18.7,33.2 45.2,33.2 45.2,48.1 
						18.7,48.1 18.7,66.6 47.4,66.6 					"/>
				</defs>
				<clipPath id="SVGID_3_">
					<use xlink:href="#SVGID_2_"  style="overflow:visible;"/>
				</clipPath>
				<g class="st1">
					<path class="st2" d="M29-15.9c-27.1,0-50,20-53.6,46.8c4.4-1.1,9-1.7,13.5-1.7c2.2,0,4.4,0.1,6.6,0.4c1.6,0.2,3.2,0.5,4.8,0.8
						c3.2,0.7,6.3,1.7,9.4,2.9c3.4-10.3,9.8-19.4,18.5-26c1.6-1.2,3.3-2.4,5-3.4c8.4-5.1,18.1-7.8,28-7.8c0.7,0,1.3,0,2,0.1
						C53.5-11.7,41.4-16,29-15.9z"/>
					<path class="st3" d="M9.5,66.8c-0.7-2.1-1.2-4.3-1.6-6.5c-1.7-9-1.1-18.3,1.8-27c-3-1.3-6.2-2.2-9.4-2.9
						c-1.6-0.3-3.2-0.6-4.8-0.8c-2.2-0.3-4.4-0.4-6.6-0.4c-4.6,0-9.1,0.6-13.5,1.7c-0.3,2.4-0.5,4.9-0.5,7.3c0,29.1,23,53,52.1,54.1
						C18.8,85.6,12.8,76.8,9.5,66.8z"/>
					<path class="st3" d="M63.1-3.9c-0.7,0-1.3-0.1-2-0.1c-9.9,0-19.6,2.7-28,7.8c-1.7,1-3.4,2.2-5,3.4c-8.6,6.6-15.1,15.7-18.5,26
						c5,2,9.6,4.8,13.7,8.2c4.8,4,9,8.8,12.2,14.2c2,3.3,3.5,6.8,4.8,10.4c0.5,1.4,0.9,2.8,1.3,4.3c1,4.2,1.5,8.5,1.5,12.9
						c0,2.4-0.2,4.9-0.5,7.3C71.5,83,89,53.5,81.5,24.6C78.5,13.4,72.1,3.4,63.1-3.9z"/>
					<path class="st4" d="M41.5,70.4c-0.4-1.5-0.8-2.9-1.3-4.3c-1.2-3.6-2.8-7.1-4.8-10.4c-3.2-5.4-7.3-10.2-12.2-14.2
						c-4.1-3.4-8.7-6.2-13.6-8.2c-2.9,8.7-3.5,18-1.8,27c0.4,2.2,1,4.3,1.6,6.5c3.2,10,9.3,18.9,17.5,25.5c0.7,0,1.3,0.1,2,0.1
						c4.6,0,9.1-0.6,13.5-1.7c0.3-2.4,0.5-4.9,0.5-7.3C43,78.9,42.5,74.6,41.5,70.4z"/>
					
						<rect x="-30.3" y="-30.2" transform="matrix(0.9008 -0.4343 0.4343 0.9008 3.1989 29.4851)" class="st5" width="192.9" height="75.9"/>
				</g>
			</g>
		</g>
	</g>
</g>
</svg>
