<svg xmlns="http://www.w3.org/2000/svg" xmlns:xlink="http://www.w3.org/1999/xlink" xmlns:lucid="lucid" width="1986.62" height="1186.48"><g transform="translate(-359 -274.83868299350127)" lucid:page-tab-id="0_0"><path d="M636.36 281.84a6 6 0 0 1 6-6h628a6 6 0 0 1 6 6v848a6 6 0 0 1-6 6h-628a6 6 0 0 1-6-6z" stroke="#000" stroke-width="2" fill="#f2f3f5"/><use xlink:href="#a" transform="matrix(1,0,0,1,641.3636363636363,280.83868299350127) translate(0 21.52777777777778)"/><use xlink:href="#b" transform="matrix(1,0,0,1,641.3636363636363,280.83868299350127) translate(78.64583333333333 21.52777777777778)"/><path d="M672.73 331a6 6 0 0 1 6-6H1234a6 6 0 0 1 6 6v208a6 6 0 0 1-6 6H678.73a6 6 0 0 1-6-6z" stroke="#000" stroke-width="2" fill="#ced4db"/><use xlink:href="#c" transform="matrix(1,0,0,1,677.7272727272727,330) translate(0 21.52777777777778)"/><path d="M672.73 586a6 6 0 0 1 6-6H1234a6 6 0 0 1 6 6v208a6 6 0 0 1-6 6H678.73a6 6 0 0 1-6-6z" stroke="#000" stroke-width="2" fill="#ced4db"/><use xlink:href="#d" transform="matrix(1,0,0,1,677.7272727272727,585) translate(0 21.52777777777778)"/><path d="M672.73 866a6 6 0 0 1 6-6H1234a6 6 0 0 1 6 6v208a6 6 0 0 1-6 6H678.73a6 6 0 0 1-6-6z" stroke="#000" stroke-width="2" fill="#ced4db"/><use xlink:href="#e" transform="matrix(1,0,0,1,677.7272727272727,865) translate(0 21.52777777777778)"/><path d="M840 376a6 6 0 0 1 6-6h188a6 6 0 0 1 6 6v118a6 6 0 0 1-6 6H846a6 6 0 0 1-6-6z" stroke="#008a0e" stroke-width="2" fill="#54c45e"/><use xlink:href="#f" transform="matrix(1,0,0,1,845,375) translate(105.81380208333334 51.52777777777778)"/><use xlink:href="#g" transform="matrix(1,0,0,1,845,375) translate(118.18901909722223 83.79340277777777)"/><path d="M840 911a6 6 0 0 1 6-6h188a6 6 0 0 1 6 6v118a6 6 0 0 1-6 6H846a6 6 0 0 1-6-6z" stroke="#000" stroke-width="2" fill="#dedeff"/><use xlink:href="#f" transform="matrix(1,0,0,1,845,910) translate(105.81380208333334 51.52777777777778)"/><use xlink:href="#h" transform="matrix(1,0,0,1,845,910) translate(115.47092013888889 83.79340277777777)"/><path d="M840 626a6 6 0 0 1 6-6h188a6 6 0 0 1 6 6v118a6 6 0 0 1-6 6H846a6 6 0 0 1-6-6z" stroke="#000" stroke-width="2" fill="#dedeff"/><use xlink:href="#f" transform="matrix(1,0,0,1,845,625) translate(105.81380208333334 51.52777777777778)"/><use xlink:href="#i" transform="matrix(1,0,0,1,845,625) translate(115.55772569444444 83.79340277777777)"/><path d="M800 381a6 6 0 0 1 6-6h28a6 6 0 0 1 6 6v108a6 6 0 0 1-6 6h-28a6 6 0 0 1-6-6z" stroke="#000" stroke-width="2" fill="#54c45e"/><use xlink:href="#j" transform="matrix(-1.8369701987210297e-16,-1,1,-1.8369701987210297e-16,812,482.9999999999999) translate(16.3700992435292 10.251615519451638)"/><use xlink:href="#k" transform="matrix(-1.8369701987210297e-16,-1,1,-1.8369701987210297e-16,812,482.9999999999999) translate(53.02840216323722 10.251615519451638)"/><path d="M800 631a6 6 0 0 1 6-6h28a6 6 0 0 1 6 6v108a6 6 0 0 1-6 6h-28a6 6 0 0 1-6-6z" stroke="#000" stroke-width="2" fill="#6db1ff"/><use xlink:href="#l" transform="matrix(-1.8369701987210297e-16,-1,1,-1.8369701987210297e-16,812,733.0000000000001) translate(16.3700992435292 10.251615519451638)"/><use xlink:href="#m" transform="matrix(-1.8369701987210297e-16,-1,1,-1.8369701987210297e-16,812,733.0000000000001) translate(53.02840216323722 10.251615519451638)"/><path d="M800 916a6 6 0 0 1 6-6h28a6 6 0 0 1 6 6v108a6 6 0 0 1-6 6h-28a6 6 0 0 1-6-6z" stroke="#000" stroke-width="2" fill="#6db1ff"/><use xlink:href="#j" transform="matrix(-1.8369701987210297e-16,-1,1,-1.8369701987210297e-16,812,1018) translate(16.3700992435292 10.251615519451638)"/><use xlink:href="#k" transform="matrix(-1.8369701987210297e-16,-1,1,-1.8369701987210297e-16,812,1018) translate(53.02840216323722 10.251615519451638)"/><path d="M360 367.33a6 6 0 0 1 6-6h148a6 6 0 0 1 6 6v108a6 6 0 0 1-6 6H366a6 6 0 0 1-6-6z" stroke="#000" stroke-width="2" fill="#d7faf5"/><use xlink:href="#n" transform="matrix(1,0,0,1,372,373.33332932095306) translate(46.72721354166667 57.52777777777778)"/><path d="M523 421.33h136.7a.3.3 0 0 1 .3.3.3.3 0 0 0 .3.32h115.96" stroke="#3a414a" stroke-width="4" fill="none"/><path d="M523.05 423.3H521v-3.94h2.05z" stroke="#3a414a" stroke-width=".05" fill="#3a414a"/><path d="M792.53 421.95l-14.27 4.64v-9.28z" stroke="#3a414a" stroke-width="4" fill="#3a414a"/><path d="M360 631a6 6 0 0 1 6-6h148a6 6 0 0 1 6 6v108a6 6 0 0 1-6 6H366a6 6 0 0 1-6-6z" stroke="#000" stroke-width="2" fill="#d7faf5"/><use xlink:href="#n" transform="matrix(1,0,0,1,372,637) translate(46.72721354166667 57.52777777777778)"/><path d="M523 684h136.98a.02.02 0 0 1 .02.02.02.02 0 0 0 .02.02h116.24" stroke="#3a414a" stroke-width="4" fill="none"/><path d="M523.05 685.98H521V682h2.05z" stroke="#3a414a" stroke-width=".05" fill="#3a414a"/><path d="M792.53 684.04l-14.27 4.64v-9.27z" stroke="#3a414a" stroke-width="4" fill="#3a414a"/><path d="M797 650.96h-31a6 6 0 0 1-6-6v-169.9a6 6 0 0 1 6-6h10.26" stroke="#6db1ff" stroke-width="4" fill="none"/><path d="M799 652.93h-2.05v-3.95H799z" stroke="#6db1ff" stroke-width=".05" fill="#6db1ff"/><path d="M792.53 469.05l-14.27 4.63v-9.27z" stroke="#6db1ff" stroke-width="4" fill="#6db1ff"/><path d="M360 916a6 6 0 0 1 6-6h148a6 6 0 0 1 6 6v108a6 6 0 0 1-6 6H366a6 6 0 0 1-6-6z" stroke="#000" stroke-width="2" fill="#d7faf5"/><use xlink:href="#n" transform="matrix(1,0,0,1,372,922) translate(46.72721354166667 57.52777777777778)"/><path d="M523 970h253.26" stroke="#3a414a" stroke-width="4" fill="none"/><path d="M523.05 971.98H521V968h2.05z" stroke="#3a414a" stroke-width=".05" fill="#3a414a"/><path d="M792.53 970l-14.27 4.63v-9.26z" stroke="#3a414a" stroke-width="4" fill="#3a414a"/><path d="M797 941.36h-51a6 6 0 0 1-6-6V454.68a6 6 0 0 1 6-6h30.26" stroke="#6db1ff" stroke-width="4" fill="none"/><path d="M799 943.34h-2.05v-3.95H799z" stroke="#6db1ff" stroke-width=".05" fill="#6db1ff"/><path d="M792.53 448.68l-14.27 4.64v-9.27z" stroke="#6db1ff" stroke-width="4" fill="#6db1ff"/><path d="M1059.76 434l.74.24 2.27.84 2.24.94 2.23 1.05 2.22 1.16 2.2 1.27 2.22 1.4 2.2 1.55 2.23 1.68 2.23 1.84 2.24 2.02 2.25 2.2 2.27 2.42 2.28 2.65 2.3 2.9 2.33 3.2 2.35 3.53 2.35 3.88 2.35 4.28 2.34 4.72 2.3 5.2 2.27 5.73 2.2 6.3 2.07 6.9 1.93 7.53 1.72 8.13 1.47 8.72 1.16 9.23.8 9.63.42 9.9V565l-.42 9.9-.8 9.62-1.17 9.22-1.47 8.72-1.74 8.13-1.93 7.5-2.08 6.9-2.2 6.3-2.26 5.73-2.32 5.2-2.34 4.72-2.35 4.28-2.36 3.87-2.34 3.53-2.32 3.2-2.3 2.9-2.3 2.66-2.27 2.4-2.24 2.22-2.24 2-2.23 1.86-2.22 1.68-2.2 1.54-2.22 1.4-2.22 1.27-2.2 1.16-2.24 1.05-2.24.94-2.26.84-.75.25" stroke="#3a414a" stroke-width="4" stroke-linejoin="round" fill="none"/><path d="M1059.5 442.4l.32.12 1.93.8 1.92.92 1.92 1 1.92 1.1 1.92 1.23 1.94 1.35 1.95 1.48 1.97 1.63 2 1.8 2 1.97 2.04 2.17 2.07 2.4 2.1 2.65 2.14 2.93 2.15 3.24 2.16 3.58 2.2 4 2.18 4.4 2.18 4.9 2.14 5.42 2.1 5.98 1.97 6.58 1.85 7.2 1.65 7.8 1.42 8.4 1.12 8.88.78 9.3.4 9.55v9.63l-.4 9.56-.78 9.28-1.12 8.9-1.42 8.38-1.66 7.8-1.84 7.2-2 6.57-2.07 6-2.14 5.4-2.18 4.9-2.2 4.4-2.18 4-2.17 3.6-2.17 3.23-2.13 2.93-2.1 2.64-2.06 2.4-2.04 2.17-2.02 1.98-2 1.8-1.96 1.62-1.95 1.5-1.93 1.33-1.93 1.22-1.9 1.1-1.93 1.02-1.92.9-1.94.8-.3.13" stroke="#3a414a" stroke-width="4" stroke-linejoin="round" fill="none"/><path d="M1044.95 435.67l14.06-5.2-2.5 14.78zM1044.94 684.33l11.55-9.58 2.5 14.78z" stroke="#3a414a" stroke-width="4" fill="#3a414a"/><path d="M1059.6 963.05l.82-.27 2.24-.83 2.22-.94 2.22-1.03 2.2-1.15 2.22-1.28 2.2-1.4 2.24-1.55 2.24-1.72 2.26-1.87 2.3-2.05 2.3-2.26 2.35-2.5 2.38-2.76 2.4-3.04 2.45-3.36 2.46-3.72 2.5-4.1 2.5-4.57 2.5-5.06 2.5-5.6 2.44-6.2 2.38-6.85 2.27-7.53 2.1-8.22 1.9-8.93 1.6-9.58 1.3-10.17.88-10.62.46-10.9v-11.02l-.46-10.9-.9-10.63-1.27-10.17-1.6-9.58-1.9-8.92-2.1-8.22-2.28-7.52-2.38-6.84-2.45-6.2-2.5-5.6-2.5-5.06-2.52-4.56-2.5-4.1-2.46-3.73-2.44-3.36-2.4-3.04-2.38-2.76-2.34-2.5-2.32-2.26-2.28-2.06-2.26-1.87-2.25-1.7-2.22-1.54-2.22-1.4-2.2-1.28-2.2-1.15-2.22-1.05-2.23-.93-2.24-.83-.8-.27" stroke="#3a414a" stroke-width="4" stroke-linejoin="round" fill="none"/><path d="M1059.83 971.36l.64-.18 2.58-.84 2.56-.95 2.54-1.08 2.52-1.18 2.5-1.3 2.5-1.46 2.5-1.58 2.5-1.74 2.5-1.9 2.53-2.1 2.53-2.28 2.55-2.5 2.57-2.74 2.6-3 2.6-3.3 2.65-3.63 2.65-4 2.67-4.4 2.66-4.85 2.66-5.36 2.63-5.9 2.57-6.53 2.5-7.16 2.36-7.83 2.2-8.55 1.96-9.25 1.67-9.9 1.32-10.5.92-10.96.47-11.24V821.8l-.47-11.24-.92-10.95-1.32-10.48-1.68-9.9-1.96-9.26-2.2-8.55-2.37-7.83-2.5-7.16-2.57-6.5-2.63-5.9-2.65-5.36-2.67-4.86-2.65-4.4-2.66-4-2.64-3.62-2.62-3.3-2.6-3-2.56-2.75-2.56-2.5-2.53-2.27-2.53-2.1-2.5-1.9-2.5-1.73-2.5-1.6-2.5-1.43-2.52-1.3-2.52-1.2-2.53-1.06-2.56-.94-2.58-.84-.63-.18" stroke="#3a414a" stroke-width="4" stroke-linejoin="round" fill="none"/><path d="M1044.96 969.4l11.75-9.32 2.2 14.84zM1044.96 685.6l13.95-5.52-2.2 14.84z" stroke="#3a414a" stroke-width="4" fill="#3a414a"/><path d="M1059.83 964.5l.8-.12 4.6-.88 4.54-1.06 4.44-1.25 4.4-1.43 4.35-1.62 4.3-1.8 4.3-2.03 4.28-2.24 4.28-2.47 4.3-2.7 4.3-3 4.32-3.28 4.36-3.6 4.4-3.97 4.44-4.36 4.5-4.8 4.56-5.28 4.6-5.82 4.67-6.42 4.7-7.1 4.77-7.86 4.77-8.7 4.76-9.6 4.74-10.66 4.66-11.78 4.52-12.98 4.3-14.26 4-15.6 3.58-16.88 3.06-18.13 2.42-19.22 1.7-20.08.85-20.63v-20.84l-.88-20.63-1.68-20.08-2.43-19.23-3.05-18.12-3.6-16.9-3.98-15.57-4.3-14.26-4.52-12.98-4.66-11.78-4.75-10.65-4.77-9.62-4.78-8.7-4.75-7.84-4.7-7.1-4.67-6.4-4.62-5.83-4.55-5.28-4.5-4.8-4.43-4.36-4.4-3.96-4.36-3.6-4.32-3.3-4.3-2.98-4.3-2.72-4.26-2.47-4.28-2.22-4.3-2.02-4.3-1.8-4.34-1.63-4.4-1.43-4.44-1.24-4.53-1.06-4.6-.88-.8-.12" stroke="#3a414a" stroke-width="4" stroke-linejoin="round" fill="none"/><path d="M1060 972.56l1.97-.3 4.94-.93 4.86-1.14 4.77-1.35 4.7-1.53 4.67-1.73 4.62-1.95 4.6-2.16 4.57-2.4 4.55-2.64 4.57-2.9 4.57-3.18 4.6-3.5 4.6-3.8 4.66-4.2 4.68-4.6 4.73-5.03 4.77-5.53 4.82-6.1 4.86-6.68 4.9-7.38 4.93-8.14 4.93-8.98 4.93-9.93 4.88-10.95 4.78-12.08 4.63-13.3 4.38-14.58 4.08-15.92 3.66-17.22 3.12-18.46 2.46-19.56 1.7-20.42.9-20.97V691.9l-.9-20.98-1.7-20.4-2.47-19.56-3.12-18.46-3.65-17.22-4.08-15.9-4.4-14.58-4.62-13.3-4.78-12.08-4.88-10.96-4.93-9.92-4.93-8.98-4.93-8.14-4.9-7.38-4.85-6.7-4.82-6.07-4.77-5.53-4.73-5.04-4.7-4.6-4.64-4.18-4.62-3.82-4.6-3.5-4.57-3.17-4.56-2.9-4.57-2.63-4.57-2.4-4.6-2.15-4.6-1.95-4.67-1.73-4.7-1.53-4.8-1.33-4.83-1.13-4.94-.94-1.96-.3" stroke="#3a414a" stroke-width="4" stroke-linejoin="round" fill="none"/><path d="M1045 969.7l12.36-8.5 1.17 14.96zM1045 435.3l13.52-6.46-1.16 14.96z" stroke="#3a414a" stroke-width="4" fill="#3a414a"/><path d="M916.26 997.74c0 5.13-13.27 9.3-29.63 9.3s-29.63-4.17-29.63-9.3c0-5.13 13.27-9.3 29.63-9.3s29.63 4.17 29.63 9.3z" stroke="#3a414a" stroke-width="2" fill="#fff"/><path d="M857 985.16a6 6 0 0 1 6-6h47.26a6 6 0 0 1 6 6v6.58a6 6 0 0 1-6 6H863a6 6 0 0 1-6-6z" stroke="#fff" stroke-width="2" fill="#fff"/><path d="M916.26 979.16c0 5.13-13.27 9.3-29.63 9.3s-29.63-4.17-29.63-9.3c0-5.13 13.27-9.28 29.63-9.28s29.63 4.15 29.63 9.28z" stroke="#3a414a" stroke-width="2" fill="#fff"/><path d="M857 966.6a6 6 0 0 1 6-6h47.26a6 6 0 0 1 6 6v6.56a6 6 0 0 1-6 6H863a6 6 0 0 1-6-6z" stroke="#fff" stroke-width="2" fill="#fff"/><path d="M916.26 960.6c0 5.12-13.27 9.28-29.63 9.28s-29.63-4.16-29.63-9.3c0-5.12 13.27-9.28 29.63-9.28s29.63 4.16 29.63 9.3z" stroke="#3a414a" stroke-width="2" fill="#fff"/><path d="M857 948.84a6 6 0 0 1 6-6h47.26a6 6 0 0 1 6 6v6.57a6 6 0 0 1-6 6H863a6 6 0 0 1-6-6z" stroke="#fff" stroke-width="2" fill="#fff"/><path d="M916.26 942c0 5.14-13.27 9.3-29.63 9.3S857 947.14 857 942c0-5.12 13.27-9.27 29.63-9.27s29.63 4.15 29.63 9.28z" stroke="#3a414a" stroke-width="2" fill="#fff"/><path d="M857 942.56v54.4M916.26 942.68v54.4" stroke="#3a414a" stroke-width="2" stroke-linecap="round" fill="none"/><path d="M866.17 956.7c0 1.83-1.14 3.32-2.55 3.32-1.4 0-2.55-1.5-2.55-3.32 0-1.83 1.14-3.32 2.55-3.32 1.4 0 2.55 1.5 2.55 3.32zM866.17 974.93c0 1.84-1.14 3.32-2.55 3.32-1.4 0-2.55-1.48-2.55-3.32 0-1.83 1.14-3.32 2.55-3.32 1.4 0 2.55 1.5 2.55 3.33zM866.17 994.42c0 1.83-1.14 3.32-2.55 3.32-1.4 0-2.55-1.5-2.55-3.32 0-1.83 1.14-3.32 2.55-3.32 1.4 0 2.55 1.5 2.55 3.32z" stroke="#000" stroke-width="2"/><path d="M916.26 462.74c0 5.13-13.27 9.3-29.63 9.3s-29.63-4.17-29.63-9.3c0-5.13 13.27-9.3 29.63-9.3s29.63 4.17 29.63 9.3z" stroke="#3a414a" stroke-width="2" fill="#fff"/><path d="M857 450.16a6 6 0 0 1 6-6h47.26a6 6 0 0 1 6 6v6.58a6 6 0 0 1-6 6H863a6 6 0 0 1-6-6z" stroke="#fff" stroke-width="2" fill="#fff"/><path d="M916.26 444.16c0 5.13-13.27 9.3-29.63 9.3s-29.63-4.17-29.63-9.3c0-5.13 13.27-9.28 29.63-9.28s29.63 4.16 29.63 9.28z" stroke="#3a414a" stroke-width="2" fill="#fff"/><path d="M857 431.6a6 6 0 0 1 6-6h47.26a6 6 0 0 1 6 6v6.56a6 6 0 0 1-6 6H863a6 6 0 0 1-6-6z" stroke="#fff" stroke-width="2" fill="#fff"/><path d="M916.26 425.6c0 5.12-13.27 9.28-29.63 9.28s-29.63-4.16-29.63-9.3c0-5.12 13.27-9.28 29.63-9.28s29.63 4.16 29.63 9.3z" stroke="#3a414a" stroke-width="2" fill="#fff"/><path d="M857 413.84a6 6 0 0 1 6-6h47.26a6 6 0 0 1 6 6v6.58a6 6 0 0 1-6 6H863a6 6 0 0 1-6-6z" stroke="#fff" stroke-width="2" fill="#fff"/><path d="M916.26 407c0 5.14-13.27 9.3-29.63 9.3S857 412.14 857 407c0-5.12 13.27-9.27 29.63-9.27s29.63 4.15 29.63 9.28z" stroke="#3a414a" stroke-width="2" fill="#fff"/><path d="M857 407.56v54.4M916.26 407.68v54.4" stroke="#3a414a" stroke-width="2" stroke-linecap="round" fill="none"/><path d="M866.17 421.7c0 1.84-1.14 3.32-2.55 3.32-1.4 0-2.55-1.48-2.55-3.32 0-1.83 1.14-3.32 2.55-3.32 1.4 0 2.55 1.5 2.55 3.32zM866.17 439.93c0 1.84-1.14 3.32-2.55 3.32-1.4 0-2.55-1.48-2.55-3.32 0-1.83 1.14-3.32 2.55-3.32 1.4 0 2.55 1.5 2.55 3.33zM866.17 459.42c0 1.83-1.14 3.32-2.55 3.32-1.4 0-2.55-1.5-2.55-3.32 0-1.84 1.14-3.32 2.55-3.32 1.4 0 2.55 1.48 2.55 3.32z" stroke="#000" stroke-width="2"/><path d="M916.26 715.13c0 5.13-13.27 9.28-29.63 9.28S857 720.27 857 715.14s13.27-9.3 29.63-9.3 29.63 4.17 29.63 9.3z" stroke="#3a414a" stroke-width="2" fill="#fff"/><path d="M857 702.55a6 6 0 0 1 6-6h47.26a6 6 0 0 1 6 6v6.58a6 6 0 0 1-6 6H863a6 6 0 0 1-6-6z" stroke="#fff" stroke-width="2" fill="#fff"/><path d="M916.26 696.55c0 5.13-13.27 9.3-29.63 9.3s-29.63-4.17-29.63-9.3c0-5.13 13.27-9.3 29.63-9.3s29.63 4.17 29.63 9.3z" stroke="#3a414a" stroke-width="2" fill="#fff"/><path d="M857 683.98a6 6 0 0 1 6-6h47.26a6 6 0 0 1 6 6v6.57a6 6 0 0 1-6 6H863a6 6 0 0 1-6-6z" stroke="#fff" stroke-width="2" fill="#fff"/><path d="M916.26 677.98c0 5.13-13.27 9.28-29.63 9.28S857 683.1 857 677.98c0-5.13 13.27-9.3 29.63-9.3s29.63 4.17 29.63 9.3z" stroke="#3a414a" stroke-width="2" fill="#fff"/><path d="M857 666.23a6 6 0 0 1 6-6h47.26a6 6 0 0 1 6 6v6.57a6 6 0 0 1-6 6H863a6 6 0 0 1-6-6z" stroke="#fff" stroke-width="2" fill="#fff"/><path d="M916.26 659.4c0 5.13-13.27 9.3-29.63 9.3S857 664.52 857 659.4c0-5.13 13.27-9.3 29.63-9.3s29.63 4.17 29.63 9.3z" stroke="#3a414a" stroke-width="2" fill="#fff"/><path d="M857 659.95v54.4M916.26 660.07v54.4" stroke="#3a414a" stroke-width="2" stroke-linecap="round" fill="none"/><path d="M866.17 674.1c0 1.82-1.14 3.3-2.55 3.3-1.4 0-2.55-1.48-2.55-3.3 0-1.85 1.14-3.33 2.55-3.33 1.4 0 2.55 1.5 2.55 3.32zM866.17 692.32c0 1.83-1.14 3.32-2.55 3.32-1.4 0-2.55-1.5-2.55-3.32 0-1.83 1.14-3.32 2.55-3.32 1.4 0 2.55 1.5 2.55 3.32zM866.17 711.8c0 1.84-1.14 3.33-2.55 3.33-1.4 0-2.55-1.5-2.55-3.32 0-1.83 1.14-3.3 2.55-3.3 1.4 0 2.55 1.47 2.55 3.3z" stroke="#000" stroke-width="2"/><path d="M1460 281.84a6 6 0 0 1 6-6h628a6 6 0 0 1 6 6v848a6 6 0 0 1-6 6h-628a6 6 0 0 1-6-6z" stroke="#000" stroke-width="2" fill="#f2f3f5"/><use xlink:href="#a" transform="matrix(1,0,0,1,1465,280.8386829935014) translate(0 21.52777777777778)"/><use xlink:href="#o" transform="matrix(1,0,0,1,1465,280.8386829935014) translate(78.64583333333333 21.52777777777778)"/><path d="M1496.36 331a6 6 0 0 1 6-6h555.28a6 6 0 0 1 6 6v208a6 6 0 0 1-6 6h-555.28a6 6 0 0 1-6-6z" stroke="#000" stroke-width="2" fill="#ced4db"/><use xlink:href="#p" transform="matrix(1,0,0,1,1501.3636363636365,330.00000000000006) translate(0 21.52777777777778)"/><path d="M1496.36 586a6 6 0 0 1 6-6h555.28a6 6 0 0 1 6 6v208a6 6 0 0 1-6 6h-555.28a6 6 0 0 1-6-6z" stroke="#000" stroke-width="2" fill="#ced4db"/><use xlink:href="#q" transform="matrix(1,0,0,1,1501.3636363636365,585) translate(0 21.52777777777778)"/><path d="M1496.36 866a6 6 0 0 1 6-6h555.28a6 6 0 0 1 6 6v208a6 6 0 0 1-6 6h-555.28a6 6 0 0 1-6-6z" stroke="#000" stroke-width="2" fill="#ced4db"/><use xlink:href="#r" transform="matrix(1,0,0,1,1501.3636363636365,865) translate(0 21.52777777777778)"/><path d="M1663.64 376a6 6 0 0 1 6-6h188a6 6 0 0 1 6 6v118a6 6 0 0 1-6 6h-188a6 6 0 0 1-6-6z" stroke="#008a0e" stroke-width="2" fill="#54c45e"/><use xlink:href="#s" transform="matrix(1,0,0,1,1668.636363636364,375.00000000000006) translate(105.81380208333334 51.52777777777778)"/><use xlink:href="#t" transform="matrix(1,0,0,1,1668.636363636364,375.00000000000006) translate(118.21072048611111 83.79340277777777)"/><path d="M1663.64 911a6 6 0 0 1 6-6h188a6 6 0 0 1 6 6v118a6 6 0 0 1-6 6h-188a6 6 0 0 1-6-6z" stroke="#000" stroke-width="2" fill="#dedeff"/><use xlink:href="#s" transform="matrix(1,0,0,1,1668.636363636364,910) translate(105.81380208333334 51.52777777777778)"/><use xlink:href="#u" transform="matrix(1,0,0,1,1668.636363636364,910) translate(115.86697048611111 83.79340277777777)"/><path d="M1663.64 626a6 6 0 0 1 6-6h188a6 6 0 0 1 6 6v118a6 6 0 0 1-6 6h-188a6 6 0 0 1-6-6z" stroke="#000" stroke-width="2" fill="#dedeff"/><use xlink:href="#s" transform="matrix(1,0,0,1,1668.636363636364,625) translate(105.81380208333334 51.52777777777778)"/><use xlink:href="#v" transform="matrix(1,0,0,1,1668.636363636364,625) translate(115.95377604166667 83.79340277777777)"/><path d="M1863.64 381a6 6 0 0 1 6-6h28a6 6 0 0 1 6 6v108a6 6 0 0 1-6 6h-28a6 6 0 0 1-6-6z" stroke="#000" stroke-width="2" fill="#54c45e"/><use xlink:href="#w" transform="matrix(-1.8369701987210297e-16,-1,1,-1.8369701987210297e-16,1875.6363636363642,483) translate(16.3700992435292 10.251615519451638)"/><use xlink:href="#x" transform="matrix(-1.8369701987210297e-16,-1,1,-1.8369701987210297e-16,1875.6363636363642,483) translate(53.02840216323722 10.251615519451638)"/><path d="M1863.64 631a6 6 0 0 1 6-6h28a6 6 0 0 1 6 6v108a6 6 0 0 1-6 6h-28a6 6 0 0 1-6-6z" stroke="#000" stroke-width="2" fill="#6db1ff"/><use xlink:href="#w" transform="matrix(-1.8369701987210297e-16,-1,1,-1.8369701987210297e-16,1875.636363636364,732.9999999999998) translate(16.3700992435292 10.251615519451638)"/><use xlink:href="#x" transform="matrix(-1.8369701987210297e-16,-1,1,-1.8369701987210297e-16,1875.636363636364,732.9999999999998) translate(53.02840216323722 10.251615519451638)"/><path d="M1863.64 914.62a6 6 0 0 1 6-6h28a6 6 0 0 1 6 6v108a6 6 0 0 1-6 6h-28a6 6 0 0 1-6-6z" stroke="#000" stroke-width="2" fill="#6db1ff"/><use xlink:href="#w" transform="matrix(-1.8369701987210297e-16,-1,1,-1.8369701987210297e-16,1875.636363636364,1016.620845661352) translate(16.3700992435292 10.251615519451638)"/><use xlink:href="#x" transform="matrix(-1.8369701987210297e-16,-1,1,-1.8369701987210297e-16,1875.636363636364,1016.620845661352) translate(53.02840216323722 10.251615519451638)"/><path d="M2184.62 381a6 6 0 0 1 6-6h148a6 6 0 0 1 6 6v108a6 6 0 0 1-6 6h-148a6 6 0 0 1-6-6z" stroke="#000" stroke-width="2" fill="#d7faf5"/><use xlink:href="#y" transform="matrix(1,0,0,1,2196.616015461685,387) translate(46.72721354166667 57.52777777777778)"/><path d="M2181.62 435h-254.24" stroke="#3a414a" stroke-width="4" fill="none"/><path d="M2183.62 436.98h-2.05v-3.96h2.05z" stroke="#3a414a" stroke-width=".05" fill="#3a414a"/><path d="M1911.1 435l14.28-4.63v9.26z" stroke="#3a414a" stroke-width="4" fill="#3a414a"/><path d="M2184.62 629.62a6 6 0 0 1 6-6h148a6 6 0 0 1 6 6v108a6 6 0 0 1-6 6h-148a6 6 0 0 1-6-6z" stroke="#000" stroke-width="2" fill="#d7faf5"/><use xlink:href="#y" transform="matrix(1,0,0,1,2196.616015461685,635.620845661352) translate(46.72721354166667 57.52777777777778)"/><path d="M2181.62 684.04h-254.24" stroke="#3a414a" stroke-width="4" fill="none"/><path d="M2183.62 686.02h-2.05v-3.95h2.05z" stroke="#3a414a" stroke-width=".05" fill="#3a414a"/><path d="M1911.1 684.04l14.28-4.63v9.28z" stroke="#3a414a" stroke-width="4" fill="#3a414a"/><path d="M1906.64 647.2h52.74a6 6 0 0 0 6-6V473.55a6 6 0 0 0-6-6h-32" stroke="#6db1ff" stroke-width="4" fill="none"/><path d="M1906.7 649.17h-2.06v-3.95h2.05z" stroke="#6db1ff" stroke-width=".05" fill="#6db1ff"/><path d="M1911.1 467.55l14.27-4.63v9.26z" stroke="#6db1ff" stroke-width="4" fill="#6db1ff"/><path d="M2184.62 914.62a6 6 0 0 1 6-6h148a6 6 0 0 1 6 6v108a6 6 0 0 1-6 6h-148a6 6 0 0 1-6-6z" stroke="#000" stroke-width="2" fill="#d7faf5"/><use xlink:href="#y" transform="matrix(1,0,0,1,2196.616015461685,920.620845661352) translate(46.72721354166667 57.52777777777778)"/><path d="M2181.62 968.62h-254.25" stroke="#3a414a" stroke-width="4" fill="none"/><path d="M2183.62 970.6h-2.05v-3.95h2.05z" stroke="#3a414a" stroke-width=".05" fill="#3a414a"/><path d="M1911.1 968.62l14.27-4.63v9.26z" stroke="#3a414a" stroke-width="4" fill="#3a414a"/><path d="M1906.64 934.42h92.74a6 6 0 0 0 6-6V455.26a6 6 0 0 0-6-6h-72" stroke="#6db1ff" stroke-width="4" fill="none"/><path d="M1906.7 936.4h-2.06v-3.96h2.05z" stroke="#6db1ff" stroke-width=".05" fill="#6db1ff"/><path d="M1911.1 449.26l14.27-4.63v9.27z" stroke="#6db1ff" stroke-width="4" fill="#6db1ff"/><path d="M1644.14 442.4l-.32.12-1.93.8-1.94.92-1.92 1-1.92 1.1-1.92 1.23-1.94 1.35-1.95 1.48-1.96 1.63-2 1.8-2 1.97-2.05 2.17-2.08 2.4-2.1 2.65-2.12 2.93-2.15 3.24-2.18 3.58-2.2 4-2.18 4.4-2.2 4.9-2.13 5.42-2.08 5.98-2 6.58-1.84 7.2-1.66 7.8-1.4 8.4-1.13 8.88-.78 9.3-.4 9.55v9.63l.4 9.56.77 9.28 1.12 8.9 1.4 8.38 1.66 7.8 1.85 7.2 2 6.57 2.08 6 2.14 5.4 2.18 4.9 2.2 4.4 2.18 4 2.17 3.6 2.15 3.23 2.13 2.93 2.1 2.64 2.07 2.4 2.04 2.17 2.02 1.98 2 1.8 1.95 1.62 1.96 1.5 1.94 1.33 1.93 1.22 1.92 1.1 1.92 1.02 1.92.9 1.92.8.33.13" stroke="#3a414a" stroke-width="4" stroke-linejoin="round" fill="none"/><path d="M1643.88 434l-.75.24-2.26.84-2.24.94-2.23 1.05-2.2 1.16-2.23 1.27-2.2 1.4-2.22 1.55-2.2 1.68-2.24 1.84-2.23 2.02-2.25 2.2-2.27 2.42-2.3 2.65-2.3 2.9-2.32 3.2-2.34 3.53-2.36 3.88-2.35 4.28-2.35 4.72-2.3 5.2-2.28 5.73-2.2 6.3-2.07 6.9-1.93 7.53-1.73 8.13-1.47 8.72-1.16 9.23-.8 9.63-.4 9.9V565l.4 9.9.8 9.62 1.17 9.22 1.48 8.72 1.72 8.13 1.93 7.5 2.08 6.9 2.2 6.3 2.26 5.73 2.32 5.2 2.34 4.72 2.35 4.28 2.34 3.87 2.33 3.53 2.33 3.2 2.3 2.9 2.3 2.66 2.26 2.4 2.26 2.22 2.23 2 2.24 1.86 2.22 1.68 2.2 1.54 2.22 1.4 2.2 1.27 2.23 1.16 2.23 1.05 2.25.94 2.26.84.74.25" stroke="#3a414a" stroke-width="4" stroke-linejoin="round" fill="none"/><path d="M1658.7 435.67l-11.55 9.58-2.53-14.78zM1658.7 684.33l-14.07 5.2 2.52-14.78z" stroke="#3a414a" stroke-width="4" fill="#3a414a"/><path d="M1739.9 997.74c0 5.13-13.27 9.3-29.63 9.3-16.37 0-29.63-4.17-29.63-9.3 0-5.13 13.26-9.3 29.63-9.3 16.36 0 29.63 4.17 29.63 9.3z" stroke="#3a414a" stroke-width="2" fill="#fff"/><path d="M1680.64 985.16a6 6 0 0 1 6-6h47.26a6 6 0 0 1 6 6v6.58a6 6 0 0 1-6 6h-47.26a6 6 0 0 1-6-6z" stroke="#fff" stroke-width="2" fill="#fff"/><path d="M1739.9 979.16c0 5.13-13.27 9.3-29.63 9.3-16.37 0-29.63-4.17-29.63-9.3 0-5.13 13.26-9.28 29.63-9.28 16.36 0 29.63 4.15 29.63 9.28z" stroke="#3a414a" stroke-width="2" fill="#fff"/><path d="M1680.64 966.6a6 6 0 0 1 6-6h47.26a6 6 0 0 1 6 6v6.56a6 6 0 0 1-6 6h-47.26a6 6 0 0 1-6-6z" stroke="#fff" stroke-width="2" fill="#fff"/><path d="M1739.9 960.6c0 5.12-13.27 9.28-29.63 9.28-16.37 0-29.63-4.16-29.63-9.3 0-5.12 13.26-9.28 29.63-9.28 16.36 0 29.63 4.16 29.63 9.3z" stroke="#3a414a" stroke-width="2" fill="#fff"/><path d="M1680.64 948.84a6 6 0 0 1 6-6h47.26a6 6 0 0 1 6 6v6.57a6 6 0 0 1-6 6h-47.26a6 6 0 0 1-6-6z" stroke="#fff" stroke-width="2" fill="#fff"/><path d="M1739.9 942c0 5.14-13.27 9.3-29.63 9.3-16.37 0-29.63-4.16-29.63-9.3 0-5.12 13.26-9.27 29.63-9.27 16.36 0 29.63 4.15 29.63 9.28z" stroke="#3a414a" stroke-width="2" fill="#fff"/><path d="M1680.64 942.56v54.4M1739.9 942.68v54.4" stroke="#3a414a" stroke-width="2" stroke-linecap="round" fill="none"/><path d="M1689.8 956.7c0 1.83-1.14 3.32-2.54 3.32-1.4 0-2.55-1.5-2.55-3.32 0-1.83 1.15-3.32 2.56-3.32 1.4 0 2.54 1.5 2.54 3.32zM1689.8 974.93c0 1.84-1.14 3.32-2.54 3.32-1.4 0-2.55-1.48-2.55-3.32 0-1.83 1.15-3.32 2.56-3.32 1.4 0 2.54 1.5 2.54 3.33zM1689.8 994.42c0 1.83-1.14 3.32-2.54 3.32-1.4 0-2.55-1.5-2.55-3.32 0-1.83 1.15-3.32 2.56-3.32 1.4 0 2.54 1.5 2.54 3.32z" stroke="#000" stroke-width="2"/><path d="M1739.9 462.74c0 5.13-13.27 9.3-29.63 9.3-16.37 0-29.63-4.17-29.63-9.3 0-5.13 13.26-9.3 29.63-9.3 16.36 0 29.63 4.17 29.63 9.3z" stroke="#3a414a" stroke-width="2" fill="#fff"/><path d="M1680.64 450.16a6 6 0 0 1 6-6h47.26a6 6 0 0 1 6 6v6.58a6 6 0 0 1-6 6h-47.26a6 6 0 0 1-6-6z" stroke="#fff" stroke-width="2" fill="#fff"/><path d="M1739.9 444.16c0 5.13-13.27 9.3-29.63 9.3-16.37 0-29.63-4.17-29.63-9.3 0-5.13 13.26-9.28 29.63-9.28 16.36 0 29.63 4.16 29.63 9.28z" stroke="#3a414a" stroke-width="2" fill="#fff"/><path d="M1680.64 431.6a6 6 0 0 1 6-6h47.26a6 6 0 0 1 6 6v6.56a6 6 0 0 1-6 6h-47.26a6 6 0 0 1-6-6z" stroke="#fff" stroke-width="2" fill="#fff"/><path d="M1739.9 425.6c0 5.12-13.27 9.28-29.63 9.28-16.37 0-29.63-4.16-29.63-9.3 0-5.12 13.26-9.28 29.63-9.28 16.36 0 29.63 4.16 29.63 9.3z" stroke="#3a414a" stroke-width="2" fill="#fff"/><path d="M1680.64 413.84a6 6 0 0 1 6-6h47.26a6 6 0 0 1 6 6v6.58a6 6 0 0 1-6 6h-47.26a6 6 0 0 1-6-6z" stroke="#fff" stroke-width="2" fill="#fff"/><path d="M1739.9 407c0 5.14-13.27 9.3-29.63 9.3-16.37 0-29.63-4.16-29.63-9.3 0-5.12 13.26-9.27 29.63-9.27 16.36 0 29.63 4.15 29.63 9.28z" stroke="#3a414a" stroke-width="2" fill="#fff"/><path d="M1680.64 407.56v54.4M1739.9 407.68v54.4" stroke="#3a414a" stroke-width="2" stroke-linecap="round" fill="none"/><path d="M1689.8 421.7c0 1.84-1.14 3.32-2.54 3.32-1.4 0-2.55-1.48-2.55-3.32 0-1.83 1.15-3.32 2.56-3.32 1.4 0 2.54 1.5 2.54 3.32zM1689.8 439.93c0 1.84-1.14 3.32-2.54 3.32-1.4 0-2.55-1.48-2.55-3.32 0-1.83 1.15-3.32 2.56-3.32 1.4 0 2.54 1.5 2.54 3.33zM1689.8 459.42c0 1.83-1.14 3.32-2.54 3.32-1.4 0-2.55-1.5-2.55-3.32 0-1.84 1.15-3.32 2.56-3.32 1.4 0 2.54 1.48 2.54 3.32z" stroke="#000" stroke-width="2"/><path d="M1739.9 715.13c0 5.13-13.27 9.28-29.63 9.28-16.37 0-29.63-4.14-29.63-9.27s13.26-9.3 29.63-9.3c16.36 0 29.63 4.17 29.63 9.3z" stroke="#3a414a" stroke-width="2" fill="#fff"/><path d="M1680.64 702.55a6 6 0 0 1 6-6h47.26a6 6 0 0 1 6 6v6.58a6 6 0 0 1-6 6h-47.26a6 6 0 0 1-6-6z" stroke="#fff" stroke-width="2" fill="#fff"/><path d="M1739.9 696.55c0 5.13-13.27 9.3-29.63 9.3-16.37 0-29.63-4.17-29.63-9.3 0-5.13 13.26-9.3 29.63-9.3 16.36 0 29.63 4.17 29.63 9.3z" stroke="#3a414a" stroke-width="2" fill="#fff"/><path d="M1680.64 683.98a6 6 0 0 1 6-6h47.26a6 6 0 0 1 6 6v6.57a6 6 0 0 1-6 6h-47.26a6 6 0 0 1-6-6z" stroke="#fff" stroke-width="2" fill="#fff"/><path d="M1739.9 677.98c0 5.13-13.27 9.28-29.63 9.28-16.37 0-29.63-4.15-29.63-9.28 0-5.13 13.26-9.3 29.63-9.3 16.36 0 29.63 4.17 29.63 9.3z" stroke="#3a414a" stroke-width="2" fill="#fff"/><path d="M1680.64 666.23a6 6 0 0 1 6-6h47.26a6 6 0 0 1 6 6v6.57a6 6 0 0 1-6 6h-47.26a6 6 0 0 1-6-6z" stroke="#fff" stroke-width="2" fill="#fff"/><path d="M1739.9 659.4c0 5.13-13.27 9.3-29.63 9.3-16.37 0-29.63-4.17-29.63-9.3 0-5.13 13.26-9.3 29.63-9.3 16.36 0 29.63 4.17 29.63 9.3z" stroke="#3a414a" stroke-width="2" fill="#fff"/><path d="M1680.64 659.95v54.38M1739.9 660.07v54.4" stroke="#3a414a" stroke-width="2" stroke-linecap="round" fill="none"/><path d="M1689.8 674.1c0 1.82-1.14 3.3-2.54 3.3-1.4 0-2.55-1.48-2.55-3.3 0-1.85 1.15-3.33 2.56-3.33 1.4 0 2.54 1.5 2.54 3.32zM1689.8 692.32c0 1.83-1.14 3.32-2.54 3.32-1.4 0-2.55-1.5-2.55-3.32 0-1.83 1.15-3.32 2.56-3.32 1.4 0 2.54 1.5 2.54 3.32zM1689.8 711.8c0 1.84-1.14 3.33-2.54 3.33-1.4 0-2.55-1.5-2.55-3.32 0-1.83 1.15-3.3 2.56-3.3 1.4 0 2.54 1.47 2.54 3.3z" stroke="#000" stroke-width="2"/><path d="M1643.8 440.5l-.8.12-4.6.88-4.53 1.06-4.45 1.25-4.4 1.43-4.34 1.62-4.3 1.8-4.3 2.03-4.27 2.24-4.27 2.47-4.28 2.7-4.3 3-4.33 3.28-4.36 3.6-4.4 3.97-4.45 4.36-4.5 4.8-4.54 5.28-4.6 5.82-4.67 6.43-4.73 7.1-4.75 7.85-4.77 8.7-4.78 9.6-4.74 10.66-4.65 11.78-4.52 12.98-4.3 14.26-4 15.6-3.58 16.88-3.06 18.13-2.43 19.22-1.7 20.08-.85 20.63v20.84l.86 20.63 1.7 20.08 2.42 19.23 3.07 18.12 3.57 16.9 4 15.57 4.3 14.26 4.52 12.98 4.64 11.78 4.74 10.65 4.78 9.62 4.77 8.7 4.75 7.84 4.72 7.1 4.66 6.4 4.6 5.83 4.57 5.28 4.5 4.8 4.44 4.36 4.4 3.96 4.36 3.6 4.33 3.3 4.3 2.98 4.28 2.72 4.28 2.47 4.27 2.23 4.28 2 4.3 1.82 4.36 1.62 4.4 1.43 4.44 1.24 4.52 1.06 4.6.88.8.12" stroke="#3a414a" stroke-width="4" stroke-linejoin="round" fill="none"/><path d="M1643.63 432.44l-1.96.3-4.94.94-4.85 1.13-4.77 1.34-4.7 1.54-4.66 1.73-4.62 1.95-4.6 2.16-4.57 2.4-4.57 2.64-4.56 2.9-4.58 3.18-4.6 3.5-4.6 3.8-4.66 4.2-4.7 4.6-4.7 5.03-4.8 5.53-4.8 6.1-4.87 6.68-4.88 7.38-4.93 8.14-4.95 8.98-4.92 9.93-4.87 10.95-4.78 12.08-4.63 13.3-4.4 14.58-4.08 15.92-3.65 17.22-3.12 18.46-2.47 19.56-1.7 20.42-.88 20.97v21.16l.88 20.98 1.7 20.4 2.48 19.56 3.13 18.46 3.65 17.22 4.08 15.9 4.4 14.58 4.63 13.3 4.77 12.08 4.87 10.96 4.93 9.92 4.93 8.98 4.93 8.14 4.9 7.38 4.86 6.7 4.8 6.07 4.78 5.53 4.73 5.04 4.7 4.6 4.64 4.18 4.62 3.82 4.6 3.5 4.57 3.17 4.57 2.9 4.56 2.63 4.58 2.4 4.6 2.15 4.6 1.95 4.67 1.73 4.72 1.53 4.77 1.33 4.84 1.13 4.94.94 1.96.3" stroke="#3a414a" stroke-width="4" stroke-linejoin="round" fill="none"/><path d="M1658.64 435.3l-12.37 8.5-1.16-14.96zM1658.65 969.7l-13.54 6.46 1.18-14.96z" stroke="#3a414a" stroke-width="4" fill="#3a414a"/><path d="M1644.04 691.95l-.82.27-2.24.83-2.23.94-2.2 1.03-2.22 1.15-2.2 1.28-2.23 1.4-2.22 1.55-2.25 1.72-2.26 1.87-2.28 2.05-2.33 2.26-2.34 2.5-2.38 2.76-2.4 3.04-2.44 3.36-2.46 3.72-2.5 4.1-2.5 4.57-2.5 5.06-2.5 5.6-2.45 6.2-2.4 6.85-2.26 7.53-2.1 8.22-1.9 8.93-1.62 9.58-1.28 10.17-.9 10.62-.45 10.9v11.02l.45 10.9.9 10.63 1.28 10.17 1.62 9.58 1.9 8.92 2.1 8.22 2.27 7.52 2.38 6.84 2.45 6.2 2.5 5.6 2.5 5.06 2.5 4.56 2.5 4.1 2.47 3.73 2.43 3.36 2.4 3.04 2.4 2.76 2.33 2.5 2.3 2.26 2.3 2.06 2.26 1.87 2.24 1.7 2.23 1.54 2.22 1.4 2.2 1.28 2.22 1.15 2.22 1.05 2.22.93 2.24.83.82.27" stroke="#3a414a" stroke-width="4" stroke-linejoin="round" fill="none"/><path d="M1643.8 683.64l-.63.18-2.58.84-2.57.95-2.53 1.08-2.52 1.18-2.5 1.3-2.5 1.46-2.5 1.58-2.5 1.74-2.52 1.9-2.52 2.1-2.53 2.28-2.55 2.5-2.57 2.74-2.6 3-2.6 3.3-2.64 3.63-2.65 4-2.68 4.4-2.67 4.85-2.65 5.36-2.63 5.9-2.58 6.53-2.5 7.16-2.36 7.83-2.2 8.55-1.96 9.25-1.67 9.9-1.32 10.5-.9 10.96-.5 11.24v11.35l.5 11.24.9 10.95 1.33 10.48 1.68 9.9 1.97 9.26 2.2 8.55 2.36 7.83 2.5 7.16 2.57 6.5 2.63 5.9 2.66 5.36 2.67 4.86 2.66 4.4 2.64 4 2.64 3.62 2.62 3.3 2.6 3 2.56 2.75 2.55 2.5 2.55 2.27 2.52 2.1 2.5 1.9 2.5 1.73 2.5 1.6 2.5 1.43 2.5 1.3 2.53 1.2 2.54 1.06 2.55.94 2.58.84.63.18" stroke="#3a414a" stroke-width="4" stroke-linejoin="round" fill="none"/><path d="M1658.68 685.6l-11.75 9.32-2.2-14.84zM1658.68 969.4l-13.95 5.52 2.2-14.84z" stroke="#3a414a" stroke-width="4" fill="#3a414a"/><path d="M1643.64 689H1060M1643.64 681H1060" stroke="#3a414a" stroke-width="4" stroke-linejoin="round" fill="none"/><path d="M1658.63 685l-13 7.5v-15zM1045 685l13-7.5v15z" stroke="#3a414a" stroke-width="4" fill="#3a414a"/><path d="M1643.72 439.4l-4.03.07-20.9 1.3-19.2 2.03-17.86 2.63-16.77 3.2-15.9 3.72-15.22 4.25-14.74 4.8-14.4 5.36-14.32 6-14.42 6.8-14.8 7.74-15.65 9.04-17.23 10.96-20.67 14.4-33.32 25.44-73.5 57.62-20.98 14.6-17.53 11.14-15.93 9.2-15.1 7.9-14.73 6.94-14.6 6.14-14.75 5.5-15.05 4.88-15.55 4.34-16.22 3.8-17.1 3.26-18.2 2.68-19.54 2.05-21.22 1.32-4.3.1" stroke="#3a414a" stroke-width="4" stroke-linejoin="round" fill="none"/><path d="M1643.56 431.4l-4.2.08-21.2 1.33-19.56 2.06-18.2 2.68-17.1 3.26-16.22 3.8-15.54 4.34-15.06 4.9-14.74 5.48-14.62 6.14-14.7 6.93-15.13 7.9-15.94 9.2-17.53 11.14-20.94 14.6-33.52 25.58-73.37 57.5-20.63 14.38-17.24 10.96-15.65 9.04-14.8 7.74-14.42 6.8-14.3 6-14.44 5.37-14.73 4.8-15.24 4.25-15.9 3.72-16.76 3.2-17.86 2.63-19.22 2.02-20.88 1.3-4.12.1" stroke="#3a414a" stroke-width="4" stroke-linejoin="round" fill="none"/><path d="M1658.63 435.08l-12.84 7.77-.3-15zM1045 684.92l12.83-7.77.3 15z" stroke="#3a414a" stroke-width="4" fill="#3a414a"/><path d="M1643.56 973.6l-1.48-.02-18.95-1.2-17.63-1.84-16.53-2.44-15.63-2.98-14.9-3.5-14.34-4-13.9-4.5-13.58-5.06-13.42-5.64-13.4-6.3-13.54-7.1-13.93-8.04-14.62-9.28-15.84-11.03-18.14-13.8-23.6-19.57-105.22-92.95-17.84-13.55-15.57-10.84-14.34-9.1-13.63-7.88-13.25-6.93-13.1-6.16-13.1-5.52-13.28-4.94-13.57-4.4-14-3.92-14.6-3.4-15.3-2.93-16.2-2.4-17.3-1.8-18.6-1.18-1.4-.03" stroke="#3a414a" stroke-width="4" stroke-linejoin="round" fill="none"/><path d="M1643.72 965.6l-1.3-.02-18.63-1.17-17.3-1.8-16.2-2.4-15.3-2.9-14.58-3.42-14-3.9-13.58-4.42-13.28-4.94-13.1-5.5-13.1-6.17-13.25-6.94-13.62-7.86-14.34-9.1-15.57-10.84-17.88-13.6-23.38-19.38-105.35-93.06-18.2-13.83-15.85-11.03-14.62-9.28-13.92-8.05-13.55-7.08-13.4-6.32-13.4-5.64-13.6-5.05-13.9-4.53-14.32-4-14.9-3.5-15.64-2.97-16.53-2.44-17.62-1.85-18.94-1.18-1.57-.03" stroke="#3a414a" stroke-width="4" stroke-linejoin="round" fill="none"/><path d="M1658.63 969.92l-13.15 7.23.32-15zM1045 685.08l13.14-7.23-.3 15z" stroke="#3a414a" stroke-width="4" fill="#3a414a"/><path d="M1643.57 973.28l-2.97-.2-10.38-1.08-10.04-1.48-9.75-1.86-9.53-2.24-9.34-2.6-9.2-3-9.1-3.38-9.05-3.8-9.03-4.26-9.07-4.74-9.15-5.3-9.3-5.88-9.46-6.6-9.74-7.38-10.08-8.34-10.52-9.48-11.1-10.9-11.9-12.66-12.96-15.04-14.54-18.37-17.08-23.56-22.17-33.47-121.37-199.32-16.83-23.2-14.33-18.1-12.75-14.8-11.66-12.42-10.87-10.66-10.28-9.25-9.8-8.13-9.48-7.2-9.2-6.4-9-5.7-8.86-5.13-8.78-4.58-8.73-4.13-8.74-3.67-8.8-3.27-8.87-2.9-9.02-2.5-9.2-2.16-9.42-1.8-9.7-1.43-10.05-1.06-2.56-.16" stroke="#3a414a" stroke-width="4" stroke-linejoin="round" fill="none"/><path d="M1643.74 965.27l-2.47-.15-10.05-1.06-9.7-1.43-9.43-1.8-9.2-2.16-9.02-2.5-8.88-2.9-8.8-3.27-8.73-3.67-8.74-4.12-8.77-4.58-8.86-5.1-9-5.73-9.2-6.4-9.47-7.2-9.82-8.12-10.26-9.25-10.87-10.66-11.66-12.42-12.73-14.8-14.33-18.1-16.88-23.26-22-33.22-121.46-199.46-17.12-23.6-14.54-18.38-12.97-15.04-11.9-12.67-11.1-10.9-10.52-9.47-10.07-8.34-9.74-7.4-9.47-6.58-9.28-5.9-9.16-5.28-9.08-4.74-9.04-4.25-9.05-3.8-9.1-3.4-9.2-3-9.34-2.6-9.52-2.23-9.75-1.86-10.04-1.48-10.36-1.1-3.07-.18" stroke="#3a414a" stroke-width="4" stroke-linejoin="round" fill="none"/><path d="M1658.63 969.85l-13.27 7 .58-15zM1045 435.15l13.27-7-.58 15z" stroke="#3a414a" stroke-width="4" fill="#3a414a"/><path d="M1643.74 439.72l-2.7.17-10.16 1.06-9.8 1.45-9.5 1.82-9.3 2.18-9.1 2.54-8.94 2.9-8.86 3.3-8.8 3.7-8.8 4.15-8.85 4.6-8.93 5.17-9.06 5.75-9.27 6.44-9.53 7.25-9.9 8.2-10.35 9.32-10.97 10.75-11.78 12.55-12.9 14.96-14.55 18.4-17.27 23.8-22.96 34.68-115.65 188.42-17.5 24.14-14.77 18.65-13.12 15.22-12 12.8-11.2 10.97-10.6 9.55-10.16 8.4-9.8 7.45-9.54 6.63-9.35 5.93-9.22 5.33-9.13 4.77-9.1 4.3-9.12 3.82-9.17 3.42-9.27 3-9.42 2.64-9.6 2.26-9.85 1.88-10.14 1.5-10.48 1.1-3.3.2" stroke="#3a414a" stroke-width="4" stroke-linejoin="round" fill="none"/><path d="M1643.57 431.72l-3.2.2-10.5 1.1-10.12 1.5-9.85 1.87-9.6 2.25-9.42 2.63-9.28 3-9.17 3.42-9.12 3.84-9.1 4.28-9.13 4.78-9.2 5.32-9.36 5.94-9.53 6.63-9.8 7.44-10.15 8.4-10.6 9.55-11.2 10.97-12.02 12.8-13.12 15.22-14.76 18.64-17.46 24.08-23.13 34.93-115.57 188.28-17.22 23.76-14.56 18.38-12.9 14.96-11.77 12.55-10.96 10.74-10.35 9.33-9.9 8.18-9.54 7.24-9.26 6.43-9.07 5.76-8.92 5.15-8.83 4.62-8.8 4.14-8.8 3.7-8.87 3.3-8.96 2.92-9.1 2.54-9.27 2.18-9.5 1.8-9.82 1.46-10.14 1.06-2.8.18" stroke="#3a414a" stroke-width="4" stroke-linejoin="round" fill="none"/><path d="M1658.63 435.15l-12.7 8-.57-15zM1045 963.8l12.7-7.98.56 15z" stroke="#3a414a" stroke-width="4" fill="#3a414a"/><path d="M1643.56 688.6l-4.2-.08-21.2-1.33-19.56-2.06-18.2-2.68-17.1-3.26-16.22-3.8-15.54-4.34-15.06-4.9-14.74-5.48-14.62-6.14-14.7-6.93-15.13-7.9-15.94-9.2-17.53-11.14-20.94-14.6-33.52-25.58-73.37-57.5-20.63-14.38-17.24-10.96-15.65-9.04-14.8-7.74-14.42-6.8-14.3-6-14.44-5.37-14.73-4.8-15.24-4.25-15.9-3.72-16.76-3.2-17.86-2.63-19.22-2.02-20.88-1.3-4.12-.1" stroke="#3a414a" stroke-width="4" stroke-linejoin="round" fill="none"/><path d="M1643.72 680.6l-4.03-.07-20.9-1.3-19.2-2.03-17.86-2.63-16.77-3.2-15.9-3.72-15.22-4.25-14.74-4.8-14.4-5.36-14.32-6-14.42-6.8-14.8-7.74-15.65-9.04-17.23-10.96-20.67-14.4-33.32-25.44-73.5-57.62-20.98-14.6-17.53-11.14-15.93-9.2-15.1-7.9-14.73-6.94-14.6-6.14-14.75-5.5-15.05-4.88-15.55-4.34-16.22-3.8-17.1-3.26-18.2-2.68-19.54-2.05-21.22-1.32-4.3-.1" stroke="#3a414a" stroke-width="4" stroke-linejoin="round" fill="none"/><path d="M1658.63 684.92l-13.14 7.23.3-15zM1045 435.08l13.14-7.23-.3 15z" stroke="#3a414a" stroke-width="4" fill="#3a414a"/><path d="M1643.72 689.4l-1.3.02-18.63 1.17-17.3 1.8-16.2 2.4-15.3 2.9-14.58 3.42-14 3.9-13.58 4.42-13.28 4.94-13.1 5.5-13.1 6.17-13.25 6.94-13.62 7.86-14.34 9.1-15.57 10.84-17.88 13.6-23.38 19.38-105.35 93.06-18.2 13.83-15.85 11.03-14.62 9.28-13.92 8.05-13.55 7.08-13.4 6.32-13.4 5.64-13.6 5.05-13.9 4.53-14.32 4-14.9 3.5-15.64 2.97-16.53 2.44-17.62 1.85-18.94 1.18-1.57.03" stroke="#3a414a" stroke-width="4" stroke-linejoin="round" fill="none"/><path d="M1643.56 681.4l-1.48.02-18.95 1.2-17.63 1.84-16.53 2.44-15.63 2.98-14.9 3.5-14.34 4-13.9 4.5-13.58 5.06-13.42 5.64-13.4 6.3-13.54 7.1-13.93 8.04-14.62 9.28-15.84 11.03-18.14 13.8-23.6 19.57-105.22 92.95-17.84 13.55-15.57 10.84-14.34 9.1-13.63 7.88-13.25 6.93-13.1 6.16-13.1 5.52-13.28 4.94-13.57 4.4-14 3.92-14.6 3.4-15.3 2.93-16.2 2.4-17.3 1.8-18.6 1.18-1.4.03" stroke="#3a414a" stroke-width="4" stroke-linejoin="round" fill="none"/><path d="M1658.63 685.08l-12.84 7.77-.32-15zM1045 969.92l12.83-7.77.3 15z" stroke="#3a414a" stroke-width="4" fill="#3a414a"/><path d="M1023.64 1246a6 6 0 0 1 6-6h628a6 6 0 0 1 6 6v208.32a6 6 0 0 1-6 6h-628a6 6 0 0 1-6-6z" stroke="#000" stroke-width="2" fill="#f2f3f5"/><use xlink:href="#a" transform="matrix(1,0,0,1,1028.636363636364,1245) translate(0 21.52777777777778)"/><use xlink:href="#z" transform="matrix(1,0,0,1,1028.636363636364,1245) translate(78.64583333333333 21.52777777777778)"/><use xlink:href="#A" transform="matrix(1,0,0,1,1028.636363636364,1245) translate(101.12847222222221 21.52777777777778)"/><path d="M1260 1286a6 6 0 0 1 6-6h188a6 6 0 0 1 6 6v118a6 6 0 0 1-6 6h-188a6 6 0 0 1-6-6z" stroke="#000" stroke-width="2" fill="#dedeff"/><use xlink:href="#B" transform="matrix(1,0,0,1,1265,1285) translate(87.95355902777777 51.52777777777778)"/><use xlink:href="#C" transform="matrix(1,0,0,1,1265,1285) translate(117.36436631944444 83.79340277777777)"/><path d="M1220 1291a6 6 0 0 1 6-6h28a6 6 0 0 1 6 6v108a6 6 0 0 1-6 6h-28a6 6 0 0 1-6-6z" stroke="#000" stroke-width="2" fill="#6db1ff"/><use xlink:href="#w" transform="matrix(-1.8369701987210297e-16,-1,1,-1.8369701987210297e-16,1232,1393.0000000000002) translate(16.3700992435292 10.251615519451638)"/><use xlink:href="#x" transform="matrix(-1.8369701987210297e-16,-1,1,-1.8369701987210297e-16,1232,1393.0000000000002) translate(53.02840216323722 10.251615519451638)"/><path d="M1336.26 1372.74c0 5.13-13.27 9.3-29.63 9.3s-29.63-4.17-29.63-9.3c0-5.13 13.27-9.3 29.63-9.3s29.63 4.17 29.63 9.3z" stroke="#3a414a" stroke-width="2" fill="#fff"/><path d="M1277 1360.16a6 6 0 0 1 6-6h47.26a6 6 0 0 1 6 6v6.58a6 6 0 0 1-6 6H1283a6 6 0 0 1-6-6z" stroke="#fff" stroke-width="2" fill="#fff"/><path d="M1336.26 1354.16c0 5.13-13.27 9.3-29.63 9.3s-29.63-4.17-29.63-9.3c0-5.13 13.27-9.28 29.63-9.28s29.63 4.15 29.63 9.28z" stroke="#3a414a" stroke-width="2" fill="#fff"/><path d="M1277 1341.6a6 6 0 0 1 6-6h47.26a6 6 0 0 1 6 6v6.56a6 6 0 0 1-6 6H1283a6 6 0 0 1-6-6z" stroke="#fff" stroke-width="2" fill="#fff"/><path d="M1336.26 1335.6c0 5.12-13.27 9.28-29.63 9.28s-29.63-4.16-29.63-9.3c0-5.12 13.27-9.28 29.63-9.28s29.63 4.16 29.63 9.3z" stroke="#3a414a" stroke-width="2" fill="#fff"/><path d="M1277 1323.84a6 6 0 0 1 6-6h47.26a6 6 0 0 1 6 6v6.58a6 6 0 0 1-6 6H1283a6 6 0 0 1-6-6z" stroke="#fff" stroke-width="2" fill="#fff"/><path d="M1336.26 1317c0 5.14-13.27 9.3-29.63 9.3s-29.63-4.16-29.63-9.3c0-5.12 13.27-9.27 29.63-9.27s29.63 4.15 29.63 9.28z" stroke="#3a414a" stroke-width="2" fill="#fff"/><path d="M1277 1317.56v54.4M1336.26 1317.68v54.4" stroke="#3a414a" stroke-width="2" stroke-linecap="round" fill="none"/><path d="M1360 1278.5l-.25-11.53-.75-11.94-1.25-11.88-1.75-11.82-2.25-11.8-2.75-11.73-3.28-11.73-3.8-11.7-4.34-11.67-4.9-11.64-5.46-11.6-6.04-11.56-6.63-11.48-7.23-11.4-7.84-11.28-8.45-11.12-9.05-10.94-9.63-10.7-10.2-10.4-10.74-10.1-11.22-9.7-11.68-9.24-12.05-8.76-12.38-8.22-12.6-7.64-12.8-7.03-12.86-6.4-12.88-5.74-12.83-5.08-12.72-4.42-12.53-3.8-12.32-3.15-12.05-2.55-11.77-2-11.44-1.44-8.02-.67" stroke="#3a414a" stroke-linejoin="round" fill="none"/><path d="M1360.47 1279h-.94l-.02-.5.96-.03z" stroke="#3a414a" stroke-width=".05" fill="#3a414a"/><path d="M1046.5 963.95l14.46-3.97-.43 9.26z" stroke="#3a414a" fill="#3a414a"/><path d="M1360 1278.5l.3-13.38.85-13.62 1.4-13.36 1.93-13.1 2.46-12.86 2.95-12.6 3.44-12.34 3.92-12.08 4.4-11.82 4.85-11.55 5.32-11.3 5.74-10.98 6.18-10.7 6.6-10.4 7-10.08 7.42-9.76 7.8-9.43 8.18-9.1 8.56-8.72 8.9-8.37 9.27-8 9.6-7.6 9.92-7.2 10.23-6.82 10.55-6.38 10.85-5.96 11.13-5.53 11.4-5.08 11.7-4.64 11.95-4.16 12.22-3.7 12.47-3.2 12.72-2.7 12.98-2.2 13.23-1.66 13.5-1.13 4.33-.17" stroke="#3a414a" stroke-linejoin="round" fill="none"/><path d="M1360.5 1278.5l-.03.5h-.94v-.53z" stroke="#3a414a" stroke-width=".05" fill="#3a414a"/><path d="M1661.02 976.4l-14.13 5.05-.27-9.27z" stroke="#3a414a" fill="#3a414a"/><path d="M1360 1278.5l1.92-98.26 4.37-70.5 5.74-55.1 6.58-44.74 7.08-37.23 7.37-31.5 7.53-27.03 7.6-23.44 7.63-20.53 7.62-18.13 7.58-16.12 7.53-14.43 7.5-13 7.46-11.75 7.42-10.7 7.4-9.75 7.4-8.95 7.4-8.22 7.43-7.58 7.46-7 7.5-6.5 7.6-6 7.7-5.6 7.8-5.18 7.93-4.8 8.12-4.47 8.3-4.13 8.54-3.8 8.8-3.48 9.1-3.18 9.44-2.85 9.83-2.52 10.27-2.18 10.78-1.83 11.37-1.43 12.02-1 3.12-.13" stroke="#3a414a" stroke-linejoin="round" fill="none"/><path d="M1360.48 1278.5v.5h-.95v-.53z" stroke="#3a414a" stroke-width=".05" fill="#3a414a"/><path d="M1661.02 685.05l-14.13 5.04-.28-9.27z" stroke="#3a414a" fill="#3a414a"/><path d="M1360 1278.5l-1.66-81.87-4.12-66.24-5.7-54.53-6.7-45.6-7.35-38.63-7.74-33.1-7.98-28.6-8.1-24.97-8.15-21.94-8.16-19.42-8.14-17.3-8.1-15.5-8.06-13.98-8.02-12.65-7.98-11.5-7.96-10.48-7.95-9.62-7.94-8.83-7.97-8.13-8-7.5-8.03-6.94-8.1-6.43-8.2-5.96-8.33-5.53-8.45-5.12-8.6-4.74-8.82-4.36-9.04-4.02-9.3-3.68-9.58-3.34-9.93-3-10.32-2.65-10.76-2.28-11.27-1.9-11.83-1.5-12.5-1.05-3.8-.15" stroke="#3a414a" stroke-linejoin="round" fill="none"/><path d="M1360.47 1279h-.94v-.5l.93-.03z" stroke="#3a414a" stroke-width=".05" fill="#3a414a"/><path d="M1042.62 685.05l14.4-4.23-.27 9.26z" stroke="#3a414a" fill="#3a414a"/><path d="M1360 1278.5l-.94-347.15-4.74-76.95-5.83-55.93-6.45-43.85-6.8-35.78-7.02-29.98-7.13-25.6-7.2-22.17-7.22-19.45-7.23-17.22-7.23-15.4-7.23-13.83-7.24-12.53-7.24-11.4-7.26-10.46-7.3-9.6-7.33-8.87-7.4-8.22-7.47-7.63-7.58-7.1-7.7-6.65-7.83-6.2-8-5.83-8.2-5.46-8.43-5.1-8.68-4.77-8.98-4.46-9.32-4.14-9.7-3.84-10.15-3.53-10.65-3.22-11.22-2.88-11.87-2.52-12.6-2.13-13.5-1.7-14.45-1.2-7.52-.33" stroke="#3a414a" stroke-linejoin="round" fill="none"/><path d="M1360.47 1279h-.94v-.52h.94z" stroke="#3a414a" stroke-width=".05" fill="#3a414a"/><path d="M1042.62 435.04l14.38-4.26-.24 9.26z" stroke="#3a414a" fill="#3a414a"/><path d="M1360 1278.5l-1.07-381.8 4.28-69.36 5.34-51.17 5.93-40.38 6.3-33.1 6.5-27.83 6.64-23.8 6.72-20.7 6.75-18.17 6.78-16.13 6.78-14.43 6.8-13 6.8-11.8 6.83-10.77 6.86-9.87 6.9-9.1 6.94-8.4 7.02-7.8 7.1-7.24 7.2-6.77 7.34-6.34 7.48-5.93 7.65-5.55 7.85-5.22 8.07-4.9 8.34-4.57 8.64-4.3 8.98-4 9.36-3.7 9.8-3.4 10.3-3.12 10.9-2.8 11.52-2.44 12.28-2.07 13.15-1.66 14.15-1.18 7.08-.3" stroke="#3a414a" stroke-linejoin="round" fill="none"/><path d="M1360.47 1279h-.94v-.52h.94z" stroke="#3a414a" stroke-width=".05" fill="#3a414a"/><path d="M1661.02 435.04l-14.14 5-.24-9.26z" stroke="#3a414a" fill="#3a414a"/><defs><path d="M180 0v-1490h510c348 0 508 194 508 460 0 198-88 351-276 417L1256 0h-220L726-579c-117 2-238 0-356 1V0H180zm190-747h312c235 0 327-108 327-283 0-177-92-293-329-293H370v576" id="D"/><path d="M628 24c-324 0-524-230-524-574 0-343 198-582 503-582 237 0 487 146 487 559v75H286c9 234 145 362 343 362 132 0 231-58 273-172l174 48C1024-91 857 24 628 24zM287-650h624c-17-190-120-322-304-322-192 0-309 151-320 322" id="E"/><path d="M611 442c-248 0-391-105-460-228l146-94c47 65 117 165 314 165 178 0 307-82 307-266v-224h-17C863-141 792-18 576-18c-268 0-472-195-472-546 0-346 197-568 476-568 216 0 288 133 326 193h17v-179h175V29c0 289-215 413-487 413zm-5-620c203 0 314-146 314-390 0-237-108-403-314-403-213 0-319 180-319 403 0 230 109 390 319 390" id="F"/><path d="M158 0v-1118h180V0H158zm91-1301c-68 0-125-53-125-119s57-119 125-119c69 0 126 53 126 119s-57 119-126 119" id="G"/><path d="M613 24c-304 0-509-231-509-576 0-350 205-580 509-580 305 0 511 230 511 580 0 345-206 576-511 576zm0-161c226 0 329-195 329-415 0-222-103-419-329-419-223 0-326 196-326 419 0 220 103 415 326 415" id="H"/><path d="M338-670V0H158v-1118h173l1 207c72-158 192-221 342-221 226 0 378 139 378 422V0H872v-695c0-172-96-275-252-275-161 0-282 109-282 300" id="I"/><g id="a"><use transform="matrix(0.010850694444444444,0,0,0.010850694444444444,0,0)" xlink:href="#D"/><use transform="matrix(0.010850694444444444,0,0,0.010850694444444444,13.975694444444445,0)" xlink:href="#E"/><use transform="matrix(0.010850694444444444,0,0,0.010850694444444444,26.931423611111104,0)" xlink:href="#F"/><use transform="matrix(0.010850694444444444,0,0,0.010850694444444444,40.55989583333333,0)" xlink:href="#G"/><use transform="matrix(0.010850694444444444,0,0,0.010850694444444444,45.94184027777778,0)" xlink:href="#H"/><use transform="matrix(0.010850694444444444,0,0,0.010850694444444444,59.26649305555555,0)" xlink:href="#I"/></g><path d="M52 0l541-1490h220L1361 0h-200l-149-416H398L254 0H52zm404-582h497c-103-290-145-390-251-756-108 377-145 460-246 756" id="J"/><use transform="matrix(0.010850694444444444,0,0,0.010850694444444444,0,0)" xlink:href="#J" id="b"/><path d="M130 0v-134l666-991c45-67 96-135 147-202-269 9-546 3-821 5v-168h1036v136L502-379c-49 72-103 145-157 216 268-9 546-3 821-5V0H130" id="K"/><path d="M653-1490V0H466v-1314h-10L96-1047v-204l324-239h233" id="L"/><g id="c"><use transform="matrix(0.010850694444444444,0,0,0.010850694444444444,0,0)" xlink:href="#J"/><use transform="matrix(0.010850694444444444,0,0,0.010850694444444444,15.33203125,0)" xlink:href="#K"/><use transform="matrix(0.010850694444444444,0,0,0.010850694444444444,29.307725694444443,0)" xlink:href="#L"/></g><path d="M154 0v-137l495-537c165-179 249-281 249-418 0-156-121-253-280-253-170 0-278 110-278 278H158c0-264 200-443 465-443 266 0 455 183 455 416 0 161-73 288-336 568L416-179v12h687V0H154" id="M"/><g id="d"><use transform="matrix(0.010850694444444444,0,0,0.010850694444444444,0,0)" xlink:href="#J"/><use transform="matrix(0.010850694444444444,0,0,0.010850694444444444,15.33203125,0)" xlink:href="#K"/><use transform="matrix(0.010850694444444444,0,0,0.010850694444444444,29.307725694444443,0)" xlink:href="#M"/></g><path d="M635 20c-292 0-500-160-510-396h192c11 142 145 229 315 229 187 0 323-105 323-260 0-161-125-274-346-274H488v-165h121c174 0 294-100 294-254 0-148-104-245-266-245-152 0-291 85-297 230H157c8-234 222-395 484-395 278 0 448 188 448 400 0 168-95 291-247 336v12c190 31 301 169 301 357 0 244-216 425-508 425" id="N"/><g id="e"><use transform="matrix(0.010850694444444444,0,0,0.010850694444444444,0,0)" xlink:href="#J"/><use transform="matrix(0.010850694444444444,0,0,0.010850694444444444,15.33203125,0)" xlink:href="#K"/><use transform="matrix(0.010850694444444444,0,0,0.010850694444444444,29.307725694444443,0)" xlink:href="#N"/></g><path d="M645 0H180v-1490h484c435 0 692 280 692 742 0 466-257 748-711 748zM370-168h263c363 0 539-218 539-580 0-358-176-574-521-574H370v1154" id="O"/><path d="M471 26C259 26 90-98 90-318c0-256 228-303 435-329 202-27 287-16 287-108 0-139-79-219-234-219-161 0-248 86-283 164l-173-57c86-203 278-265 451-265 150 0 419 46 419 395V0H815v-152h-12C765-73 660 26 471 26zm31-159c199 0 310-134 310-271v-155c-30 35-226 55-295 64-131 17-246 59-246 186 0 116 97 176 231 176" id="P"/><path d="M598-1118v154H368v674c0 100 37 144 132 144 23 0 62-6 92-12L629-6c-37 13-88 20-134 20-193 0-307-107-307-290v-688H20v-154h168v-266h180v266h230" id="Q"/><g id="f"><use transform="matrix(0.010850694444444444,0,0,0.010850694444444444,0,0)" xlink:href="#O"/><use transform="matrix(0.010850694444444444,0,0,0.010850694444444444,16.03732638888889,0)" xlink:href="#P"/><use transform="matrix(0.010850694444444444,0,0,0.010850694444444444,28.515625,0)" xlink:href="#Q"/><use transform="matrix(0.010850694444444444,0,0,0.010850694444444444,35.89409722222222,0)" xlink:href="#P"/></g><g id="g"><use transform="matrix(0.010850694444444444,0,0,0.010850694444444444,0,0)" xlink:href="#J"/><use transform="matrix(0.010850694444444444,0,0,0.010850694444444444,14.583333333333332,0)" xlink:href="#L"/></g><g id="h"><use transform="matrix(0.010850694444444444,0,0,0.010850694444444444,0,0)" xlink:href="#J"/><use transform="matrix(0.010850694444444444,0,0,0.010850694444444444,15.33203125,0)" xlink:href="#N"/></g><g id="i"><use transform="matrix(0.010850694444444444,0,0,0.010850694444444444,0,0)" xlink:href="#J"/><use transform="matrix(0.010850694444444444,0,0,0.010850694444444444,15.33203125,0)" xlink:href="#M"/></g><path d="M783 20c-382 0-661-292-661-764 0-473 279-766 661-766 302 0 548 182 601 489h-190c-42-204-217-313-411-313-268 0-476 208-476 590 0 381 209 588 476 588 195 0 369-110 411-313h190c-52 303-296 489-601 489" id="R"/><path d="M613 24c-304 0-509-231-509-576 0-350 205-580 509-580 216 0 392 114 453 309l-173 49c-33-115-133-197-280-197-223 0-326 196-326 419 0 220 103 415 326 415 150 0 252-85 285-206l172 49C1010-95 832 24 613 24" id="S"/><g id="j"><use transform="matrix(0.003136405109489051,0,0,0.003136405109489051,0,0)" xlink:href="#R"/><use transform="matrix(0.003136405109489051,0,0,0.003136405109489051,4.69206204379562,0)" xlink:href="#H"/><use transform="matrix(0.003136405109489051,0,0,0.003136405109489051,8.543567518248176,0)" xlink:href="#I"/><use transform="matrix(0.003136405109489051,0,0,0.003136405109489051,12.338617700729925,0)" xlink:href="#I"/><use transform="matrix(0.003136405109489051,0,0,0.003136405109489051,16.133667883211675,0)" xlink:href="#E"/><use transform="matrix(0.003136405109489051,0,0,0.003136405109489051,19.878535583941602,0)" xlink:href="#S"/><use transform="matrix(0.003136405109489051,0,0,0.003136405109489051,23.54812956204379,0)" xlink:href="#Q"/><use transform="matrix(0.003136405109489051,0,0,0.003136405109489051,25.649520985401455,0)" xlink:href="#G"/><use transform="matrix(0.003136405109489051,0,0,0.003136405109489051,27.20517791970803,0)" xlink:href="#H"/><use transform="matrix(0.003136405109489051,0,0,0.003136405109489051,31.056683394160586,0)" xlink:href="#I"/></g><path d="M180 0v-1490h270l367 940c28 72 75 218 110 339 35-117 81-264 110-339l362-940h271V0h-187c2-448-5-837 7-1287-157 497-311 829-483 1287H842C666-458 514-784 354-1284c12 438 5 843 7 1284H180" id="T"/><path d="M158 0v-1118h174v172h12c41-113 157-188 290-188 26 0 70 2 91 3v181c-11-2-60-10-108-10-161 0-279 109-279 260V0H158" id="U"/><g id="k"><use transform="matrix(0.003136405109489051,0,0,0.003136405109489051,0,0)" xlink:href="#T"/><use transform="matrix(0.003136405109489051,0,0,0.003136405109489051,5.802349452554744,0)" xlink:href="#P"/><use transform="matrix(0.003136405109489051,0,0,0.003136405109489051,9.409215328467154,0)" xlink:href="#I"/><use transform="matrix(0.003136405109489051,0,0,0.003136405109489051,13.204265510948906,0)" xlink:href="#P"/><use transform="matrix(0.003136405109489051,0,0,0.003136405109489051,16.811131386861312,0)" xlink:href="#F"/><use transform="matrix(0.003136405109489051,0,0,0.003136405109489051,20.75045620437956,0)" xlink:href="#E"/><use transform="matrix(0.003136405109489051,0,0,0.003136405109489051,24.495323905109487,0)" xlink:href="#U"/></g><g id="l"><use transform="matrix(0.003136405109489051,0,0,0.003136405109489051,0,0)" xlink:href="#R"/><use transform="matrix(0.003136405109489051,0,0,0.003136405109489051,4.69206204379562,0)" xlink:href="#H"/><use transform="matrix(0.003136405109489051,0,0,0.003136405109489051,8.543567518248176,0)" xlink:href="#I"/><use transform="matrix(0.003136405109489051,0,0,0.003136405109489051,12.338617700729925,0)" xlink:href="#I"/><use transform="matrix(0.003136405109489051,0,0,0.003136405109489051,16.133667883211675,0)" xlink:href="#E"/><use transform="matrix(0.003136405109489051,0,0,0.003136405109489051,19.878535583941602,0)" xlink:href="#S"/><use transform="matrix(0.003136405109489051,0,0,0.003136405109489051,23.54812956204379,0)" xlink:href="#Q"/><use transform="matrix(0.003136405109489051,0,0,0.003136405109489051,25.649520985401455,0)" xlink:href="#G"/><use transform="matrix(0.003136405109489051,0,0,0.003136405109489051,27.20517791970803,0)" xlink:href="#H"/><use transform="matrix(0.003136405109489051,0,0,0.003136405109489051,31.056683394160586,0)" xlink:href="#I"/></g><g id="m"><use transform="matrix(0.003136405109489051,0,0,0.003136405109489051,0,0)" xlink:href="#T"/><use transform="matrix(0.003136405109489051,0,0,0.003136405109489051,5.802349452554744,0)" xlink:href="#P"/><use transform="matrix(0.003136405109489051,0,0,0.003136405109489051,9.409215328467154,0)" xlink:href="#I"/><use transform="matrix(0.003136405109489051,0,0,0.003136405109489051,13.204265510948906,0)" xlink:href="#P"/><use transform="matrix(0.003136405109489051,0,0,0.003136405109489051,16.811131386861312,0)" xlink:href="#F"/><use transform="matrix(0.003136405109489051,0,0,0.003136405109489051,20.75045620437956,0)" xlink:href="#E"/><use transform="matrix(0.003136405109489051,0,0,0.003136405109489051,24.495323905109487,0)" xlink:href="#U"/></g><path d="M158 418v-1536h174v179h20c37-59 106-193 324-193 279 0 474 222 474 576 0 356-194 580-473 580-213 0-288-135-325-197h-14v591H158zm492-555c209 0 317-186 317-421 0-232-105-413-317-413-206 0-314 166-314 413 0 249 111 421 314 421" id="V"/><g id="n"><use transform="matrix(0.010850694444444444,0,0,0.010850694444444444,0,0)" xlink:href="#J"/><use transform="matrix(0.010850694444444444,0,0,0.010850694444444444,15.33203125,0)" xlink:href="#V"/><use transform="matrix(0.010850694444444444,0,0,0.010850694444444444,28.938802083333332,0)" xlink:href="#V"/></g><path d="M180 0v-1490h528c311 0 458 177 458 395 0 191-114 278-244 313v14c139 9 302 137 302 371 0 225-148 397-499 397H180zm190-168h350c232 0 321-102 321-231 0-149-120-277-311-277H370v508zm0-668h328c160 0 286-101 286-255 0-129-87-231-280-231H370v486" id="W"/><use transform="matrix(0.010850694444444444,0,0,0.010850694444444444,0,0)" xlink:href="#W" id="o"/><g id="p"><use transform="matrix(0.010850694444444444,0,0,0.010850694444444444,0,0)" xlink:href="#J"/><use transform="matrix(0.010850694444444444,0,0,0.010850694444444444,15.33203125,0)" xlink:href="#K"/><use transform="matrix(0.010850694444444444,0,0,0.010850694444444444,29.307725694444443,0)" xlink:href="#L"/></g><g id="q"><use transform="matrix(0.010850694444444444,0,0,0.010850694444444444,0,0)" xlink:href="#J"/><use transform="matrix(0.010850694444444444,0,0,0.010850694444444444,15.33203125,0)" xlink:href="#K"/><use transform="matrix(0.010850694444444444,0,0,0.010850694444444444,29.307725694444443,0)" xlink:href="#M"/></g><g id="r"><use transform="matrix(0.010850694444444444,0,0,0.010850694444444444,0,0)" xlink:href="#J"/><use transform="matrix(0.010850694444444444,0,0,0.010850694444444444,15.33203125,0)" xlink:href="#K"/><use transform="matrix(0.010850694444444444,0,0,0.010850694444444444,29.307725694444443,0)" xlink:href="#N"/></g><g id="s"><use transform="matrix(0.010850694444444444,0,0,0.010850694444444444,0,0)" xlink:href="#O"/><use transform="matrix(0.010850694444444444,0,0,0.010850694444444444,16.03732638888889,0)" xlink:href="#P"/><use transform="matrix(0.010850694444444444,0,0,0.010850694444444444,28.515625,0)" xlink:href="#Q"/><use transform="matrix(0.010850694444444444,0,0,0.010850694444444444,35.89409722222222,0)" xlink:href="#P"/></g><g id="t"><use transform="matrix(0.010850694444444444,0,0,0.010850694444444444,0,0)" xlink:href="#W"/><use transform="matrix(0.010850694444444444,0,0,0.010850694444444444,14.539930555555555,0)" xlink:href="#L"/></g><g id="u"><use transform="matrix(0.010850694444444444,0,0,0.010850694444444444,0,0)" xlink:href="#W"/><use transform="matrix(0.010850694444444444,0,0,0.010850694444444444,14.539930555555555,0)" xlink:href="#N"/></g><g id="v"><use transform="matrix(0.010850694444444444,0,0,0.010850694444444444,0,0)" xlink:href="#W"/><use transform="matrix(0.010850694444444444,0,0,0.010850694444444444,14.539930555555555,0)" xlink:href="#M"/></g><g id="w"><use transform="matrix(0.003136405109489051,0,0,0.003136405109489051,0,0)" xlink:href="#R"/><use transform="matrix(0.003136405109489051,0,0,0.003136405109489051,4.69206204379562,0)" xlink:href="#H"/><use transform="matrix(0.003136405109489051,0,0,0.003136405109489051,8.543567518248176,0)" xlink:href="#I"/><use transform="matrix(0.003136405109489051,0,0,0.003136405109489051,12.338617700729925,0)" xlink:href="#I"/><use transform="matrix(0.003136405109489051,0,0,0.003136405109489051,16.133667883211675,0)" xlink:href="#E"/><use transform="matrix(0.003136405109489051,0,0,0.003136405109489051,19.878535583941602,0)" xlink:href="#S"/><use transform="matrix(0.003136405109489051,0,0,0.003136405109489051,23.54812956204379,0)" xlink:href="#Q"/><use transform="matrix(0.003136405109489051,0,0,0.003136405109489051,25.649520985401455,0)" xlink:href="#G"/><use transform="matrix(0.003136405109489051,0,0,0.003136405109489051,27.20517791970803,0)" xlink:href="#H"/><use transform="matrix(0.003136405109489051,0,0,0.003136405109489051,31.056683394160586,0)" xlink:href="#I"/></g><g id="x"><use transform="matrix(0.003136405109489051,0,0,0.003136405109489051,0,0)" xlink:href="#T"/><use transform="matrix(0.003136405109489051,0,0,0.003136405109489051,5.802349452554744,0)" xlink:href="#P"/><use transform="matrix(0.003136405109489051,0,0,0.003136405109489051,9.409215328467154,0)" xlink:href="#I"/><use transform="matrix(0.003136405109489051,0,0,0.003136405109489051,13.204265510948906,0)" xlink:href="#P"/><use transform="matrix(0.003136405109489051,0,0,0.003136405109489051,16.811131386861312,0)" xlink:href="#F"/><use transform="matrix(0.003136405109489051,0,0,0.003136405109489051,20.75045620437956,0)" xlink:href="#E"/><use transform="matrix(0.003136405109489051,0,0,0.003136405109489051,24.495323905109487,0)" xlink:href="#U"/></g><g id="y"><use transform="matrix(0.010850694444444444,0,0,0.010850694444444444,0,0)" xlink:href="#J"/><use transform="matrix(0.010850694444444444,0,0,0.010850694444444444,15.33203125,0)" xlink:href="#V"/><use transform="matrix(0.010850694444444444,0,0,0.010850694444444444,28.938802083333332,0)" xlink:href="#V"/></g><use transform="matrix(0.010850694444444444,0,0,0.010850694444444444,0,0)" xlink:href="#R" id="z"/><path d="M218-607c0-325 108-727 258-974h175c-155 315-250 682-250 974 0 265 78 531 250 886H476C306-10 218-315 218-607" id="X"/><path d="M784 20c-382 0-662-292-662-764 0-473 280-766 662-766s660 293 660 766c0 472-278 764-660 764zm0-176c266 0 475-207 475-588 0-383-209-590-475-590-268 0-477 208-477 590 0 380 209 588 477 588" id="Y"/><path d="M338-1490V0H158v-1490h180" id="Z"/><path d="M96 279C273-86 346-350 346-607c0-292-95-659-250-974h175c150 246 258 650 258 974 0 297-91 602-258 886H96" id="aa"/><g id="A"><use transform="matrix(0.010850694444444444,0,0,0.010850694444444444,0,0)" xlink:href="#X"/><use transform="matrix(0.010850694444444444,0,0,0.010850694444444444,8.10546875,0)" xlink:href="#Y"/><use transform="matrix(0.010850694444444444,0,0,0.010850694444444444,25.09765625,0)" xlink:href="#V"/><use transform="matrix(0.010850694444444444,0,0,0.010850694444444444,38.70442708333333,0)" xlink:href="#Q"/><use transform="matrix(0.010850694444444444,0,0,0.010850694444444444,45.97439236111111,0)" xlink:href="#G"/><use transform="matrix(0.010850694444444444,0,0,0.010850694444444444,51.35633680555556,0)" xlink:href="#H"/><use transform="matrix(0.010850694444444444,0,0,0.010850694444444444,64.68098958333333,0)" xlink:href="#I"/><use transform="matrix(0.010850694444444444,0,0,0.010850694444444444,77.8103298611111,0)" xlink:href="#P"/><use transform="matrix(0.010850694444444444,0,0,0.010850694444444444,90.28862847222221,0)" xlink:href="#Z"/><use transform="matrix(0.010850694444444444,0,0,0.010850694444444444,95.67057291666666,0)" xlink:href="#aa"/></g><path d="M458 0L52-1490h194c108 439 233 855 324 1313 92-459 221-873 331-1313h216c110 438 234 854 330 1307 92-455 216-869 323-1307h196L1558 0h-221l-256-944c-26-95-50-200-73-331-22 122-44 223-73 331L680 0H458" id="ab"/><path d="M538 24C308 24 148-78 108-271l171-41c32 123 123 178 257 178 156 0 256-77 256-169 0-77-54-128-164-154l-186-44c-203-48-300-148-300-305 0-192 176-326 414-326 230 0 351 112 402 269l-163 42c-31-80-94-158-238-158-133 0-233 69-233 162 0 83 57 129 188 160l169 40c203 48 298 149 298 302 0 196-179 339-441 339" id="ac"/><g id="B"><use transform="matrix(0.010850694444444444,0,0,0.010850694444444444,0,0)" xlink:href="#ab"/><use transform="matrix(0.010850694444444444,0,0,0.010850694444444444,21.89670138888889,0)" xlink:href="#G"/><use transform="matrix(0.010850694444444444,0,0,0.010850694444444444,27.278645833333336,0)" xlink:href="#Q"/><use transform="matrix(0.010850694444444444,0,0,0.010850694444444444,34.548611111111114,0)" xlink:href="#I"/><use transform="matrix(0.010850694444444444,0,0,0.010850694444444444,47.6779513888889,0)" xlink:href="#E"/><use transform="matrix(0.010850694444444444,0,0,0.010850694444444444,60.63368055555555,0)" xlink:href="#ac"/><use transform="matrix(0.010850694444444444,0,0,0.010850694444444444,72.36328125,0)" xlink:href="#ac"/></g><g id="C"><use transform="matrix(0.010850694444444444,0,0,0.010850694444444444,0,0)" xlink:href="#R"/><use transform="matrix(0.010850694444444444,0,0,0.010850694444444444,16.23263888888889,0)" xlink:href="#L"/></g></defs></g></svg>