<svg width="820" height="660" viewBox="0 0 820 660" xmlns="http://www.w3.org/2000/svg" font-family="Roboto, 'Neue Haas Grotesk Display Pro', Arial, sans-serif">

  <defs>
    <marker id="arrowEnd" markerWidth="9" markerHeight="7" refX="8" refY="3.5" orient="auto">
      <polygon points="0 0, 9 3.5, 0 7" fill="#364144"/>
    </marker>
    <marker id="arrowStart" markerWidth="9" markerHeight="7" refX="1" refY="3.5" orient="auto-start-reverse">
      <polygon points="0 0, 9 3.5, 0 7" fill="#364144"/>
    </marker>
  </defs>

  <rect width="820" height="660" fill="#FFFFFF"/>
  <rect x="28" y="55" width="764" height="535" rx="16" fill="none" stroke="#97928C" stroke-width="1.5" stroke-dasharray="9,6"/>
  <text x="410" y="46" text-anchor="middle" font-size="13" fill="#707070">Private network region (TGW / VNet Peering / VPN)</text>

  <line x1="410" y1="290" x2="410" y2="136" stroke="#364144" stroke-width="1.5" marker-end="url(#arrowEnd)" marker-start="url(#arrowStart)"/>
  <line x1="320" y1="312" x2="226" y2="238" stroke="#364144" stroke-width="1.5" marker-end="url(#arrowEnd)" marker-start="url(#arrowStart)"/>
  <line x1="500" y1="308" x2="558" y2="238" stroke="#364144" stroke-width="1.5" marker-end="url(#arrowEnd)" marker-start="url(#arrowStart)"/>
  <line x1="488" y1="356" x2="538" y2="388" stroke="#364144" stroke-width="1.5" marker-end="url(#arrowEnd)" marker-start="url(#arrowStart)"/>
  <line x1="410" y1="358" x2="410" y2="496" stroke="#364144" stroke-width="1.5" marker-end="url(#arrowEnd)" marker-start="url(#arrowStart)"/>

  <text x="432" y="220" font-size="12" fill="#707070">&#x2191; Control</text>
  <text x="350" y="235" font-size="12" fill="#707070">&#x2193; Logs</text>

  <rect x="327" y="70" width="166" height="66" rx="12" fill="#D8F2EF" stroke="#429D9E" stroke-width="1.5"/>
  <text x="410" y="107" text-anchor="middle" font-size="15" font-weight="700" fill="#28495A">Secondary CP</text>
  <rect x="60" y="188" width="166" height="66" rx="12" fill="#D8F2EF" stroke="#429D9E" stroke-width="1.5"/>
  <text x="143" y="225" text-anchor="middle" font-size="15" font-weight="700" fill="#28495A">Secondary CP</text>
  <rect x="558" y="188" width="166" height="66" rx="12" fill="#D8F2EF" stroke="#429D9E" stroke-width="1.5"/>
  <text x="641" y="225" text-anchor="middle" font-size="15" font-weight="700" fill="#28495A">Secondary CP</text>
  <rect x="318" y="290" width="184" height="68" rx="12" fill="#D4EDF5" stroke="#136A7F" stroke-width="2"/>
  <text x="410" y="328" text-anchor="middle" font-size="16" font-weight="700" fill="#136A7F">Primary CP</text>
  <rect x="538" y="388" width="166" height="66" rx="12" fill="#D8F2EF" stroke="#429D9E" stroke-width="1.5"/>
  <text x="621" y="425" text-anchor="middle" font-size="15" font-weight="700" fill="#28495A">Secondary CP</text>
  <rect x="327" y="496" width="166" height="66" rx="12" fill="#D8F2EF" stroke="#429D9E" stroke-width="1.5"/>
  <text x="410" y="533" text-anchor="middle" font-size="15" font-weight="700" fill="#28495A">Secondary CP</text>

  <line x1="28" y1="620" x2="55" y2="620" stroke="#364144" stroke-width="1.5" marker-end="url(#arrowEnd)" marker-start="url(#arrowStart)"/>
  <text x="65" y="625" font-size="12" fill="#364144">Private path &#x2014; &#x2191; Control (REST/gRPC) &#x2193; Logs &#x2014; top spoke labeled; pattern repeats on all</text>

</svg>
