<svg width="820" height="655" viewBox="0 0 820 655" xmlns="http://www.w3.org/2000/svg" font-family="Roboto, 'Neue Haas Grotesk Display Pro', Arial, sans-serif">

  <rect width="820" height="655" fill="#FFFFFF"/>

  <line x1="400" y1="274" x2="400" y2="108" stroke="#97928C" stroke-width="1.5" stroke-dasharray="7,5"/>
  <line x1="324" y1="300" x2="196" y2="210" stroke="#97928C" stroke-width="1.5" stroke-dasharray="7,5"/>
  <line x1="477" y1="293" x2="562" y2="207" stroke="#97928C" stroke-width="1.5" stroke-dasharray="7,5"/>
  <line x1="477" y1="325" x2="562" y2="380" stroke="#97928C" stroke-width="1.5" stroke-dasharray="7,5"/>
  <line x1="400" y1="344" x2="400" y2="476" stroke="#97928C" stroke-width="1.5" stroke-dasharray="7,5"/>

  <line x1="471" y1="90" x2="562" y2="183" stroke="#05825F" stroke-width="2.5" stroke-linecap="round"/>
  <line x1="471" y1="97" x2="562" y2="372" stroke="#05825F" stroke-width="2.5" stroke-linecap="round"/>
  <line x1="638" y1="239" x2="638" y2="360" stroke="#05825F" stroke-width="2.5" stroke-linecap="round"/>

  <rect x="324" y="38" width="152" height="70" rx="12" fill="#D8F2EF" stroke="#429D9E" stroke-width="1.5"/>
  <text x="400" y="67" text-anchor="middle" font-size="15" font-weight="700" fill="#28495A">Data plane</text>
  <text x="400" y="88" text-anchor="middle" font-size="13" fill="#429D9E">Peered</text>

  <rect x="44" y="153" width="152" height="70" rx="12" fill="#EEECEA" stroke="#97928C" stroke-width="1.5"/>
  <text x="120" y="182" text-anchor="middle" font-size="15" font-weight="700" fill="#364144">Data plane</text>
  <text x="120" y="203" text-anchor="middle" font-size="13" fill="#707070">Standalone</text>

  <rect x="562" y="153" width="152" height="70" rx="12" fill="#D8F2EF" stroke="#429D9E" stroke-width="1.5"/>
  <text x="638" y="182" text-anchor="middle" font-size="15" font-weight="700" fill="#28495A">Data plane</text>
  <text x="638" y="203" text-anchor="middle" font-size="13" fill="#429D9E">Peered</text>

  <rect x="312" y="274" width="176" height="70" rx="12" fill="#D4EDF5" stroke="#136A7F" stroke-width="2"/>
  <text x="400" y="305" text-anchor="middle" font-size="16" font-weight="700" fill="#136A7F">Primary DP</text>
  <text x="400" y="326" text-anchor="middle" font-size="13" fill="#136A7F">Hub</text>

  <rect x="562" y="360" width="152" height="70" rx="12" fill="#D8F2EF" stroke="#429D9E" stroke-width="1.5"/>
  <text x="638" y="389" text-anchor="middle" font-size="15" font-weight="700" fill="#28495A">Data plane</text>
  <text x="638" y="410" text-anchor="middle" font-size="13" fill="#429D9E">Peered</text>

  <rect x="324" y="476" width="152" height="70" rx="12" fill="#EEECEA" stroke="#97928C" stroke-width="1.5"/>
  <text x="400" y="505" text-anchor="middle" font-size="15" font-weight="700" fill="#364144">Data plane</text>
  <text x="400" y="526" text-anchor="middle" font-size="13" fill="#707070">Standalone</text>

  <line x1="28" y1="591" x2="72" y2="591" stroke="#97928C" stroke-width="1.5" stroke-dasharray="7,5"/>
  <text x="82" y="596" font-size="12" fill="#364144">HM management</text>
  <line x1="248" y1="591" x2="292" y2="591" stroke="#05825F" stroke-width="2.5" stroke-linecap="round"/>
  <text x="302" y="596" font-size="12" fill="#364144">VNet/VPC peering (Postgres replication)</text>
  <rect x="28" y="611" width="15" height="13" rx="3" fill="#D8F2EF" stroke="#429D9E" stroke-width="1.5"/>
  <text x="50" y="622" font-size="12" fill="#364144">Peered data plane</text>
  <rect x="190" y="611" width="15" height="13" rx="3" fill="#EEECEA" stroke="#97928C" stroke-width="1.5"/>
  <text x="212" y="622" font-size="12" fill="#364144">Standalone data plane</text>
  <rect x="384" y="611" width="15" height="13" rx="3" fill="#D4EDF5" stroke="#136A7F" stroke-width="1.5"/>
  <text x="406" y="622" font-size="12" fill="#364144">Primary data plane</text>

</svg>
