<svg xmlns="http://www.w3.org/2000/svg" xmlns:xlink="http://www.w3.org/1999/xlink" xmlns:lucid="lucid" width="2500" height="1000"><g transform="translate(1000 500)" lucid:page-tab-id="0_0"><path d="M-1000-500h2500V500h-2500z" fill="#fff"/><path d="M180-392.55a6 6 0 0 1 6-6h959.84a6 6 0 0 1 6 6V449a6 6 0 0 1-6 6H186a6 6 0 0 1-6-6z" stroke="#000" stroke-width="3" fill="#fff"/><use xlink:href="#a" transform="matrix(1,0,0,1,188,-390.5469565754671) translate(307.53125 49.47916666666667)"/><use xlink:href="#b" transform="matrix(1,0,0,1,188,-390.5469565754671) translate(475.86458333333337 49.47916666666667)"/><path d="M-394.35 341a6 6 0 0 1 6-6h229a6 6 0 0 1 6 6v108a6 6 0 0 1-6 6h-229a6 6 0 0 1-6-6z" stroke="#000" stroke-width="3" fill="#429d9e"/><path d="M240-48.05a6 6 0 0 1 6-6h378.36a6 6 0 0 1 6 6v220.1a6 6 0 0 1-6 6H246a6 6 0 0 1-6-6z" stroke="#6f7681" stroke-width="3" fill="#fff"/><use xlink:href="#c" transform="matrix(1,0,0,1,248,-46.04890525756727) translate(116.58203125 24.739583333333336)"/><path d="M660-274a6 6 0 0 1 6-6h445.8a6 6 0 0 1 6 6v171.4a6 6 0 0 1-6 6H666a6 6 0 0 1-6-6z" stroke="#6f7681" stroke-width="3" fill="#fff"/><use xlink:href="#d" transform="matrix(1,0,0,1,667.9999999999999,-272) translate(126.61197916666667 24.739583333333336)"/><use xlink:href="#e" transform="matrix(1,0,0,1,667.9999999999999,-272) translate(240.7265625 24.739583333333336)"/><use xlink:href="#f" transform="matrix(1,0,0,1,667.9999999999999,-272) translate(300.0885416666667 24.739583333333336)"/><path d="M660 246a6 6 0 0 1 6-6h445.8a6 6 0 0 1 6 6v171.4a6 6 0 0 1-6 6H666a6 6 0 0 1-6-6z" stroke="#6f7681" stroke-width="3" fill="#fff"/><use xlink:href="#d" transform="matrix(1,0,0,1,667.9999999999999,248) translate(124.84765625 24.739583333333336)"/><use xlink:href="#e" transform="matrix(1,0,0,1,667.9999999999999,248) translate(238.96223958333334 24.739583333333336)"/><use xlink:href="#g" transform="matrix(1,0,0,1,667.9999999999999,248) translate(298.32421875 24.739583333333336)"/><path d="M-396.12 152.88a6 6 0 0 1 6-6h229a6 6 0 0 1 6 6v108a6 6 0 0 1-6 6h-229a6 6 0 0 1-6-6z" stroke="#000" stroke-width="3" fill="#429d9e"/><path d="M-620-371.96a6 6 0 0 1 6-6h477.13a6 6 0 0 1 6 6V15.7a6 6 0 0 1-6 6H-614a6 6 0 0 1-6-6z" stroke="#136a7f" stroke-width="3" fill="#fff"/><use xlink:href="#h" transform="matrix(1,0,0,1,-612,-369.95961878233885) translate(175.3203125 49.47916666666667)"/><path d="M-570.87-112.3a6 6 0 0 1 6-6h229a6 6 0 0 1 6 6v108a6 6 0 0 1-6 6h-229a6 6 0 0 1-6-6z" stroke="#000" stroke-width="3" fill="#136a7f"/><path d="M-399.28 371a6 6 0 0 1 6-6h228a6 6 0 0 1 6 6v48a6 6 0 0 1-6 6h-228a6 6 0 0 1-6-6z" fill="none"/><use xlink:href="#i" transform="matrix(1,0,0,1,-399.27788459337796,365.0003440488838) translate(90.34722222222221 40.63368055555556)"/><path d="M-569.87-87.13a6 6 0 0 1 6-6h228a6 6 0 0 1 6 6v48a6 6 0 0 1-6 6h-228a6 6 0 0 1-6-6z" fill="none"/><use xlink:href="#j" transform="matrix(1,0,0,1,-569.8649839736632,-93.12955598064616) translate(60.390625 40.63368055555556)"/><path d="M315.5 86.5H106.72a6 6 0 0 0-6 6v304.65a6 6 0 0 1-6 6h-219.6" stroke="#136a7f" stroke-width="6" fill="none"/><path d="M318.5 89.46h-3.08V83.5h3.08z" stroke="#136a7f" stroke-width=".05" fill="#136a7f"/><path d="M-142.13 403.15l14.26-4.64v9.28z" stroke="#136a7f" stroke-width="6" fill="#136a7f"/><path d="M-541.3-234.2a6 6 0 0 1 6-6h88a6 6 0 0 1 6 6v68.4a6 6 0 0 1-6 6h-88a6 6 0 0 1-6-6z" stroke="#000" stroke-width="3" fill="#fff"/><use xlink:href="#k" transform="matrix(1,0,0,1,-529.2855729166668,-228.18745492643993) translate(25.837239583333332 38.989583333333336)"/><path d="M320 24.88a6 6 0 0 1 6-6h197a6 6 0 0 1 6 6V99.9a6 6 0 0 1-6 6H326a6 6 0 0 1-6-6z" stroke="#429d9e" stroke-width="3" fill="#fff"/><use xlink:href="#l" transform="matrix(1,0,0,1,332,30.877677693305138) translate(38.29427083333333 40.739583333333336)"/><path d="M-735.57-178.74H-680v55.57h-55.57z" fill-opacity="0"/><path d="M-707.78-178.74c18.5 0 27.78 9.28 27.78 27.78s-9.28 27.8-27.78 27.8-27.8-9.3-27.8-27.8 9.3-27.78 27.8-27.78z" stroke="#000" stroke-opacity="0" stroke-width=".46" fill="#136a7f"/><path d="M-707.76-161.4c2.4 0 4.35 1.96 4.35 4.36 0 2.4-1.96 4.34-4.36 4.34-2.4 0-4.34-1.94-4.34-4.34s1.95-4.35 4.34-4.35m0-1.73c-3.35 0-6.08 2.73-6.08 6.1 0 3.35 2.73 6.07 6.08 6.07 3.36 0 6.1-2.72 6.1-6.08 0-1.62-.66-3.17-1.8-4.3-1.13-1.14-2.68-1.8-4.3-1.8zM-699.06-138.8h-1.74v-4.34c0-1.15-.45-2.26-1.27-3.08-.82-.8-1.93-1.27-3.08-1.27h-5.2c-2.4 0-4.36 1.95-4.36 4.36v4.35h-1.75v-4.34c0-3.37 2.73-6.1 6.1-6.1h5.2c3.36 0 6.1 2.73 6.1 6.1v4.35z" stroke="#000" stroke-opacity="0" stroke-width=".46" fill="#fff"/><path d="M-721.67-164.85h27.78v27.78h-27.77v-27.78z" stroke="#000" stroke-opacity="0" stroke-width=".46" fill-opacity="0"/><path d="M769.54-214a6 6 0 0 1 6-6h226.72a6 6 0 0 1 6 6v85.88a6 6 0 0 1-6 6H775.54a6 6 0 0 1-6-6z" stroke="#429d9e" stroke-width="3" fill="#fff"/><use xlink:href="#l" transform="matrix(1,0,0,1,781.5443801230128,-208) translate(53.29427083333333 45.552083333333336)"/><path d="M900.97-70h.03a3 3 0 0 1 3 3 3 3 0 0 1-3 3 3 3 0 0 1-3-3 3 3 0 0 1 3-3h.03m-.06 24.9h.03a3 3 0 0 1 3 3 3 3 0 0 1-3 3 3 3 0 0 1-3-3 3 3 0 0 1 3-3h.03m-.06 24.92h.03a3 3 0 0 1 3 3 3 3 0 0 1-3 3 3 3 0 0 1-3-3 3 3 0 0 1 3-3h.03m-.06 24.9h.03a3 3 0 0 1 3 3 3 3 0 0 1-3 3 3 3 0 0 1-3-3 3 3 0 0 1 3-3h.03m-.06 24.92h.03a3 3 0 0 1 3 3 3 3 0 0 1-3 3 3 3 0 0 1-3-3 3 3 0 0 1 3-3h.03m-.06 24.9h.03a3 3 0 0 1 3 3 3 3 0 0 1-3 3 3 3 0 0 1-3-3 3 3 0 0 1 3-3h.03m-.06 24.92h.03a3 3 0 0 1 3 3 3 3 0 0 1-3 3 3 3 0 0 1-3-3 3 3 0 0 1 3-3h.03m-.06 24.9h.03a3 3 0 0 1 3 3 3 3 0 0 1-3 3 3 3 0 0 1-3-3 3 3 0 0 1 3-3h.03m-.06 24.9h.03a3 3 0 0 1 3 3 3 3 0 0 1-3 3 3 3 0 0 1-3-3 3 3 0 0 1 3-3h.03m-.06 24.92h.03a3 3 0 0 1 3 3 3 3 0 0 1-3 3 3 3 0 0 1-3-3 3 3 0 0 1 3-3h.03m-.06 24.9h.03a3 3 0 0 1 3 3 3 3 0 0 1-3 3 3 3 0 0 1-3-3 3 3 0 0 1 3-3h.03m-.06 24.92h.03a3 3 0 0 1 3 3 3 3 0 0 1-3 3 3 3 0 0 1-3-3 3 3 0 0 1 3-3h.03" fill="#6f7681"/><path d="M769.54 306a6 6 0 0 1 6-6h226.72a6 6 0 0 1 6 6v85.88a6 6 0 0 1-6 6H775.54a6 6 0 0 1-6-6z" stroke="#429d9e" stroke-width="3" fill="#fff"/><use xlink:href="#l" transform="matrix(1,0,0,1,781.5443801230128,312) translate(53.29427083333333 45.552083333333336)"/><path d="M-395.12 182.88a6 6 0 0 1 6-6h228a6 6 0 0 1 6 6v48a6 6 0 0 1-6 6h-228a6 6 0 0 1-6-6z" fill="none"/><use xlink:href="#m" transform="matrix(1,0,0,1,-395.11602098666845,176.88254086833885) translate(34.824218749999986 40.63368055555556)"/><path d="M315.5 43.87H24.95a6 6 0 0 0-6 6V203a6 6 0 0 1-6 6h-141.1" stroke="#136a7f" stroke-width="6" fill="none"/><path d="M318.5 46.85h-3.08V40.9h3.08z" stroke="#136a7f" stroke-width=".05" fill="#136a7f"/><path d="M-145.4 209l14.26-4.62v9.27z" stroke="#136a7f" stroke-width="6" fill="#136a7f"/><path d="M-127.37-78.45h702.73a6 6 0 0 1 6 6v66.7" stroke="#f89e5d" stroke-width="4" fill="none"/><path d="M-127.32-76.47h-2.05v-3.95h2.05z" stroke="#f89e5d" stroke-width=".05" fill="#f89e5d"/><path d="M581.36 10.5l-4.64-14.26H586z" stroke="#f89e5d" stroke-width="4" fill="#f89e5d"/><path d="M-535.6 25.2v37.62a.4.4 0 0 1-.4.38.4.4 0 0 0-.38.4v324.96a6 6 0 0 0 6 6h108.36" stroke="#f89e5d" stroke-width="4" fill="none"/><path d="M-533.63 25.26h-3.95V23.2h3.95z" stroke="#f89e5d" stroke-width=".05" fill="#f89e5d"/><path d="M-405.75 394.56l-14.27 4.64v-9.27z" stroke="#f89e5d" stroke-width="4" fill="#f89e5d"/><path d="M-707.78-181.74V-194a6 6 0 0 1 6-6h132.02" stroke="#136a7f" stroke-width="6" fill="none"/><path d="M-704.8-178.74h-5.96v-3.08h5.95z" stroke="#136a7f" stroke-width=".05" fill="#136a7f"/><path d="M-552.5-200l-14.26 4.63v-9.26z" stroke="#136a7f" stroke-width="6" fill="#136a7f"/><path d="M766.04-171.06h-247.7a6 6 0 0 0-6 6v159.7" stroke="#429d9e" stroke-width="4" fill="none"/><path d="M768.04-169.1H766v-3.94h2.04z" stroke="#429d9e" stroke-width=".05" fill="#429d9e"/><path d="M512.35 10.9l-4.63-14.26H517z" stroke="#429d9e" stroke-width="4" fill="#429d9e"/><path d="M766.04 348.94h-247.7a6 6 0 0 1-6-6v-212.8" stroke="#429d9e" stroke-width="4" fill="none"/><path d="M768.04 350.9H766v-3.94h2.04z" stroke="#429d9e" stroke-width=".05" fill="#429d9e"/><path d="M512.35 113.89l4.64 14.25h-9.28z" stroke="#429d9e" stroke-width="4" fill="#429d9e"/><path d="M320-214a6 6 0 0 1 6-6h326.7a6 6 0 0 1 6 6v29.26a6 6 0 0 1-6 6H326a6 6 0 0 1-6-6z" fill="none"/><use xlink:href="#n" transform="matrix(1,0,0,1,325,-215) translate(3.1067708333333144 25.114583333333336)"/><use xlink:href="#o" transform="matrix(1,0,0,1,325,-215) translate(69.66927083333331 25.114583333333336)"/><use xlink:href="#p" transform="matrix(1,0,0,1,325,-215) translate(128.62760416666666 25.114583333333336)"/><use xlink:href="#q" transform="matrix(1,0,0,1,325,-215) translate(224.64322916666666 25.114583333333336)"/><use xlink:href="#r" transform="matrix(1,0,0,1,325,-215) translate(275.5026041666667 25.114583333333336)"/><path d="M300 363.88a6 6 0 0 1 6-6h326.7a6 6 0 0 1 6 6v29.26a6 6 0 0 1-6 6H306a6 6 0 0 1-6-6z" fill="none"/><use xlink:href="#n" transform="matrix(1,0,0,1,305,362.87767300149994) translate(3.1067708333333144 25.114583333333336)"/><use xlink:href="#o" transform="matrix(1,0,0,1,305,362.87767300149994) translate(69.66927083333331 25.114583333333336)"/><use xlink:href="#p" transform="matrix(1,0,0,1,305,362.87767300149994) translate(128.62760416666666 25.114583333333336)"/><use xlink:href="#q" transform="matrix(1,0,0,1,305,362.87767300149994) translate(224.64322916666666 25.114583333333336)"/><use xlink:href="#r" transform="matrix(1,0,0,1,305,362.87767300149994) translate(275.5026041666667 25.114583333333336)"/><path d="M-147.2-134a6 6 0 0 1 6-6h326.7a6 6 0 0 1 6 6v29.26a6 6 0 0 1-6 6h-326.7a6 6 0 0 1-6-6z" fill="none"/><use xlink:href="#s" transform="matrix(1,0,0,1,-142.206535478675,-135) translate(41.14713541666666 25.114583333333336)"/><use xlink:href="#t" transform="matrix(1,0,0,1,-142.206535478675,-135) translate(143.33463541666669 25.114583333333336)"/><use xlink:href="#u" transform="matrix(1,0,0,1,-142.206535478675,-135) translate(198.43880208333334 25.114583333333336)"/><path d="M-480 75.42a6 6 0 0 1 6-6h326.7a6 6 0 0 1 6 6v29.26a6 6 0 0 1-6 6H-474a6 6 0 0 1-6-6z" fill="none"/><use xlink:href="#s" transform="matrix(1,0,0,1,-475,74.42054805932531) translate(39.22005208333333 25.114583333333336)"/><use xlink:href="#o" transform="matrix(1,0,0,1,-475,74.42054805932531) translate(141.40755208333334 25.114583333333336)"/><use xlink:href="#u" transform="matrix(1,0,0,1,-475,74.42054805932531) translate(200.36588541666669 25.114583333333336)"/><path d="M-620 286a6 6 0 0 1 6-6h326.7a6 6 0 0 1 6 6v29.26a6 6 0 0 1-6 6H-614a6 6 0 0 1-6-6z" fill="none"/><use xlink:href="#s" transform="matrix(1,0,0,1,-615,285) translate(88.2109375 25.114583333333336)"/><use xlink:href="#r" transform="matrix(1,0,0,1,-615,285) translate(190.3984375 25.114583333333336)"/><path d="M-181.05 234.23a6 6 0 0 1 6-6h280.8a6 6 0 0 1 6 6v29.26a6 6 0 0 1-6 6h-280.8a6 6 0 0 1-6-6z" fill="none"/><use xlink:href="#n" transform="matrix(1,0,0,1,-176.05324097072682,233.22670753500546) translate(34.03255208333333 25.114583333333336)"/><use xlink:href="#o" transform="matrix(1,0,0,1,-176.05324097072682,233.22670753500546) translate(100.59505208333333 25.114583333333336)"/><use xlink:href="#u" transform="matrix(1,0,0,1,-176.05324097072682,233.22670753500546) translate(159.55338541666669 25.114583333333336)"/><path d="M-239.28 419.74a6 6 0 0 1 6-6h308a6 6 0 0 1 6 6V449a6 6 0 0 1-6 6h-308a6 6 0 0 1-6-6z" fill="none"/><use xlink:href="#n" transform="matrix(1,0,0,1,-234.27788459337785,418.7403440488837) translate(96.5234375 25.114583333333336)"/><use xlink:href="#r" transform="matrix(1,0,0,1,-234.27788459337785,418.7403440488837) translate(163.0859375 25.114583333333336)"/><path d="M623.07 102.42c0 1.7-18.52 3.1-41.36 3.1-22.83 0-41.34-1.4-41.34-3.1V77.68c0-1.7 18.5-3.1 41.35-3.1s41.37 1.4 41.37 3.1z" stroke="#000" stroke-width="3" fill="#136a7f"/><path d="M623.07 77.68c0 1.7-18.52 3.1-41.36 3.1-22.83 0-41.34-1.4-41.34-3.1" stroke="#000" stroke-width="3" fill="none"/><path d="M622.7 74.77c0 1.7-18.5 3.1-41.34 3.1-22.84 0-41.36-1.4-41.36-3.1V50.02c0-1.7 18.52-3.1 41.36-3.1s41.35 1.4 41.35 3.1z" stroke="#000" stroke-width="3" fill="#136a7f"/><path d="M622.7 50.02c0 1.7-18.5 3.1-41.34 3.1-22.84 0-41.36-1.4-41.36-3.1" stroke="#000" stroke-width="3" fill="none"/><path d="M622.7 46.32c0 1.7-18.5 3.1-41.34 3.1-22.84 0-41.36-1.4-41.36-3.1V21.58c0-1.7 18.52-3.1 41.36-3.1s41.35 1.4 41.35 3.1z" stroke="#000" stroke-width="3" fill="#136a7f"/><path d="M622.7 21.58c0 1.7-18.5 3.1-41.34 3.1-22.84 0-41.36-1.4-41.36-3.1" stroke="#000" stroke-width="3" fill="none"/><path d="M1103.07-130.64c0 1.7-18.52 3.1-41.36 3.1-22.83 0-41.34-1.4-41.34-3.1v-24.74c0-1.7 18.5-3.1 41.35-3.1s41.37 1.4 41.37 3.1z" stroke="#000" stroke-width="3" fill="#136a7f"/><path d="M1103.07-155.38c0 1.7-18.52 3.1-41.36 3.1-22.83 0-41.34-1.4-41.34-3.1" stroke="#000" stroke-width="3" fill="none"/><path d="M1102.7-158.3c0 1.72-18.5 3.1-41.34 3.1-22.84 0-41.36-1.38-41.36-3.1v-24.74c0-1.7 18.52-3.1 41.36-3.1s41.35 1.4 41.35 3.1z" stroke="#000" stroke-width="3" fill="#136a7f"/><path d="M1102.7-183.04c0 1.7-18.5 3.1-41.34 3.1-22.84 0-41.36-1.4-41.36-3.1" stroke="#000" stroke-width="3" fill="none"/><path d="M1102.7-186.74c0 1.7-18.5 3.1-41.34 3.1-22.84 0-41.36-1.4-41.36-3.1v-24.75c0-1.7 18.52-3.08 41.36-3.08s41.35 1.4 41.35 3.1z" stroke="#000" stroke-width="3" fill="#136a7f"/><path d="M1102.7-211.5c0 1.72-18.5 3.1-41.34 3.1-22.84 0-41.36-1.38-41.36-3.1" stroke="#000" stroke-width="3" fill="none"/><path d="M1103.43 387.46c0 1.7-18.52 3.1-41.36 3.1s-41.35-1.4-41.35-3.1V362.7c0-1.7 18.5-3.08 41.35-3.08 22.84 0 41.36 1.38 41.36 3.1z" stroke="#000" stroke-width="3" fill="#136a7f"/><path d="M1103.43 362.7c0 1.72-18.52 3.1-41.36 3.1s-41.35-1.38-41.35-3.1" stroke="#000" stroke-width="3" fill="none"/><path d="M1103.07 359.8c0 1.7-18.52 3.1-41.36 3.1-22.83 0-41.34-1.4-41.34-3.1v-24.74c0-1.7 18.5-3.1 41.35-3.1s41.37 1.4 41.37 3.1z" stroke="#000" stroke-width="3" fill="#136a7f"/><path d="M1103.07 335.06c0 1.7-18.52 3.1-41.36 3.1-22.83 0-41.34-1.4-41.34-3.1" stroke="#000" stroke-width="3" fill="none"/><path d="M1103.07 331.36c0 1.7-18.52 3.1-41.36 3.1-22.83 0-41.34-1.4-41.34-3.1V306.6c0-1.7 18.5-3.08 41.35-3.08s41.37 1.38 41.37 3.1z" stroke="#000" stroke-width="3" fill="#136a7f"/><path d="M1103.07 306.6c0 1.72-18.52 3.1-41.36 3.1-22.83 0-41.34-1.38-41.34-3.1" stroke="#000" stroke-width="3" fill="none"/><path d="M-147.2-149.07c0 2.66-34.64 4.82-77.35 4.82-42.72 0-77.35-2.16-77.35-4.82v-38.6c0-2.67 34.63-4.83 77.35-4.83 42.7 0 77.34 2.16 77.34 4.83z" stroke="#000" stroke-width="3" fill="#429d9e"/><path d="M-147.2-187.67c0 2.66-34.64 4.82-77.35 4.82-42.72 0-77.35-2.16-77.35-4.82" stroke="#000" stroke-width="3" fill="none"/><path d="M-147.88-192.2c0 2.66-34.63 4.82-77.34 4.82-42.72 0-77.35-2.16-77.35-4.83v-38.6c0-2.67 34.63-4.83 77.35-4.83 42.7 0 77.34 2.16 77.34 4.82z" stroke="#000" stroke-width="3" fill="#429d9e"/><path d="M-147.88-230.8c0 2.66-34.63 4.82-77.34 4.82-42.72 0-77.35-2.16-77.35-4.83" stroke="#000" stroke-width="3" fill="none"/><g><use xlink:href="#v" transform="matrix(1,0,0,1,-297.57114583333345,-220.981064960338) translate(0.6521267361111143 22.428819444444443)"/><use xlink:href="#w" transform="matrix(1,0,0,1,-297.57114583333345,-220.981064960338) translate(57.58572048611111 22.428819444444443)"/><use xlink:href="#x" transform="matrix(1,0,0,1,-297.57114583333345,-220.981064960338) translate(115.72374131944444 22.428819444444443)"/></g><path d="M-147.88-236.57c0 2.66-34.63 4.82-77.34 4.82-42.72 0-77.35-2.16-77.35-4.82v-38.6c0-2.67 34.63-4.83 77.35-4.83 42.7 0 77.34 2.16 77.34 4.82z" stroke="#000" stroke-width="3" fill="#429d9e"/><path d="M-147.88-275.18c0 2.67-34.63 4.83-77.34 4.83-42.72 0-77.35-2.16-77.35-4.82" stroke="#000" stroke-width="3" fill="none"/><path d="M-450.58 25.2v175.68a6 6 0 0 0 6 6h24.22" stroke="#f89e5d" stroke-width="4" fill="none"/><path d="M-448.6 25.26h-3.95V23.2h3.95z" stroke="#f89e5d" stroke-width=".05" fill="#f89e5d"/><path d="M-404.1 206.88l-14.26 4.64v-9.27z" stroke="#f89e5d" stroke-width="4" fill="#f89e5d"/><defs><path d="M1264-420l196-1036h299L1436 0h-302L897-974 660 0H358L35-1456h299L531-422l240-1034h254" id="y"/><path d="M1315 0h-300v-624H430V0H130v-1456h300v590h585v-590h300V0" id="z"/><path d="M1245-974c0 302-233 466-552 461H430V0H130v-1456h568c323 5 547 167 547 482zm-303 2c1-143-93-241-237-241H430v457h268c151 1 244-71 244-216" id="A"/><path d="M399-777c-11 316 60 556 342 556 113 0 193-24 241-72v-251H709v-221h573v581C1177-55 960 24 725 20 280 12 81-292 94-770c11-421 200-700 610-706 347-5 543 171 578 483H990c-25-157-105-241-277-241-102 0-180 38-233 115s-76 191-81 342" id="B"/><g id="a"><use transform="matrix(0.026041666666666668,0,0,0.026041666666666668,0,0)" xlink:href="#y"/><use transform="matrix(0.026041666666666668,0,0,0.026041666666666668,46.640625,0)" xlink:href="#z"/><use transform="matrix(0.026041666666666668,0,0,0.026041666666666668,84.32291666666667,0)" xlink:href="#A"/><use transform="matrix(0.026041666666666668,0,0,0.026041666666666668,118.72395833333334,0)" xlink:href="#B"/></g><path d="M687-225c189-1 272-84 286-260h300c-19 311-251 505-586 505C296 20 86-277 86-686c0-466 174-782 605-790 340-6 557 198 584 514H975c-15-183-92-268-284-268-100 0-173 38-225 108-63 84-76 264-76 443 0 157 24 272 72 345s122 109 225 109" id="C"/><path d="M416 0H126v-1536h290V0" id="D"/><path d="M463 20c-241-1-359-147-359-393v-709h289v699c0 113 51 169 154 169 98 0 165-34 202-102v-766h290V0H767l-8-110C688-23 589 20 463 20" id="E"/><path d="M529-185c94 0 168-33 168-114 0-35-18-63-53-83s-91-39-168-55C219-491 90-600 90-765c0-208 203-337 432-337 246 0 451 124 453 349H686c-2-91-62-143-165-143-86 0-151 41-153 117 0 32 16 57 46 77 63 43 257 69 335 100 151 60 229 153 229 291C978-13 554 93 282-28 162-81 60-190 56-344h274c5 106 86 159 199 159" id="F"/><path d="M457-330c2 83 25 111 111 112 32 0 60-2 85-7V-6c-57 17-115 26-175 26-203 0-310-102-310-307v-583H10v-212h158v-266h289v266h185v212H457v540" id="G"/><path d="M1031-175C952-60 797 20 609 20 287 20 60-206 72-543c12-330 180-559 505-559 309 0 482 214 477 537v118H365c15 134 115 234 263 234 111 0 198-40 261-121zM770-644c5-139-62-226-194-224-130 1-191 97-208 224h402" id="H"/><path d="M719-811c-143-24-279 1-319 103V0H111v-1082h273l8 129c74-124 180-175 331-136" id="I"/><g id="b"><use transform="matrix(0.026041666666666668,0,0,0.026041666666666668,0,0)" xlink:href="#C"/><use transform="matrix(0.026041666666666668,0,0,0.026041666666666668,34.895833333333336,0)" xlink:href="#D"/><use transform="matrix(0.026041666666666668,0,0,0.026041666666666668,49.036458333333336,0)" xlink:href="#E"/><use transform="matrix(0.026041666666666668,0,0,0.026041666666666668,78.88020833333334,0)" xlink:href="#F"/><use transform="matrix(0.026041666666666668,0,0,0.026041666666666668,106.30208333333334,0)" xlink:href="#G"/><use transform="matrix(0.026041666666666668,0,0,0.026041666666666668,124.3229166666667,0)" xlink:href="#H"/><use transform="matrix(0.026041666666666668,0,0,0.026041666666666668,153.15104166666669,0)" xlink:href="#I"/></g><path d="M579 20C257 20 58-214 66-551c8-331 182-551 511-551 324 0 514 231 514 572 0 319-198 550-512 550zm-2-888c-169 0-222 141-222 338 0 181 61 317 224 317 170 0 223-137 223-338 0-178-64-317-225-317" id="J"/><path d="M488 20C204 20 66-234 66-549c0-305 140-551 424-553 105 0 192 39 261 118v-552h290V0H780l-14-115C694-25 601 20 488 20zM355-528c0 176 51 314 207 314 89 0 152-38 189-113v-427c-36-75-98-113-187-113-139 0-209 113-209 339" id="K"/><path d="M416 0H126v-1082h290V0zM271-1212c-92 0-162-61-162-150s68-149 162-149c93 0 162 60 162 149s-70 150-162 150" id="L"/><path d="M750-692c-1-124-48-174-173-175-81 0-142 35-183 104V0H105v-1082h272l9 125c77-97 181-145 311-145 244 0 342 151 342 403V0H750v-692" id="M"/><path d="M552-1102c254-4 435 134 435 383v469c1 103 15 180 43 233V0H738c-13-26-23-58-29-97C639-19 548 20 436 20 238 20 64-113 68-304c5-258 212-357 496-357h133c11-137-29-227-160-227-90 0-156 45-156 131H92c15-231 213-342 460-345zM357-325c0 76 61 124 142 124 88 0 168-45 198-105v-186H589c-152 2-232 51-232 167" id="N"/><g id="c"><use transform="matrix(0.013020833333333334,0,0,0.013020833333333334,0,0)" xlink:href="#C"/><use transform="matrix(0.013020833333333334,0,0,0.013020833333333334,17.447916666666668,0)" xlink:href="#J"/><use transform="matrix(0.013020833333333334,0,0,0.013020833333333334,32.52604166666667,0)" xlink:href="#J"/><use transform="matrix(0.013020833333333334,0,0,0.013020833333333334,47.60416666666667,0)" xlink:href="#I"/><use transform="matrix(0.013020833333333334,0,0,0.013020833333333334,57.083333333333336,0)" xlink:href="#K"/><use transform="matrix(0.013020833333333334,0,0,0.013020833333333334,72.109375,0)" xlink:href="#L"/><use transform="matrix(0.013020833333333334,0,0,0.013020833333333334,79.1796875,0)" xlink:href="#M"/><use transform="matrix(0.013020833333333334,0,0,0.013020833333333334,94.11458333333333,0)" xlink:href="#N"/><use transform="matrix(0.013020833333333334,0,0,0.013020833333333334,108.41145833333334,0)" xlink:href="#G"/><use transform="matrix(0.013020833333333334,0,0,0.013020833333333334,117.03125,0)" xlink:href="#J"/><use transform="matrix(0.013020833333333334,0,0,0.013020833333333334,132.109375,0)" xlink:href="#I"/></g><path d="M658-217c127 0 227-49 227-165 0-57-21-98-60-130-79-64-370-142-463-196-162-95-248-210-248-361 0-280 246-403 537-407 213-3 383 84 467 216 45 69 68 147 68 234H886c0-139-96-211-240-211-129 0-232 55-232 169 0 47 24 87 72 119s117 62 210 90c171 51 295 115 373 191s117 171 117 284c-2 272-237 411-528 404C331 13 78-135 69-458h301c0 161 96 241 288 241" id="O"/><path d="M505 20C221 18 69-239 69-549c0-302 153-553 438-553 119 0 211 41 277 122l12-102h262V-36c-8 305-208 458-520 462-160 1-335-76-403-170L263 80c72 81 159 121 262 121 172 1 260-107 243-294C701-18 614 20 505 20zm76-887c-165 0-223 147-223 339 0 172 66 314 221 314 88 0 151-33 189-99v-455c-39-66-101-99-187-99" id="P"/><path d="M741-689c-2-124-40-177-163-178-82 0-141 34-178 102V0H111v-1082h271l9 121c77-94 180-141 311-141 139 0 235 55 287 165 76-110 184-165 325-165 249 0 348 151 348 411V0h-290v-690c-2-123-39-176-163-177-87 0-147 41-180 124l1 743H741v-689" id="Q"/><g id="d"><use transform="matrix(0.013020833333333334,0,0,0.013020833333333334,0,0)" xlink:href="#O"/><use transform="matrix(0.013020833333333334,0,0,0.013020833333333334,16.393229166666668,0)" xlink:href="#H"/><use transform="matrix(0.013020833333333334,0,0,0.013020833333333334,30.807291666666668,0)" xlink:href="#P"/><use transform="matrix(0.013020833333333334,0,0,0.013020833333333334,46.028645833333336,0)" xlink:href="#Q"/><use transform="matrix(0.013020833333333334,0,0,0.013020833333333334,69.11458333333334,0)" xlink:href="#H"/><use transform="matrix(0.013020833333333334,0,0,0.013020833333333334,83.52864583333334,0)" xlink:href="#M"/><use transform="matrix(0.013020833333333334,0,0,0.013020833333333334,98.46354166666667,0)" xlink:href="#G"/></g><path d="M750-685c-1-124-48-182-173-182-85 0-146 33-184 98V0H104v-1536h289v572c77-92 173-138 289-138 235 0 357 136 357 409V0H750v-685" id="R"/><g id="e"><use transform="matrix(0.013020833333333334,0,0,0.013020833333333334,0,0)" xlink:href="#R"/><use transform="matrix(0.013020833333333334,0,0,0.013020833333333334,14.921875,0)" xlink:href="#J"/><use transform="matrix(0.013020833333333334,0,0,0.013020833333333334,30,0)" xlink:href="#F"/><use transform="matrix(0.013020833333333334,0,0,0.013020833333333334,43.7109375,0)" xlink:href="#G"/></g><path d="M801 0H512v-1114l-345 107v-235l603-216h31V0" id="S"/><use transform="matrix(0.013020833333333334,0,0,0.013020833333333334,0,0)" xlink:href="#S" id="f"/><path d="M1314 0h-300L430-958V0H130v-1456h300l585 960v-960h299V0" id="T"/><use transform="matrix(0.013020833333333334,0,0,0.013020833333333334,0,0)" xlink:href="#T" id="g"/><path d="M1006-631H430v390h676V0H130v-1456h974v243H430v347h576v235" id="U"/><path d="M522-1456L896-400l372-1056h394V0h-301c-7-379 15-728 30-1085L998 0H792L400-1084c15 357 37 705 30 1084H130v-1456h392" id="V"/><g id="h"><use transform="matrix(0.026041666666666668,0,0,0.026041666666666668,0,0)" xlink:href="#y"/><use transform="matrix(0.026041666666666668,0,0,0.026041666666666668,46.640625,0)" xlink:href="#U"/><use transform="matrix(0.026041666666666668,0,0,0.026041666666666668,76.640625,0)" xlink:href="#V"/></g><path fill="#fff" d="M430-241h637V0H130v-1456h300v1215" id="W"/><path fill="#fff" d="M579 20C257 20 58-214 66-551c8-331 182-551 511-551 324 0 514 231 514 572 0 319-198 550-512 550zm-2-888c-169 0-222 141-222 338 0 181 61 317 224 317 170 0 223-137 223-338 0-178-64-317-225-317" id="X"/><path fill="#fff" d="M504-434L400-330V0H111v-1536h289v851c106-137 222-264 333-397h347L689-631 1114 0H782" id="Y"/><path fill="#fff" d="M416 0H126v-1082h290V0zM271-1212c-92 0-162-61-162-150s68-149 162-149c93 0 162 60 162 149s-70 150-162 150" id="Z"/><g id="i"><use transform="matrix(0.015190972222222224,0,0,0.015190972222222224,0,0)" xlink:href="#W"/><use transform="matrix(0.015190972222222224,0,0,0.015190972222222224,16.846788194444446,0)" xlink:href="#X"/><use transform="matrix(0.015190972222222224,0,0,0.015190972222222224,34.437934027777786,0)" xlink:href="#Y"/><use transform="matrix(0.015190972222222224,0,0,0.015190972222222224,51.0568576388889,0)" xlink:href="#Z"/></g><path fill="#fff" d="M1006-631H430v390h676V0H130v-1456h974v243H430v347h576v235" id="aa"/><path fill="#fff" d="M523-759l182-323h309L706-552 1027 0H717L524-340 332 0H21l321-552-307-530h310" id="ab"/><path fill="#fff" d="M663-1102c295 0 422 250 422 571 0 300-141 549-420 551-109 0-198-38-265-114v510H111v-1498h268l10 106c70-84 161-126 274-126zm133 550c0-175-53-315-209-315-91 0-153 35-187 104v443c35 71 98 107 189 107 138 0 207-113 207-339" id="ac"/><path fill="#fff" d="M719-811c-143-24-279 1-319 103V0H111v-1082h273l8 129c74-124 180-175 331-136" id="ad"/><path fill="#fff" d="M457-330c2 83 25 111 111 112 32 0 60-2 85-7V-6c-57 17-115 26-175 26-203 0-310-102-310-307v-583H10v-212h158v-266h289v266h185v212H457v540" id="ae"/><path fill="#fff" d="M1031-175C952-60 797 20 609 20 287 20 60-206 72-543c12-330 180-559 505-559 309 0 482 214 477 537v118H365c15 134 115 234 263 234 111 0 198-40 261-121zM770-644c5-139-62-226-194-224-130 1-191 97-208 224h402" id="af"/><g id="j"><use transform="matrix(0.015190972222222224,0,0,0.015190972222222224,0,0)" xlink:href="#aa"/><use transform="matrix(0.015190972222222224,0,0,0.015190972222222224,17.5,0)" xlink:href="#ab"/><use transform="matrix(0.015190972222222224,0,0,0.015190972222222224,33.32899305555556,0)" xlink:href="#ac"/><use transform="matrix(0.015190972222222224,0,0,0.015190972222222224,50.844184027777786,0)" xlink:href="#X"/><use transform="matrix(0.015190972222222224,0,0,0.015190972222222224,68.43532986111111,0)" xlink:href="#ad"/><use transform="matrix(0.015190972222222224,0,0,0.015190972222222224,80.54253472222223,0)" xlink:href="#ae"/><use transform="matrix(0.015190972222222224,0,0,0.015190972222222224,91.0546875,0)" xlink:href="#af"/><use transform="matrix(0.015190972222222224,0,0,0.015190972222222224,107.87109375,0)" xlink:href="#ad"/></g><path d="M416-495c-3 181 88 274 258 274 169 0 257-89 257-266v-969h301v959c3 324-227 517-558 517-328 0-557-188-558-506v-970h300v961" id="ag"/><path d="M449 0H149v-1456h300V0" id="ah"/><g id="k"><use transform="matrix(0.013020833333333334,0,0,0.013020833333333334,0,0)" xlink:href="#ag"/><use transform="matrix(0.013020833333333334,0,0,0.013020833333333334,17.552083333333336,0)" xlink:href="#ah"/></g><path d="M355-556c-2 203 30 338 206 343 102 3 181-63 182-161h271C1001-128 821 17 566 20 242 24 66-212 66-554c0-320 184-548 498-548 262 0 451 167 450 423H743c-1-108-75-193-184-189-162 6-202 123-204 312" id="ai"/><g id="l"><use transform="matrix(0.013020833333333334,0,0,0.013020833333333334,0,0)" xlink:href="#C"/><use transform="matrix(0.013020833333333334,0,0,0.013020833333333334,17.447916666666668,0)" xlink:href="#J"/><use transform="matrix(0.013020833333333334,0,0,0.013020833333333334,32.52604166666667,0)" xlink:href="#D"/><use transform="matrix(0.013020833333333334,0,0,0.013020833333333334,39.59635416666667,0)" xlink:href="#D"/><use transform="matrix(0.013020833333333334,0,0,0.013020833333333334,46.66666666666667,0)" xlink:href="#H"/><use transform="matrix(0.013020833333333334,0,0,0.013020833333333334,61.08072916666667,0)" xlink:href="#ai"/><use transform="matrix(0.013020833333333334,0,0,0.013020833333333334,74.98697916666667,0)" xlink:href="#G"/><use transform="matrix(0.013020833333333334,0,0,0.013020833333333334,83.60677083333334,0)" xlink:href="#J"/><use transform="matrix(0.013020833333333334,0,0,0.013020833333333334,98.68489583333334,0)" xlink:href="#I"/></g><path fill="#fff" d="M1245-974c0 302-233 466-552 461H430V0H130v-1456h568c323 5 547 167 547 482zm-303 2c1-143-93-241-237-241H430v457h268c151 1 244-71 244-216" id="aj"/><path fill="#fff" d="M741-689c-2-124-40-177-163-178-82 0-141 34-178 102V0H111v-1082h271l9 121c77-94 180-141 311-141 139 0 235 55 287 165 76-110 184-165 325-165 249 0 348 151 348 411V0h-290v-690c-2-123-39-176-163-177-87 0-147 41-180 124l1 743H741v-689" id="ak"/><path fill="#fff" d="M750-685c-1-124-48-182-173-182-85 0-146 33-184 98V0H104v-1536h289v572c77-92 173-138 289-138 235 0 357 136 357 409V0H750v-685" id="al"/><path fill="#fff" d="M463 20c-241-1-359-147-359-393v-709h289v699c0 113 51 169 154 169 98 0 165-34 202-102v-766h290V0H767l-8-110C688-23 589 20 463 20" id="am"/><path fill="#fff" d="M529-185c94 0 168-33 168-114 0-35-18-63-53-83s-91-39-168-55C219-491 90-600 90-765c0-208 203-337 432-337 246 0 451 124 453 349H686c-2-91-62-143-165-143-86 0-151 41-153 117 0 32 16 57 46 77 63 43 257 69 335 100 151 60 229 153 229 291C978-13 554 93 282-28 162-81 60-190 56-344h274c5 106 86 159 199 159" id="an"/><g id="m"><use transform="matrix(0.015190972222222224,0,0,0.015190972222222224,0,0)" xlink:href="#aj"/><use transform="matrix(0.015190972222222224,0,0,0.015190972222222224,20.067274305555557,0)" xlink:href="#ad"/><use transform="matrix(0.015190972222222224,0,0,0.015190972222222224,30.868055555555557,0)" xlink:href="#X"/><use transform="matrix(0.015190972222222224,0,0,0.015190972222222224,48.45920138888889,0)" xlink:href="#ak"/><use transform="matrix(0.015190972222222224,0,0,0.015190972222222224,75.3927951388889,0)" xlink:href="#af"/><use transform="matrix(0.015190972222222224,0,0,0.015190972222222224,92.2092013888889,0)" xlink:href="#ae"/><use transform="matrix(0.015190972222222224,0,0,0.015190972222222224,102.72135416666669,0)" xlink:href="#al"/><use transform="matrix(0.015190972222222224,0,0,0.015190972222222224,120.13020833333336,0)" xlink:href="#af"/><use transform="matrix(0.015190972222222224,0,0,0.015190972222222224,136.94661458333337,0)" xlink:href="#am"/><use transform="matrix(0.015190972222222224,0,0,0.015190972222222224,154.35546875000003,0)" xlink:href="#an"/></g><path d="M1216-1011c-1 297-202 441-512 441H361V0H169v-1456h537c297-6 510 164 510 445zm-192 2c1-178-126-288-307-289H361v571h345c196 1 318-92 318-282" id="ao"/><path d="M491 20c-241-1-355-148-355-398v-704h185v699c0 164 67 246 200 246 141 0 235-53 282-158v-787h185V0H812l-4-107C736-22 630 20 491 20" id="ap"/><path d="M538-131c121 0 232-49 232-156 0-50-20-88-56-117-73-60-334-92-420-143-92-55-162-110-162-238 0-190 192-317 400-317 223 0 414 129 413 338H759c0-108-110-186-227-186-119 0-215 53-215 159 0 45 18 78 53 101 76 52 331 90 416 139 98 57 169 115 169 251C955-92 760 20 538 20c-176 0-314-68-386-174-38-55-57-115-57-179h185c6 129 116 202 258 202" id="aq"/><path d="M589-945c-131 0-219 81-264 174V0H140v-1536h185v585c82-101 189-151 320-151 229 0 346 129 346 387V0H806v-716c-2-153-65-229-217-229" id="ar"/><g id="n"><use transform="matrix(0.013020833333333334,0,0,0.013020833333333334,0,0)" xlink:href="#ao"/><use transform="matrix(0.013020833333333334,0,0,0.013020833333333334,16.822916666666668,0)" xlink:href="#ap"/><use transform="matrix(0.013020833333333334,0,0,0.013020833333333334,31.5234375,0)" xlink:href="#aq"/><use transform="matrix(0.013020833333333334,0,0,0.013020833333333334,45.2734375,0)" xlink:href="#ar"/></g><path d="M584 20C278 26 81-227 91-551c10-320 175-545 491-551 308-5 503 247 494 573-9 322-175 543-492 549zm-2-970c-208 0-305 185-305 421 0 216 106 398 307 398 211 0 307-186 307-420 0-214-109-399-309-399" id="as"/><path d="M456 20C285 20 205-92 206-268v-671H9v-143h197v-262h185v262h202v143H391v671c-9 125 92 149 207 118V0c-49 13-96 20-142 20" id="at"/><g id="o"><use transform="matrix(0.013020833333333334,0,0,0.013020833333333334,0,0)" xlink:href="#ar"/><use transform="matrix(0.013020833333333334,0,0,0.013020833333333334,14.6875,0)" xlink:href="#as"/><use transform="matrix(0.013020833333333334,0,0,0.013020833333333334,29.895833333333336,0)" xlink:href="#aq"/><use transform="matrix(0.013020833333333334,0,0,0.013020833333333334,43.645833333333336,0)" xlink:href="#at"/></g><path d="M1240-945c-141 0-250 95-250 227V0H804v-709c0-157-77-236-231-236-121 0-204 52-249 155V0H139v-1082h175l5 120c79-93 186-140 321-140 151 0 254 58 309 174 69-98 181-174 345-174 237 0 362 126 362 377V0h-185v-714c-2-159-67-231-231-231" id="au"/><path d="M599-131c141 0 220-65 285-146l113 88C906-50 770 20 589 20 281 21 93-214 93-545c0-223 93-397 233-485 74-48 154-72 240-72 300 2 449 218 445 537v77H278c0 197 129 357 321 357zm227-509c-3-180-88-310-260-310-170 0-264 140-282 310h542" id="av"/><path d="M663-916c-163-27-288 18-338 148V0H140v-1082h180l3 125c61-97 147-145 258-145 36 0 63 5 82 14v172" id="aw"/><path d="M341 0H156v-1082h185V0zm-91-1264c-68 0-108-42-109-105 0-62 41-107 109-107s110 44 110 107-42 105-110 105" id="ax"/><path d="M277-555c0 244 77 420 297 424 127 2 249-93 255-210h175C980-127 805 20 574 20 258 20 81-222 92-562c11-319 164-533 481-540 237-5 426 165 431 392H829c-7-133-115-242-256-240-209 4-296 166-296 395" id="ay"/><g id="p"><use transform="matrix(0.013020833333333334,0,0,0.013020833333333334,0,0)" xlink:href="#au"/><use transform="matrix(0.013020833333333334,0,0,0.013020833333333334,23.372395833333336,0)" xlink:href="#av"/><use transform="matrix(0.013020833333333334,0,0,0.013020833333333334,37.5,0)" xlink:href="#at"/><use transform="matrix(0.013020833333333334,0,0,0.013020833333333334,46.2109375,0)" xlink:href="#aw"/><use transform="matrix(0.013020833333333334,0,0,0.013020833333333334,55.234375,0)" xlink:href="#ax"/><use transform="matrix(0.013020833333333334,0,0,0.013020833333333334,61.70572916666667,0)" xlink:href="#ay"/><use transform="matrix(0.013020833333333334,0,0,0.013020833333333334,75.6640625,0)" xlink:href="#aq"/></g><path d="M561-1102c238-4 403 126 403 351v498c0 99 13 178 38 237V0H808c-11-21-19-59-26-114C696-25 593 20 474 20c-199 0-368-130-365-320 4-251 214-359 490-356h180v-85c-1-135-86-212-229-212-115 0-232 67-233 171H131c20-205 206-316 430-320zM294-326c0 117 90 185 207 185 122 0 239-75 278-162v-222H634c-227 0-340 66-340 199" id="az"/><path d="M589-945c-131 0-219 81-264 174V0H140v-1082h175l6 136c83-104 191-156 324-156 229 0 346 129 346 387V0H806v-716c-2-153-65-229-217-229" id="aA"/><path d="M520 20C244 20 95-247 95-550c0-298 151-550 427-552 127 0 227 43 301 130v-564h185V0H838l-9-116C755-25 652 20 520 20zm48-965c-210 0-288 177-288 416 0 218 87 392 286 392 117 0 203-53 257-158v-497c-55-102-140-153-255-153" id="aB"/><g id="q"><use transform="matrix(0.013020833333333334,0,0,0.013020833333333334,0,0)" xlink:href="#az"/><use transform="matrix(0.013020833333333334,0,0,0.013020833333333334,14.505208333333334,0)" xlink:href="#aA"/><use transform="matrix(0.013020833333333334,0,0,0.013020833333333334,29.21875,0)" xlink:href="#aB"/></g><path d="M341 0H156v-1536h185V0" id="aC"/><path d="M521 20C240 20 96-239 96-550c0-303 147-552 427-552 132 0 235 47 309 140l9-120h169V-26c4 277-183 454-459 452-165-1-334-81-400-187l96-111c79 98 176 147 291 147 180 1 288-109 286-290v-93C750-23 649 20 521 20zm48-965c-209 0-287 178-287 416 0 217 86 392 285 392 117 0 202-53 257-159v-494c-57-103-142-155-255-155" id="aD"/><g id="r"><use transform="matrix(0.013020833333333334,0,0,0.013020833333333334,0,0)" xlink:href="#aC"/><use transform="matrix(0.013020833333333334,0,0,0.013020833333333334,6.471354166666667,0)" xlink:href="#as"/><use transform="matrix(0.013020833333333334,0,0,0.013020833333333334,21.6796875,0)" xlink:href="#aD"/><use transform="matrix(0.013020833333333334,0,0,0.013020833333333334,36.640625,0)" xlink:href="#aq"/></g><path d="M1161-1018c0 201-122 330-278 388l342 618V0h-206L703-589H361V0H168v-1456h482c310-2 511 139 511 438zm-193 0c0-187-120-280-313-280H361v552h295c179 3 313-101 312-272" id="aE"/><path d="M497-251l268-831h189L566 0H425L33-1082h189" id="aF"/><g id="s"><use transform="matrix(0.013020833333333334,0,0,0.013020833333333334,0,0)" xlink:href="#aE"/><use transform="matrix(0.013020833333333334,0,0,0.013020833333333334,16.419270833333336,0)" xlink:href="#av"/><use transform="matrix(0.013020833333333334,0,0,0.013020833333333334,30.546875,0)" xlink:href="#at"/><use transform="matrix(0.013020833333333334,0,0,0.013020833333333334,39.2578125,0)" xlink:href="#aw"/><use transform="matrix(0.013020833333333334,0,0,0.013020833333333334,48.28125,0)" xlink:href="#ax"/><use transform="matrix(0.013020833333333334,0,0,0.013020833333333334,54.75260416666667,0)" xlink:href="#av"/><use transform="matrix(0.013020833333333334,0,0,0.013020833333333334,68.7109375,0)" xlink:href="#aF"/><use transform="matrix(0.013020833333333334,0,0,0.013020833333333334,81.45833333333334,0)" xlink:href="#av"/></g><path d="M631-137c179 0 314-70 314-231 0-71-25-127-75-166s-141-77-272-115c-165-47-285-106-360-175s-112-154-112-255c0-245 231-397 495-397 206 0 369 89 449 218 43 68 65 142 65 223H942c0-184-129-283-321-283-172 0-299 76-301 236 0 59 26 109 76 150s135 78 256 113c205 59 345 116 436 256 35 53 50 119 50 193-2 256-231 398-507 390C333 12 90-129 80-422h193c0 187 160 285 358 285" id="aG"/><path d="M1281-774c0 326-74 568-255 695l260 204-131 121L848 2C681 41 515 15 391-64 196-188 109-439 109-773c0-282 107-505 279-617 171-112 445-111 616-1 174 112 277 332 277 617zM696-143c312 0 393-279 393-632 0-307-114-536-395-536-268 0-393 232-393 523v107c-3 297 122 538 395 538" id="aH"/><path d="M362-157h690V0H169v-1456h193v1299" id="aI"/><g id="t"><use transform="matrix(0.013020833333333334,0,0,0.013020833333333334,0,0)" xlink:href="#aG"/><use transform="matrix(0.013020833333333334,0,0,0.013020833333333334,15.8203125,0)" xlink:href="#aH"/><use transform="matrix(0.013020833333333334,0,0,0.013020833333333334,34.153645833333336,0)" xlink:href="#aI"/></g><g id="u"><use transform="matrix(0.013020833333333334,0,0,0.013020833333333334,0,0)" xlink:href="#au"/><use transform="matrix(0.013020833333333334,0,0,0.013020833333333334,23.372395833333336,0)" xlink:href="#av"/><use transform="matrix(0.013020833333333334,0,0,0.013020833333333334,37.5,0)" xlink:href="#at"/><use transform="matrix(0.013020833333333334,0,0,0.013020833333333334,46.2109375,0)" xlink:href="#aw"/><use transform="matrix(0.013020833333333334,0,0,0.013020833333333334,55.234375,0)" xlink:href="#ax"/><use transform="matrix(0.013020833333333334,0,0,0.013020833333333334,61.70572916666667,0)" xlink:href="#ay"/><use transform="matrix(0.013020833333333334,0,0,0.013020833333333334,75.6640625,0)" xlink:href="#aq"/></g><path fill="#fff" d="M1264-420l196-1036h299L1436 0h-302L897-974 660 0H358L35-1456h299L531-422l240-1034h254" id="aJ"/><path fill="#fff" d="M522-1456L896-400l372-1056h394V0h-301c-7-379 15-728 30-1085L998 0H792L400-1084c15 357 37 705 30 1084H130v-1456h392" id="aK"/><g id="v"><use transform="matrix(0.010850694444444444,0,0,0.010850694444444444,0,0)" xlink:href="#aJ"/><use transform="matrix(0.010850694444444444,0,0,0.010850694444444444,19.43359375,0)" xlink:href="#aa"/><use transform="matrix(0.010850694444444444,0,0,0.010850694444444444,31.93359375,0)" xlink:href="#aK"/></g><path fill="#fff" d="M658-217c127 0 227-49 227-165 0-57-21-98-60-130-79-64-370-142-463-196-162-95-248-210-248-361 0-280 246-403 537-407 213-3 383 84 467 216 45 69 68 147 68 234H886c0-139-96-211-240-211-129 0-232 55-232 169 0 47 24 87 72 119s117 62 210 90c171 51 295 115 373 191s117 171 117 284c-2 272-237 411-528 404C331 13 78-135 69-458h301c0 161 96 241 288 241" id="aL"/><path fill="#fff" d="M552-1102c254-4 435 134 435 383v469c1 103 15 180 43 233V0H738c-13-26-23-58-29-97C639-19 548 20 436 20 238 20 64-113 68-304c5-258 212-357 496-357h133c11-137-29-227-160-227-90 0-156 45-156 131H92c15-231 213-342 460-345zM357-325c0 76 61 124 142 124 88 0 168-45 198-105v-186H589c-152 2-232 51-232 167" id="aM"/><g id="w"><use transform="matrix(0.010850694444444444,0,0,0.010850694444444444,0,0)" xlink:href="#aL"/><use transform="matrix(0.010850694444444444,0,0,0.010850694444444444,13.661024305555555,0)" xlink:href="#ae"/><use transform="matrix(0.010850694444444444,0,0,0.010850694444444444,21.16970486111111,0)" xlink:href="#aM"/><use transform="matrix(0.010850694444444444,0,0,0.010850694444444444,33.083767361111114,0)" xlink:href="#ae"/><use transform="matrix(0.010850694444444444,0,0,0.010850694444444444,40.59244791666667,0)" xlink:href="#af"/></g><path fill="#fff" d="M130 0v-1456h448c435 14 673 299 665 762-5 285-130 500-319 606C822-31 708 0 581 0H130zm809-685c9-311-79-526-361-528H430v972h145c252-2 356-181 364-444" id="aN"/><path fill="#fff" d="M1212-428C1211-131 1004 0 696 0H130v-1456h510c318-1 539 108 539 399 0 155-89 264-208 308 141 33 242 151 241 321zM687-241c132 2 225-65 225-190 0-133-69-203-207-203H430v393h257zm192-786c0-145-86-186-239-186H430v367h222c151-3 227-63 227-181" id="aO"/><g id="x"><use transform="matrix(0.010850694444444444,0,0,0.010850694444444444,0,0)" xlink:href="#aN"/><use transform="matrix(0.010850694444444444,0,0,0.010850694444444444,14.442274305555555,0)" xlink:href="#aO"/></g></defs></g></svg>