<svg width="1656" height="730" viewBox="0 0 1656 730" fill="none" xmlns="http://www.w3.org/2000/svg">
<rect width="1656" height="729" transform="translate(0 0.285645)" fill="white"/>
<path d="M613.56 656.286H1036.44C1039.51 656.286 1042 653.83 1042 650.801V80.7706C1042 77.7416 1039.51 75.2856 1036.44 75.2856H613.56C610.489 75.2856 608 77.7416 608 80.7706V650.784C608 653.83 610.489 656.286 613.56 656.286Z" fill="white" stroke="#A8AAAD" stroke-width="5.75222"/>
<path d="M1147.56 656.286H1570.44C1573.51 656.286 1576 653.83 1576 650.801V80.7706C1576 77.7416 1573.51 75.2856 1570.44 75.2856H1147.56C1144.49 75.2856 1142 77.7416 1142 80.7706V650.784C1142 653.83 1144.49 656.286 1147.56 656.286Z" fill="white" stroke="#A8AAAD" stroke-width="5.75222"/>
<path d="M79.5598 656.286H502.44C505.51 656.286 508 653.83 508 650.801V80.7706C508 77.7416 505.51 75.2856 502.44 75.2856H79.5598C76.4895 75.2856 74 77.7416 74 80.7706V650.784C74 653.83 76.4895 656.286 79.5598 656.286Z" fill="white" stroke="#A8AAAD" stroke-width="5.75222"/>
<path fill-rule="evenodd" clip-rule="evenodd" d="M948.288 581.286H699.712C694.904 581.286 691 576.896 691 571.491V239.081C691 233.675 694.904 229.286 699.712 229.286H948.288C953.096 229.286 957 233.675 957 239.081V571.491C957 576.896 953.128 581.286 948.288 581.286Z" fill="white" stroke="#A8AAAD" stroke-width="5.77807"/>
<path fill-rule="evenodd" clip-rule="evenodd" d="M1482.29 581.286H1233.71C1228.9 581.286 1225 576.896 1225 571.491V239.081C1225 233.675 1228.9 229.286 1233.71 229.286H1482.29C1487.1 229.286 1491 233.675 1491 239.081V571.491C1491 576.896 1487.13 581.286 1482.29 581.286Z" fill="white" stroke="#A8AAAD" stroke-width="5.77807"/>
<path fill-rule="evenodd" clip-rule="evenodd" d="M414.288 581.286H165.712C160.904 581.286 157 576.896 157 571.491V239.081C157 233.675 160.904 229.286 165.712 229.286H414.288C419.096 229.286 423 233.675 423 239.081V571.491C423 576.896 419.128 581.286 414.288 581.286Z" fill="white" stroke="#A8AAAD" stroke-width="5.77807"/>
<path opacity="0.15" fill-rule="evenodd" clip-rule="evenodd" d="M948.288 581.286H699.712C694.904 581.286 691 576.896 691 571.491V239.081C691 233.675 694.904 229.286 699.712 229.286H948.288C953.096 229.286 957 233.675 957 239.081V571.491C957 576.896 953.096 581.286 948.288 581.286Z" fill="#D2D3D4"/>
<path opacity="0.15" fill-rule="evenodd" clip-rule="evenodd" d="M1482.29 581.286H1233.71C1228.9 581.286 1225 576.896 1225 571.491V239.081C1225 233.675 1228.9 229.286 1233.71 229.286H1482.29C1487.1 229.286 1491 233.675 1491 239.081V571.491C1491 576.896 1487.1 581.286 1482.29 581.286Z" fill="#D2D3D4"/>
<path opacity="0.15" fill-rule="evenodd" clip-rule="evenodd" d="M414.288 581.286H165.712C160.904 581.286 157 576.896 157 571.491V239.081C157 233.675 160.904 229.286 165.712 229.286H414.288C419.096 229.286 423 233.675 423 239.081V571.491C423 576.896 419.096 581.286 414.288 581.286Z" fill="#D2D3D4"/>
<path d="M810.097 400.452C803.214 397.058 795.264 399.45 792.324 405.784C791.968 406.559 791.677 407.367 791.516 408.207" fill="#FEFDF1"/>
<path d="M790.964 408.986C790.899 408.986 790.802 408.986 790.738 408.953C790.188 408.824 789.833 408.307 789.962 407.758C790.156 406.885 790.479 406.045 790.867 405.237C794.099 398.742 802.792 396.221 810.289 399.679C810.806 399.905 811.032 400.519 810.774 401.004C810.515 401.521 809.933 401.715 809.416 401.488C802.953 398.515 795.456 400.584 792.741 406.11C792.418 406.788 792.16 407.467 791.998 408.21C791.869 408.695 791.449 408.986 790.964 408.986Z" fill="#482B29"/>
<path d="M889.92 393.054C889.92 382.583 860.771 374.117 824.804 374.117C788.836 374.117 759.688 382.583 759.688 393.054V428.795C759.688 439.265 788.836 447.732 824.804 447.732C860.771 447.732 889.92 439.265 889.92 428.795V393.054Z" fill="#808285"/>
<path d="M824.799 450.058C790.899 450.058 756.58 442.593 756.58 428.309V392.73C756.58 378.446 790.899 370.981 824.799 370.981C858.698 370.981 893.018 378.446 893.018 392.73V428.309C893.018 442.593 858.698 450.058 824.799 450.058ZM824.799 376.766C786.149 376.766 762.397 386.073 762.397 392.73V428.309C762.397 434.966 786.149 444.273 824.799 444.273C863.449 444.273 887.201 434.966 887.201 428.309V392.73C887.201 386.073 863.481 376.766 824.799 376.766Z" fill="#231F20"/>
<path d="M824.804 374.117C788.836 374.117 759.688 382.616 759.688 393.118C759.688 403.621 788.836 412.12 824.804 412.12C860.771 412.12 889.92 403.621 889.92 393.118C889.92 382.616 860.771 374.117 824.804 374.117Z" fill="#D2D3D4"/>
<path d="M824.796 413.64C792.028 413.64 758.129 405.949 758.129 393.087C758.129 380.225 792.028 372.534 824.796 372.534C857.565 372.534 891.464 380.225 891.464 393.087C891.464 405.949 857.565 413.64 824.796 413.64ZM824.796 375.669C787.342 375.669 761.231 384.847 761.231 393.087C761.231 401.328 787.342 410.505 824.796 410.505C862.25 410.505 888.362 401.328 888.362 393.087C888.362 384.847 862.25 375.669 824.796 375.669Z" fill="#231F20"/>
<path d="M889.92 341.122C889.92 330.651 860.771 322.185 824.804 322.185C788.836 322.185 759.688 330.651 759.688 341.122V376.863C759.688 387.333 788.836 395.8 824.804 395.8C860.771 395.8 889.92 387.333 889.92 376.863V341.122Z" fill="#8171B5"/>
<path d="M824.799 398.159C790.899 398.159 756.58 390.694 756.58 376.411V340.831C756.58 326.547 790.899 319.082 824.799 319.082C858.698 319.082 893.018 326.547 893.018 340.831V376.411C893.018 390.694 858.698 398.159 824.799 398.159ZM824.799 324.867C786.149 324.867 762.397 334.174 762.397 340.831V376.411C762.397 383.068 786.149 392.375 824.799 392.375C863.449 392.375 887.201 383.068 887.201 376.411V340.831C887.201 334.174 863.481 324.867 824.799 324.867Z" fill="#231F20"/>
<path d="M862.613 356.635C851.949 358.865 838.894 360.157 824.804 360.157C788.836 360.157 759.688 351.658 759.688 341.156C759.688 330.653 788.836 322.154 824.804 322.154C860.771 322.154 889.92 330.653 889.92 341.156C889.92 345.098 885.816 348.75 878.804 351.755" fill="#D2D3D4"/>
<path d="M824.796 361.708C792.028 361.708 758.129 354.017 758.129 341.155C758.129 328.294 792.028 320.603 824.796 320.603C857.565 320.603 891.464 328.294 891.464 341.155C891.464 345.615 887.295 349.784 879.41 353.209C878.635 353.532 877.73 353.177 877.374 352.401C877.051 351.626 877.407 350.689 878.182 350.365C884.742 347.522 888.362 344.258 888.362 341.188C888.362 332.947 862.25 323.769 824.796 323.769C787.342 323.769 761.231 332.947 761.231 341.188C761.231 349.428 787.342 358.606 824.796 358.606C838.337 358.606 851.295 357.41 862.283 355.116C863.123 354.954 863.931 355.471 864.125 356.311C864.286 357.152 863.769 357.96 862.929 358.154C851.748 360.48 838.563 361.708 824.796 361.708Z" fill="#231F20"/>
<path d="M869.102 355.988C868.391 355.988 867.713 355.568 867.519 354.954C867.292 354.178 867.68 353.403 868.52 353.209L870.104 352.821C870.944 352.595 871.817 353.047 872.043 353.823C872.269 354.598 871.784 355.406 870.976 355.632L869.555 355.988C869.393 355.988 869.231 355.988 869.102 355.988Z" fill="#231F20"/>
<path d="M889.92 292.293C889.92 281.822 860.771 273.355 824.804 273.355C788.836 273.355 759.688 281.822 759.688 292.293V328.034C759.688 338.504 788.836 346.971 824.804 346.971C860.771 346.971 889.92 338.504 889.92 328.034V292.293Z" fill="#808285"/>
<path d="M824.799 349.33C790.899 349.33 756.58 341.865 756.58 327.582V292.002C756.58 277.718 790.899 270.286 824.799 270.286C858.698 270.286 893.018 277.751 893.018 292.002V327.582C893.018 341.865 858.698 349.33 824.799 349.33ZM824.799 276.038C786.149 276.038 762.397 285.345 762.397 292.002V327.582C762.397 334.239 786.149 343.546 824.799 343.546C863.449 343.546 887.201 334.239 887.201 327.582V292.002C887.201 285.345 863.481 276.038 824.799 276.038Z" fill="#231F20"/>
<path d="M768.111 301.697C762.747 298.95 759.709 295.75 759.709 292.357C759.709 281.855 788.858 273.356 824.825 273.356C860.793 273.356 889.942 281.855 889.942 292.357C889.942 302.86 860.793 311.359 824.825 311.359C807.31 311.359 791.411 309.355 779.712 306.059" fill="#D2D3D4"/>
<path d="M824.796 312.88C807.766 312.88 791.576 310.974 779.263 307.516C778.423 307.29 777.971 306.417 778.197 305.609C778.423 304.769 779.296 304.284 780.104 304.543C792.157 307.904 808.025 309.778 824.796 309.778C862.25 309.778 888.362 300.6 888.362 292.36C888.362 284.119 862.25 274.942 824.796 274.942C787.342 274.942 761.231 284.119 761.231 292.36C761.231 295.721 765.335 298.532 768.793 300.31C769.569 300.697 769.86 301.635 769.472 302.41C769.084 303.186 768.147 303.477 767.371 303.089C761.231 299.922 758.129 296.302 758.129 292.36C758.129 279.498 792.028 271.839 824.796 271.839C857.565 271.839 891.464 279.531 891.464 292.36C891.464 305.222 857.565 312.88 824.796 312.88Z" fill="#231F20"/>
<path d="M775.259 305.607C775.097 305.607 774.935 305.575 774.806 305.542L774.031 305.284C773.287 305.025 772.738 304.153 772.996 303.377C773.255 302.634 773.934 302.181 774.709 302.44L775.743 302.795C776.519 303.054 776.907 303.862 776.648 304.637C776.422 305.219 775.873 305.607 775.259 305.607Z" fill="#231F20"/>
<path d="M760.471 507.286V480.14H769.468C775.827 480.14 779.434 483.553 779.434 489.719V497.746C779.434 504.028 776.021 507.286 769.623 507.286H760.471ZM769.274 482.777H763.496V504.649H769.39C774.47 504.649 776.332 502.089 776.332 497.785V489.68C776.332 485.453 774.082 482.777 769.274 482.777ZM795.858 507.286V504.649C794.889 506.665 793.105 507.673 790.041 507.673C786.124 507.673 783.953 505.734 783.953 502.632V501.469C783.953 498.715 785.737 496.699 790.623 496.699H795.858V495.109C795.858 491.852 794.733 490.611 791.709 490.611C788.955 490.611 787.753 491.929 787.521 493.829H784.573C785.039 490.339 787.171 487.974 791.98 487.974C796.634 487.974 798.883 490.107 798.883 494.721V507.286H795.858ZM790.933 505.463C794.074 505.463 795.858 504.028 795.858 500.499V498.638H790.894C787.986 498.638 786.978 499.724 786.978 501.508V502.322C786.978 504.377 788.257 505.463 790.933 505.463ZM814.12 504.92V507.48H811.367C807.179 507.48 805.434 505.734 805.434 501.663V490.921H802.486V488.362H805.434V482.777H808.458V488.362H814.12V490.921H808.458V501.701C808.458 503.834 809.35 504.92 811.91 504.92H814.12ZM829.146 507.286V504.649C828.176 506.665 826.392 507.673 823.329 507.673C819.412 507.673 817.241 505.734 817.241 502.632V501.469C817.241 498.715 819.024 496.699 823.911 496.699H829.146V495.109C829.146 491.852 828.021 490.611 824.996 490.611C822.243 490.611 821.041 491.929 820.808 493.829H817.861C818.326 490.339 820.459 487.974 825.268 487.974C829.921 487.974 832.171 490.107 832.171 494.721V507.286H829.146ZM824.221 505.463C827.362 505.463 829.146 504.028 829.146 500.499V498.638H824.182C821.274 498.638 820.265 499.724 820.265 501.508V502.322C820.265 504.377 821.545 505.463 824.221 505.463ZM865.85 507.286L863.29 500.228H851.656L849.058 507.286H845.878L855.961 480.14H859.141L869.146 507.286H865.85ZM862.398 497.63L857.434 483.902L852.471 497.63H862.398ZM876.62 480.14H879.335V507.286H876.31V483.01L870.609 484.871V482.234L876.62 480.14ZM781.281 551.286V524.14H785.973V547.214H797.956V551.286H781.281ZM817.43 545.469C816.849 549.385 813.785 551.673 809.132 551.673C803.974 551.673 800.484 548.649 800.484 542.987V540.272C800.484 534.611 803.897 531.586 809.209 531.586C814.289 531.586 817.547 534.727 817.547 540.505V542.715H805.293C805.331 543.22 805.37 543.724 805.448 544.189C805.758 546.438 807.038 547.757 809.403 547.757C809.52 547.757 809.675 547.718 809.791 547.718C811.575 547.602 812.506 546.671 812.855 545.469H817.43ZM805.293 539.73L805.758 539.846H813.048C812.893 536.86 811.769 535.464 809.209 535.464C806.65 535.464 805.409 537.093 805.293 539.73ZM832.864 551.286V548.92C831.933 550.782 830.266 551.673 827.396 551.673C823.557 551.673 821.23 549.657 821.23 546.322V545.275C821.23 542.366 823.247 540.234 828.482 540.234H832.864V539.264C832.864 536.782 831.972 535.658 829.646 535.658C827.513 535.658 826.66 536.627 826.427 538.023H821.812C822.355 534.184 824.759 531.586 829.956 531.586C834.842 531.586 837.556 533.874 837.556 538.799V551.286H832.864ZM829.025 548.338C831.468 548.338 832.864 547.136 832.864 544.034V542.948H829.103C826.776 542.948 825.923 543.84 825.923 545.275V545.895C825.923 547.485 826.853 548.338 829.025 548.338ZM854.602 551.286V548.494C853.555 550.626 851.616 551.673 849.057 551.673C844.868 551.673 841.65 548.649 841.65 542.987V540.311C841.65 534.611 844.868 531.586 849.057 531.586C851.771 531.586 853.632 532.788 854.602 534.766V522.977H859.294V551.286H854.602ZM850.414 535.658C847.699 535.658 846.458 537.558 846.458 540.505V542.754C846.458 545.74 847.699 547.602 850.53 547.602C853.051 547.602 854.602 545.973 854.602 542.754V540.389C854.602 537.48 853.012 535.658 850.414 535.658Z" fill="#5A5B5C"/>
<path d="M706.669 148.286L704.11 141.228H692.476L689.878 148.286H686.698L696.781 121.14H699.96L709.965 148.286H706.669ZM703.218 138.63L698.254 124.902L693.29 138.63H703.218ZM720.461 148.286H716.971L709.991 129.362H713.248L718.794 145.145L724.339 129.362H727.48L720.461 148.286ZM741.729 148.286V145.649C740.76 147.665 738.976 148.673 735.912 148.673C731.996 148.673 729.824 146.734 729.824 143.632V142.469C729.824 139.715 731.608 137.699 736.494 137.699H741.729V136.109C741.729 132.852 740.605 131.611 737.58 131.611C734.827 131.611 733.625 132.929 733.392 134.829H730.445C730.91 131.339 733.043 128.974 737.851 128.974C742.505 128.974 744.754 131.107 744.754 135.721V148.286H741.729ZM736.804 146.463C739.946 146.463 741.729 145.028 741.729 141.499V139.638H736.766C733.857 139.638 732.849 140.724 732.849 142.508V143.322C732.849 145.377 734.129 146.463 736.804 146.463ZM752.383 125.677C751.18 125.677 750.25 124.824 750.25 123.7C750.25 122.575 751.18 121.722 752.383 121.722C753.662 121.722 754.554 122.575 754.554 123.7C754.554 124.824 753.662 125.677 752.383 125.677ZM750.87 148.286V129.362H753.934V148.286H750.87ZM763.208 143.555C763.208 145.338 763.751 145.843 765.302 145.843H765.884V148.48H765.186C761.618 148.48 760.145 147.433 760.145 143.593V119.977H763.208V143.555ZM781.038 148.286V145.649C780.069 147.665 778.285 148.673 775.222 148.673C771.305 148.673 769.133 146.734 769.133 143.632V142.469C769.133 139.715 770.917 137.699 775.803 137.699H781.038V136.109C781.038 132.852 779.914 131.611 776.889 131.611C774.136 131.611 772.934 132.929 772.701 134.829H769.754C770.219 131.339 772.352 128.974 777.161 128.974C781.814 128.974 784.063 131.107 784.063 135.721V148.286H781.038ZM776.114 146.463C779.255 146.463 781.038 145.028 781.038 141.499V139.638H776.075C773.166 139.638 772.158 140.724 772.158 142.508V143.322C772.158 145.377 773.438 146.463 776.114 146.463ZM799.06 148.673C796.19 148.673 794.212 147.355 793.243 145.222V148.286H790.179V119.977H793.243V132.541C794.251 130.176 796.345 128.974 799.06 128.974C803.364 128.974 806.428 131.805 806.428 137.389V140.297C806.428 145.843 803.364 148.673 799.06 148.673ZM798.362 146.036C801.774 146.036 803.364 143.787 803.364 140.258V137.428C803.364 133.899 801.774 131.611 798.323 131.611C795.182 131.611 793.243 133.627 793.243 137.583V140.336C793.243 143.865 795.221 146.036 798.362 146.036ZM813.467 125.677C812.265 125.677 811.334 124.824 811.334 123.7C811.334 122.575 812.265 121.722 813.467 121.722C814.747 121.722 815.639 122.575 815.639 123.7C815.639 124.824 814.747 125.677 813.467 125.677ZM811.955 148.286V129.362H815.018V148.286H811.955ZM824.293 143.555C824.293 145.338 824.836 145.843 826.387 145.843H826.969V148.48H826.271C822.703 148.48 821.229 147.433 821.229 143.593V119.977H824.293V143.555ZM832.932 125.677C831.73 125.677 830.799 124.824 830.799 123.7C830.799 122.575 831.73 121.722 832.932 121.722C834.212 121.722 835.104 122.575 835.104 123.7C835.104 124.824 834.212 125.677 832.932 125.677ZM831.42 148.286V129.362H834.483V148.286H831.42ZM850.312 145.92V148.48H847.558C843.37 148.48 841.625 146.734 841.625 142.663V131.921H838.678V129.362H841.625V123.777H844.65V129.362H850.312V131.921H844.65V142.701C844.65 144.834 845.542 145.92 848.101 145.92H850.312ZM853.739 156.235H852.575V153.598H853.739C855.988 153.598 857.19 153.055 858.78 149.255L859.827 146.773L852.343 129.362H855.6L861.339 143.05L867.04 129.362H870.181L861.339 150.263C859.323 155.033 857.578 156.235 853.739 156.235ZM882.041 148.286V145.998L896.428 123.777H882.778V121.14H900.19V123.428L885.764 145.649H900.306V148.286H882.041ZM911.269 148.673C906.344 148.673 903.164 145.843 903.164 140.297V137.35C903.164 131.805 906.344 128.974 911.269 128.974C916.194 128.974 919.412 131.805 919.412 137.35V140.297C919.412 145.843 916.194 148.673 911.269 148.673ZM911.269 131.611C907.817 131.611 906.266 133.899 906.266 137.35V140.258C906.266 143.787 907.817 146.036 911.269 146.036C914.72 146.036 916.31 143.787 916.31 140.258V137.35C916.31 133.899 914.72 131.611 911.269 131.611ZM927.947 137.505V148.286H924.883V129.362H927.947V132.929C929.149 130.292 931.359 128.974 934.074 128.974C938.185 128.974 940.434 131.145 940.434 135.721V148.286H937.409V136.342C937.409 133.201 936.129 131.611 933.066 131.611C930.235 131.611 927.947 133.782 927.947 137.505ZM961.359 142.624C960.932 146.541 958.024 148.673 953.719 148.673C948.911 148.673 945.692 145.843 945.692 140.297V137.35C945.692 131.805 948.872 128.974 953.758 128.974C958.45 128.974 961.475 131.843 961.475 137.428V139.173H948.833C948.833 139.793 948.872 140.414 948.911 140.995C949.066 144.175 950.617 146.114 953.874 146.114C954.185 146.114 954.456 146.114 954.727 146.075C956.938 145.804 958.179 144.602 958.45 142.624H961.359ZM948.833 136.962L949.066 137.234H958.605C958.45 133.278 957.015 131.494 953.758 131.494C950.423 131.494 948.872 133.627 948.833 136.962Z" fill="#505050"/>
<path d="M1240.67 148.286L1238.11 141.228H1226.48L1223.88 148.286H1220.7L1230.78 121.14H1233.96L1243.97 148.286H1240.67ZM1237.22 138.63L1232.25 124.902L1227.29 138.63H1237.22ZM1254.46 148.286H1250.97L1243.99 129.362H1247.25L1252.79 145.145L1258.34 129.362H1261.48L1254.46 148.286ZM1275.73 148.286V145.649C1274.76 147.665 1272.98 148.673 1269.91 148.673C1266 148.673 1263.82 146.734 1263.82 143.632V142.469C1263.82 139.715 1265.61 137.699 1270.49 137.699H1275.73V136.109C1275.73 132.852 1274.6 131.611 1271.58 131.611C1268.83 131.611 1267.62 132.929 1267.39 134.829H1264.44C1264.91 131.339 1267.04 128.974 1271.85 128.974C1276.5 128.974 1278.75 131.107 1278.75 135.721V148.286H1275.73ZM1270.8 146.463C1273.95 146.463 1275.73 145.028 1275.73 141.499V139.638H1270.77C1267.86 139.638 1266.85 140.724 1266.85 142.508V143.322C1266.85 145.377 1268.13 146.463 1270.8 146.463ZM1286.38 125.677C1285.18 125.677 1284.25 124.824 1284.25 123.7C1284.25 122.575 1285.18 121.722 1286.38 121.722C1287.66 121.722 1288.55 122.575 1288.55 123.7C1288.55 124.824 1287.66 125.677 1286.38 125.677ZM1284.87 148.286V129.362H1287.93V148.286H1284.87ZM1297.21 143.555C1297.21 145.338 1297.75 145.843 1299.3 145.843H1299.88V148.48H1299.19C1295.62 148.48 1294.14 147.433 1294.14 143.593V119.977H1297.21V143.555ZM1315.04 148.286V145.649C1314.07 147.665 1312.29 148.673 1309.22 148.673C1305.3 148.673 1303.13 146.734 1303.13 143.632V142.469C1303.13 139.715 1304.92 137.699 1309.8 137.699H1315.04V136.109C1315.04 132.852 1313.91 131.611 1310.89 131.611C1308.14 131.611 1306.93 132.929 1306.7 134.829H1303.75C1304.22 131.339 1306.35 128.974 1311.16 128.974C1315.81 128.974 1318.06 131.107 1318.06 135.721V148.286H1315.04ZM1310.11 146.463C1313.25 146.463 1315.04 145.028 1315.04 141.499V139.638H1310.07C1307.17 139.638 1306.16 140.724 1306.16 142.508V143.322C1306.16 145.377 1307.44 146.463 1310.11 146.463ZM1333.06 148.673C1330.19 148.673 1328.21 147.355 1327.24 145.222V148.286H1324.18V119.977H1327.24V132.541C1328.25 130.176 1330.35 128.974 1333.06 128.974C1337.36 128.974 1340.43 131.805 1340.43 137.389V140.297C1340.43 145.843 1337.36 148.673 1333.06 148.673ZM1332.36 146.036C1335.77 146.036 1337.36 143.787 1337.36 140.258V137.428C1337.36 133.899 1335.77 131.611 1332.32 131.611C1329.18 131.611 1327.24 133.627 1327.24 137.583V140.336C1327.24 143.865 1329.22 146.036 1332.36 146.036ZM1347.47 125.677C1346.26 125.677 1345.33 124.824 1345.33 123.7C1345.33 122.575 1346.26 121.722 1347.47 121.722C1348.75 121.722 1349.64 122.575 1349.64 123.7C1349.64 124.824 1348.75 125.677 1347.47 125.677ZM1345.95 148.286V129.362H1349.02V148.286H1345.95ZM1358.29 143.555C1358.29 145.338 1358.84 145.843 1360.39 145.843H1360.97V148.48H1360.27C1356.7 148.48 1355.23 147.433 1355.23 143.593V119.977H1358.29V143.555ZM1366.93 125.677C1365.73 125.677 1364.8 124.824 1364.8 123.7C1364.8 122.575 1365.73 121.722 1366.93 121.722C1368.21 121.722 1369.1 122.575 1369.1 123.7C1369.1 124.824 1368.21 125.677 1366.93 125.677ZM1365.42 148.286V129.362H1368.48V148.286H1365.42ZM1384.31 145.92V148.48H1381.56C1377.37 148.48 1375.63 146.734 1375.63 142.663V131.921H1372.68V129.362H1375.63V123.777H1378.65V129.362H1384.31V131.921H1378.65V142.701C1378.65 144.834 1379.54 145.92 1382.1 145.92H1384.31ZM1387.74 156.235H1386.58V153.598H1387.74C1389.99 153.598 1391.19 153.055 1392.78 149.255L1393.83 146.773L1386.34 129.362H1389.6L1395.34 143.05L1401.04 129.362H1404.18L1395.34 150.263C1393.32 155.033 1391.58 156.235 1387.74 156.235ZM1416.04 148.286V145.998L1430.43 123.777H1416.78V121.14H1434.19V123.428L1419.76 145.649H1434.31V148.286H1416.04ZM1445.27 148.673C1440.34 148.673 1437.16 145.843 1437.16 140.297V137.35C1437.16 131.805 1440.34 128.974 1445.27 128.974C1450.19 128.974 1453.41 131.805 1453.41 137.35V140.297C1453.41 145.843 1450.19 148.673 1445.27 148.673ZM1445.27 131.611C1441.82 131.611 1440.27 133.899 1440.27 137.35V140.258C1440.27 143.787 1441.82 146.036 1445.27 146.036C1448.72 146.036 1450.31 143.787 1450.31 140.258V137.35C1450.31 133.899 1448.72 131.611 1445.27 131.611ZM1461.95 137.505V148.286H1458.88V129.362H1461.95V132.929C1463.15 130.292 1465.36 128.974 1468.07 128.974C1472.18 128.974 1474.43 131.145 1474.43 135.721V148.286H1471.41V136.342C1471.41 133.201 1470.13 131.611 1467.07 131.611C1464.23 131.611 1461.95 133.782 1461.95 137.505ZM1495.36 142.624C1494.93 146.541 1492.02 148.673 1487.72 148.673C1482.91 148.673 1479.69 145.843 1479.69 140.297V137.35C1479.69 131.805 1482.87 128.974 1487.76 128.974C1492.45 128.974 1495.47 131.843 1495.47 137.428V139.173H1482.83C1482.83 139.793 1482.87 140.414 1482.91 140.995C1483.07 144.175 1484.62 146.114 1487.87 146.114C1488.18 146.114 1488.46 146.114 1488.73 146.075C1490.94 145.804 1492.18 144.602 1492.45 142.624H1495.36ZM1482.83 136.962L1483.07 137.234H1492.61C1492.45 133.278 1491.02 131.494 1487.76 131.494C1484.42 131.494 1482.87 133.627 1482.83 136.962Z" fill="#505050"/>
<path d="M172.669 148.286L170.11 141.228H158.476L155.878 148.286H152.698L162.781 121.14H165.96L175.965 148.286H172.669ZM169.218 138.63L164.254 124.902L159.29 138.63H169.218ZM186.461 148.286H182.971L175.991 129.362H179.248L184.794 145.145L190.339 129.362H193.48L186.461 148.286ZM207.729 148.286V145.649C206.76 147.665 204.976 148.673 201.912 148.673C197.996 148.673 195.824 146.734 195.824 143.632V142.469C195.824 139.715 197.608 137.699 202.494 137.699H207.729V136.109C207.729 132.852 206.605 131.611 203.58 131.611C200.827 131.611 199.625 132.929 199.392 134.829H196.445C196.91 131.339 199.043 128.974 203.851 128.974C208.505 128.974 210.754 131.107 210.754 135.721V148.286H207.729ZM202.804 146.463C205.946 146.463 207.729 145.028 207.729 141.499V139.638H202.766C199.857 139.638 198.849 140.724 198.849 142.508V143.322C198.849 145.377 200.129 146.463 202.804 146.463ZM218.383 125.677C217.18 125.677 216.25 124.824 216.25 123.7C216.25 122.575 217.18 121.722 218.383 121.722C219.662 121.722 220.554 122.575 220.554 123.7C220.554 124.824 219.662 125.677 218.383 125.677ZM216.87 148.286V129.362H219.934V148.286H216.87ZM229.208 143.555C229.208 145.338 229.751 145.843 231.302 145.843H231.884V148.48H231.186C227.618 148.48 226.145 147.433 226.145 143.593V119.977H229.208V143.555ZM247.038 148.286V145.649C246.069 147.665 244.285 148.673 241.222 148.673C237.305 148.673 235.133 146.734 235.133 143.632V142.469C235.133 139.715 236.917 137.699 241.803 137.699H247.038V136.109C247.038 132.852 245.914 131.611 242.889 131.611C240.136 131.611 238.934 132.929 238.701 134.829H235.754C236.219 131.339 238.352 128.974 243.161 128.974C247.814 128.974 250.063 131.107 250.063 135.721V148.286H247.038ZM242.114 146.463C245.255 146.463 247.038 145.028 247.038 141.499V139.638H242.075C239.166 139.638 238.158 140.724 238.158 142.508V143.322C238.158 145.377 239.438 146.463 242.114 146.463ZM265.06 148.673C262.19 148.673 260.212 147.355 259.243 145.222V148.286H256.179V119.977H259.243V132.541C260.251 130.176 262.345 128.974 265.06 128.974C269.364 128.974 272.428 131.805 272.428 137.389V140.297C272.428 145.843 269.364 148.673 265.06 148.673ZM264.362 146.036C267.774 146.036 269.364 143.787 269.364 140.258V137.428C269.364 133.899 267.774 131.611 264.323 131.611C261.182 131.611 259.243 133.627 259.243 137.583V140.336C259.243 143.865 261.221 146.036 264.362 146.036ZM279.467 125.677C278.265 125.677 277.334 124.824 277.334 123.7C277.334 122.575 278.265 121.722 279.467 121.722C280.747 121.722 281.639 122.575 281.639 123.7C281.639 124.824 280.747 125.677 279.467 125.677ZM277.955 148.286V129.362H281.018V148.286H277.955ZM290.293 143.555C290.293 145.338 290.836 145.843 292.387 145.843H292.969V148.48H292.271C288.703 148.48 287.229 147.433 287.229 143.593V119.977H290.293V143.555ZM298.932 125.677C297.73 125.677 296.799 124.824 296.799 123.7C296.799 122.575 297.73 121.722 298.932 121.722C300.212 121.722 301.104 122.575 301.104 123.7C301.104 124.824 300.212 125.677 298.932 125.677ZM297.42 148.286V129.362H300.483V148.286H297.42ZM316.312 145.92V148.48H313.558C309.37 148.48 307.625 146.734 307.625 142.663V131.921H304.678V129.362H307.625V123.777H310.65V129.362H316.312V131.921H310.65V142.701C310.65 144.834 311.542 145.92 314.101 145.92H316.312ZM319.739 156.235H318.575V153.598H319.739C321.988 153.598 323.19 153.055 324.78 149.255L325.827 146.773L318.343 129.362H321.6L327.339 143.05L333.04 129.362H336.181L327.339 150.263C325.323 155.033 323.578 156.235 319.739 156.235ZM348.041 148.286V145.998L362.428 123.777H348.778V121.14H366.19V123.428L351.764 145.649H366.306V148.286H348.041ZM377.269 148.673C372.344 148.673 369.164 145.843 369.164 140.297V137.35C369.164 131.805 372.344 128.974 377.269 128.974C382.194 128.974 385.412 131.805 385.412 137.35V140.297C385.412 145.843 382.194 148.673 377.269 148.673ZM377.269 131.611C373.817 131.611 372.266 133.899 372.266 137.35V140.258C372.266 143.787 373.817 146.036 377.269 146.036C380.72 146.036 382.31 143.787 382.31 140.258V137.35C382.31 133.899 380.72 131.611 377.269 131.611ZM393.947 137.505V148.286H390.883V129.362H393.947V132.929C395.149 130.292 397.359 128.974 400.074 128.974C404.185 128.974 406.434 131.145 406.434 135.721V148.286H403.409V136.342C403.409 133.201 402.129 131.611 399.066 131.611C396.235 131.611 393.947 133.782 393.947 137.505ZM427.359 142.624C426.932 146.541 424.024 148.673 419.719 148.673C414.911 148.673 411.692 145.843 411.692 140.297V137.35C411.692 131.805 414.872 128.974 419.758 128.974C424.45 128.974 427.475 131.843 427.475 137.428V139.173H414.833C414.833 139.793 414.872 140.414 414.911 140.995C415.066 144.175 416.617 146.114 419.874 146.114C420.185 146.114 420.456 146.114 420.727 146.075C422.938 145.804 424.179 144.602 424.45 142.624H427.359ZM414.833 136.962L415.066 137.234H424.605C424.45 133.278 423.015 131.494 419.758 131.494C416.423 131.494 414.872 133.627 414.833 136.962Z" fill="#505050"/>
<path d="M1339.36 397.368C1332.75 394.108 1325.11 396.406 1322.28 402.492C1321.94 403.237 1321.66 404.014 1321.51 404.821" fill="#FEFDF1"/>
<path d="M1321.01 405.598C1320.95 405.598 1320.86 405.598 1320.79 405.567C1320.27 405.442 1319.93 404.946 1320.05 404.418C1320.24 403.579 1320.55 402.772 1320.92 401.995C1324.02 395.754 1332.38 393.332 1339.58 396.654C1340.08 396.872 1340.3 397.462 1340.05 397.927C1339.8 398.424 1339.24 398.611 1338.74 398.393C1332.53 395.536 1325.33 397.524 1322.72 402.834C1322.41 403.486 1322.16 404.138 1322.01 404.852C1321.88 405.287 1321.45 405.598 1321.01 405.598Z" fill="#482B29"/>
<path d="M1416.1 390.288C1416.1 380.227 1388.09 372.091 1353.52 372.091C1318.96 372.091 1290.95 380.227 1290.95 390.288V424.633C1290.95 434.694 1318.96 442.83 1353.52 442.83C1388.09 442.83 1416.1 434.694 1416.1 424.633V390.288Z" fill="#808285"/>
<path d="M1353.53 445.066C1320.95 445.066 1287.97 437.893 1287.97 424.167V389.977C1287.97 376.252 1320.95 369.078 1353.53 369.078C1386.1 369.078 1419.05 376.252 1419.05 389.977V424.167C1419.08 437.893 1386.1 445.066 1353.53 445.066ZM1353.53 374.637C1316.39 374.637 1293.56 383.58 1293.56 389.977V424.167C1293.56 430.564 1316.39 439.508 1353.53 439.508C1390.67 439.508 1413.49 430.564 1413.49 424.167V389.977C1413.49 383.58 1390.7 374.637 1353.53 374.637Z" fill="#231F20"/>
<path d="M1353.52 372.06C1318.96 372.06 1290.95 380.227 1290.95 390.319C1290.95 400.412 1318.96 408.579 1353.52 408.579C1388.09 408.579 1416.1 400.412 1416.1 390.319C1416.1 380.227 1388.09 372.06 1353.52 372.06Z" fill="#D2D3D4"/>
<path d="M1353.53 410.069C1322.04 410.069 1289.46 402.678 1289.46 390.319C1289.46 377.96 1322.04 370.569 1353.53 370.569C1385.01 370.569 1417.59 377.96 1417.59 390.319C1417.59 402.678 1385.01 410.069 1353.53 410.069ZM1353.53 373.582C1317.54 373.582 1292.44 382.401 1292.44 390.319C1292.44 398.238 1317.54 407.057 1353.53 407.057C1389.52 407.057 1414.61 398.238 1414.61 390.319C1414.61 382.401 1389.52 373.582 1353.53 373.582Z" fill="#231F20"/>
<path d="M1416.1 340.386C1416.1 330.325 1388.09 322.189 1353.52 322.189C1318.96 322.189 1290.95 330.325 1290.95 340.386V374.731C1290.95 384.793 1318.96 392.929 1353.52 392.929C1388.09 392.929 1416.1 384.793 1416.1 374.731V340.386Z" fill="#CAC1E1"/>
<path d="M1353.53 395.163C1320.95 395.163 1287.97 387.99 1287.97 374.264V340.075C1287.97 326.349 1320.95 319.176 1353.53 319.176C1386.1 319.176 1419.05 326.349 1419.05 340.075V374.264C1419.08 387.99 1386.1 395.163 1353.53 395.163ZM1353.53 324.734C1316.39 324.734 1293.56 333.678 1293.56 340.075V374.264C1293.56 380.661 1316.39 389.605 1353.53 389.605C1390.67 389.605 1413.49 380.661 1413.49 374.264V340.075C1413.49 333.678 1390.7 324.734 1353.53 324.734Z" fill="#231F20"/>
<path d="M1389.86 355.291C1379.61 357.434 1367.06 358.676 1353.52 358.676C1318.96 358.676 1290.95 350.509 1290.95 340.417C1290.95 330.325 1318.96 322.157 1353.52 322.157C1388.09 322.157 1416.1 330.325 1416.1 340.417C1416.1 344.205 1412.15 347.714 1405.41 350.602" fill="#D2D3D4"/>
<path d="M1353.53 360.167C1322.04 360.167 1289.46 352.776 1289.46 340.417C1289.46 328.058 1322.04 320.667 1353.53 320.667C1385.01 320.667 1417.59 328.058 1417.59 340.417C1417.59 344.702 1413.58 348.708 1406.01 352C1405.26 352.31 1404.39 351.969 1404.05 351.223C1403.74 350.478 1404.08 349.578 1404.83 349.267C1411.13 346.534 1414.61 343.398 1414.61 340.448C1414.61 332.529 1389.52 323.71 1353.53 323.71C1317.54 323.71 1292.44 332.529 1292.44 340.448C1292.44 348.367 1317.54 357.186 1353.53 357.186C1366.54 357.186 1378.99 356.037 1389.55 353.832C1390.36 353.677 1391.13 354.174 1391.32 354.981C1391.47 355.788 1390.98 356.565 1390.17 356.751C1379.43 358.987 1366.76 360.167 1353.53 360.167Z" fill="#231F20"/>
<path d="M1396.07 354.639C1395.39 354.639 1394.73 354.235 1394.55 353.645C1394.33 352.9 1394.7 352.155 1395.51 351.968L1397.03 351.596C1397.84 351.378 1398.68 351.813 1398.9 352.558C1399.11 353.304 1398.65 354.08 1397.87 354.297L1396.5 354.639C1396.35 354.639 1396.22 354.639 1396.07 354.639Z" fill="#231F20"/>
<path d="M1416.1 293.464C1416.1 283.403 1388.09 275.267 1353.52 275.267C1318.96 275.267 1290.95 283.403 1290.95 293.464V327.809C1290.95 337.87 1318.96 346.006 1353.52 346.006C1388.09 346.006 1416.1 337.87 1416.1 327.809V293.464Z" fill="#808285"/>
<path d="M1353.53 348.242C1320.95 348.242 1287.97 341.069 1287.97 327.343V293.154C1287.97 279.428 1320.95 272.286 1353.53 272.286C1386.1 272.286 1419.05 279.459 1419.05 293.154V327.343C1419.08 341.069 1386.1 348.242 1353.53 348.242ZM1353.53 277.813C1316.39 277.813 1293.56 286.757 1293.56 293.154V327.343C1293.56 333.74 1316.39 342.684 1353.53 342.684C1390.67 342.684 1413.49 333.74 1413.49 327.343V293.154C1413.49 286.757 1390.7 277.813 1353.53 277.813Z" fill="#231F20"/>
<path d="M1299.06 302.469C1293.9 299.83 1290.99 296.756 1290.99 293.495C1290.99 283.403 1319 275.236 1353.56 275.236C1388.12 275.236 1416.13 283.403 1416.13 293.495C1416.13 303.587 1388.12 311.754 1353.56 311.754C1336.73 311.754 1321.45 309.829 1310.21 306.662" fill="#D2D3D4"/>
<path d="M1353.53 313.245C1337.16 313.245 1321.6 311.413 1309.77 308.09C1308.97 307.873 1308.53 307.035 1308.75 306.258C1308.97 305.451 1309.8 304.985 1310.58 305.233C1322.16 308.463 1337.41 310.264 1353.53 310.264C1389.52 310.264 1414.61 301.445 1414.61 293.526C1414.61 285.608 1389.52 276.788 1353.53 276.788C1317.54 276.788 1292.44 285.608 1292.44 293.526C1292.44 296.756 1296.39 299.457 1299.71 301.165C1300.46 301.538 1300.74 302.439 1300.36 303.184C1299.99 303.929 1299.09 304.209 1298.34 303.836C1292.44 300.793 1289.46 297.315 1289.46 293.526C1289.46 281.167 1322.04 273.807 1353.53 273.807C1385.01 273.807 1417.59 281.198 1417.59 293.526C1417.59 305.854 1385.01 313.245 1353.53 313.245Z" fill="#231F20"/>
<path d="M1305.92 306.226C1305.76 306.226 1305.61 306.195 1305.48 306.164L1304.74 305.916C1304.03 305.667 1303.5 304.829 1303.75 304.084C1303.99 303.369 1304.65 302.935 1305.39 303.183L1306.39 303.525C1307.13 303.773 1307.5 304.549 1307.25 305.295C1307.04 305.854 1306.51 306.226 1305.92 306.226Z" fill="#231F20"/>
<path d="M1284.74 506.278V479.132H1293.73C1300.09 479.132 1303.7 482.545 1303.7 488.711V496.738C1303.7 503.02 1300.29 506.278 1293.89 506.278H1284.74ZM1293.54 481.769H1287.76V503.641H1293.66C1298.74 503.641 1300.6 501.081 1300.6 496.777V488.672C1300.6 484.445 1298.35 481.769 1293.54 481.769ZM1320.13 506.278V503.641C1319.16 505.657 1317.37 506.665 1314.31 506.665C1310.39 506.665 1308.22 504.726 1308.22 501.624V500.461C1308.22 497.707 1310 495.691 1314.89 495.691H1320.13V494.101C1320.13 490.844 1319 489.603 1315.98 489.603C1313.22 489.603 1312.02 490.921 1311.79 492.821H1308.84C1309.31 489.331 1311.44 486.966 1316.25 486.966C1320.9 486.966 1323.15 489.098 1323.15 493.713V506.278H1320.13ZM1315.2 504.455C1318.34 504.455 1320.13 503.02 1320.13 499.491V497.63H1315.16C1312.25 497.63 1311.24 498.716 1311.24 500.5V501.314C1311.24 503.369 1312.52 504.455 1315.2 504.455ZM1338.39 503.912V506.471H1335.63C1331.45 506.471 1329.7 504.726 1329.7 500.655V489.913H1326.75V487.353H1329.7V481.769H1332.73V487.353H1338.39V489.913H1332.73V500.693C1332.73 502.826 1333.62 503.912 1336.18 503.912H1338.39ZM1353.41 506.278V503.641C1352.44 505.657 1350.66 506.665 1347.6 506.665C1343.68 506.665 1341.51 504.726 1341.51 501.624V500.461C1341.51 497.707 1343.29 495.691 1348.18 495.691H1353.41V494.101C1353.41 490.844 1352.29 489.603 1349.26 489.603C1346.51 489.603 1345.31 490.921 1345.08 492.821H1342.13C1342.59 489.331 1344.73 486.966 1349.53 486.966C1354.19 486.966 1356.44 489.098 1356.44 493.713V506.278H1353.41ZM1348.49 504.455C1351.63 504.455 1353.41 503.02 1353.41 499.491V497.63H1348.45C1345.54 497.63 1344.53 498.716 1344.53 500.5V501.314C1344.53 503.369 1345.81 504.455 1348.49 504.455ZM1390.12 506.278L1387.56 499.22H1375.92L1373.33 506.278H1370.15L1380.23 479.132H1383.41L1393.41 506.278H1390.12ZM1386.67 496.622L1381.7 482.894L1376.74 496.622H1386.67ZM1404.57 506.898C1398.75 506.898 1395.81 504.145 1395.57 499.414H1398.52C1398.68 502.477 1400.62 504.261 1404.57 504.261C1408.22 504.261 1410 502.555 1410 498.832C1410 495.497 1408.37 493.481 1403.76 493.481H1402.01V491.037H1403.76C1408.37 491.037 1409.34 489.448 1409.34 485.996C1409.34 482.933 1407.91 481.381 1404.3 481.381C1401.16 481.381 1399.49 483.01 1399.34 485.996H1396.43C1396.58 481.343 1399.49 478.745 1404.3 478.745C1410.08 478.745 1412.44 481.653 1412.44 485.957C1412.44 489.021 1411.67 491.27 1408.41 492.162C1411.94 493.209 1413.1 495.768 1413.1 498.754C1413.1 503.912 1410.43 506.898 1404.57 506.898ZM1289.42 526.816C1286.48 526.816 1285.47 528.135 1285.47 529.957C1285.47 531.974 1286.44 532.672 1289.31 533.758L1292.14 534.844C1297.49 536.86 1299.04 538.877 1299.04 542.871C1299.04 547.873 1296.21 550.665 1289.93 550.665C1284.11 550.665 1280.62 548.184 1279.96 542.328H1284.58C1285.08 545.314 1286.52 546.594 1289.93 546.594C1293.03 546.594 1294.27 545.469 1294.27 543.103C1294.27 540.932 1293.34 540.079 1290.08 538.838L1287.41 537.868C1282.52 536.084 1280.66 534.223 1280.66 530.113C1280.66 525.847 1283.37 522.745 1289.42 522.745C1295.36 522.745 1298.34 525.847 1298.54 531.082H1293.92C1293.69 528.251 1292.49 526.816 1289.42 526.816ZM1308.62 539.691V550.278H1303.96V521.969H1308.62V534.339C1309.9 531.741 1311.95 530.578 1314.51 530.578C1318.51 530.578 1320.87 532.943 1320.87 537.481V550.278H1316.18V538.76C1316.18 536.007 1315.17 534.65 1312.73 534.65C1310.48 534.65 1308.62 536.317 1308.62 539.691ZM1336.93 550.278V547.912C1336 549.773 1334.33 550.665 1331.46 550.665C1327.62 550.665 1325.29 548.649 1325.29 545.314V544.267C1325.29 541.358 1327.31 539.226 1332.55 539.226H1336.93V538.256C1336.93 535.774 1336.04 534.65 1333.71 534.65C1331.58 534.65 1330.72 535.619 1330.49 537.015H1325.88C1326.42 533.176 1328.82 530.578 1334.02 530.578C1338.91 530.578 1341.62 532.866 1341.62 537.791V550.278H1336.93ZM1333.09 547.33C1335.53 547.33 1336.93 546.128 1336.93 543.026V541.94H1333.17C1330.84 541.94 1329.99 542.832 1329.99 544.267V544.887C1329.99 546.477 1330.92 547.33 1333.09 547.33ZM1358.67 550.278V547.486C1357.62 549.618 1355.68 550.665 1353.12 550.665C1348.93 550.665 1345.71 547.641 1345.71 541.979V539.303C1345.71 533.603 1348.93 530.578 1353.12 530.578C1355.83 530.578 1357.7 531.78 1358.67 533.758V521.969H1363.36V550.278H1358.67ZM1354.48 534.65C1351.76 534.65 1350.52 536.55 1350.52 539.497V541.746C1350.52 544.732 1351.76 546.594 1354.59 546.594C1357.11 546.594 1358.67 544.965 1358.67 541.746V539.381C1358.67 536.472 1357.08 534.65 1354.48 534.65ZM1377.08 550.665C1371.73 550.665 1368.28 547.641 1368.28 541.979V539.264C1368.28 533.603 1371.73 530.578 1377.08 530.578C1382.47 530.578 1385.93 533.603 1385.93 539.264V541.979C1385.93 547.641 1382.47 550.665 1377.08 550.665ZM1377.08 534.65C1374.33 534.65 1373.09 536.55 1373.09 539.419V541.824C1373.09 544.732 1374.33 546.594 1377.08 546.594C1379.88 546.594 1381.16 544.732 1381.16 541.824V539.419C1381.16 536.55 1379.88 534.65 1377.08 534.65ZM1407.1 550.278L1402.91 536.783L1398.57 550.278H1393.41L1388.18 530.966H1393.33L1396.44 545.081L1400.9 530.966H1405.2L1409.54 545.12L1412.84 530.966H1417.76L1412.49 550.278H1407.1Z" fill="#5A5B5C"/>
<path d="M271.364 397.368C264.75 394.108 257.111 396.406 254.285 402.492C253.944 403.237 253.664 404.014 253.509 404.821" fill="#FEFDF1"/>
<path d="M253.013 405.598C252.951 405.598 252.857 405.598 252.795 405.567C252.267 405.442 251.926 404.946 252.05 404.418C252.236 403.579 252.547 402.772 252.919 401.995C256.025 395.754 264.378 393.332 271.583 396.654C272.079 396.872 272.297 397.462 272.048 397.927C271.8 398.424 271.241 398.611 270.744 398.393C264.533 395.536 257.329 397.524 254.721 402.834C254.41 403.486 254.162 404.138 254.006 404.852C253.882 405.287 253.447 405.598 253.013 405.598Z" fill="#482B29"/>
<path d="M348.097 390.288C348.097 380.227 320.087 372.091 285.525 372.091C250.962 372.091 222.952 380.227 222.952 390.288V424.633C222.952 434.694 250.962 442.83 285.525 442.83C320.087 442.83 348.097 434.694 348.097 424.633V390.288Z" fill="#808285"/>
<path d="M285.525 445.066C252.95 445.066 219.972 437.893 219.972 424.167V389.977C219.972 376.252 252.95 369.078 285.525 369.078C318.1 369.078 351.048 376.252 351.048 389.977V424.167C351.079 437.893 318.1 445.066 285.525 445.066ZM285.525 374.637C248.386 374.637 225.561 383.58 225.561 389.977V424.167C225.561 430.564 248.386 439.508 285.525 439.508C322.665 439.508 345.489 430.564 345.489 424.167V389.977C345.489 383.58 322.696 374.637 285.525 374.637Z" fill="#231F20"/>
<path d="M285.525 372.06C250.962 372.06 222.952 380.227 222.952 390.319C222.952 400.412 250.962 408.579 285.525 408.579C320.087 408.579 348.097 400.412 348.097 390.319C348.097 380.227 320.087 372.06 285.525 372.06Z" fill="#D2D3D4"/>
<path d="M285.527 410.069C254.039 410.069 221.464 402.678 221.464 390.319C221.464 377.96 254.039 370.569 285.527 370.569C317.015 370.569 349.59 377.96 349.59 390.319C349.59 402.678 317.015 410.069 285.527 410.069ZM285.527 373.582C249.536 373.582 224.445 382.401 224.445 390.319C224.445 398.238 249.536 407.057 285.527 407.057C321.518 407.057 346.609 398.238 346.609 390.319C346.609 382.401 321.518 373.582 285.527 373.582Z" fill="#231F20"/>
<path d="M348.097 340.386C348.097 330.325 320.087 322.189 285.525 322.189C250.962 322.189 222.952 330.325 222.952 340.386V374.731C222.952 384.793 250.962 392.929 285.525 392.929C320.087 392.929 348.097 384.793 348.097 374.731V340.386Z" fill="#CAC1E1"/>
<path d="M285.525 395.163C252.95 395.163 219.972 387.99 219.972 374.264V340.075C219.972 326.349 252.95 319.176 285.525 319.176C318.1 319.176 351.048 326.349 351.048 340.075V374.264C351.079 387.99 318.1 395.163 285.525 395.163ZM285.525 324.734C248.386 324.734 225.561 333.678 225.561 340.075V374.264C225.561 380.661 248.386 389.605 285.525 389.605C322.665 389.605 345.489 380.661 345.489 374.264V340.075C345.489 333.678 322.696 324.734 285.525 324.734Z" fill="#231F20"/>
<path d="M321.857 355.291C311.609 357.434 299.064 358.676 285.525 358.676C250.962 358.676 222.952 350.509 222.952 340.417C222.952 330.325 250.962 322.157 285.525 322.157C320.087 322.157 348.097 330.325 348.097 340.417C348.097 344.205 344.153 347.714 337.415 350.602" fill="#D2D3D4"/>
<path d="M285.527 360.167C254.039 360.167 221.464 352.776 221.464 340.417C221.464 328.058 254.039 320.667 285.527 320.667C317.015 320.667 349.59 328.058 349.59 340.417C349.59 344.702 345.584 348.708 338.007 352C337.262 352.31 336.392 351.969 336.051 351.223C335.74 350.478 336.082 349.578 336.827 349.267C343.131 346.534 346.609 343.398 346.609 340.448C346.609 332.529 321.518 323.71 285.527 323.71C249.536 323.71 224.445 332.529 224.445 340.448C224.445 348.367 249.536 357.186 285.527 357.186C298.538 357.186 310.991 356.037 321.549 353.832C322.356 353.677 323.133 354.174 323.319 354.981C323.474 355.788 322.977 356.565 322.17 356.751C311.426 358.987 298.756 360.167 285.527 360.167Z" fill="#231F20"/>
<path d="M328.07 354.639C327.387 354.639 326.735 354.235 326.548 353.645C326.331 352.9 326.704 352.155 327.511 351.968L329.033 351.596C329.84 351.378 330.679 351.813 330.896 352.558C331.113 353.304 330.647 354.08 329.871 354.297L328.505 354.639C328.349 354.639 328.225 354.639 328.07 354.639Z" fill="#231F20"/>
<path d="M348.097 293.464C348.097 283.403 320.087 275.267 285.525 275.267C250.962 275.267 222.952 283.403 222.952 293.464V327.809C222.952 337.87 250.962 346.006 285.525 346.006C320.087 346.006 348.097 337.87 348.097 327.809V293.464Z" fill="#808285"/>
<path d="M285.525 348.242C252.95 348.242 219.972 341.069 219.972 327.343V293.154C219.972 279.428 252.95 272.286 285.525 272.286C318.1 272.286 351.048 279.459 351.048 293.154V327.343C351.079 341.069 318.1 348.242 285.525 348.242ZM285.525 277.813C248.386 277.813 225.561 286.757 225.561 293.154V327.343C225.561 333.74 248.386 342.684 285.525 342.684C322.665 342.684 345.489 333.74 345.489 327.343V293.154C345.489 286.757 322.696 277.813 285.525 277.813Z" fill="#231F20"/>
<path d="M231.059 302.469C225.904 299.83 222.985 296.756 222.985 293.495C222.985 283.403 250.995 275.236 285.558 275.236C320.12 275.236 348.13 283.403 348.13 293.495C348.13 303.587 320.12 311.754 285.558 311.754C268.727 311.754 253.449 309.829 242.207 306.662" fill="#D2D3D4"/>
<path d="M285.527 313.245C269.162 313.245 253.604 311.413 241.773 308.09C240.965 307.873 240.531 307.035 240.748 306.258C240.965 305.451 241.804 304.985 242.58 305.233C254.163 308.463 269.41 310.264 285.527 310.264C321.518 310.264 346.609 301.445 346.609 293.526C346.609 285.608 321.518 276.788 285.527 276.788C249.536 276.788 224.445 285.608 224.445 293.526C224.445 296.756 228.389 299.457 231.712 301.165C232.457 301.538 232.736 302.439 232.364 303.184C231.991 303.929 231.09 304.209 230.345 303.836C224.445 300.793 221.464 297.315 221.464 293.526C221.464 281.167 254.039 273.807 285.527 273.807C317.015 273.807 349.59 281.198 349.59 293.526C349.59 305.854 317.015 313.245 285.527 313.245Z" fill="#231F20"/>
<path d="M237.92 306.226C237.764 306.226 237.609 306.195 237.485 306.164L236.74 305.916C236.025 305.667 235.497 304.829 235.746 304.084C235.994 303.369 236.646 302.935 237.392 303.183L238.385 303.525C239.131 303.773 239.503 304.549 239.255 305.295C239.038 305.854 238.51 306.226 237.92 306.226Z" fill="#231F20"/>
<path d="M217.496 506.278V479.132H226.492C232.852 479.132 236.459 482.545 236.459 488.711V496.738C236.459 503.02 233.046 506.278 226.647 506.278H217.496ZM226.298 481.769H220.52V503.641H226.415C231.495 503.641 233.356 501.081 233.356 496.777V488.672C233.356 484.445 231.107 481.769 226.298 481.769ZM252.883 506.278V503.641C251.913 505.657 250.129 506.665 247.066 506.665C243.149 506.665 240.978 504.726 240.978 501.624V500.461C240.978 497.707 242.761 495.691 247.648 495.691H252.883V494.101C252.883 490.844 251.758 489.603 248.733 489.603C245.98 489.603 244.778 490.921 244.545 492.821H241.598C242.063 489.331 244.196 486.966 249.005 486.966C253.658 486.966 255.907 489.098 255.907 493.713V506.278H252.883ZM247.958 504.455C251.099 504.455 252.883 503.02 252.883 499.491V497.63H247.919C245.011 497.63 244.002 498.716 244.002 500.5V501.314C244.002 503.369 245.282 504.455 247.958 504.455ZM271.145 503.912V506.471H268.392C264.203 506.471 262.458 504.726 262.458 500.655V489.913H259.511V487.353H262.458V481.769H265.483V487.353H271.145V489.913H265.483V500.693C265.483 502.826 266.375 503.912 268.934 503.912H271.145ZM286.17 506.278V503.641C285.201 505.657 283.417 506.665 280.354 506.665C276.437 506.665 274.265 504.726 274.265 501.624V500.461C274.265 497.707 276.049 495.691 280.935 495.691H286.17V494.101C286.17 490.844 285.046 489.603 282.021 489.603C279.268 489.603 278.066 490.921 277.833 492.821H274.886C275.351 489.331 277.484 486.966 282.293 486.966C286.946 486.966 289.195 489.098 289.195 493.713V506.278H286.17ZM281.246 504.455C284.387 504.455 286.17 503.02 286.17 499.491V497.63H281.207C278.298 497.63 277.29 498.716 277.29 500.5V501.314C277.29 503.369 278.57 504.455 281.246 504.455ZM322.874 506.278L320.315 499.22H308.681L306.083 506.278H302.903L312.986 479.132H316.165L326.17 506.278H322.874ZM319.423 496.622L314.459 482.894L309.495 496.622H319.423ZM328.371 506.278V503.912L337.872 493.17C340.664 490.029 341.439 488.439 341.439 485.919C341.439 482.816 339.927 481.381 336.825 481.381C333.451 481.381 331.822 483.243 331.551 486.888H328.603C328.836 481.73 331.822 478.745 336.863 478.745C342.137 478.745 344.542 481.614 344.542 485.919C344.542 489.68 342.952 491.813 339.927 495.07L332.598 503.641H344.968V506.278H328.371ZM221.425 526.816C218.478 526.816 217.469 528.135 217.469 529.957C217.469 531.974 218.439 532.672 221.308 533.758L224.139 534.844C229.491 536.86 231.042 538.877 231.042 542.871C231.042 547.873 228.211 550.665 221.929 550.665C216.112 550.665 212.622 548.184 211.963 542.328H216.577C217.081 545.314 218.516 546.594 221.929 546.594C225.031 546.594 226.272 545.469 226.272 543.103C226.272 540.932 225.341 540.079 222.084 538.838L219.408 537.868C214.522 536.084 212.661 534.223 212.661 530.113C212.661 525.847 215.375 522.745 221.425 522.745C227.358 522.745 230.344 525.847 230.538 531.082H225.923C225.69 528.251 224.488 526.816 221.425 526.816ZM240.617 539.691V550.278H235.964V521.969H240.617V534.339C241.897 531.741 243.952 530.578 246.511 530.578C250.506 530.578 252.871 532.943 252.871 537.481V550.278H248.179V538.76C248.179 536.007 247.171 534.65 244.728 534.65C242.478 534.65 240.617 536.317 240.617 539.691ZM268.928 550.278V547.912C267.997 549.773 266.33 550.665 263.46 550.665C259.621 550.665 257.294 548.649 257.294 545.314V544.267C257.294 541.358 259.311 539.226 264.546 539.226H268.928V538.256C268.928 535.774 268.036 534.65 265.709 534.65C263.576 534.65 262.723 535.619 262.49 537.015H257.876C258.419 533.176 260.823 530.578 266.019 530.578C270.906 530.578 273.62 532.866 273.62 537.791V550.278H268.928ZM265.089 547.33C267.532 547.33 268.928 546.128 268.928 543.026V541.94H265.166C262.839 541.94 261.986 542.832 261.986 544.267V544.887C261.986 546.477 262.917 547.33 265.089 547.33ZM290.666 550.278V547.486C289.618 549.618 287.68 550.665 285.12 550.665C280.932 550.665 277.713 547.641 277.713 541.979V539.303C277.713 533.603 280.932 530.578 285.12 530.578C287.835 530.578 289.696 531.78 290.666 533.758V521.969H295.358V550.278H290.666ZM286.477 534.65C283.763 534.65 282.522 536.55 282.522 539.497V541.746C282.522 544.732 283.763 546.594 286.594 546.594C289.114 546.594 290.666 544.965 290.666 541.746V539.381C290.666 536.472 289.076 534.65 286.477 534.65ZM309.085 550.665C303.733 550.665 300.282 547.641 300.282 541.979V539.264C300.282 533.603 303.733 530.578 309.085 530.578C314.475 530.578 317.927 533.603 317.927 539.264V541.979C317.927 547.641 314.475 550.665 309.085 550.665ZM309.085 534.65C306.332 534.65 305.091 536.55 305.091 539.419V541.824C305.091 544.732 306.332 546.594 309.085 546.594C311.877 546.594 313.157 544.732 313.157 541.824V539.419C313.157 536.55 311.877 534.65 309.085 534.65ZM339.1 550.278L334.912 536.783L330.569 550.278H325.411L320.176 530.966H325.334L328.436 545.081L332.896 530.966H337.2L341.544 545.12L344.84 530.966H349.765L344.491 550.278H339.1Z" fill="#5A5B5C"/>
<path d="M474.706 376.62H636.805" stroke="#231F20" stroke-width="4.53721"/>
<path fill-rule="evenodd" clip-rule="evenodd" d="M481.487 365.286V387.955L455 376.62L481.487 365.286Z" fill="#231F20"/>
<path d="M1173.1 376.62H1011" stroke="#231F20" stroke-width="4.53721"/>
<path fill-rule="evenodd" clip-rule="evenodd" d="M1166.32 387.955V365.286L1192.81 376.62L1166.32 387.955Z" fill="#231F20"/>
</svg>
