<svg xmlns="http://www.w3.org/2000/svg" xmlns:xlink="http://www.w3.org/1999/xlink" xmlns:lucid="lucid" width="1740.67" height="749.68"><g transform="translate(361 341)" lucid:page-tab-id="ShUcoGdqzA1c"><path d="M400-334a6 6 0 0 1 6-6h348a6 6 0 0 1 6 6v84.92a6 6 0 0 1-6 6H406a6 6 0 0 1-6-6z" stroke="#97928c" stroke-width="2" fill="#28495a"/><use xlink:href="#a" transform="matrix(1,0,0,1,412,-328) translate(12.649522569444457 31.144097222222225)"/><use xlink:href="#b" transform="matrix(1,0,0,1,412,-328) translate(61.65559895833335 31.144097222222225)"/><use xlink:href="#c" transform="matrix(1,0,0,1,412,-328) translate(99.40516493055557 31.144097222222225)"/><use xlink:href="#d" transform="matrix(1,0,0,1,412,-328) translate(199.39214409722223 31.144097222222225)"/><use xlink:href="#e" transform="matrix(1,0,0,1,412,-328) translate(77.62131076388889 67.60243055555556)"/><use xlink:href="#f" transform="matrix(1,0,0,1,412,-328) translate(181.92252604166669 67.60243055555556)"/><path d="M85-29.25a6 6 0 0 1 6-6h248a6 6 0 0 1 6 6v108a6 6 0 0 1-6 6H91a6 6 0 0 1-6-6z" stroke="#97928c" stroke-width="2" fill="#136a7f"/><use xlink:href="#g" transform="matrix(1,0,0,1,97,-23.249875333333307) translate(37.56380208333333 42.739583333333336)"/><use xlink:href="#h" transform="matrix(1,0,0,1,97,-23.249875333333307) translate(70.75390625 73.98958333333334)"/><path d="M870-55a6 6 0 0 1 6-6h248a6 6 0 0 1 6 6V91a6 6 0 0 1-6 6H876a6 6 0 0 1-6-6z" stroke="#97928c" stroke-width="2" fill="#136a7f"/><use xlink:href="#i" transform="matrix(1,0,0,1,882,-48.99995033333339) translate(19.490885416666657 75.36458333333334)"/><use xlink:href="#j" transform="matrix(1,0,0,1,882,-48.99995033333339) translate(122.01692708333333 75.36458333333334)"/><path d="M641.17 207.9a6 6 0 0 1 6-6h198a6 6 0 0 1 6 6v193.78a6 6 0 0 1-6 6h-198a6 6 0 0 1-6-6z" stroke="#97928c" stroke-width="2" fill="#429d9e"/><use xlink:href="#i" transform="matrix(1,0,0,1,653.1666666666666,213.8880704999998) translate(15.141927083333329 70.23958333333334)"/><use xlink:href="#k" transform="matrix(1,0,0,1,653.1666666666666,213.8880704999998) translate(117.66796875 70.23958333333334)"/><use xlink:href="#l" transform="matrix(1,0,0,1,653.1666666666666,213.8880704999998) translate(50.9296875 101.48958333333334)"/><use xlink:href="#m" transform="matrix(1,0,0,1,653.1666666666666,213.8880704999998) translate(93 132.73958333333334)"/><path d="M889.83 207.9a6 6 0 0 1 6-6H1124a6 6 0 0 1 6 6v193.78a6 6 0 0 1-6 6H895.83a6 6 0 0 1-6-6z" stroke="#97928c" stroke-width="2" fill="#429d9e"/><use xlink:href="#n" transform="matrix(1,0,0,1,901.8333333333333,213.88807049999986) translate(24.170572916666657 70.23958333333334)"/><use xlink:href="#o" transform="matrix(1,0,0,1,901.8333333333333,213.88807049999986) translate(30.772135416666657 70.23958333333334)"/><use xlink:href="#p" transform="matrix(1,0,0,1,901.8333333333333,213.88807049999986) translate(106.14973958333333 70.23958333333334)"/><use xlink:href="#q" transform="matrix(1,0,0,1,901.8333333333333,213.88807049999986) translate(0.12109375 101.48958333333334)"/><use xlink:href="#r" transform="matrix(1,0,0,1,901.8333333333333,213.88807049999986) translate(66.4296875 132.73958333333334)"/><path d="M1168.67 207.9a6 6 0 0 1 6-6h198a6 6 0 0 1 6 6v193.78a6 6 0 0 1-6 6h-198a6 6 0 0 1-6-6z" stroke="#97928c" stroke-width="2" fill="#429d9e"/><use xlink:href="#s" transform="matrix(1,0,0,1,1180.6666666666665,213.8880704999998) translate(10.916666666666671 87.30208333333334)"/><use xlink:href="#r" transform="matrix(1,0,0,1,1180.6666666666665,213.8880704999998) translate(50.9296875 118.55208333333334)"/><path d="M-112.5 207.9a6 6 0 0 1 6-6h198a6 6 0 0 1 6 6v193.78a6 6 0 0 1-6 6h-198a6 6 0 0 1-6-6z" stroke="#97928c" stroke-width="2" fill="#429d9e"/><use xlink:href="#t" transform="matrix(1,0,0,1,-100.5,213.88807049999986) translate(-6.641927083333329 37.614583333333336)"/><use xlink:href="#u" transform="matrix(1,0,0,1,-100.5,213.88807049999986) translate(65.43489583333333 68.86458333333334)"/><use xlink:href="#v" transform="matrix(1,0,0,1,-100.5,213.88807049999986) translate(29.113281249999993 100.11458333333334)"/><use xlink:href="#w" transform="matrix(1,0,0,1,-100.5,213.88807049999986) translate(93 131.36458333333334)"/><use xlink:href="#x" transform="matrix(1,0,0,1,-100.5,213.88807049999986) translate(74.49088541666666 162.61458333333334)"/><path d="M382.5 207.9a6 6 0 0 1 6-6h198a6 6 0 0 1 6 6v193.78a6 6 0 0 1-6 6h-198a6 6 0 0 1-6-6z" stroke="#97928c" stroke-width="2" fill="#429d9e"/><use xlink:href="#y" transform="matrix(1,0,0,1,394.5,213.88807049999986) translate(28.2734375 36.114583333333336)"/><use xlink:href="#u" transform="matrix(1,0,0,1,394.5,213.88807049999986) translate(65.43489583333333 67.36458333333334)"/><use xlink:href="#v" transform="matrix(1,0,0,1,394.5,213.88807049999986) translate(29.113281249999993 98.61458333333334)"/><use xlink:href="#w" transform="matrix(1,0,0,1,394.5,213.88807049999986) translate(93 129.86458333333334)"/><use xlink:href="#z" transform="matrix(1,0,0,1,394.5,213.88807049999986) translate(65.82552083333333 161.11458333333334)"/><path d="M-360 207.9a6 6 0 0 1 6-6h198a6 6 0 0 1 6 6v193.78a6 6 0 0 1-6 6h-198a6 6 0 0 1-6-6z" stroke="#97928c" stroke-width="2" fill="#429d9e"/><use xlink:href="#A" transform="matrix(1,0,0,1,-348,213.88807049999986) translate(21.72395833333333 87.30208333333334)"/><use xlink:href="#B" transform="matrix(1,0,0,1,-348,213.88807049999986) translate(100.890625 87.30208333333334)"/><use xlink:href="#m" transform="matrix(1,0,0,1,-348,213.88807049999986) translate(93 118.55208333333334)"/><path d="M580-239.58v112.1a6 6 0 0 1-6 6H221a6 6 0 0 0-6 6v66" stroke="#97928c" stroke-width="5" fill="none"/><path d="M582.48-239.52h-4.96v-2.56h4.96z" stroke="#97928c" stroke-width=".05" fill="#97928c"/><path d="M225-58.57l-10 17.32-10-17.32m10 17.32v-8.5M580-239.58v112.1a6 6 0 0 0 6 6h408a6 6 0 0 1 6 6v40.26" stroke="#97928c" stroke-width="5" fill="none"/><path d="M582.48-239.52h-4.96v-2.56h4.96z" stroke="#97928c" stroke-width=".05" fill="#97928c"/><path d="M1010-84.32L1000-67l-10-17.32M1000-67v-8.5M1000 100.5v44a4.96 4.96 0 0 0 4.96 4.94 4.96 4.96 0 0 1 4.96 4.96v33.27" stroke="#97928c" stroke-width="5" fill="none"/><path d="M1002.48 100.56h-4.96V98h4.96z" stroke="#97928c" stroke-width=".05" fill="#97928c"/><path d="M1019.92 178.57l-10 17.32-10-17.33m10 17.32v-8.5M1000 100.5v42.94a6 6 0 0 0 6 6h261.67a6 6 0 0 1 6 6v32.23" stroke="#97928c" stroke-width="5" fill="none"/><path d="M1002.48 100.56h-4.96V98h4.96z" stroke="#97928c" stroke-width=".05" fill="#97928c"/><path d="M1283.67 178.57l-10 17.32-10-17.33m10 17.32v-8.5M1000 100.5v42.94a6 6 0 0 1-6 6H752.17a6 6 0 0 0-6 6v32.23" stroke="#97928c" stroke-width="5" fill="none"/><path d="M1002.48 100.56h-4.96V98h4.96z" stroke="#97928c" stroke-width=".05" fill="#97928c"/><path d="M756.17 178.57l-10 17.32-10-17.33m10 17.32v-8.5M215 88.25v49.07a6 6 0 0 1-6 6H-1.5a6 6 0 0 0-6 6v38.35" stroke="#97928c" stroke-width="5" fill="none"/><path d="M217.47 88.3h-4.94v-2.55h4.94z" stroke="#97928c" stroke-width=".05" fill="#97928c"/><path d="M2.5 178.57l-10 17.32-10-17.33m10 17.32v-8.5M215 88.25v49.07a6 6 0 0 1-6 6h-458a6 6 0 0 0-6 6v38.35" stroke="#97928c" stroke-width="5" fill="none"/><path d="M217.47 88.3h-4.94v-2.55h4.94z" stroke="#97928c" stroke-width=".05" fill="#97928c"/><path d="M-245 178.57l-10 17.32-10-17.33m10 17.32v-8.5M215 88.25v49.07a6 6 0 0 0 6 6h260.5a6 6 0 0 1 6 6v38.35" stroke="#97928c" stroke-width="5" fill="none"/><path d="M217.47 88.3h-4.94v-2.55h4.94z" stroke="#97928c" stroke-width=".05" fill="#97928c"/><path d="M497.5 178.57l-10 17.32-10-17.33m10 17.32v-8.5" stroke="#97928c" stroke-width="5" fill="none"/><path d="M210 94a6 6 0 0 1 6-6h238a6 6 0 0 1 6 6v47a6 6 0 0 1-6 6H216a6 6 0 0 1-6-6z" fill="none"/><g><use xlink:href="#C" transform="matrix(1,0,0,1,210,88.00004966666667) translate(69.96744791666666 39.114583333333336)"/></g><path d="M-132.5-29.25a6 6 0 0 1 6-6h238a6 6 0 0 1 6 6V12a6 6 0 0 1-6 6h-238a6 6 0 0 1-6-6z" fill="none"/><g><use xlink:href="#D" transform="matrix(1,0,0,1,-132.5,-35.24987533333331) translate(71.15885416666666 36.114583333333336)"/></g><path d="M-330-55a6 6 0 0 1 6-6h198a6 6 0 0 1 6 6V82a6 6 0 0 1-6 6h-198a6 6 0 0 1-6-6z" stroke="#97928c" stroke-width="2" fill="#429d9e"/><g><use xlink:href="#E" transform="matrix(1,0,0,1,-318,-48.99995033333323) translate(28.64453125 28.645833333333336)"/><use xlink:href="#F" transform="matrix(1,0,0,1,-318,-48.99995033333323) translate(38.703125 59.895833333333336)"/><use xlink:href="#w" transform="matrix(1,0,0,1,-318,-48.99995033333323) translate(93 91.14583333333334)"/><use xlink:href="#G" transform="matrix(1,0,0,1,-318,-48.99995033333323) translate(20.45442708333333 122.39583333333334)"/><use xlink:href="#H" transform="matrix(1,0,0,1,-318,-48.99995033333323) translate(102.19921875 122.39583333333334)"/></g><path d="M81.5 24.75h-187.28" stroke="#97928c" stroke-width="5" fill="none"/><path d="M84 27.23h-2.56v-4.96H84z" stroke="#97928c" stroke-width=".05" fill="#97928c"/><path d="M-96.68 34.75l-17.32-10 17.32-10m-17.32 10h8.5" stroke="#97928c" stroke-width="5" fill="none"/><path d="M1000 103a6 6 0 0 1 6-6h238a6 6 0 0 1 6 6v47a6 6 0 0 1-6 6h-238a6 6 0 0 1-6-6z" fill="none"/><g><use xlink:href="#C" transform="matrix(1,0,0,1,1000,97.00014966666659) translate(69.96744791666666 39.114583333333336)"/></g><path d="M135 207.9a6 6 0 0 1 6-6h198a6 6 0 0 1 6 6v193.78a6 6 0 0 1-6 6H141a6 6 0 0 1-6-6z" stroke="#97928c" stroke-width="2" fill="#429d9e"/><g><use xlink:href="#I" transform="matrix(1,0,0,1,147,213.88807049999986) translate(3.3841145833333286 53.177083333333336)"/><use xlink:href="#u" transform="matrix(1,0,0,1,147,213.88807049999986) translate(127.48567708333333 53.177083333333336)"/><use xlink:href="#v" transform="matrix(1,0,0,1,147,213.88807049999986) translate(29.113281249999993 84.42708333333334)"/><use xlink:href="#w" transform="matrix(1,0,0,1,147,213.88807049999986) translate(93 115.67708333333334)"/><use xlink:href="#J" transform="matrix(1,0,0,1,147,213.88807049999986) translate(65.51953125 146.92708333333334)"/></g><path d="M62.5-212.14a6 6 0 0 1 6-6h253a6 6 0 0 1 6 6v62.5a6 6 0 0 1-6 6h-253a6 6 0 0 1-6-6z" stroke="#97928c" stroke-width="2" fill="#fff"/><g><use xlink:href="#K" transform="matrix(1,0,0,1,74.5,-206.13789583333323) translate(9.412760416666657 34.302083333333336)"/><use xlink:href="#L" transform="matrix(1,0,0,1,74.5,-206.13789583333323) translate(110.14192708333333 34.302083333333336)"/><use xlink:href="#M" transform="matrix(1,0,0,1,74.5,-206.13789583333323) translate(189.38671875 34.302083333333336)"/></g><path d="M860-213.14a6 6 0 0 1 6-6h268a6 6 0 0 1 6 6v62.5a6 6 0 0 1-6 6H866a6 6 0 0 1-6-6z" stroke="#97928c" stroke-width="2" fill="#fff"/><g><use xlink:href="#K" transform="matrix(1,0,0,1,872,-207.13784616666658) translate(8.598958333333329 34.302083333333336)"/><use xlink:href="#N" transform="matrix(1,0,0,1,872,-207.13784616666658) translate(109.328125 34.302083333333336)"/><use xlink:href="#M" transform="matrix(1,0,0,1,872,-207.13784616666658) translate(205.20052083333331 34.302083333333336)"/></g><path d="M240 187.67v-38.35a6 6 0 0 0-6-6h-13a6 6 0 0 1-6-6V88.25" stroke="#97928c" stroke-width="5" fill="none"/><path d="M250 178.57l-10 17.32-10-17.33m10 17.32v-8.5" stroke="#97928c" stroke-width="5" fill="none"/><path d="M217.47 88.3h-4.94v-2.55h4.94z" stroke="#97928c" stroke-width=".05" fill="#97928c"/><defs><path fill="#fff" d="M1245-974c0 302-233 466-552 461H430V0H130v-1456h568c323 5 547 167 547 482zm-303 2c1-143-93-241-237-241H430v457h268c151 1 244-71 244-216" id="O"/><path fill="#fff" d="M399-777c-11 316 60 556 342 556 113 0 193-24 241-72v-251H709v-221h573v581C1177-55 960 24 725 20 280 12 81-292 94-770c11-421 200-700 610-706 347-5 543 171 578 483H990c-25-157-105-241-277-241-102 0-180 38-233 115s-76 191-81 342" id="P"/><g id="a"><use transform="matrix(0.015190972222222224,0,0,0.015190972222222224,0,0)" xlink:href="#O"/><use transform="matrix(0.015190972222222224,0,0,0.015190972222222224,20.067274305555557,0)" xlink:href="#P"/></g><path fill="#fff" d="M952-300H426L326 0H7l542-1456h278L1372 0h-319zM507-543h364l-183-545" id="Q"/><path fill="#fff" d="M449 0H149v-1456h300V0" id="R"/><g id="b"><use transform="matrix(0.015190972222222224,0,0,0.015190972222222224,0,0)" xlink:href="#Q"/><use transform="matrix(0.015190972222222224,0,0,0.015190972222222224,20.933159722222225,0)" xlink:href="#R"/></g><path fill="#fff" d="M1315 0h-300v-624H430V0H130v-1456h300v590h585v-590h300V0" id="S"/><path fill="#fff" d="M515-409l200-673h310L590 168c-66 202-236 321-472 250V199c127 7 198-15 230-107l34-89L3-1082h311" id="T"/><path fill="#fff" d="M663-1102c295 0 423 246 423 571 0 313-131 551-421 551-117 0-211-45-281-135L371 0H111v-1536h289v551c67-78 154-117 263-117zm-71 889c164 0 209-139 205-339-3-189-44-315-207-315-92 0-155 38-190 113v427c35 76 99 114 192 114" id="U"/><path fill="#fff" d="M719-811c-143-24-279 1-319 103V0H111v-1082h273l8 129c74-124 180-175 331-136" id="V"/><path fill="#fff" d="M416 0H126v-1082h290V0zM271-1212c-92 0-162-61-162-150s68-149 162-149c93 0 162 60 162 149s-70 150-162 150" id="W"/><path fill="#fff" d="M488 20C204 20 66-234 66-549c0-305 140-551 424-553 105 0 192 39 261 118v-552h290V0H780l-14-115C694-25 601 20 488 20zM355-528c0 176 51 314 207 314 89 0 152-38 189-113v-427c-36-75-98-113-187-113-139 0-209 113-209 339" id="X"/><g id="c"><use transform="matrix(0.015190972222222224,0,0,0.015190972222222224,0,0)" xlink:href="#S"/><use transform="matrix(0.015190972222222224,0,0,0.015190972222222224,21.981336805555557,0)" xlink:href="#T"/><use transform="matrix(0.015190972222222224,0,0,0.015190972222222224,37.59765625,0)" xlink:href="#U"/><use transform="matrix(0.015190972222222224,0,0,0.015190972222222224,55.11284722222223,0)" xlink:href="#V"/><use transform="matrix(0.015190972222222224,0,0,0.015190972222222224,66.46050347222223,0)" xlink:href="#W"/><use transform="matrix(0.015190972222222224,0,0,0.015190972222222224,74.7092013888889,0)" xlink:href="#X"/></g><path fill="#fff" d="M522-1456L896-400l372-1056h394V0h-301c-7-379 15-728 30-1085L998 0H792L400-1084c15 357 37 705 30 1084H130v-1456h392" id="Y"/><path fill="#fff" d="M552-1102c254-4 435 134 435 383v469c1 103 15 180 43 233V0H738c-13-26-23-58-29-97C639-19 548 20 436 20 238 20 64-113 68-304c5-258 212-357 496-357h133c11-137-29-227-160-227-90 0-156 45-156 131H92c15-231 213-342 460-345zM357-325c0 76 61 124 142 124 88 0 168-45 198-105v-186H589c-152 2-232 51-232 167" id="Z"/><path fill="#fff" d="M750-692c-1-124-48-174-173-175-81 0-142 35-183 104V0H105v-1082h272l9 125c77-97 181-145 311-145 244 0 342 151 342 403V0H750v-692" id="aa"/><path fill="#fff" d="M505 20C221 18 69-239 69-549c0-302 153-553 438-553 119 0 211 41 277 122l12-102h262V-36c-8 305-208 458-520 462-160 1-335-76-403-170L263 80c72 81 159 121 262 121 172 1 260-107 243-294C701-18 614 20 505 20zm76-887c-165 0-223 147-223 339 0 172 66 314 221 314 88 0 151-33 189-99v-455c-39-66-101-99-187-99" id="ab"/><path fill="#fff" d="M1031-175C952-60 797 20 609 20 287 20 60-206 72-543c12-330 180-559 505-559 309 0 482 214 477 537v118H365c15 134 115 234 263 234 111 0 198-40 261-121zM770-644c5-139-62-226-194-224-130 1-191 97-208 224h402" id="ac"/><g id="d"><use transform="matrix(0.015190972222222224,0,0,0.015190972222222224,0,0)" xlink:href="#Y"/><use transform="matrix(0.015190972222222224,0,0,0.015190972222222224,27.252604166666668,0)" xlink:href="#Z"/><use transform="matrix(0.015190972222222224,0,0,0.015190972222222224,43.93229166666667,0)" xlink:href="#aa"/><use transform="matrix(0.015190972222222224,0,0,0.015190972222222224,61.35633680555556,0)" xlink:href="#Z"/><use transform="matrix(0.015190972222222224,0,0,0.015190972222222224,78.03602430555556,0)" xlink:href="#ab"/><use transform="matrix(0.015190972222222224,0,0,0.015190972222222224,95.79427083333334,0)" xlink:href="#ac"/><use transform="matrix(0.015190972222222224,0,0,0.015190972222222224,112.61067708333334,0)" xlink:href="#V"/></g><path fill="#fff" d="M355-556c-2 203 30 338 206 343 102 3 181-63 182-161h271C1001-128 821 17 566 20 242 24 66-212 66-554c0-320 184-548 498-548 262 0 451 167 450 423H743c-1-108-75-193-184-189-162 6-202 123-204 312" id="ad"/><path fill="#fff" d="M416 0H126v-1536h290V0" id="ae"/><path fill="#fff" d="M463 20c-241-1-359-147-359-393v-709h289v699c0 113 51 169 154 169 98 0 165-34 202-102v-766h290V0H767l-8-110C688-23 589 20 463 20" id="af"/><path fill="#fff" d="M529-185c94 0 168-33 168-114 0-35-18-63-53-83s-91-39-168-55C219-491 90-600 90-765c0-208 203-337 432-337 246 0 451 124 453 349H686c-2-91-62-143-165-143-86 0-151 41-153 117 0 32 16 57 46 77 63 43 257 69 335 100 151 60 229 153 229 291C978-13 554 93 282-28 162-81 60-190 56-344h274c5 106 86 159 199 159" id="ag"/><path fill="#fff" d="M457-330c2 83 25 111 111 112 32 0 60-2 85-7V-6c-57 17-115 26-175 26-203 0-310-102-310-307v-583H10v-212h158v-266h289v266h185v212H457v540" id="ah"/><g id="e"><use transform="matrix(0.015190972222222224,0,0,0.015190972222222224,0,0)" xlink:href="#ad"/><use transform="matrix(0.015190972222222224,0,0,0.015190972222222224,16.223958333333336,0)" xlink:href="#ae"/><use transform="matrix(0.015190972222222224,0,0,0.015190972222222224,24.472656250000004,0)" xlink:href="#af"/><use transform="matrix(0.015190972222222224,0,0,0.015190972222222224,41.88151041666667,0)" xlink:href="#ag"/><use transform="matrix(0.015190972222222224,0,0,0.015190972222222224,57.87760416666667,0)" xlink:href="#ah"/><use transform="matrix(0.015190972222222224,0,0,0.015190972222222224,68.38975694444446,0)" xlink:href="#ac"/><use transform="matrix(0.015190972222222224,0,0,0.015190972222222224,85.20616319444446,0)" xlink:href="#V"/></g><path fill="#fff" d="M663-1102c295 0 422 250 422 571 0 300-141 549-420 551-109 0-198-38-265-114v510H111v-1498h268l10 106c70-84 161-126 274-126zm133 550c0-175-53-315-209-315-91 0-153 35-187 104v443c35 71 98 107 189 107 138 0 207-113 207-339" id="ai"/><g id="f"><use transform="matrix(0.015190972222222224,0,0,0.015190972222222224,0,0)" xlink:href="#ah"/><use transform="matrix(0.015190972222222224,0,0,0.015190972222222224,10.512152777777779,0)" xlink:href="#T"/><use transform="matrix(0.015190972222222224,0,0,0.015190972222222224,26.128472222222225,0)" xlink:href="#ai"/><use transform="matrix(0.015190972222222224,0,0,0.015190972222222224,43.64366319444445,0)" xlink:href="#ac"/><use transform="matrix(0.015190972222222224,0,0,0.015190972222222224,60.46006944444445,0)" xlink:href="#ag"/></g><path fill="#fff" d="M1288 0h-193v-673H361V0H169v-1456h192v626h734v-626h193V0" id="aj"/><path fill="#fff" d="M417-1456L893-268l476-1188h249V0h-192c-4-403 4-794 18-1179L966 0H819L342-1176c15 384 23 773 19 1176H169v-1456h248" id="ak"/><path fill="#fff" d="M525-543H37v-151h488v151" id="al"/><path fill="#fff" d="M1240-945c-141 0-250 95-250 227V0H804v-709c0-157-77-236-231-236-121 0-204 52-249 155V0H139v-1082h175l5 120c79-93 186-140 321-140 151 0 254 58 309 174 69-98 181-174 345-174 237 0 362 126 362 377V0h-185v-714c-2-159-67-231-231-231" id="am"/><path fill="#fff" d="M561-1102c238-4 403 126 403 351v498c0 99 13 178 38 237V0H808c-11-21-19-59-26-114C696-25 593 20 474 20c-199 0-368-130-365-320 4-251 214-359 490-356h180v-85c-1-135-86-212-229-212-115 0-232 67-233 171H131c20-205 206-316 430-320zM294-326c0 117 90 185 207 185 122 0 239-75 278-162v-222H634c-227 0-340 66-340 199" id="an"/><path fill="#fff" d="M589-945c-131 0-219 81-264 174V0H140v-1082h175l6 136c83-104 191-156 324-156 229 0 346 129 346 387V0H806v-716c-2-153-65-229-217-229" id="ao"/><path fill="#fff" d="M521 20C240 20 96-239 96-550c0-303 147-552 427-552 132 0 235 47 309 140l9-120h169V-26c4 277-183 454-459 452-165-1-334-81-400-187l96-111c79 98 176 147 291 147 180 1 288-109 286-290v-93C750-23 649 20 521 20zm48-965c-209 0-287 178-287 416 0 217 86 392 285 392 117 0 202-53 257-159v-494c-57-103-142-155-255-155" id="ap"/><path fill="#fff" d="M599-131c141 0 220-65 285-146l113 88C906-50 770 20 589 20 281 21 93-214 93-545c0-223 93-397 233-485 74-48 154-72 240-72 300 2 449 218 445 537v77H278c0 197 129 357 321 357zm227-509c-3-180-88-310-260-310-170 0-264 140-282 310h542" id="aq"/><path fill="#fff" d="M520 20C244 20 95-247 95-550c0-298 151-550 427-552 127 0 227 43 301 130v-564h185V0H838l-9-116C755-25 652 20 520 20zm48-965c-210 0-288 177-288 416 0 218 87 392 286 392 117 0 203-53 257-158v-497c-55-102-140-153-255-153" id="ar"/><g id="g"><use transform="matrix(0.013020833333333334,0,0,0.013020833333333334,0,0)" xlink:href="#aj"/><use transform="matrix(0.013020833333333334,0,0,0.013020833333333334,19.010416666666668,0)" xlink:href="#ak"/><use transform="matrix(0.013020833333333334,0,0,0.013020833333333334,42.29166666666667,0)" xlink:href="#al"/><use transform="matrix(0.013020833333333334,0,0,0.013020833333333334,49.64843750000001,0)" xlink:href="#am"/><use transform="matrix(0.013020833333333334,0,0,0.013020833333333334,73.02083333333334,0)" xlink:href="#an"/><use transform="matrix(0.013020833333333334,0,0,0.013020833333333334,87.52604166666667,0)" xlink:href="#ao"/><use transform="matrix(0.013020833333333334,0,0,0.013020833333333334,102.23958333333334,0)" xlink:href="#an"/><use transform="matrix(0.013020833333333334,0,0,0.013020833333333334,116.74479166666667,0)" xlink:href="#ap"/><use transform="matrix(0.013020833333333334,0,0,0.013020833333333334,131.70572916666669,0)" xlink:href="#aq"/><use transform="matrix(0.013020833333333334,0,0,0.013020833333333334,145.83333333333334,0)" xlink:href="#ar"/></g><path fill="#fff" d="M277-555c0 244 77 420 297 424 127 2 249-93 255-210h175C980-127 805 20 574 20 258 20 81-222 92-562c11-319 164-533 481-540 237-5 426 165 431 392H829c-7-133-115-242-256-240-209 4-296 166-296 395" id="as"/><path fill="#fff" d="M341 0H156v-1536h185V0" id="at"/><path fill="#fff" d="M491 20c-241-1-355-148-355-398v-704h185v699c0 164 67 246 200 246 141 0 235-53 282-158v-787h185V0H812l-4-107C736-22 630 20 491 20" id="au"/><path fill="#fff" d="M538-131c121 0 232-49 232-156 0-50-20-88-56-117-73-60-334-92-420-143-92-55-162-110-162-238 0-190 192-317 400-317 223 0 414 129 413 338H759c0-108-110-186-227-186-119 0-215 53-215 159 0 45 18 78 53 101 76 52 331 90 416 139 98 57 169 115 169 251C955-92 760 20 538 20c-176 0-314-68-386-174-38-55-57-115-57-179h185c6 129 116 202 258 202" id="av"/><path fill="#fff" d="M456 20C285 20 205-92 206-268v-671H9v-143h197v-262h185v262h202v143H391v671c-9 125 92 149 207 118V0c-49 13-96 20-142 20" id="aw"/><path fill="#fff" d="M663-916c-163-27-288 18-338 148V0H140v-1082h180l3 125c61-97 147-145 258-145 36 0 63 5 82 14v172" id="ax"/><g id="h"><use transform="matrix(0.013020833333333334,0,0,0.013020833333333334,0,0)" xlink:href="#as"/><use transform="matrix(0.013020833333333334,0,0,0.013020833333333334,13.958333333333334,0)" xlink:href="#at"/><use transform="matrix(0.013020833333333334,0,0,0.013020833333333334,20.4296875,0)" xlink:href="#au"/><use transform="matrix(0.013020833333333334,0,0,0.013020833333333334,35.130208333333336,0)" xlink:href="#av"/><use transform="matrix(0.013020833333333334,0,0,0.013020833333333334,48.880208333333336,0)" xlink:href="#aw"/><use transform="matrix(0.013020833333333334,0,0,0.013020833333333334,57.591145833333336,0)" xlink:href="#aq"/><use transform="matrix(0.013020833333333334,0,0,0.013020833333333334,71.71875,0)" xlink:href="#ax"/><use transform="matrix(0.013020833333333334,0,0,0.013020833333333334,80.7421875,0)" xlink:href="#av"/></g><path fill="#fff" d="M992-673H361v516h733V0H169v-1456h915v158H361v468h631v157" id="ay"/><path fill="#fff" d="M503-687l240-395h216L605-547 970 0H756L506-405 256 0H41l365-547-354-535h214" id="az"/><g id="i"><use transform="matrix(0.013020833333333334,0,0,0.013020833333333334,0,0)" xlink:href="#ay"/><use transform="matrix(0.013020833333333334,0,0,0.013020833333333334,15.15625,0)" xlink:href="#az"/><use transform="matrix(0.013020833333333334,0,0,0.013020833333333334,28.372395833333336,0)" xlink:href="#aw"/><use transform="matrix(0.013020833333333334,0,0,0.013020833333333334,37.083333333333336,0)" xlink:href="#aq"/><use transform="matrix(0.013020833333333334,0,0,0.013020833333333334,51.2109375,0)" xlink:href="#ax"/><use transform="matrix(0.013020833333333334,0,0,0.013020833333333334,60.234375,0)" xlink:href="#ao"/><use transform="matrix(0.013020833333333334,0,0,0.013020833333333334,74.94791666666667,0)" xlink:href="#an"/><use transform="matrix(0.013020833333333334,0,0,0.013020833333333334,89.453125,0)" xlink:href="#at"/></g><g id="j"><use transform="matrix(0.013020833333333334,0,0,0.013020833333333334,0,0)" xlink:href="#as"/><use transform="matrix(0.013020833333333334,0,0,0.013020833333333334,13.958333333333334,0)" xlink:href="#at"/><use transform="matrix(0.013020833333333334,0,0,0.013020833333333334,20.4296875,0)" xlink:href="#au"/><use transform="matrix(0.013020833333333334,0,0,0.013020833333333334,35.130208333333336,0)" xlink:href="#av"/><use transform="matrix(0.013020833333333334,0,0,0.013020833333333334,48.880208333333336,0)" xlink:href="#aw"/><use transform="matrix(0.013020833333333334,0,0,0.013020833333333334,57.591145833333336,0)" xlink:href="#aq"/><use transform="matrix(0.013020833333333334,0,0,0.013020833333333334,71.71875,0)" xlink:href="#ax"/><use transform="matrix(0.013020833333333334,0,0,0.013020833333333334,80.7421875,0)" xlink:href="#av"/></g><path fill="#fff" d="M688-137c238 0 323-102 359-325h193c-32 297-228 482-552 482-361 0-569-299-569-680 0-197 8-360 73-497 88-186 257-317 513-319 316-2 509 195 535 488h-193c-31-212-118-330-342-330-272 0-397 224-393 523v141c-3 282 115 517 376 517" id="aA"/><path fill="#fff" d="M1288 0h-193L362-1122V0H169v-1456h193l735 1127v-1127h191V0" id="aB"/><path fill="#fff" d="M1216-1011c-1 297-202 441-512 441H361V0H169v-1456h537c297-6 510 164 510 445zm-192 2c1-178-126-288-307-289H361v571h345c196 1 318-92 318-282" id="aC"/><g id="k"><use transform="matrix(0.013020833333333334,0,0,0.013020833333333334,0,0)" xlink:href="#aA"/><use transform="matrix(0.013020833333333334,0,0,0.013020833333333334,17.356770833333336,0)" xlink:href="#aB"/><use transform="matrix(0.013020833333333334,0,0,0.013020833333333334,36.3671875,0)" xlink:href="#aC"/></g><g id="l"><use transform="matrix(0.013020833333333334,0,0,0.013020833333333334,0,0)" xlink:href="#aA"/><use transform="matrix(0.013020833333333334,0,0,0.013020833333333334,17.356770833333336,0)" xlink:href="#at"/><use transform="matrix(0.013020833333333334,0,0,0.013020833333333334,23.828125000000004,0)" xlink:href="#au"/><use transform="matrix(0.013020833333333334,0,0,0.013020833333333334,38.528645833333336,0)" xlink:href="#av"/><use transform="matrix(0.013020833333333334,0,0,0.013020833333333334,52.278645833333336,0)" xlink:href="#aw"/><use transform="matrix(0.013020833333333334,0,0,0.013020833333333334,60.989583333333336,0)" xlink:href="#aq"/><use transform="matrix(0.013020833333333334,0,0,0.013020833333333334,75.1171875,0)" xlink:href="#ax"/></g><path fill="#fff" d="M584 20C278 26 81-227 91-551c10-320 175-545 491-551 308-5 503 247 494 573-9 322-175 543-492 549zm-2-970c-208 0-305 185-305 421 0 216 106 398 307 398 211 0 307-186 307-420 0-214-109-399-309-399" id="aD"/><g id="o"><use transform="matrix(0.013020833333333334,0,0,0.013020833333333334,0,0)" xlink:href="#aA"/><use transform="matrix(0.013020833333333334,0,0,0.013020833333333334,17.356770833333336,0)" xlink:href="#at"/><use transform="matrix(0.013020833333333334,0,0,0.013020833333333334,23.828125000000004,0)" xlink:href="#aD"/><use transform="matrix(0.013020833333333334,0,0,0.013020833333333334,39.036458333333336,0)" xlink:href="#au"/><use transform="matrix(0.013020833333333334,0,0,0.013020833333333334,53.73697916666667,0)" xlink:href="#ar"/></g><path fill="#fff" d="M631-137c179 0 314-70 314-231 0-71-25-127-75-166s-141-77-272-115c-165-47-285-106-360-175s-112-154-112-255c0-245 231-397 495-397 206 0 369 89 449 218 43 68 65 142 65 223H942c0-184-129-283-321-283-172 0-299 76-301 236 0 59 26 109 76 150s135 78 256 113c205 59 345 116 436 256 35 53 50 119 50 193-2 256-231 398-507 390C333 12 90-129 80-422h193c0 187 160 285 358 285" id="aE"/><path fill="#fff" d="M497-251l268-831h189L566 0H425L33-1082h189" id="aF"/><path fill="#fff" d="M341 0H156v-1082h185V0zm-91-1264c-68 0-108-42-109-105 0-62 41-107 109-107s110 44 110 107-42 105-110 105" id="aG"/><g id="p"><use transform="matrix(0.013020833333333334,0,0,0.013020833333333334,0,0)" xlink:href="#aE"/><use transform="matrix(0.013020833333333334,0,0,0.013020833333333334,15.8203125,0)" xlink:href="#aq"/><use transform="matrix(0.013020833333333334,0,0,0.013020833333333334,29.947916666666668,0)" xlink:href="#ax"/><use transform="matrix(0.013020833333333334,0,0,0.013020833333333334,39.20572916666667,0)" xlink:href="#aF"/><use transform="matrix(0.013020833333333334,0,0,0.013020833333333334,52.12239583333334,0)" xlink:href="#aG"/><use transform="matrix(0.013020833333333334,0,0,0.013020833333333334,58.59375,0)" xlink:href="#as"/><use transform="matrix(0.013020833333333334,0,0,0.013020833333333334,72.55208333333334,0)" xlink:href="#aq"/></g><g id="q"><use transform="matrix(0.013020833333333334,0,0,0.013020833333333334,0,0)" xlink:href="#aC"/><use transform="matrix(0.013020833333333334,0,0,0.013020833333333334,16.822916666666668,0)" xlink:href="#ax"/><use transform="matrix(0.013020833333333334,0,0,0.013020833333333334,25.5859375,0)" xlink:href="#aD"/><use transform="matrix(0.013020833333333334,0,0,0.013020833333333334,40.598958333333336,0)" xlink:href="#aF"/><use transform="matrix(0.013020833333333334,0,0,0.013020833333333334,53.515625,0)" xlink:href="#aG"/><use transform="matrix(0.013020833333333334,0,0,0.013020833333333334,59.98697916666667,0)" xlink:href="#ar"/><use transform="matrix(0.013020833333333334,0,0,0.013020833333333334,75.02604166666666,0)" xlink:href="#aq"/><use transform="matrix(0.013020833333333334,0,0,0.013020833333333334,89.15364583333333,0)" xlink:href="#ax"/><use transform="matrix(0.013020833333333334,0,0,0.013020833333333334,98.17708333333333,0)" xlink:href="#al"/><use transform="matrix(0.013020833333333334,0,0,0.013020833333333334,105.53385416666666,0)" xlink:href="#am"/><use transform="matrix(0.013020833333333334,0,0,0.013020833333333334,128.90625,0)" xlink:href="#an"/><use transform="matrix(0.013020833333333334,0,0,0.013020833333333334,143.41145833333334,0)" xlink:href="#ao"/><use transform="matrix(0.013020833333333334,0,0,0.013020833333333334,158.125,0)" xlink:href="#an"/><use transform="matrix(0.013020833333333334,0,0,0.013020833333333334,172.63020833333334,0)" xlink:href="#ap"/><use transform="matrix(0.013020833333333334,0,0,0.013020833333333334,187.59114583333334,0)" xlink:href="#aq"/><use transform="matrix(0.013020833333333334,0,0,0.013020833333333334,201.71875,0)" xlink:href="#ar"/></g><g id="r"><use transform="matrix(0.013020833333333334,0,0,0.013020833333333334,0,0)" xlink:href="#aA"/><use transform="matrix(0.013020833333333334,0,0,0.013020833333333334,17.356770833333336,0)" xlink:href="#at"/><use transform="matrix(0.013020833333333334,0,0,0.013020833333333334,23.828125000000004,0)" xlink:href="#au"/><use transform="matrix(0.013020833333333334,0,0,0.013020833333333334,38.528645833333336,0)" xlink:href="#av"/><use transform="matrix(0.013020833333333334,0,0,0.013020833333333334,52.278645833333336,0)" xlink:href="#aw"/><use transform="matrix(0.013020833333333334,0,0,0.013020833333333334,60.989583333333336,0)" xlink:href="#aq"/><use transform="matrix(0.013020833333333334,0,0,0.013020833333333334,75.1171875,0)" xlink:href="#ax"/></g><path fill="#fff" d="M704-1390c-164-38-297 28-288 194v114h231v143H416V0H231v-939H60v-143h171v-111c-12-274 208-416 483-347" id="aH"/><g id="s"><use transform="matrix(0.013020833333333334,0,0,0.013020833333333334,0,0)" xlink:href="#aE"/><use transform="matrix(0.013020833333333334,0,0,0.013020833333333334,15.8203125,0)" xlink:href="#aq"/><use transform="matrix(0.013020833333333334,0,0,0.013020833333333334,29.947916666666668,0)" xlink:href="#at"/><use transform="matrix(0.013020833333333334,0,0,0.013020833333333334,36.419270833333336,0)" xlink:href="#aH"/><use transform="matrix(0.013020833333333334,0,0,0.013020833333333334,45.677083333333336,0)" xlink:href="#al"/><use transform="matrix(0.013020833333333334,0,0,0.013020833333333334,53.03385416666667,0)" xlink:href="#ak"/><use transform="matrix(0.013020833333333334,0,0,0.013020833333333334,76.31510416666667,0)" xlink:href="#an"/><use transform="matrix(0.013020833333333334,0,0,0.013020833333333334,90.8203125,0)" xlink:href="#ao"/><use transform="matrix(0.013020833333333334,0,0,0.013020833333333334,105.53385416666667,0)" xlink:href="#an"/><use transform="matrix(0.013020833333333334,0,0,0.013020833333333334,120.0390625,0)" xlink:href="#ap"/><use transform="matrix(0.013020833333333334,0,0,0.013020833333333334,135,0)" xlink:href="#aq"/><use transform="matrix(0.013020833333333334,0,0,0.013020833333333334,149.12760416666666,0)" xlink:href="#ar"/></g><path fill="#fff" d="M494-271l252-811h198L509 167C425 381 299 474 84 421V271c167 16 242-37 283-173l41-110L22-1082h202" id="aI"/><path fill="#fff" d="M177 125H18l608-1581h158" id="aJ"/><path fill="#fff" d="M634-1102c292 0 422 254 422 573 0 298-143 547-420 549-137 0-242-48-317-145L310 0H140v-1536h185v573c75-93 178-139 309-139zm-44 965c207 0 281-175 281-413 0-224-79-395-283-395-122 0-210 57-263 170v468c57 113 145 170 265 170" id="aK"/><g id="t"><use transform="matrix(0.013020833333333334,0,0,0.013020833333333334,0,0)" xlink:href="#aC"/><use transform="matrix(0.013020833333333334,0,0,0.013020833333333334,16.822916666666668,0)" xlink:href="#ax"/><use transform="matrix(0.013020833333333334,0,0,0.013020833333333334,25.846354166666668,0)" xlink:href="#aG"/><use transform="matrix(0.013020833333333334,0,0,0.013020833333333334,32.317708333333336,0)" xlink:href="#am"/><use transform="matrix(0.013020833333333334,0,0,0.013020833333333334,55.69010416666667,0)" xlink:href="#an"/><use transform="matrix(0.013020833333333334,0,0,0.013020833333333334,70.1953125,0)" xlink:href="#ax"/><use transform="matrix(0.013020833333333334,0,0,0.013020833333333334,79.453125,0)" xlink:href="#aI"/><use transform="matrix(0.013020833333333334,0,0,0.013020833333333334,92.0703125,0)" xlink:href="#aJ"/><use transform="matrix(0.013020833333333334,0,0,0.013020833333333334,103.05989583333333,0)" xlink:href="#aE"/><use transform="matrix(0.013020833333333334,0,0,0.013020833333333334,118.88020833333334,0)" xlink:href="#aw"/><use transform="matrix(0.013020833333333334,0,0,0.013020833333333334,127.59114583333334,0)" xlink:href="#an"/><use transform="matrix(0.013020833333333334,0,0,0.013020833333333334,142.09635416666666,0)" xlink:href="#ao"/><use transform="matrix(0.013020833333333334,0,0,0.013020833333333334,156.80989583333331,0)" xlink:href="#ar"/><use transform="matrix(0.013020833333333334,0,0,0.013020833333333334,171.84895833333331,0)" xlink:href="#aK"/><use transform="matrix(0.013020833333333334,0,0,0.013020833333333334,186.66666666666666,0)" xlink:href="#aI"/></g><path fill="#fff" d="M589-945c-131 0-219 81-264 174V0H140v-1536h185v585c82-101 189-151 320-151 229 0 346 129 346 387V0H806v-716c-2-153-65-229-217-229" id="aL"/><g id="u"><use transform="matrix(0.013020833333333334,0,0,0.013020833333333334,0,0)" xlink:href="#aj"/><use transform="matrix(0.013020833333333334,0,0,0.013020833333333334,19.010416666666668,0)" xlink:href="#aG"/><use transform="matrix(0.013020833333333334,0,0,0.013020833333333334,25.481770833333336,0)" xlink:href="#ap"/><use transform="matrix(0.013020833333333334,0,0,0.013020833333333334,40.442708333333336,0)" xlink:href="#aL"/></g><path fill="#fff" d="M973-380H363L226 0H28l556-1456h168L1309 0h-197zM421-538h495l-248-681" id="aM"/><g id="v"><use transform="matrix(0.013020833333333334,0,0,0.013020833333333334,0,0)" xlink:href="#aM"/><use transform="matrix(0.013020833333333334,0,0,0.013020833333333334,17.395833333333336,0)" xlink:href="#aF"/><use transform="matrix(0.013020833333333334,0,0,0.013020833333333334,30.1171875,0)" xlink:href="#an"/><use transform="matrix(0.013020833333333334,0,0,0.013020833333333334,44.622395833333336,0)" xlink:href="#aG"/><use transform="matrix(0.013020833333333334,0,0,0.013020833333333334,51.09375,0)" xlink:href="#at"/><use transform="matrix(0.013020833333333334,0,0,0.013020833333333334,57.56510416666667,0)" xlink:href="#an"/><use transform="matrix(0.013020833333333334,0,0,0.013020833333333334,72.0703125,0)" xlink:href="#aK"/><use transform="matrix(0.013020833333333334,0,0,0.013020833333333334,87.03125,0)" xlink:href="#aG"/><use transform="matrix(0.013020833333333334,0,0,0.013020833333333334,93.50260416666667,0)" xlink:href="#at"/><use transform="matrix(0.013020833333333334,0,0,0.013020833333333334,99.97395833333334,0)" xlink:href="#aG"/><use transform="matrix(0.013020833333333334,0,0,0.013020833333333334,106.44531250000001,0)" xlink:href="#aw"/><use transform="matrix(0.013020833333333334,0,0,0.013020833333333334,115.15625,0)" xlink:href="#aI"/></g><g id="x"><use transform="matrix(0.013020833333333334,0,0,0.013020833333333334,0,0)" xlink:href="#S"/><use transform="matrix(0.013020833333333334,0,0,0.013020833333333334,19.075520833333336,0)" xlink:href="#Q"/></g><path fill="#fff" d="M1222-777c17 480-206 763-650 777H169v-1456h411c408 9 627 269 642 679zm-190 4c3-312-149-522-447-525H361v1141h202c308 0 473-209 469-531v-85" id="aN"/><g id="y"><use transform="matrix(0.013020833333333334,0,0,0.013020833333333334,0,0)" xlink:href="#aN"/><use transform="matrix(0.013020833333333334,0,0,0.013020833333333334,17.486979166666668,0)" xlink:href="#aG"/><use transform="matrix(0.013020833333333334,0,0,0.013020833333333334,23.958333333333336,0)" xlink:href="#av"/><use transform="matrix(0.013020833333333334,0,0,0.013020833333333334,37.708333333333336,0)" xlink:href="#aw"/><use transform="matrix(0.013020833333333334,0,0,0.013020833333333334,46.419270833333336,0)" xlink:href="#ax"/><use transform="matrix(0.013020833333333334,0,0,0.013020833333333334,55.442708333333336,0)" xlink:href="#aG"/><use transform="matrix(0.013020833333333334,0,0,0.013020833333333334,61.9140625,0)" xlink:href="#aK"/><use transform="matrix(0.013020833333333334,0,0,0.013020833333333334,76.875,0)" xlink:href="#au"/><use transform="matrix(0.013020833333333334,0,0,0.013020833333333334,91.57552083333333,0)" xlink:href="#aw"/><use transform="matrix(0.013020833333333334,0,0,0.013020833333333334,100.28645833333333,0)" xlink:href="#aq"/><use transform="matrix(0.013020833333333334,0,0,0.013020833333333334,114.4140625,0)" xlink:href="#ar"/></g><path fill="#fff" d="M130 0v-1456h448c435 14 673 299 665 762-5 285-130 500-319 606C822-31 708 0 581 0H130zm809-685c9-311-79-526-361-528H430v972h145c252-2 356-181 364-444" id="aO"/><g id="z"><use transform="matrix(0.013020833333333334,0,0,0.013020833333333334,0,0)" xlink:href="#aO"/><use transform="matrix(0.013020833333333334,0,0,0.013020833333333334,17.330729166666668,0)" xlink:href="#S"/><use transform="matrix(0.013020833333333334,0,0,0.013020833333333334,36.40625,0)" xlink:href="#Q"/></g><g id="A"><use transform="matrix(0.013020833333333334,0,0,0.013020833333333334,0,0)" xlink:href="#aE"/><use transform="matrix(0.013020833333333334,0,0,0.013020833333333334,15.8203125,0)" xlink:href="#aG"/><use transform="matrix(0.013020833333333334,0,0,0.013020833333333334,22.291666666666668,0)" xlink:href="#ao"/><use transform="matrix(0.013020833333333334,0,0,0.013020833333333334,37.005208333333336,0)" xlink:href="#ap"/><use transform="matrix(0.013020833333333334,0,0,0.013020833333333334,51.966145833333336,0)" xlink:href="#at"/><use transform="matrix(0.013020833333333334,0,0,0.013020833333333334,58.4375,0)" xlink:href="#aq"/></g><g id="B"><use transform="matrix(0.013020833333333334,0,0,0.013020833333333334,0,0)" xlink:href="#aB"/><use transform="matrix(0.013020833333333334,0,0,0.013020833333333334,19.010416666666668,0)" xlink:href="#aD"/><use transform="matrix(0.013020833333333334,0,0,0.013020833333333334,34.21875,0)" xlink:href="#ar"/><use transform="matrix(0.013020833333333334,0,0,0.013020833333333334,49.2578125,0)" xlink:href="#aq"/></g><path fill="#97928c" d="M488 20C204 20 66-234 66-549c0-305 140-551 424-553 105 0 192 39 261 118v-552h290V0H780l-14-115C694-25 601 20 488 20zM355-528c0 176 51 314 207 314 89 0 152-38 189-113v-427c-36-75-98-113-187-113-139 0-209 113-209 339" id="aP"/><path fill="#97928c" d="M552-1102c254-4 435 134 435 383v469c1 103 15 180 43 233V0H738c-13-26-23-58-29-97C639-19 548 20 436 20 238 20 64-113 68-304c5-258 212-357 496-357h133c11-137-29-227-160-227-90 0-156 45-156 131H92c15-231 213-342 460-345zM357-325c0 76 61 124 142 124 88 0 168-45 198-105v-186H589c-152 2-232 51-232 167" id="aQ"/><path fill="#97928c" d="M457-330c2 83 25 111 111 112 32 0 60-2 85-7V-6c-57 17-115 26-175 26-203 0-310-102-310-307v-583H10v-212h158v-266h289v266h185v212H457v540" id="aR"/><path fill="#97928c" d="M663-1102c295 0 423 246 423 571 0 313-131 551-421 551-117 0-211-45-281-135L371 0H111v-1536h289v551c67-78 154-117 263-117zm-71 889c164 0 209-139 205-339-3-189-44-315-207-315-92 0-155 38-190 113v427c35 76 99 114 192 114" id="aS"/><path fill="#97928c" d="M529-185c94 0 168-33 168-114 0-35-18-63-53-83s-91-39-168-55C219-491 90-600 90-765c0-208 203-337 432-337 246 0 451 124 453 349H686c-2-91-62-143-165-143-86 0-151 41-153 117 0 32 16 57 46 77 63 43 257 69 335 100 151 60 229 153 229 291C978-13 554 93 282-28 162-81 60-190 56-344h274c5 106 86 159 199 159" id="aT"/><path fill="#97928c" d="M1031-175C952-60 797 20 609 20 287 20 60-206 72-543c12-330 180-559 505-559 309 0 482 214 477 537v118H365c15 134 115 234 263 234 111 0 198-40 261-121zM770-644c5-139-62-226-194-224-130 1-191 97-208 224h402" id="aU"/><g id="C"><use transform="matrix(0.013020833333333334,0,0,0.013020833333333334,0,0)" xlink:href="#aP"/><use transform="matrix(0.013020833333333334,0,0,0.013020833333333334,15.026041666666668,0)" xlink:href="#aQ"/><use transform="matrix(0.013020833333333334,0,0,0.013020833333333334,29.322916666666668,0)" xlink:href="#aR"/><use transform="matrix(0.013020833333333334,0,0,0.013020833333333334,38.333333333333336,0)" xlink:href="#aQ"/><use transform="matrix(0.013020833333333334,0,0,0.013020833333333334,52.630208333333336,0)" xlink:href="#aS"/><use transform="matrix(0.013020833333333334,0,0,0.013020833333333334,67.64322916666667,0)" xlink:href="#aQ"/><use transform="matrix(0.013020833333333334,0,0,0.013020833333333334,81.94010416666667,0)" xlink:href="#aT"/><use transform="matrix(0.013020833333333334,0,0,0.013020833333333334,95.65104166666667,0)" xlink:href="#aU"/></g><path fill="#97928c" d="M750-692c-1-124-48-174-173-175-81 0-142 35-183 104V0H105v-1082h272l9 125c77-97 181-145 311-145 244 0 342 151 342 403V0H750v-692" id="aV"/><path fill="#97928c" d="M416 0H126v-1536h290V0" id="aW"/><path fill="#97928c" d="M515-409l200-673h310L590 168c-66 202-236 321-472 250V199c127 7 198-15 230-107l34-89L3-1082h311" id="aX"/><path fill="#97928c" d="M416 0H126v-1082h290V0zM271-1212c-92 0-162-61-162-150s68-149 162-149c93 0 162 60 162 149s-70 150-162 150" id="aY"/><path fill="#97928c" d="M355-556c-2 203 30 338 206 343 102 3 181-63 182-161h271C1001-128 821 17 566 20 242 24 66-212 66-554c0-320 184-548 498-548 262 0 451 167 450 423H743c-1-108-75-193-184-189-162 6-202 123-204 312" id="aZ"/><g id="D"><use transform="matrix(0.013020833333333334,0,0,0.013020833333333334,0,0)" xlink:href="#aQ"/><use transform="matrix(0.013020833333333334,0,0,0.013020833333333334,14.296875,0)" xlink:href="#aV"/><use transform="matrix(0.013020833333333334,0,0,0.013020833333333334,29.231770833333336,0)" xlink:href="#aQ"/><use transform="matrix(0.013020833333333334,0,0,0.013020833333333334,43.528645833333336,0)" xlink:href="#aW"/><use transform="matrix(0.013020833333333334,0,0,0.013020833333333334,50.598958333333336,0)" xlink:href="#aX"/><use transform="matrix(0.013020833333333334,0,0,0.013020833333333334,63.984375,0)" xlink:href="#aR"/><use transform="matrix(0.013020833333333334,0,0,0.013020833333333334,72.99479166666667,0)" xlink:href="#aY"/><use transform="matrix(0.013020833333333334,0,0,0.013020833333333334,80.06510416666667,0)" xlink:href="#aZ"/><use transform="matrix(0.013020833333333334,0,0,0.013020833333333334,93.97135416666667,0)" xlink:href="#aT"/></g><path fill="#fff" d="M362-157h690V0H169v-1456h193v1299" id="ba"/><path fill="#fff" d="M442-501L326-380V0H141v-1536h185v929c135-169 291-317 436-475h225L566-630 1036 0H819" id="bb"/><g id="E"><use transform="matrix(0.013020833333333334,0,0,0.013020833333333334,0,0)" xlink:href="#ba"/><use transform="matrix(0.013020833333333334,0,0,0.013020833333333334,14.348958333333334,0)" xlink:href="#an"/><use transform="matrix(0.013020833333333334,0,0,0.013020833333333334,28.854166666666668,0)" xlink:href="#bb"/><use transform="matrix(0.013020833333333334,0,0,0.013020833333333334,42.109375,0)" xlink:href="#aq"/><use transform="matrix(0.013020833333333334,0,0,0.013020833333333334,56.23697916666667,0)" xlink:href="#aL"/><use transform="matrix(0.013020833333333334,0,0,0.013020833333333334,70.92447916666667,0)" xlink:href="#aD"/><use transform="matrix(0.013020833333333334,0,0,0.013020833333333334,86.1328125,0)" xlink:href="#au"/><use transform="matrix(0.013020833333333334,0,0,0.013020833333333334,100.83333333333333,0)" xlink:href="#av"/><use transform="matrix(0.013020833333333334,0,0,0.013020833333333334,114.58333333333334,0)" xlink:href="#aq"/></g><g id="F"><use transform="matrix(0.013020833333333334,0,0,0.013020833333333334,0,0)" xlink:href="#aM"/><use transform="matrix(0.013020833333333334,0,0,0.013020833333333334,17.395833333333336,0)" xlink:href="#ao"/><use transform="matrix(0.013020833333333334,0,0,0.013020833333333334,32.109375,0)" xlink:href="#an"/><use transform="matrix(0.013020833333333334,0,0,0.013020833333333334,46.614583333333336,0)" xlink:href="#at"/><use transform="matrix(0.013020833333333334,0,0,0.013020833333333334,53.0859375,0)" xlink:href="#aI"/><use transform="matrix(0.013020833333333334,0,0,0.013020833333333334,65.703125,0)" xlink:href="#aw"/><use transform="matrix(0.013020833333333334,0,0,0.013020833333333334,74.4140625,0)" xlink:href="#aG"/><use transform="matrix(0.013020833333333334,0,0,0.013020833333333334,80.88541666666667,0)" xlink:href="#as"/><use transform="matrix(0.013020833333333334,0,0,0.013020833333333334,94.84375,0)" xlink:href="#av"/></g><path fill="#fff" d="M658-217c127 0 227-49 227-165 0-57-21-98-60-130-79-64-370-142-463-196-162-95-248-210-248-361 0-280 246-403 537-407 213-3 383 84 467 216 45 69 68 147 68 234H886c0-139-96-211-240-211-129 0-232 55-232 169 0 47 24 87 72 119s117 62 210 90c171 51 295 115 373 191s117 171 117 284c-2 272-237 411-528 404C331 13 78-135 69-458h301c0 161 96 241 288 241" id="bc"/><g id="G"><use transform="matrix(0.013020833333333334,0,0,0.013020833333333334,0,0)" xlink:href="#bc"/><use transform="matrix(0.013020833333333334,0,0,0.013020833333333334,16.393229166666668,0)" xlink:href="#W"/><use transform="matrix(0.013020833333333334,0,0,0.013020833333333334,23.463541666666668,0)" xlink:href="#aa"/><use transform="matrix(0.013020833333333334,0,0,0.013020833333333334,38.3984375,0)" xlink:href="#ab"/><use transform="matrix(0.013020833333333334,0,0,0.013020833333333334,53.61979166666667,0)" xlink:href="#ae"/><use transform="matrix(0.013020833333333334,0,0,0.013020833333333334,60.69010416666667,0)" xlink:href="#ac"/></g><path fill="#fff" d="M1314 0h-300L430-958V0H130v-1456h300l585 960v-960h299V0" id="bd"/><path fill="#fff" d="M579 20C257 20 58-214 66-551c8-331 182-551 511-551 324 0 514 231 514 572 0 319-198 550-512 550zm-2-888c-169 0-222 141-222 338 0 181 61 317 224 317 170 0 223-137 223-338 0-178-64-317-225-317" id="be"/><g id="H"><use transform="matrix(0.013020833333333334,0,0,0.013020833333333334,0,0)" xlink:href="#bd"/><use transform="matrix(0.013020833333333334,0,0,0.013020833333333334,18.828125,0)" xlink:href="#be"/><use transform="matrix(0.013020833333333334,0,0,0.013020833333333334,33.90625,0)" xlink:href="#X"/><use transform="matrix(0.013020833333333334,0,0,0.013020833333333334,48.93229166666667,0)" xlink:href="#ac"/></g><g id="I"><use transform="matrix(0.013020833333333334,0,0,0.013020833333333334,0,0)" xlink:href="#aM"/><use transform="matrix(0.013020833333333334,0,0,0.013020833333333334,17.395833333333336,0)" xlink:href="#ar"/><use transform="matrix(0.013020833333333334,0,0,0.013020833333333334,32.434895833333336,0)" xlink:href="#aF"/><use transform="matrix(0.013020833333333334,0,0,0.013020833333333334,45.15625,0)" xlink:href="#an"/><use transform="matrix(0.013020833333333334,0,0,0.013020833333333334,59.661458333333336,0)" xlink:href="#ao"/><use transform="matrix(0.013020833333333334,0,0,0.013020833333333334,74.375,0)" xlink:href="#as"/><use transform="matrix(0.013020833333333334,0,0,0.013020833333333334,88.33333333333333,0)" xlink:href="#aq"/><use transform="matrix(0.013020833333333334,0,0,0.013020833333333334,102.4609375,0)" xlink:href="#ar"/></g><g id="J"><use transform="matrix(0.013020833333333334,0,0,0.013020833333333334,0,0)" xlink:href="#Q"/><use transform="matrix(0.013020833333333334,0,0,0.013020833333333334,17.942708333333336,0)" xlink:href="#S"/><use transform="matrix(0.013020833333333334,0,0,0.013020833333333334,37.01822916666667,0)" xlink:href="#Q"/></g><path fill="#97928c" d="M687-225c189-1 272-84 286-260h300c-19 311-251 505-586 505C296 20 86-277 86-686c0-466 174-782 605-790 340-6 557 198 584 514H975c-15-183-92-268-284-268-100 0-173 38-225 108-63 84-76 264-76 443 0 157 24 272 72 345s122 109 225 109" id="bf"/><path fill="#97928c" d="M719-811c-143-24-279 1-319 103V0H111v-1082h273l8 129c74-124 180-175 331-136" id="bg"/><g id="K"><use transform="matrix(0.013020833333333334,0,0,0.013020833333333334,0,0)" xlink:href="#bf"/><use transform="matrix(0.013020833333333334,0,0,0.013020833333333334,17.447916666666668,0)" xlink:href="#bg"/><use transform="matrix(0.013020833333333334,0,0,0.013020833333333334,26.927083333333336,0)" xlink:href="#aU"/><use transform="matrix(0.013020833333333334,0,0,0.013020833333333334,41.341145833333336,0)" xlink:href="#aQ"/><use transform="matrix(0.013020833333333334,0,0,0.013020833333333334,55.638020833333336,0)" xlink:href="#aR"/><use transform="matrix(0.013020833333333334,0,0,0.013020833333333334,64.6484375,0)" xlink:href="#aU"/><use transform="matrix(0.013020833333333334,0,0,0.013020833333333334,79.0625,0)" xlink:href="#aP"/></g><path fill="#97928c" d="M1052-393l142-689h279L1197 0H955L750-681 545 0H304L28-1082h279l141 688 198-688h209" id="bh"/><path fill="#97928c" d="M750-685c-1-124-48-182-173-182-85 0-146 33-184 98V0H104v-1536h289v572c77-92 173-138 289-138 235 0 357 136 357 409V0H750v-685" id="bi"/><g id="L"><use transform="matrix(0.013020833333333334,0,0,0.013020833333333334,0,0)" xlink:href="#bh"/><use transform="matrix(0.013020833333333334,0,0,0.013020833333333334,19.596354166666668,0)" xlink:href="#aY"/><use transform="matrix(0.013020833333333334,0,0,0.013020833333333334,26.666666666666668,0)" xlink:href="#aR"/><use transform="matrix(0.013020833333333334,0,0,0.013020833333333334,35.677083333333336,0)" xlink:href="#bi"/><use transform="matrix(0.013020833333333334,0,0,0.013020833333333334,50.598958333333336,0)" xlink:href="#aY"/><use transform="matrix(0.013020833333333334,0,0,0.013020833333333334,57.669270833333336,0)" xlink:href="#aV"/></g><path fill="#97928c" d="M1315 0h-300v-624H430V0H130v-1456h300v590h585v-590h300V0" id="bj"/><path fill="#97928c" d="M522-1456L896-400l372-1056h394V0h-301c-7-379 15-728 30-1085L998 0H792L400-1084c15 357 37 705 30 1084H130v-1456h392" id="bk"/><g id="M"><use transform="matrix(0.013020833333333334,0,0,0.013020833333333334,0,0)" xlink:href="#bj"/><use transform="matrix(0.013020833333333334,0,0,0.013020833333333334,18.841145833333336,0)" xlink:href="#bk"/></g><path fill="#97928c" d="M579 20C257 20 58-214 66-551c8-331 182-551 511-551 324 0 514 231 514 572 0 319-198 550-512 550zm-2-888c-169 0-222 141-222 338 0 181 61 317 224 317 170 0 223-137 223-338 0-178-64-317-225-317" id="bl"/><path fill="#97928c" d="M463 20c-241-1-359-147-359-393v-709h289v699c0 113 51 169 154 169 98 0 165-34 202-102v-766h290V0H767l-8-110C688-23 589 20 463 20" id="bm"/><g id="N"><use transform="matrix(0.013020833333333334,0,0,0.013020833333333334,0,0)" xlink:href="#bl"/><use transform="matrix(0.013020833333333334,0,0,0.013020833333333334,15.078125,0)" xlink:href="#bm"/><use transform="matrix(0.013020833333333334,0,0,0.013020833333333334,30,0)" xlink:href="#aR"/><use transform="matrix(0.013020833333333334,0,0,0.013020833333333334,39.01041666666667,0)" xlink:href="#aT"/><use transform="matrix(0.013020833333333334,0,0,0.013020833333333334,52.72135416666667,0)" xlink:href="#aY"/><use transform="matrix(0.013020833333333334,0,0,0.013020833333333334,59.79166666666667,0)" xlink:href="#aP"/><use transform="matrix(0.013020833333333334,0,0,0.013020833333333334,74.81770833333334,0)" xlink:href="#aU"/></g></defs></g></svg>