<svg width="549" height="703" viewBox="0 0 549 703" fill="none" xmlns="http://www.w3.org/2000/svg">
<rect width="549" height="702" transform="translate(0 0.285645)" fill="white"/>
<path d="M63.5598 641.286H486.44C489.51 641.286 492 638.83 492 635.801V65.7706C492 62.7416 489.51 60.2856 486.44 60.2856H63.5598C60.4895 60.2856 58 62.7416 58 65.7706V635.784C58 638.83 60.4895 641.286 63.5598 641.286Z" fill="white" stroke="#A8AAAD" stroke-width="5.75222"/>
<path fill-rule="evenodd" clip-rule="evenodd" d="M398.288 566.286H149.712C144.904 566.286 141 561.896 141 556.491V224.081C141 218.675 144.904 214.286 149.712 214.286H398.288C403.096 214.286 407 218.675 407 224.081V556.491C407 561.896 403.128 566.286 398.288 566.286Z" fill="white" stroke="#A8AAAD" stroke-width="5.77807"/>
<path opacity="0.15" fill-rule="evenodd" clip-rule="evenodd" d="M398.288 566.286H149.712C144.904 566.286 141 561.896 141 556.491V224.081C141 218.675 144.904 214.286 149.712 214.286H398.288C403.096 214.286 407 218.675 407 224.081V556.491C407 561.896 403.096 566.286 398.288 566.286Z" fill="#D2D3D4"/>
<path d="M260.097 385.452C253.214 382.058 245.264 384.45 242.324 390.784C241.968 391.559 241.677 392.367 241.516 393.207" fill="#FEFDF1"/>
<path d="M240.964 393.986C240.899 393.986 240.802 393.986 240.738 393.953C240.188 393.824 239.833 393.307 239.962 392.758C240.156 391.885 240.479 391.045 240.867 390.237C244.099 383.742 252.792 381.221 260.289 384.679C260.806 384.905 261.032 385.519 260.774 386.004C260.515 386.521 259.933 386.715 259.416 386.488C252.953 383.515 245.456 385.584 242.741 391.11C242.418 391.788 242.16 392.467 241.998 393.21C241.869 393.695 241.449 393.986 240.964 393.986Z" fill="#482B29"/>
<path d="M339.92 378.054C339.92 367.583 310.771 359.117 274.804 359.117C238.836 359.117 209.688 367.583 209.688 378.054V413.795C209.688 424.265 238.836 432.732 274.804 432.732C310.771 432.732 339.92 424.265 339.92 413.795V378.054Z" fill="#808285"/>
<path d="M274.799 435.058C240.899 435.058 206.58 427.593 206.58 413.309V377.73C206.58 363.446 240.899 355.981 274.799 355.981C308.698 355.981 343.018 363.446 343.018 377.73V413.309C343.018 427.593 308.698 435.058 274.799 435.058ZM274.799 361.766C236.149 361.766 212.397 371.073 212.397 377.73V413.309C212.397 419.966 236.149 429.273 274.799 429.273C313.449 429.273 337.201 419.966 337.201 413.309V377.73C337.201 371.073 313.481 361.766 274.799 361.766Z" fill="#231F20"/>
<path d="M274.804 359.117C238.836 359.117 209.688 367.616 209.688 378.118C209.688 388.621 238.836 397.12 274.804 397.12C310.771 397.12 339.92 388.621 339.92 378.118C339.92 367.616 310.771 359.117 274.804 359.117Z" fill="#D2D3D4"/>
<path d="M274.796 398.64C242.028 398.64 208.129 390.949 208.129 378.087C208.129 365.225 242.028 357.534 274.796 357.534C307.565 357.534 341.464 365.225 341.464 378.087C341.464 390.949 307.565 398.64 274.796 398.64ZM274.796 360.669C237.342 360.669 211.231 369.847 211.231 378.087C211.231 386.328 237.342 395.505 274.796 395.505C312.25 395.505 338.362 386.328 338.362 378.087C338.362 369.847 312.25 360.669 274.796 360.669Z" fill="#231F20"/>
<path d="M339.92 326.122C339.92 315.651 310.771 307.185 274.804 307.185C238.836 307.185 209.688 315.651 209.688 326.122V361.863C209.688 372.333 238.836 380.8 274.804 380.8C310.771 380.8 339.92 372.333 339.92 361.863V326.122Z" fill="#8171B5"/>
<path d="M274.799 383.159C240.899 383.159 206.58 375.694 206.58 361.411V325.831C206.58 311.547 240.899 304.082 274.799 304.082C308.698 304.082 343.018 311.547 343.018 325.831V361.411C343.018 375.694 308.698 383.159 274.799 383.159ZM274.799 309.867C236.149 309.867 212.397 319.174 212.397 325.831V361.411C212.397 368.068 236.149 377.375 274.799 377.375C313.449 377.375 337.201 368.068 337.201 361.411V325.831C337.201 319.174 313.481 309.867 274.799 309.867Z" fill="#231F20"/>
<path d="M312.613 341.635C301.949 343.865 288.894 345.157 274.804 345.157C238.836 345.157 209.688 336.658 209.688 326.156C209.688 315.653 238.836 307.154 274.804 307.154C310.771 307.154 339.92 315.653 339.92 326.156C339.92 330.098 335.816 333.75 328.804 336.755" fill="#D2D3D4"/>
<path d="M274.796 346.708C242.028 346.708 208.129 339.017 208.129 326.155C208.129 313.294 242.028 305.603 274.796 305.603C307.565 305.603 341.464 313.294 341.464 326.155C341.464 330.615 337.295 334.784 329.41 338.209C328.635 338.532 327.73 338.177 327.374 337.401C327.051 336.626 327.407 335.689 328.182 335.365C334.742 332.522 338.362 329.258 338.362 326.188C338.362 317.947 312.25 308.769 274.796 308.769C237.342 308.769 211.231 317.947 211.231 326.188C211.231 334.428 237.342 343.606 274.796 343.606C288.337 343.606 301.295 342.41 312.283 340.116C313.123 339.954 313.931 340.471 314.125 341.311C314.286 342.152 313.769 342.96 312.929 343.154C301.748 345.48 288.563 346.708 274.796 346.708Z" fill="#231F20"/>
<path d="M319.102 340.988C318.391 340.988 317.713 340.568 317.519 339.954C317.292 339.178 317.68 338.403 318.52 338.209L320.104 337.821C320.944 337.595 321.817 338.047 322.043 338.823C322.269 339.598 321.784 340.406 320.976 340.632L319.555 340.988C319.393 340.988 319.231 340.988 319.102 340.988Z" fill="#231F20"/>
<path d="M339.92 277.293C339.92 266.822 310.771 258.355 274.804 258.355C238.836 258.355 209.688 266.822 209.688 277.293V313.034C209.688 323.504 238.836 331.971 274.804 331.971C310.771 331.971 339.92 323.504 339.92 313.034V277.293Z" fill="#808285"/>
<path d="M274.799 334.33C240.899 334.33 206.58 326.865 206.58 312.582V277.002C206.58 262.718 240.899 255.286 274.799 255.286C308.698 255.286 343.018 262.751 343.018 277.002V312.582C343.018 326.865 308.698 334.33 274.799 334.33ZM274.799 261.038C236.149 261.038 212.397 270.345 212.397 277.002V312.582C212.397 319.239 236.149 328.546 274.799 328.546C313.449 328.546 337.201 319.239 337.201 312.582V277.002C337.201 270.345 313.481 261.038 274.799 261.038Z" fill="#231F20"/>
<path d="M218.111 286.697C212.747 283.95 209.709 280.75 209.709 277.357C209.709 266.855 238.858 258.356 274.825 258.356C310.793 258.356 339.942 266.855 339.942 277.357C339.942 287.86 310.793 296.359 274.825 296.359C257.31 296.359 241.411 294.355 229.712 291.059" fill="#D2D3D4"/>
<path d="M274.796 297.88C257.766 297.88 241.576 295.974 229.263 292.516C228.423 292.29 227.971 291.417 228.197 290.609C228.423 289.769 229.296 289.284 230.104 289.543C242.157 292.904 258.025 294.778 274.796 294.778C312.25 294.778 338.362 285.6 338.362 277.36C338.362 269.119 312.25 259.942 274.796 259.942C237.342 259.942 211.231 269.119 211.231 277.36C211.231 280.721 215.335 283.532 218.793 285.31C219.569 285.697 219.86 286.635 219.472 287.41C219.084 288.186 218.147 288.477 217.371 288.089C211.231 284.922 208.129 281.302 208.129 277.36C208.129 264.498 242.028 256.839 274.796 256.839C307.565 256.839 341.464 264.531 341.464 277.36C341.464 290.222 307.565 297.88 274.796 297.88Z" fill="#231F20"/>
<path d="M225.259 290.607C225.097 290.607 224.935 290.575 224.806 290.542L224.031 290.284C223.287 290.025 222.738 289.153 222.996 288.377C223.255 287.634 223.934 287.181 224.709 287.44L225.743 287.795C226.519 288.054 226.907 288.862 226.648 289.637C226.422 290.219 225.873 290.607 225.259 290.607Z" fill="#231F20"/>
<path d="M210.471 492.286V465.14H219.468C225.827 465.14 229.434 468.553 229.434 474.719V482.746C229.434 489.028 226.021 492.286 219.623 492.286H210.471ZM219.274 467.777H213.496V489.649H219.39C224.47 489.649 226.332 487.089 226.332 482.785V474.68C226.332 470.453 224.082 467.777 219.274 467.777ZM245.858 492.286V489.649C244.889 491.665 243.105 492.673 240.041 492.673C236.124 492.673 233.953 490.734 233.953 487.632V486.469C233.953 483.715 235.737 481.699 240.623 481.699H245.858V480.109C245.858 476.852 244.733 475.611 241.709 475.611C238.955 475.611 237.753 476.929 237.521 478.829H234.573C235.039 475.339 237.171 472.974 241.98 472.974C246.634 472.974 248.883 475.107 248.883 479.721V492.286H245.858ZM240.933 490.463C244.074 490.463 245.858 489.028 245.858 485.499V483.638H240.894C237.986 483.638 236.978 484.724 236.978 486.508V487.322C236.978 489.377 238.257 490.463 240.933 490.463ZM264.12 489.92V492.48H261.367C257.179 492.48 255.434 490.734 255.434 486.663V475.921H252.486V473.362H255.434V467.777H258.458V473.362H264.12V475.921H258.458V486.701C258.458 488.834 259.35 489.92 261.91 489.92H264.12ZM279.146 492.286V489.649C278.176 491.665 276.392 492.673 273.329 492.673C269.412 492.673 267.241 490.734 267.241 487.632V486.469C267.241 483.715 269.024 481.699 273.911 481.699H279.146V480.109C279.146 476.852 278.021 475.611 274.996 475.611C272.243 475.611 271.041 476.929 270.808 478.829H267.861C268.326 475.339 270.459 472.974 275.268 472.974C279.921 472.974 282.171 475.107 282.171 479.721V492.286H279.146ZM274.221 490.463C277.362 490.463 279.146 489.028 279.146 485.499V483.638H274.182C271.274 483.638 270.265 484.724 270.265 486.508V487.322C270.265 489.377 271.545 490.463 274.221 490.463ZM315.85 492.286L313.29 485.228H301.656L299.058 492.286H295.878L305.961 465.14H309.141L319.146 492.286H315.85ZM312.398 482.63L307.434 468.902L302.471 482.63H312.398ZM326.62 465.14H329.335V492.286H326.31V468.01L320.609 469.871V467.234L326.62 465.14ZM231.281 536.286V509.14H235.973V532.214H247.956V536.286H231.281ZM267.43 530.469C266.849 534.385 263.785 536.673 259.132 536.673C253.974 536.673 250.484 533.649 250.484 527.987V525.272C250.484 519.611 253.897 516.586 259.209 516.586C264.289 516.586 267.547 519.727 267.547 525.505V527.715H255.293C255.331 528.22 255.37 528.724 255.448 529.189C255.758 531.438 257.038 532.757 259.403 532.757C259.52 532.757 259.675 532.718 259.791 532.718C261.575 532.602 262.506 531.671 262.855 530.469H267.43ZM255.293 524.73L255.758 524.846H263.048C262.893 521.86 261.769 520.464 259.209 520.464C256.65 520.464 255.409 522.093 255.293 524.73ZM282.864 536.286V533.92C281.933 535.782 280.266 536.673 277.396 536.673C273.557 536.673 271.23 534.657 271.23 531.322V530.275C271.23 527.366 273.247 525.234 278.482 525.234H282.864V524.264C282.864 521.782 281.972 520.658 279.646 520.658C277.513 520.658 276.66 521.627 276.427 523.023H271.812C272.355 519.184 274.759 516.586 279.956 516.586C284.842 516.586 287.556 518.874 287.556 523.799V536.286H282.864ZM279.025 533.338C281.468 533.338 282.864 532.136 282.864 529.034V527.948H279.103C276.776 527.948 275.923 528.84 275.923 530.275V530.895C275.923 532.485 276.853 533.338 279.025 533.338ZM304.602 536.286V533.494C303.555 535.626 301.616 536.673 299.057 536.673C294.868 536.673 291.65 533.649 291.65 527.987V525.311C291.65 519.611 294.868 516.586 299.057 516.586C301.771 516.586 303.632 517.788 304.602 519.766V507.977H309.294V536.286H304.602ZM300.414 520.658C297.699 520.658 296.458 522.558 296.458 525.505V527.754C296.458 530.74 297.699 532.602 300.53 532.602C303.051 532.602 304.602 530.973 304.602 527.754V525.389C304.602 522.48 303.012 520.658 300.414 520.658Z" fill="#5A5B5C"/>
<path d="M156.669 133.286L154.11 126.228H142.476L139.878 133.286H136.698L146.781 106.14H149.96L159.965 133.286H156.669ZM153.218 123.63L148.254 109.902L143.29 123.63H153.218ZM170.461 133.286H166.971L159.991 114.362H163.248L168.794 130.145L174.339 114.362H177.48L170.461 133.286ZM191.729 133.286V130.649C190.76 132.665 188.976 133.673 185.912 133.673C181.996 133.673 179.824 131.734 179.824 128.632V127.469C179.824 124.715 181.608 122.699 186.494 122.699H191.729V121.109C191.729 117.852 190.605 116.611 187.58 116.611C184.827 116.611 183.625 117.929 183.392 119.829H180.445C180.91 116.339 183.043 113.974 187.851 113.974C192.505 113.974 194.754 116.107 194.754 120.721V133.286H191.729ZM186.804 131.463C189.946 131.463 191.729 130.028 191.729 126.499V124.638H186.766C183.857 124.638 182.849 125.724 182.849 127.508V128.322C182.849 130.377 184.129 131.463 186.804 131.463ZM202.383 110.677C201.18 110.677 200.25 109.824 200.25 108.7C200.25 107.575 201.18 106.722 202.383 106.722C203.662 106.722 204.554 107.575 204.554 108.7C204.554 109.824 203.662 110.677 202.383 110.677ZM200.87 133.286V114.362H203.934V133.286H200.87ZM213.208 128.555C213.208 130.338 213.751 130.843 215.302 130.843H215.884V133.48H215.186C211.618 133.48 210.145 132.433 210.145 128.593V104.977H213.208V128.555ZM231.038 133.286V130.649C230.069 132.665 228.285 133.673 225.222 133.673C221.305 133.673 219.133 131.734 219.133 128.632V127.469C219.133 124.715 220.917 122.699 225.803 122.699H231.038V121.109C231.038 117.852 229.914 116.611 226.889 116.611C224.136 116.611 222.934 117.929 222.701 119.829H219.754C220.219 116.339 222.352 113.974 227.161 113.974C231.814 113.974 234.063 116.107 234.063 120.721V133.286H231.038ZM226.114 131.463C229.255 131.463 231.038 130.028 231.038 126.499V124.638H226.075C223.166 124.638 222.158 125.724 222.158 127.508V128.322C222.158 130.377 223.438 131.463 226.114 131.463ZM249.06 133.673C246.19 133.673 244.212 132.355 243.243 130.222V133.286H240.179V104.977H243.243V117.541C244.251 115.176 246.345 113.974 249.06 113.974C253.364 113.974 256.428 116.805 256.428 122.389V125.297C256.428 130.843 253.364 133.673 249.06 133.673ZM248.362 131.036C251.774 131.036 253.364 128.787 253.364 125.258V122.428C253.364 118.899 251.774 116.611 248.323 116.611C245.182 116.611 243.243 118.627 243.243 122.583V125.336C243.243 128.865 245.221 131.036 248.362 131.036ZM263.467 110.677C262.265 110.677 261.334 109.824 261.334 108.7C261.334 107.575 262.265 106.722 263.467 106.722C264.747 106.722 265.639 107.575 265.639 108.7C265.639 109.824 264.747 110.677 263.467 110.677ZM261.955 133.286V114.362H265.018V133.286H261.955ZM274.293 128.555C274.293 130.338 274.836 130.843 276.387 130.843H276.969V133.48H276.271C272.703 133.48 271.229 132.433 271.229 128.593V104.977H274.293V128.555ZM282.932 110.677C281.73 110.677 280.799 109.824 280.799 108.7C280.799 107.575 281.73 106.722 282.932 106.722C284.212 106.722 285.104 107.575 285.104 108.7C285.104 109.824 284.212 110.677 282.932 110.677ZM281.42 133.286V114.362H284.483V133.286H281.42ZM300.312 130.92V133.48H297.558C293.37 133.48 291.625 131.734 291.625 127.663V116.921H288.678V114.362H291.625V108.777H294.65V114.362H300.312V116.921H294.65V127.701C294.65 129.834 295.542 130.92 298.101 130.92H300.312ZM303.739 141.235H302.575V138.598H303.739C305.988 138.598 307.19 138.055 308.78 134.255L309.827 131.773L302.343 114.362H305.6L311.339 128.05L317.04 114.362H320.181L311.339 135.263C309.323 140.033 307.578 141.235 303.739 141.235ZM332.041 133.286V130.998L346.428 108.777H332.778V106.14H350.19V108.428L335.764 130.649H350.306V133.286H332.041ZM361.269 133.673C356.344 133.673 353.164 130.843 353.164 125.297V122.35C353.164 116.805 356.344 113.974 361.269 113.974C366.194 113.974 369.412 116.805 369.412 122.35V125.297C369.412 130.843 366.194 133.673 361.269 133.673ZM361.269 116.611C357.817 116.611 356.266 118.899 356.266 122.35V125.258C356.266 128.787 357.817 131.036 361.269 131.036C364.72 131.036 366.31 128.787 366.31 125.258V122.35C366.31 118.899 364.72 116.611 361.269 116.611ZM377.947 122.505V133.286H374.883V114.362H377.947V117.929C379.149 115.292 381.359 113.974 384.074 113.974C388.185 113.974 390.434 116.145 390.434 120.721V133.286H387.409V121.342C387.409 118.201 386.129 116.611 383.066 116.611C380.235 116.611 377.947 118.782 377.947 122.505ZM411.359 127.624C410.932 131.541 408.024 133.673 403.719 133.673C398.911 133.673 395.692 130.843 395.692 125.297V122.35C395.692 116.805 398.872 113.974 403.758 113.974C408.45 113.974 411.475 116.843 411.475 122.428V124.173H398.833C398.833 124.793 398.872 125.414 398.911 125.995C399.066 129.175 400.617 131.114 403.874 131.114C404.185 131.114 404.456 131.114 404.727 131.075C406.938 130.804 408.179 129.602 408.45 127.624H411.359ZM398.833 121.962L399.066 122.234H408.605C408.45 118.278 407.015 116.494 403.758 116.494C400.423 116.494 398.872 118.627 398.833 121.962Z" fill="#505050"/>
</svg>
